G04 #@! TF.GenerationSoftware,KiCad,Pcbnew,(6.0.6-0)*
G04 #@! TF.CreationDate,2022-07-20T14:24:46-07:00*
G04 #@! TF.ProjectId,BreadControlV3,42726561-6443-46f6-9e74-726f6c56332e,rev?*
G04 #@! TF.SameCoordinates,Original*
G04 #@! TF.FileFunction,Legend,Top*
G04 #@! TF.FilePolarity,Positive*
%FSLAX46Y46*%
G04 Gerber Fmt 4.6, Leading zero omitted, Abs format (unit mm)*
G04 Created by KiCad (PCBNEW (6.0.6-0)) date 2022-07-20 14:24:46*
%MOMM*%
%LPD*%
G01*
G04 APERTURE LIST*
G04 Aperture macros list*
%AMRoundRect*
0 Rectangle with rounded corners*
0 $1 Rounding radius*
0 $2 $3 $4 $5 $6 $7 $8 $9 X,Y pos of 4 corners*
0 Add a 4 corners polygon primitive as box body*
4,1,4,$2,$3,$4,$5,$6,$7,$8,$9,$2,$3,0*
0 Add four circle primitives for the rounded corners*
1,1,$1+$1,$2,$3*
1,1,$1+$1,$4,$5*
1,1,$1+$1,$6,$7*
1,1,$1+$1,$8,$9*
0 Add four rect primitives between the rounded corners*
20,1,$1+$1,$2,$3,$4,$5,0*
20,1,$1+$1,$4,$5,$6,$7,0*
20,1,$1+$1,$6,$7,$8,$9,0*
20,1,$1+$1,$8,$9,$2,$3,0*%
G04 Aperture macros list end*
%ADD10C,0.150000*%
%ADD11C,0.125000*%
%ADD12C,0.250000*%
%ADD13C,0.200000*%
%ADD14C,0.120000*%
%ADD15C,0.100000*%
%ADD16RoundRect,0.250000X0.450000X-0.325000X0.450000X0.325000X-0.450000X0.325000X-0.450000X-0.325000X0*%
%ADD17RoundRect,0.250000X-0.925000X0.875000X-0.925000X-0.875000X0.925000X-0.875000X0.925000X0.875000X0*%
%ADD18RoundRect,0.250000X-0.450000X0.350000X-0.450000X-0.350000X0.450000X-0.350000X0.450000X0.350000X0*%
%ADD19R,0.400000X1.200000*%
%ADD20RoundRect,0.250000X0.450000X-0.350000X0.450000X0.350000X-0.450000X0.350000X-0.450000X-0.350000X0*%
%ADD21RoundRect,0.250000X-0.412500X-0.650000X0.412500X-0.650000X0.412500X0.650000X-0.412500X0.650000X0*%
%ADD22RoundRect,0.150000X-0.875000X-0.150000X0.875000X-0.150000X0.875000X0.150000X-0.875000X0.150000X0*%
%ADD23RoundRect,0.250000X-0.350000X-0.450000X0.350000X-0.450000X0.350000X0.450000X-0.350000X0.450000X0*%
%ADD24RoundRect,0.150000X-0.150000X0.825000X-0.150000X-0.825000X0.150000X-0.825000X0.150000X0.825000X0*%
%ADD25RoundRect,0.700000X0.000000X-0.150000X0.000000X-0.150000X0.000000X0.150000X0.000000X0.150000X0*%
%ADD26R,1.700000X1.700000*%
%ADD27O,1.700000X1.700000*%
%ADD28RoundRect,0.062500X0.350000X0.062500X-0.350000X0.062500X-0.350000X-0.062500X0.350000X-0.062500X0*%
%ADD29RoundRect,0.062500X0.062500X0.350000X-0.062500X0.350000X-0.062500X-0.350000X0.062500X-0.350000X0*%
%ADD30R,7.150000X7.150000*%
%ADD31RoundRect,0.250000X0.412500X0.650000X-0.412500X0.650000X-0.412500X-0.650000X0.412500X-0.650000X0*%
%ADD32RoundRect,0.250000X0.350000X0.450000X-0.350000X0.450000X-0.350000X-0.450000X0.350000X-0.450000X0*%
%ADD33C,0.900000*%
%ADD34R,0.500000X2.500000*%
%ADD35R,2.000000X2.500000*%
%ADD36C,1.600200*%
%ADD37R,0.558800X2.108200*%
%ADD38RoundRect,0.250000X0.475000X-0.337500X0.475000X0.337500X-0.475000X0.337500X-0.475000X-0.337500X0*%
%ADD39RoundRect,0.250000X-0.475000X0.337500X-0.475000X-0.337500X0.475000X-0.337500X0.475000X0.337500X0*%
%ADD40R,0.900000X1.200000*%
%ADD41RoundRect,0.150000X0.150000X-0.587500X0.150000X0.587500X-0.150000X0.587500X-0.150000X-0.587500X0*%
%ADD42R,1.400000X0.300000*%
%ADD43RoundRect,0.150000X-0.150000X-0.700000X0.150000X-0.700000X0.150000X0.700000X-0.150000X0.700000X0*%
%ADD44RoundRect,0.150000X-0.700000X-0.150000X0.700000X-0.150000X0.700000X0.150000X-0.700000X0.150000X0*%
%ADD45R,1.550000X1.300000*%
%ADD46RoundRect,0.100000X0.637500X0.100000X-0.637500X0.100000X-0.637500X-0.100000X0.637500X-0.100000X0*%
%ADD47RoundRect,0.250000X0.337500X0.475000X-0.337500X0.475000X-0.337500X-0.475000X0.337500X-0.475000X0*%
%ADD48RoundRect,0.150000X-0.825000X-0.150000X0.825000X-0.150000X0.825000X0.150000X-0.825000X0.150000X0*%
G04 APERTURE END LIST*
D10*
X80245142Y-51067714D02*
X80207047Y-51105809D01*
X80092761Y-51143904D01*
X80016571Y-51143904D01*
X79902285Y-51105809D01*
X79826095Y-51029619D01*
X79788000Y-50953428D01*
X79749904Y-50801047D01*
X79749904Y-50686761D01*
X79788000Y-50534380D01*
X79826095Y-50458190D01*
X79902285Y-50382000D01*
X80016571Y-50343904D01*
X80092761Y-50343904D01*
X80207047Y-50382000D01*
X80245142Y-50420095D01*
X80930857Y-50610571D02*
X80930857Y-51143904D01*
X80588000Y-50610571D02*
X80588000Y-51029619D01*
X80626095Y-51105809D01*
X80702285Y-51143904D01*
X80816571Y-51143904D01*
X80892761Y-51105809D01*
X80930857Y-51067714D01*
X81311809Y-51143904D02*
X81311809Y-50610571D01*
X81311809Y-50762952D02*
X81349904Y-50686761D01*
X81388000Y-50648666D01*
X81464190Y-50610571D01*
X81540380Y-50610571D01*
X81807047Y-51143904D02*
X81807047Y-50610571D01*
X81807047Y-50762952D02*
X81845142Y-50686761D01*
X81883238Y-50648666D01*
X81959428Y-50610571D01*
X82035619Y-50610571D01*
X82607047Y-51105809D02*
X82530857Y-51143904D01*
X82378476Y-51143904D01*
X82302285Y-51105809D01*
X82264190Y-51029619D01*
X82264190Y-50724857D01*
X82302285Y-50648666D01*
X82378476Y-50610571D01*
X82530857Y-50610571D01*
X82607047Y-50648666D01*
X82645142Y-50724857D01*
X82645142Y-50801047D01*
X82264190Y-50877238D01*
X82988000Y-50610571D02*
X82988000Y-51143904D01*
X82988000Y-50686761D02*
X83026095Y-50648666D01*
X83102285Y-50610571D01*
X83216571Y-50610571D01*
X83292761Y-50648666D01*
X83330857Y-50724857D01*
X83330857Y-51143904D01*
X83597523Y-50610571D02*
X83902285Y-50610571D01*
X83711809Y-50343904D02*
X83711809Y-51029619D01*
X83749904Y-51105809D01*
X83826095Y-51143904D01*
X83902285Y-51143904D01*
X80188000Y-52393809D02*
X80302285Y-52431904D01*
X80492761Y-52431904D01*
X80568952Y-52393809D01*
X80607047Y-52355714D01*
X80645142Y-52279523D01*
X80645142Y-52203333D01*
X80607047Y-52127142D01*
X80568952Y-52089047D01*
X80492761Y-52050952D01*
X80340380Y-52012857D01*
X80264190Y-51974761D01*
X80226095Y-51936666D01*
X80188000Y-51860476D01*
X80188000Y-51784285D01*
X80226095Y-51708095D01*
X80264190Y-51670000D01*
X80340380Y-51631904D01*
X80530857Y-51631904D01*
X80645142Y-51670000D01*
X81292761Y-52393809D02*
X81216571Y-52431904D01*
X81064190Y-52431904D01*
X80988000Y-52393809D01*
X80949904Y-52317619D01*
X80949904Y-52012857D01*
X80988000Y-51936666D01*
X81064190Y-51898571D01*
X81216571Y-51898571D01*
X81292761Y-51936666D01*
X81330857Y-52012857D01*
X81330857Y-52089047D01*
X80949904Y-52165238D01*
X81673714Y-51898571D02*
X81673714Y-52431904D01*
X81673714Y-51974761D02*
X81711809Y-51936666D01*
X81788000Y-51898571D01*
X81902285Y-51898571D01*
X81978476Y-51936666D01*
X82016571Y-52012857D01*
X82016571Y-52431904D01*
X82359428Y-52393809D02*
X82435619Y-52431904D01*
X82588000Y-52431904D01*
X82664190Y-52393809D01*
X82702285Y-52317619D01*
X82702285Y-52279523D01*
X82664190Y-52203333D01*
X82588000Y-52165238D01*
X82473714Y-52165238D01*
X82397523Y-52127142D01*
X82359428Y-52050952D01*
X82359428Y-52012857D01*
X82397523Y-51936666D01*
X82473714Y-51898571D01*
X82588000Y-51898571D01*
X82664190Y-51936666D01*
X83349904Y-52393809D02*
X83273714Y-52431904D01*
X83121333Y-52431904D01*
X83045142Y-52393809D01*
X83007047Y-52317619D01*
X83007047Y-52012857D01*
X83045142Y-51936666D01*
X83121333Y-51898571D01*
X83273714Y-51898571D01*
X83349904Y-51936666D01*
X83388000Y-52012857D01*
X83388000Y-52089047D01*
X83007047Y-52165238D01*
X79654666Y-53491333D02*
X80035619Y-53491333D01*
X79578476Y-53719904D02*
X79845142Y-52919904D01*
X80111809Y-53719904D01*
X80721333Y-53719904D02*
X80721333Y-52919904D01*
X80721333Y-53681809D02*
X80645142Y-53719904D01*
X80492761Y-53719904D01*
X80416571Y-53681809D01*
X80378476Y-53643714D01*
X80340380Y-53567523D01*
X80340380Y-53338952D01*
X80378476Y-53262761D01*
X80416571Y-53224666D01*
X80492761Y-53186571D01*
X80645142Y-53186571D01*
X80721333Y-53224666D01*
X81445142Y-53719904D02*
X81445142Y-52919904D01*
X81445142Y-53681809D02*
X81368952Y-53719904D01*
X81216571Y-53719904D01*
X81140380Y-53681809D01*
X81102285Y-53643714D01*
X81064190Y-53567523D01*
X81064190Y-53338952D01*
X81102285Y-53262761D01*
X81140380Y-53224666D01*
X81216571Y-53186571D01*
X81368952Y-53186571D01*
X81445142Y-53224666D01*
X81826095Y-53415142D02*
X82435619Y-53415142D01*
X82930857Y-53719904D02*
X82854666Y-53681809D01*
X82816571Y-53643714D01*
X82778476Y-53567523D01*
X82778476Y-53338952D01*
X82816571Y-53262761D01*
X82854666Y-53224666D01*
X82930857Y-53186571D01*
X83045142Y-53186571D01*
X83121333Y-53224666D01*
X83159428Y-53262761D01*
X83197523Y-53338952D01*
X83197523Y-53567523D01*
X83159428Y-53643714D01*
X83121333Y-53681809D01*
X83045142Y-53719904D01*
X82930857Y-53719904D01*
X83540380Y-53186571D02*
X83540380Y-53719904D01*
X83540380Y-53262761D02*
X83578476Y-53224666D01*
X83654666Y-53186571D01*
X83768952Y-53186571D01*
X83845142Y-53224666D01*
X83883238Y-53300857D01*
X83883238Y-53719904D01*
X82200761Y-30297380D02*
X81867428Y-29821190D01*
X81629333Y-30297380D02*
X81629333Y-29297380D01*
X82010285Y-29297380D01*
X82105523Y-29345000D01*
X82153142Y-29392619D01*
X82200761Y-29487857D01*
X82200761Y-29630714D01*
X82153142Y-29725952D01*
X82105523Y-29773571D01*
X82010285Y-29821190D01*
X81629333Y-29821190D01*
X82534095Y-30297380D02*
X83057904Y-29630714D01*
X82534095Y-29630714D02*
X83057904Y-30297380D01*
X34917142Y-73931428D02*
X34574285Y-73931428D01*
X34745714Y-73931428D02*
X34745714Y-73331428D01*
X34688571Y-73417142D01*
X34631428Y-73474285D01*
X34574285Y-73502857D01*
X35288571Y-73331428D02*
X35345714Y-73331428D01*
X35402857Y-73360000D01*
X35431428Y-73388571D01*
X35460000Y-73445714D01*
X35488571Y-73560000D01*
X35488571Y-73702857D01*
X35460000Y-73817142D01*
X35431428Y-73874285D01*
X35402857Y-73902857D01*
X35345714Y-73931428D01*
X35288571Y-73931428D01*
X35231428Y-73902857D01*
X35202857Y-73874285D01*
X35174285Y-73817142D01*
X35145714Y-73702857D01*
X35145714Y-73560000D01*
X35174285Y-73445714D01*
X35202857Y-73388571D01*
X35231428Y-73360000D01*
X35288571Y-73331428D01*
X36002857Y-73531428D02*
X36002857Y-73931428D01*
X35745714Y-73531428D02*
X35745714Y-73845714D01*
X35774285Y-73902857D01*
X35831428Y-73931428D01*
X35917142Y-73931428D01*
X35974285Y-73902857D01*
X36002857Y-73874285D01*
X36488571Y-73617142D02*
X36288571Y-73617142D01*
X36288571Y-73931428D02*
X36288571Y-73331428D01*
X36574285Y-73331428D01*
X93794285Y-73585428D02*
X93680000Y-73585428D01*
X93622857Y-73614000D01*
X93594285Y-73642571D01*
X93537142Y-73728285D01*
X93508571Y-73842571D01*
X93508571Y-74071142D01*
X93537142Y-74128285D01*
X93565714Y-74156857D01*
X93622857Y-74185428D01*
X93737142Y-74185428D01*
X93794285Y-74156857D01*
X93822857Y-74128285D01*
X93851428Y-74071142D01*
X93851428Y-73928285D01*
X93822857Y-73871142D01*
X93794285Y-73842571D01*
X93737142Y-73814000D01*
X93622857Y-73814000D01*
X93565714Y-73842571D01*
X93537142Y-73871142D01*
X93508571Y-73928285D01*
X94108571Y-74185428D02*
X94108571Y-73585428D01*
X94451428Y-74185428D02*
X94194285Y-73842571D01*
X94451428Y-73585428D02*
X94108571Y-73928285D01*
X73580952Y-37012571D02*
X73247619Y-37012571D01*
X73247619Y-37536380D02*
X73247619Y-36536380D01*
X73723809Y-36536380D01*
X73961904Y-36536380D02*
X74533333Y-36536380D01*
X74247619Y-37536380D02*
X74247619Y-36536380D01*
X74819047Y-36631619D02*
X74866666Y-36584000D01*
X74961904Y-36536380D01*
X75200000Y-36536380D01*
X75295238Y-36584000D01*
X75342857Y-36631619D01*
X75390476Y-36726857D01*
X75390476Y-36822095D01*
X75342857Y-36964952D01*
X74771428Y-37536380D01*
X75390476Y-37536380D01*
X75723809Y-36536380D02*
X76342857Y-36536380D01*
X76009523Y-36917333D01*
X76152380Y-36917333D01*
X76247619Y-36964952D01*
X76295238Y-37012571D01*
X76342857Y-37107809D01*
X76342857Y-37345904D01*
X76295238Y-37441142D01*
X76247619Y-37488761D01*
X76152380Y-37536380D01*
X75866666Y-37536380D01*
X75771428Y-37488761D01*
X75723809Y-37441142D01*
X77295238Y-37536380D02*
X76723809Y-37536380D01*
X77009523Y-37536380D02*
X77009523Y-36536380D01*
X76914285Y-36679238D01*
X76819047Y-36774476D01*
X76723809Y-36822095D01*
X77628571Y-36536380D02*
X78295238Y-37536380D01*
X78295238Y-36536380D02*
X77628571Y-37536380D01*
X78628571Y-37488761D02*
X78771428Y-37536380D01*
X79009523Y-37536380D01*
X79104761Y-37488761D01*
X79152380Y-37441142D01*
X79200000Y-37345904D01*
X79200000Y-37250666D01*
X79152380Y-37155428D01*
X79104761Y-37107809D01*
X79009523Y-37060190D01*
X78819047Y-37012571D01*
X78723809Y-36964952D01*
X78676190Y-36917333D01*
X78628571Y-36822095D01*
X78628571Y-36726857D01*
X78676190Y-36631619D01*
X78723809Y-36584000D01*
X78819047Y-36536380D01*
X79057142Y-36536380D01*
X79200000Y-36584000D01*
X91152714Y-69105428D02*
X90809857Y-69105428D01*
X90981285Y-69105428D02*
X90981285Y-68505428D01*
X90924142Y-68591142D01*
X90867000Y-68648285D01*
X90809857Y-68676857D01*
X91524142Y-68505428D02*
X91581285Y-68505428D01*
X91638428Y-68534000D01*
X91667000Y-68562571D01*
X91695571Y-68619714D01*
X91724142Y-68734000D01*
X91724142Y-68876857D01*
X91695571Y-68991142D01*
X91667000Y-69048285D01*
X91638428Y-69076857D01*
X91581285Y-69105428D01*
X91524142Y-69105428D01*
X91467000Y-69076857D01*
X91438428Y-69048285D01*
X91409857Y-68991142D01*
X91381285Y-68876857D01*
X91381285Y-68734000D01*
X91409857Y-68619714D01*
X91438428Y-68562571D01*
X91467000Y-68534000D01*
X91524142Y-68505428D01*
X91981285Y-69105428D02*
X91981285Y-68505428D01*
X92324142Y-69105428D02*
X92067000Y-68762571D01*
X92324142Y-68505428D02*
X91981285Y-68848285D01*
X56221428Y-69613428D02*
X55878571Y-69613428D01*
X56050000Y-69613428D02*
X56050000Y-69013428D01*
X55992857Y-69099142D01*
X55935714Y-69156285D01*
X55878571Y-69184857D01*
X56592857Y-69013428D02*
X56650000Y-69013428D01*
X56707142Y-69042000D01*
X56735714Y-69070571D01*
X56764285Y-69127714D01*
X56792857Y-69242000D01*
X56792857Y-69384857D01*
X56764285Y-69499142D01*
X56735714Y-69556285D01*
X56707142Y-69584857D01*
X56650000Y-69613428D01*
X56592857Y-69613428D01*
X56535714Y-69584857D01*
X56507142Y-69556285D01*
X56478571Y-69499142D01*
X56450000Y-69384857D01*
X56450000Y-69242000D01*
X56478571Y-69127714D01*
X56507142Y-69070571D01*
X56535714Y-69042000D01*
X56592857Y-69013428D01*
X57164285Y-69013428D02*
X57221428Y-69013428D01*
X57278571Y-69042000D01*
X57307142Y-69070571D01*
X57335714Y-69127714D01*
X57364285Y-69242000D01*
X57364285Y-69384857D01*
X57335714Y-69499142D01*
X57307142Y-69556285D01*
X57278571Y-69584857D01*
X57221428Y-69613428D01*
X57164285Y-69613428D01*
X57107142Y-69584857D01*
X57078571Y-69556285D01*
X57050000Y-69499142D01*
X57021428Y-69384857D01*
X57021428Y-69242000D01*
X57050000Y-69127714D01*
X57078571Y-69070571D01*
X57107142Y-69042000D01*
X57164285Y-69013428D01*
X57878571Y-69213428D02*
X57878571Y-69613428D01*
X57621428Y-69213428D02*
X57621428Y-69527714D01*
X57650000Y-69584857D01*
X57707142Y-69613428D01*
X57792857Y-69613428D01*
X57850000Y-69584857D01*
X57878571Y-69556285D01*
X58364285Y-69299142D02*
X58164285Y-69299142D01*
X58164285Y-69613428D02*
X58164285Y-69013428D01*
X58450000Y-69013428D01*
X65079809Y-77795380D02*
X64603619Y-77795380D01*
X64603619Y-76795380D01*
X65270285Y-76795380D02*
X65841714Y-76795380D01*
X65556000Y-77795380D02*
X65556000Y-76795380D01*
X66698857Y-77795380D02*
X66127428Y-77795380D01*
X66413142Y-77795380D02*
X66413142Y-76795380D01*
X66317904Y-76938238D01*
X66222666Y-77033476D01*
X66127428Y-77081095D01*
X67317904Y-76795380D02*
X67413142Y-76795380D01*
X67508380Y-76843000D01*
X67556000Y-76890619D01*
X67603619Y-76985857D01*
X67651238Y-77176333D01*
X67651238Y-77414428D01*
X67603619Y-77604904D01*
X67556000Y-77700142D01*
X67508380Y-77747761D01*
X67413142Y-77795380D01*
X67317904Y-77795380D01*
X67222666Y-77747761D01*
X67175047Y-77700142D01*
X67127428Y-77604904D01*
X67079809Y-77414428D01*
X67079809Y-77176333D01*
X67127428Y-76985857D01*
X67175047Y-76890619D01*
X67222666Y-76843000D01*
X67317904Y-76795380D01*
X68556000Y-76795380D02*
X68079809Y-76795380D01*
X68032190Y-77271571D01*
X68079809Y-77223952D01*
X68175047Y-77176333D01*
X68413142Y-77176333D01*
X68508380Y-77223952D01*
X68556000Y-77271571D01*
X68603619Y-77366809D01*
X68603619Y-77604904D01*
X68556000Y-77700142D01*
X68508380Y-77747761D01*
X68413142Y-77795380D01*
X68175047Y-77795380D01*
X68079809Y-77747761D01*
X68032190Y-77700142D01*
X69460761Y-77128714D02*
X69460761Y-77795380D01*
X69222666Y-76747761D02*
X68984571Y-77462047D01*
X69603619Y-77462047D01*
X45204142Y-73931428D02*
X44861285Y-73931428D01*
X45032714Y-73931428D02*
X45032714Y-73331428D01*
X44975571Y-73417142D01*
X44918428Y-73474285D01*
X44861285Y-73502857D01*
X45575571Y-73331428D02*
X45632714Y-73331428D01*
X45689857Y-73360000D01*
X45718428Y-73388571D01*
X45747000Y-73445714D01*
X45775571Y-73560000D01*
X45775571Y-73702857D01*
X45747000Y-73817142D01*
X45718428Y-73874285D01*
X45689857Y-73902857D01*
X45632714Y-73931428D01*
X45575571Y-73931428D01*
X45518428Y-73902857D01*
X45489857Y-73874285D01*
X45461285Y-73817142D01*
X45432714Y-73702857D01*
X45432714Y-73560000D01*
X45461285Y-73445714D01*
X45489857Y-73388571D01*
X45518428Y-73360000D01*
X45575571Y-73331428D01*
X46289857Y-73531428D02*
X46289857Y-73931428D01*
X46032714Y-73531428D02*
X46032714Y-73845714D01*
X46061285Y-73902857D01*
X46118428Y-73931428D01*
X46204142Y-73931428D01*
X46261285Y-73902857D01*
X46289857Y-73874285D01*
X46775571Y-73617142D02*
X46575571Y-73617142D01*
X46575571Y-73931428D02*
X46575571Y-73331428D01*
X46861285Y-73331428D01*
X94994428Y-41291428D02*
X94651571Y-41291428D01*
X94823000Y-41291428D02*
X94823000Y-40691428D01*
X94765857Y-40777142D01*
X94708714Y-40834285D01*
X94651571Y-40862857D01*
X95251571Y-41291428D02*
X95251571Y-40691428D01*
X95594428Y-41291428D02*
X95337285Y-40948571D01*
X95594428Y-40691428D02*
X95251571Y-41034285D01*
X82947333Y-33853380D02*
X82947333Y-32853380D01*
X83280666Y-33567666D01*
X83614000Y-32853380D01*
X83614000Y-33853380D01*
X84661619Y-33758142D02*
X84614000Y-33805761D01*
X84471142Y-33853380D01*
X84375904Y-33853380D01*
X84233047Y-33805761D01*
X84137809Y-33710523D01*
X84090190Y-33615285D01*
X84042571Y-33424809D01*
X84042571Y-33281952D01*
X84090190Y-33091476D01*
X84137809Y-32996238D01*
X84233047Y-32901000D01*
X84375904Y-32853380D01*
X84471142Y-32853380D01*
X84614000Y-32901000D01*
X84661619Y-32948619D01*
X85090190Y-33853380D02*
X85090190Y-32853380D01*
X85471142Y-32853380D01*
X85566380Y-32901000D01*
X85614000Y-32948619D01*
X85661619Y-33043857D01*
X85661619Y-33186714D01*
X85614000Y-33281952D01*
X85566380Y-33329571D01*
X85471142Y-33377190D01*
X85090190Y-33377190D01*
X86042571Y-32948619D02*
X86090190Y-32901000D01*
X86185428Y-32853380D01*
X86423523Y-32853380D01*
X86518761Y-32901000D01*
X86566380Y-32948619D01*
X86614000Y-33043857D01*
X86614000Y-33139095D01*
X86566380Y-33281952D01*
X85994952Y-33853380D01*
X86614000Y-33853380D01*
X86994952Y-32948619D02*
X87042571Y-32901000D01*
X87137809Y-32853380D01*
X87375904Y-32853380D01*
X87471142Y-32901000D01*
X87518761Y-32948619D01*
X87566380Y-33043857D01*
X87566380Y-33139095D01*
X87518761Y-33281952D01*
X86947333Y-33853380D01*
X87566380Y-33853380D01*
X87947333Y-32948619D02*
X87994952Y-32901000D01*
X88090190Y-32853380D01*
X88328285Y-32853380D01*
X88423523Y-32901000D01*
X88471142Y-32948619D01*
X88518761Y-33043857D01*
X88518761Y-33139095D01*
X88471142Y-33281952D01*
X87899714Y-33853380D01*
X88518761Y-33853380D01*
X89471142Y-33853380D02*
X88899714Y-33853380D01*
X89185428Y-33853380D02*
X89185428Y-32853380D01*
X89090190Y-32996238D01*
X88994952Y-33091476D01*
X88899714Y-33139095D01*
X89852095Y-33567666D02*
X90328285Y-33567666D01*
X89756857Y-33853380D02*
X90090190Y-32853380D01*
X90423523Y-33853380D01*
X95940809Y-29297380D02*
X96512238Y-29297380D01*
X96226523Y-30297380D02*
X96226523Y-29297380D01*
X96750333Y-30297380D02*
X97274142Y-29630714D01*
X96750333Y-29630714D02*
X97274142Y-30297380D01*
X98988428Y-30297380D02*
X98655095Y-29821190D01*
X98417000Y-30297380D02*
X98417000Y-29297380D01*
X98797952Y-29297380D01*
X98893190Y-29345000D01*
X98940809Y-29392619D01*
X98988428Y-29487857D01*
X98988428Y-29630714D01*
X98940809Y-29725952D01*
X98893190Y-29773571D01*
X98797952Y-29821190D01*
X98417000Y-29821190D01*
X99321761Y-30297380D02*
X99845571Y-29630714D01*
X99321761Y-29630714D02*
X99845571Y-30297380D01*
X64286428Y-58205666D02*
X64762619Y-58205666D01*
X64191190Y-58491380D02*
X64524523Y-57491380D01*
X64857857Y-58491380D01*
X65048333Y-57491380D02*
X65381666Y-58491380D01*
X65715000Y-57491380D01*
X66619761Y-58491380D02*
X66286428Y-58015190D01*
X66048333Y-58491380D02*
X66048333Y-57491380D01*
X66429285Y-57491380D01*
X66524523Y-57539000D01*
X66572142Y-57586619D01*
X66619761Y-57681857D01*
X66619761Y-57824714D01*
X66572142Y-57919952D01*
X66524523Y-57967571D01*
X66429285Y-58015190D01*
X66048333Y-58015190D01*
X67572142Y-58491380D02*
X67000714Y-58491380D01*
X67286428Y-58491380D02*
X67286428Y-57491380D01*
X67191190Y-57634238D01*
X67095952Y-57729476D01*
X67000714Y-57777095D01*
X67953095Y-57586619D02*
X68000714Y-57539000D01*
X68095952Y-57491380D01*
X68334047Y-57491380D01*
X68429285Y-57539000D01*
X68476904Y-57586619D01*
X68524523Y-57681857D01*
X68524523Y-57777095D01*
X68476904Y-57919952D01*
X67905476Y-58491380D01*
X68524523Y-58491380D01*
X69095952Y-57919952D02*
X69000714Y-57872333D01*
X68953095Y-57824714D01*
X68905476Y-57729476D01*
X68905476Y-57681857D01*
X68953095Y-57586619D01*
X69000714Y-57539000D01*
X69095952Y-57491380D01*
X69286428Y-57491380D01*
X69381666Y-57539000D01*
X69429285Y-57586619D01*
X69476904Y-57681857D01*
X69476904Y-57729476D01*
X69429285Y-57824714D01*
X69381666Y-57872333D01*
X69286428Y-57919952D01*
X69095952Y-57919952D01*
X69000714Y-57967571D01*
X68953095Y-58015190D01*
X68905476Y-58110428D01*
X68905476Y-58300904D01*
X68953095Y-58396142D01*
X69000714Y-58443761D01*
X69095952Y-58491380D01*
X69286428Y-58491380D01*
X69381666Y-58443761D01*
X69429285Y-58396142D01*
X69476904Y-58300904D01*
X69476904Y-58110428D01*
X69429285Y-58015190D01*
X69381666Y-57967571D01*
X69286428Y-57919952D01*
X69905476Y-58491380D02*
X69905476Y-57491380D01*
X70143571Y-57491380D01*
X70286428Y-57539000D01*
X70381666Y-57634238D01*
X70429285Y-57729476D01*
X70476904Y-57919952D01*
X70476904Y-58062809D01*
X70429285Y-58253285D01*
X70381666Y-58348523D01*
X70286428Y-58443761D01*
X70143571Y-58491380D01*
X69905476Y-58491380D01*
X71238809Y-57967571D02*
X71381666Y-58015190D01*
X71429285Y-58062809D01*
X71476904Y-58158047D01*
X71476904Y-58300904D01*
X71429285Y-58396142D01*
X71381666Y-58443761D01*
X71286428Y-58491380D01*
X70905476Y-58491380D01*
X70905476Y-57491380D01*
X71238809Y-57491380D01*
X71334047Y-57539000D01*
X71381666Y-57586619D01*
X71429285Y-57681857D01*
X71429285Y-57777095D01*
X71381666Y-57872333D01*
X71334047Y-57919952D01*
X71238809Y-57967571D01*
X70905476Y-57967571D01*
X72334047Y-57491380D02*
X72143571Y-57491380D01*
X72048333Y-57539000D01*
X72000714Y-57586619D01*
X71905476Y-57729476D01*
X71857857Y-57919952D01*
X71857857Y-58300904D01*
X71905476Y-58396142D01*
X71953095Y-58443761D01*
X72048333Y-58491380D01*
X72238809Y-58491380D01*
X72334047Y-58443761D01*
X72381666Y-58396142D01*
X72429285Y-58300904D01*
X72429285Y-58062809D01*
X72381666Y-57967571D01*
X72334047Y-57919952D01*
X72238809Y-57872333D01*
X72048333Y-57872333D01*
X71953095Y-57919952D01*
X71905476Y-57967571D01*
X71857857Y-58062809D01*
X73286428Y-57824714D02*
X73286428Y-58491380D01*
X73048333Y-57443761D02*
X72810238Y-58158047D01*
X73429285Y-58158047D01*
X73667380Y-57491380D02*
X74238809Y-57491380D01*
X73953095Y-58491380D02*
X73953095Y-57491380D01*
X74549000Y-56427619D02*
X74549000Y-56189523D01*
X74787095Y-56284761D02*
X74549000Y-56189523D01*
X74310904Y-56284761D01*
X74691857Y-55999047D02*
X74549000Y-56189523D01*
X74406142Y-55999047D01*
X56221428Y-65731428D02*
X55878571Y-65731428D01*
X56050000Y-65731428D02*
X56050000Y-65131428D01*
X55992857Y-65217142D01*
X55935714Y-65274285D01*
X55878571Y-65302857D01*
X56592857Y-65131428D02*
X56650000Y-65131428D01*
X56707142Y-65160000D01*
X56735714Y-65188571D01*
X56764285Y-65245714D01*
X56792857Y-65360000D01*
X56792857Y-65502857D01*
X56764285Y-65617142D01*
X56735714Y-65674285D01*
X56707142Y-65702857D01*
X56650000Y-65731428D01*
X56592857Y-65731428D01*
X56535714Y-65702857D01*
X56507142Y-65674285D01*
X56478571Y-65617142D01*
X56450000Y-65502857D01*
X56450000Y-65360000D01*
X56478571Y-65245714D01*
X56507142Y-65188571D01*
X56535714Y-65160000D01*
X56592857Y-65131428D01*
X57164285Y-65131428D02*
X57221428Y-65131428D01*
X57278571Y-65160000D01*
X57307142Y-65188571D01*
X57335714Y-65245714D01*
X57364285Y-65360000D01*
X57364285Y-65502857D01*
X57335714Y-65617142D01*
X57307142Y-65674285D01*
X57278571Y-65702857D01*
X57221428Y-65731428D01*
X57164285Y-65731428D01*
X57107142Y-65702857D01*
X57078571Y-65674285D01*
X57050000Y-65617142D01*
X57021428Y-65502857D01*
X57021428Y-65360000D01*
X57050000Y-65245714D01*
X57078571Y-65188571D01*
X57107142Y-65160000D01*
X57164285Y-65131428D01*
X57878571Y-65331428D02*
X57878571Y-65731428D01*
X57621428Y-65331428D02*
X57621428Y-65645714D01*
X57650000Y-65702857D01*
X57707142Y-65731428D01*
X57792857Y-65731428D01*
X57850000Y-65702857D01*
X57878571Y-65674285D01*
X58364285Y-65417142D02*
X58164285Y-65417142D01*
X58164285Y-65731428D02*
X58164285Y-65131428D01*
X58450000Y-65131428D01*
X39590714Y-40149428D02*
X39247857Y-40149428D01*
X39419285Y-40149428D02*
X39419285Y-39549428D01*
X39362142Y-39635142D01*
X39305000Y-39692285D01*
X39247857Y-39720857D01*
X39962142Y-39549428D02*
X40019285Y-39549428D01*
X40076428Y-39578000D01*
X40105000Y-39606571D01*
X40133571Y-39663714D01*
X40162142Y-39778000D01*
X40162142Y-39920857D01*
X40133571Y-40035142D01*
X40105000Y-40092285D01*
X40076428Y-40120857D01*
X40019285Y-40149428D01*
X39962142Y-40149428D01*
X39905000Y-40120857D01*
X39876428Y-40092285D01*
X39847857Y-40035142D01*
X39819285Y-39920857D01*
X39819285Y-39778000D01*
X39847857Y-39663714D01*
X39876428Y-39606571D01*
X39905000Y-39578000D01*
X39962142Y-39549428D01*
X40419285Y-40149428D02*
X40419285Y-39549428D01*
X40762142Y-40149428D02*
X40505000Y-39806571D01*
X40762142Y-39549428D02*
X40419285Y-39892285D01*
X66827714Y-35393380D02*
X66827714Y-36202904D01*
X66865809Y-36298142D01*
X66903904Y-36345761D01*
X66980095Y-36393380D01*
X67132476Y-36393380D01*
X67208666Y-36345761D01*
X67246761Y-36298142D01*
X67284857Y-36202904D01*
X67284857Y-35393380D01*
X67627714Y-36345761D02*
X67742000Y-36393380D01*
X67932476Y-36393380D01*
X68008666Y-36345761D01*
X68046761Y-36298142D01*
X68084857Y-36202904D01*
X68084857Y-36107666D01*
X68046761Y-36012428D01*
X68008666Y-35964809D01*
X67932476Y-35917190D01*
X67780095Y-35869571D01*
X67703904Y-35821952D01*
X67665809Y-35774333D01*
X67627714Y-35679095D01*
X67627714Y-35583857D01*
X67665809Y-35488619D01*
X67703904Y-35441000D01*
X67780095Y-35393380D01*
X67970571Y-35393380D01*
X68084857Y-35441000D01*
X68694380Y-35869571D02*
X68808666Y-35917190D01*
X68846761Y-35964809D01*
X68884857Y-36060047D01*
X68884857Y-36202904D01*
X68846761Y-36298142D01*
X68808666Y-36345761D01*
X68732476Y-36393380D01*
X68427714Y-36393380D01*
X68427714Y-35393380D01*
X68694380Y-35393380D01*
X68770571Y-35441000D01*
X68808666Y-35488619D01*
X68846761Y-35583857D01*
X68846761Y-35679095D01*
X68808666Y-35774333D01*
X68770571Y-35821952D01*
X68694380Y-35869571D01*
X68427714Y-35869571D01*
X69837238Y-36393380D02*
X69837238Y-35393380D01*
X70103904Y-36107666D01*
X70370571Y-35393380D01*
X70370571Y-36393380D01*
X70751523Y-36393380D02*
X70751523Y-35726714D01*
X70751523Y-35393380D02*
X70713428Y-35441000D01*
X70751523Y-35488619D01*
X70789619Y-35441000D01*
X70751523Y-35393380D01*
X70751523Y-35488619D01*
X71132476Y-35726714D02*
X71132476Y-36393380D01*
X71132476Y-35821952D02*
X71170571Y-35774333D01*
X71246761Y-35726714D01*
X71361047Y-35726714D01*
X71437238Y-35774333D01*
X71475333Y-35869571D01*
X71475333Y-36393380D01*
X71856285Y-36393380D02*
X71856285Y-35726714D01*
X71856285Y-35393380D02*
X71818190Y-35441000D01*
X71856285Y-35488619D01*
X71894380Y-35441000D01*
X71856285Y-35393380D01*
X71856285Y-35488619D01*
D11*
X68457047Y-38381809D02*
X68480857Y-38358000D01*
X68528476Y-38334190D01*
X68647523Y-38334190D01*
X68695142Y-38358000D01*
X68718952Y-38381809D01*
X68742761Y-38429428D01*
X68742761Y-38477047D01*
X68718952Y-38548476D01*
X68433238Y-38834190D01*
X68742761Y-38834190D01*
X68933238Y-38381809D02*
X68957047Y-38358000D01*
X69004666Y-38334190D01*
X69123714Y-38334190D01*
X69171333Y-38358000D01*
X69195142Y-38381809D01*
X69218952Y-38429428D01*
X69218952Y-38477047D01*
X69195142Y-38548476D01*
X68909428Y-38834190D01*
X69218952Y-38834190D01*
X69718952Y-38834190D02*
X69552285Y-38596095D01*
X69433238Y-38834190D02*
X69433238Y-38334190D01*
X69623714Y-38334190D01*
X69671333Y-38358000D01*
X69695142Y-38381809D01*
X69718952Y-38429428D01*
X69718952Y-38500857D01*
X69695142Y-38548476D01*
X69671333Y-38572285D01*
X69623714Y-38596095D01*
X69433238Y-38596095D01*
D10*
X62455001Y-47427080D02*
X62455001Y-47665176D01*
X62216905Y-47569938D02*
X62455001Y-47665176D01*
X62693096Y-47569938D01*
X62312143Y-47855652D02*
X62455001Y-47665176D01*
X62597858Y-47855652D01*
X62455001Y-47427080D02*
X62455001Y-47665176D01*
X62216905Y-47569938D02*
X62455001Y-47665176D01*
X62693096Y-47569938D01*
X62312143Y-47855652D02*
X62455001Y-47665176D01*
X62597858Y-47855652D01*
X53010047Y-59035904D02*
X52743380Y-58654952D01*
X52552904Y-59035904D02*
X52552904Y-58235904D01*
X52857666Y-58235904D01*
X52933857Y-58274000D01*
X52971952Y-58312095D01*
X53010047Y-58388285D01*
X53010047Y-58502571D01*
X52971952Y-58578761D01*
X52933857Y-58616857D01*
X52857666Y-58654952D01*
X52552904Y-58654952D01*
X53467190Y-59035904D02*
X53391000Y-58997809D01*
X53352904Y-58959714D01*
X53314809Y-58883523D01*
X53314809Y-58654952D01*
X53352904Y-58578761D01*
X53391000Y-58540666D01*
X53467190Y-58502571D01*
X53581476Y-58502571D01*
X53657666Y-58540666D01*
X53695761Y-58578761D01*
X53733857Y-58654952D01*
X53733857Y-58883523D01*
X53695761Y-58959714D01*
X53657666Y-58997809D01*
X53581476Y-59035904D01*
X53467190Y-59035904D01*
X54419571Y-58502571D02*
X54419571Y-59035904D01*
X54076714Y-58502571D02*
X54076714Y-58921619D01*
X54114809Y-58997809D01*
X54191000Y-59035904D01*
X54305285Y-59035904D01*
X54381476Y-58997809D01*
X54419571Y-58959714D01*
X54686238Y-58502571D02*
X54991000Y-58502571D01*
X54800523Y-58235904D02*
X54800523Y-58921619D01*
X54838619Y-58997809D01*
X54914809Y-59035904D01*
X54991000Y-59035904D01*
X55600523Y-59035904D02*
X55600523Y-58616857D01*
X55562428Y-58540666D01*
X55486238Y-58502571D01*
X55333857Y-58502571D01*
X55257666Y-58540666D01*
X55600523Y-58997809D02*
X55524333Y-59035904D01*
X55333857Y-59035904D01*
X55257666Y-58997809D01*
X55219571Y-58921619D01*
X55219571Y-58845428D01*
X55257666Y-58769238D01*
X55333857Y-58731142D01*
X55524333Y-58731142D01*
X55600523Y-58693047D01*
X55981476Y-59035904D02*
X55981476Y-58235904D01*
X55981476Y-58540666D02*
X56057666Y-58502571D01*
X56210047Y-58502571D01*
X56286238Y-58540666D01*
X56324333Y-58578761D01*
X56362428Y-58654952D01*
X56362428Y-58883523D01*
X56324333Y-58959714D01*
X56286238Y-58997809D01*
X56210047Y-59035904D01*
X56057666Y-59035904D01*
X55981476Y-58997809D01*
X56819571Y-59035904D02*
X56743380Y-58997809D01*
X56705285Y-58921619D01*
X56705285Y-58235904D01*
X57429095Y-58997809D02*
X57352904Y-59035904D01*
X57200523Y-59035904D01*
X57124333Y-58997809D01*
X57086238Y-58921619D01*
X57086238Y-58616857D01*
X57124333Y-58540666D01*
X57200523Y-58502571D01*
X57352904Y-58502571D01*
X57429095Y-58540666D01*
X57467190Y-58616857D01*
X57467190Y-58693047D01*
X57086238Y-58769238D01*
X58515380Y-59126380D02*
X58515380Y-58126380D01*
X59705857Y-58078761D02*
X58848714Y-59364476D01*
X60229666Y-58126380D02*
X60420142Y-58126380D01*
X60515380Y-58174000D01*
X60610619Y-58269238D01*
X60658238Y-58459714D01*
X60658238Y-58793047D01*
X60610619Y-58983523D01*
X60515380Y-59078761D01*
X60420142Y-59126380D01*
X60229666Y-59126380D01*
X60134428Y-59078761D01*
X60039190Y-58983523D01*
X59991571Y-58793047D01*
X59991571Y-58459714D01*
X60039190Y-58269238D01*
X60134428Y-58174000D01*
X60229666Y-58126380D01*
X81246714Y-63644428D02*
X80903857Y-63644428D01*
X81075285Y-63644428D02*
X81075285Y-63044428D01*
X81018142Y-63130142D01*
X80961000Y-63187285D01*
X80903857Y-63215857D01*
X81618142Y-63044428D02*
X81675285Y-63044428D01*
X81732428Y-63073000D01*
X81761000Y-63101571D01*
X81789571Y-63158714D01*
X81818142Y-63273000D01*
X81818142Y-63415857D01*
X81789571Y-63530142D01*
X81761000Y-63587285D01*
X81732428Y-63615857D01*
X81675285Y-63644428D01*
X81618142Y-63644428D01*
X81561000Y-63615857D01*
X81532428Y-63587285D01*
X81503857Y-63530142D01*
X81475285Y-63415857D01*
X81475285Y-63273000D01*
X81503857Y-63158714D01*
X81532428Y-63101571D01*
X81561000Y-63073000D01*
X81618142Y-63044428D01*
X82075285Y-63644428D02*
X82075285Y-63044428D01*
X82418142Y-63644428D02*
X82161000Y-63301571D01*
X82418142Y-63044428D02*
X82075285Y-63387285D01*
X69461142Y-64025428D02*
X69118285Y-64025428D01*
X69289714Y-64025428D02*
X69289714Y-63425428D01*
X69232571Y-63511142D01*
X69175428Y-63568285D01*
X69118285Y-63596857D01*
X69832571Y-63425428D02*
X69889714Y-63425428D01*
X69946857Y-63454000D01*
X69975428Y-63482571D01*
X70004000Y-63539714D01*
X70032571Y-63654000D01*
X70032571Y-63796857D01*
X70004000Y-63911142D01*
X69975428Y-63968285D01*
X69946857Y-63996857D01*
X69889714Y-64025428D01*
X69832571Y-64025428D01*
X69775428Y-63996857D01*
X69746857Y-63968285D01*
X69718285Y-63911142D01*
X69689714Y-63796857D01*
X69689714Y-63654000D01*
X69718285Y-63539714D01*
X69746857Y-63482571D01*
X69775428Y-63454000D01*
X69832571Y-63425428D01*
X70546857Y-63625428D02*
X70546857Y-64025428D01*
X70289714Y-63625428D02*
X70289714Y-63939714D01*
X70318285Y-63996857D01*
X70375428Y-64025428D01*
X70461142Y-64025428D01*
X70518285Y-63996857D01*
X70546857Y-63968285D01*
X71032571Y-63711142D02*
X70832571Y-63711142D01*
X70832571Y-64025428D02*
X70832571Y-63425428D01*
X71118285Y-63425428D01*
X88485714Y-74185428D02*
X88142857Y-74185428D01*
X88314285Y-74185428D02*
X88314285Y-73585428D01*
X88257142Y-73671142D01*
X88200000Y-73728285D01*
X88142857Y-73756857D01*
X88857142Y-73585428D02*
X88914285Y-73585428D01*
X88971428Y-73614000D01*
X89000000Y-73642571D01*
X89028571Y-73699714D01*
X89057142Y-73814000D01*
X89057142Y-73956857D01*
X89028571Y-74071142D01*
X89000000Y-74128285D01*
X88971428Y-74156857D01*
X88914285Y-74185428D01*
X88857142Y-74185428D01*
X88800000Y-74156857D01*
X88771428Y-74128285D01*
X88742857Y-74071142D01*
X88714285Y-73956857D01*
X88714285Y-73814000D01*
X88742857Y-73699714D01*
X88771428Y-73642571D01*
X88800000Y-73614000D01*
X88857142Y-73585428D01*
X89314285Y-74185428D02*
X89314285Y-73585428D01*
X89657142Y-74185428D02*
X89400000Y-73842571D01*
X89657142Y-73585428D02*
X89314285Y-73928285D01*
X98804428Y-41291428D02*
X98461571Y-41291428D01*
X98633000Y-41291428D02*
X98633000Y-40691428D01*
X98575857Y-40777142D01*
X98518714Y-40834285D01*
X98461571Y-40862857D01*
X99061571Y-41291428D02*
X99061571Y-40691428D01*
X99404428Y-41291428D02*
X99147285Y-40948571D01*
X99404428Y-40691428D02*
X99061571Y-41034285D01*
D12*
X55625200Y-29184457D02*
X55568057Y-29327314D01*
X55568057Y-29541600D01*
X55625200Y-29755885D01*
X55739485Y-29898742D01*
X55853771Y-29970171D01*
X56082342Y-30041600D01*
X56253771Y-30041600D01*
X56482342Y-29970171D01*
X56596628Y-29898742D01*
X56710914Y-29755885D01*
X56768057Y-29541600D01*
X56768057Y-29398742D01*
X56710914Y-29184457D01*
X56653771Y-29113028D01*
X56253771Y-29113028D01*
X56253771Y-29398742D01*
X56768057Y-28470171D02*
X55568057Y-28470171D01*
X56768057Y-27613028D01*
X55568057Y-27613028D01*
X56768057Y-26898742D02*
X55568057Y-26898742D01*
X55568057Y-26541600D01*
X55625200Y-26327314D01*
X55739485Y-26184457D01*
X55853771Y-26113028D01*
X56082342Y-26041600D01*
X56253771Y-26041600D01*
X56482342Y-26113028D01*
X56596628Y-26184457D01*
X56710914Y-26327314D01*
X56768057Y-26541600D01*
X56768057Y-26898742D01*
X52926457Y-30708314D02*
X53897885Y-30708314D01*
X54012171Y-30636885D01*
X54069314Y-30565457D01*
X54126457Y-30422600D01*
X54126457Y-30136885D01*
X54069314Y-29994028D01*
X54012171Y-29922600D01*
X53897885Y-29851171D01*
X52926457Y-29851171D01*
X54126457Y-29136885D02*
X52926457Y-29136885D01*
X52926457Y-28565457D01*
X52983600Y-28422600D01*
X53040742Y-28351171D01*
X53155028Y-28279742D01*
X53326457Y-28279742D01*
X53440742Y-28351171D01*
X53497885Y-28422600D01*
X53555028Y-28565457D01*
X53555028Y-29136885D01*
X54126457Y-27636885D02*
X52926457Y-27636885D01*
X52926457Y-27279742D01*
X52983600Y-27065457D01*
X53097885Y-26922600D01*
X53212171Y-26851171D01*
X53440742Y-26779742D01*
X53612171Y-26779742D01*
X53840742Y-26851171D01*
X53955028Y-26922600D01*
X54069314Y-27065457D01*
X54126457Y-27279742D01*
X54126457Y-27636885D01*
X54126457Y-26136885D02*
X52926457Y-26136885D01*
X31534190Y-26127523D02*
X33134190Y-26127523D01*
X33134190Y-26622761D01*
X33058000Y-26746571D01*
X32981809Y-26808476D01*
X32829428Y-26870380D01*
X32600857Y-26870380D01*
X32448476Y-26808476D01*
X32372285Y-26746571D01*
X32296095Y-26622761D01*
X32296095Y-26127523D01*
X31534190Y-27427523D02*
X32600857Y-27427523D01*
X32296095Y-27427523D02*
X32448476Y-27489428D01*
X32524666Y-27551333D01*
X32600857Y-27675142D01*
X32600857Y-27798952D01*
X31534190Y-28418000D02*
X31610380Y-28294190D01*
X31686571Y-28232285D01*
X31838952Y-28170380D01*
X32296095Y-28170380D01*
X32448476Y-28232285D01*
X32524666Y-28294190D01*
X32600857Y-28418000D01*
X32600857Y-28603714D01*
X32524666Y-28727523D01*
X32448476Y-28789428D01*
X32296095Y-28851333D01*
X31838952Y-28851333D01*
X31686571Y-28789428D01*
X31610380Y-28727523D01*
X31534190Y-28603714D01*
X31534190Y-28418000D01*
X31534190Y-29408476D02*
X33134190Y-29408476D01*
X32524666Y-29408476D02*
X32600857Y-29532285D01*
X32600857Y-29779904D01*
X32524666Y-29903714D01*
X32448476Y-29965619D01*
X32296095Y-30027523D01*
X31838952Y-30027523D01*
X31686571Y-29965619D01*
X31610380Y-29903714D01*
X31534190Y-29779904D01*
X31534190Y-29532285D01*
X31610380Y-29408476D01*
X31610380Y-31079904D02*
X31534190Y-30956095D01*
X31534190Y-30708476D01*
X31610380Y-30584666D01*
X31762761Y-30522761D01*
X32372285Y-30522761D01*
X32524666Y-30584666D01*
X32600857Y-30708476D01*
X32600857Y-30956095D01*
X32524666Y-31079904D01*
X32372285Y-31141809D01*
X32219904Y-31141809D01*
X32067523Y-30522761D01*
X32981809Y-32627523D02*
X33058000Y-32689428D01*
X33134190Y-32813238D01*
X33134190Y-33122761D01*
X33058000Y-33246571D01*
X32981809Y-33308476D01*
X32829428Y-33370380D01*
X32677047Y-33370380D01*
X32448476Y-33308476D01*
X31534190Y-32565619D01*
X31534190Y-33370380D01*
D10*
X62730142Y-45102428D02*
X62387285Y-45102428D01*
X62558714Y-45102428D02*
X62558714Y-44502428D01*
X62501571Y-44588142D01*
X62444428Y-44645285D01*
X62387285Y-44673857D01*
X63101571Y-44502428D02*
X63158714Y-44502428D01*
X63215857Y-44531000D01*
X63244428Y-44559571D01*
X63273000Y-44616714D01*
X63301571Y-44731000D01*
X63301571Y-44873857D01*
X63273000Y-44988142D01*
X63244428Y-45045285D01*
X63215857Y-45073857D01*
X63158714Y-45102428D01*
X63101571Y-45102428D01*
X63044428Y-45073857D01*
X63015857Y-45045285D01*
X62987285Y-44988142D01*
X62958714Y-44873857D01*
X62958714Y-44731000D01*
X62987285Y-44616714D01*
X63015857Y-44559571D01*
X63044428Y-44531000D01*
X63101571Y-44502428D01*
X63815857Y-44702428D02*
X63815857Y-45102428D01*
X63558714Y-44702428D02*
X63558714Y-45016714D01*
X63587285Y-45073857D01*
X63644428Y-45102428D01*
X63730142Y-45102428D01*
X63787285Y-45073857D01*
X63815857Y-45045285D01*
X64301571Y-44788142D02*
X64101571Y-44788142D01*
X64101571Y-45102428D02*
X64101571Y-44502428D01*
X64387285Y-44502428D01*
X76414380Y-28566904D02*
X77223904Y-28566904D01*
X77319142Y-28519285D01*
X77366761Y-28471666D01*
X77414380Y-28376428D01*
X77414380Y-28185952D01*
X77366761Y-28090714D01*
X77319142Y-28043095D01*
X77223904Y-27995476D01*
X76414380Y-27995476D01*
X77366761Y-27566904D02*
X77414380Y-27424047D01*
X77414380Y-27185952D01*
X77366761Y-27090714D01*
X77319142Y-27043095D01*
X77223904Y-26995476D01*
X77128666Y-26995476D01*
X77033428Y-27043095D01*
X76985809Y-27090714D01*
X76938190Y-27185952D01*
X76890571Y-27376428D01*
X76842952Y-27471666D01*
X76795333Y-27519285D01*
X76700095Y-27566904D01*
X76604857Y-27566904D01*
X76509619Y-27519285D01*
X76462000Y-27471666D01*
X76414380Y-27376428D01*
X76414380Y-27138333D01*
X76462000Y-26995476D01*
X76890571Y-26233571D02*
X76938190Y-26090714D01*
X76985809Y-26043095D01*
X77081047Y-25995476D01*
X77223904Y-25995476D01*
X77319142Y-26043095D01*
X77366761Y-26090714D01*
X77414380Y-26185952D01*
X77414380Y-26566904D01*
X76414380Y-26566904D01*
X76414380Y-26233571D01*
X76462000Y-26138333D01*
X76509619Y-26090714D01*
X76604857Y-26043095D01*
X76700095Y-26043095D01*
X76795333Y-26090714D01*
X76842952Y-26138333D01*
X76890571Y-26233571D01*
X76890571Y-26566904D01*
X97904428Y-33508904D02*
X97904428Y-32708904D01*
X98209190Y-32708904D01*
X98285380Y-32747000D01*
X98323476Y-32785095D01*
X98361571Y-32861285D01*
X98361571Y-32975571D01*
X98323476Y-33051761D01*
X98285380Y-33089857D01*
X98209190Y-33127952D01*
X97904428Y-33127952D01*
X98704428Y-33508904D02*
X98704428Y-32708904D01*
X99161571Y-33508904D01*
X99161571Y-32708904D01*
X99542523Y-33508904D02*
X99542523Y-32708904D01*
X99847285Y-32708904D01*
X99923476Y-32747000D01*
X99961571Y-32785095D01*
X99999666Y-32861285D01*
X99999666Y-32975571D01*
X99961571Y-33051761D01*
X99923476Y-33089857D01*
X99847285Y-33127952D01*
X99542523Y-33127952D01*
X88849523Y-63734904D02*
X88849523Y-62934904D01*
X89116190Y-63506333D01*
X89382857Y-62934904D01*
X89382857Y-63734904D01*
X90220952Y-63658714D02*
X90182857Y-63696809D01*
X90068571Y-63734904D01*
X89992380Y-63734904D01*
X89878095Y-63696809D01*
X89801904Y-63620619D01*
X89763809Y-63544428D01*
X89725714Y-63392047D01*
X89725714Y-63277761D01*
X89763809Y-63125380D01*
X89801904Y-63049190D01*
X89878095Y-62973000D01*
X89992380Y-62934904D01*
X90068571Y-62934904D01*
X90182857Y-62973000D01*
X90220952Y-63011095D01*
X90563809Y-63734904D02*
X90563809Y-62934904D01*
X90868571Y-62934904D01*
X90944761Y-62973000D01*
X90982857Y-63011095D01*
X91020952Y-63087285D01*
X91020952Y-63201571D01*
X90982857Y-63277761D01*
X90944761Y-63315857D01*
X90868571Y-63353952D01*
X90563809Y-63353952D01*
X91706666Y-63201571D02*
X91706666Y-63734904D01*
X91516190Y-62896809D02*
X91325714Y-63468238D01*
X91820952Y-63468238D01*
X92049523Y-62934904D02*
X92582857Y-62934904D01*
X92240000Y-63734904D01*
X92849523Y-63011095D02*
X92887619Y-62973000D01*
X92963809Y-62934904D01*
X93154285Y-62934904D01*
X93230476Y-62973000D01*
X93268571Y-63011095D01*
X93306666Y-63087285D01*
X93306666Y-63163476D01*
X93268571Y-63277761D01*
X92811428Y-63734904D01*
X93306666Y-63734904D01*
X93763809Y-63277761D02*
X93687619Y-63239666D01*
X93649523Y-63201571D01*
X93611428Y-63125380D01*
X93611428Y-63087285D01*
X93649523Y-63011095D01*
X93687619Y-62973000D01*
X93763809Y-62934904D01*
X93916190Y-62934904D01*
X93992380Y-62973000D01*
X94030476Y-63011095D01*
X94068571Y-63087285D01*
X94068571Y-63125380D01*
X94030476Y-63201571D01*
X93992380Y-63239666D01*
X93916190Y-63277761D01*
X93763809Y-63277761D01*
X93687619Y-63315857D01*
X93649523Y-63353952D01*
X93611428Y-63430142D01*
X93611428Y-63582523D01*
X93649523Y-63658714D01*
X93687619Y-63696809D01*
X93763809Y-63734904D01*
X93916190Y-63734904D01*
X93992380Y-63696809D01*
X94030476Y-63658714D01*
X94068571Y-63582523D01*
X94068571Y-63430142D01*
X94030476Y-63353952D01*
X93992380Y-63315857D01*
X93916190Y-63277761D01*
X95258380Y-62936380D02*
X95258380Y-61936380D01*
X95591714Y-62650666D01*
X95925047Y-61936380D01*
X95925047Y-62936380D01*
X96258380Y-61936380D02*
X96829809Y-61936380D01*
X96544095Y-62936380D02*
X96544095Y-61936380D01*
X97306000Y-62364952D02*
X97210761Y-62317333D01*
X97163142Y-62269714D01*
X97115523Y-62174476D01*
X97115523Y-62126857D01*
X97163142Y-62031619D01*
X97210761Y-61984000D01*
X97306000Y-61936380D01*
X97496476Y-61936380D01*
X97591714Y-61984000D01*
X97639333Y-62031619D01*
X97686952Y-62126857D01*
X97686952Y-62174476D01*
X97639333Y-62269714D01*
X97591714Y-62317333D01*
X97496476Y-62364952D01*
X97306000Y-62364952D01*
X97210761Y-62412571D01*
X97163142Y-62460190D01*
X97115523Y-62555428D01*
X97115523Y-62745904D01*
X97163142Y-62841142D01*
X97210761Y-62888761D01*
X97306000Y-62936380D01*
X97496476Y-62936380D01*
X97591714Y-62888761D01*
X97639333Y-62841142D01*
X97686952Y-62745904D01*
X97686952Y-62555428D01*
X97639333Y-62460190D01*
X97591714Y-62412571D01*
X97496476Y-62364952D01*
X98258380Y-62364952D02*
X98163142Y-62317333D01*
X98115523Y-62269714D01*
X98067904Y-62174476D01*
X98067904Y-62126857D01*
X98115523Y-62031619D01*
X98163142Y-61984000D01*
X98258380Y-61936380D01*
X98448857Y-61936380D01*
X98544095Y-61984000D01*
X98591714Y-62031619D01*
X98639333Y-62126857D01*
X98639333Y-62174476D01*
X98591714Y-62269714D01*
X98544095Y-62317333D01*
X98448857Y-62364952D01*
X98258380Y-62364952D01*
X98163142Y-62412571D01*
X98115523Y-62460190D01*
X98067904Y-62555428D01*
X98067904Y-62745904D01*
X98115523Y-62841142D01*
X98163142Y-62888761D01*
X98258380Y-62936380D01*
X98448857Y-62936380D01*
X98544095Y-62888761D01*
X98591714Y-62841142D01*
X98639333Y-62745904D01*
X98639333Y-62555428D01*
X98591714Y-62460190D01*
X98544095Y-62412571D01*
X98448857Y-62364952D01*
X99591714Y-62936380D02*
X99020285Y-62936380D01*
X99306000Y-62936380D02*
X99306000Y-61936380D01*
X99210761Y-62079238D01*
X99115523Y-62174476D01*
X99020285Y-62222095D01*
X100448857Y-61936380D02*
X100258380Y-61936380D01*
X100163142Y-61984000D01*
X100115523Y-62031619D01*
X100020285Y-62174476D01*
X99972666Y-62364952D01*
X99972666Y-62745904D01*
X100020285Y-62841142D01*
X100067904Y-62888761D01*
X100163142Y-62936380D01*
X100353619Y-62936380D01*
X100448857Y-62888761D01*
X100496476Y-62841142D01*
X100544095Y-62745904D01*
X100544095Y-62507809D01*
X100496476Y-62412571D01*
X100448857Y-62364952D01*
X100353619Y-62317333D01*
X100163142Y-62317333D01*
X100067904Y-62364952D01*
X100020285Y-62412571D01*
X99972666Y-62507809D01*
X100925047Y-62650666D02*
X101401238Y-62650666D01*
X100829809Y-62936380D02*
X101163142Y-61936380D01*
X101496476Y-62936380D01*
X101829809Y-62936380D02*
X101829809Y-61936380D01*
X102210761Y-61936380D01*
X102306000Y-61984000D01*
X102353619Y-62031619D01*
X102401238Y-62126857D01*
X102401238Y-62269714D01*
X102353619Y-62364952D01*
X102306000Y-62412571D01*
X102210761Y-62460190D01*
X101829809Y-62460190D01*
X89789000Y-43303857D02*
X89789000Y-44332428D01*
X89731857Y-44446714D01*
X89617571Y-44503857D01*
X89560428Y-44503857D01*
X89789000Y-42903857D02*
X89731857Y-42961000D01*
X89789000Y-43018142D01*
X89846142Y-42961000D01*
X89789000Y-42903857D01*
X89789000Y-43018142D01*
X40124142Y-73931428D02*
X39781285Y-73931428D01*
X39952714Y-73931428D02*
X39952714Y-73331428D01*
X39895571Y-73417142D01*
X39838428Y-73474285D01*
X39781285Y-73502857D01*
X40495571Y-73331428D02*
X40552714Y-73331428D01*
X40609857Y-73360000D01*
X40638428Y-73388571D01*
X40667000Y-73445714D01*
X40695571Y-73560000D01*
X40695571Y-73702857D01*
X40667000Y-73817142D01*
X40638428Y-73874285D01*
X40609857Y-73902857D01*
X40552714Y-73931428D01*
X40495571Y-73931428D01*
X40438428Y-73902857D01*
X40409857Y-73874285D01*
X40381285Y-73817142D01*
X40352714Y-73702857D01*
X40352714Y-73560000D01*
X40381285Y-73445714D01*
X40409857Y-73388571D01*
X40438428Y-73360000D01*
X40495571Y-73331428D01*
X41209857Y-73531428D02*
X41209857Y-73931428D01*
X40952714Y-73531428D02*
X40952714Y-73845714D01*
X40981285Y-73902857D01*
X41038428Y-73931428D01*
X41124142Y-73931428D01*
X41181285Y-73902857D01*
X41209857Y-73874285D01*
X41695571Y-73617142D02*
X41495571Y-73617142D01*
X41495571Y-73931428D02*
X41495571Y-73331428D01*
X41781285Y-73331428D01*
D13*
X42576904Y-32964380D02*
X42243571Y-32488190D01*
X42005476Y-32964380D02*
X42005476Y-31964380D01*
X42386428Y-31964380D01*
X42481666Y-32012000D01*
X42529285Y-32059619D01*
X42576904Y-32154857D01*
X42576904Y-32297714D01*
X42529285Y-32392952D01*
X42481666Y-32440571D01*
X42386428Y-32488190D01*
X42005476Y-32488190D01*
X43386428Y-32916761D02*
X43291190Y-32964380D01*
X43100714Y-32964380D01*
X43005476Y-32916761D01*
X42957857Y-32821523D01*
X42957857Y-32440571D01*
X43005476Y-32345333D01*
X43100714Y-32297714D01*
X43291190Y-32297714D01*
X43386428Y-32345333D01*
X43434047Y-32440571D01*
X43434047Y-32535809D01*
X42957857Y-32631047D01*
X43815000Y-32916761D02*
X43910238Y-32964380D01*
X44100714Y-32964380D01*
X44195952Y-32916761D01*
X44243571Y-32821523D01*
X44243571Y-32773904D01*
X44195952Y-32678666D01*
X44100714Y-32631047D01*
X43957857Y-32631047D01*
X43862619Y-32583428D01*
X43815000Y-32488190D01*
X43815000Y-32440571D01*
X43862619Y-32345333D01*
X43957857Y-32297714D01*
X44100714Y-32297714D01*
X44195952Y-32345333D01*
X45053095Y-32916761D02*
X44957857Y-32964380D01*
X44767380Y-32964380D01*
X44672142Y-32916761D01*
X44624523Y-32821523D01*
X44624523Y-32440571D01*
X44672142Y-32345333D01*
X44767380Y-32297714D01*
X44957857Y-32297714D01*
X45053095Y-32345333D01*
X45100714Y-32440571D01*
X45100714Y-32535809D01*
X44624523Y-32631047D01*
X45386428Y-32297714D02*
X45767380Y-32297714D01*
X45529285Y-31964380D02*
X45529285Y-32821523D01*
X45576904Y-32916761D01*
X45672142Y-32964380D01*
X45767380Y-32964380D01*
D10*
X39305000Y-35069428D02*
X38962142Y-35069428D01*
X39133571Y-35069428D02*
X39133571Y-34469428D01*
X39076428Y-34555142D01*
X39019285Y-34612285D01*
X38962142Y-34640857D01*
X39676428Y-34469428D02*
X39733571Y-34469428D01*
X39790714Y-34498000D01*
X39819285Y-34526571D01*
X39847857Y-34583714D01*
X39876428Y-34698000D01*
X39876428Y-34840857D01*
X39847857Y-34955142D01*
X39819285Y-35012285D01*
X39790714Y-35040857D01*
X39733571Y-35069428D01*
X39676428Y-35069428D01*
X39619285Y-35040857D01*
X39590714Y-35012285D01*
X39562142Y-34955142D01*
X39533571Y-34840857D01*
X39533571Y-34698000D01*
X39562142Y-34583714D01*
X39590714Y-34526571D01*
X39619285Y-34498000D01*
X39676428Y-34469428D01*
X40247857Y-34469428D02*
X40305000Y-34469428D01*
X40362142Y-34498000D01*
X40390714Y-34526571D01*
X40419285Y-34583714D01*
X40447857Y-34698000D01*
X40447857Y-34840857D01*
X40419285Y-34955142D01*
X40390714Y-35012285D01*
X40362142Y-35040857D01*
X40305000Y-35069428D01*
X40247857Y-35069428D01*
X40190714Y-35040857D01*
X40162142Y-35012285D01*
X40133571Y-34955142D01*
X40105000Y-34840857D01*
X40105000Y-34698000D01*
X40133571Y-34583714D01*
X40162142Y-34526571D01*
X40190714Y-34498000D01*
X40247857Y-34469428D01*
X41047857Y-35069428D02*
X40847857Y-34783714D01*
X40705000Y-35069428D02*
X40705000Y-34469428D01*
X40933571Y-34469428D01*
X40990714Y-34498000D01*
X41019285Y-34526571D01*
X41047857Y-34583714D01*
X41047857Y-34669428D01*
X41019285Y-34726571D01*
X40990714Y-34755142D01*
X40933571Y-34783714D01*
X40705000Y-34783714D01*
D11*
X66079714Y-40310571D02*
X66055904Y-40334380D01*
X65984476Y-40358190D01*
X65936857Y-40358190D01*
X65865428Y-40334380D01*
X65817809Y-40286761D01*
X65794000Y-40239142D01*
X65770190Y-40143904D01*
X65770190Y-40072476D01*
X65794000Y-39977238D01*
X65817809Y-39929619D01*
X65865428Y-39882000D01*
X65936857Y-39858190D01*
X65984476Y-39858190D01*
X66055904Y-39882000D01*
X66079714Y-39905809D01*
X66508285Y-40024857D02*
X66508285Y-40358190D01*
X66294000Y-40024857D02*
X66294000Y-40286761D01*
X66317809Y-40334380D01*
X66365428Y-40358190D01*
X66436857Y-40358190D01*
X66484476Y-40334380D01*
X66508285Y-40310571D01*
X66674952Y-40024857D02*
X66865428Y-40024857D01*
X66746380Y-39858190D02*
X66746380Y-40286761D01*
X66770190Y-40334380D01*
X66817809Y-40358190D01*
X66865428Y-40358190D01*
D10*
X91254285Y-73585428D02*
X91140000Y-73585428D01*
X91082857Y-73614000D01*
X91054285Y-73642571D01*
X90997142Y-73728285D01*
X90968571Y-73842571D01*
X90968571Y-74071142D01*
X90997142Y-74128285D01*
X91025714Y-74156857D01*
X91082857Y-74185428D01*
X91197142Y-74185428D01*
X91254285Y-74156857D01*
X91282857Y-74128285D01*
X91311428Y-74071142D01*
X91311428Y-73928285D01*
X91282857Y-73871142D01*
X91254285Y-73842571D01*
X91197142Y-73814000D01*
X91082857Y-73814000D01*
X91025714Y-73842571D01*
X90997142Y-73871142D01*
X90968571Y-73928285D01*
X91568571Y-74185428D02*
X91568571Y-73585428D01*
X91911428Y-74185428D02*
X91654285Y-73842571D01*
X91911428Y-73585428D02*
X91568571Y-73928285D01*
X71874142Y-64025428D02*
X71531285Y-64025428D01*
X71702714Y-64025428D02*
X71702714Y-63425428D01*
X71645571Y-63511142D01*
X71588428Y-63568285D01*
X71531285Y-63596857D01*
X72245571Y-63425428D02*
X72302714Y-63425428D01*
X72359857Y-63454000D01*
X72388428Y-63482571D01*
X72417000Y-63539714D01*
X72445571Y-63654000D01*
X72445571Y-63796857D01*
X72417000Y-63911142D01*
X72388428Y-63968285D01*
X72359857Y-63996857D01*
X72302714Y-64025428D01*
X72245571Y-64025428D01*
X72188428Y-63996857D01*
X72159857Y-63968285D01*
X72131285Y-63911142D01*
X72102714Y-63796857D01*
X72102714Y-63654000D01*
X72131285Y-63539714D01*
X72159857Y-63482571D01*
X72188428Y-63454000D01*
X72245571Y-63425428D01*
X72959857Y-63625428D02*
X72959857Y-64025428D01*
X72702714Y-63625428D02*
X72702714Y-63939714D01*
X72731285Y-63996857D01*
X72788428Y-64025428D01*
X72874142Y-64025428D01*
X72931285Y-63996857D01*
X72959857Y-63968285D01*
X73445571Y-63711142D02*
X73245571Y-63711142D01*
X73245571Y-64025428D02*
X73245571Y-63425428D01*
X73531285Y-63425428D01*
X44386904Y-35504380D02*
X44386904Y-34504380D01*
X44720238Y-35218666D01*
X45053571Y-34504380D01*
X45053571Y-35504380D01*
X46101190Y-35409142D02*
X46053571Y-35456761D01*
X45910714Y-35504380D01*
X45815476Y-35504380D01*
X45672619Y-35456761D01*
X45577380Y-35361523D01*
X45529761Y-35266285D01*
X45482142Y-35075809D01*
X45482142Y-34932952D01*
X45529761Y-34742476D01*
X45577380Y-34647238D01*
X45672619Y-34552000D01*
X45815476Y-34504380D01*
X45910714Y-34504380D01*
X46053571Y-34552000D01*
X46101190Y-34599619D01*
X46529761Y-35504380D02*
X46529761Y-34504380D01*
X46910714Y-34504380D01*
X47005952Y-34552000D01*
X47053571Y-34599619D01*
X47101190Y-34694857D01*
X47101190Y-34837714D01*
X47053571Y-34932952D01*
X47005952Y-34980571D01*
X46910714Y-35028190D01*
X46529761Y-35028190D01*
X47958333Y-34837714D02*
X47958333Y-35504380D01*
X47720238Y-34456761D02*
X47482142Y-35171047D01*
X48101190Y-35171047D01*
X48910714Y-34504380D02*
X48720238Y-34504380D01*
X48625000Y-34552000D01*
X48577380Y-34599619D01*
X48482142Y-34742476D01*
X48434523Y-34932952D01*
X48434523Y-35313904D01*
X48482142Y-35409142D01*
X48529761Y-35456761D01*
X48625000Y-35504380D01*
X48815476Y-35504380D01*
X48910714Y-35456761D01*
X48958333Y-35409142D01*
X49005952Y-35313904D01*
X49005952Y-35075809D01*
X48958333Y-34980571D01*
X48910714Y-34932952D01*
X48815476Y-34885333D01*
X48625000Y-34885333D01*
X48529761Y-34932952D01*
X48482142Y-34980571D01*
X48434523Y-35075809D01*
X49863095Y-34504380D02*
X49672619Y-34504380D01*
X49577380Y-34552000D01*
X49529761Y-34599619D01*
X49434523Y-34742476D01*
X49386904Y-34932952D01*
X49386904Y-35313904D01*
X49434523Y-35409142D01*
X49482142Y-35456761D01*
X49577380Y-35504380D01*
X49767857Y-35504380D01*
X49863095Y-35456761D01*
X49910714Y-35409142D01*
X49958333Y-35313904D01*
X49958333Y-35075809D01*
X49910714Y-34980571D01*
X49863095Y-34932952D01*
X49767857Y-34885333D01*
X49577380Y-34885333D01*
X49482142Y-34932952D01*
X49434523Y-34980571D01*
X49386904Y-35075809D01*
X50910714Y-35504380D02*
X50339285Y-35504380D01*
X50625000Y-35504380D02*
X50625000Y-34504380D01*
X50529761Y-34647238D01*
X50434523Y-34742476D01*
X50339285Y-34790095D01*
X49871428Y-65731428D02*
X49528571Y-65731428D01*
X49700000Y-65731428D02*
X49700000Y-65131428D01*
X49642857Y-65217142D01*
X49585714Y-65274285D01*
X49528571Y-65302857D01*
X50242857Y-65131428D02*
X50300000Y-65131428D01*
X50357142Y-65160000D01*
X50385714Y-65188571D01*
X50414285Y-65245714D01*
X50442857Y-65360000D01*
X50442857Y-65502857D01*
X50414285Y-65617142D01*
X50385714Y-65674285D01*
X50357142Y-65702857D01*
X50300000Y-65731428D01*
X50242857Y-65731428D01*
X50185714Y-65702857D01*
X50157142Y-65674285D01*
X50128571Y-65617142D01*
X50100000Y-65502857D01*
X50100000Y-65360000D01*
X50128571Y-65245714D01*
X50157142Y-65188571D01*
X50185714Y-65160000D01*
X50242857Y-65131428D01*
X50814285Y-65131428D02*
X50871428Y-65131428D01*
X50928571Y-65160000D01*
X50957142Y-65188571D01*
X50985714Y-65245714D01*
X51014285Y-65360000D01*
X51014285Y-65502857D01*
X50985714Y-65617142D01*
X50957142Y-65674285D01*
X50928571Y-65702857D01*
X50871428Y-65731428D01*
X50814285Y-65731428D01*
X50757142Y-65702857D01*
X50728571Y-65674285D01*
X50700000Y-65617142D01*
X50671428Y-65502857D01*
X50671428Y-65360000D01*
X50700000Y-65245714D01*
X50728571Y-65188571D01*
X50757142Y-65160000D01*
X50814285Y-65131428D01*
X51528571Y-65331428D02*
X51528571Y-65731428D01*
X51271428Y-65331428D02*
X51271428Y-65645714D01*
X51300000Y-65702857D01*
X51357142Y-65731428D01*
X51442857Y-65731428D01*
X51500000Y-65702857D01*
X51528571Y-65674285D01*
X52014285Y-65417142D02*
X51814285Y-65417142D01*
X51814285Y-65731428D02*
X51814285Y-65131428D01*
X52100000Y-65131428D01*
X87796904Y-30351571D02*
X87844523Y-30323000D01*
X87939761Y-30294428D01*
X88177857Y-30294428D01*
X88273095Y-30323000D01*
X88320714Y-30351571D01*
X88368333Y-30408714D01*
X88368333Y-30465857D01*
X88320714Y-30551571D01*
X87749285Y-30894428D01*
X88368333Y-30894428D01*
X88749285Y-30351571D02*
X88796904Y-30323000D01*
X88892142Y-30294428D01*
X89130238Y-30294428D01*
X89225476Y-30323000D01*
X89273095Y-30351571D01*
X89320714Y-30408714D01*
X89320714Y-30465857D01*
X89273095Y-30551571D01*
X88701666Y-30894428D01*
X89320714Y-30894428D01*
X89939761Y-30294428D02*
X90035000Y-30294428D01*
X90130238Y-30323000D01*
X90177857Y-30351571D01*
X90225476Y-30408714D01*
X90273095Y-30523000D01*
X90273095Y-30665857D01*
X90225476Y-30780142D01*
X90177857Y-30837285D01*
X90130238Y-30865857D01*
X90035000Y-30894428D01*
X89939761Y-30894428D01*
X89844523Y-30865857D01*
X89796904Y-30837285D01*
X89749285Y-30780142D01*
X89701666Y-30665857D01*
X89701666Y-30523000D01*
X89749285Y-30408714D01*
X89796904Y-30351571D01*
X89844523Y-30323000D01*
X89939761Y-30294428D01*
X91273095Y-30894428D02*
X90939761Y-30608714D01*
X90701666Y-30894428D02*
X90701666Y-30294428D01*
X91082619Y-30294428D01*
X91177857Y-30323000D01*
X91225476Y-30351571D01*
X91273095Y-30408714D01*
X91273095Y-30494428D01*
X91225476Y-30551571D01*
X91177857Y-30580142D01*
X91082619Y-30608714D01*
X90701666Y-30608714D01*
X74414142Y-64025428D02*
X74071285Y-64025428D01*
X74242714Y-64025428D02*
X74242714Y-63425428D01*
X74185571Y-63511142D01*
X74128428Y-63568285D01*
X74071285Y-63596857D01*
X74785571Y-63425428D02*
X74842714Y-63425428D01*
X74899857Y-63454000D01*
X74928428Y-63482571D01*
X74957000Y-63539714D01*
X74985571Y-63654000D01*
X74985571Y-63796857D01*
X74957000Y-63911142D01*
X74928428Y-63968285D01*
X74899857Y-63996857D01*
X74842714Y-64025428D01*
X74785571Y-64025428D01*
X74728428Y-63996857D01*
X74699857Y-63968285D01*
X74671285Y-63911142D01*
X74642714Y-63796857D01*
X74642714Y-63654000D01*
X74671285Y-63539714D01*
X74699857Y-63482571D01*
X74728428Y-63454000D01*
X74785571Y-63425428D01*
X75499857Y-63625428D02*
X75499857Y-64025428D01*
X75242714Y-63625428D02*
X75242714Y-63939714D01*
X75271285Y-63996857D01*
X75328428Y-64025428D01*
X75414142Y-64025428D01*
X75471285Y-63996857D01*
X75499857Y-63968285D01*
X75985571Y-63711142D02*
X75785571Y-63711142D01*
X75785571Y-64025428D02*
X75785571Y-63425428D01*
X76071285Y-63425428D01*
D12*
X102654190Y-26254523D02*
X104254190Y-26254523D01*
X104254190Y-26749761D01*
X104178000Y-26873571D01*
X104101809Y-26935476D01*
X103949428Y-26997380D01*
X103720857Y-26997380D01*
X103568476Y-26935476D01*
X103492285Y-26873571D01*
X103416095Y-26749761D01*
X103416095Y-26254523D01*
X102654190Y-27554523D02*
X103720857Y-27554523D01*
X103416095Y-27554523D02*
X103568476Y-27616428D01*
X103644666Y-27678333D01*
X103720857Y-27802142D01*
X103720857Y-27925952D01*
X102654190Y-28545000D02*
X102730380Y-28421190D01*
X102806571Y-28359285D01*
X102958952Y-28297380D01*
X103416095Y-28297380D01*
X103568476Y-28359285D01*
X103644666Y-28421190D01*
X103720857Y-28545000D01*
X103720857Y-28730714D01*
X103644666Y-28854523D01*
X103568476Y-28916428D01*
X103416095Y-28978333D01*
X102958952Y-28978333D01*
X102806571Y-28916428D01*
X102730380Y-28854523D01*
X102654190Y-28730714D01*
X102654190Y-28545000D01*
X102654190Y-29535476D02*
X104254190Y-29535476D01*
X103644666Y-29535476D02*
X103720857Y-29659285D01*
X103720857Y-29906904D01*
X103644666Y-30030714D01*
X103568476Y-30092619D01*
X103416095Y-30154523D01*
X102958952Y-30154523D01*
X102806571Y-30092619D01*
X102730380Y-30030714D01*
X102654190Y-29906904D01*
X102654190Y-29659285D01*
X102730380Y-29535476D01*
X102730380Y-31206904D02*
X102654190Y-31083095D01*
X102654190Y-30835476D01*
X102730380Y-30711666D01*
X102882761Y-30649761D01*
X103492285Y-30649761D01*
X103644666Y-30711666D01*
X103720857Y-30835476D01*
X103720857Y-31083095D01*
X103644666Y-31206904D01*
X103492285Y-31268809D01*
X103339904Y-31268809D01*
X103187523Y-30649761D01*
X102654190Y-33497380D02*
X102654190Y-32754523D01*
X102654190Y-33125952D02*
X104254190Y-33125952D01*
X104025619Y-33002142D01*
X103873238Y-32878333D01*
X103797047Y-32754523D01*
D10*
X54221142Y-45102428D02*
X53878285Y-45102428D01*
X54049714Y-45102428D02*
X54049714Y-44502428D01*
X53992571Y-44588142D01*
X53935428Y-44645285D01*
X53878285Y-44673857D01*
X54592571Y-44502428D02*
X54649714Y-44502428D01*
X54706857Y-44531000D01*
X54735428Y-44559571D01*
X54764000Y-44616714D01*
X54792571Y-44731000D01*
X54792571Y-44873857D01*
X54764000Y-44988142D01*
X54735428Y-45045285D01*
X54706857Y-45073857D01*
X54649714Y-45102428D01*
X54592571Y-45102428D01*
X54535428Y-45073857D01*
X54506857Y-45045285D01*
X54478285Y-44988142D01*
X54449714Y-44873857D01*
X54449714Y-44731000D01*
X54478285Y-44616714D01*
X54506857Y-44559571D01*
X54535428Y-44531000D01*
X54592571Y-44502428D01*
X55306857Y-44702428D02*
X55306857Y-45102428D01*
X55049714Y-44702428D02*
X55049714Y-45016714D01*
X55078285Y-45073857D01*
X55135428Y-45102428D01*
X55221142Y-45102428D01*
X55278285Y-45073857D01*
X55306857Y-45045285D01*
X55792571Y-44788142D02*
X55592571Y-44788142D01*
X55592571Y-45102428D02*
X55592571Y-44502428D01*
X55878285Y-44502428D01*
X78509857Y-34434428D02*
X78167000Y-34434428D01*
X78338428Y-34434428D02*
X78338428Y-33834428D01*
X78281285Y-33920142D01*
X78224142Y-33977285D01*
X78167000Y-34005857D01*
X79024142Y-34034428D02*
X79024142Y-34434428D01*
X78767000Y-34034428D02*
X78767000Y-34348714D01*
X78795571Y-34405857D01*
X78852714Y-34434428D01*
X78938428Y-34434428D01*
X78995571Y-34405857D01*
X79024142Y-34377285D01*
X79509857Y-34120142D02*
X79309857Y-34120142D01*
X79309857Y-34434428D02*
X79309857Y-33834428D01*
X79595571Y-33834428D01*
X34155142Y-38977428D02*
X33812285Y-38977428D01*
X33983714Y-38977428D02*
X33983714Y-38377428D01*
X33926571Y-38463142D01*
X33869428Y-38520285D01*
X33812285Y-38548857D01*
X34526571Y-38377428D02*
X34583714Y-38377428D01*
X34640857Y-38406000D01*
X34669428Y-38434571D01*
X34698000Y-38491714D01*
X34726571Y-38606000D01*
X34726571Y-38748857D01*
X34698000Y-38863142D01*
X34669428Y-38920285D01*
X34640857Y-38948857D01*
X34583714Y-38977428D01*
X34526571Y-38977428D01*
X34469428Y-38948857D01*
X34440857Y-38920285D01*
X34412285Y-38863142D01*
X34383714Y-38748857D01*
X34383714Y-38606000D01*
X34412285Y-38491714D01*
X34440857Y-38434571D01*
X34469428Y-38406000D01*
X34526571Y-38377428D01*
X35240857Y-38577428D02*
X35240857Y-38977428D01*
X34983714Y-38577428D02*
X34983714Y-38891714D01*
X35012285Y-38948857D01*
X35069428Y-38977428D01*
X35155142Y-38977428D01*
X35212285Y-38948857D01*
X35240857Y-38920285D01*
X35726571Y-38663142D02*
X35526571Y-38663142D01*
X35526571Y-38977428D02*
X35526571Y-38377428D01*
X35812285Y-38377428D01*
X94094428Y-33508904D02*
X94094428Y-32708904D01*
X94399190Y-32708904D01*
X94475380Y-32747000D01*
X94513476Y-32785095D01*
X94551571Y-32861285D01*
X94551571Y-32975571D01*
X94513476Y-33051761D01*
X94475380Y-33089857D01*
X94399190Y-33127952D01*
X94094428Y-33127952D01*
X94894428Y-33508904D02*
X94894428Y-32708904D01*
X95351571Y-33508904D01*
X95351571Y-32708904D01*
X95732523Y-33508904D02*
X95732523Y-32708904D01*
X96037285Y-32708904D01*
X96113476Y-32747000D01*
X96151571Y-32785095D01*
X96189666Y-32861285D01*
X96189666Y-32975571D01*
X96151571Y-33051761D01*
X96113476Y-33089857D01*
X96037285Y-33127952D01*
X95732523Y-33127952D01*
X93565714Y-69105428D02*
X93222857Y-69105428D01*
X93394285Y-69105428D02*
X93394285Y-68505428D01*
X93337142Y-68591142D01*
X93280000Y-68648285D01*
X93222857Y-68676857D01*
X94080000Y-68505428D02*
X93965714Y-68505428D01*
X93908571Y-68534000D01*
X93880000Y-68562571D01*
X93822857Y-68648285D01*
X93794285Y-68762571D01*
X93794285Y-68991142D01*
X93822857Y-69048285D01*
X93851428Y-69076857D01*
X93908571Y-69105428D01*
X94022857Y-69105428D01*
X94080000Y-69076857D01*
X94108571Y-69048285D01*
X94137142Y-68991142D01*
X94137142Y-68848285D01*
X94108571Y-68791142D01*
X94080000Y-68762571D01*
X94022857Y-68734000D01*
X93908571Y-68734000D01*
X93851428Y-68762571D01*
X93822857Y-68791142D01*
X93794285Y-68848285D01*
X94394285Y-69105428D02*
X94394285Y-68505428D01*
X94737142Y-69105428D02*
X94480000Y-68762571D01*
X94737142Y-68505428D02*
X94394285Y-68848285D01*
X98710952Y-77541380D02*
X98234761Y-77541380D01*
X98234761Y-76541380D01*
X98996666Y-76636619D02*
X99044285Y-76589000D01*
X99139523Y-76541380D01*
X99377619Y-76541380D01*
X99472857Y-76589000D01*
X99520476Y-76636619D01*
X99568095Y-76731857D01*
X99568095Y-76827095D01*
X99520476Y-76969952D01*
X98949047Y-77541380D01*
X99568095Y-77541380D01*
X99901428Y-76541380D02*
X100568095Y-76541380D01*
X100139523Y-77541380D01*
X100901428Y-76636619D02*
X100949047Y-76589000D01*
X101044285Y-76541380D01*
X101282380Y-76541380D01*
X101377619Y-76589000D01*
X101425238Y-76636619D01*
X101472857Y-76731857D01*
X101472857Y-76827095D01*
X101425238Y-76969952D01*
X100853809Y-77541380D01*
X101472857Y-77541380D01*
X101901428Y-77541380D02*
X101901428Y-76541380D01*
X102139523Y-76541380D01*
X102282380Y-76589000D01*
X102377619Y-76684238D01*
X102425238Y-76779476D01*
X102472857Y-76969952D01*
X102472857Y-77112809D01*
X102425238Y-77303285D01*
X102377619Y-77398523D01*
X102282380Y-77493761D01*
X102139523Y-77541380D01*
X101901428Y-77541380D01*
X88485714Y-69105428D02*
X88142857Y-69105428D01*
X88314285Y-69105428D02*
X88314285Y-68505428D01*
X88257142Y-68591142D01*
X88200000Y-68648285D01*
X88142857Y-68676857D01*
X89000000Y-68505428D02*
X88885714Y-68505428D01*
X88828571Y-68534000D01*
X88800000Y-68562571D01*
X88742857Y-68648285D01*
X88714285Y-68762571D01*
X88714285Y-68991142D01*
X88742857Y-69048285D01*
X88771428Y-69076857D01*
X88828571Y-69105428D01*
X88942857Y-69105428D01*
X89000000Y-69076857D01*
X89028571Y-69048285D01*
X89057142Y-68991142D01*
X89057142Y-68848285D01*
X89028571Y-68791142D01*
X89000000Y-68762571D01*
X88942857Y-68734000D01*
X88828571Y-68734000D01*
X88771428Y-68762571D01*
X88742857Y-68791142D01*
X88714285Y-68848285D01*
X89314285Y-69105428D02*
X89314285Y-68505428D01*
X89657142Y-69105428D02*
X89400000Y-68762571D01*
X89657142Y-68505428D02*
X89314285Y-68848285D01*
X36330380Y-62936380D02*
X36330380Y-61936380D01*
X36663714Y-62650666D01*
X36997047Y-61936380D01*
X36997047Y-62936380D01*
X37330380Y-61936380D02*
X37901809Y-61936380D01*
X37616095Y-62936380D02*
X37616095Y-61936380D01*
X38378000Y-62364952D02*
X38282761Y-62317333D01*
X38235142Y-62269714D01*
X38187523Y-62174476D01*
X38187523Y-62126857D01*
X38235142Y-62031619D01*
X38282761Y-61984000D01*
X38378000Y-61936380D01*
X38568476Y-61936380D01*
X38663714Y-61984000D01*
X38711333Y-62031619D01*
X38758952Y-62126857D01*
X38758952Y-62174476D01*
X38711333Y-62269714D01*
X38663714Y-62317333D01*
X38568476Y-62364952D01*
X38378000Y-62364952D01*
X38282761Y-62412571D01*
X38235142Y-62460190D01*
X38187523Y-62555428D01*
X38187523Y-62745904D01*
X38235142Y-62841142D01*
X38282761Y-62888761D01*
X38378000Y-62936380D01*
X38568476Y-62936380D01*
X38663714Y-62888761D01*
X38711333Y-62841142D01*
X38758952Y-62745904D01*
X38758952Y-62555428D01*
X38711333Y-62460190D01*
X38663714Y-62412571D01*
X38568476Y-62364952D01*
X39330380Y-62364952D02*
X39235142Y-62317333D01*
X39187523Y-62269714D01*
X39139904Y-62174476D01*
X39139904Y-62126857D01*
X39187523Y-62031619D01*
X39235142Y-61984000D01*
X39330380Y-61936380D01*
X39520857Y-61936380D01*
X39616095Y-61984000D01*
X39663714Y-62031619D01*
X39711333Y-62126857D01*
X39711333Y-62174476D01*
X39663714Y-62269714D01*
X39616095Y-62317333D01*
X39520857Y-62364952D01*
X39330380Y-62364952D01*
X39235142Y-62412571D01*
X39187523Y-62460190D01*
X39139904Y-62555428D01*
X39139904Y-62745904D01*
X39187523Y-62841142D01*
X39235142Y-62888761D01*
X39330380Y-62936380D01*
X39520857Y-62936380D01*
X39616095Y-62888761D01*
X39663714Y-62841142D01*
X39711333Y-62745904D01*
X39711333Y-62555428D01*
X39663714Y-62460190D01*
X39616095Y-62412571D01*
X39520857Y-62364952D01*
X40663714Y-62936380D02*
X40092285Y-62936380D01*
X40378000Y-62936380D02*
X40378000Y-61936380D01*
X40282761Y-62079238D01*
X40187523Y-62174476D01*
X40092285Y-62222095D01*
X41520857Y-61936380D02*
X41330380Y-61936380D01*
X41235142Y-61984000D01*
X41187523Y-62031619D01*
X41092285Y-62174476D01*
X41044666Y-62364952D01*
X41044666Y-62745904D01*
X41092285Y-62841142D01*
X41139904Y-62888761D01*
X41235142Y-62936380D01*
X41425619Y-62936380D01*
X41520857Y-62888761D01*
X41568476Y-62841142D01*
X41616095Y-62745904D01*
X41616095Y-62507809D01*
X41568476Y-62412571D01*
X41520857Y-62364952D01*
X41425619Y-62317333D01*
X41235142Y-62317333D01*
X41139904Y-62364952D01*
X41092285Y-62412571D01*
X41044666Y-62507809D01*
X41997047Y-62650666D02*
X42473238Y-62650666D01*
X41901809Y-62936380D02*
X42235142Y-61936380D01*
X42568476Y-62936380D01*
X42901809Y-62936380D02*
X42901809Y-61936380D01*
X43282761Y-61936380D01*
X43378000Y-61984000D01*
X43425619Y-62031619D01*
X43473238Y-62126857D01*
X43473238Y-62269714D01*
X43425619Y-62364952D01*
X43378000Y-62412571D01*
X43282761Y-62460190D01*
X42901809Y-62460190D01*
X31369000Y-43849857D02*
X31369000Y-43049857D01*
X31369000Y-42649857D02*
X31311857Y-42707000D01*
X31369000Y-42764142D01*
X31426142Y-42707000D01*
X31369000Y-42649857D01*
X31369000Y-42764142D01*
X84145523Y-29297380D02*
X84716952Y-29297380D01*
X84431238Y-30297380D02*
X84431238Y-29297380D01*
X84955047Y-30297380D02*
X85478857Y-29630714D01*
X84955047Y-29630714D02*
X85478857Y-30297380D01*
X75974999Y-55617680D02*
X75974999Y-55855776D01*
X75736903Y-55760538D02*
X75974999Y-55855776D01*
X76213094Y-55760538D01*
X75832141Y-56046252D02*
X75974999Y-55855776D01*
X76117856Y-56046252D01*
X75974999Y-55617680D02*
X75974999Y-55855776D01*
X75736903Y-55760538D02*
X75974999Y-55855776D01*
X76213094Y-55760538D01*
X75832141Y-56046252D02*
X75974999Y-55855776D01*
X76117856Y-56046252D01*
X80930952Y-77541380D02*
X80454761Y-77541380D01*
X80454761Y-76541380D01*
X81216666Y-76636619D02*
X81264285Y-76589000D01*
X81359523Y-76541380D01*
X81597619Y-76541380D01*
X81692857Y-76589000D01*
X81740476Y-76636619D01*
X81788095Y-76731857D01*
X81788095Y-76827095D01*
X81740476Y-76969952D01*
X81169047Y-77541380D01*
X81788095Y-77541380D01*
X82121428Y-76541380D02*
X82788095Y-76541380D01*
X82359523Y-77541380D01*
X83121428Y-76636619D02*
X83169047Y-76589000D01*
X83264285Y-76541380D01*
X83502380Y-76541380D01*
X83597619Y-76589000D01*
X83645238Y-76636619D01*
X83692857Y-76731857D01*
X83692857Y-76827095D01*
X83645238Y-76969952D01*
X83073809Y-77541380D01*
X83692857Y-77541380D01*
X84121428Y-77541380D02*
X84121428Y-76541380D01*
X84359523Y-76541380D01*
X84502380Y-76589000D01*
X84597619Y-76684238D01*
X84645238Y-76779476D01*
X84692857Y-76969952D01*
X84692857Y-77112809D01*
X84645238Y-77303285D01*
X84597619Y-77398523D01*
X84502380Y-77493761D01*
X84359523Y-77541380D01*
X84121428Y-77541380D01*
X78706714Y-63644428D02*
X78363857Y-63644428D01*
X78535285Y-63644428D02*
X78535285Y-63044428D01*
X78478142Y-63130142D01*
X78421000Y-63187285D01*
X78363857Y-63215857D01*
X79078142Y-63044428D02*
X79135285Y-63044428D01*
X79192428Y-63073000D01*
X79221000Y-63101571D01*
X79249571Y-63158714D01*
X79278142Y-63273000D01*
X79278142Y-63415857D01*
X79249571Y-63530142D01*
X79221000Y-63587285D01*
X79192428Y-63615857D01*
X79135285Y-63644428D01*
X79078142Y-63644428D01*
X79021000Y-63615857D01*
X78992428Y-63587285D01*
X78963857Y-63530142D01*
X78935285Y-63415857D01*
X78935285Y-63273000D01*
X78963857Y-63158714D01*
X78992428Y-63101571D01*
X79021000Y-63073000D01*
X79078142Y-63044428D01*
X79535285Y-63644428D02*
X79535285Y-63044428D01*
X79878142Y-63644428D02*
X79621000Y-63301571D01*
X79878142Y-63044428D02*
X79535285Y-63387285D01*
D14*
X81590000Y-26051000D02*
X81590000Y-28911000D01*
X83510000Y-28911000D02*
X83510000Y-26051000D01*
X81590000Y-28911000D02*
X83510000Y-28911000D01*
X37270000Y-69725000D02*
X33850000Y-69725000D01*
D15*
X33960000Y-76660000D02*
X37160000Y-76660000D01*
X33960000Y-70660000D02*
X33960000Y-76660000D01*
X36360000Y-70660000D02*
X33960000Y-70660000D01*
D14*
X37270000Y-76660000D02*
X37270000Y-69725000D01*
D15*
X37160000Y-76660000D02*
X37160000Y-71460000D01*
X37160000Y-71460000D02*
X36360000Y-70660000D01*
D14*
X33850000Y-69725000D02*
X33850000Y-76660000D01*
X93245000Y-75972936D02*
X93245000Y-76427064D01*
D15*
X94605000Y-77200000D02*
X93355000Y-77200000D01*
D14*
X94715000Y-75972936D02*
X94715000Y-76427064D01*
D15*
X93355000Y-75200000D02*
X94605000Y-75200000D01*
X93355000Y-77200000D02*
X93355000Y-75200000D01*
X94605000Y-75200000D02*
X94605000Y-77200000D01*
D10*
X79311000Y-39073000D02*
X79311000Y-37948000D01*
X71471000Y-39073000D02*
X72581000Y-39073000D01*
X79311000Y-39073000D02*
X80421000Y-39073000D01*
X71471000Y-43223000D02*
X72581000Y-43223000D01*
X80421000Y-39073000D02*
X80421000Y-43223000D01*
X71471000Y-39073000D02*
X71471000Y-43223000D01*
X80421000Y-43223000D02*
X79311000Y-43223000D01*
D15*
X92065000Y-72120000D02*
X90815000Y-72120000D01*
D14*
X90705000Y-71347064D02*
X90705000Y-70892936D01*
D15*
X90815000Y-72120000D02*
X90815000Y-70120000D01*
X92065000Y-70120000D02*
X92065000Y-72120000D01*
D14*
X92175000Y-71347064D02*
X92175000Y-70892936D01*
D15*
X90815000Y-70120000D02*
X92065000Y-70120000D01*
X87005000Y-29337000D02*
X87005000Y-27337000D01*
D14*
X88365000Y-28564064D02*
X88365000Y-28109936D01*
D15*
X88255000Y-29337000D02*
X87005000Y-29337000D01*
D14*
X86895000Y-28564064D02*
X86895000Y-28109936D01*
D15*
X87005000Y-27337000D02*
X88255000Y-27337000D01*
X88255000Y-27337000D02*
X88255000Y-29337000D01*
X90160000Y-29337000D02*
X88910000Y-29337000D01*
X88910000Y-29337000D02*
X88910000Y-27337000D01*
X90160000Y-27337000D02*
X90160000Y-29337000D01*
D14*
X90270000Y-28564064D02*
X90270000Y-28109936D01*
X88800000Y-28564064D02*
X88800000Y-28109936D01*
D15*
X88910000Y-27337000D02*
X90160000Y-27337000D01*
X58750000Y-71920000D02*
X55550000Y-71920000D01*
X55550000Y-71920000D02*
X55550000Y-70320000D01*
X58750000Y-70320000D02*
X58750000Y-71920000D01*
D14*
X56438748Y-72030000D02*
X57861252Y-72030000D01*
X56438748Y-70210000D02*
X57861252Y-70210000D01*
D15*
X55550000Y-70320000D02*
X58750000Y-70320000D01*
D14*
X67183000Y-76380000D02*
X71043000Y-76380000D01*
D15*
X70933000Y-76270000D02*
X63433000Y-76270000D01*
D14*
X63323000Y-65860000D02*
X63323000Y-66115000D01*
X67183000Y-76380000D02*
X63323000Y-76380000D01*
X67183000Y-65860000D02*
X63323000Y-65860000D01*
X71043000Y-65860000D02*
X71043000Y-66115000D01*
X67183000Y-65860000D02*
X71043000Y-65860000D01*
X63323000Y-76380000D02*
X63323000Y-76125000D01*
D15*
X64433000Y-65970000D02*
X70933000Y-65970000D01*
X63433000Y-66970000D02*
X64433000Y-65970000D01*
D14*
X63323000Y-66115000D02*
X61508000Y-66115000D01*
D15*
X70933000Y-65970000D02*
X70933000Y-76270000D01*
X63433000Y-76270000D02*
X63433000Y-66970000D01*
D14*
X71043000Y-76380000D02*
X71043000Y-76125000D01*
D15*
X47320000Y-71460000D02*
X46520000Y-70660000D01*
X47320000Y-76660000D02*
X47320000Y-71460000D01*
X44120000Y-76660000D02*
X47320000Y-76660000D01*
X44120000Y-70660000D02*
X44120000Y-76660000D01*
D14*
X44010000Y-69725000D02*
X44010000Y-76660000D01*
D15*
X46520000Y-70660000D02*
X44120000Y-70660000D01*
D14*
X47430000Y-76660000D02*
X47430000Y-69725000D01*
X47430000Y-69725000D02*
X44010000Y-69725000D01*
X94895936Y-40105000D02*
X95350064Y-40105000D01*
X94895936Y-38635000D02*
X95350064Y-38635000D01*
D15*
X94123000Y-39995000D02*
X94123000Y-38745000D01*
X94123000Y-38745000D02*
X96123000Y-38745000D01*
X96123000Y-38745000D02*
X96123000Y-39995000D01*
X96123000Y-39995000D02*
X94123000Y-39995000D01*
X90939000Y-39669000D02*
X82289000Y-39669000D01*
D14*
X82179000Y-37719000D02*
X82179000Y-39669000D01*
D15*
X82289000Y-39669000D02*
X82289000Y-35769000D01*
D14*
X91049000Y-37719000D02*
X91049000Y-34269000D01*
D15*
X82289000Y-35769000D02*
X89964000Y-35769000D01*
D14*
X82179000Y-37719000D02*
X82179000Y-35769000D01*
X91049000Y-37719000D02*
X91049000Y-39669000D01*
D15*
X89964000Y-35769000D02*
X90939000Y-36744000D01*
X90939000Y-36744000D02*
X90939000Y-39669000D01*
D14*
X100410000Y-28610000D02*
X100410000Y-25950000D01*
D15*
X95270000Y-26645000D02*
X95905000Y-26010000D01*
D14*
X95210000Y-25950000D02*
X96540000Y-25950000D01*
X95210000Y-27280000D02*
X95210000Y-25950000D01*
D15*
X100350000Y-28550000D02*
X95270000Y-28550000D01*
X100350000Y-26010000D02*
X100350000Y-28550000D01*
X95270000Y-28550000D02*
X95270000Y-26645000D01*
D14*
X97810000Y-28610000D02*
X100410000Y-28610000D01*
D15*
X95905000Y-26010000D02*
X100350000Y-26010000D01*
D14*
X97810000Y-25950000D02*
X100410000Y-25950000D01*
X97810000Y-28610000D02*
X97810000Y-25950000D01*
X65080000Y-56680000D02*
X64605000Y-56680000D01*
X73350000Y-56680000D02*
X73825000Y-56680000D01*
X73350000Y-47460000D02*
X73825000Y-47460000D01*
X64605000Y-47460000D02*
X64605000Y-47935000D01*
X73825000Y-47460000D02*
X73825000Y-47935000D01*
X65080000Y-47460000D02*
X64605000Y-47460000D01*
D15*
X64715000Y-47570000D02*
X73715000Y-47570000D01*
D14*
X64605000Y-56680000D02*
X64605000Y-56205000D01*
D15*
X72715000Y-56570000D02*
X64715000Y-56570000D01*
X73715000Y-55570000D02*
X72715000Y-56570000D01*
X64715000Y-56570000D02*
X64715000Y-47570000D01*
X73715000Y-47570000D02*
X73715000Y-55570000D01*
X55550000Y-68110000D02*
X55550000Y-66510000D01*
X58750000Y-68110000D02*
X55550000Y-68110000D01*
X55550000Y-66510000D02*
X58750000Y-66510000D01*
D14*
X57861252Y-66400000D02*
X56438748Y-66400000D01*
D15*
X58750000Y-66510000D02*
X58750000Y-68110000D01*
D14*
X57861252Y-68220000D02*
X56438748Y-68220000D01*
D15*
X41005000Y-37729000D02*
X41005000Y-38979000D01*
X41005000Y-38979000D02*
X39005000Y-38979000D01*
X39005000Y-37729000D02*
X41005000Y-37729000D01*
D14*
X40232064Y-37619000D02*
X39777936Y-37619000D01*
X40232064Y-39089000D02*
X39777936Y-39089000D01*
D15*
X39005000Y-38979000D02*
X39005000Y-37729000D01*
D14*
X65255000Y-24470000D02*
X65255000Y-26130000D01*
D15*
X70515000Y-33830000D02*
X65365000Y-33830000D01*
D14*
X73175000Y-24470000D02*
X65255000Y-24470000D01*
X67165000Y-33940000D02*
X66015000Y-33940000D01*
X73175000Y-26130000D02*
X73175000Y-24470000D01*
X71265000Y-34530000D02*
X70565000Y-34530000D01*
D15*
X65365000Y-33830000D02*
X65365000Y-24580000D01*
X70815000Y-33330000D02*
X70515000Y-33830000D01*
X65365000Y-24580000D02*
X73065000Y-24580000D01*
X73065000Y-24580000D02*
X73065000Y-33830000D01*
D14*
X71265000Y-33940000D02*
X71265000Y-34530000D01*
D15*
X73065000Y-33830000D02*
X71115000Y-33830000D01*
X71115000Y-33830000D02*
X70815000Y-33330000D01*
D14*
X72415000Y-33940000D02*
X71265000Y-33940000D01*
X73175000Y-29030000D02*
X73175000Y-31630000D01*
X65255000Y-31630000D02*
X65255000Y-29030000D01*
X66802000Y-40829736D02*
X66649600Y-40677336D01*
X67462400Y-40829736D02*
X67259200Y-41032936D01*
X67462400Y-40829736D02*
X67259200Y-40626536D01*
X67259200Y-40626536D02*
X67259200Y-41032936D01*
X67411600Y-40829736D02*
X66802000Y-40829736D01*
X52102863Y-47358300D02*
X50825400Y-47358300D01*
X50825400Y-52776083D02*
X50825400Y-56781700D01*
X62204600Y-56781700D02*
X62204600Y-52776083D01*
X62204600Y-47358300D02*
X60527141Y-47358300D01*
X60927094Y-56781700D02*
X62204600Y-56781700D01*
X50825400Y-56781700D02*
X52502816Y-56781700D01*
X62204600Y-51373315D02*
X62204600Y-47358300D01*
X50825400Y-47358300D02*
X50825400Y-51373315D01*
D15*
X81036000Y-61960000D02*
X81036000Y-59960000D01*
X82286000Y-61960000D02*
X81036000Y-61960000D01*
D14*
X80926000Y-61187064D02*
X80926000Y-60732936D01*
X82396000Y-61187064D02*
X82396000Y-60732936D01*
D15*
X82286000Y-59960000D02*
X82286000Y-61960000D01*
X81036000Y-59960000D02*
X82286000Y-59960000D01*
D14*
X69242000Y-61602252D02*
X69242000Y-61079748D01*
D15*
X70602000Y-62341000D02*
X69352000Y-62341000D01*
D14*
X70712000Y-61602252D02*
X70712000Y-61079748D01*
D15*
X69352000Y-62341000D02*
X69352000Y-60341000D01*
X70602000Y-60341000D02*
X70602000Y-62341000D01*
X69352000Y-60341000D02*
X70602000Y-60341000D01*
X89525000Y-77200000D02*
X88275000Y-77200000D01*
D14*
X88165000Y-75972936D02*
X88165000Y-76427064D01*
D15*
X89525000Y-75200000D02*
X89525000Y-77200000D01*
D14*
X89635000Y-75972936D02*
X89635000Y-76427064D01*
D15*
X88275000Y-75200000D02*
X89525000Y-75200000D01*
X88275000Y-77200000D02*
X88275000Y-75200000D01*
D14*
X98705936Y-40105000D02*
X99160064Y-40105000D01*
D15*
X97933000Y-39995000D02*
X97933000Y-38745000D01*
D14*
X98705936Y-38635000D02*
X99160064Y-38635000D01*
D15*
X99933000Y-38745000D02*
X99933000Y-39995000D01*
X99933000Y-39995000D02*
X97933000Y-39995000D01*
X97933000Y-38745000D02*
X99933000Y-38745000D01*
D14*
X59034000Y-34055000D02*
X59034000Y-34405000D01*
X59057335Y-25425000D02*
X59057335Y-34055000D01*
X57758290Y-25425000D02*
X57758290Y-34055000D01*
D15*
X52324000Y-33995000D02*
X52324000Y-25485000D01*
X52324000Y-25485000D02*
X59944000Y-25485000D01*
D14*
X57876385Y-25425000D02*
X57876385Y-34055000D01*
D15*
X58974000Y-35515000D02*
X58974000Y-33995000D01*
D14*
X58584955Y-25425000D02*
X58584955Y-34055000D01*
X59293525Y-25425000D02*
X59293525Y-34055000D01*
X60004000Y-36625000D02*
X58674000Y-36625000D01*
D15*
X56434000Y-35515000D02*
X56434000Y-33995000D01*
X55834000Y-35515000D02*
X56434000Y-35515000D01*
D14*
X60004000Y-25425000D02*
X52264000Y-25425000D01*
X56494000Y-34055000D02*
X56494000Y-34465000D01*
X59765905Y-25425000D02*
X59765905Y-34055000D01*
X54864000Y-25425000D02*
X54864000Y-34055000D01*
X52264000Y-25425000D02*
X52264000Y-34055000D01*
X57522100Y-25425000D02*
X57522100Y-34055000D01*
D15*
X59944000Y-25485000D02*
X59944000Y-33025000D01*
X58374000Y-33995000D02*
X58374000Y-35515000D01*
D14*
X57640195Y-25425000D02*
X57640195Y-34055000D01*
X53954000Y-34055000D02*
X53954000Y-34465000D01*
X53234000Y-34055000D02*
X53234000Y-34465000D01*
D15*
X59944000Y-33025000D02*
X58974000Y-33995000D01*
D14*
X60004000Y-25425000D02*
X60004000Y-34055000D01*
X55774000Y-34055000D02*
X55774000Y-34465000D01*
X58348765Y-25425000D02*
X58348765Y-34055000D01*
X60004000Y-34055000D02*
X52264000Y-34055000D01*
X60004000Y-35515000D02*
X60004000Y-36625000D01*
X59647810Y-25425000D02*
X59647810Y-34055000D01*
D15*
X58374000Y-35515000D02*
X58974000Y-35515000D01*
D14*
X59411620Y-25425000D02*
X59411620Y-34055000D01*
X57404000Y-25425000D02*
X57404000Y-34055000D01*
X58703050Y-25425000D02*
X58703050Y-34055000D01*
D15*
X53294000Y-33995000D02*
X53294000Y-35515000D01*
D14*
X58466860Y-25425000D02*
X58466860Y-34055000D01*
D15*
X53294000Y-35515000D02*
X53894000Y-35515000D01*
X58974000Y-33995000D02*
X52324000Y-33995000D01*
D14*
X58230670Y-25425000D02*
X58230670Y-34055000D01*
X58939240Y-25425000D02*
X58939240Y-34055000D01*
D15*
X55834000Y-33995000D02*
X55834000Y-35515000D01*
X53894000Y-35515000D02*
X53894000Y-33995000D01*
D14*
X59884000Y-25425000D02*
X59884000Y-34055000D01*
X58314000Y-34055000D02*
X58314000Y-34405000D01*
X57994480Y-25425000D02*
X57994480Y-34055000D01*
X59175430Y-25425000D02*
X59175430Y-34055000D01*
X58112575Y-25425000D02*
X58112575Y-34055000D01*
X58821145Y-25425000D02*
X58821145Y-34055000D01*
X59529715Y-25425000D02*
X59529715Y-34055000D01*
X36255000Y-34100000D02*
X31055000Y-34100000D01*
X34717860Y-25470000D02*
X34717860Y-34100000D01*
X35285000Y-34100000D02*
X35285000Y-34450000D01*
X33891195Y-25470000D02*
X33891195Y-34100000D01*
X35308335Y-25470000D02*
X35308335Y-34100000D01*
X34565000Y-34100000D02*
X34565000Y-34450000D01*
X36255000Y-25470000D02*
X36255000Y-34100000D01*
X32745000Y-34100000D02*
X32745000Y-34510000D01*
X34481670Y-25470000D02*
X34481670Y-34100000D01*
D15*
X31115000Y-34040000D02*
X31115000Y-25530000D01*
D14*
X35780715Y-25470000D02*
X35780715Y-34100000D01*
X36016905Y-25470000D02*
X36016905Y-34100000D01*
X36255000Y-36670000D02*
X34925000Y-36670000D01*
D15*
X31115000Y-25530000D02*
X36195000Y-25530000D01*
X32685000Y-35560000D02*
X32685000Y-34040000D01*
X36195000Y-25530000D02*
X36195000Y-33070000D01*
D14*
X35544525Y-25470000D02*
X35544525Y-34100000D01*
X34954050Y-25470000D02*
X34954050Y-34100000D01*
X32025000Y-34100000D02*
X32025000Y-34510000D01*
X35426430Y-25470000D02*
X35426430Y-34100000D01*
D15*
X36195000Y-33070000D02*
X35225000Y-34040000D01*
D14*
X34363575Y-25470000D02*
X34363575Y-34100000D01*
X36255000Y-25470000D02*
X31055000Y-25470000D01*
X34245480Y-25470000D02*
X34245480Y-34100000D01*
X34009290Y-25470000D02*
X34009290Y-34100000D01*
X34599765Y-25470000D02*
X34599765Y-34100000D01*
X36255000Y-35560000D02*
X36255000Y-36670000D01*
D15*
X34625000Y-34040000D02*
X34625000Y-35560000D01*
X35225000Y-34040000D02*
X31115000Y-34040000D01*
D14*
X35072145Y-25470000D02*
X35072145Y-34100000D01*
X31055000Y-25470000D02*
X31055000Y-34100000D01*
X35898810Y-25470000D02*
X35898810Y-34100000D01*
X34127385Y-25470000D02*
X34127385Y-34100000D01*
X34835955Y-25470000D02*
X34835955Y-34100000D01*
X35190240Y-25470000D02*
X35190240Y-34100000D01*
D15*
X35225000Y-35560000D02*
X35225000Y-34040000D01*
D14*
X35662620Y-25470000D02*
X35662620Y-34100000D01*
X33655000Y-25470000D02*
X33655000Y-34100000D01*
D15*
X34625000Y-35560000D02*
X35225000Y-35560000D01*
X32085000Y-35560000D02*
X32685000Y-35560000D01*
X32085000Y-34040000D02*
X32085000Y-35560000D01*
D14*
X36135000Y-25470000D02*
X36135000Y-34100000D01*
X33773100Y-25470000D02*
X33773100Y-34100000D01*
X64108000Y-42029748D02*
X64108000Y-42552252D01*
D15*
X63998000Y-43291000D02*
X62748000Y-43291000D01*
X63998000Y-41291000D02*
X63998000Y-43291000D01*
X62748000Y-41291000D02*
X63998000Y-41291000D01*
X62748000Y-43291000D02*
X62748000Y-41291000D01*
D14*
X62638000Y-42029748D02*
X62638000Y-42552252D01*
X77780000Y-26051000D02*
X77780000Y-28911000D01*
X77780000Y-28911000D02*
X79700000Y-28911000D01*
X79700000Y-28911000D02*
X79700000Y-26051000D01*
D15*
X50450000Y-74930000D02*
X51050000Y-74530000D01*
X50450000Y-74930000D02*
X50450000Y-75480000D01*
X51050000Y-74930000D02*
X51550000Y-74930000D01*
D14*
X48550000Y-73930000D02*
X52450000Y-73930000D01*
D15*
X52200000Y-74030000D02*
X52200000Y-75830000D01*
X50050000Y-74930000D02*
X50450000Y-74930000D01*
X51050000Y-75330000D02*
X50450000Y-74930000D01*
D14*
X48550000Y-75930000D02*
X52450000Y-75930000D01*
D15*
X52200000Y-75830000D02*
X49400000Y-75830000D01*
X51050000Y-74530000D02*
X51050000Y-75330000D01*
X49400000Y-75830000D02*
X49400000Y-74030000D01*
X50450000Y-74930000D02*
X50450000Y-74380000D01*
X49400000Y-74030000D02*
X52200000Y-74030000D01*
D14*
X48550000Y-73930000D02*
X48550000Y-75930000D01*
D15*
X44700000Y-66910000D02*
X44700000Y-67710000D01*
X45850000Y-66410000D02*
X45850000Y-68210000D01*
X43050000Y-66410000D02*
X45850000Y-66410000D01*
D14*
X42200000Y-68310000D02*
X46100000Y-68310000D01*
D15*
X45850000Y-68210000D02*
X43050000Y-68210000D01*
X43700000Y-67310000D02*
X44100000Y-67310000D01*
D14*
X42200000Y-66310000D02*
X42200000Y-68310000D01*
X42200000Y-66310000D02*
X46100000Y-66310000D01*
D15*
X43050000Y-68210000D02*
X43050000Y-66410000D01*
X44100000Y-67310000D02*
X44100000Y-66760000D01*
X44100000Y-67310000D02*
X44700000Y-66910000D01*
X44100000Y-67310000D02*
X44100000Y-67860000D01*
X44700000Y-67310000D02*
X45200000Y-67310000D01*
X44700000Y-67710000D02*
X44100000Y-67310000D01*
X97808000Y-36210000D02*
X97483000Y-35885000D01*
X100383000Y-36210000D02*
X97808000Y-36210000D01*
D14*
X97373000Y-35560000D02*
X97373000Y-34910000D01*
X100493000Y-35560000D02*
X100493000Y-36210000D01*
X97373000Y-35560000D02*
X97373000Y-37235000D01*
D15*
X97483000Y-35885000D02*
X97483000Y-34910000D01*
X97483000Y-34910000D02*
X100383000Y-34910000D01*
D14*
X100493000Y-35560000D02*
X100493000Y-34910000D01*
D15*
X100383000Y-34910000D02*
X100383000Y-36210000D01*
D10*
X89765000Y-67715000D02*
X93115000Y-67715000D01*
X89765000Y-64365000D02*
X93115000Y-64365000D01*
X93115000Y-64365000D02*
X93115000Y-64665000D01*
X89765000Y-67715000D02*
X89765000Y-67415000D01*
X89940000Y-67540000D02*
X89940000Y-65540000D01*
X92940000Y-67540000D02*
X89940000Y-67540000D01*
X92940000Y-64540000D02*
X92940000Y-67540000D01*
X90940000Y-64540000D02*
X92940000Y-64540000D01*
X93115000Y-67715000D02*
X93115000Y-67415000D01*
X89940000Y-65540000D02*
X90940000Y-64540000D01*
X89765000Y-64365000D02*
X89765000Y-64590000D01*
X89765000Y-64590000D02*
X88540000Y-64590000D01*
D14*
X106955100Y-43666900D02*
X106955100Y-45160000D01*
D15*
X98552000Y-44484007D02*
X99052000Y-43776900D01*
D14*
X105462000Y-43666900D02*
X106955100Y-43666900D01*
D15*
X106845100Y-60363100D02*
X90258900Y-60363100D01*
D14*
X91642000Y-43666900D02*
X91324118Y-43666900D01*
X91324118Y-43666900D02*
X90148900Y-44842118D01*
X90148900Y-44842118D02*
X90148900Y-45160000D01*
D15*
X90258900Y-44919900D02*
X91401900Y-43776900D01*
X98052000Y-43776900D02*
X98552000Y-44484007D01*
X106845100Y-43776900D02*
X106845100Y-60363100D01*
X99052000Y-43776900D02*
X106845100Y-43776900D01*
D14*
X91642000Y-60473100D02*
X90148900Y-60473100D01*
X105462000Y-60473100D02*
X106955100Y-60473100D01*
X90148900Y-60473100D02*
X90148900Y-58980000D01*
D15*
X91401900Y-43776900D02*
X98052000Y-43776900D01*
X90258900Y-60363100D02*
X90258900Y-44919900D01*
D14*
X106955100Y-60473100D02*
X106955100Y-58980000D01*
D15*
X42240000Y-76660000D02*
X42240000Y-71460000D01*
X42240000Y-71460000D02*
X41440000Y-70660000D01*
X39040000Y-70660000D02*
X39040000Y-76660000D01*
D14*
X38930000Y-69725000D02*
X38930000Y-76660000D01*
D15*
X39040000Y-76660000D02*
X42240000Y-76660000D01*
D14*
X42350000Y-69725000D02*
X38930000Y-69725000D01*
X42350000Y-76660000D02*
X42350000Y-69725000D01*
D15*
X41440000Y-70660000D02*
X39040000Y-70660000D01*
D14*
X40585000Y-31576400D02*
X47045000Y-31576400D01*
X47045000Y-27046400D02*
X47045000Y-29646400D01*
X40585000Y-25116400D02*
X47045000Y-25116400D01*
X47045000Y-25116400D02*
X47045000Y-25146400D01*
X40585000Y-27046400D02*
X40585000Y-29646400D01*
D15*
X46815000Y-25346400D02*
X40815000Y-25346400D01*
X40815000Y-25346400D02*
X40815000Y-31346400D01*
D14*
X40585000Y-31576400D02*
X40585000Y-31546400D01*
D15*
X40815000Y-31346400D02*
X46815000Y-31346400D01*
D14*
X40585000Y-25146400D02*
X40585000Y-25116400D01*
X47045000Y-31576400D02*
X47045000Y-31546400D01*
D15*
X46815000Y-31346400D02*
X46815000Y-25346400D01*
X45565714Y-28346400D02*
G75*
G03*
X45565714Y-28346400I-1750714J0D01*
G01*
X37750000Y-67310000D02*
X38350000Y-66910000D01*
X37750000Y-67310000D02*
X37750000Y-67860000D01*
X38350000Y-66910000D02*
X38350000Y-67710000D01*
X37350000Y-67310000D02*
X37750000Y-67310000D01*
D14*
X35850000Y-66310000D02*
X35850000Y-68310000D01*
D15*
X39500000Y-66410000D02*
X39500000Y-68210000D01*
X38350000Y-67310000D02*
X38850000Y-67310000D01*
X39500000Y-68210000D02*
X36700000Y-68210000D01*
X37750000Y-67310000D02*
X37750000Y-66760000D01*
X36700000Y-68210000D02*
X36700000Y-66410000D01*
X38350000Y-67710000D02*
X37750000Y-67310000D01*
D14*
X35850000Y-68310000D02*
X39750000Y-68310000D01*
D15*
X36700000Y-66410000D02*
X39500000Y-66410000D01*
D14*
X35850000Y-66310000D02*
X39750000Y-66310000D01*
D15*
X39005000Y-35620800D02*
X41005000Y-35620800D01*
D14*
X40232064Y-35510800D02*
X39777936Y-35510800D01*
X40232064Y-36980800D02*
X39777936Y-36980800D01*
D15*
X41005000Y-35620800D02*
X41005000Y-36870800D01*
X39005000Y-36870800D02*
X39005000Y-35620800D01*
X41005000Y-36870800D02*
X39005000Y-36870800D01*
X50050000Y-71120000D02*
X50450000Y-71120000D01*
X51050000Y-71120000D02*
X51550000Y-71120000D01*
X50450000Y-71120000D02*
X50450000Y-71670000D01*
X50450000Y-71120000D02*
X51050000Y-70720000D01*
X49400000Y-72020000D02*
X49400000Y-70220000D01*
X52200000Y-72020000D02*
X49400000Y-72020000D01*
D14*
X48550000Y-72120000D02*
X52450000Y-72120000D01*
D15*
X52200000Y-70220000D02*
X52200000Y-72020000D01*
X51050000Y-70720000D02*
X51050000Y-71520000D01*
D14*
X48550000Y-70120000D02*
X48550000Y-72120000D01*
D15*
X49400000Y-70220000D02*
X52200000Y-70220000D01*
X50450000Y-71120000D02*
X50450000Y-70570000D01*
D14*
X48550000Y-70120000D02*
X52450000Y-70120000D01*
D15*
X51050000Y-71520000D02*
X50450000Y-71120000D01*
D14*
X69342000Y-40851468D02*
X69138800Y-40648268D01*
X69342000Y-40851468D02*
X69138800Y-41054668D01*
X69291200Y-40851468D02*
X68326000Y-40851468D01*
X69138800Y-40648268D02*
X69138800Y-41054668D01*
D15*
X92065000Y-77200000D02*
X90815000Y-77200000D01*
D14*
X90705000Y-75972936D02*
X90705000Y-76427064D01*
D15*
X90815000Y-77200000D02*
X90815000Y-75200000D01*
D14*
X92175000Y-75972936D02*
X92175000Y-76427064D01*
D15*
X92065000Y-75200000D02*
X92065000Y-77200000D01*
X90815000Y-75200000D02*
X92065000Y-75200000D01*
X73142000Y-60341000D02*
X73142000Y-62341000D01*
X73142000Y-62341000D02*
X71892000Y-62341000D01*
X71892000Y-60341000D02*
X73142000Y-60341000D01*
X71892000Y-62341000D02*
X71892000Y-60341000D01*
D14*
X73252000Y-61602252D02*
X73252000Y-61079748D01*
X71782000Y-61602252D02*
X71782000Y-61079748D01*
D15*
X48698000Y-40981000D02*
X45298000Y-40981000D01*
X45298000Y-35981000D02*
X49698000Y-35981000D01*
X49698000Y-39981000D02*
X48698000Y-40981000D01*
D14*
X47498000Y-41091000D02*
X45298000Y-41091000D01*
D15*
X45298000Y-40981000D02*
X45298000Y-35981000D01*
X49698000Y-35981000D02*
X49698000Y-39981000D01*
D14*
X47498000Y-41091000D02*
X51098000Y-41091000D01*
X47498000Y-35871000D02*
X49698000Y-35871000D01*
X47498000Y-35871000D02*
X45298000Y-35871000D01*
D15*
X52400000Y-68110000D02*
X49200000Y-68110000D01*
X52400000Y-66510000D02*
X52400000Y-68110000D01*
X49200000Y-66510000D02*
X52400000Y-66510000D01*
D14*
X51511252Y-66400000D02*
X50088748Y-66400000D01*
D15*
X49200000Y-68110000D02*
X49200000Y-66510000D01*
D14*
X51511252Y-68220000D02*
X50088748Y-68220000D01*
X92175000Y-28564064D02*
X92175000Y-28109936D01*
D15*
X90815000Y-29337000D02*
X90815000Y-27337000D01*
X92065000Y-29337000D02*
X90815000Y-29337000D01*
D14*
X90705000Y-28564064D02*
X90705000Y-28109936D01*
D15*
X90815000Y-27337000D02*
X92065000Y-27337000D01*
X92065000Y-27337000D02*
X92065000Y-29337000D01*
X75682000Y-60341000D02*
X75682000Y-62341000D01*
D14*
X74322000Y-61602252D02*
X74322000Y-61079748D01*
D15*
X74432000Y-62341000D02*
X74432000Y-60341000D01*
D14*
X75792000Y-61602252D02*
X75792000Y-61079748D01*
D15*
X75682000Y-62341000D02*
X74432000Y-62341000D01*
X74432000Y-60341000D02*
X75682000Y-60341000D01*
D14*
X105601670Y-25470000D02*
X105601670Y-34100000D01*
X106192145Y-25470000D02*
X106192145Y-34100000D01*
X104893100Y-25470000D02*
X104893100Y-34100000D01*
X106900715Y-25470000D02*
X106900715Y-34100000D01*
X105955955Y-25470000D02*
X105955955Y-34100000D01*
X107255000Y-25470000D02*
X107255000Y-34100000D01*
X105365480Y-25470000D02*
X105365480Y-34100000D01*
X105247385Y-25470000D02*
X105247385Y-34100000D01*
X107375000Y-25470000D02*
X102175000Y-25470000D01*
X103145000Y-34100000D02*
X103145000Y-34510000D01*
X106310240Y-25470000D02*
X106310240Y-34100000D01*
D15*
X106345000Y-35560000D02*
X106345000Y-34040000D01*
D14*
X103865000Y-34100000D02*
X103865000Y-34510000D01*
X106405000Y-34100000D02*
X106405000Y-34450000D01*
X102175000Y-25470000D02*
X102175000Y-34100000D01*
X106074050Y-25470000D02*
X106074050Y-34100000D01*
D15*
X105745000Y-34040000D02*
X105745000Y-35560000D01*
X102235000Y-34040000D02*
X102235000Y-25530000D01*
X107315000Y-33070000D02*
X106345000Y-34040000D01*
X103805000Y-35560000D02*
X103805000Y-34040000D01*
D14*
X105129290Y-25470000D02*
X105129290Y-34100000D01*
X107375000Y-35560000D02*
X107375000Y-36670000D01*
X107375000Y-34100000D02*
X102175000Y-34100000D01*
X106428335Y-25470000D02*
X106428335Y-34100000D01*
X107136905Y-25470000D02*
X107136905Y-34100000D01*
X107375000Y-25470000D02*
X107375000Y-34100000D01*
D15*
X103205000Y-35560000D02*
X103805000Y-35560000D01*
D14*
X105685000Y-34100000D02*
X105685000Y-34450000D01*
D15*
X107315000Y-25530000D02*
X107315000Y-33070000D01*
X102235000Y-25530000D02*
X107315000Y-25530000D01*
D14*
X106664525Y-25470000D02*
X106664525Y-34100000D01*
X105483575Y-25470000D02*
X105483575Y-34100000D01*
X105011195Y-25470000D02*
X105011195Y-34100000D01*
X105719765Y-25470000D02*
X105719765Y-34100000D01*
X107018810Y-25470000D02*
X107018810Y-34100000D01*
D15*
X105745000Y-35560000D02*
X106345000Y-35560000D01*
X106345000Y-34040000D02*
X102235000Y-34040000D01*
D14*
X106546430Y-25470000D02*
X106546430Y-34100000D01*
D15*
X103205000Y-34040000D02*
X103205000Y-35560000D01*
D14*
X104775000Y-25470000D02*
X104775000Y-34100000D01*
X105837860Y-25470000D02*
X105837860Y-34100000D01*
X107375000Y-36670000D02*
X106045000Y-36670000D01*
X106782620Y-25470000D02*
X106782620Y-34100000D01*
X55472000Y-42552252D02*
X55472000Y-42029748D01*
D15*
X55362000Y-41291000D02*
X55362000Y-43291000D01*
X55362000Y-43291000D02*
X54112000Y-43291000D01*
D14*
X54002000Y-42552252D02*
X54002000Y-42029748D01*
D15*
X54112000Y-41291000D02*
X55362000Y-41291000D01*
X54112000Y-43291000D02*
X54112000Y-41291000D01*
X79365000Y-32750000D02*
X78115000Y-32750000D01*
D14*
X79475000Y-32011252D02*
X79475000Y-31488748D01*
D15*
X79365000Y-30750000D02*
X79365000Y-32750000D01*
D14*
X78005000Y-32011252D02*
X78005000Y-31488748D01*
D15*
X78115000Y-32750000D02*
X78115000Y-30750000D01*
X78115000Y-30750000D02*
X79365000Y-30750000D01*
X35798000Y-39761000D02*
X35798000Y-41011000D01*
D14*
X35059252Y-41121000D02*
X34536748Y-41121000D01*
D15*
X35798000Y-41011000D02*
X33798000Y-41011000D01*
X33798000Y-41011000D02*
X33798000Y-39761000D01*
D14*
X35059252Y-39651000D02*
X34536748Y-39651000D01*
D15*
X33798000Y-39761000D02*
X35798000Y-39761000D01*
X93673000Y-34910000D02*
X96573000Y-34910000D01*
D14*
X96683000Y-35560000D02*
X96683000Y-34910000D01*
D15*
X96573000Y-36210000D02*
X93998000Y-36210000D01*
X93998000Y-36210000D02*
X93673000Y-35885000D01*
D14*
X93563000Y-35560000D02*
X93563000Y-34910000D01*
D15*
X96573000Y-34910000D02*
X96573000Y-36210000D01*
X93673000Y-35885000D02*
X93673000Y-34910000D01*
D14*
X93563000Y-35560000D02*
X93563000Y-37235000D01*
X96683000Y-35560000D02*
X96683000Y-36210000D01*
D15*
X93355000Y-70120000D02*
X94605000Y-70120000D01*
X93355000Y-72120000D02*
X93355000Y-70120000D01*
D14*
X93245000Y-71347064D02*
X93245000Y-70892936D01*
D15*
X94605000Y-70120000D02*
X94605000Y-72120000D01*
D14*
X94715000Y-71347064D02*
X94715000Y-70892936D01*
D15*
X94605000Y-72120000D02*
X93355000Y-72120000D01*
X98380000Y-67145000D02*
X99355000Y-66170000D01*
X99355000Y-66170000D02*
X102280000Y-66170000D01*
X102280000Y-66170000D02*
X102280000Y-76070000D01*
X102280000Y-76070000D02*
X98380000Y-76070000D01*
D14*
X100330000Y-76180000D02*
X98380000Y-76180000D01*
X100330000Y-66060000D02*
X96880000Y-66060000D01*
D15*
X98380000Y-76070000D02*
X98380000Y-67145000D01*
D14*
X100330000Y-66060000D02*
X102280000Y-66060000D01*
X100330000Y-76180000D02*
X102280000Y-76180000D01*
D15*
X89525000Y-72120000D02*
X88275000Y-72120000D01*
X88275000Y-70120000D02*
X89525000Y-70120000D01*
D14*
X88165000Y-70892936D02*
X88165000Y-71347064D01*
D15*
X88275000Y-72120000D02*
X88275000Y-70120000D01*
X89525000Y-70120000D02*
X89525000Y-72120000D01*
D14*
X89635000Y-70892936D02*
X89635000Y-71347064D01*
D15*
X57400000Y-74530000D02*
X57400000Y-75330000D01*
D14*
X54900000Y-73930000D02*
X58800000Y-73930000D01*
X54900000Y-75930000D02*
X58800000Y-75930000D01*
D15*
X56800000Y-74930000D02*
X56800000Y-74380000D01*
D14*
X54900000Y-73930000D02*
X54900000Y-75930000D01*
D15*
X56800000Y-74930000D02*
X57400000Y-74530000D01*
X57400000Y-75330000D02*
X56800000Y-74930000D01*
X58550000Y-75830000D02*
X55750000Y-75830000D01*
X55750000Y-74030000D02*
X58550000Y-74030000D01*
X56800000Y-74930000D02*
X56800000Y-75480000D01*
X58550000Y-74030000D02*
X58550000Y-75830000D01*
X56400000Y-74930000D02*
X56800000Y-74930000D01*
X55750000Y-75830000D02*
X55750000Y-74030000D01*
X57400000Y-74930000D02*
X57900000Y-74930000D01*
D14*
X46788000Y-43666900D02*
X48281100Y-43666900D01*
D15*
X48171100Y-60363100D02*
X31584900Y-60363100D01*
X31584900Y-44919900D02*
X32727900Y-43776900D01*
D14*
X46788000Y-60473100D02*
X48281100Y-60473100D01*
D15*
X31584900Y-60363100D02*
X31584900Y-44919900D01*
D14*
X31474900Y-44842118D02*
X31474900Y-45160000D01*
D15*
X39378000Y-43776900D02*
X39878000Y-44484007D01*
D14*
X48281100Y-43666900D02*
X48281100Y-45160000D01*
D15*
X40378000Y-43776900D02*
X48171100Y-43776900D01*
D14*
X48281100Y-60473100D02*
X48281100Y-58980000D01*
X32650118Y-43666900D02*
X31474900Y-44842118D01*
D15*
X48171100Y-43776900D02*
X48171100Y-60363100D01*
X39878000Y-44484007D02*
X40378000Y-43776900D01*
D14*
X32968000Y-43666900D02*
X32650118Y-43666900D01*
X32968000Y-60473100D02*
X31474900Y-60473100D01*
X31474900Y-60473100D02*
X31474900Y-58980000D01*
D15*
X32727900Y-43776900D02*
X39378000Y-43776900D01*
D14*
X83495000Y-28911000D02*
X85415000Y-28911000D01*
X85415000Y-28911000D02*
X85415000Y-26051000D01*
X83495000Y-26051000D02*
X83495000Y-28911000D01*
X87604600Y-56781700D02*
X87604600Y-52766685D01*
X77502906Y-47358300D02*
X76225400Y-47358300D01*
D15*
X81915000Y-47485300D02*
X81915000Y-47485300D01*
D14*
X76225400Y-52766685D02*
X76225400Y-56781700D01*
D15*
X81915000Y-47485300D02*
X81915000Y-47485300D01*
D14*
X87604600Y-47358300D02*
X85927184Y-47358300D01*
D15*
X76352400Y-56654700D02*
X87477600Y-56654700D01*
D14*
X76225400Y-56781700D02*
X77902859Y-56781700D01*
D15*
X81915000Y-47485300D02*
X81915000Y-47485300D01*
X76352400Y-47485300D02*
X76352400Y-56654700D01*
D14*
X76225400Y-47358300D02*
X76225400Y-51363917D01*
X87604600Y-51363917D02*
X87604600Y-47358300D01*
D15*
X87477600Y-47485300D02*
X76352400Y-47485300D01*
X81915000Y-47485300D02*
X81915000Y-47485300D01*
D14*
X86327137Y-56781700D02*
X87604600Y-56781700D01*
D15*
X87477600Y-56654700D02*
X87477600Y-47485300D01*
D14*
X82550000Y-76180000D02*
X80600000Y-76180000D01*
X82550000Y-66060000D02*
X79100000Y-66060000D01*
D15*
X84500000Y-66170000D02*
X84500000Y-76070000D01*
X81575000Y-66170000D02*
X84500000Y-66170000D01*
D14*
X82550000Y-66060000D02*
X84500000Y-66060000D01*
D15*
X80600000Y-76070000D02*
X80600000Y-67145000D01*
D14*
X82550000Y-76180000D02*
X84500000Y-76180000D01*
D15*
X80600000Y-67145000D02*
X81575000Y-66170000D01*
X84500000Y-76070000D02*
X80600000Y-76070000D01*
X78496000Y-61960000D02*
X78496000Y-59960000D01*
D14*
X78386000Y-61187064D02*
X78386000Y-60732936D01*
D15*
X79746000Y-61960000D02*
X78496000Y-61960000D01*
X79746000Y-59960000D02*
X79746000Y-61960000D01*
D14*
X79856000Y-61187064D02*
X79856000Y-60732936D01*
D15*
X78496000Y-59960000D02*
X79746000Y-59960000D01*
%LPC*%
D12*
X58067657Y-27317114D02*
X58067657Y-28031400D01*
X58639085Y-28102828D01*
X58581942Y-28031400D01*
X58524800Y-27888542D01*
X58524800Y-27531400D01*
X58581942Y-27388542D01*
X58639085Y-27317114D01*
X58753371Y-27245685D01*
X59039085Y-27245685D01*
X59153371Y-27317114D01*
X59210514Y-27388542D01*
X59267657Y-27531400D01*
X59267657Y-27888542D01*
X59210514Y-28031400D01*
X59153371Y-28102828D01*
X58067657Y-26817114D02*
X59267657Y-26317114D01*
X58067657Y-25817114D01*
D16*
X82550000Y-28076000D03*
X82550000Y-26026000D03*
D17*
X35560000Y-71110000D03*
X35560000Y-76210000D03*
D18*
X93980000Y-75200000D03*
X93980000Y-77200000D03*
D19*
X78803500Y-38548000D03*
X78168500Y-38548000D03*
X77533500Y-38548000D03*
X76898500Y-38548000D03*
X76263500Y-38548000D03*
X75628500Y-38548000D03*
X74993500Y-38548000D03*
X74358500Y-38548000D03*
X73723500Y-38548000D03*
X73088500Y-38548000D03*
X73088500Y-43748000D03*
X73723500Y-43748000D03*
X74358500Y-43748000D03*
X74993500Y-43748000D03*
X75628500Y-43748000D03*
X76263500Y-43748000D03*
X76898500Y-43748000D03*
X77533500Y-43748000D03*
X78168500Y-43748000D03*
X78803500Y-43748000D03*
D20*
X91440000Y-72120000D03*
X91440000Y-70120000D03*
X87630000Y-29337000D03*
X87630000Y-27337000D03*
X89535000Y-29337000D03*
X89535000Y-27337000D03*
D21*
X55587500Y-71120000D03*
X58712500Y-71120000D03*
D22*
X62533000Y-66675000D03*
X62533000Y-67945000D03*
X62533000Y-69215000D03*
X62533000Y-70485000D03*
X62533000Y-71755000D03*
X62533000Y-73025000D03*
X62533000Y-74295000D03*
X62533000Y-75565000D03*
X71833000Y-75565000D03*
X71833000Y-74295000D03*
X71833000Y-73025000D03*
X71833000Y-71755000D03*
X71833000Y-70485000D03*
X71833000Y-69215000D03*
X71833000Y-67945000D03*
X71833000Y-66675000D03*
D17*
X45720000Y-71110000D03*
X45720000Y-76210000D03*
D23*
X94123000Y-39370000D03*
X96123000Y-39370000D03*
D24*
X90424000Y-35244000D03*
X89154000Y-35244000D03*
X87884000Y-35244000D03*
X86614000Y-35244000D03*
X85344000Y-35244000D03*
X84074000Y-35244000D03*
X82804000Y-35244000D03*
X82804000Y-40194000D03*
X84074000Y-40194000D03*
X85344000Y-40194000D03*
X86614000Y-40194000D03*
X87884000Y-40194000D03*
X89154000Y-40194000D03*
X90424000Y-40194000D03*
D25*
X109855000Y-26692000D03*
X109855000Y-29232000D03*
X109855000Y-31772000D03*
X109855000Y-34312000D03*
X109855000Y-36852000D03*
X109855000Y-39392000D03*
X109855000Y-41932000D03*
X109855000Y-44472000D03*
X109855000Y-47012000D03*
X109855000Y-49552000D03*
X109855000Y-52092000D03*
X109855000Y-54632000D03*
X109855000Y-57172000D03*
X109855000Y-59712000D03*
X109855000Y-62252000D03*
X109855000Y-64792000D03*
X109855000Y-67332000D03*
X109855000Y-69872000D03*
X109855000Y-72412000D03*
X109855000Y-74952000D03*
X109855000Y-77492000D03*
D26*
X96540000Y-27280000D03*
D27*
X99080000Y-27280000D03*
D28*
X73652500Y-55820000D03*
X73652500Y-55320000D03*
X73652500Y-54820000D03*
X73652500Y-54320000D03*
X73652500Y-53820000D03*
X73652500Y-53320000D03*
X73652500Y-52820000D03*
X73652500Y-52320000D03*
X73652500Y-51820000D03*
X73652500Y-51320000D03*
X73652500Y-50820000D03*
X73652500Y-50320000D03*
X73652500Y-49820000D03*
X73652500Y-49320000D03*
X73652500Y-48820000D03*
X73652500Y-48320000D03*
D29*
X72965000Y-47632500D03*
X72465000Y-47632500D03*
X71965000Y-47632500D03*
X71465000Y-47632500D03*
X70965000Y-47632500D03*
X70465000Y-47632500D03*
X69965000Y-47632500D03*
X69465000Y-47632500D03*
X68965000Y-47632500D03*
X68465000Y-47632500D03*
X67965000Y-47632500D03*
X67465000Y-47632500D03*
X66965000Y-47632500D03*
X66465000Y-47632500D03*
X65965000Y-47632500D03*
X65465000Y-47632500D03*
D28*
X64777500Y-48320000D03*
X64777500Y-48820000D03*
X64777500Y-49320000D03*
X64777500Y-49820000D03*
X64777500Y-50320000D03*
X64777500Y-50820000D03*
X64777500Y-51320000D03*
X64777500Y-51820000D03*
X64777500Y-52320000D03*
X64777500Y-52820000D03*
X64777500Y-53320000D03*
X64777500Y-53820000D03*
X64777500Y-54320000D03*
X64777500Y-54820000D03*
X64777500Y-55320000D03*
X64777500Y-55820000D03*
D29*
X65465000Y-56507500D03*
X65965000Y-56507500D03*
X66465000Y-56507500D03*
X66965000Y-56507500D03*
X67465000Y-56507500D03*
X67965000Y-56507500D03*
X68465000Y-56507500D03*
X68965000Y-56507500D03*
X69465000Y-56507500D03*
X69965000Y-56507500D03*
X70465000Y-56507500D03*
X70965000Y-56507500D03*
X71465000Y-56507500D03*
X71965000Y-56507500D03*
X72465000Y-56507500D03*
X72965000Y-56507500D03*
D30*
X69215000Y-52070000D03*
D31*
X58712500Y-67310000D03*
X55587500Y-67310000D03*
D32*
X41005000Y-38354000D03*
X39005000Y-38354000D03*
D33*
X67015000Y-30480000D03*
X71415000Y-30480000D03*
D34*
X70815000Y-33080000D03*
X70015000Y-33080000D03*
X69215000Y-33080000D03*
X68415000Y-33080000D03*
X67615000Y-33080000D03*
D35*
X73615000Y-33080000D03*
X64815000Y-33080000D03*
X64815000Y-27580000D03*
X73615000Y-27580000D03*
D18*
X68045000Y-39856672D03*
X68045000Y-41856672D03*
D36*
X61315000Y-52074699D03*
X51715000Y-52074699D03*
D37*
X52715003Y-47974700D03*
X53515001Y-47974700D03*
X54315002Y-47974700D03*
X55115003Y-47974700D03*
X55915001Y-47974700D03*
X56715002Y-47974700D03*
X57515001Y-47974700D03*
X58315001Y-47974700D03*
X59115000Y-47974700D03*
X59915001Y-47974700D03*
X53114956Y-56174701D03*
X53914957Y-56174701D03*
X54714955Y-56174701D03*
X55514956Y-56174701D03*
X56314955Y-56174701D03*
X57114956Y-56174701D03*
X57914957Y-56174701D03*
X58714955Y-56174701D03*
X59514956Y-56174701D03*
X60314954Y-56174701D03*
D20*
X81661000Y-61960000D03*
X81661000Y-59960000D03*
D38*
X69977000Y-62378500D03*
X69977000Y-60303500D03*
D18*
X88900000Y-75200000D03*
X88900000Y-77200000D03*
D23*
X97933000Y-39370000D03*
X99933000Y-39370000D03*
D26*
X58674000Y-35515000D03*
D27*
X56134000Y-35515000D03*
X53594000Y-35515000D03*
D26*
X34925000Y-35560000D03*
D27*
X32385000Y-35560000D03*
D39*
X63373000Y-41253500D03*
X63373000Y-43328500D03*
D25*
X28597000Y-26692000D03*
X28597000Y-29232000D03*
X28597000Y-31772000D03*
X28597000Y-34312000D03*
X28597000Y-36852000D03*
X28597000Y-39392000D03*
X28597000Y-41932000D03*
X28597000Y-44472000D03*
X28597000Y-47012000D03*
X28597000Y-49552000D03*
X28597000Y-52092000D03*
X28597000Y-54632000D03*
X28597000Y-57172000D03*
X28597000Y-59712000D03*
X28597000Y-62252000D03*
X28597000Y-64792000D03*
X28597000Y-67332000D03*
X28597000Y-69872000D03*
X28597000Y-72412000D03*
X28597000Y-74952000D03*
X28597000Y-77492000D03*
D16*
X78740000Y-28076000D03*
X78740000Y-26026000D03*
D40*
X49150000Y-74930000D03*
X52450000Y-74930000D03*
X42800000Y-67310000D03*
X46100000Y-67310000D03*
D41*
X97983000Y-36497500D03*
X99883000Y-36497500D03*
X98933000Y-34622500D03*
D42*
X89240000Y-65040000D03*
X89240000Y-65540000D03*
X89240000Y-66040000D03*
X89240000Y-66540000D03*
X89240000Y-67040000D03*
X93640000Y-67040000D03*
X93640000Y-66540000D03*
X93640000Y-66040000D03*
X93640000Y-65540000D03*
X93640000Y-65040000D03*
D43*
X98552000Y-44070000D03*
X97282000Y-44070000D03*
X96012000Y-44070000D03*
X94742000Y-44070000D03*
X93472000Y-44070000D03*
X92202000Y-44070000D03*
D44*
X90552000Y-45720000D03*
X90552000Y-46990000D03*
X90552000Y-48260000D03*
X90552000Y-49530000D03*
X90552000Y-50800000D03*
X90552000Y-52070000D03*
X90552000Y-53340000D03*
X90552000Y-54610000D03*
X90552000Y-55880000D03*
X90552000Y-57150000D03*
X90552000Y-58420000D03*
D43*
X92202000Y-60070000D03*
X93472000Y-60070000D03*
X94742000Y-60070000D03*
X96012000Y-60070000D03*
X97282000Y-60070000D03*
X98552000Y-60070000D03*
X99822000Y-60070000D03*
X101092000Y-60070000D03*
X102362000Y-60070000D03*
X103632000Y-60070000D03*
X104902000Y-60070000D03*
D44*
X106552000Y-58420000D03*
X106552000Y-57150000D03*
X106552000Y-55880000D03*
X106552000Y-54610000D03*
X106552000Y-53340000D03*
X106552000Y-52070000D03*
X106552000Y-50800000D03*
X106552000Y-49530000D03*
X106552000Y-48260000D03*
X106552000Y-46990000D03*
X106552000Y-45720000D03*
D43*
X104902000Y-44070000D03*
X103632000Y-44070000D03*
X102362000Y-44070000D03*
X101092000Y-44070000D03*
X99822000Y-44070000D03*
D17*
X40640000Y-71110000D03*
X40640000Y-76210000D03*
D45*
X47795000Y-26096400D03*
X39835000Y-26096400D03*
X47795000Y-30596400D03*
X39835000Y-30596400D03*
D40*
X36450000Y-67310000D03*
X39750000Y-67310000D03*
D32*
X41005000Y-36245800D03*
X39005000Y-36245800D03*
D40*
X49150000Y-71120000D03*
X52450000Y-71120000D03*
D18*
X69823000Y-39878404D03*
X69823000Y-41878404D03*
X91440000Y-75200000D03*
X91440000Y-77200000D03*
D38*
X72517000Y-62378500D03*
X72517000Y-60303500D03*
D46*
X50360500Y-40431000D03*
X50360500Y-39781000D03*
X50360500Y-39131000D03*
X50360500Y-38481000D03*
X50360500Y-37831000D03*
X50360500Y-37181000D03*
X50360500Y-36531000D03*
X44635500Y-36531000D03*
X44635500Y-37181000D03*
X44635500Y-37831000D03*
X44635500Y-38481000D03*
X44635500Y-39131000D03*
X44635500Y-39781000D03*
X44635500Y-40431000D03*
D31*
X52362500Y-67310000D03*
X49237500Y-67310000D03*
D20*
X91440000Y-29337000D03*
X91440000Y-27337000D03*
D38*
X75057000Y-62378500D03*
X75057000Y-60303500D03*
D26*
X106045000Y-35560000D03*
D27*
X103505000Y-35560000D03*
D38*
X54737000Y-43328500D03*
X54737000Y-41253500D03*
X78740000Y-32787500D03*
X78740000Y-30712500D03*
D47*
X35835500Y-40386000D03*
X33760500Y-40386000D03*
D41*
X94173000Y-36497500D03*
X96073000Y-36497500D03*
X95123000Y-34622500D03*
D20*
X93980000Y-72120000D03*
X93980000Y-70120000D03*
D48*
X97855000Y-66675000D03*
X97855000Y-67945000D03*
X97855000Y-69215000D03*
X97855000Y-70485000D03*
X97855000Y-71755000D03*
X97855000Y-73025000D03*
X97855000Y-74295000D03*
X97855000Y-75565000D03*
X102805000Y-75565000D03*
X102805000Y-74295000D03*
X102805000Y-73025000D03*
X102805000Y-71755000D03*
X102805000Y-70485000D03*
X102805000Y-69215000D03*
X102805000Y-67945000D03*
X102805000Y-66675000D03*
D18*
X88900000Y-70120000D03*
X88900000Y-72120000D03*
D40*
X55500000Y-74930000D03*
X58800000Y-74930000D03*
D43*
X39878000Y-44070000D03*
X38608000Y-44070000D03*
X37338000Y-44070000D03*
X36068000Y-44070000D03*
X34798000Y-44070000D03*
X33528000Y-44070000D03*
D44*
X31878000Y-45720000D03*
X31878000Y-46990000D03*
X31878000Y-48260000D03*
X31878000Y-49530000D03*
X31878000Y-50800000D03*
X31878000Y-52070000D03*
X31878000Y-53340000D03*
X31878000Y-54610000D03*
X31878000Y-55880000D03*
X31878000Y-57150000D03*
X31878000Y-58420000D03*
D43*
X33528000Y-60070000D03*
X34798000Y-60070000D03*
X36068000Y-60070000D03*
X37338000Y-60070000D03*
X38608000Y-60070000D03*
X39878000Y-60070000D03*
X41148000Y-60070000D03*
X42418000Y-60070000D03*
X43688000Y-60070000D03*
X44958000Y-60070000D03*
X46228000Y-60070000D03*
D44*
X47878000Y-58420000D03*
X47878000Y-57150000D03*
X47878000Y-55880000D03*
X47878000Y-54610000D03*
X47878000Y-53340000D03*
X47878000Y-52070000D03*
X47878000Y-50800000D03*
X47878000Y-49530000D03*
X47878000Y-48260000D03*
X47878000Y-46990000D03*
X47878000Y-45720000D03*
D43*
X46228000Y-44070000D03*
X44958000Y-44070000D03*
X43688000Y-44070000D03*
X42418000Y-44070000D03*
X41148000Y-44070000D03*
D16*
X84455000Y-28076000D03*
X84455000Y-26026000D03*
D36*
X77115000Y-52065301D03*
X86715000Y-52065301D03*
D37*
X78514999Y-56165300D03*
X79315000Y-56165300D03*
X80114999Y-56165300D03*
X80914999Y-56165300D03*
X81714998Y-56165300D03*
X82514999Y-56165300D03*
X83314997Y-56165300D03*
X84114998Y-56165300D03*
X84914999Y-56165300D03*
X85714997Y-56165300D03*
X85315044Y-47965299D03*
X84515043Y-47965299D03*
X83715045Y-47965299D03*
X82915044Y-47965299D03*
X82115045Y-47965299D03*
X81315044Y-47965299D03*
X80515043Y-47965299D03*
X79715045Y-47965299D03*
X78915044Y-47965299D03*
X78115046Y-47965299D03*
D48*
X80075000Y-66675000D03*
X80075000Y-67945000D03*
X80075000Y-69215000D03*
X80075000Y-70485000D03*
X80075000Y-71755000D03*
X80075000Y-73025000D03*
X80075000Y-74295000D03*
X80075000Y-75565000D03*
X85025000Y-75565000D03*
X85025000Y-74295000D03*
X85025000Y-73025000D03*
X85025000Y-71755000D03*
X85025000Y-70485000D03*
X85025000Y-69215000D03*
X85025000Y-67945000D03*
X85025000Y-66675000D03*
D20*
X79121000Y-61960000D03*
X79121000Y-59960000D03*
M02*
