M48
INCH,TZ
T1C0.0118
T2C0.0394
%
G90
G05
T1
X11819Y-16880
X11850Y-25260
X11923Y-23170
X12000Y-25630
X12070Y-15190
X12081Y-20157
X12094Y-13079
X12274Y-16317
X12287Y-12697
X12290Y-26010
X12380Y-24840
X12512Y-24534
X12570Y-14800
X12590Y-12060
X12630Y-27820
X12717Y-26705
X12820Y-15580
X12990Y-25790
X13000Y-21512
X13080Y-15480
X13140Y-21010
X13200Y-17850
X13220Y-18280
X13268Y-18610
X13330Y-24660
X13330Y-26980
X13519Y-17843
X13710Y-19530
X13811Y-20784
X13820Y-25600
X13824Y-16296
X13950Y-27300
X14136Y-26705
X14287Y-22930
X14299Y-20646
X14385Y-26954
X14510Y-24840
X14560Y-15100
X14590Y-12770
X14650Y-11730
X14720Y-16791
X14720Y-15660
X14770Y-14570
X14880Y-21260
X14900Y-25340
X14930Y-22963
X14960Y-27560
X15172Y-16610
X15200Y-22430
X15230Y-18080
X15310Y-18390
X15350Y-26050
X15390Y-12850
X15650Y-27200
X15680Y-25050
X15700Y-26100
X15720Y-15660
X15770Y-18420
X15860Y-12580
X15960Y-20160
X16071Y-25037
X16144Y-15100
X16220Y-19830
X16260Y-10380
X16510Y-13260
X16536Y-20374
X16690Y-18110
X16695Y-21622
X16720Y-24440
X16800Y-26100
X16900Y-27500
X16910Y-24160
X17010Y-15120
X17116Y-22464
X17224Y-16189
X17280Y-24637
X17380Y-24243
X17720Y-24710
X17760Y-17940
X17870Y-16870
X17874Y-21520
X18100Y-27140
X18110Y-11360
X18120Y-15420
X18150Y-23020
X18200Y-22480
X18300Y-10370
X18400Y-21510
X18487Y-17336
X18553Y-22274
X18600Y-30250
X18700Y-15730
X18700Y-28750
X18730Y-12560
X18990Y-25360
X19020Y-17420
X19150Y-18211
X19160Y-15410
X19180Y-12790
X19210Y-19610
X19280Y-16268
X19341Y-20111
X19407Y-28504
X19409Y-24389
X19654Y-27716
X19699Y-16158
X19720Y-19020
X19790Y-18220
X19792Y-11812
X19800Y-23230
X19820Y-19910
X19880Y-23820
X20123Y-12256
X20150Y-18840
X20240Y-15416
X20328Y-15698
X20460Y-23540
X20487Y-18490
X20500Y-15000
X20650Y-30100
X20675Y-17115
X20700Y-25900
X20736Y-24546
X20950Y-17132
X21100Y-21140
X21280Y-23990
X21320Y-25590
X21386Y-24704
X21400Y-18220
X21460Y-17440
X21610Y-25370
X21660Y-15010
X21700Y-25900
X21750Y-30050
X21850Y-28500
X21920Y-24910
X22000Y-25360
X22100Y-11980
X22120Y-16999
X22200Y-20570
X22210Y-21400
X22241Y-17861
X22350Y-19460
X22441Y-25211
X22580Y-25600
X22686Y-17756
X22860Y-25880
X23110Y-24930
X23184Y-17938
X23330Y-21490
X23390Y-25890
X23431Y-22479
X23500Y-26900
X23500Y-28150
X23530Y-11020
X23763Y-21465
X23813Y-17173
X23821Y-27913
X23835Y-10831
X23900Y-28500
X23958Y-17950
X23970Y-17650
X23993Y-12787
X24050Y-28750
X24105Y-14902
X24106Y-13916
X24108Y-13661
X24213Y-17966
X24375Y-13978
X24426Y-18410
X24500Y-17440
X24529Y-22479
X24625Y-17889
X24814Y-21464
X24865Y-17799
X24915Y-24196
X24963Y-17563
X25058Y-21831
X25073Y-22776
X25095Y-21475
X25186Y-14248
X25214Y-17510
X25247Y-19787
X25267Y-20186
X25371Y-16254
X25420Y-25120
X25720Y-16470
X25740Y-27180
X25810Y-30550
X25840Y-18464
X25961Y-23320
X26063Y-18234
X26167Y-22717
X26210Y-16450
X26260Y-18398
X26273Y-14064
X26360Y-30320
X26475Y-14433
X26533Y-14184
X26610Y-30190
X26830Y-30050
X26840Y-23450
X26860Y-16877
X27000Y-16460
X27090Y-27460
X27090Y-29920
X27151Y-17656
X27250Y-20500
X27280Y-17073
X27510Y-16570
X27580Y-23410
X27670Y-27570
X27680Y-29540
X27720Y-29260
X27750Y-17270
X27750Y-28500
X27881Y-13769
X27920Y-14300
X27920Y-15899
X27950Y-18420
X28174Y-15952
X28175Y-14897
X28350Y-22600
X28405Y-18235
X28421Y-16018
X28433Y-16284
X28570Y-22839
X28580Y-23370
X28672Y-16883
X28690Y-12190
X28826Y-16281
X28900Y-27100
X28965Y-16850
X28980Y-22320
X29000Y-29800
X29080Y-16310
X29121Y-17681
X29169Y-13769
X29200Y-29590
X29201Y-20404
X29261Y-16861
X29270Y-22150
X29289Y-21262
X29291Y-21859
X29296Y-19469
X29322Y-20012
X29360Y-16410
X29403Y-20561
X29469Y-28886
X29512Y-19619
X29539Y-19873
X29540Y-21314
X29544Y-21817
X29553Y-23411
X29589Y-21566
X29600Y-15860
X29610Y-20910
X29786Y-23088
X29817Y-17618
X29898Y-18562
X29900Y-10600
X29922Y-23341
X29960Y-14727
X30031Y-24369
X30151Y-20950
X30211Y-19140
X30216Y-23910
X30291Y-14756
X30336Y-22288
X30343Y-16868
X30350Y-16580
X30356Y-23509
X30376Y-21401
X30378Y-17645
X30410Y-28340
X30507Y-25092
X30520Y-27810
X30760Y-19380
X30790Y-17540
X30791Y-21481
X30871Y-27526
X30900Y-25020
X30904Y-26618
X30920Y-28100
X30985Y-28827
X31009Y-23152
X31034Y-20984
X31069Y-18923
X31104Y-20164
X31110Y-25380
X31182Y-17026
X31226Y-22192
X31229Y-21481
X31277Y-17804
X31317Y-21049
X31350Y-16632
X31400Y-10300
X31512Y-17361
X31523Y-22911
X31580Y-16810
X31653Y-12536
X31760Y-23137
X31840Y-10580
X31883Y-14615
X31924Y-17075
X31943Y-21520
X31958Y-17744
X31993Y-22884
X32050Y-21219
X32140Y-13663
X32160Y-25250
X32179Y-20394
X32200Y-28900
X32270Y-17480
X32277Y-14817
X32440Y-28170
X32464Y-23062
X32500Y-10600
X32502Y-17239
X32510Y-27400
X32520Y-21506
X32597Y-23467
X32600Y-16372
X32644Y-18905
X32840Y-13430
X32850Y-28350
X32850Y-17475
X32853Y-23569
X32897Y-14765
X32919Y-19773
X32928Y-27794
X32938Y-17888
X32950Y-24910
X33047Y-17258
X33104Y-15502
X33250Y-23500
X33284Y-16844
X33320Y-14750
X33340Y-13430
X33340Y-17880
X33431Y-15191
X33448Y-14528
X33600Y-23550
X33616Y-20042
X33650Y-10200
X33705Y-15163
X33712Y-12571
X33732Y-17552
X33833Y-19404
X33923Y-23320
X34030Y-17020
X34060Y-11720
X34103Y-18913
X34142Y-15242
X34330Y-26550
X34350Y-10384
X34410Y-14500
X34453Y-16529
X34550Y-28010
X34587Y-19789
X34656Y-26994
X34728Y-23388
X34730Y-23070
X34750Y-13837
X34920Y-22760
X34930Y-12420
X34985Y-12795
X34991Y-19705
X35049Y-14617
X35081Y-25401
X35097Y-16536
X35100Y-18840
X35140Y-16870
X35144Y-13699
X35150Y-10384
X35150Y-18540
X35200Y-24450
X35230Y-17420
X35388Y-14846
X35420Y-28447
X35602Y-27962
X35780Y-17660
X35806Y-15151
X35810Y-26480
X35902Y-24956
X35950Y-10400
X35970Y-23980
X35988Y-28834
X36044Y-13583
X36074Y-21447
X36078Y-16541
X36130Y-25110
X36160Y-20020
X36191Y-12289
X36265Y-19593
X36320Y-14598
X36350Y-14290
X36388Y-13990
X36500Y-24600
X36500Y-28400
X36560Y-19290
X36621Y-20916
X36740Y-24966
X36747Y-11948
X36750Y-26650
X36820Y-20040
X36843Y-21470
X36864Y-21773
X36871Y-12371
X36995Y-26854
X37070Y-16700
X37090Y-22550
X37110Y-13678
X37155Y-26629
X37220Y-12300
X37425Y-26765
X37490Y-15184
X37540Y-20400
X37540Y-24180
X37649Y-27128
X37680Y-16610
X37806Y-21620
X37810Y-15047
X37849Y-27287
X37900Y-13430
X37900Y-29000
X37914Y-22629
X37980Y-12250
X38080Y-25070
X38121Y-22375
X38130Y-16570
X38150Y-18040
X38226Y-24579
X38236Y-27750
X38360Y-21350
X38376Y-18974
X38429Y-16841
X38533Y-13875
X38586Y-22017
X38685Y-23165
X38730Y-13440
X38733Y-24618
X38806Y-27173
X39006Y-19609
X39027Y-22244
X39176Y-16170
X39193Y-25684
X39230Y-17860
X39324Y-22734
X39350Y-24791
X39376Y-25184
X39409Y-16373
X39450Y-27600
X39453Y-27167
X39527Y-21937
X39617Y-28667
X39630Y-11850
X39640Y-25420
X39670Y-29400
X39737Y-25963
X39750Y-15420
X39868Y-13112
X39876Y-27948
X39959Y-29089
X39966Y-27253
X39990Y-11620
X40006Y-19533
X40130Y-18120
X40250Y-21100
X40250Y-21390
X40310Y-16780
X40450Y-25740
X40500Y-12850
X40517Y-18678
X40594Y-16629
X40606Y-18395
X40640Y-16230
X40801Y-19212
X41016Y-29220
X41110Y-21170
X41200Y-20100
X41226Y-25903
X41230Y-29500
X41331Y-19825
X41332Y-18402
X41333Y-18712
X41370Y-23020
X41440Y-29010
X41470Y-19290
X41540Y-21450
X41564Y-16437
X41576Y-22199
X41576Y-22554
X41577Y-20743
X41580Y-15510
X41650Y-26710
X41660Y-21037
X41714Y-17660
X41760Y-14690
X41873Y-29141
X41929Y-29569
X42017Y-28570
X42020Y-17690
X42037Y-29338
X42070Y-27950
X42141Y-29032
X42150Y-12590
X42231Y-30214
X42250Y-16140
X42250Y-28801
X42260Y-17180
T2
X11259Y-10509
X11259Y-11509
X11259Y-12509
X11259Y-13509
X11259Y-14509
X11259Y-15509
X11259Y-16509
X11259Y-17509
X11259Y-18509
X11259Y-19509
X11259Y-20509
X11259Y-21509
X11259Y-22509
X11259Y-23509
X11259Y-24509
X11259Y-25509
X11259Y-26509
X11259Y-27509
X11259Y-28509
X11259Y-29509
X11259Y-30509
X12750Y-14000
X13750Y-14000
X21100Y-13982
X22100Y-13982
X23100Y-13982
X38008Y-10740
X39008Y-10740
X40750Y-14000
X41750Y-14000
X43250Y-10509
X43250Y-11509
X43250Y-12509
X43250Y-13509
X43250Y-14509
X43250Y-15509
X43250Y-16509
X43250Y-17509
X43250Y-18509
X43250Y-19509
X43250Y-20509
X43250Y-21509
X43250Y-22509
X43250Y-23509
X43250Y-24509
X43250Y-25509
X43250Y-26509
X43250Y-27509
X43250Y-28509
X43250Y-29509
X43250Y-30509
T0
M30
