%TF.GenerationSoftware,KiCad,Pcbnew,(6.0.6-0)*%
%TF.CreationDate,2022-07-26T09:11:42-07:00*%
%TF.ProjectId,MTMatrixV3,4d544d61-7472-4697-9856-332e6b696361,rev?*%
%TF.SameCoordinates,Original*%
%TF.FileFunction,Profile,NP*%
%FSLAX46Y46*%
G04 Gerber Fmt 4.6, Leading zero omitted, Abs format (unit mm)*
G04 Created by KiCad (PCBNEW (6.0.6-0)) date 2022-07-26 09:11:42*
%MOMM*%
%LPD*%
G01*
G04 APERTURE LIST*
%TA.AperFunction,Profile*%
%ADD10C,0.100000*%
%TD*%
%TA.AperFunction,Profile*%
%ADD11C,0.120000*%
%TD*%
G04 APERTURE END LIST*
D10*
X206375000Y-30480000D02*
G75*
G03*
X205105000Y-29210000I-1270000J0D01*
G01*
X206375000Y-81280000D02*
X206375000Y-30480000D01*
X205105000Y-82550000D02*
G75*
G03*
X206375000Y-81280000I0J1270000D01*
G01*
X123825000Y-81280000D02*
G75*
G03*
X125095000Y-82550000I1270000J0D01*
G01*
X125095000Y-82550000D02*
X205105000Y-82550000D01*
X205105000Y-29210000D02*
X125095000Y-29210000D01*
X123825000Y-30480000D02*
X123825000Y-81280000D01*
X125095000Y-29210000D02*
G75*
G03*
X123825000Y-30480000I0J-1270000D01*
G01*
D11*
%TO.C,J3*%
X194210711Y-38100000D02*
G75*
G03*
X194210711Y-38100000I-1170711J0D01*
G01*
X194210711Y-73660000D02*
G75*
G03*
X194210711Y-73660000I-1170711J0D01*
G01*
X165922662Y-37465000D02*
G75*
G03*
X165922662Y-37465000I-822662J0D01*
G01*
X202388303Y-55880000D02*
G75*
G03*
X202388303Y-55880000I-1170711J0D01*
G01*
X165922662Y-74295000D02*
G75*
G03*
X165922662Y-74295000I-822662J0D01*
G01*
X148490711Y-55880000D02*
G75*
G03*
X148490711Y-55880000I-1170711J0D01*
G01*
X204634711Y-78486000D02*
G75*
G03*
X204634711Y-78486000I-1170711J0D01*
G01*
X127916711Y-33274000D02*
G75*
G03*
X127916711Y-33274000I-1170711J0D01*
G01*
X138330711Y-73660000D02*
G75*
G03*
X138330711Y-73660000I-1170711J0D01*
G01*
X138330711Y-38100000D02*
G75*
G03*
X138330711Y-38100000I-1170711J0D01*
G01*
X130153111Y-55880000D02*
G75*
G03*
X130153111Y-55880000I-1170711J0D01*
G01*
X127906711Y-78486000D02*
G75*
G03*
X127906711Y-78486000I-1170711J0D01*
G01*
X184050711Y-55880000D02*
G75*
G03*
X184050711Y-55880000I-1170711J0D01*
G01*
X204634711Y-33274000D02*
G75*
G03*
X204634711Y-33274000I-1170711J0D01*
G01*
X166270711Y-55880000D02*
G75*
G03*
X166270711Y-55880000I-1170711J0D01*
G01*
%TD*%
M02*
