%TF.GenerationSoftware,KiCad,Pcbnew,(6.0.6-0)*%
%TF.CreationDate,2022-07-26T09:11:42-07:00*%
%TF.ProjectId,MTMatrixV3,4d544d61-7472-4697-9856-332e6b696361,rev?*%
%TF.SameCoordinates,Original*%
%TF.FileFunction,Copper,L1,Top*%
%TF.FilePolarity,Positive*%
%FSLAX46Y46*%
G04 Gerber Fmt 4.6, Leading zero omitted, Abs format (unit mm)*
G04 Created by KiCad (PCBNEW (6.0.6-0)) date 2022-07-26 09:11:42*
%MOMM*%
%LPD*%
G01*
G04 APERTURE LIST*
G04 Aperture macros list*
%AMRoundRect*
0 Rectangle with rounded corners*
0 $1 Rounding radius*
0 $2 $3 $4 $5 $6 $7 $8 $9 X,Y pos of 4 corners*
0 Add a 4 corners polygon primitive as box body*
4,1,4,$2,$3,$4,$5,$6,$7,$8,$9,$2,$3,0*
0 Add four circle primitives for the rounded corners*
1,1,$1+$1,$2,$3*
1,1,$1+$1,$4,$5*
1,1,$1+$1,$6,$7*
1,1,$1+$1,$8,$9*
0 Add four rect primitives between the rounded corners*
20,1,$1+$1,$2,$3,$4,$5,0*
20,1,$1+$1,$4,$5,$6,$7,0*
20,1,$1+$1,$6,$7,$8,$9,0*
20,1,$1+$1,$8,$9,$2,$3,0*%
G04 Aperture macros list end*
%TA.AperFunction,ComponentPad*%
%ADD10RoundRect,0.700000X0.000000X-0.150000X0.000000X-0.150000X0.000000X0.150000X0.000000X0.150000X0*%
%TD*%
%TA.AperFunction,SMDPad,CuDef*%
%ADD11RoundRect,0.250000X-35.750000X-0.250000X35.750000X-0.250000X35.750000X0.250000X-35.750000X0.250000X0*%
%TD*%
%TA.AperFunction,SMDPad,CuDef*%
%ADD12RoundRect,0.250000X0.250000X-6.250000X0.250000X6.250000X-0.250000X6.250000X-0.250000X-6.250000X0*%
%TD*%
%TA.AperFunction,ViaPad*%
%ADD13C,0.500000*%
%TD*%
%TA.AperFunction,Conductor*%
%ADD14C,0.300000*%
%TD*%
G04 APERTURE END LIST*
D10*
%TO.P,J1,1,Pin_1*%
%TO.N,AX0*%
X124460000Y-30480000D03*
%TO.P,J1,2,Pin_2*%
%TO.N,AX1*%
X124460000Y-33020000D03*
%TO.P,J1,3,Pin_3*%
%TO.N,AX2*%
X124460000Y-35560000D03*
%TO.P,J1,4,Pin_4*%
%TO.N,AX3*%
X124460000Y-38100000D03*
%TO.P,J1,5,Pin_5*%
%TO.N,AY0*%
X124460000Y-40640000D03*
%TO.P,J1,6,Pin_6*%
%TO.N,AY1*%
X124460000Y-43180000D03*
%TO.P,J1,7,Pin_7*%
%TO.N,AY2*%
X124460000Y-45720000D03*
%TO.P,J1,8,Pin_8*%
%TO.N,DATA*%
X124460000Y-48260000D03*
%TO.P,J1,9,Pin_9*%
%TO.N,RESET*%
X124460000Y-50800000D03*
%TO.P,J1,10,Pin_10*%
%TO.N,STROBE*%
X124460000Y-53340000D03*
%TO.P,J1,11,Pin_11*%
%TO.N,+9V*%
X124460000Y-55880000D03*
%TO.P,J1,12,Pin_12*%
%TO.N,GND*%
X124460000Y-58420000D03*
%TO.P,J1,13,Pin_13*%
%TO.N,-9V*%
X124460000Y-60960000D03*
%TO.P,J1,14,Pin_14*%
%TO.N,AI*%
X124460000Y-63500000D03*
%TO.P,J1,15,Pin_15*%
%TO.N,BI*%
X124460000Y-66040000D03*
%TO.P,J1,16,Pin_16*%
%TO.N,CI*%
X124460000Y-68580000D03*
%TO.P,J1,17,Pin_17*%
%TO.N,DI*%
X124460000Y-71120000D03*
%TO.P,J1,18,Pin_18*%
%TO.N,EI*%
X124460000Y-73660000D03*
%TO.P,J1,19,Pin_19*%
%TO.N,FI*%
X124460000Y-76200000D03*
%TO.P,J1,20,Pin_20*%
%TO.N,GI*%
X124460000Y-78740000D03*
%TO.P,J1,21,Pin_21*%
%TO.N,HI*%
X124460000Y-81280000D03*
%TD*%
D11*
%TO.P,J3,0,Pin_0*%
%TO.N,Neg_Top*%
X165100000Y-34544000D03*
D12*
%TO.P,J3,1,Pin_1*%
%TO.N,1*%
X128270000Y-46990000D03*
%TO.P,J3,2,Pin_2*%
%TO.N,2*%
X130810000Y-46990000D03*
%TO.P,J3,3,Pin_3*%
%TO.N,3*%
X133350000Y-46990000D03*
%TO.P,J3,4,Pin_4*%
%TO.N,4*%
X135890000Y-46990000D03*
%TO.P,J3,5,Pin_5*%
%TO.N,5*%
X138430000Y-46990000D03*
%TO.P,J3,6,Pin_6*%
%TO.N,6*%
X140970000Y-46990000D03*
%TO.P,J3,7,Pin_7*%
%TO.N,7*%
X143510000Y-46990000D03*
%TO.P,J3,8,Pin_8*%
%TO.N,8*%
X146050000Y-46990000D03*
%TO.P,J3,9,Pin_9*%
%TO.N,9*%
X148590000Y-46990000D03*
%TO.P,J3,10,Pin_10*%
%TO.N,10*%
X151130000Y-46990000D03*
%TO.P,J3,11,Pin_11*%
%TO.N,11*%
X153670000Y-46990000D03*
%TO.P,J3,12,Pin_12*%
%TO.N,12*%
X156210000Y-46990000D03*
%TO.P,J3,13,Pin_13*%
%TO.N,13*%
X158750000Y-46990000D03*
%TO.P,J3,14,Pin_14*%
%TO.N,14*%
X161290000Y-46990000D03*
%TO.P,J3,15,Pin_15*%
%TO.N,15*%
X163830000Y-46990000D03*
%TO.P,J3,16,Pin_16*%
%TO.N,16*%
X166370000Y-46990000D03*
%TO.P,J3,17,Pin_17*%
%TO.N,17*%
X168910000Y-46990000D03*
%TO.P,J3,18,Pin_18*%
%TO.N,18*%
X171450000Y-46990000D03*
%TO.P,J3,19,Pin_19*%
%TO.N,19*%
X173990000Y-46990000D03*
%TO.P,J3,20,Pin_20*%
%TO.N,20*%
X176530000Y-46990000D03*
%TO.P,J3,21,Pin_21*%
%TO.N,21*%
X179070000Y-46990000D03*
%TO.P,J3,22,Pin_22*%
%TO.N,22*%
X181610000Y-46990000D03*
%TO.P,J3,23,Pin_23*%
%TO.N,23*%
X184150000Y-46990000D03*
%TO.P,J3,24,Pin_24*%
%TO.N,24*%
X186690000Y-46990000D03*
%TO.P,J3,25,Pin_25*%
%TO.N,25*%
X189230000Y-46990000D03*
%TO.P,J3,26,Pin_26*%
%TO.N,26*%
X191770000Y-46990000D03*
%TO.P,J3,27,Pin_27*%
%TO.N,27*%
X194310000Y-46990000D03*
%TO.P,J3,28,Pin_28*%
%TO.N,28*%
X196850000Y-46990000D03*
%TO.P,J3,29,Pin_29*%
%TO.N,29*%
X199390000Y-46990000D03*
%TO.P,J3,30,Pin_30*%
%TO.N,unconnected-(J3-Pad30)*%
X201930000Y-46990000D03*
D11*
%TO.P,J3,31,Pin_31*%
%TO.N,Pos_Top*%
X165100000Y-32004000D03*
%TO.P,J3,32,Pin_0*%
%TO.N,Neg_Bottom*%
X165100000Y-79756000D03*
D12*
%TO.P,J3,33,Pin_1*%
%TO.N,33*%
X128270000Y-64770000D03*
%TO.P,J3,34,Pin_2*%
%TO.N,34*%
X130810000Y-64770000D03*
%TO.P,J3,35,Pin_3*%
%TO.N,35*%
X133350000Y-64770000D03*
%TO.P,J3,36,Pin_4*%
%TO.N,36*%
X135890000Y-64770000D03*
%TO.P,J3,37,Pin_5*%
%TO.N,37*%
X138430000Y-64770000D03*
%TO.P,J3,38,Pin_6*%
%TO.N,38*%
X140970000Y-64770000D03*
%TO.P,J3,39,Pin_7*%
%TO.N,39*%
X143510000Y-64770000D03*
%TO.P,J3,40,Pin_8*%
%TO.N,40*%
X146050000Y-64770000D03*
%TO.P,J3,41,Pin_9*%
%TO.N,41*%
X148590000Y-64770000D03*
%TO.P,J3,42,Pin_10*%
%TO.N,42*%
X151130000Y-64770000D03*
%TO.P,J3,43,Pin_11*%
%TO.N,43*%
X153670000Y-64770000D03*
%TO.P,J3,44,Pin_12*%
%TO.N,44*%
X156210000Y-64770000D03*
%TO.P,J3,45,Pin_13*%
%TO.N,45*%
X158750000Y-64770000D03*
%TO.P,J3,46,Pin_14*%
%TO.N,46*%
X161290000Y-64770000D03*
%TO.P,J3,47,Pin_15*%
%TO.N,47*%
X163830000Y-64770000D03*
%TO.P,J3,48,Pin_16*%
%TO.N,48*%
X166370000Y-64770000D03*
%TO.P,J3,49,Pin_17*%
%TO.N,49*%
X168910000Y-64770000D03*
%TO.P,J3,50,Pin_18*%
%TO.N,50*%
X171450000Y-64770000D03*
%TO.P,J3,51,Pin_19*%
%TO.N,51*%
X173990000Y-64770000D03*
%TO.P,J3,52,Pin_20*%
%TO.N,52*%
X176530000Y-64770000D03*
%TO.P,J3,53,Pin_21*%
%TO.N,53*%
X179070000Y-64770000D03*
%TO.P,J3,54,Pin_22*%
%TO.N,54*%
X181610000Y-64770000D03*
%TO.P,J3,55,Pin_23*%
%TO.N,55*%
X184150000Y-64770000D03*
%TO.P,J3,56,Pin_24*%
%TO.N,56*%
X186690000Y-64770000D03*
%TO.P,J3,57,Pin_25*%
%TO.N,57*%
X189230000Y-64770000D03*
%TO.P,J3,58,Pin_26*%
%TO.N,58*%
X191770000Y-64770000D03*
%TO.P,J3,59,Pin_27*%
%TO.N,59*%
X194310000Y-64770000D03*
%TO.P,J3,60,Pin_28*%
%TO.N,60*%
X196850000Y-64770000D03*
%TO.P,J3,61,Pin_29*%
%TO.N,61*%
X199390000Y-64770000D03*
%TO.P,J3,62,Pin_30*%
%TO.N,unconnected-(J3-Pad62)*%
X201930000Y-64770000D03*
D11*
%TO.P,J3,63,Pin_31*%
%TO.N,Pos_Bottom*%
X165100000Y-77216000D03*
%TD*%
D10*
%TO.P,J2,1,Pin_1*%
%TO.N,CS_A*%
X205740000Y-30480000D03*
%TO.P,J2,2,Pin_2*%
%TO.N,CS_B*%
X205740000Y-33020000D03*
%TO.P,J2,3,Pin_3*%
%TO.N,CS_C*%
X205740000Y-35560000D03*
%TO.P,J2,4,Pin_4*%
%TO.N,CS_D*%
X205740000Y-38100000D03*
%TO.P,J2,5,Pin_5*%
%TO.N,CS_E*%
X205740000Y-40640000D03*
%TO.P,J2,6,Pin_6*%
%TO.N,CS_F*%
X205740000Y-43180000D03*
%TO.P,J2,7,Pin_7*%
%TO.N,CS_G*%
X205740000Y-45720000D03*
%TO.P,J2,8,Pin_8*%
%TO.N,CS_H*%
X205740000Y-48260000D03*
%TO.P,J2,9,Pin_9*%
%TO.N,GND2*%
X205740000Y-50800000D03*
%TO.P,J2,10,Pin_10*%
%TO.N,Pos_Top*%
X205740000Y-53340000D03*
%TO.P,J2,11,Pin_11*%
%TO.N,Pos_Bottom*%
X205740000Y-55880000D03*
%TO.P,J2,12,Pin_12*%
%TO.N,Bottom_LEDs*%
X205740000Y-58420000D03*
%TO.P,J2,13,Pin_13*%
%TO.N,Top_LEDs*%
X205740000Y-60960000D03*
%TO.P,J2,14,Pin_14*%
%TO.N,AJ*%
X205740000Y-63500000D03*
%TO.P,J2,15,Pin_15*%
%TO.N,BJ*%
X205740000Y-66040000D03*
%TO.P,J2,16,Pin_16*%
%TO.N,CJ*%
X205740000Y-68580000D03*
%TO.P,J2,17,Pin_17*%
%TO.N,DJ*%
X205740000Y-71120000D03*
%TO.P,J2,18,Pin_18*%
%TO.N,EJ*%
X205740000Y-73660000D03*
%TO.P,J2,19,Pin_19*%
%TO.N,FJ*%
X205740000Y-76200000D03*
%TO.P,J2,20,Pin_20*%
%TO.N,GJ*%
X205740000Y-78740000D03*
%TO.P,J2,21,Pin_21*%
%TO.N,HJ*%
X205740000Y-81280000D03*
%TD*%
D13*
%TO.N,4*%
X135890000Y-42519600D03*
%TO.N,AY2*%
X157175200Y-62484000D03*
X195627892Y-37207735D03*
X134721600Y-75082400D03*
X156108400Y-37025500D03*
X195478400Y-45964700D03*
X195395648Y-69916974D03*
X134331399Y-45720000D03*
X175580500Y-62230000D03*
X157175200Y-45821600D03*
X175961100Y-37283919D03*
X175580500Y-45720000D03*
%TO.N,RESET*%
X126847600Y-40030400D03*
X157530800Y-40030400D03*
X157683200Y-61925200D03*
X197222123Y-40050214D03*
X133594700Y-40030400D03*
X197053200Y-72288400D03*
X178001289Y-40115001D03*
X177657700Y-62331295D03*
X133400800Y-75133200D03*
%TO.N,AX3*%
X131826000Y-74574400D03*
X179414129Y-57821871D03*
X158665399Y-39462300D03*
X198177611Y-71941766D03*
X131014097Y-39205728D03*
X197640000Y-39410000D03*
X159699500Y-62738000D03*
X178674844Y-39658021D03*
%TO.N,AX0*%
X180421435Y-37176300D03*
X180180000Y-33350000D03*
X159775300Y-62029759D03*
X131098887Y-74431064D03*
X130445100Y-37649881D03*
X199007391Y-36588284D03*
X198872080Y-73503724D03*
X126240000Y-30310000D03*
X200201514Y-32981700D03*
X180099397Y-62771113D03*
X159660000Y-33300000D03*
X159918400Y-37025500D03*
%TO.N,/AH0*%
X129661939Y-63139761D03*
X129692400Y-36576000D03*
X197803154Y-60718046D03*
%TO.N,/AH1*%
X131013200Y-36677600D03*
X132377699Y-63311757D03*
X195834000Y-62382400D03*
%TO.N,/AD0*%
X187799315Y-38439103D03*
X132334000Y-36525200D03*
%TO.N,/AD1*%
X133451600Y-36931600D03*
X188630500Y-38912800D03*
%TO.N,/AE0*%
X139293600Y-71780400D03*
X134470000Y-37130000D03*
%TO.N,/AE1*%
X140157200Y-71780400D03*
X135210000Y-37170000D03*
%TO.N,/AF0*%
X145100500Y-65429209D03*
X140377135Y-37465043D03*
%TO.N,/AF1*%
X140370923Y-36765568D03*
X145100500Y-66650791D03*
%TO.N,8*%
X145542000Y-36372800D03*
%TO.N,GND*%
X125800000Y-62160000D03*
X126140000Y-74460000D03*
X156750000Y-30980000D03*
X182670000Y-33390000D03*
X200710000Y-63830000D03*
X192576789Y-56778715D03*
X200740000Y-62270000D03*
X200339500Y-44760000D03*
X171450000Y-80822800D03*
X180840000Y-81030000D03*
X132120000Y-44980000D03*
X198339996Y-58231418D03*
X168129500Y-33260000D03*
X173850000Y-33330000D03*
X192940000Y-62760000D03*
X154380000Y-73122094D03*
X178308000Y-57150000D03*
X197110000Y-74030000D03*
X159156400Y-80975200D03*
X200570000Y-48040000D03*
X181060000Y-30720000D03*
X181203600Y-75336400D03*
X140500000Y-81000000D03*
X198830000Y-38770000D03*
X137250000Y-68550000D03*
X126190000Y-65190000D03*
X171950000Y-72350000D03*
X146354800Y-31020201D03*
X200530000Y-69710000D03*
X142544800Y-36982400D03*
X202450000Y-80980000D03*
X132130000Y-41940000D03*
X139050000Y-78590000D03*
X197799500Y-41490000D03*
X179324000Y-30530800D03*
X126680000Y-35820000D03*
%TO.N,7*%
X142443200Y-37800500D03*
%TO.N,STROBE*%
X198018400Y-51257200D03*
X131836341Y-53120869D03*
X178882100Y-72238026D03*
X188264800Y-72440800D03*
X161273801Y-53969429D03*
X140541577Y-39462300D03*
X188315600Y-53644800D03*
X144466331Y-53127500D03*
X159318900Y-75020096D03*
X131826000Y-61711392D03*
X179006791Y-53950537D03*
%TO.N,6*%
X140970000Y-42113200D03*
%TO.N,-9V*%
X194044487Y-57353200D03*
X176665271Y-74838732D03*
X134946006Y-57495500D03*
X177596800Y-49479200D03*
X143312663Y-57647900D03*
X188925200Y-57454800D03*
X188280500Y-69951600D03*
X142392400Y-41910000D03*
X156291493Y-75020096D03*
X154950100Y-49808295D03*
X155877896Y-57781127D03*
X193360500Y-48209200D03*
X176733200Y-57414100D03*
%TO.N,5*%
X138420000Y-47030000D03*
%TO.N,AX1*%
X137414000Y-47955200D03*
X193294000Y-49072800D03*
X154386740Y-75020096D03*
X175006000Y-48920400D03*
X174281683Y-74729668D03*
X154635200Y-48107600D03*
X187706000Y-48920400D03*
X172964892Y-48946364D03*
X152508383Y-48992810D03*
X187706000Y-67091100D03*
X126273100Y-47091600D03*
X141938038Y-48885300D03*
X137475539Y-61825457D03*
X142497065Y-45093108D03*
%TO.N,AX2*%
X125780800Y-47599600D03*
X139395200Y-62077600D03*
X142560500Y-46294500D03*
X172964892Y-49741356D03*
X139395200Y-49276000D03*
X172893767Y-74662698D03*
X153010211Y-75020096D03*
X152190000Y-49710000D03*
X190820500Y-49580800D03*
X190179500Y-65465500D03*
X142560500Y-49580800D03*
%TO.N,AY0*%
X172427773Y-48311324D03*
X142560500Y-47329900D03*
X190347600Y-40604900D03*
X140013398Y-61713735D03*
X152501600Y-40640000D03*
X152298902Y-48325410D03*
X150985201Y-75020096D03*
X190268321Y-64709900D03*
X173014700Y-40744504D03*
X190347600Y-48260000D03*
X139711048Y-41064001D03*
X171805600Y-74676000D03*
%TO.N,AY1*%
X170332400Y-48310800D03*
X190179500Y-47244000D03*
X149937645Y-75020096D03*
X139903200Y-43180000D03*
X150040054Y-42283166D03*
X190179500Y-43383200D03*
X190325259Y-62660298D03*
X149548247Y-47202500D03*
X170327151Y-74615900D03*
X170332400Y-43180000D03*
X139903200Y-47979500D03*
X140004800Y-62534800D03*
%TO.N,/AG1*%
X165238951Y-66662400D03*
X163170000Y-55940000D03*
X142840000Y-54560000D03*
%TO.N,/AG0*%
X139649200Y-55067200D03*
X165318824Y-65513400D03*
X163770000Y-57100000D03*
%TO.N,/AC1*%
X137210800Y-49479200D03*
X165420500Y-51003200D03*
X165411792Y-41638495D03*
%TO.N,/AC0*%
X165323069Y-52842100D03*
X137160000Y-52730400D03*
X164791873Y-41962539D03*
%TO.N,/AB1*%
X134620000Y-43789600D03*
X149539500Y-43484800D03*
X134940500Y-48260000D03*
%TO.N,/AB0*%
X149539500Y-44297600D03*
X134823200Y-48971200D03*
X134730900Y-44763538D03*
%TO.N,AJ*%
X132400500Y-64097903D03*
X132220673Y-49784940D03*
%TO.N,AI*%
X126085600Y-51816000D03*
X131759500Y-52425600D03*
%TO.N,CS_A*%
X127670500Y-35052000D03*
X129450000Y-48430000D03*
%TO.N,2*%
X130911600Y-47599600D03*
%TO.N,DATA*%
X170500500Y-62331600D03*
X202896498Y-51671150D03*
X171795500Y-37293039D03*
X203352400Y-64770000D03*
X150180500Y-52414193D03*
X139790193Y-74953615D03*
X142259111Y-52480400D03*
X150180500Y-62779999D03*
X189838699Y-37673648D03*
X188280500Y-52527200D03*
X170500500Y-52781200D03*
X150368000Y-37185600D03*
%TO.N,3*%
X133350000Y-44805600D03*
%TO.N,+9V*%
X193131939Y-66979839D03*
X139052874Y-74216297D03*
X174939500Y-63219098D03*
X126860000Y-44520000D03*
X173858022Y-54439368D03*
X126658648Y-54396383D03*
X174142400Y-37277100D03*
X154228800Y-54406800D03*
X153720800Y-37541200D03*
X200364500Y-67091100D03*
X194260000Y-36580000D03*
X154619500Y-62779999D03*
X141368844Y-54515956D03*
X194665600Y-54406800D03*
%TO.N,11*%
X153720800Y-45212000D03*
%TO.N,/BH0*%
X191920000Y-36470000D03*
X191660450Y-57111192D03*
X161340800Y-36626800D03*
%TO.N,/BH1*%
X160934400Y-37800500D03*
X190867159Y-37285518D03*
X191964372Y-57768594D03*
%TO.N,/BD0*%
X160340500Y-40894000D03*
X187706000Y-41605200D03*
%TO.N,/BD1*%
X187807600Y-42367200D03*
X160321083Y-41593233D03*
%TO.N,/BE0*%
X160274772Y-72759500D03*
X142487046Y-71521705D03*
X160340500Y-42367200D03*
%TO.N,/BE1*%
X159715200Y-42011600D03*
X159664400Y-71434100D03*
X141919500Y-70967600D03*
%TO.N,/BF0*%
X164798998Y-67718716D03*
X149820381Y-68138769D03*
X162550000Y-44440000D03*
%TO.N,/BF1*%
X149599853Y-68802600D03*
X165201600Y-68326000D03*
X162610000Y-45720000D03*
%TO.N,15*%
X163819900Y-50660057D03*
%TO.N,14*%
X161030000Y-45760000D03*
%TO.N,13*%
X158532497Y-46519950D03*
%TO.N,12*%
X156210000Y-47193200D03*
%TO.N,/BG1*%
X147000000Y-48250000D03*
X169859500Y-47752000D03*
X169960563Y-67884001D03*
%TO.N,/BG0*%
X169859500Y-46888400D03*
X145080000Y-46360000D03*
X169884500Y-66785001D03*
%TO.N,/BC1*%
X164947600Y-44602400D03*
X150114000Y-45516800D03*
%TO.N,/BC0*%
X164965444Y-43705844D03*
X149539500Y-45110400D03*
%TO.N,BJ*%
X149582299Y-65903799D03*
X147116799Y-43179999D03*
%TO.N,BI*%
X147167600Y-41910000D03*
X149622553Y-67452851D03*
%TO.N,CS_B*%
X148945600Y-36677600D03*
%TO.N,9*%
X148645844Y-40888956D03*
%TO.N,10*%
X151079200Y-41046400D03*
%TO.N,18*%
X171620000Y-44420000D03*
%TO.N,/CH0*%
X185743550Y-58334926D03*
X184420000Y-33390000D03*
%TO.N,/CH1*%
X185715500Y-60943135D03*
X185700000Y-33430000D03*
%TO.N,/CE0*%
X142519507Y-67166900D03*
X180035200Y-66802000D03*
X180019500Y-42418000D03*
%TO.N,/CE1*%
X180658298Y-65065526D03*
X180660500Y-43992800D03*
X142560500Y-66040000D03*
%TO.N,/CF0*%
X180272013Y-68378876D03*
X180660500Y-45008800D03*
X149707600Y-69951600D03*
%TO.N,/CF1*%
X180136800Y-71374000D03*
X149555200Y-71526400D03*
X183200500Y-45770800D03*
%TO.N,22*%
X181610000Y-47599600D03*
%TO.N,21*%
X179070000Y-47904400D03*
%TO.N,20*%
X176580800Y-47447200D03*
%TO.N,19*%
X173939200Y-47701200D03*
%TO.N,/CG1*%
X167386000Y-71091300D03*
X167335200Y-48310800D03*
%TO.N,/CG0*%
X167386000Y-47040800D03*
X167350000Y-69850000D03*
%TO.N,CJ*%
X170150299Y-68557280D03*
X167386000Y-45720000D03*
%TO.N,CI*%
X167487600Y-44399200D03*
X165100000Y-69240400D03*
%TO.N,CS_C*%
X168429759Y-36077300D03*
%TO.N,16*%
X169316400Y-37795200D03*
%TO.N,17*%
X168910000Y-45923200D03*
%TO.N,Net-(C1-Pad2)*%
X145491200Y-30520700D03*
X156362400Y-54203600D03*
%TO.N,Net-(C2-Pad2)*%
X145230000Y-80900000D03*
X151587200Y-55880000D03*
%TO.N,25*%
X189230000Y-45720000D03*
%TO.N,/DH0*%
X200729777Y-37049245D03*
X199440800Y-75133200D03*
%TO.N,/DH1*%
X200355200Y-37693600D03*
X198561340Y-74596400D03*
%TO.N,DI*%
X197910000Y-38500000D03*
X196611613Y-71745901D03*
%TO.N,DJ*%
X200364500Y-70555500D03*
X200364500Y-40690800D03*
%TO.N,/DE0*%
X200901138Y-74184199D03*
X129692400Y-72440800D03*
X200364500Y-42630500D03*
%TO.N,/DE1*%
X197799500Y-43586400D03*
X197866000Y-73710800D03*
X129387600Y-71221600D03*
%TO.N,/DF0*%
X192719500Y-64363600D03*
X193243200Y-43992800D03*
X165409690Y-63631211D03*
%TO.N,/DF1*%
X192735200Y-65278000D03*
X193192400Y-44856400D03*
X165100000Y-64363600D03*
%TO.N,28*%
X196900800Y-47701200D03*
%TO.N,27*%
X194208400Y-47650400D03*
%TO.N,26*%
X191922400Y-53035200D03*
%TO.N,/DG1*%
X185099500Y-50800000D03*
X182930800Y-65989200D03*
%TO.N,/DG0*%
X182930800Y-64770000D03*
X183200500Y-50647600D03*
%TO.N,CS_D*%
X188630500Y-38213297D03*
%TO.N,23*%
X189155309Y-37524376D03*
%TO.N,24*%
X190900500Y-38100000D03*
%TO.N,Net-(D1-Pad2)*%
X173390000Y-30140000D03*
X195834000Y-30480000D03*
X127843987Y-30536164D03*
X172399500Y-52628800D03*
X150520400Y-30683200D03*
%TO.N,Net-(D5-Pad2)*%
X196830000Y-81760000D03*
X176452548Y-55564614D03*
X172364400Y-80705500D03*
X150114000Y-81280000D03*
X173700000Y-80880000D03*
X127827550Y-80774344D03*
%TO.N,36*%
X134970500Y-72925947D03*
%TO.N,/EH0*%
X195310000Y-78226498D03*
X128300000Y-76530000D03*
%TO.N,/EH1*%
X130360000Y-78460000D03*
X194040000Y-78226498D03*
%TO.N,EJ*%
X127320500Y-68580000D03*
X125853272Y-76413309D03*
%TO.N,/EF0*%
X129540000Y-67310000D03*
X160000797Y-67433115D03*
%TO.N,/EF1*%
X132029200Y-66090800D03*
X160000797Y-65534608D03*
%TO.N,40*%
X131133193Y-57244630D03*
%TO.N,39*%
X143560800Y-60960000D03*
%TO.N,38*%
X140970000Y-64516000D03*
%TO.N,37*%
X138430000Y-62687200D03*
%TO.N,/EG1*%
X182634869Y-58179500D03*
X144475200Y-58380897D03*
%TO.N,/EG0*%
X182930800Y-67310000D03*
X144475200Y-59334400D03*
X182585389Y-58907132D03*
%TO.N,CS_E*%
X203454000Y-76774500D03*
X142300000Y-78380000D03*
%TO.N,34*%
X133029500Y-74102972D03*
%TO.N,35*%
X139130690Y-75186766D03*
%TO.N,43*%
X153670000Y-67259200D03*
%TO.N,/FH0*%
X162448300Y-61092022D03*
X164189535Y-81069001D03*
%TO.N,/FH1*%
X160223200Y-63855600D03*
X158486828Y-80772770D03*
%TO.N,FI*%
X160842900Y-75148845D03*
%TO.N,FJ*%
X164230000Y-71710000D03*
X162143500Y-76265411D03*
%TO.N,47*%
X163890786Y-70485000D03*
%TO.N,46*%
X160976953Y-69096247D03*
%TO.N,45*%
X158699200Y-67259200D03*
%TO.N,44*%
X156260800Y-67310000D03*
%TO.N,/FG1*%
X180594000Y-73050400D03*
X148183600Y-73609200D03*
%TO.N,/FG0*%
X148893822Y-73818604D03*
X180695600Y-74107900D03*
%TO.N,CS_F*%
X203218599Y-59684983D03*
X147498482Y-59367426D03*
%TO.N,41*%
X148590000Y-64516000D03*
%TO.N,42*%
X151180800Y-65684400D03*
%TO.N,50*%
X171450000Y-58775600D03*
%TO.N,54*%
X181610000Y-74574400D03*
%TO.N,53*%
X179019200Y-69900800D03*
%TO.N,52*%
X176621500Y-68478400D03*
%TO.N,51*%
X173990000Y-66473801D03*
%TO.N,GJ*%
X167350000Y-73720000D03*
X165912800Y-78794605D03*
%TO.N,GI*%
X164947600Y-78794605D03*
X166170000Y-72110999D03*
%TO.N,CS_G*%
X168987702Y-57641729D03*
X170019973Y-46207553D03*
%TO.N,48*%
X166319200Y-60960000D03*
%TO.N,49*%
X168910000Y-64414400D03*
%TO.N,57*%
X190703200Y-73761600D03*
%TO.N,HI*%
X199710000Y-78600000D03*
%TO.N,HJ*%
X198250922Y-78610922D03*
%TO.N,61_jumper*%
X187990000Y-81500000D03*
X185572400Y-78181200D03*
%TO.N,60*%
X196807089Y-65539889D03*
%TO.N,59*%
X194199687Y-66793287D03*
%TO.N,58*%
X191770000Y-66243200D03*
%TO.N,CS_H*%
X203587004Y-62230000D03*
%TO.N,55*%
X188569600Y-74884695D03*
%TO.N,56*%
X189803912Y-74335512D03*
%TO.N,GND2*%
X162930269Y-81069001D03*
X162280000Y-30250000D03*
X163322000Y-54813200D03*
X161848800Y-56794400D03*
%TO.N,Pos_Top*%
X158550000Y-32020000D03*
X140665200Y-30734000D03*
X202539600Y-54508400D03*
X202119611Y-35689213D03*
X201038889Y-32333289D03*
X170520000Y-32030000D03*
%TO.N,Pos_Bottom*%
X145288000Y-77317600D03*
X158013400Y-77632386D03*
X204317600Y-60960000D03*
%TO.N,Bottom_LEDs*%
X178358800Y-56388000D03*
%TO.N,Top_LEDs*%
X175056800Y-54610000D03*
X202692000Y-57607200D03*
%TO.N,Neg_Top*%
X167520000Y-34530000D03*
X165080000Y-30150000D03*
X162550000Y-34540000D03*
%TO.N,1*%
X128200000Y-34380000D03*
%TO.N,29*%
X202143300Y-31028700D03*
%TO.N,Neg_Bottom*%
X169926000Y-79756000D03*
X178840000Y-79660000D03*
X160869401Y-79988422D03*
%TO.N,33*%
X185400000Y-81500000D03*
X129686690Y-74734513D03*
%TO.N,61*%
X196392800Y-73609200D03*
X190280000Y-81500000D03*
%TD*%
D14*
%TO.N,4*%
X135890000Y-42519600D02*
X135890000Y-46990000D01*
%TO.N,8*%
X146050000Y-46990000D02*
X146100800Y-46939200D01*
X146100800Y-36931600D02*
X145542000Y-36372800D01*
X146100800Y-46939200D02*
X146100800Y-36931600D01*
%TO.N,7*%
X143510000Y-46990000D02*
X143510000Y-38867300D01*
X143510000Y-38867300D02*
X142443200Y-37800500D01*
%TO.N,6*%
X140970000Y-42113200D02*
X140970000Y-46990000D01*
%TO.N,5*%
X138430000Y-46990000D02*
X138430000Y-47020000D01*
X138430000Y-47020000D02*
X138420000Y-47030000D01*
%TO.N,2*%
X130911600Y-47091600D02*
X130810000Y-46990000D01*
X130911600Y-47599600D02*
X130911600Y-47091600D01*
%TO.N,3*%
X133350000Y-44805600D02*
X133350000Y-46990000D01*
%TO.N,11*%
X153720800Y-46939200D02*
X153670000Y-46990000D01*
X153720800Y-45212000D02*
X153720800Y-46939200D01*
%TO.N,15*%
X163830000Y-46990000D02*
X163779200Y-47040800D01*
X163779200Y-47040800D02*
X163779200Y-50619357D01*
X163779200Y-50619357D02*
X163819900Y-50660057D01*
%TO.N,14*%
X161290000Y-46990000D02*
X161030000Y-46730000D01*
X161030000Y-46730000D02*
X161030000Y-45760000D01*
%TO.N,13*%
X158750000Y-46990000D02*
X158532497Y-46772497D01*
X158532497Y-46772497D02*
X158532497Y-46519950D01*
%TO.N,12*%
X156210000Y-47193200D02*
X156210000Y-46990000D01*
%TO.N,9*%
X148645844Y-40888956D02*
X148645844Y-46934156D01*
X148645844Y-46934156D02*
X148590000Y-46990000D01*
%TO.N,10*%
X151079200Y-41046400D02*
X151079200Y-46939200D01*
X151079200Y-46939200D02*
X151130000Y-46990000D01*
%TO.N,18*%
X171450000Y-44590000D02*
X171620000Y-44420000D01*
X171450000Y-46990000D02*
X171450000Y-44590000D01*
%TO.N,22*%
X181610000Y-47599600D02*
X181610000Y-46990000D01*
%TO.N,21*%
X179070000Y-47904400D02*
X179070000Y-46990000D01*
%TO.N,20*%
X176580800Y-47040800D02*
X176530000Y-46990000D01*
X176580800Y-47447200D02*
X176580800Y-47040800D01*
%TO.N,19*%
X173939200Y-47040800D02*
X173990000Y-46990000D01*
X173939200Y-47701200D02*
X173939200Y-47040800D01*
%TO.N,16*%
X169316400Y-37795200D02*
X167995600Y-37795200D01*
X166370000Y-39420800D02*
X166370000Y-46990000D01*
X167995600Y-37795200D02*
X166370000Y-39420800D01*
%TO.N,17*%
X168910000Y-45923200D02*
X168910000Y-46990000D01*
%TO.N,25*%
X189230000Y-45720000D02*
X189230000Y-46990000D01*
%TO.N,28*%
X196900800Y-47701200D02*
X196900800Y-47040800D01*
X196900800Y-47040800D02*
X196850000Y-46990000D01*
%TO.N,27*%
X194208400Y-47091600D02*
X194310000Y-46990000D01*
X194208400Y-47650400D02*
X194208400Y-47091600D01*
%TO.N,26*%
X191922400Y-53035200D02*
X191770000Y-52882800D01*
X191770000Y-52882800D02*
X191770000Y-46990000D01*
%TO.N,23*%
X184150000Y-40436800D02*
X187062424Y-37524376D01*
X187062424Y-37524376D02*
X189155309Y-37524376D01*
X184150000Y-46990000D02*
X184150000Y-40436800D01*
%TO.N,24*%
X189376500Y-39624000D02*
X190900500Y-38100000D01*
X186690000Y-40944800D02*
X188010800Y-39624000D01*
X188010800Y-39624000D02*
X189376500Y-39624000D01*
X186690000Y-46990000D02*
X186690000Y-40944800D01*
%TO.N,36*%
X135890000Y-64770000D02*
X135890000Y-72006447D01*
X135890000Y-72006447D02*
X134970500Y-72925947D01*
%TO.N,40*%
X146050000Y-58166000D02*
X144744000Y-56860000D01*
X131517823Y-56860000D02*
X131133193Y-57244630D01*
X144744000Y-56860000D02*
X131517823Y-56860000D01*
X146050000Y-64770000D02*
X146050000Y-58166000D01*
%TO.N,39*%
X143560800Y-60960000D02*
X143560800Y-64719200D01*
X143560800Y-64719200D02*
X143510000Y-64770000D01*
%TO.N,38*%
X140970000Y-64516000D02*
X140970000Y-64770000D01*
%TO.N,37*%
X138430000Y-62687200D02*
X138430000Y-64770000D01*
%TO.N,34*%
X130810000Y-71932800D02*
X132980172Y-74102972D01*
X132980172Y-74102972D02*
X133029500Y-74102972D01*
X130810000Y-64770000D02*
X130810000Y-71932800D01*
%TO.N,35*%
X139077124Y-75133200D02*
X139130690Y-75186766D01*
X133350000Y-64770000D02*
X133350000Y-72694800D01*
X135788400Y-75133200D02*
X139077124Y-75133200D01*
X133350000Y-72694800D02*
X135788400Y-75133200D01*
%TO.N,43*%
X153670000Y-67259200D02*
X153670000Y-64770000D01*
%TO.N,47*%
X163830000Y-70424214D02*
X163830000Y-64770000D01*
X163890786Y-70485000D02*
X163830000Y-70424214D01*
%TO.N,46*%
X161239200Y-64820800D02*
X161239200Y-68834000D01*
X161290000Y-64770000D02*
X161239200Y-64820800D01*
X161239200Y-68834000D02*
X160976953Y-69096247D01*
%TO.N,45*%
X158699200Y-64820800D02*
X158750000Y-64770000D01*
X158699200Y-67259200D02*
X158699200Y-64820800D01*
%TO.N,44*%
X156260800Y-64820800D02*
X156210000Y-64770000D01*
X156260800Y-67310000D02*
X156260800Y-64820800D01*
%TO.N,41*%
X148590000Y-64516000D02*
X148590000Y-64770000D01*
%TO.N,42*%
X151180800Y-65684400D02*
X151180800Y-64820800D01*
X151180800Y-64820800D02*
X151130000Y-64770000D01*
%TO.N,50*%
X171450000Y-58775600D02*
X171450000Y-64770000D01*
%TO.N,54*%
X181610000Y-74574400D02*
X181610000Y-64770000D01*
%TO.N,53*%
X179019200Y-69900800D02*
X179019200Y-64820800D01*
X179019200Y-64820800D02*
X179070000Y-64770000D01*
%TO.N,52*%
X176530000Y-64770000D02*
X176530000Y-68386900D01*
X176530000Y-68386900D02*
X176621500Y-68478400D01*
%TO.N,51*%
X173990000Y-66473801D02*
X173990000Y-64770000D01*
%TO.N,48*%
X166370000Y-61010800D02*
X166370000Y-64770000D01*
X166319200Y-60960000D02*
X166370000Y-61010800D01*
%TO.N,49*%
X168910000Y-64414400D02*
X168910000Y-64770000D01*
%TO.N,57*%
X190703200Y-73761600D02*
X189230000Y-72288400D01*
X189230000Y-72288400D02*
X189230000Y-64770000D01*
%TO.N,60*%
X196850000Y-65496978D02*
X196807089Y-65539889D01*
X196850000Y-64770000D02*
X196850000Y-65496978D01*
%TO.N,59*%
X194310000Y-64770000D02*
X194310000Y-66682974D01*
X194310000Y-66682974D02*
X194199687Y-66793287D01*
%TO.N,58*%
X191770000Y-66243200D02*
X191770000Y-64770000D01*
%TO.N,55*%
X184150000Y-64770000D02*
X184150000Y-73253600D01*
X184150000Y-73253600D02*
X185781095Y-74884695D01*
X185781095Y-74884695D02*
X188569600Y-74884695D01*
%TO.N,56*%
X186690000Y-64770000D02*
X186690000Y-72157273D01*
X188868239Y-74335512D02*
X189803912Y-74335512D01*
X186690000Y-72157273D02*
X188868239Y-74335512D01*
%TO.N,GND2*%
X163322000Y-54813200D02*
X161848800Y-56286400D01*
X161848800Y-56286400D02*
X161848800Y-56794400D01*
%TO.N,Pos_Top*%
X165074000Y-32030000D02*
X165100000Y-32004000D01*
X202539600Y-54508400D02*
X204571600Y-54508400D01*
X140665200Y-30734000D02*
X141961200Y-32030000D01*
X201450000Y-34045472D02*
X201450000Y-35019602D01*
X201379699Y-32674099D02*
X201379699Y-33975171D01*
X204571600Y-54508400D02*
X205740000Y-53340000D01*
X165084000Y-32020000D02*
X165100000Y-32004000D01*
X165100000Y-32004000D02*
X170494000Y-32004000D01*
X170494000Y-32004000D02*
X170520000Y-32030000D01*
X201379699Y-33975171D02*
X201450000Y-34045472D01*
X141961200Y-32030000D02*
X165074000Y-32030000D01*
X170520000Y-32030000D02*
X200735600Y-32030000D01*
X200735600Y-32030000D02*
X201379699Y-32674099D01*
X201379699Y-32674099D02*
X201038889Y-32333289D01*
X158550000Y-32020000D02*
X165084000Y-32020000D01*
X201450000Y-35019602D02*
X202119611Y-35689213D01*
%TO.N,Pos_Bottom*%
X200660000Y-77216000D02*
X204266800Y-73609200D01*
X158013400Y-77632386D02*
X158429786Y-77216000D01*
X204266800Y-61010800D02*
X204317600Y-60960000D01*
X204266800Y-73609200D02*
X204266800Y-61010800D01*
X145288000Y-77317600D02*
X164998400Y-77317600D01*
X165100000Y-77216000D02*
X200660000Y-77216000D01*
X164998400Y-77317600D02*
X165100000Y-77216000D01*
X158429786Y-77216000D02*
X165100000Y-77216000D01*
%TO.N,Top_LEDs*%
X205740000Y-60960000D02*
X205740000Y-60299600D01*
X203047600Y-57607200D02*
X202692000Y-57607200D01*
X205740000Y-60299600D02*
X203047600Y-57607200D01*
%TO.N,Neg_Top*%
X162554000Y-34544000D02*
X162550000Y-34540000D01*
X165100000Y-34544000D02*
X162554000Y-34544000D01*
X165114000Y-34530000D02*
X167520000Y-34530000D01*
X165100000Y-34544000D02*
X165114000Y-34530000D01*
%TO.N,1*%
X128270000Y-34450000D02*
X128200000Y-34380000D01*
X128270000Y-46990000D02*
X128270000Y-34450000D01*
%TO.N,29*%
X202895200Y-35915600D02*
X202895200Y-35445200D01*
X200558400Y-36372800D02*
X202438000Y-36372800D01*
X199869500Y-38331678D02*
X199390000Y-37852178D01*
X199390000Y-39327822D02*
X199869500Y-38848322D01*
X201949501Y-34499501D02*
X201949501Y-33838571D01*
X199869500Y-38848322D02*
X199869500Y-38331678D01*
X199390000Y-46990000D02*
X199390000Y-39327822D01*
X201949501Y-33838571D02*
X201879200Y-33768270D01*
X202438000Y-36372800D02*
X202895200Y-35915600D01*
X199390000Y-37541200D02*
X200558400Y-36372800D01*
X201879200Y-33768270D02*
X201879200Y-31292800D01*
X199390000Y-37852178D02*
X199390000Y-37541200D01*
X201879200Y-31292800D02*
X202143300Y-31028700D01*
X202895200Y-35445200D02*
X201949501Y-34499501D01*
%TO.N,Neg_Bottom*%
X165100000Y-79756000D02*
X161101823Y-79756000D01*
X161101823Y-79756000D02*
X160869401Y-79988422D01*
X169926000Y-79756000D02*
X165100000Y-79756000D01*
%TO.N,33*%
X128270000Y-64770000D02*
X128270000Y-73317823D01*
X128270000Y-73317823D02*
X129686690Y-74734513D01*
%TO.N,61*%
X199390000Y-71577200D02*
X199390000Y-64770000D01*
X198069200Y-72898000D02*
X199390000Y-71577200D01*
X196392800Y-73609200D02*
X197104000Y-72898000D01*
X197104000Y-72898000D02*
X198069200Y-72898000D01*
%TD*%
M02*
