%TF.GenerationSoftware,KiCad,Pcbnew,(6.0.6-0)*%
%TF.CreationDate,2022-07-26T09:11:42-07:00*%
%TF.ProjectId,MTMatrixV3,4d544d61-7472-4697-9856-332e6b696361,rev?*%
%TF.SameCoordinates,Original*%
%TF.FileFunction,Soldermask,Top*%
%TF.FilePolarity,Negative*%
%FSLAX46Y46*%
G04 Gerber Fmt 4.6, Leading zero omitted, Abs format (unit mm)*
G04 Created by KiCad (PCBNEW (6.0.6-0)) date 2022-07-26 09:11:42*
%MOMM*%
%LPD*%
G01*
G04 APERTURE LIST*
G04 Aperture macros list*
%AMRoundRect*
0 Rectangle with rounded corners*
0 $1 Rounding radius*
0 $2 $3 $4 $5 $6 $7 $8 $9 X,Y pos of 4 corners*
0 Add a 4 corners polygon primitive as box body*
4,1,4,$2,$3,$4,$5,$6,$7,$8,$9,$2,$3,0*
0 Add four circle primitives for the rounded corners*
1,1,$1+$1,$2,$3*
1,1,$1+$1,$4,$5*
1,1,$1+$1,$6,$7*
1,1,$1+$1,$8,$9*
0 Add four rect primitives between the rounded corners*
20,1,$1+$1,$2,$3,$4,$5,0*
20,1,$1+$1,$4,$5,$6,$7,0*
20,1,$1+$1,$6,$7,$8,$9,0*
20,1,$1+$1,$8,$9,$2,$3,0*%
G04 Aperture macros list end*
%ADD10RoundRect,0.700000X0.000000X-0.150000X0.000000X-0.150000X0.000000X0.150000X0.000000X0.150000X0*%
%ADD11RoundRect,0.250000X-35.750000X-0.250000X35.750000X-0.250000X35.750000X0.250000X-35.750000X0.250000X0*%
%ADD12RoundRect,0.250000X0.250000X-6.250000X0.250000X6.250000X-0.250000X6.250000X-0.250000X-6.250000X0*%
%ADD13O,1.800000X2.400000*%
G04 APERTURE END LIST*
D10*
%TO.C,J1*%
X124460000Y-30480000D03*
X124460000Y-33020000D03*
X124460000Y-35560000D03*
X124460000Y-38100000D03*
X124460000Y-40640000D03*
X124460000Y-43180000D03*
X124460000Y-45720000D03*
X124460000Y-48260000D03*
X124460000Y-50800000D03*
X124460000Y-53340000D03*
X124460000Y-55880000D03*
X124460000Y-58420000D03*
X124460000Y-60960000D03*
X124460000Y-63500000D03*
X124460000Y-66040000D03*
X124460000Y-68580000D03*
X124460000Y-71120000D03*
X124460000Y-73660000D03*
X124460000Y-76200000D03*
X124460000Y-78740000D03*
X124460000Y-81280000D03*
%TD*%
D11*
%TO.C,J3*%
X165100000Y-34544000D03*
D12*
X128270000Y-46990000D03*
X130810000Y-46990000D03*
X133350000Y-46990000D03*
X135890000Y-46990000D03*
X138430000Y-46990000D03*
X140970000Y-46990000D03*
X143510000Y-46990000D03*
X146050000Y-46990000D03*
X148590000Y-46990000D03*
X151130000Y-46990000D03*
X153670000Y-46990000D03*
X156210000Y-46990000D03*
X158750000Y-46990000D03*
X161290000Y-46990000D03*
X163830000Y-46990000D03*
X166370000Y-46990000D03*
X168910000Y-46990000D03*
X171450000Y-46990000D03*
X173990000Y-46990000D03*
X176530000Y-46990000D03*
X179070000Y-46990000D03*
X181610000Y-46990000D03*
X184150000Y-46990000D03*
X186690000Y-46990000D03*
X189230000Y-46990000D03*
X191770000Y-46990000D03*
X194310000Y-46990000D03*
X196850000Y-46990000D03*
X199390000Y-46990000D03*
X201930000Y-46990000D03*
D11*
X165100000Y-32004000D03*
X165100000Y-79756000D03*
D12*
X128270000Y-64770000D03*
X130810000Y-64770000D03*
X133350000Y-64770000D03*
X135890000Y-64770000D03*
X138430000Y-64770000D03*
X140970000Y-64770000D03*
X143510000Y-64770000D03*
X146050000Y-64770000D03*
X148590000Y-64770000D03*
X151130000Y-64770000D03*
X153670000Y-64770000D03*
X156210000Y-64770000D03*
X158750000Y-64770000D03*
X161290000Y-64770000D03*
X163830000Y-64770000D03*
X166370000Y-64770000D03*
X168910000Y-64770000D03*
X171450000Y-64770000D03*
X173990000Y-64770000D03*
X176530000Y-64770000D03*
X179070000Y-64770000D03*
X181610000Y-64770000D03*
X184150000Y-64770000D03*
X186690000Y-64770000D03*
X189230000Y-64770000D03*
X191770000Y-64770000D03*
X194310000Y-64770000D03*
X196850000Y-64770000D03*
X199390000Y-64770000D03*
X201930000Y-64770000D03*
D11*
X165100000Y-77216000D03*
%TD*%
D10*
%TO.C,J2*%
X205740000Y-30480000D03*
X205740000Y-33020000D03*
X205740000Y-35560000D03*
X205740000Y-38100000D03*
X205740000Y-40640000D03*
X205740000Y-43180000D03*
X205740000Y-45720000D03*
X205740000Y-48260000D03*
X205740000Y-50800000D03*
X205740000Y-53340000D03*
X205740000Y-55880000D03*
X205740000Y-58420000D03*
X205740000Y-60960000D03*
X205740000Y-63500000D03*
X205740000Y-66040000D03*
X205740000Y-68580000D03*
X205740000Y-71120000D03*
X205740000Y-73660000D03*
X205740000Y-76200000D03*
X205740000Y-78740000D03*
X205740000Y-81280000D03*
%TD*%
D13*
%TO.C,D7*%
X153670000Y-81280000D03*
%TD*%
%TO.C,D6*%
X176530000Y-81280000D03*
%TD*%
%TO.C,D2*%
X176530000Y-30480000D03*
%TD*%
%TO.C,D4*%
X130810000Y-30480000D03*
%TD*%
%TO.C,D8*%
X130810000Y-81280000D03*
%TD*%
%TO.C,D3*%
X153670000Y-30480000D03*
%TD*%
%TO.C,D5*%
X199390000Y-81280000D03*
%TD*%
%TO.C,D1*%
X199390000Y-30480000D03*
%TD*%
M02*
