%TF.GenerationSoftware,KiCad,Pcbnew,(5.1.7-0-10_14)*%
%TF.CreationDate,2021-01-27T15:42:45+08:00*%
%TF.ProjectId,BreadControl,42726561-6443-46f6-9e74-726f6c2e6b69,rev?*%
%TF.SameCoordinates,Original*%
%TF.FileFunction,Copper,L2,Bot*%
%TF.FilePolarity,Positive*%
%FSLAX46Y46*%
G04 Gerber Fmt 4.6, Leading zero omitted, Abs format (unit mm)*
G04 Created by KiCad (PCBNEW (5.1.7-0-10_14)) date 2021-01-27 15:42:45*
%MOMM*%
%LPD*%
G01*
G04 APERTURE LIST*
%TA.AperFunction,ComponentPad*%
%ADD10C,1.575000*%
%TD*%
%TA.AperFunction,ComponentPad*%
%ADD11R,1.575000X1.575000*%
%TD*%
%TA.AperFunction,ComponentPad*%
%ADD12O,1.700000X1.700000*%
%TD*%
%TA.AperFunction,ComponentPad*%
%ADD13R,1.700000X1.700000*%
%TD*%
%TA.AperFunction,ViaPad*%
%ADD14C,0.800000*%
%TD*%
%TA.AperFunction,Conductor*%
%ADD15C,0.250000*%
%TD*%
%TA.AperFunction,Conductor*%
%ADD16C,0.381000*%
%TD*%
%TA.AperFunction,Conductor*%
%ADD17C,0.254000*%
%TD*%
%TA.AperFunction,Conductor*%
%ADD18C,0.100000*%
%TD*%
G04 APERTURE END LIST*
D10*
%TO.P,PS1,6*%
%TO.N,+9V*%
X114935000Y-43815000D03*
%TO.P,PS1,5*%
%TO.N,GND*%
X117475000Y-43815000D03*
%TO.P,PS1,4*%
%TO.N,-9V*%
X120015000Y-43815000D03*
%TO.P,PS1,2*%
%TO.N,GND*%
X125095000Y-43815000D03*
D11*
%TO.P,PS1,1*%
%TO.N,+5V*%
X127635000Y-43815000D03*
%TD*%
D12*
%TO.P,J3,3*%
%TO.N,Net-(J3-Pad3)*%
X88265000Y-30480000D03*
%TO.P,J3,2*%
%TO.N,GND*%
X90805000Y-30480000D03*
D13*
%TO.P,J3,1*%
%TO.N,+5V*%
X93345000Y-30480000D03*
%TD*%
D12*
%TO.P,J2,16*%
%TO.N,56*%
X142240000Y-76835000D03*
%TO.P,J2,15*%
%TO.N,48*%
X142240000Y-74295000D03*
%TO.P,J2,14*%
%TO.N,40*%
X142240000Y-71755000D03*
%TO.P,J2,13*%
%TO.N,32*%
X142240000Y-69215000D03*
%TO.P,J2,12*%
%TO.N,24*%
X142240000Y-66675000D03*
%TO.P,J2,11*%
%TO.N,16*%
X142240000Y-64135000D03*
%TO.P,J2,10*%
%TO.N,8*%
X142240000Y-61595000D03*
%TO.P,J2,9*%
%TO.N,0*%
X142240000Y-59055000D03*
%TO.P,J2,8*%
%TO.N,CS_H*%
X142240000Y-56515000D03*
%TO.P,J2,7*%
%TO.N,CS_G*%
X142240000Y-53975000D03*
%TO.P,J2,6*%
%TO.N,CS_F*%
X142240000Y-51435000D03*
%TO.P,J2,5*%
%TO.N,CS_E*%
X142240000Y-48895000D03*
%TO.P,J2,4*%
%TO.N,CS_D*%
X142240000Y-46355000D03*
%TO.P,J2,3*%
%TO.N,CS_C*%
X142240000Y-43815000D03*
%TO.P,J2,2*%
%TO.N,CS_B*%
X142240000Y-41275000D03*
D13*
%TO.P,J2,1*%
%TO.N,CS_A*%
X142240000Y-38735000D03*
%TD*%
D12*
%TO.P,J1,16*%
%TO.N,63*%
X38100000Y-76835000D03*
%TO.P,J1,15*%
%TO.N,31*%
X38100000Y-74295000D03*
%TO.P,J1,14*%
%TO.N,1*%
X38100000Y-71755000D03*
%TO.P,J1,13*%
%TO.N,-9V*%
X38100000Y-69215000D03*
%TO.P,J1,12*%
%TO.N,GND*%
X38100000Y-66675000D03*
%TO.P,J1,11*%
%TO.N,+9V*%
X38100000Y-64135000D03*
%TO.P,J1,10*%
%TO.N,STROBE*%
X38100000Y-61595000D03*
%TO.P,J1,9*%
%TO.N,RESET*%
X38100000Y-59055000D03*
%TO.P,J1,8*%
%TO.N,DATA*%
X38100000Y-56515000D03*
%TO.P,J1,7*%
%TO.N,AY2*%
X38100000Y-53975000D03*
%TO.P,J1,6*%
%TO.N,AY1*%
X38100000Y-51435000D03*
%TO.P,J1,5*%
%TO.N,AY0*%
X38100000Y-48895000D03*
%TO.P,J1,4*%
%TO.N,AX3*%
X38100000Y-46355000D03*
%TO.P,J1,3*%
%TO.N,AX2*%
X38100000Y-43815000D03*
%TO.P,J1,2*%
%TO.N,AX1*%
X38100000Y-41275000D03*
D13*
%TO.P,J1,1*%
%TO.N,AX0*%
X38100000Y-38735000D03*
%TD*%
D14*
%TO.N,GND*%
X114173000Y-76708000D03*
X133350000Y-77470000D03*
X102239660Y-62012990D03*
X55245000Y-77597000D03*
X90678000Y-76835000D03*
X85979000Y-74930000D03*
X81153000Y-77978000D03*
X61595000Y-68580000D03*
X58217996Y-65735023D03*
X123190000Y-71501000D03*
X130298301Y-76581377D03*
X101346000Y-80518000D03*
X93980000Y-77724000D03*
X117648475Y-78024475D03*
X76200000Y-36068000D03*
X46025000Y-39319000D03*
%TO.N,ZXLD1_VOUT*%
X112395000Y-80899000D03*
X88138000Y-59182000D03*
%TO.N,ZXLD1_EN*%
X108077000Y-83947000D03*
X62376900Y-71156990D03*
%TO.N,ZXLD2_VOUT*%
X87122000Y-57912000D03*
X128016000Y-82169000D03*
%TO.N,ZXLD2_EN*%
X61004342Y-71156990D03*
X129300032Y-76439991D03*
%TO.N,-9V*%
X76895538Y-79759989D03*
%TO.N,+9V*%
X78355965Y-79479558D03*
%TO.N,STROBE*%
X94615000Y-52578000D03*
X65978252Y-58472429D03*
X53282935Y-67715817D03*
%TO.N,RESET*%
X67437000Y-66802000D03*
X74458990Y-66421000D03*
X63337774Y-66981892D03*
X53782009Y-68582391D03*
X92802428Y-71339428D03*
%TO.N,DATA*%
X62320010Y-66989448D03*
X52918015Y-69085901D03*
X79607134Y-75571341D03*
%TO.N,AY2*%
X90932000Y-72390000D03*
X56482132Y-67225809D03*
%TO.N,AY1*%
X57270376Y-58925304D03*
%TO.N,AY0*%
X58205897Y-58298820D03*
%TO.N,AX3*%
X88773000Y-79411990D03*
X56515000Y-66167000D03*
%TO.N,AX2*%
X58583990Y-57373040D03*
%TO.N,AX1*%
X58084105Y-56506935D03*
%TO.N,AX0*%
X93222660Y-75061660D03*
X55604726Y-65545302D03*
%TO.N,56*%
X133731004Y-65532000D03*
%TO.N,48*%
X135255000Y-65786000D03*
%TO.N,40*%
X95885000Y-51689000D03*
X124581635Y-60898087D03*
%TO.N,32*%
X92075000Y-53303010D03*
X125933248Y-61623097D03*
%TO.N,24*%
X128778000Y-66421000D03*
X125522180Y-64474760D03*
X93599000Y-61849000D03*
%TO.N,16*%
X128796268Y-65335011D03*
X124587000Y-62929118D03*
X91567000Y-61468000D03*
%TO.N,8*%
X91440000Y-59944000D03*
X122555000Y-60960000D03*
X128397000Y-63881000D03*
%TO.N,0*%
X90551000Y-57367010D03*
X121678310Y-60448076D03*
%TO.N,CS_H*%
X138049000Y-58166000D03*
%TO.N,CS_G*%
X136779000Y-57912000D03*
%TO.N,CS_F*%
X135081392Y-57748010D03*
%TO.N,CS_E*%
X133622115Y-58198021D03*
%TO.N,CS_D*%
X132588000Y-58648032D03*
%TO.N,CS_C*%
X131297048Y-59098043D03*
%TO.N,CS_B*%
X130214409Y-59548054D03*
%TO.N,CS_A*%
X128524000Y-59998065D03*
%TO.N,Net-(J3-Pad3)*%
X57016408Y-61246110D03*
%TO.N,+5V*%
X126492000Y-72390000D03*
X114300000Y-72390000D03*
X63373000Y-37338000D03*
X65531990Y-37338000D03*
X101854000Y-64479010D03*
X55372000Y-37719000D03*
X100292176Y-72799504D03*
X52070000Y-74168000D03*
X58081300Y-69635763D03*
X58801000Y-47879000D03*
X56351522Y-64210012D03*
%TO.N,I2C_SCL*%
X56070397Y-69639801D03*
X83043974Y-76385974D03*
X62417068Y-56444215D03*
%TO.N,I2C_SDA*%
X83942530Y-77394976D03*
X55089340Y-69442171D03*
X62992000Y-55626000D03*
%TO.N,ZXLD1_SENSE*%
X114808000Y-83947000D03*
X59735939Y-71654156D03*
%TO.N,X0_ADC*%
X79756000Y-61595000D03*
X77216000Y-60579000D03*
%TO.N,X1_ADC*%
X81153000Y-59817000D03*
X77216000Y-58293000D03*
%TO.N,ZXLD2_SENSE*%
X58801000Y-72009000D03*
X131064000Y-83058000D03*
%TO.N,USB_Tx*%
X52468011Y-66969295D03*
X65786000Y-40640000D03*
%TO.N,USB_Rx*%
X52705000Y-65532000D03*
X66421000Y-42389490D03*
%TO.N,CS_I*%
X55355202Y-73326460D03*
X77055383Y-78178977D03*
%TO.N,PF1*%
X96393000Y-54991000D03*
X63394669Y-61320435D03*
%TO.N,PF0*%
X95631000Y-56642000D03*
X65252103Y-60831405D03*
%TD*%
D15*
%TO.N,*%
X83439000Y-42265600D02*
X83515200Y-42189400D01*
X84201000Y-42570400D02*
X84201000Y-42189400D01*
X87579200Y-41325800D02*
X87452200Y-41452800D01*
X87401400Y-42189400D02*
X87401400Y-42392600D01*
X86944200Y-42494200D02*
X86944200Y-42189400D01*
X87071200Y-42621200D02*
X86969600Y-42519600D01*
X85801200Y-42316400D02*
X85801200Y-42367200D01*
X85801200Y-42367200D02*
X85521800Y-42646600D01*
X85801200Y-42316400D02*
X85902800Y-42418000D01*
X85598000Y-42113200D02*
X85801200Y-42316400D01*
X86283800Y-42189400D02*
X86436200Y-42189400D01*
X86563200Y-42316400D02*
X86563200Y-42545000D01*
X86563200Y-42545000D02*
X86487000Y-42621200D01*
X86436200Y-42189400D02*
X86563200Y-42316400D01*
X86487000Y-42621200D02*
X86283800Y-42621200D01*
X83439000Y-42316400D02*
X83439000Y-42265600D01*
X87401400Y-42392600D02*
X87401400Y-42494200D01*
X83845400Y-42291000D02*
X83845400Y-42519600D01*
X83515200Y-42189400D02*
X83743800Y-42189400D01*
X83693000Y-42316400D02*
X83439000Y-42316400D01*
X83515200Y-42595800D02*
X83489800Y-42595800D01*
X87833200Y-41325800D02*
X87579200Y-41325800D01*
X87401400Y-42494200D02*
X87299800Y-42595800D01*
X88036400Y-42113200D02*
X87757000Y-42113200D01*
X88036400Y-42113200D02*
X88036400Y-41706800D01*
X88036400Y-41529000D02*
X87833200Y-41325800D01*
X88036400Y-42595800D02*
X88036400Y-42113200D01*
X87299800Y-42595800D02*
X87274400Y-42621200D01*
X82727800Y-42468800D02*
X82727800Y-42570400D01*
X83058000Y-42265600D02*
X82905600Y-42418000D01*
X87274400Y-42621200D02*
X87071200Y-42621200D01*
X82727800Y-42164000D02*
X82956400Y-42164000D01*
X82727800Y-42570400D02*
X82778600Y-42621200D01*
X82956400Y-42164000D02*
X83058000Y-42265600D01*
X82905600Y-42418000D02*
X82778600Y-42418000D01*
X82778600Y-42621200D02*
X83083400Y-42621200D01*
X82778600Y-42418000D02*
X82727800Y-42468800D01*
X85902800Y-42621200D02*
X85902800Y-41503600D01*
X85902800Y-42418000D02*
X85902800Y-42621200D01*
X88036400Y-42113200D02*
X88239600Y-42113200D01*
X83845400Y-42519600D02*
X83769200Y-42595800D01*
X83769200Y-42595800D02*
X83515200Y-42595800D01*
X84709000Y-42189400D02*
X84709000Y-42418000D01*
X84734400Y-42926000D02*
X84734400Y-42900600D01*
X84328000Y-43002200D02*
X84658200Y-43002200D01*
X84658200Y-43002200D02*
X84734400Y-42926000D01*
X84709000Y-42418000D02*
X84556600Y-42570400D01*
X84556600Y-42570400D02*
X84201000Y-42570400D01*
X84201000Y-42570400D02*
X84201000Y-42875200D01*
X84201000Y-42875200D02*
X84328000Y-43002200D01*
X83743800Y-42189400D02*
X83845400Y-42291000D01*
X86969600Y-42519600D02*
X86944200Y-42494200D01*
X88036400Y-41706800D02*
X88036400Y-41529000D01*
D16*
%TO.N,GND*%
X38100000Y-66675000D02*
X48895000Y-77470000D01*
X48895000Y-77470000D02*
X49022000Y-77597000D01*
X49022000Y-77597000D02*
X55245000Y-77597000D01*
X126723750Y-45443750D02*
X126723750Y-62002539D01*
X102365278Y-62138608D02*
X102239660Y-62012990D01*
X126723750Y-62002539D02*
X126312690Y-62413599D01*
X125095000Y-43815000D02*
X126723750Y-45443750D01*
X125278815Y-62138608D02*
X102365278Y-62138608D01*
X126312690Y-62413599D02*
X125553806Y-62413599D01*
X125553806Y-62413599D02*
X125278815Y-62138608D01*
D15*
X81153000Y-77978000D02*
X80772000Y-77978000D01*
X80772000Y-77978000D02*
X71882000Y-69088000D01*
X71882000Y-69088000D02*
X62103000Y-69088000D01*
X62103000Y-69088000D02*
X61595000Y-68580000D01*
D16*
X126312690Y-68378310D02*
X123190000Y-71501000D01*
X126312690Y-62413599D02*
X126312690Y-68378310D01*
X101346000Y-80518000D02*
X98679000Y-77851000D01*
X94107000Y-77851000D02*
X93980000Y-77724000D01*
X98679000Y-77851000D02*
X94107000Y-77851000D01*
X131186924Y-77470000D02*
X130298301Y-76581377D01*
X133350000Y-77470000D02*
X131186924Y-77470000D01*
X114173000Y-76708000D02*
X115489475Y-78024475D01*
X115489475Y-78024475D02*
X117648475Y-78024475D01*
X76200000Y-36068000D02*
X55499000Y-36068000D01*
X55499000Y-36068000D02*
X53975000Y-37592000D01*
X47752000Y-37592000D02*
X46025000Y-39319000D01*
X53975000Y-37592000D02*
X47752000Y-37592000D01*
X88773000Y-74930000D02*
X90678000Y-76835000D01*
X85979000Y-74930000D02*
X88773000Y-74930000D01*
X71945500Y-69151500D02*
X71882000Y-69151500D01*
X80772000Y-77978000D02*
X71945500Y-69151500D01*
X62166500Y-69151500D02*
X61595000Y-68580000D01*
X71945500Y-69151500D02*
X62166500Y-69151500D01*
X58750023Y-65735023D02*
X58217996Y-65735023D01*
X61595000Y-68580000D02*
X58750023Y-65735023D01*
X92583000Y-32258000D02*
X90805000Y-30480000D01*
X113538000Y-32258000D02*
X92583000Y-32258000D01*
X125095000Y-43815000D02*
X113538000Y-32258000D01*
X123571000Y-42291000D02*
X118999000Y-42291000D01*
X118999000Y-42291000D02*
X117475000Y-43815000D01*
X125095000Y-43815000D02*
X123571000Y-42291000D01*
%TO.N,ZXLD1_VOUT*%
X88138000Y-61850892D02*
X88138000Y-59182000D01*
X112395000Y-80899000D02*
X107186108Y-80899000D01*
X107186108Y-80899000D02*
X88138000Y-61850892D01*
D15*
%TO.N,ZXLD1_EN*%
X108077000Y-83947000D02*
X85121548Y-83947000D01*
X85121548Y-83947000D02*
X72331538Y-71156990D01*
X72331538Y-71156990D02*
X62376900Y-71156990D01*
D16*
%TO.N,ZXLD2_VOUT*%
X105377042Y-82169000D02*
X128016000Y-82169000D01*
X87122000Y-57912000D02*
X87122000Y-63913958D01*
X87122000Y-63913958D02*
X105377042Y-82169000D01*
D15*
%TO.N,ZXLD2_EN*%
X72242946Y-70431988D02*
X84868958Y-83058000D01*
X128524000Y-83058000D02*
X129300032Y-82281968D01*
X84868958Y-83058000D02*
X128524000Y-83058000D01*
X61729344Y-70431988D02*
X72242946Y-70431988D01*
X129300032Y-82281968D02*
X129300032Y-76439991D01*
X61004342Y-71156990D02*
X61729344Y-70431988D01*
D16*
%TO.N,-9V*%
X38100000Y-69215000D02*
X48644989Y-79759989D01*
X48644989Y-79759989D02*
X76895538Y-79759989D01*
%TO.N,+9V*%
X38100000Y-64135000D02*
X50771498Y-76806498D01*
X77845886Y-78969479D02*
X78355965Y-79479558D01*
X74512960Y-76806498D02*
X76675941Y-78969479D01*
X76675941Y-78969479D02*
X77845886Y-78969479D01*
X50771498Y-76806498D02*
X74512960Y-76806498D01*
D15*
%TO.N,STROBE*%
X94615000Y-52578000D02*
X71872681Y-52578000D01*
X71872681Y-52578000D02*
X65978252Y-58472429D01*
X47189991Y-70684991D02*
X53027908Y-70684991D01*
X54509538Y-68229770D02*
X53995585Y-67715817D01*
X53995585Y-67715817D02*
X53282935Y-67715817D01*
X54509538Y-68934776D02*
X54509538Y-68229770D01*
X54195539Y-69248775D02*
X54509538Y-68934776D01*
X54195539Y-69517360D02*
X54195539Y-69248775D01*
X38100000Y-61595000D02*
X47189991Y-70684991D01*
X53027908Y-70684991D02*
X54195539Y-69517360D01*
%TO.N,RESET*%
X63517666Y-66802000D02*
X63337774Y-66981892D01*
X67437000Y-66802000D02*
X63517666Y-66802000D01*
X38100000Y-59055000D02*
X48866771Y-69821771D01*
X48866771Y-69821771D02*
X53254717Y-69821771D01*
X53745528Y-68618872D02*
X53782009Y-68582391D01*
X53254717Y-69821771D02*
X53745528Y-69330960D01*
X53745528Y-69330960D02*
X53745528Y-68618872D01*
X74458990Y-66421000D02*
X87884000Y-66421000D01*
X87884000Y-66421000D02*
X92802428Y-71339428D01*
%TO.N,DATA*%
X50670901Y-69085901D02*
X52918015Y-69085901D01*
X38100000Y-56515000D02*
X50670901Y-69085901D01*
X62320010Y-66989448D02*
X63966552Y-68635990D01*
X63966552Y-68635990D02*
X72159032Y-68635990D01*
X72159032Y-68635990D02*
X79094383Y-75571341D01*
X79094383Y-75571341D02*
X79607134Y-75571341D01*
%TO.N,AY2*%
X57897347Y-65010013D02*
X57492986Y-65414373D01*
X69385014Y-65010013D02*
X57897347Y-65010013D01*
X93980000Y-74422000D02*
X93980000Y-76650996D01*
X57492986Y-65414373D02*
X57492986Y-66214955D01*
X79955136Y-74846339D02*
X79221340Y-74846339D01*
X90493996Y-80137000D02*
X84386413Y-80137000D01*
X91948000Y-72390000D02*
X93980000Y-74422000D01*
X79221340Y-74846339D02*
X69385014Y-65010013D01*
X57492986Y-66214955D02*
X56482132Y-67225809D01*
X90932000Y-72390000D02*
X91948000Y-72390000D01*
X80332136Y-75223339D02*
X79955136Y-74846339D01*
X80332136Y-76082723D02*
X80332136Y-75223339D01*
X93980000Y-76650996D02*
X90493996Y-80137000D01*
X84386413Y-80137000D02*
X80332136Y-76082723D01*
%TO.N,AY1*%
X46225304Y-58925304D02*
X57270376Y-58925304D01*
X38735000Y-51435000D02*
X46225304Y-58925304D01*
X38100000Y-51435000D02*
X38735000Y-51435000D01*
%TO.N,AY0*%
X58107379Y-58200302D02*
X58205897Y-58298820D01*
X47405302Y-58200302D02*
X58107379Y-58200302D01*
X38100000Y-48895000D02*
X47405302Y-58200302D01*
%TO.N,AX3*%
X80782147Y-75036939D02*
X80141536Y-74396328D01*
X57710947Y-64560002D02*
X56515000Y-65755949D01*
X79407740Y-74396328D02*
X69571414Y-64560002D01*
X84297814Y-79411990D02*
X80782147Y-75896323D01*
X56515000Y-65755949D02*
X56515000Y-66167000D01*
X88773000Y-79411990D02*
X84297814Y-79411990D01*
X69571414Y-64560002D02*
X57710947Y-64560002D01*
X80141536Y-74396328D02*
X79407740Y-74396328D01*
X80782147Y-75896323D02*
X80782147Y-75036939D01*
%TO.N,AX2*%
X51658040Y-57373040D02*
X58583990Y-57373040D01*
X38100000Y-43815000D02*
X51658040Y-57373040D01*
%TO.N,AX1*%
X53331935Y-56506935D02*
X58084105Y-56506935D01*
X38100000Y-41275000D02*
X53331935Y-56506935D01*
%TO.N,AX0*%
X79594140Y-73946317D02*
X69757814Y-64109991D01*
X81232158Y-75709923D02*
X81232158Y-74850539D01*
X81232158Y-74850539D02*
X80327936Y-73946317D01*
X57524547Y-64109991D02*
X56489235Y-65145303D01*
X93222660Y-75061660D02*
X93222660Y-75627345D01*
X90382206Y-78467799D02*
X83990034Y-78467799D01*
X93222660Y-75627345D02*
X90382206Y-78467799D01*
X56004725Y-65145303D02*
X55604726Y-65545302D01*
X69757814Y-64109991D02*
X57524547Y-64109991D01*
X83990034Y-78467799D02*
X81232158Y-75709923D01*
X80327936Y-73946317D02*
X79594140Y-73946317D01*
X56489235Y-65145303D02*
X56004725Y-65145303D01*
%TO.N,56*%
X142240000Y-76835000D02*
X133731004Y-68326004D01*
X133731004Y-68326004D02*
X133731004Y-65532000D01*
%TO.N,48*%
X135255000Y-67310000D02*
X142240000Y-74295000D01*
X135255000Y-65786000D02*
X135255000Y-67310000D01*
%TO.N,40*%
X115372548Y-51689000D02*
X124581635Y-60898087D01*
X95885000Y-51689000D02*
X115372548Y-51689000D01*
%TO.N,32*%
X124233643Y-61623097D02*
X125933248Y-61623097D01*
X92075000Y-53303010D02*
X116040556Y-53303010D01*
X123856634Y-61246088D02*
X124233643Y-61623097D01*
X123856634Y-61119088D02*
X123856634Y-61246088D01*
X116040556Y-53303010D02*
X123856634Y-61119088D01*
%TO.N,24*%
X130392001Y-64806999D02*
X140371999Y-64806999D01*
X140371999Y-64806999D02*
X142240000Y-66675000D01*
X128778000Y-66421000D02*
X130392001Y-64806999D01*
X125522180Y-64474760D02*
X124701539Y-63654119D01*
X95404119Y-63654119D02*
X93599000Y-61849000D01*
X124701539Y-63654119D02*
X95404119Y-63654119D01*
%TO.N,16*%
X129996279Y-64135000D02*
X128796268Y-65335011D01*
X142240000Y-64135000D02*
X129996279Y-64135000D01*
X124587000Y-62929118D02*
X96514120Y-62929118D01*
X96514120Y-62929118D02*
X94582001Y-60996999D01*
X94582001Y-60996999D02*
X92038001Y-60996999D01*
X92038001Y-60996999D02*
X91567000Y-61468000D01*
%TO.N,8*%
X130683000Y-61595000D02*
X142240000Y-61595000D01*
X128397000Y-63881000D02*
X130683000Y-61595000D01*
X120102172Y-59944000D02*
X121518171Y-61359999D01*
X91440000Y-59944000D02*
X120102172Y-59944000D01*
X121518171Y-61359999D02*
X122155001Y-61359999D01*
X122155001Y-61359999D02*
X122555000Y-60960000D01*
%TO.N,0*%
X118597244Y-57367010D02*
X121678310Y-60448076D01*
X90551000Y-57367010D02*
X118597244Y-57367010D01*
%TO.N,CS_H*%
X139700000Y-56515000D02*
X138049000Y-58166000D01*
X142240000Y-56515000D02*
X139700000Y-56515000D01*
%TO.N,CS_G*%
X140716000Y-53975000D02*
X142240000Y-53975000D01*
X136779000Y-57912000D02*
X140716000Y-53975000D01*
%TO.N,CS_F*%
X142240000Y-51435000D02*
X141394402Y-51435000D01*
X141394402Y-51435000D02*
X135081392Y-57748010D01*
%TO.N,CS_E*%
X133622115Y-57512885D02*
X133622115Y-58198021D01*
X142240000Y-48895000D02*
X133622115Y-57512885D01*
%TO.N,CS_D*%
X142240000Y-46355000D02*
X132588000Y-56007000D01*
X132588000Y-56007000D02*
X132588000Y-58648032D01*
%TO.N,CS_C*%
X131297048Y-54757952D02*
X131297048Y-59098043D01*
X142240000Y-43815000D02*
X131297048Y-54757952D01*
%TO.N,CS_B*%
X130214409Y-53300591D02*
X130214409Y-59548054D01*
X142240000Y-41275000D02*
X130214409Y-53300591D01*
%TO.N,CS_A*%
X128524000Y-52451000D02*
X128524000Y-59998065D01*
X142240000Y-38735000D02*
X128524000Y-52451000D01*
%TO.N,Net-(J3-Pad3)*%
X84876027Y-30480000D02*
X60567978Y-54788049D01*
X60567978Y-54788049D02*
X60567978Y-58949751D01*
X58271619Y-61246110D02*
X57016408Y-61246110D01*
X60567978Y-58949751D02*
X58271619Y-61246110D01*
X88265000Y-30480000D02*
X84876027Y-30480000D01*
D16*
%TO.N,+5V*%
X117602000Y-72390000D02*
X114300000Y-72390000D01*
X117602000Y-72390000D02*
X110363000Y-72390000D01*
X126492000Y-72390000D02*
X124587000Y-72390000D01*
X124587000Y-72390000D02*
X117602000Y-72390000D01*
X109764990Y-72390000D02*
X102253999Y-64879009D01*
X110363000Y-72390000D02*
X109764990Y-72390000D01*
X102253999Y-64879009D02*
X101854000Y-64479010D01*
X124587000Y-72390000D02*
X127606499Y-69370501D01*
X127606499Y-69370501D02*
X127606499Y-43843501D01*
X127606499Y-43843501D02*
X127635000Y-43815000D01*
X62992000Y-37719000D02*
X63373000Y-37338000D01*
X55372000Y-37719000D02*
X62992000Y-37719000D01*
X63373000Y-37338000D02*
X65531990Y-37338000D01*
X65531990Y-37338000D02*
X77216000Y-37338000D01*
X77216000Y-37338000D02*
X85344000Y-29210000D01*
X92075000Y-29210000D02*
X93345000Y-30480000D01*
X85344000Y-29210000D02*
X92075000Y-29210000D01*
X114300000Y-30480000D02*
X127635000Y-43815000D01*
X93345000Y-30480000D02*
X114300000Y-30480000D01*
X109953496Y-72799504D02*
X100857861Y-72799504D01*
X100857861Y-72799504D02*
X100292176Y-72799504D01*
X110363000Y-72390000D02*
X109953496Y-72799504D01*
X63373000Y-43307000D02*
X63373000Y-37338000D01*
X58801000Y-47879000D02*
X63373000Y-43307000D01*
X52983378Y-74168000D02*
X52070000Y-74168000D01*
X57515615Y-69635763D02*
X52983378Y-74168000D01*
X58081300Y-69635763D02*
X57515615Y-69635763D01*
D15*
X54825791Y-66594788D02*
X54825791Y-65170058D01*
X57866766Y-69635763D02*
X54825791Y-66594788D01*
X55785837Y-64210012D02*
X56351522Y-64210012D01*
X58081300Y-69635763D02*
X57866766Y-69635763D01*
X54825791Y-65170058D02*
X55785837Y-64210012D01*
%TO.N,I2C_SCL*%
X83043974Y-76025944D02*
X83043974Y-76385974D01*
X80514336Y-73496306D02*
X83043974Y-76025944D01*
X62880832Y-62516013D02*
X68800248Y-62516013D01*
X68800248Y-62516013D02*
X79780540Y-73496306D01*
X61976000Y-61611181D02*
X62880832Y-62516013D01*
X61976000Y-56647767D02*
X61976000Y-61611181D01*
X79780540Y-73496306D02*
X80514336Y-73496306D01*
X56070397Y-68517807D02*
X56070397Y-69639801D01*
X56393468Y-62477121D02*
X54375780Y-64494809D01*
X58245000Y-62393998D02*
X58161877Y-62477121D01*
X58161877Y-62477121D02*
X56393468Y-62477121D01*
X54375780Y-66823190D02*
X56070397Y-68517807D01*
X54375780Y-64494809D02*
X54375780Y-66823190D01*
X58833146Y-62393998D02*
X58245000Y-62393998D01*
X61976000Y-59251144D02*
X58833146Y-62393998D01*
X61976000Y-56647767D02*
X61976000Y-59251144D01*
X61976000Y-56647767D02*
X62179552Y-56444215D01*
X62179552Y-56444215D02*
X62417068Y-56444215D01*
%TO.N,I2C_SDA*%
X61017989Y-56780322D02*
X62172311Y-55626000D01*
X62172311Y-55626000D02*
X62992000Y-55626000D01*
X62654043Y-58192101D02*
X63391999Y-57454145D01*
X61017989Y-59572744D02*
X61017989Y-56780322D01*
X83942530Y-77394976D02*
X83942530Y-76196383D01*
X53925769Y-64308409D02*
X56207068Y-62027110D01*
X55089340Y-69442171D02*
X55089340Y-68173161D01*
X69030990Y-62066002D02*
X63067232Y-62066002D01*
X63067232Y-62066002D02*
X62654043Y-61652813D01*
X62654043Y-61652813D02*
X62654043Y-58192101D01*
X63391999Y-57454145D02*
X63391999Y-56025999D01*
X80792442Y-73046295D02*
X80011283Y-73046295D01*
X63391999Y-56025999D02*
X62992000Y-55626000D01*
X56207068Y-62027110D02*
X57975477Y-62027110D01*
X58646746Y-61943987D02*
X61017989Y-59572744D01*
X53925769Y-67009590D02*
X53925769Y-64308409D01*
X57975477Y-62027110D02*
X58058600Y-61943987D01*
X83942530Y-76196383D02*
X80792442Y-73046295D01*
X58058600Y-61943987D02*
X58646746Y-61943987D01*
X80011283Y-73046295D02*
X69030990Y-62066002D01*
X55089340Y-68173161D02*
X53925769Y-67009590D01*
%TO.N,ZXLD1_SENSE*%
X85247138Y-84709000D02*
X72592293Y-72054155D01*
X114046000Y-84709000D02*
X85247138Y-84709000D01*
X114808000Y-83947000D02*
X114046000Y-84709000D01*
X72592293Y-72054155D02*
X60135938Y-72054155D01*
X60135938Y-72054155D02*
X59735939Y-71654156D01*
%TO.N,X0_ADC*%
X79756000Y-61595000D02*
X78359000Y-61595000D01*
X78359000Y-61595000D02*
X77343000Y-60579000D01*
X77343000Y-60579000D02*
X77216000Y-60579000D01*
%TO.N,X1_ADC*%
X79629000Y-58293000D02*
X77216000Y-58293000D01*
X81153000Y-59817000D02*
X79629000Y-58293000D01*
%TO.N,ZXLD2_SENSE*%
X72799728Y-72898000D02*
X85118728Y-85217000D01*
X59690000Y-72898000D02*
X72799728Y-72898000D01*
X128905000Y-85217000D02*
X131064000Y-83058000D01*
X58801000Y-72009000D02*
X59690000Y-72898000D01*
X85118728Y-85217000D02*
X128905000Y-85217000D01*
%TO.N,USB_Tx*%
X59667956Y-47831729D02*
X65786000Y-41713685D01*
X51979998Y-66481282D02*
X51979998Y-64573105D01*
X52468011Y-66969295D02*
X51979998Y-66481282D01*
X65786000Y-41713685D02*
X65786000Y-40640000D01*
X57647559Y-59959919D02*
X59667956Y-57939522D01*
X56593184Y-59959919D02*
X57647559Y-59959919D01*
X59667956Y-57939522D02*
X59667956Y-47831729D01*
X51979998Y-64573105D02*
X56593184Y-59959919D01*
%TO.N,USB_Rx*%
X52705000Y-65532000D02*
X52705000Y-64484514D01*
X60117967Y-48692523D02*
X66421000Y-42389490D01*
X58082481Y-60409930D02*
X60117967Y-58374444D01*
X60117967Y-58374444D02*
X60117967Y-48692523D01*
X52705000Y-64484514D02*
X56779584Y-60409930D01*
X56779584Y-60409930D02*
X58082481Y-60409930D01*
%TO.N,CS_I*%
X55355202Y-73326460D02*
X55755201Y-73726459D01*
X55755201Y-73726459D02*
X72602865Y-73726459D01*
X72602865Y-73726459D02*
X77055383Y-78178977D01*
%TO.N,PF1*%
X96393000Y-54991000D02*
X70485000Y-54991000D01*
X70485000Y-54991000D02*
X65622002Y-59853998D01*
X65622002Y-59853998D02*
X64295421Y-59853998D01*
X63394669Y-60754750D02*
X63394669Y-61320435D01*
X64295421Y-59853998D02*
X63394669Y-60754750D01*
%TO.N,PF0*%
X65395865Y-60831405D02*
X65252103Y-60831405D01*
X69585270Y-56642000D02*
X65395865Y-60831405D01*
X95631000Y-56642000D02*
X69585270Y-56642000D01*
%TD*%
D17*
%TO.N,GND*%
X132696004Y-65633939D02*
X132735778Y-65833898D01*
X132813799Y-66022256D01*
X132927067Y-66191774D01*
X132971005Y-66235712D01*
X132971004Y-68288681D01*
X132967328Y-68326004D01*
X132971004Y-68363326D01*
X132971004Y-68363336D01*
X132982001Y-68474989D01*
X133021181Y-68604149D01*
X133025458Y-68618250D01*
X133096030Y-68750280D01*
X133121933Y-68781842D01*
X133191003Y-68866005D01*
X133220007Y-68889808D01*
X140798790Y-76468592D01*
X140755000Y-76688740D01*
X140755000Y-76981260D01*
X140812068Y-77268158D01*
X140924010Y-77538411D01*
X141086525Y-77781632D01*
X141293368Y-77988475D01*
X141536589Y-78150990D01*
X141806842Y-78262932D01*
X142093740Y-78320000D01*
X142386260Y-78320000D01*
X142673158Y-78262932D01*
X142943411Y-78150990D01*
X143186632Y-77988475D01*
X143393475Y-77781632D01*
X143485001Y-77644654D01*
X143485001Y-77922188D01*
X138056315Y-86970000D01*
X42283685Y-86970000D01*
X36855000Y-77922192D01*
X36855000Y-77644655D01*
X36946525Y-77781632D01*
X37153368Y-77988475D01*
X37396589Y-78150990D01*
X37666842Y-78262932D01*
X37953740Y-78320000D01*
X38246260Y-78320000D01*
X38533158Y-78262932D01*
X38803411Y-78150990D01*
X39046632Y-77988475D01*
X39253475Y-77781632D01*
X39415990Y-77538411D01*
X39527932Y-77268158D01*
X39585000Y-76981260D01*
X39585000Y-76688740D01*
X39527932Y-76401842D01*
X39415990Y-76131589D01*
X39253475Y-75888368D01*
X39046632Y-75681525D01*
X38872240Y-75565000D01*
X39046632Y-75448475D01*
X39253475Y-75241632D01*
X39415990Y-74998411D01*
X39527932Y-74728158D01*
X39585000Y-74441260D01*
X39585000Y-74148740D01*
X39527932Y-73861842D01*
X39415990Y-73591589D01*
X39253475Y-73348368D01*
X39046632Y-73141525D01*
X38872240Y-73025000D01*
X39046632Y-72908475D01*
X39253475Y-72701632D01*
X39415990Y-72458411D01*
X39527932Y-72188158D01*
X39585000Y-71901260D01*
X39585000Y-71867432D01*
X48032596Y-80315029D01*
X48058448Y-80346530D01*
X48128022Y-80403628D01*
X48184145Y-80449687D01*
X48184147Y-80449688D01*
X48327555Y-80526342D01*
X48483163Y-80573545D01*
X48604436Y-80585489D01*
X48604445Y-80585489D01*
X48644988Y-80589482D01*
X48685531Y-80585489D01*
X76268035Y-80585489D01*
X76405282Y-80677194D01*
X76593640Y-80755215D01*
X76793599Y-80794989D01*
X76997477Y-80794989D01*
X77197436Y-80755215D01*
X77385794Y-80677194D01*
X77555312Y-80563926D01*
X77699475Y-80419763D01*
X77761409Y-80327072D01*
X77865709Y-80396763D01*
X78054067Y-80474784D01*
X78254026Y-80514558D01*
X78457904Y-80514558D01*
X78657863Y-80474784D01*
X78846221Y-80396763D01*
X79015739Y-80283495D01*
X79063080Y-80236154D01*
X84554929Y-85728003D01*
X84578727Y-85757001D01*
X84607725Y-85780799D01*
X84694451Y-85851974D01*
X84826481Y-85922546D01*
X84969742Y-85966003D01*
X85081395Y-85977000D01*
X85081405Y-85977000D01*
X85118728Y-85980676D01*
X85156051Y-85977000D01*
X128867678Y-85977000D01*
X128905000Y-85980676D01*
X128942322Y-85977000D01*
X128942333Y-85977000D01*
X129053986Y-85966003D01*
X129197247Y-85922546D01*
X129329276Y-85851974D01*
X129445001Y-85757001D01*
X129468804Y-85727997D01*
X131103802Y-84093000D01*
X131165939Y-84093000D01*
X131365898Y-84053226D01*
X131554256Y-83975205D01*
X131723774Y-83861937D01*
X131867937Y-83717774D01*
X131981205Y-83548256D01*
X132059226Y-83359898D01*
X132099000Y-83159939D01*
X132099000Y-82956061D01*
X132059226Y-82756102D01*
X131981205Y-82567744D01*
X131867937Y-82398226D01*
X131723774Y-82254063D01*
X131554256Y-82140795D01*
X131365898Y-82062774D01*
X131165939Y-82023000D01*
X130962061Y-82023000D01*
X130762102Y-82062774D01*
X130573744Y-82140795D01*
X130404226Y-82254063D01*
X130260063Y-82398226D01*
X130146795Y-82567744D01*
X130068774Y-82756102D01*
X130029000Y-82956061D01*
X130029000Y-83018198D01*
X128590199Y-84457000D01*
X115712013Y-84457000D01*
X115725205Y-84437256D01*
X115803226Y-84248898D01*
X115843000Y-84048939D01*
X115843000Y-83845061D01*
X115837617Y-83818000D01*
X128486678Y-83818000D01*
X128524000Y-83821676D01*
X128561322Y-83818000D01*
X128561333Y-83818000D01*
X128672986Y-83807003D01*
X128816247Y-83763546D01*
X128948276Y-83692974D01*
X129064001Y-83598001D01*
X129087803Y-83568998D01*
X129811036Y-82845766D01*
X129840033Y-82821969D01*
X129866364Y-82789885D01*
X129935006Y-82706245D01*
X130005578Y-82574215D01*
X130013834Y-82546998D01*
X130049035Y-82430954D01*
X130060032Y-82319301D01*
X130060032Y-82319291D01*
X130063708Y-82281968D01*
X130060032Y-82244646D01*
X130060032Y-77143702D01*
X130103969Y-77099765D01*
X130217237Y-76930247D01*
X130295258Y-76741889D01*
X130335032Y-76541930D01*
X130335032Y-76338052D01*
X130295258Y-76138093D01*
X130217237Y-75949735D01*
X130103969Y-75780217D01*
X129959806Y-75636054D01*
X129790288Y-75522786D01*
X129601930Y-75444765D01*
X129401971Y-75404991D01*
X129198093Y-75404991D01*
X128998134Y-75444765D01*
X128809776Y-75522786D01*
X128640258Y-75636054D01*
X128496095Y-75780217D01*
X128382827Y-75949735D01*
X128304806Y-76138093D01*
X128265032Y-76338052D01*
X128265032Y-76541930D01*
X128304806Y-76741889D01*
X128382827Y-76930247D01*
X128496095Y-77099765D01*
X128540033Y-77143703D01*
X128540032Y-81274363D01*
X128506256Y-81251795D01*
X128317898Y-81173774D01*
X128117939Y-81134000D01*
X127914061Y-81134000D01*
X127714102Y-81173774D01*
X127525744Y-81251795D01*
X127388497Y-81343500D01*
X113331158Y-81343500D01*
X113390226Y-81200898D01*
X113430000Y-81000939D01*
X113430000Y-80797061D01*
X113390226Y-80597102D01*
X113312205Y-80408744D01*
X113198937Y-80239226D01*
X113054774Y-80095063D01*
X112885256Y-79981795D01*
X112696898Y-79903774D01*
X112496939Y-79864000D01*
X112293061Y-79864000D01*
X112093102Y-79903774D01*
X111904744Y-79981795D01*
X111767497Y-80073500D01*
X107528042Y-80073500D01*
X101079545Y-73625004D01*
X109912946Y-73625004D01*
X109953496Y-73628998D01*
X109994046Y-73625004D01*
X109994049Y-73625004D01*
X110115322Y-73613060D01*
X110270930Y-73565857D01*
X110414338Y-73489203D01*
X110540037Y-73386045D01*
X110565894Y-73354538D01*
X110704932Y-73215500D01*
X113672497Y-73215500D01*
X113809744Y-73307205D01*
X113998102Y-73385226D01*
X114198061Y-73425000D01*
X114401939Y-73425000D01*
X114601898Y-73385226D01*
X114790256Y-73307205D01*
X114927503Y-73215500D01*
X124546450Y-73215500D01*
X124587000Y-73219494D01*
X124627550Y-73215500D01*
X125864497Y-73215500D01*
X126001744Y-73307205D01*
X126190102Y-73385226D01*
X126390061Y-73425000D01*
X126593939Y-73425000D01*
X126793898Y-73385226D01*
X126982256Y-73307205D01*
X127151774Y-73193937D01*
X127295937Y-73049774D01*
X127409205Y-72880256D01*
X127487226Y-72691898D01*
X127527000Y-72491939D01*
X127527000Y-72288061D01*
X127487226Y-72088102D01*
X127409205Y-71899744D01*
X127295937Y-71730226D01*
X127151774Y-71586063D01*
X126982256Y-71472795D01*
X126793898Y-71394774D01*
X126756998Y-71387434D01*
X128161540Y-69982893D01*
X128193040Y-69957042D01*
X128263685Y-69870961D01*
X128296197Y-69831345D01*
X128307817Y-69809606D01*
X128372852Y-69687935D01*
X128420055Y-69532327D01*
X128431999Y-69411054D01*
X128431999Y-69411045D01*
X128435992Y-69370502D01*
X128431999Y-69329959D01*
X128431999Y-67397958D01*
X128476102Y-67416226D01*
X128676061Y-67456000D01*
X128879939Y-67456000D01*
X129079898Y-67416226D01*
X129268256Y-67338205D01*
X129437774Y-67224937D01*
X129581937Y-67080774D01*
X129695205Y-66911256D01*
X129773226Y-66722898D01*
X129813000Y-66522939D01*
X129813000Y-66460801D01*
X130706803Y-65566999D01*
X132696004Y-65566999D01*
X132696004Y-65633939D01*
%TA.AperFunction,Conductor*%
D18*
G36*
X132696004Y-65633939D02*
G01*
X132735778Y-65833898D01*
X132813799Y-66022256D01*
X132927067Y-66191774D01*
X132971005Y-66235712D01*
X132971004Y-68288681D01*
X132967328Y-68326004D01*
X132971004Y-68363326D01*
X132971004Y-68363336D01*
X132982001Y-68474989D01*
X133021181Y-68604149D01*
X133025458Y-68618250D01*
X133096030Y-68750280D01*
X133121933Y-68781842D01*
X133191003Y-68866005D01*
X133220007Y-68889808D01*
X140798790Y-76468592D01*
X140755000Y-76688740D01*
X140755000Y-76981260D01*
X140812068Y-77268158D01*
X140924010Y-77538411D01*
X141086525Y-77781632D01*
X141293368Y-77988475D01*
X141536589Y-78150990D01*
X141806842Y-78262932D01*
X142093740Y-78320000D01*
X142386260Y-78320000D01*
X142673158Y-78262932D01*
X142943411Y-78150990D01*
X143186632Y-77988475D01*
X143393475Y-77781632D01*
X143485001Y-77644654D01*
X143485001Y-77922188D01*
X138056315Y-86970000D01*
X42283685Y-86970000D01*
X36855000Y-77922192D01*
X36855000Y-77644655D01*
X36946525Y-77781632D01*
X37153368Y-77988475D01*
X37396589Y-78150990D01*
X37666842Y-78262932D01*
X37953740Y-78320000D01*
X38246260Y-78320000D01*
X38533158Y-78262932D01*
X38803411Y-78150990D01*
X39046632Y-77988475D01*
X39253475Y-77781632D01*
X39415990Y-77538411D01*
X39527932Y-77268158D01*
X39585000Y-76981260D01*
X39585000Y-76688740D01*
X39527932Y-76401842D01*
X39415990Y-76131589D01*
X39253475Y-75888368D01*
X39046632Y-75681525D01*
X38872240Y-75565000D01*
X39046632Y-75448475D01*
X39253475Y-75241632D01*
X39415990Y-74998411D01*
X39527932Y-74728158D01*
X39585000Y-74441260D01*
X39585000Y-74148740D01*
X39527932Y-73861842D01*
X39415990Y-73591589D01*
X39253475Y-73348368D01*
X39046632Y-73141525D01*
X38872240Y-73025000D01*
X39046632Y-72908475D01*
X39253475Y-72701632D01*
X39415990Y-72458411D01*
X39527932Y-72188158D01*
X39585000Y-71901260D01*
X39585000Y-71867432D01*
X48032596Y-80315029D01*
X48058448Y-80346530D01*
X48128022Y-80403628D01*
X48184145Y-80449687D01*
X48184147Y-80449688D01*
X48327555Y-80526342D01*
X48483163Y-80573545D01*
X48604436Y-80585489D01*
X48604445Y-80585489D01*
X48644988Y-80589482D01*
X48685531Y-80585489D01*
X76268035Y-80585489D01*
X76405282Y-80677194D01*
X76593640Y-80755215D01*
X76793599Y-80794989D01*
X76997477Y-80794989D01*
X77197436Y-80755215D01*
X77385794Y-80677194D01*
X77555312Y-80563926D01*
X77699475Y-80419763D01*
X77761409Y-80327072D01*
X77865709Y-80396763D01*
X78054067Y-80474784D01*
X78254026Y-80514558D01*
X78457904Y-80514558D01*
X78657863Y-80474784D01*
X78846221Y-80396763D01*
X79015739Y-80283495D01*
X79063080Y-80236154D01*
X84554929Y-85728003D01*
X84578727Y-85757001D01*
X84607725Y-85780799D01*
X84694451Y-85851974D01*
X84826481Y-85922546D01*
X84969742Y-85966003D01*
X85081395Y-85977000D01*
X85081405Y-85977000D01*
X85118728Y-85980676D01*
X85156051Y-85977000D01*
X128867678Y-85977000D01*
X128905000Y-85980676D01*
X128942322Y-85977000D01*
X128942333Y-85977000D01*
X129053986Y-85966003D01*
X129197247Y-85922546D01*
X129329276Y-85851974D01*
X129445001Y-85757001D01*
X129468804Y-85727997D01*
X131103802Y-84093000D01*
X131165939Y-84093000D01*
X131365898Y-84053226D01*
X131554256Y-83975205D01*
X131723774Y-83861937D01*
X131867937Y-83717774D01*
X131981205Y-83548256D01*
X132059226Y-83359898D01*
X132099000Y-83159939D01*
X132099000Y-82956061D01*
X132059226Y-82756102D01*
X131981205Y-82567744D01*
X131867937Y-82398226D01*
X131723774Y-82254063D01*
X131554256Y-82140795D01*
X131365898Y-82062774D01*
X131165939Y-82023000D01*
X130962061Y-82023000D01*
X130762102Y-82062774D01*
X130573744Y-82140795D01*
X130404226Y-82254063D01*
X130260063Y-82398226D01*
X130146795Y-82567744D01*
X130068774Y-82756102D01*
X130029000Y-82956061D01*
X130029000Y-83018198D01*
X128590199Y-84457000D01*
X115712013Y-84457000D01*
X115725205Y-84437256D01*
X115803226Y-84248898D01*
X115843000Y-84048939D01*
X115843000Y-83845061D01*
X115837617Y-83818000D01*
X128486678Y-83818000D01*
X128524000Y-83821676D01*
X128561322Y-83818000D01*
X128561333Y-83818000D01*
X128672986Y-83807003D01*
X128816247Y-83763546D01*
X128948276Y-83692974D01*
X129064001Y-83598001D01*
X129087803Y-83568998D01*
X129811036Y-82845766D01*
X129840033Y-82821969D01*
X129866364Y-82789885D01*
X129935006Y-82706245D01*
X130005578Y-82574215D01*
X130013834Y-82546998D01*
X130049035Y-82430954D01*
X130060032Y-82319301D01*
X130060032Y-82319291D01*
X130063708Y-82281968D01*
X130060032Y-82244646D01*
X130060032Y-77143702D01*
X130103969Y-77099765D01*
X130217237Y-76930247D01*
X130295258Y-76741889D01*
X130335032Y-76541930D01*
X130335032Y-76338052D01*
X130295258Y-76138093D01*
X130217237Y-75949735D01*
X130103969Y-75780217D01*
X129959806Y-75636054D01*
X129790288Y-75522786D01*
X129601930Y-75444765D01*
X129401971Y-75404991D01*
X129198093Y-75404991D01*
X128998134Y-75444765D01*
X128809776Y-75522786D01*
X128640258Y-75636054D01*
X128496095Y-75780217D01*
X128382827Y-75949735D01*
X128304806Y-76138093D01*
X128265032Y-76338052D01*
X128265032Y-76541930D01*
X128304806Y-76741889D01*
X128382827Y-76930247D01*
X128496095Y-77099765D01*
X128540033Y-77143703D01*
X128540032Y-81274363D01*
X128506256Y-81251795D01*
X128317898Y-81173774D01*
X128117939Y-81134000D01*
X127914061Y-81134000D01*
X127714102Y-81173774D01*
X127525744Y-81251795D01*
X127388497Y-81343500D01*
X113331158Y-81343500D01*
X113390226Y-81200898D01*
X113430000Y-81000939D01*
X113430000Y-80797061D01*
X113390226Y-80597102D01*
X113312205Y-80408744D01*
X113198937Y-80239226D01*
X113054774Y-80095063D01*
X112885256Y-79981795D01*
X112696898Y-79903774D01*
X112496939Y-79864000D01*
X112293061Y-79864000D01*
X112093102Y-79903774D01*
X111904744Y-79981795D01*
X111767497Y-80073500D01*
X107528042Y-80073500D01*
X101079545Y-73625004D01*
X109912946Y-73625004D01*
X109953496Y-73628998D01*
X109994046Y-73625004D01*
X109994049Y-73625004D01*
X110115322Y-73613060D01*
X110270930Y-73565857D01*
X110414338Y-73489203D01*
X110540037Y-73386045D01*
X110565894Y-73354538D01*
X110704932Y-73215500D01*
X113672497Y-73215500D01*
X113809744Y-73307205D01*
X113998102Y-73385226D01*
X114198061Y-73425000D01*
X114401939Y-73425000D01*
X114601898Y-73385226D01*
X114790256Y-73307205D01*
X114927503Y-73215500D01*
X124546450Y-73215500D01*
X124587000Y-73219494D01*
X124627550Y-73215500D01*
X125864497Y-73215500D01*
X126001744Y-73307205D01*
X126190102Y-73385226D01*
X126390061Y-73425000D01*
X126593939Y-73425000D01*
X126793898Y-73385226D01*
X126982256Y-73307205D01*
X127151774Y-73193937D01*
X127295937Y-73049774D01*
X127409205Y-72880256D01*
X127487226Y-72691898D01*
X127527000Y-72491939D01*
X127527000Y-72288061D01*
X127487226Y-72088102D01*
X127409205Y-71899744D01*
X127295937Y-71730226D01*
X127151774Y-71586063D01*
X126982256Y-71472795D01*
X126793898Y-71394774D01*
X126756998Y-71387434D01*
X128161540Y-69982893D01*
X128193040Y-69957042D01*
X128263685Y-69870961D01*
X128296197Y-69831345D01*
X128307817Y-69809606D01*
X128372852Y-69687935D01*
X128420055Y-69532327D01*
X128431999Y-69411054D01*
X128431999Y-69411045D01*
X128435992Y-69370502D01*
X128431999Y-69329959D01*
X128431999Y-67397958D01*
X128476102Y-67416226D01*
X128676061Y-67456000D01*
X128879939Y-67456000D01*
X129079898Y-67416226D01*
X129268256Y-67338205D01*
X129437774Y-67224937D01*
X129581937Y-67080774D01*
X129695205Y-66911256D01*
X129773226Y-66722898D01*
X129813000Y-66522939D01*
X129813000Y-66460801D01*
X130706803Y-65566999D01*
X132696004Y-65566999D01*
X132696004Y-65633939D01*
G37*
%TD.AperFunction*%
D17*
X104338609Y-82298000D02*
X85183761Y-82298000D01*
X79488850Y-76603090D01*
X79505195Y-76606341D01*
X79709073Y-76606341D01*
X79768920Y-76594437D01*
X79792135Y-76622724D01*
X79821139Y-76646527D01*
X83822614Y-80648003D01*
X83846412Y-80677001D01*
X83875410Y-80700799D01*
X83962137Y-80771974D01*
X84094166Y-80842546D01*
X84237427Y-80886003D01*
X84386413Y-80900677D01*
X84423746Y-80897000D01*
X90456674Y-80897000D01*
X90493996Y-80900676D01*
X90531318Y-80897000D01*
X90531329Y-80897000D01*
X90642982Y-80886003D01*
X90786243Y-80842546D01*
X90918272Y-80771974D01*
X91033997Y-80677001D01*
X91057800Y-80647997D01*
X94491003Y-77214795D01*
X94520001Y-77190997D01*
X94558589Y-77143977D01*
X94614974Y-77075273D01*
X94685546Y-76943243D01*
X94690784Y-76925975D01*
X94729003Y-76799982D01*
X94740000Y-76688329D01*
X94740000Y-76688320D01*
X94743676Y-76650997D01*
X94740000Y-76613674D01*
X94740000Y-74459323D01*
X94743676Y-74422000D01*
X94740000Y-74384677D01*
X94740000Y-74384667D01*
X94729003Y-74273014D01*
X94685546Y-74129753D01*
X94671824Y-74104081D01*
X94614974Y-73997723D01*
X94543799Y-73910997D01*
X94520001Y-73881999D01*
X94491004Y-73858202D01*
X92990163Y-72357362D01*
X93104326Y-72334654D01*
X93292684Y-72256633D01*
X93462202Y-72143365D01*
X93606365Y-71999202D01*
X93719633Y-71829684D01*
X93763761Y-71723151D01*
X104338609Y-82298000D01*
%TA.AperFunction,Conductor*%
D18*
G36*
X104338609Y-82298000D02*
G01*
X85183761Y-82298000D01*
X79488850Y-76603090D01*
X79505195Y-76606341D01*
X79709073Y-76606341D01*
X79768920Y-76594437D01*
X79792135Y-76622724D01*
X79821139Y-76646527D01*
X83822614Y-80648003D01*
X83846412Y-80677001D01*
X83875410Y-80700799D01*
X83962137Y-80771974D01*
X84094166Y-80842546D01*
X84237427Y-80886003D01*
X84386413Y-80900677D01*
X84423746Y-80897000D01*
X90456674Y-80897000D01*
X90493996Y-80900676D01*
X90531318Y-80897000D01*
X90531329Y-80897000D01*
X90642982Y-80886003D01*
X90786243Y-80842546D01*
X90918272Y-80771974D01*
X91033997Y-80677001D01*
X91057800Y-80647997D01*
X94491003Y-77214795D01*
X94520001Y-77190997D01*
X94558589Y-77143977D01*
X94614974Y-77075273D01*
X94685546Y-76943243D01*
X94690784Y-76925975D01*
X94729003Y-76799982D01*
X94740000Y-76688329D01*
X94740000Y-76688320D01*
X94743676Y-76650997D01*
X94740000Y-76613674D01*
X94740000Y-74459323D01*
X94743676Y-74422000D01*
X94740000Y-74384677D01*
X94740000Y-74384667D01*
X94729003Y-74273014D01*
X94685546Y-74129753D01*
X94671824Y-74104081D01*
X94614974Y-73997723D01*
X94543799Y-73910997D01*
X94520001Y-73881999D01*
X94491004Y-73858202D01*
X92990163Y-72357362D01*
X93104326Y-72334654D01*
X93292684Y-72256633D01*
X93462202Y-72143365D01*
X93606365Y-71999202D01*
X93719633Y-71829684D01*
X93763761Y-71723151D01*
X104338609Y-82298000D01*
G37*
%TD.AperFunction*%
D17*
X50159105Y-77361538D02*
X50184957Y-77393039D01*
X50310656Y-77496197D01*
X50454064Y-77572851D01*
X50609672Y-77620054D01*
X50730945Y-77631998D01*
X50730947Y-77631998D01*
X50771497Y-77635992D01*
X50812048Y-77631998D01*
X74171028Y-77631998D01*
X75473518Y-78934489D01*
X48986922Y-78934489D01*
X39556578Y-69504146D01*
X39585000Y-69361260D01*
X39585000Y-69068740D01*
X39527932Y-68781842D01*
X39415990Y-68511589D01*
X39253475Y-68268368D01*
X39046632Y-68061525D01*
X38864466Y-67939805D01*
X38981355Y-67870178D01*
X39197588Y-67675269D01*
X39371641Y-67441920D01*
X39496825Y-67179099D01*
X39541476Y-67031890D01*
X39420156Y-66802002D01*
X39585000Y-66802002D01*
X39585000Y-66787432D01*
X50159105Y-77361538D01*
%TA.AperFunction,Conductor*%
D18*
G36*
X50159105Y-77361538D02*
G01*
X50184957Y-77393039D01*
X50310656Y-77496197D01*
X50454064Y-77572851D01*
X50609672Y-77620054D01*
X50730945Y-77631998D01*
X50730947Y-77631998D01*
X50771497Y-77635992D01*
X50812048Y-77631998D01*
X74171028Y-77631998D01*
X75473518Y-78934489D01*
X48986922Y-78934489D01*
X39556578Y-69504146D01*
X39585000Y-69361260D01*
X39585000Y-69068740D01*
X39527932Y-68781842D01*
X39415990Y-68511589D01*
X39253475Y-68268368D01*
X39046632Y-68061525D01*
X38864466Y-67939805D01*
X38981355Y-67870178D01*
X39197588Y-67675269D01*
X39371641Y-67441920D01*
X39496825Y-67179099D01*
X39541476Y-67031890D01*
X39420156Y-66802002D01*
X39585000Y-66802002D01*
X39585000Y-66787432D01*
X50159105Y-77361538D01*
G37*
%TD.AperFunction*%
D17*
X91767428Y-71379230D02*
X91767428Y-71441367D01*
X91804949Y-71630000D01*
X91635711Y-71630000D01*
X91591774Y-71586063D01*
X91422256Y-71472795D01*
X91233898Y-71394774D01*
X91033939Y-71355000D01*
X90830061Y-71355000D01*
X90630102Y-71394774D01*
X90441744Y-71472795D01*
X90272226Y-71586063D01*
X90128063Y-71730226D01*
X90014795Y-71899744D01*
X89936774Y-72088102D01*
X89897000Y-72288061D01*
X89897000Y-72491939D01*
X89936774Y-72691898D01*
X90014795Y-72880256D01*
X90128063Y-73049774D01*
X90272226Y-73193937D01*
X90441744Y-73307205D01*
X90630102Y-73385226D01*
X90830061Y-73425000D01*
X91033939Y-73425000D01*
X91233898Y-73385226D01*
X91422256Y-73307205D01*
X91591774Y-73193937D01*
X91634455Y-73151256D01*
X92669611Y-74186412D01*
X92562886Y-74257723D01*
X92418723Y-74401886D01*
X92305455Y-74571404D01*
X92227434Y-74759762D01*
X92187660Y-74959721D01*
X92187660Y-75163599D01*
X92227434Y-75363558D01*
X92281388Y-75493815D01*
X90067405Y-77707799D01*
X84933231Y-77707799D01*
X84937756Y-77696874D01*
X84977530Y-77496915D01*
X84977530Y-77293037D01*
X84937756Y-77093078D01*
X84859735Y-76904720D01*
X84746467Y-76735202D01*
X84702530Y-76691265D01*
X84702530Y-76233705D01*
X84706206Y-76196382D01*
X84702530Y-76159059D01*
X84702530Y-76159050D01*
X84691533Y-76047397D01*
X84648076Y-75904136D01*
X84577504Y-75772107D01*
X84482531Y-75656382D01*
X84453533Y-75632584D01*
X81356246Y-72535298D01*
X81332443Y-72506294D01*
X81216718Y-72411321D01*
X81084689Y-72340749D01*
X80941428Y-72297292D01*
X80829775Y-72286295D01*
X80829764Y-72286295D01*
X80792442Y-72282619D01*
X80755120Y-72286295D01*
X80326085Y-72286295D01*
X75220790Y-67181000D01*
X87569199Y-67181000D01*
X91767428Y-71379230D01*
%TA.AperFunction,Conductor*%
D18*
G36*
X91767428Y-71379230D02*
G01*
X91767428Y-71441367D01*
X91804949Y-71630000D01*
X91635711Y-71630000D01*
X91591774Y-71586063D01*
X91422256Y-71472795D01*
X91233898Y-71394774D01*
X91033939Y-71355000D01*
X90830061Y-71355000D01*
X90630102Y-71394774D01*
X90441744Y-71472795D01*
X90272226Y-71586063D01*
X90128063Y-71730226D01*
X90014795Y-71899744D01*
X89936774Y-72088102D01*
X89897000Y-72288061D01*
X89897000Y-72491939D01*
X89936774Y-72691898D01*
X90014795Y-72880256D01*
X90128063Y-73049774D01*
X90272226Y-73193937D01*
X90441744Y-73307205D01*
X90630102Y-73385226D01*
X90830061Y-73425000D01*
X91033939Y-73425000D01*
X91233898Y-73385226D01*
X91422256Y-73307205D01*
X91591774Y-73193937D01*
X91634455Y-73151256D01*
X92669611Y-74186412D01*
X92562886Y-74257723D01*
X92418723Y-74401886D01*
X92305455Y-74571404D01*
X92227434Y-74759762D01*
X92187660Y-74959721D01*
X92187660Y-75163599D01*
X92227434Y-75363558D01*
X92281388Y-75493815D01*
X90067405Y-77707799D01*
X84933231Y-77707799D01*
X84937756Y-77696874D01*
X84977530Y-77496915D01*
X84977530Y-77293037D01*
X84937756Y-77093078D01*
X84859735Y-76904720D01*
X84746467Y-76735202D01*
X84702530Y-76691265D01*
X84702530Y-76233705D01*
X84706206Y-76196382D01*
X84702530Y-76159059D01*
X84702530Y-76159050D01*
X84691533Y-76047397D01*
X84648076Y-75904136D01*
X84577504Y-75772107D01*
X84482531Y-75656382D01*
X84453533Y-75632584D01*
X81356246Y-72535298D01*
X81332443Y-72506294D01*
X81216718Y-72411321D01*
X81084689Y-72340749D01*
X80941428Y-72297292D01*
X80829775Y-72286295D01*
X80829764Y-72286295D01*
X80792442Y-72282619D01*
X80755120Y-72286295D01*
X80326085Y-72286295D01*
X75220790Y-67181000D01*
X87569199Y-67181000D01*
X91767428Y-71379230D01*
G37*
%TD.AperFunction*%
D17*
X67135102Y-65806774D02*
X66946744Y-65884795D01*
X66777226Y-65998063D01*
X66733289Y-66042000D01*
X63773259Y-66042000D01*
X63639672Y-65986666D01*
X63439713Y-65946892D01*
X63235835Y-65946892D01*
X63035876Y-65986666D01*
X62847518Y-66064687D01*
X62823238Y-66080910D01*
X62810266Y-66072243D01*
X62621908Y-65994222D01*
X62421949Y-65954448D01*
X62218071Y-65954448D01*
X62018112Y-65994222D01*
X61829754Y-66072243D01*
X61660236Y-66185511D01*
X61516073Y-66329674D01*
X61402805Y-66499192D01*
X61324784Y-66687550D01*
X61285010Y-66887509D01*
X61285010Y-67091387D01*
X61324784Y-67291346D01*
X61402805Y-67479704D01*
X61516073Y-67649222D01*
X61660236Y-67793385D01*
X61829754Y-67906653D01*
X62018112Y-67984674D01*
X62218071Y-68024448D01*
X62280209Y-68024448D01*
X63402752Y-69146992D01*
X63426551Y-69175991D01*
X63455549Y-69199789D01*
X63542275Y-69270964D01*
X63630888Y-69318329D01*
X63674305Y-69341536D01*
X63817566Y-69384993D01*
X63929219Y-69395990D01*
X63929228Y-69395990D01*
X63966551Y-69399666D01*
X64003874Y-69395990D01*
X71844231Y-69395990D01*
X72120229Y-69671988D01*
X61766669Y-69671988D01*
X61729344Y-69668312D01*
X61692019Y-69671988D01*
X61692011Y-69671988D01*
X61580358Y-69682985D01*
X61437097Y-69726442D01*
X61305068Y-69797014D01*
X61189343Y-69891987D01*
X61165545Y-69920986D01*
X60964540Y-70121990D01*
X60902403Y-70121990D01*
X60702444Y-70161764D01*
X60514086Y-70239785D01*
X60344568Y-70353053D01*
X60200405Y-70497216D01*
X60087137Y-70666734D01*
X60082676Y-70677503D01*
X60037837Y-70658930D01*
X59837878Y-70619156D01*
X59634000Y-70619156D01*
X59434041Y-70658930D01*
X59245683Y-70736951D01*
X59076165Y-70850219D01*
X58944181Y-70982203D01*
X58902939Y-70974000D01*
X58699061Y-70974000D01*
X58499102Y-71013774D01*
X58310744Y-71091795D01*
X58141226Y-71205063D01*
X57997063Y-71349226D01*
X57883795Y-71518744D01*
X57805774Y-71707102D01*
X57766000Y-71907061D01*
X57766000Y-72110939D01*
X57805774Y-72310898D01*
X57883795Y-72499256D01*
X57997063Y-72668774D01*
X58141226Y-72812937D01*
X58310744Y-72926205D01*
X58407925Y-72966459D01*
X56326361Y-72966459D01*
X56272407Y-72836204D01*
X56159139Y-72666686D01*
X56014976Y-72522523D01*
X55883882Y-72434929D01*
X57714645Y-70604166D01*
X57779402Y-70630989D01*
X57979361Y-70670763D01*
X58183239Y-70670763D01*
X58383198Y-70630989D01*
X58571556Y-70552968D01*
X58741074Y-70439700D01*
X58885237Y-70295537D01*
X58998505Y-70126019D01*
X59076526Y-69937661D01*
X59116300Y-69737702D01*
X59116300Y-69533824D01*
X59076526Y-69333865D01*
X58998505Y-69145507D01*
X58885237Y-68975989D01*
X58741074Y-68831826D01*
X58571556Y-68718558D01*
X58383198Y-68640537D01*
X58183239Y-68600763D01*
X57979361Y-68600763D01*
X57918645Y-68612840D01*
X57238728Y-67932924D01*
X57286069Y-67885583D01*
X57399337Y-67716065D01*
X57477358Y-67527707D01*
X57517132Y-67327748D01*
X57517132Y-67265611D01*
X58003994Y-66778750D01*
X58032987Y-66754956D01*
X58056781Y-66725963D01*
X58056785Y-66725959D01*
X58127959Y-66639232D01*
X58131760Y-66632121D01*
X58198532Y-66507202D01*
X58241989Y-66363941D01*
X58252986Y-66252288D01*
X58252986Y-66252279D01*
X58256662Y-66214956D01*
X58252986Y-66177633D01*
X58252986Y-65770013D01*
X67319914Y-65770013D01*
X67135102Y-65806774D01*
%TA.AperFunction,Conductor*%
D18*
G36*
X67135102Y-65806774D02*
G01*
X66946744Y-65884795D01*
X66777226Y-65998063D01*
X66733289Y-66042000D01*
X63773259Y-66042000D01*
X63639672Y-65986666D01*
X63439713Y-65946892D01*
X63235835Y-65946892D01*
X63035876Y-65986666D01*
X62847518Y-66064687D01*
X62823238Y-66080910D01*
X62810266Y-66072243D01*
X62621908Y-65994222D01*
X62421949Y-65954448D01*
X62218071Y-65954448D01*
X62018112Y-65994222D01*
X61829754Y-66072243D01*
X61660236Y-66185511D01*
X61516073Y-66329674D01*
X61402805Y-66499192D01*
X61324784Y-66687550D01*
X61285010Y-66887509D01*
X61285010Y-67091387D01*
X61324784Y-67291346D01*
X61402805Y-67479704D01*
X61516073Y-67649222D01*
X61660236Y-67793385D01*
X61829754Y-67906653D01*
X62018112Y-67984674D01*
X62218071Y-68024448D01*
X62280209Y-68024448D01*
X63402752Y-69146992D01*
X63426551Y-69175991D01*
X63455549Y-69199789D01*
X63542275Y-69270964D01*
X63630888Y-69318329D01*
X63674305Y-69341536D01*
X63817566Y-69384993D01*
X63929219Y-69395990D01*
X63929228Y-69395990D01*
X63966551Y-69399666D01*
X64003874Y-69395990D01*
X71844231Y-69395990D01*
X72120229Y-69671988D01*
X61766669Y-69671988D01*
X61729344Y-69668312D01*
X61692019Y-69671988D01*
X61692011Y-69671988D01*
X61580358Y-69682985D01*
X61437097Y-69726442D01*
X61305068Y-69797014D01*
X61189343Y-69891987D01*
X61165545Y-69920986D01*
X60964540Y-70121990D01*
X60902403Y-70121990D01*
X60702444Y-70161764D01*
X60514086Y-70239785D01*
X60344568Y-70353053D01*
X60200405Y-70497216D01*
X60087137Y-70666734D01*
X60082676Y-70677503D01*
X60037837Y-70658930D01*
X59837878Y-70619156D01*
X59634000Y-70619156D01*
X59434041Y-70658930D01*
X59245683Y-70736951D01*
X59076165Y-70850219D01*
X58944181Y-70982203D01*
X58902939Y-70974000D01*
X58699061Y-70974000D01*
X58499102Y-71013774D01*
X58310744Y-71091795D01*
X58141226Y-71205063D01*
X57997063Y-71349226D01*
X57883795Y-71518744D01*
X57805774Y-71707102D01*
X57766000Y-71907061D01*
X57766000Y-72110939D01*
X57805774Y-72310898D01*
X57883795Y-72499256D01*
X57997063Y-72668774D01*
X58141226Y-72812937D01*
X58310744Y-72926205D01*
X58407925Y-72966459D01*
X56326361Y-72966459D01*
X56272407Y-72836204D01*
X56159139Y-72666686D01*
X56014976Y-72522523D01*
X55883882Y-72434929D01*
X57714645Y-70604166D01*
X57779402Y-70630989D01*
X57979361Y-70670763D01*
X58183239Y-70670763D01*
X58383198Y-70630989D01*
X58571556Y-70552968D01*
X58741074Y-70439700D01*
X58885237Y-70295537D01*
X58998505Y-70126019D01*
X59076526Y-69937661D01*
X59116300Y-69737702D01*
X59116300Y-69533824D01*
X59076526Y-69333865D01*
X58998505Y-69145507D01*
X58885237Y-68975989D01*
X58741074Y-68831826D01*
X58571556Y-68718558D01*
X58383198Y-68640537D01*
X58183239Y-68600763D01*
X57979361Y-68600763D01*
X57918645Y-68612840D01*
X57238728Y-67932924D01*
X57286069Y-67885583D01*
X57399337Y-67716065D01*
X57477358Y-67527707D01*
X57517132Y-67327748D01*
X57517132Y-67265611D01*
X58003994Y-66778750D01*
X58032987Y-66754956D01*
X58056781Y-66725963D01*
X58056785Y-66725959D01*
X58127959Y-66639232D01*
X58131760Y-66632121D01*
X58198532Y-66507202D01*
X58241989Y-66363941D01*
X58252986Y-66252288D01*
X58252986Y-66252279D01*
X58256662Y-66214956D01*
X58252986Y-66177633D01*
X58252986Y-65770013D01*
X67319914Y-65770013D01*
X67135102Y-65806774D01*
G37*
%TD.AperFunction*%
D17*
X126780999Y-69028568D02*
X124245068Y-71564500D01*
X114927503Y-71564500D01*
X114790256Y-71472795D01*
X114601898Y-71394774D01*
X114401939Y-71355000D01*
X114198061Y-71355000D01*
X113998102Y-71394774D01*
X113809744Y-71472795D01*
X113672497Y-71564500D01*
X110403550Y-71564500D01*
X110362999Y-71560506D01*
X110322449Y-71564500D01*
X110106923Y-71564500D01*
X102956541Y-64414119D01*
X124386738Y-64414119D01*
X124487180Y-64514561D01*
X124487180Y-64576699D01*
X124526954Y-64776658D01*
X124604975Y-64965016D01*
X124718243Y-65134534D01*
X124862406Y-65278697D01*
X125031924Y-65391965D01*
X125220282Y-65469986D01*
X125420241Y-65509760D01*
X125624119Y-65509760D01*
X125824078Y-65469986D01*
X126012436Y-65391965D01*
X126181954Y-65278697D01*
X126326117Y-65134534D01*
X126439385Y-64965016D01*
X126517406Y-64776658D01*
X126557180Y-64576699D01*
X126557180Y-64372821D01*
X126517406Y-64172862D01*
X126439385Y-63984504D01*
X126326117Y-63814986D01*
X126181954Y-63670823D01*
X126012436Y-63557555D01*
X125824078Y-63479534D01*
X125624119Y-63439760D01*
X125561981Y-63439760D01*
X125515156Y-63392935D01*
X125582226Y-63231016D01*
X125622000Y-63031057D01*
X125622000Y-62827179D01*
X125582226Y-62627220D01*
X125567603Y-62591918D01*
X125631350Y-62618323D01*
X125831309Y-62658097D01*
X126035187Y-62658097D01*
X126235146Y-62618323D01*
X126423504Y-62540302D01*
X126593022Y-62427034D01*
X126737185Y-62282871D01*
X126780999Y-62217298D01*
X126780999Y-69028568D01*
%TA.AperFunction,Conductor*%
D18*
G36*
X126780999Y-69028568D02*
G01*
X124245068Y-71564500D01*
X114927503Y-71564500D01*
X114790256Y-71472795D01*
X114601898Y-71394774D01*
X114401939Y-71355000D01*
X114198061Y-71355000D01*
X113998102Y-71394774D01*
X113809744Y-71472795D01*
X113672497Y-71564500D01*
X110403550Y-71564500D01*
X110362999Y-71560506D01*
X110322449Y-71564500D01*
X110106923Y-71564500D01*
X102956541Y-64414119D01*
X124386738Y-64414119D01*
X124487180Y-64514561D01*
X124487180Y-64576699D01*
X124526954Y-64776658D01*
X124604975Y-64965016D01*
X124718243Y-65134534D01*
X124862406Y-65278697D01*
X125031924Y-65391965D01*
X125220282Y-65469986D01*
X125420241Y-65509760D01*
X125624119Y-65509760D01*
X125824078Y-65469986D01*
X126012436Y-65391965D01*
X126181954Y-65278697D01*
X126326117Y-65134534D01*
X126439385Y-64965016D01*
X126517406Y-64776658D01*
X126557180Y-64576699D01*
X126557180Y-64372821D01*
X126517406Y-64172862D01*
X126439385Y-63984504D01*
X126326117Y-63814986D01*
X126181954Y-63670823D01*
X126012436Y-63557555D01*
X125824078Y-63479534D01*
X125624119Y-63439760D01*
X125561981Y-63439760D01*
X125515156Y-63392935D01*
X125582226Y-63231016D01*
X125622000Y-63031057D01*
X125622000Y-62827179D01*
X125582226Y-62627220D01*
X125567603Y-62591918D01*
X125631350Y-62618323D01*
X125831309Y-62658097D01*
X126035187Y-62658097D01*
X126235146Y-62618323D01*
X126423504Y-62540302D01*
X126593022Y-62427034D01*
X126737185Y-62282871D01*
X126780999Y-62217298D01*
X126780999Y-69028568D01*
G37*
%TD.AperFunction*%
D17*
X38227000Y-66548000D02*
X38247000Y-66548000D01*
X38247000Y-66802000D01*
X38227000Y-66802000D01*
X38227000Y-66822000D01*
X37973000Y-66822000D01*
X37973000Y-66802000D01*
X37953000Y-66802000D01*
X37953000Y-66548000D01*
X37973000Y-66548000D01*
X37973000Y-66528000D01*
X38227000Y-66528000D01*
X38227000Y-66548000D01*
%TA.AperFunction,Conductor*%
D18*
G36*
X38227000Y-66548000D02*
G01*
X38247000Y-66548000D01*
X38247000Y-66802000D01*
X38227000Y-66802000D01*
X38227000Y-66822000D01*
X37973000Y-66822000D01*
X37973000Y-66802000D01*
X37953000Y-66802000D01*
X37953000Y-66548000D01*
X37973000Y-66548000D01*
X37973000Y-66528000D01*
X38227000Y-66528000D01*
X38227000Y-66548000D01*
G37*
%TD.AperFunction*%
D17*
X120954372Y-61871002D02*
X120978170Y-61900000D01*
X121007168Y-61923798D01*
X121093894Y-61994973D01*
X121202164Y-62052845D01*
X121225924Y-62065545D01*
X121369185Y-62109002D01*
X121480838Y-62119999D01*
X121480848Y-62119999D01*
X121518171Y-62123675D01*
X121555493Y-62119999D01*
X122117679Y-62119999D01*
X122155001Y-62123675D01*
X122192323Y-62119999D01*
X122192334Y-62119999D01*
X122303987Y-62109002D01*
X122447248Y-62065545D01*
X122579226Y-61995000D01*
X122656939Y-61995000D01*
X122856898Y-61955226D01*
X123045256Y-61877205D01*
X123214774Y-61763937D01*
X123260735Y-61717976D01*
X123316633Y-61786089D01*
X123345636Y-61809891D01*
X123669839Y-62134094D01*
X123693642Y-62163098D01*
X123700977Y-62169118D01*
X96828922Y-62169118D01*
X95363803Y-60704000D01*
X119787371Y-60704000D01*
X120954372Y-61871002D01*
%TA.AperFunction,Conductor*%
D18*
G36*
X120954372Y-61871002D02*
G01*
X120978170Y-61900000D01*
X121007168Y-61923798D01*
X121093894Y-61994973D01*
X121202164Y-62052845D01*
X121225924Y-62065545D01*
X121369185Y-62109002D01*
X121480838Y-62119999D01*
X121480848Y-62119999D01*
X121518171Y-62123675D01*
X121555493Y-62119999D01*
X122117679Y-62119999D01*
X122155001Y-62123675D01*
X122192323Y-62119999D01*
X122192334Y-62119999D01*
X122303987Y-62109002D01*
X122447248Y-62065545D01*
X122579226Y-61995000D01*
X122656939Y-61995000D01*
X122856898Y-61955226D01*
X123045256Y-61877205D01*
X123214774Y-61763937D01*
X123260735Y-61717976D01*
X123316633Y-61786089D01*
X123345636Y-61809891D01*
X123669839Y-62134094D01*
X123693642Y-62163098D01*
X123700977Y-62169118D01*
X96828922Y-62169118D01*
X95363803Y-60704000D01*
X119787371Y-60704000D01*
X120954372Y-61871002D01*
G37*
%TD.AperFunction*%
D17*
X90932000Y-30353000D02*
X90952000Y-30353000D01*
X90952000Y-30607000D01*
X90932000Y-30607000D01*
X90932000Y-31800155D01*
X91161890Y-31921476D01*
X91309099Y-31876825D01*
X91571920Y-31751641D01*
X91805269Y-31577588D01*
X91881034Y-31493534D01*
X91905498Y-31574180D01*
X91964463Y-31684494D01*
X92043815Y-31781185D01*
X92140506Y-31860537D01*
X92250820Y-31919502D01*
X92370518Y-31955812D01*
X92495000Y-31968072D01*
X94195000Y-31968072D01*
X94319482Y-31955812D01*
X94439180Y-31919502D01*
X94549494Y-31860537D01*
X94646185Y-31781185D01*
X94725537Y-31684494D01*
X94784502Y-31574180D01*
X94820812Y-31454482D01*
X94833072Y-31330000D01*
X94833072Y-31305500D01*
X113958068Y-31305500D01*
X125040761Y-42388195D01*
X125023992Y-42387381D01*
X124746843Y-42428666D01*
X124483072Y-42523226D01*
X124360898Y-42588530D01*
X124290829Y-42831224D01*
X125095000Y-43635395D01*
X125109143Y-43621253D01*
X125288748Y-43800858D01*
X125274605Y-43815000D01*
X126078776Y-44619171D01*
X126209428Y-44581450D01*
X126209428Y-44602500D01*
X126221688Y-44726982D01*
X126257998Y-44846680D01*
X126316963Y-44956994D01*
X126396315Y-45053685D01*
X126493006Y-45133037D01*
X126603320Y-45192002D01*
X126723018Y-45228312D01*
X126781000Y-45234023D01*
X126780999Y-61028896D01*
X126737185Y-60963323D01*
X126593022Y-60819160D01*
X126423504Y-60705892D01*
X126235146Y-60627871D01*
X126035187Y-60588097D01*
X125831309Y-60588097D01*
X125631350Y-60627871D01*
X125586831Y-60646312D01*
X125576861Y-60596189D01*
X125498840Y-60407831D01*
X125385572Y-60238313D01*
X125241409Y-60094150D01*
X125071891Y-59980882D01*
X124883533Y-59902861D01*
X124683574Y-59863087D01*
X124621437Y-59863087D01*
X115936352Y-51178003D01*
X115912549Y-51148999D01*
X115796824Y-51054026D01*
X115664795Y-50983454D01*
X115521534Y-50939997D01*
X115409881Y-50929000D01*
X115409870Y-50929000D01*
X115372548Y-50925324D01*
X115335226Y-50929000D01*
X96588711Y-50929000D01*
X96544774Y-50885063D01*
X96375256Y-50771795D01*
X96186898Y-50693774D01*
X95986939Y-50654000D01*
X95783061Y-50654000D01*
X95583102Y-50693774D01*
X95394744Y-50771795D01*
X95225226Y-50885063D01*
X95081063Y-51029226D01*
X94967795Y-51198744D01*
X94889774Y-51387102D01*
X94853366Y-51570137D01*
X94716939Y-51543000D01*
X94513061Y-51543000D01*
X94313102Y-51582774D01*
X94124744Y-51660795D01*
X93955226Y-51774063D01*
X93911289Y-51818000D01*
X71910003Y-51818000D01*
X71872680Y-51814324D01*
X71835357Y-51818000D01*
X71835348Y-51818000D01*
X71723695Y-51828997D01*
X71580434Y-51872454D01*
X71448405Y-51943026D01*
X71448403Y-51943027D01*
X71448404Y-51943027D01*
X71361677Y-52014201D01*
X71361673Y-52014205D01*
X71332680Y-52037999D01*
X71308886Y-52066992D01*
X65938451Y-57437429D01*
X65876313Y-57437429D01*
X65676354Y-57477203D01*
X65487996Y-57555224D01*
X65318478Y-57668492D01*
X65174315Y-57812655D01*
X65061047Y-57982173D01*
X64983026Y-58170531D01*
X64943252Y-58370490D01*
X64943252Y-58574368D01*
X64983026Y-58774327D01*
X65061047Y-58962685D01*
X65148787Y-59093998D01*
X64332746Y-59093998D01*
X64295421Y-59090322D01*
X64258096Y-59093998D01*
X64258088Y-59093998D01*
X64146435Y-59104995D01*
X64003174Y-59148452D01*
X63871145Y-59219024D01*
X63755420Y-59313997D01*
X63731622Y-59342995D01*
X63414043Y-59660574D01*
X63414043Y-58506903D01*
X63903008Y-58017939D01*
X63932000Y-57994146D01*
X63955794Y-57965153D01*
X63955798Y-57965149D01*
X64026972Y-57878422D01*
X64026973Y-57878421D01*
X64097545Y-57746392D01*
X64141002Y-57603131D01*
X64151999Y-57491478D01*
X64151999Y-57491469D01*
X64155675Y-57454146D01*
X64151999Y-57416823D01*
X64151999Y-56063321D01*
X64155675Y-56025998D01*
X64151999Y-55988676D01*
X64151999Y-55988666D01*
X64141002Y-55877013D01*
X64097545Y-55733752D01*
X64027000Y-55601774D01*
X64027000Y-55524061D01*
X63987226Y-55324102D01*
X63909205Y-55135744D01*
X63795937Y-54966226D01*
X63651774Y-54822063D01*
X63482256Y-54708795D01*
X63293898Y-54630774D01*
X63093939Y-54591000D01*
X62890061Y-54591000D01*
X62690102Y-54630774D01*
X62501744Y-54708795D01*
X62332226Y-54822063D01*
X62288289Y-54866000D01*
X62209634Y-54866000D01*
X62172311Y-54862324D01*
X62134988Y-54866000D01*
X62134978Y-54866000D01*
X62023325Y-54876997D01*
X61880064Y-54920454D01*
X61748035Y-54991026D01*
X61632310Y-55085999D01*
X61608512Y-55114997D01*
X61327978Y-55395531D01*
X61327978Y-55102850D01*
X74266828Y-42164000D01*
X81964123Y-42164000D01*
X81978797Y-42312986D01*
X81979833Y-42316400D01*
X81978797Y-42319815D01*
X81967800Y-42431468D01*
X81967800Y-42431478D01*
X81964124Y-42468800D01*
X81967800Y-42506122D01*
X81967800Y-42533078D01*
X81964124Y-42570400D01*
X81967800Y-42607722D01*
X81967800Y-42607733D01*
X81978797Y-42719386D01*
X82022254Y-42862647D01*
X82092826Y-42994676D01*
X82187799Y-43110401D01*
X82215700Y-43133299D01*
X82238599Y-43161201D01*
X82354324Y-43256174D01*
X82486353Y-43326746D01*
X82629614Y-43370203D01*
X82741267Y-43381200D01*
X82741277Y-43381200D01*
X82778599Y-43384876D01*
X82815922Y-43381200D01*
X83120733Y-43381200D01*
X83232386Y-43370203D01*
X83328467Y-43341058D01*
X83340814Y-43344803D01*
X83452467Y-43355800D01*
X83612250Y-43355800D01*
X83660999Y-43415201D01*
X83690002Y-43439003D01*
X83764196Y-43513197D01*
X83787999Y-43542201D01*
X83903724Y-43637174D01*
X84035753Y-43707746D01*
X84179014Y-43751203D01*
X84290667Y-43762200D01*
X84290677Y-43762200D01*
X84327999Y-43765876D01*
X84365322Y-43762200D01*
X84620878Y-43762200D01*
X84658200Y-43765876D01*
X84695522Y-43762200D01*
X84695533Y-43762200D01*
X84807186Y-43751203D01*
X84950447Y-43707746D01*
X85011904Y-43674896D01*
X113512500Y-43674896D01*
X113512500Y-43955104D01*
X113567166Y-44229928D01*
X113674397Y-44488806D01*
X113830072Y-44721791D01*
X114028209Y-44919928D01*
X114261194Y-45075603D01*
X114520072Y-45182834D01*
X114794896Y-45237500D01*
X115075104Y-45237500D01*
X115349928Y-45182834D01*
X115608806Y-45075603D01*
X115841791Y-44919928D01*
X115962943Y-44798776D01*
X116670829Y-44798776D01*
X116740898Y-45041470D01*
X116994276Y-45161121D01*
X117266128Y-45229040D01*
X117546008Y-45242619D01*
X117823157Y-45201334D01*
X118086928Y-45106774D01*
X118209102Y-45041470D01*
X118279171Y-44798776D01*
X117475000Y-43994605D01*
X116670829Y-44798776D01*
X115962943Y-44798776D01*
X116039928Y-44721791D01*
X116195603Y-44488806D01*
X116204640Y-44466990D01*
X116248530Y-44549102D01*
X116491224Y-44619171D01*
X117295395Y-43815000D01*
X117654605Y-43815000D01*
X118458776Y-44619171D01*
X118701470Y-44549102D01*
X118742970Y-44461219D01*
X118754397Y-44488806D01*
X118910072Y-44721791D01*
X119108209Y-44919928D01*
X119341194Y-45075603D01*
X119600072Y-45182834D01*
X119874896Y-45237500D01*
X120155104Y-45237500D01*
X120429928Y-45182834D01*
X120688806Y-45075603D01*
X120921791Y-44919928D01*
X121042943Y-44798776D01*
X124290829Y-44798776D01*
X124360898Y-45041470D01*
X124614276Y-45161121D01*
X124886128Y-45229040D01*
X125166008Y-45242619D01*
X125443157Y-45201334D01*
X125706928Y-45106774D01*
X125829102Y-45041470D01*
X125899171Y-44798776D01*
X125095000Y-43994605D01*
X124290829Y-44798776D01*
X121042943Y-44798776D01*
X121119928Y-44721791D01*
X121275603Y-44488806D01*
X121382834Y-44229928D01*
X121437500Y-43955104D01*
X121437500Y-43886008D01*
X123667381Y-43886008D01*
X123708666Y-44163157D01*
X123803226Y-44426928D01*
X123868530Y-44549102D01*
X124111224Y-44619171D01*
X124915395Y-43815000D01*
X124111224Y-43010829D01*
X123868530Y-43080898D01*
X123748879Y-43334276D01*
X123680960Y-43606128D01*
X123667381Y-43886008D01*
X121437500Y-43886008D01*
X121437500Y-43674896D01*
X121382834Y-43400072D01*
X121275603Y-43141194D01*
X121119928Y-42908209D01*
X120921791Y-42710072D01*
X120688806Y-42554397D01*
X120429928Y-42447166D01*
X120155104Y-42392500D01*
X119874896Y-42392500D01*
X119600072Y-42447166D01*
X119341194Y-42554397D01*
X119108209Y-42710072D01*
X118910072Y-42908209D01*
X118754397Y-43141194D01*
X118745360Y-43163010D01*
X118701470Y-43080898D01*
X118458776Y-43010829D01*
X117654605Y-43815000D01*
X117295395Y-43815000D01*
X116491224Y-43010829D01*
X116248530Y-43080898D01*
X116207030Y-43168781D01*
X116195603Y-43141194D01*
X116039928Y-42908209D01*
X115962943Y-42831224D01*
X116670829Y-42831224D01*
X117475000Y-43635395D01*
X118279171Y-42831224D01*
X118209102Y-42588530D01*
X117955724Y-42468879D01*
X117683872Y-42400960D01*
X117403992Y-42387381D01*
X117126843Y-42428666D01*
X116863072Y-42523226D01*
X116740898Y-42588530D01*
X116670829Y-42831224D01*
X115962943Y-42831224D01*
X115841791Y-42710072D01*
X115608806Y-42554397D01*
X115349928Y-42447166D01*
X115075104Y-42392500D01*
X114794896Y-42392500D01*
X114520072Y-42447166D01*
X114261194Y-42554397D01*
X114028209Y-42710072D01*
X113830072Y-42908209D01*
X113674397Y-43141194D01*
X113567166Y-43400072D01*
X113512500Y-43674896D01*
X85011904Y-43674896D01*
X85082476Y-43637174D01*
X85198201Y-43542201D01*
X85222004Y-43513197D01*
X85245398Y-43489803D01*
X85274401Y-43466001D01*
X85340276Y-43385732D01*
X85372815Y-43395602D01*
X85521800Y-43410276D01*
X85670785Y-43395602D01*
X85754345Y-43370255D01*
X85902800Y-43384877D01*
X86051786Y-43370203D01*
X86093300Y-43357610D01*
X86134814Y-43370203D01*
X86246467Y-43381200D01*
X86449678Y-43381200D01*
X86487000Y-43384876D01*
X86524322Y-43381200D01*
X86524333Y-43381200D01*
X86635986Y-43370203D01*
X86779100Y-43326791D01*
X86922214Y-43370203D01*
X87033867Y-43381200D01*
X87033877Y-43381200D01*
X87071199Y-43384876D01*
X87108522Y-43381200D01*
X87237078Y-43381200D01*
X87274400Y-43384876D01*
X87311722Y-43381200D01*
X87311733Y-43381200D01*
X87423386Y-43370203D01*
X87566647Y-43326746D01*
X87679160Y-43266606D01*
X87744153Y-43301346D01*
X87887414Y-43344803D01*
X88036400Y-43359477D01*
X88185385Y-43344803D01*
X88328646Y-43301346D01*
X88460675Y-43230774D01*
X88576401Y-43135801D01*
X88671374Y-43020076D01*
X88741946Y-42888047D01*
X88785403Y-42744786D01*
X88796400Y-42633133D01*
X88796400Y-42632731D01*
X88874574Y-42537476D01*
X88945146Y-42405447D01*
X88988603Y-42262186D01*
X89003277Y-42113200D01*
X88988603Y-41964214D01*
X88945146Y-41820953D01*
X88874574Y-41688924D01*
X88796400Y-41593669D01*
X88796400Y-41566322D01*
X88800076Y-41528999D01*
X88796400Y-41491676D01*
X88796400Y-41491668D01*
X88785403Y-41380015D01*
X88741946Y-41236754D01*
X88671374Y-41104724D01*
X88576401Y-40988999D01*
X88547397Y-40965196D01*
X88397004Y-40814803D01*
X88373201Y-40785799D01*
X88257476Y-40690826D01*
X88125447Y-40620254D01*
X87982186Y-40576797D01*
X87870533Y-40565800D01*
X87870522Y-40565800D01*
X87833200Y-40562124D01*
X87795878Y-40565800D01*
X87616522Y-40565800D01*
X87579199Y-40562124D01*
X87541877Y-40565800D01*
X87541867Y-40565800D01*
X87430214Y-40576797D01*
X87286953Y-40620254D01*
X87154924Y-40690826D01*
X87039199Y-40785799D01*
X87015396Y-40814803D01*
X86888401Y-40941798D01*
X86817226Y-41028524D01*
X86746654Y-41160554D01*
X86703198Y-41303815D01*
X86688524Y-41452800D01*
X86690433Y-41472182D01*
X86690201Y-41472252D01*
X86662564Y-41463869D01*
X86651803Y-41354614D01*
X86608346Y-41211353D01*
X86537774Y-41079324D01*
X86442801Y-40963599D01*
X86327076Y-40868626D01*
X86195047Y-40798054D01*
X86051786Y-40754597D01*
X85902800Y-40739923D01*
X85753815Y-40754597D01*
X85610554Y-40798054D01*
X85478525Y-40868626D01*
X85362800Y-40963599D01*
X85267827Y-41079324D01*
X85197255Y-41211353D01*
X85153798Y-41354614D01*
X85142801Y-41466267D01*
X85142801Y-41503604D01*
X85101542Y-41537464D01*
X85001246Y-41483854D01*
X84857985Y-41440397D01*
X84709000Y-41425723D01*
X84560014Y-41440397D01*
X84455000Y-41472252D01*
X84349986Y-41440397D01*
X84201000Y-41425723D01*
X84052015Y-41440397D01*
X83972401Y-41464547D01*
X83892786Y-41440397D01*
X83781133Y-41429400D01*
X83781122Y-41429400D01*
X83743800Y-41425724D01*
X83706478Y-41429400D01*
X83552522Y-41429400D01*
X83515199Y-41425724D01*
X83477877Y-41429400D01*
X83477867Y-41429400D01*
X83366214Y-41440397D01*
X83269660Y-41469686D01*
X83248647Y-41458454D01*
X83105386Y-41414997D01*
X82993733Y-41404000D01*
X82993722Y-41404000D01*
X82956400Y-41400324D01*
X82919078Y-41404000D01*
X82690467Y-41404000D01*
X82578814Y-41414997D01*
X82435553Y-41458454D01*
X82303524Y-41529026D01*
X82187799Y-41623999D01*
X82092826Y-41739724D01*
X82022254Y-41871753D01*
X81978797Y-42015014D01*
X81964123Y-42164000D01*
X74266828Y-42164000D01*
X85190829Y-31240000D01*
X86986822Y-31240000D01*
X87111525Y-31426632D01*
X87318368Y-31633475D01*
X87561589Y-31795990D01*
X87831842Y-31907932D01*
X88118740Y-31965000D01*
X88411260Y-31965000D01*
X88698158Y-31907932D01*
X88968411Y-31795990D01*
X89211632Y-31633475D01*
X89418475Y-31426632D01*
X89540195Y-31244466D01*
X89609822Y-31361355D01*
X89804731Y-31577588D01*
X90038080Y-31751641D01*
X90300901Y-31876825D01*
X90448110Y-31921476D01*
X90678000Y-31800155D01*
X90678000Y-30607000D01*
X90658000Y-30607000D01*
X90658000Y-30353000D01*
X90678000Y-30353000D01*
X90678000Y-30333000D01*
X90932000Y-30333000D01*
X90932000Y-30353000D01*
%TA.AperFunction,Conductor*%
D18*
G36*
X90932000Y-30353000D02*
G01*
X90952000Y-30353000D01*
X90952000Y-30607000D01*
X90932000Y-30607000D01*
X90932000Y-31800155D01*
X91161890Y-31921476D01*
X91309099Y-31876825D01*
X91571920Y-31751641D01*
X91805269Y-31577588D01*
X91881034Y-31493534D01*
X91905498Y-31574180D01*
X91964463Y-31684494D01*
X92043815Y-31781185D01*
X92140506Y-31860537D01*
X92250820Y-31919502D01*
X92370518Y-31955812D01*
X92495000Y-31968072D01*
X94195000Y-31968072D01*
X94319482Y-31955812D01*
X94439180Y-31919502D01*
X94549494Y-31860537D01*
X94646185Y-31781185D01*
X94725537Y-31684494D01*
X94784502Y-31574180D01*
X94820812Y-31454482D01*
X94833072Y-31330000D01*
X94833072Y-31305500D01*
X113958068Y-31305500D01*
X125040761Y-42388195D01*
X125023992Y-42387381D01*
X124746843Y-42428666D01*
X124483072Y-42523226D01*
X124360898Y-42588530D01*
X124290829Y-42831224D01*
X125095000Y-43635395D01*
X125109143Y-43621253D01*
X125288748Y-43800858D01*
X125274605Y-43815000D01*
X126078776Y-44619171D01*
X126209428Y-44581450D01*
X126209428Y-44602500D01*
X126221688Y-44726982D01*
X126257998Y-44846680D01*
X126316963Y-44956994D01*
X126396315Y-45053685D01*
X126493006Y-45133037D01*
X126603320Y-45192002D01*
X126723018Y-45228312D01*
X126781000Y-45234023D01*
X126780999Y-61028896D01*
X126737185Y-60963323D01*
X126593022Y-60819160D01*
X126423504Y-60705892D01*
X126235146Y-60627871D01*
X126035187Y-60588097D01*
X125831309Y-60588097D01*
X125631350Y-60627871D01*
X125586831Y-60646312D01*
X125576861Y-60596189D01*
X125498840Y-60407831D01*
X125385572Y-60238313D01*
X125241409Y-60094150D01*
X125071891Y-59980882D01*
X124883533Y-59902861D01*
X124683574Y-59863087D01*
X124621437Y-59863087D01*
X115936352Y-51178003D01*
X115912549Y-51148999D01*
X115796824Y-51054026D01*
X115664795Y-50983454D01*
X115521534Y-50939997D01*
X115409881Y-50929000D01*
X115409870Y-50929000D01*
X115372548Y-50925324D01*
X115335226Y-50929000D01*
X96588711Y-50929000D01*
X96544774Y-50885063D01*
X96375256Y-50771795D01*
X96186898Y-50693774D01*
X95986939Y-50654000D01*
X95783061Y-50654000D01*
X95583102Y-50693774D01*
X95394744Y-50771795D01*
X95225226Y-50885063D01*
X95081063Y-51029226D01*
X94967795Y-51198744D01*
X94889774Y-51387102D01*
X94853366Y-51570137D01*
X94716939Y-51543000D01*
X94513061Y-51543000D01*
X94313102Y-51582774D01*
X94124744Y-51660795D01*
X93955226Y-51774063D01*
X93911289Y-51818000D01*
X71910003Y-51818000D01*
X71872680Y-51814324D01*
X71835357Y-51818000D01*
X71835348Y-51818000D01*
X71723695Y-51828997D01*
X71580434Y-51872454D01*
X71448405Y-51943026D01*
X71448403Y-51943027D01*
X71448404Y-51943027D01*
X71361677Y-52014201D01*
X71361673Y-52014205D01*
X71332680Y-52037999D01*
X71308886Y-52066992D01*
X65938451Y-57437429D01*
X65876313Y-57437429D01*
X65676354Y-57477203D01*
X65487996Y-57555224D01*
X65318478Y-57668492D01*
X65174315Y-57812655D01*
X65061047Y-57982173D01*
X64983026Y-58170531D01*
X64943252Y-58370490D01*
X64943252Y-58574368D01*
X64983026Y-58774327D01*
X65061047Y-58962685D01*
X65148787Y-59093998D01*
X64332746Y-59093998D01*
X64295421Y-59090322D01*
X64258096Y-59093998D01*
X64258088Y-59093998D01*
X64146435Y-59104995D01*
X64003174Y-59148452D01*
X63871145Y-59219024D01*
X63755420Y-59313997D01*
X63731622Y-59342995D01*
X63414043Y-59660574D01*
X63414043Y-58506903D01*
X63903008Y-58017939D01*
X63932000Y-57994146D01*
X63955794Y-57965153D01*
X63955798Y-57965149D01*
X64026972Y-57878422D01*
X64026973Y-57878421D01*
X64097545Y-57746392D01*
X64141002Y-57603131D01*
X64151999Y-57491478D01*
X64151999Y-57491469D01*
X64155675Y-57454146D01*
X64151999Y-57416823D01*
X64151999Y-56063321D01*
X64155675Y-56025998D01*
X64151999Y-55988676D01*
X64151999Y-55988666D01*
X64141002Y-55877013D01*
X64097545Y-55733752D01*
X64027000Y-55601774D01*
X64027000Y-55524061D01*
X63987226Y-55324102D01*
X63909205Y-55135744D01*
X63795937Y-54966226D01*
X63651774Y-54822063D01*
X63482256Y-54708795D01*
X63293898Y-54630774D01*
X63093939Y-54591000D01*
X62890061Y-54591000D01*
X62690102Y-54630774D01*
X62501744Y-54708795D01*
X62332226Y-54822063D01*
X62288289Y-54866000D01*
X62209634Y-54866000D01*
X62172311Y-54862324D01*
X62134988Y-54866000D01*
X62134978Y-54866000D01*
X62023325Y-54876997D01*
X61880064Y-54920454D01*
X61748035Y-54991026D01*
X61632310Y-55085999D01*
X61608512Y-55114997D01*
X61327978Y-55395531D01*
X61327978Y-55102850D01*
X74266828Y-42164000D01*
X81964123Y-42164000D01*
X81978797Y-42312986D01*
X81979833Y-42316400D01*
X81978797Y-42319815D01*
X81967800Y-42431468D01*
X81967800Y-42431478D01*
X81964124Y-42468800D01*
X81967800Y-42506122D01*
X81967800Y-42533078D01*
X81964124Y-42570400D01*
X81967800Y-42607722D01*
X81967800Y-42607733D01*
X81978797Y-42719386D01*
X82022254Y-42862647D01*
X82092826Y-42994676D01*
X82187799Y-43110401D01*
X82215700Y-43133299D01*
X82238599Y-43161201D01*
X82354324Y-43256174D01*
X82486353Y-43326746D01*
X82629614Y-43370203D01*
X82741267Y-43381200D01*
X82741277Y-43381200D01*
X82778599Y-43384876D01*
X82815922Y-43381200D01*
X83120733Y-43381200D01*
X83232386Y-43370203D01*
X83328467Y-43341058D01*
X83340814Y-43344803D01*
X83452467Y-43355800D01*
X83612250Y-43355800D01*
X83660999Y-43415201D01*
X83690002Y-43439003D01*
X83764196Y-43513197D01*
X83787999Y-43542201D01*
X83903724Y-43637174D01*
X84035753Y-43707746D01*
X84179014Y-43751203D01*
X84290667Y-43762200D01*
X84290677Y-43762200D01*
X84327999Y-43765876D01*
X84365322Y-43762200D01*
X84620878Y-43762200D01*
X84658200Y-43765876D01*
X84695522Y-43762200D01*
X84695533Y-43762200D01*
X84807186Y-43751203D01*
X84950447Y-43707746D01*
X85011904Y-43674896D01*
X113512500Y-43674896D01*
X113512500Y-43955104D01*
X113567166Y-44229928D01*
X113674397Y-44488806D01*
X113830072Y-44721791D01*
X114028209Y-44919928D01*
X114261194Y-45075603D01*
X114520072Y-45182834D01*
X114794896Y-45237500D01*
X115075104Y-45237500D01*
X115349928Y-45182834D01*
X115608806Y-45075603D01*
X115841791Y-44919928D01*
X115962943Y-44798776D01*
X116670829Y-44798776D01*
X116740898Y-45041470D01*
X116994276Y-45161121D01*
X117266128Y-45229040D01*
X117546008Y-45242619D01*
X117823157Y-45201334D01*
X118086928Y-45106774D01*
X118209102Y-45041470D01*
X118279171Y-44798776D01*
X117475000Y-43994605D01*
X116670829Y-44798776D01*
X115962943Y-44798776D01*
X116039928Y-44721791D01*
X116195603Y-44488806D01*
X116204640Y-44466990D01*
X116248530Y-44549102D01*
X116491224Y-44619171D01*
X117295395Y-43815000D01*
X117654605Y-43815000D01*
X118458776Y-44619171D01*
X118701470Y-44549102D01*
X118742970Y-44461219D01*
X118754397Y-44488806D01*
X118910072Y-44721791D01*
X119108209Y-44919928D01*
X119341194Y-45075603D01*
X119600072Y-45182834D01*
X119874896Y-45237500D01*
X120155104Y-45237500D01*
X120429928Y-45182834D01*
X120688806Y-45075603D01*
X120921791Y-44919928D01*
X121042943Y-44798776D01*
X124290829Y-44798776D01*
X124360898Y-45041470D01*
X124614276Y-45161121D01*
X124886128Y-45229040D01*
X125166008Y-45242619D01*
X125443157Y-45201334D01*
X125706928Y-45106774D01*
X125829102Y-45041470D01*
X125899171Y-44798776D01*
X125095000Y-43994605D01*
X124290829Y-44798776D01*
X121042943Y-44798776D01*
X121119928Y-44721791D01*
X121275603Y-44488806D01*
X121382834Y-44229928D01*
X121437500Y-43955104D01*
X121437500Y-43886008D01*
X123667381Y-43886008D01*
X123708666Y-44163157D01*
X123803226Y-44426928D01*
X123868530Y-44549102D01*
X124111224Y-44619171D01*
X124915395Y-43815000D01*
X124111224Y-43010829D01*
X123868530Y-43080898D01*
X123748879Y-43334276D01*
X123680960Y-43606128D01*
X123667381Y-43886008D01*
X121437500Y-43886008D01*
X121437500Y-43674896D01*
X121382834Y-43400072D01*
X121275603Y-43141194D01*
X121119928Y-42908209D01*
X120921791Y-42710072D01*
X120688806Y-42554397D01*
X120429928Y-42447166D01*
X120155104Y-42392500D01*
X119874896Y-42392500D01*
X119600072Y-42447166D01*
X119341194Y-42554397D01*
X119108209Y-42710072D01*
X118910072Y-42908209D01*
X118754397Y-43141194D01*
X118745360Y-43163010D01*
X118701470Y-43080898D01*
X118458776Y-43010829D01*
X117654605Y-43815000D01*
X117295395Y-43815000D01*
X116491224Y-43010829D01*
X116248530Y-43080898D01*
X116207030Y-43168781D01*
X116195603Y-43141194D01*
X116039928Y-42908209D01*
X115962943Y-42831224D01*
X116670829Y-42831224D01*
X117475000Y-43635395D01*
X118279171Y-42831224D01*
X118209102Y-42588530D01*
X117955724Y-42468879D01*
X117683872Y-42400960D01*
X117403992Y-42387381D01*
X117126843Y-42428666D01*
X116863072Y-42523226D01*
X116740898Y-42588530D01*
X116670829Y-42831224D01*
X115962943Y-42831224D01*
X115841791Y-42710072D01*
X115608806Y-42554397D01*
X115349928Y-42447166D01*
X115075104Y-42392500D01*
X114794896Y-42392500D01*
X114520072Y-42447166D01*
X114261194Y-42554397D01*
X114028209Y-42710072D01*
X113830072Y-42908209D01*
X113674397Y-43141194D01*
X113567166Y-43400072D01*
X113512500Y-43674896D01*
X85011904Y-43674896D01*
X85082476Y-43637174D01*
X85198201Y-43542201D01*
X85222004Y-43513197D01*
X85245398Y-43489803D01*
X85274401Y-43466001D01*
X85340276Y-43385732D01*
X85372815Y-43395602D01*
X85521800Y-43410276D01*
X85670785Y-43395602D01*
X85754345Y-43370255D01*
X85902800Y-43384877D01*
X86051786Y-43370203D01*
X86093300Y-43357610D01*
X86134814Y-43370203D01*
X86246467Y-43381200D01*
X86449678Y-43381200D01*
X86487000Y-43384876D01*
X86524322Y-43381200D01*
X86524333Y-43381200D01*
X86635986Y-43370203D01*
X86779100Y-43326791D01*
X86922214Y-43370203D01*
X87033867Y-43381200D01*
X87033877Y-43381200D01*
X87071199Y-43384876D01*
X87108522Y-43381200D01*
X87237078Y-43381200D01*
X87274400Y-43384876D01*
X87311722Y-43381200D01*
X87311733Y-43381200D01*
X87423386Y-43370203D01*
X87566647Y-43326746D01*
X87679160Y-43266606D01*
X87744153Y-43301346D01*
X87887414Y-43344803D01*
X88036400Y-43359477D01*
X88185385Y-43344803D01*
X88328646Y-43301346D01*
X88460675Y-43230774D01*
X88576401Y-43135801D01*
X88671374Y-43020076D01*
X88741946Y-42888047D01*
X88785403Y-42744786D01*
X88796400Y-42633133D01*
X88796400Y-42632731D01*
X88874574Y-42537476D01*
X88945146Y-42405447D01*
X88988603Y-42262186D01*
X89003277Y-42113200D01*
X88988603Y-41964214D01*
X88945146Y-41820953D01*
X88874574Y-41688924D01*
X88796400Y-41593669D01*
X88796400Y-41566322D01*
X88800076Y-41528999D01*
X88796400Y-41491676D01*
X88796400Y-41491668D01*
X88785403Y-41380015D01*
X88741946Y-41236754D01*
X88671374Y-41104724D01*
X88576401Y-40988999D01*
X88547397Y-40965196D01*
X88397004Y-40814803D01*
X88373201Y-40785799D01*
X88257476Y-40690826D01*
X88125447Y-40620254D01*
X87982186Y-40576797D01*
X87870533Y-40565800D01*
X87870522Y-40565800D01*
X87833200Y-40562124D01*
X87795878Y-40565800D01*
X87616522Y-40565800D01*
X87579199Y-40562124D01*
X87541877Y-40565800D01*
X87541867Y-40565800D01*
X87430214Y-40576797D01*
X87286953Y-40620254D01*
X87154924Y-40690826D01*
X87039199Y-40785799D01*
X87015396Y-40814803D01*
X86888401Y-40941798D01*
X86817226Y-41028524D01*
X86746654Y-41160554D01*
X86703198Y-41303815D01*
X86688524Y-41452800D01*
X86690433Y-41472182D01*
X86690201Y-41472252D01*
X86662564Y-41463869D01*
X86651803Y-41354614D01*
X86608346Y-41211353D01*
X86537774Y-41079324D01*
X86442801Y-40963599D01*
X86327076Y-40868626D01*
X86195047Y-40798054D01*
X86051786Y-40754597D01*
X85902800Y-40739923D01*
X85753815Y-40754597D01*
X85610554Y-40798054D01*
X85478525Y-40868626D01*
X85362800Y-40963599D01*
X85267827Y-41079324D01*
X85197255Y-41211353D01*
X85153798Y-41354614D01*
X85142801Y-41466267D01*
X85142801Y-41503604D01*
X85101542Y-41537464D01*
X85001246Y-41483854D01*
X84857985Y-41440397D01*
X84709000Y-41425723D01*
X84560014Y-41440397D01*
X84455000Y-41472252D01*
X84349986Y-41440397D01*
X84201000Y-41425723D01*
X84052015Y-41440397D01*
X83972401Y-41464547D01*
X83892786Y-41440397D01*
X83781133Y-41429400D01*
X83781122Y-41429400D01*
X83743800Y-41425724D01*
X83706478Y-41429400D01*
X83552522Y-41429400D01*
X83515199Y-41425724D01*
X83477877Y-41429400D01*
X83477867Y-41429400D01*
X83366214Y-41440397D01*
X83269660Y-41469686D01*
X83248647Y-41458454D01*
X83105386Y-41414997D01*
X82993733Y-41404000D01*
X82993722Y-41404000D01*
X82956400Y-41400324D01*
X82919078Y-41404000D01*
X82690467Y-41404000D01*
X82578814Y-41414997D01*
X82435553Y-41458454D01*
X82303524Y-41529026D01*
X82187799Y-41623999D01*
X82092826Y-41739724D01*
X82022254Y-41871753D01*
X81978797Y-42015014D01*
X81964123Y-42164000D01*
X74266828Y-42164000D01*
X85190829Y-31240000D01*
X86986822Y-31240000D01*
X87111525Y-31426632D01*
X87318368Y-31633475D01*
X87561589Y-31795990D01*
X87831842Y-31907932D01*
X88118740Y-31965000D01*
X88411260Y-31965000D01*
X88698158Y-31907932D01*
X88968411Y-31795990D01*
X89211632Y-31633475D01*
X89418475Y-31426632D01*
X89540195Y-31244466D01*
X89609822Y-31361355D01*
X89804731Y-31577588D01*
X90038080Y-31751641D01*
X90300901Y-31876825D01*
X90448110Y-31921476D01*
X90678000Y-31800155D01*
X90678000Y-30607000D01*
X90658000Y-30607000D01*
X90658000Y-30353000D01*
X90678000Y-30353000D01*
X90678000Y-30333000D01*
X90932000Y-30333000D01*
X90932000Y-30353000D01*
G37*
%TD.AperFunction*%
D17*
X84757459Y-28623459D02*
X84731611Y-28654955D01*
X76874068Y-36512500D01*
X66159493Y-36512500D01*
X66022246Y-36420795D01*
X65833888Y-36342774D01*
X65633929Y-36303000D01*
X65430051Y-36303000D01*
X65230092Y-36342774D01*
X65041734Y-36420795D01*
X64904487Y-36512500D01*
X64000503Y-36512500D01*
X63863256Y-36420795D01*
X63674898Y-36342774D01*
X63474939Y-36303000D01*
X63271061Y-36303000D01*
X63071102Y-36342774D01*
X62882744Y-36420795D01*
X62713226Y-36534063D01*
X62569063Y-36678226D01*
X62455795Y-36847744D01*
X62436842Y-36893500D01*
X55999503Y-36893500D01*
X55862256Y-36801795D01*
X55673898Y-36723774D01*
X55473939Y-36684000D01*
X55270061Y-36684000D01*
X55070102Y-36723774D01*
X54881744Y-36801795D01*
X54712226Y-36915063D01*
X54568063Y-37059226D01*
X54454795Y-37228744D01*
X54376774Y-37417102D01*
X54337000Y-37617061D01*
X54337000Y-37820939D01*
X54376774Y-38020898D01*
X54454795Y-38209256D01*
X54568063Y-38378774D01*
X54712226Y-38522937D01*
X54881744Y-38636205D01*
X55070102Y-38714226D01*
X55270061Y-38754000D01*
X55473939Y-38754000D01*
X55673898Y-38714226D01*
X55862256Y-38636205D01*
X55999503Y-38544500D01*
X62547501Y-38544500D01*
X62547500Y-42965067D01*
X58660996Y-46851571D01*
X58499102Y-46883774D01*
X58310744Y-46961795D01*
X58141226Y-47075063D01*
X57997063Y-47219226D01*
X57883795Y-47388744D01*
X57805774Y-47577102D01*
X57766000Y-47777061D01*
X57766000Y-47980939D01*
X57805774Y-48180898D01*
X57883795Y-48369256D01*
X57997063Y-48538774D01*
X58141226Y-48682937D01*
X58310744Y-48796205D01*
X58499102Y-48874226D01*
X58699061Y-48914000D01*
X58902939Y-48914000D01*
X58907957Y-48913002D01*
X58907956Y-55876965D01*
X58888042Y-55847161D01*
X58743879Y-55702998D01*
X58574361Y-55589730D01*
X58386003Y-55511709D01*
X58186044Y-55471935D01*
X57982166Y-55471935D01*
X57782207Y-55511709D01*
X57593849Y-55589730D01*
X57424331Y-55702998D01*
X57380394Y-55746935D01*
X53646737Y-55746935D01*
X39541209Y-41641408D01*
X39585000Y-41421260D01*
X39585000Y-41128740D01*
X39527932Y-40841842D01*
X39415990Y-40571589D01*
X39253475Y-40328368D01*
X39121620Y-40196513D01*
X39194180Y-40174502D01*
X39304494Y-40115537D01*
X39401185Y-40036185D01*
X39480537Y-39939494D01*
X39539502Y-39829180D01*
X39575812Y-39709482D01*
X39588072Y-39585000D01*
X39588072Y-37885000D01*
X39575812Y-37760518D01*
X39539502Y-37640820D01*
X39480537Y-37530506D01*
X39401185Y-37433815D01*
X39304494Y-37354463D01*
X39194180Y-37295498D01*
X39074482Y-37259188D01*
X38950000Y-37246928D01*
X37250000Y-37246928D01*
X37125518Y-37259188D01*
X37079862Y-37273038D01*
X39697279Y-32910675D01*
X44315000Y-32910675D01*
X44315000Y-33129325D01*
X44357657Y-33343775D01*
X44441331Y-33545782D01*
X44562807Y-33727584D01*
X44717416Y-33882193D01*
X44899218Y-34003669D01*
X45101225Y-34087343D01*
X45315675Y-34130000D01*
X45534325Y-34130000D01*
X45748775Y-34087343D01*
X45950782Y-34003669D01*
X46132584Y-33882193D01*
X46287193Y-33727584D01*
X46408669Y-33545782D01*
X46492343Y-33343775D01*
X46535000Y-33129325D01*
X46535000Y-32910675D01*
X48715000Y-32910675D01*
X48715000Y-33129325D01*
X48757657Y-33343775D01*
X48841331Y-33545782D01*
X48962807Y-33727584D01*
X49117416Y-33882193D01*
X49299218Y-34003669D01*
X49501225Y-34087343D01*
X49715675Y-34130000D01*
X49934325Y-34130000D01*
X50148775Y-34087343D01*
X50350782Y-34003669D01*
X50532584Y-33882193D01*
X50687193Y-33727584D01*
X50808669Y-33545782D01*
X50892343Y-33343775D01*
X50935000Y-33129325D01*
X50935000Y-32910675D01*
X50892343Y-32696225D01*
X50808669Y-32494218D01*
X50687193Y-32312416D01*
X50532584Y-32157807D01*
X50350782Y-32036331D01*
X50148775Y-31952657D01*
X49934325Y-31910000D01*
X49715675Y-31910000D01*
X49501225Y-31952657D01*
X49299218Y-32036331D01*
X49117416Y-32157807D01*
X48962807Y-32312416D01*
X48841331Y-32494218D01*
X48757657Y-32696225D01*
X48715000Y-32910675D01*
X46535000Y-32910675D01*
X46492343Y-32696225D01*
X46408669Y-32494218D01*
X46287193Y-32312416D01*
X46132584Y-32157807D01*
X45950782Y-32036331D01*
X45748775Y-31952657D01*
X45534325Y-31910000D01*
X45315675Y-31910000D01*
X45101225Y-31952657D01*
X44899218Y-32036331D01*
X44717416Y-32157807D01*
X44562807Y-32312416D01*
X44441331Y-32494218D01*
X44357657Y-32696225D01*
X44315000Y-32910675D01*
X39697279Y-32910675D01*
X42283685Y-28600000D01*
X84786044Y-28600000D01*
X84757459Y-28623459D01*
%TA.AperFunction,Conductor*%
D18*
G36*
X84757459Y-28623459D02*
G01*
X84731611Y-28654955D01*
X76874068Y-36512500D01*
X66159493Y-36512500D01*
X66022246Y-36420795D01*
X65833888Y-36342774D01*
X65633929Y-36303000D01*
X65430051Y-36303000D01*
X65230092Y-36342774D01*
X65041734Y-36420795D01*
X64904487Y-36512500D01*
X64000503Y-36512500D01*
X63863256Y-36420795D01*
X63674898Y-36342774D01*
X63474939Y-36303000D01*
X63271061Y-36303000D01*
X63071102Y-36342774D01*
X62882744Y-36420795D01*
X62713226Y-36534063D01*
X62569063Y-36678226D01*
X62455795Y-36847744D01*
X62436842Y-36893500D01*
X55999503Y-36893500D01*
X55862256Y-36801795D01*
X55673898Y-36723774D01*
X55473939Y-36684000D01*
X55270061Y-36684000D01*
X55070102Y-36723774D01*
X54881744Y-36801795D01*
X54712226Y-36915063D01*
X54568063Y-37059226D01*
X54454795Y-37228744D01*
X54376774Y-37417102D01*
X54337000Y-37617061D01*
X54337000Y-37820939D01*
X54376774Y-38020898D01*
X54454795Y-38209256D01*
X54568063Y-38378774D01*
X54712226Y-38522937D01*
X54881744Y-38636205D01*
X55070102Y-38714226D01*
X55270061Y-38754000D01*
X55473939Y-38754000D01*
X55673898Y-38714226D01*
X55862256Y-38636205D01*
X55999503Y-38544500D01*
X62547501Y-38544500D01*
X62547500Y-42965067D01*
X58660996Y-46851571D01*
X58499102Y-46883774D01*
X58310744Y-46961795D01*
X58141226Y-47075063D01*
X57997063Y-47219226D01*
X57883795Y-47388744D01*
X57805774Y-47577102D01*
X57766000Y-47777061D01*
X57766000Y-47980939D01*
X57805774Y-48180898D01*
X57883795Y-48369256D01*
X57997063Y-48538774D01*
X58141226Y-48682937D01*
X58310744Y-48796205D01*
X58499102Y-48874226D01*
X58699061Y-48914000D01*
X58902939Y-48914000D01*
X58907957Y-48913002D01*
X58907956Y-55876965D01*
X58888042Y-55847161D01*
X58743879Y-55702998D01*
X58574361Y-55589730D01*
X58386003Y-55511709D01*
X58186044Y-55471935D01*
X57982166Y-55471935D01*
X57782207Y-55511709D01*
X57593849Y-55589730D01*
X57424331Y-55702998D01*
X57380394Y-55746935D01*
X53646737Y-55746935D01*
X39541209Y-41641408D01*
X39585000Y-41421260D01*
X39585000Y-41128740D01*
X39527932Y-40841842D01*
X39415990Y-40571589D01*
X39253475Y-40328368D01*
X39121620Y-40196513D01*
X39194180Y-40174502D01*
X39304494Y-40115537D01*
X39401185Y-40036185D01*
X39480537Y-39939494D01*
X39539502Y-39829180D01*
X39575812Y-39709482D01*
X39588072Y-39585000D01*
X39588072Y-37885000D01*
X39575812Y-37760518D01*
X39539502Y-37640820D01*
X39480537Y-37530506D01*
X39401185Y-37433815D01*
X39304494Y-37354463D01*
X39194180Y-37295498D01*
X39074482Y-37259188D01*
X38950000Y-37246928D01*
X37250000Y-37246928D01*
X37125518Y-37259188D01*
X37079862Y-37273038D01*
X39697279Y-32910675D01*
X44315000Y-32910675D01*
X44315000Y-33129325D01*
X44357657Y-33343775D01*
X44441331Y-33545782D01*
X44562807Y-33727584D01*
X44717416Y-33882193D01*
X44899218Y-34003669D01*
X45101225Y-34087343D01*
X45315675Y-34130000D01*
X45534325Y-34130000D01*
X45748775Y-34087343D01*
X45950782Y-34003669D01*
X46132584Y-33882193D01*
X46287193Y-33727584D01*
X46408669Y-33545782D01*
X46492343Y-33343775D01*
X46535000Y-33129325D01*
X46535000Y-32910675D01*
X48715000Y-32910675D01*
X48715000Y-33129325D01*
X48757657Y-33343775D01*
X48841331Y-33545782D01*
X48962807Y-33727584D01*
X49117416Y-33882193D01*
X49299218Y-34003669D01*
X49501225Y-34087343D01*
X49715675Y-34130000D01*
X49934325Y-34130000D01*
X50148775Y-34087343D01*
X50350782Y-34003669D01*
X50532584Y-33882193D01*
X50687193Y-33727584D01*
X50808669Y-33545782D01*
X50892343Y-33343775D01*
X50935000Y-33129325D01*
X50935000Y-32910675D01*
X50892343Y-32696225D01*
X50808669Y-32494218D01*
X50687193Y-32312416D01*
X50532584Y-32157807D01*
X50350782Y-32036331D01*
X50148775Y-31952657D01*
X49934325Y-31910000D01*
X49715675Y-31910000D01*
X49501225Y-31952657D01*
X49299218Y-32036331D01*
X49117416Y-32157807D01*
X48962807Y-32312416D01*
X48841331Y-32494218D01*
X48757657Y-32696225D01*
X48715000Y-32910675D01*
X46535000Y-32910675D01*
X46492343Y-32696225D01*
X46408669Y-32494218D01*
X46287193Y-32312416D01*
X46132584Y-32157807D01*
X45950782Y-32036331D01*
X45748775Y-31952657D01*
X45534325Y-31910000D01*
X45315675Y-31910000D01*
X45101225Y-31952657D01*
X44899218Y-32036331D01*
X44717416Y-32157807D01*
X44562807Y-32312416D01*
X44441331Y-32494218D01*
X44357657Y-32696225D01*
X44315000Y-32910675D01*
X39697279Y-32910675D01*
X42283685Y-28600000D01*
X84786044Y-28600000D01*
X84757459Y-28623459D01*
G37*
%TD.AperFunction*%
%TD*%
M02*
