%TF.GenerationSoftware,KiCad,Pcbnew,(5.1.7-0-10_14)*%
%TF.CreationDate,2021-01-27T15:42:45+08:00*%
%TF.ProjectId,BreadControl,42726561-6443-46f6-9e74-726f6c2e6b69,rev?*%
%TF.SameCoordinates,Original*%
%TF.FileFunction,Legend,Top*%
%TF.FilePolarity,Positive*%
%FSLAX46Y46*%
G04 Gerber Fmt 4.6, Leading zero omitted, Abs format (unit mm)*
G04 Created by KiCad (PCBNEW (5.1.7-0-10_14)) date 2021-01-27 15:42:45*
%MOMM*%
%LPD*%
G01*
G04 APERTURE LIST*
%ADD10C,0.200000*%
%ADD11C,0.127000*%
%ADD12C,0.150000*%
%ADD13C,0.120000*%
%ADD14C,0.015000*%
G04 APERTURE END LIST*
D10*
%TO.C,J4*%
X49325000Y-37320000D02*
G75*
G03*
X49325000Y-37320000I-100000J0D01*
G01*
D11*
X43775000Y-27170000D02*
X51475000Y-27170000D01*
X43775000Y-28550000D02*
X43775000Y-27170000D01*
X43775000Y-34000000D02*
X43775000Y-31690000D01*
X45455000Y-36370000D02*
X44495000Y-36370000D01*
X50755000Y-36370000D02*
X49795000Y-36370000D01*
X51475000Y-31690000D02*
X51475000Y-34000000D01*
X51475000Y-27170000D02*
X51475000Y-28550000D01*
D12*
%TO.C,U4*%
X86575000Y-75605000D02*
X85225000Y-75605000D01*
X86575000Y-80730000D02*
X91225000Y-80730000D01*
X86575000Y-75480000D02*
X91225000Y-75480000D01*
X86575000Y-80730000D02*
X86575000Y-80505000D01*
X91225000Y-80730000D02*
X91225000Y-80505000D01*
X91225000Y-75480000D02*
X91225000Y-75705000D01*
X86575000Y-75480000D02*
X86575000Y-75605000D01*
%TO.C,U3*%
X51493000Y-64110000D02*
X50118000Y-64110000D01*
X58743000Y-63685000D02*
X58218000Y-63685000D01*
X58743000Y-70935000D02*
X58218000Y-70935000D01*
X51493000Y-70935000D02*
X52018000Y-70935000D01*
X51493000Y-63685000D02*
X52018000Y-63685000D01*
X51493000Y-70935000D02*
X51493000Y-70410000D01*
X58743000Y-70935000D02*
X58743000Y-70410000D01*
X58743000Y-63685000D02*
X58743000Y-64210000D01*
X51493000Y-63685000D02*
X51493000Y-64110000D01*
D13*
%TO.C,U2*%
X100478100Y-65012882D02*
X100478100Y-64695000D01*
X99302882Y-66188100D02*
X100478100Y-65012882D01*
X98985000Y-66188100D02*
X99302882Y-66188100D01*
X83671900Y-49381900D02*
X83671900Y-50875000D01*
X85165000Y-49381900D02*
X83671900Y-49381900D01*
X100478100Y-49381900D02*
X100478100Y-50875000D01*
X98985000Y-49381900D02*
X100478100Y-49381900D01*
X83671900Y-66188100D02*
X83671900Y-64695000D01*
X85165000Y-66188100D02*
X83671900Y-66188100D01*
%TO.C,U1*%
X60960000Y-46980000D02*
X64410000Y-46980000D01*
X60960000Y-46980000D02*
X59010000Y-46980000D01*
X60960000Y-38110000D02*
X62910000Y-38110000D01*
X60960000Y-38110000D02*
X59010000Y-38110000D01*
%TO.C,R23*%
X127618748Y-80085000D02*
X128141252Y-80085000D01*
X127618748Y-78665000D02*
X128141252Y-78665000D01*
%TO.C,R22*%
X135330000Y-80271252D02*
X135330000Y-79748748D01*
X133910000Y-80271252D02*
X133910000Y-79748748D01*
%TO.C,R21*%
X123563748Y-80085000D02*
X124086252Y-80085000D01*
X123563748Y-78665000D02*
X124086252Y-78665000D01*
%TO.C,R20*%
X130735000Y-79748748D02*
X130735000Y-80271252D01*
X132155000Y-79748748D02*
X132155000Y-80271252D01*
%TO.C,R19*%
X70291051Y-58030439D02*
X69768547Y-58030439D01*
X70291051Y-59450439D02*
X69768547Y-59450439D01*
%TO.C,R18*%
X70289052Y-61126300D02*
X69766548Y-61126300D01*
X70289052Y-62546300D02*
X69766548Y-62546300D01*
%TO.C,R17*%
X74746752Y-58027500D02*
X74224248Y-58027500D01*
X74746752Y-59447500D02*
X74224248Y-59447500D01*
%TO.C,R16*%
X74746752Y-61113600D02*
X74224248Y-61113600D01*
X74746752Y-62533600D02*
X74224248Y-62533600D01*
%TO.C,R15*%
X111498748Y-80085000D02*
X112021252Y-80085000D01*
X111498748Y-78665000D02*
X112021252Y-78665000D01*
%TO.C,R14*%
X119455000Y-80271252D02*
X119455000Y-79748748D01*
X118035000Y-80271252D02*
X118035000Y-79748748D01*
%TO.C,R13*%
X107053748Y-80085000D02*
X107576252Y-80085000D01*
X107053748Y-78665000D02*
X107576252Y-78665000D01*
%TO.C,R12*%
X114860000Y-79748748D02*
X114860000Y-80271252D01*
X116280000Y-79748748D02*
X116280000Y-80271252D01*
%TO.C,R11*%
X73100000Y-35186252D02*
X73100000Y-34663748D01*
X71680000Y-35186252D02*
X71680000Y-34663748D01*
%TO.C,C7*%
X54348748Y-76275000D02*
X54871252Y-76275000D01*
X54348748Y-74855000D02*
X54871252Y-74855000D01*
%TO.C,C6*%
X56141252Y-49455000D02*
X55618748Y-49455000D01*
X56141252Y-50875000D02*
X55618748Y-50875000D01*
%TO.C,R5*%
X69925000Y-35186252D02*
X69925000Y-34663748D01*
X68505000Y-35186252D02*
X68505000Y-34663748D01*
%TO.C,R4*%
X62491252Y-49455000D02*
X61968748Y-49455000D01*
X62491252Y-50875000D02*
X61968748Y-50875000D01*
%TO.C,R3*%
X62491252Y-52630000D02*
X61968748Y-52630000D01*
X62491252Y-54050000D02*
X61968748Y-54050000D01*
%TO.C,R2*%
X66750000Y-35186252D02*
X66750000Y-34663748D01*
X65330000Y-35186252D02*
X65330000Y-34663748D01*
%TO.C,R1*%
X63575000Y-35186252D02*
X63575000Y-34663748D01*
X62155000Y-35186252D02*
X62155000Y-34663748D01*
D11*
%TO.C,PS1*%
X110235000Y-45290000D02*
X129735000Y-45290000D01*
X110235000Y-39190000D02*
X110235000Y-45290000D01*
X129735000Y-39190000D02*
X110235000Y-39190000D01*
X129735000Y-45290000D02*
X129735000Y-39190000D01*
D10*
X127735000Y-38615000D02*
G75*
G03*
X127735000Y-38615000I-100000J0D01*
G01*
D13*
%TO.C,M2*%
X127265000Y-73955000D02*
X124815000Y-73955000D01*
X125465000Y-77175000D02*
X127265000Y-77175000D01*
%TO.C,M1*%
X111390000Y-74082000D02*
X108940000Y-74082000D01*
X109590000Y-77302000D02*
X111390000Y-77302000D01*
%TO.C,L2*%
X129380000Y-71381252D02*
X129380000Y-70858748D01*
X127160000Y-71381252D02*
X127160000Y-70858748D01*
%TO.C,L1*%
X113505000Y-71381252D02*
X113505000Y-70858748D01*
X111285000Y-71381252D02*
X111285000Y-70858748D01*
%TO.C,J3*%
X94675000Y-29150000D02*
X94675000Y-30480000D01*
X93345000Y-29150000D02*
X94675000Y-29150000D01*
X92075000Y-29150000D02*
X92075000Y-31810000D01*
X92075000Y-31810000D02*
X86935000Y-31810000D01*
X92075000Y-29150000D02*
X86935000Y-29150000D01*
X86935000Y-29150000D02*
X86935000Y-31810000D01*
%TO.C,J2*%
X140910000Y-37405000D02*
X142240000Y-37405000D01*
X140910000Y-38735000D02*
X140910000Y-37405000D01*
X140910000Y-40005000D02*
X143570000Y-40005000D01*
X143570000Y-40005000D02*
X143570000Y-78165000D01*
X140910000Y-40005000D02*
X140910000Y-78165000D01*
X140910000Y-78165000D02*
X143570000Y-78165000D01*
%TO.C,J1*%
X36770000Y-37405000D02*
X38100000Y-37405000D01*
X36770000Y-38735000D02*
X36770000Y-37405000D01*
X36770000Y-40005000D02*
X39430000Y-40005000D01*
X39430000Y-40005000D02*
X39430000Y-78165000D01*
X36770000Y-40005000D02*
X36770000Y-78165000D01*
X36770000Y-78165000D02*
X39430000Y-78165000D01*
%TO.C,D6*%
X135250000Y-72605000D02*
X132100000Y-72605000D01*
X135250000Y-70905000D02*
X132100000Y-70905000D01*
X135250000Y-72605000D02*
X135250000Y-70905000D01*
%TO.C,D5*%
X119375000Y-72605000D02*
X116225000Y-72605000D01*
X119375000Y-70905000D02*
X116225000Y-70905000D01*
X119375000Y-72605000D02*
X119375000Y-70905000D01*
%TO.C,D4*%
X71655000Y-28820000D02*
X71655000Y-31280000D01*
X73125000Y-28820000D02*
X71655000Y-28820000D01*
X73125000Y-31280000D02*
X73125000Y-28820000D01*
%TO.C,D3*%
X68480000Y-28820000D02*
X68480000Y-31280000D01*
X69950000Y-28820000D02*
X68480000Y-28820000D01*
X69950000Y-31280000D02*
X69950000Y-28820000D01*
%TO.C,D2*%
X65305000Y-28820000D02*
X65305000Y-31280000D01*
X66775000Y-28820000D02*
X65305000Y-28820000D01*
X66775000Y-31280000D02*
X66775000Y-28820000D01*
%TO.C,D1*%
X62130000Y-28820000D02*
X62130000Y-31280000D01*
X63600000Y-28820000D02*
X62130000Y-28820000D01*
X63600000Y-31280000D02*
X63600000Y-28820000D01*
%TO.C,C5*%
X130735000Y-75303748D02*
X130735000Y-75826252D01*
X132155000Y-75303748D02*
X132155000Y-75826252D01*
%TO.C,C4*%
X133910000Y-75303748D02*
X133910000Y-75826252D01*
X135330000Y-75303748D02*
X135330000Y-75826252D01*
%TO.C,C3*%
X114860000Y-75303748D02*
X114860000Y-75826252D01*
X116280000Y-75303748D02*
X116280000Y-75826252D01*
%TO.C,C2*%
X118035000Y-75303748D02*
X118035000Y-75826252D01*
X119455000Y-75303748D02*
X119455000Y-75826252D01*
%TO.C,C1*%
X56141252Y-52630000D02*
X55618748Y-52630000D01*
X56141252Y-54050000D02*
X55618748Y-54050000D01*
%TO.C,J4*%
D14*
X49616666Y-39607380D02*
X49616666Y-40321666D01*
X49569047Y-40464523D01*
X49473809Y-40559761D01*
X49330952Y-40607380D01*
X49235714Y-40607380D01*
X50521428Y-39940714D02*
X50521428Y-40607380D01*
X50283333Y-39559761D02*
X50045238Y-40274047D01*
X50664285Y-40274047D01*
%TO.C,U4*%
D12*
X88138095Y-74007380D02*
X88138095Y-74816904D01*
X88185714Y-74912142D01*
X88233333Y-74959761D01*
X88328571Y-75007380D01*
X88519047Y-75007380D01*
X88614285Y-74959761D01*
X88661904Y-74912142D01*
X88709523Y-74816904D01*
X88709523Y-74007380D01*
X89614285Y-74340714D02*
X89614285Y-75007380D01*
X89376190Y-73959761D02*
X89138095Y-74674047D01*
X89757142Y-74674047D01*
%TO.C,U3*%
X54356095Y-60762380D02*
X54356095Y-61571904D01*
X54403714Y-61667142D01*
X54451333Y-61714761D01*
X54546571Y-61762380D01*
X54737047Y-61762380D01*
X54832285Y-61714761D01*
X54879904Y-61667142D01*
X54927523Y-61571904D01*
X54927523Y-60762380D01*
X55308476Y-60762380D02*
X55927523Y-60762380D01*
X55594190Y-61143333D01*
X55737047Y-61143333D01*
X55832285Y-61190952D01*
X55879904Y-61238571D01*
X55927523Y-61333809D01*
X55927523Y-61571904D01*
X55879904Y-61667142D01*
X55832285Y-61714761D01*
X55737047Y-61762380D01*
X55451333Y-61762380D01*
X55356095Y-61714761D01*
X55308476Y-61667142D01*
%TO.C,U2*%
X91313095Y-67037380D02*
X91313095Y-67846904D01*
X91360714Y-67942142D01*
X91408333Y-67989761D01*
X91503571Y-68037380D01*
X91694047Y-68037380D01*
X91789285Y-67989761D01*
X91836904Y-67942142D01*
X91884523Y-67846904D01*
X91884523Y-67037380D01*
X92313095Y-67132619D02*
X92360714Y-67085000D01*
X92455952Y-67037380D01*
X92694047Y-67037380D01*
X92789285Y-67085000D01*
X92836904Y-67132619D01*
X92884523Y-67227857D01*
X92884523Y-67323095D01*
X92836904Y-67465952D01*
X92265476Y-68037380D01*
X92884523Y-68037380D01*
%TO.C,U1*%
X60198095Y-47277380D02*
X60198095Y-48086904D01*
X60245714Y-48182142D01*
X60293333Y-48229761D01*
X60388571Y-48277380D01*
X60579047Y-48277380D01*
X60674285Y-48229761D01*
X60721904Y-48182142D01*
X60769523Y-48086904D01*
X60769523Y-47277380D01*
X61769523Y-48277380D02*
X61198095Y-48277380D01*
X61483809Y-48277380D02*
X61483809Y-47277380D01*
X61388571Y-47420238D01*
X61293333Y-47515476D01*
X61198095Y-47563095D01*
%TO.C,R23*%
X127237142Y-81605380D02*
X126903809Y-81129190D01*
X126665714Y-81605380D02*
X126665714Y-80605380D01*
X127046666Y-80605380D01*
X127141904Y-80653000D01*
X127189523Y-80700619D01*
X127237142Y-80795857D01*
X127237142Y-80938714D01*
X127189523Y-81033952D01*
X127141904Y-81081571D01*
X127046666Y-81129190D01*
X126665714Y-81129190D01*
X127618095Y-80700619D02*
X127665714Y-80653000D01*
X127760952Y-80605380D01*
X127999047Y-80605380D01*
X128094285Y-80653000D01*
X128141904Y-80700619D01*
X128189523Y-80795857D01*
X128189523Y-80891095D01*
X128141904Y-81033952D01*
X127570476Y-81605380D01*
X128189523Y-81605380D01*
X128522857Y-80605380D02*
X129141904Y-80605380D01*
X128808571Y-80986333D01*
X128951428Y-80986333D01*
X129046666Y-81033952D01*
X129094285Y-81081571D01*
X129141904Y-81176809D01*
X129141904Y-81414904D01*
X129094285Y-81510142D01*
X129046666Y-81557761D01*
X128951428Y-81605380D01*
X128665714Y-81605380D01*
X128570476Y-81557761D01*
X128522857Y-81510142D01*
%TO.C,R22*%
X136723380Y-80652857D02*
X136247190Y-80986190D01*
X136723380Y-81224285D02*
X135723380Y-81224285D01*
X135723380Y-80843333D01*
X135771000Y-80748095D01*
X135818619Y-80700476D01*
X135913857Y-80652857D01*
X136056714Y-80652857D01*
X136151952Y-80700476D01*
X136199571Y-80748095D01*
X136247190Y-80843333D01*
X136247190Y-81224285D01*
X135818619Y-80271904D02*
X135771000Y-80224285D01*
X135723380Y-80129047D01*
X135723380Y-79890952D01*
X135771000Y-79795714D01*
X135818619Y-79748095D01*
X135913857Y-79700476D01*
X136009095Y-79700476D01*
X136151952Y-79748095D01*
X136723380Y-80319523D01*
X136723380Y-79700476D01*
X135818619Y-79319523D02*
X135771000Y-79271904D01*
X135723380Y-79176666D01*
X135723380Y-78938571D01*
X135771000Y-78843333D01*
X135818619Y-78795714D01*
X135913857Y-78748095D01*
X136009095Y-78748095D01*
X136151952Y-78795714D01*
X136723380Y-79367142D01*
X136723380Y-78748095D01*
%TO.C,R21*%
X123182142Y-81478380D02*
X122848809Y-81002190D01*
X122610714Y-81478380D02*
X122610714Y-80478380D01*
X122991666Y-80478380D01*
X123086904Y-80526000D01*
X123134523Y-80573619D01*
X123182142Y-80668857D01*
X123182142Y-80811714D01*
X123134523Y-80906952D01*
X123086904Y-80954571D01*
X122991666Y-81002190D01*
X122610714Y-81002190D01*
X123563095Y-80573619D02*
X123610714Y-80526000D01*
X123705952Y-80478380D01*
X123944047Y-80478380D01*
X124039285Y-80526000D01*
X124086904Y-80573619D01*
X124134523Y-80668857D01*
X124134523Y-80764095D01*
X124086904Y-80906952D01*
X123515476Y-81478380D01*
X124134523Y-81478380D01*
X125086904Y-81478380D02*
X124515476Y-81478380D01*
X124801190Y-81478380D02*
X124801190Y-80478380D01*
X124705952Y-80621238D01*
X124610714Y-80716476D01*
X124515476Y-80764095D01*
%TO.C,R20*%
X133547380Y-80652857D02*
X133071190Y-80986190D01*
X133547380Y-81224285D02*
X132547380Y-81224285D01*
X132547380Y-80843333D01*
X132595000Y-80748095D01*
X132642619Y-80700476D01*
X132737857Y-80652857D01*
X132880714Y-80652857D01*
X132975952Y-80700476D01*
X133023571Y-80748095D01*
X133071190Y-80843333D01*
X133071190Y-81224285D01*
X132642619Y-80271904D02*
X132595000Y-80224285D01*
X132547380Y-80129047D01*
X132547380Y-79890952D01*
X132595000Y-79795714D01*
X132642619Y-79748095D01*
X132737857Y-79700476D01*
X132833095Y-79700476D01*
X132975952Y-79748095D01*
X133547380Y-80319523D01*
X133547380Y-79700476D01*
X132547380Y-79081428D02*
X132547380Y-78986190D01*
X132595000Y-78890952D01*
X132642619Y-78843333D01*
X132737857Y-78795714D01*
X132928333Y-78748095D01*
X133166428Y-78748095D01*
X133356904Y-78795714D01*
X133452142Y-78843333D01*
X133499761Y-78890952D01*
X133547380Y-78986190D01*
X133547380Y-79081428D01*
X133499761Y-79176666D01*
X133452142Y-79224285D01*
X133356904Y-79271904D01*
X133166428Y-79319523D01*
X132928333Y-79319523D01*
X132737857Y-79271904D01*
X132642619Y-79224285D01*
X132595000Y-79176666D01*
X132547380Y-79081428D01*
%TO.C,R19*%
X69386941Y-60842819D02*
X69053608Y-60366629D01*
X68815513Y-60842819D02*
X68815513Y-59842819D01*
X69196465Y-59842819D01*
X69291703Y-59890439D01*
X69339322Y-59938058D01*
X69386941Y-60033296D01*
X69386941Y-60176153D01*
X69339322Y-60271391D01*
X69291703Y-60319010D01*
X69196465Y-60366629D01*
X68815513Y-60366629D01*
X70339322Y-60842819D02*
X69767894Y-60842819D01*
X70053608Y-60842819D02*
X70053608Y-59842819D01*
X69958370Y-59985677D01*
X69863132Y-60080915D01*
X69767894Y-60128534D01*
X70815513Y-60842819D02*
X71005989Y-60842819D01*
X71101227Y-60795200D01*
X71148846Y-60747581D01*
X71244084Y-60604724D01*
X71291703Y-60414248D01*
X71291703Y-60033296D01*
X71244084Y-59938058D01*
X71196465Y-59890439D01*
X71101227Y-59842819D01*
X70910751Y-59842819D01*
X70815513Y-59890439D01*
X70767894Y-59938058D01*
X70720275Y-60033296D01*
X70720275Y-60271391D01*
X70767894Y-60366629D01*
X70815513Y-60414248D01*
X70910751Y-60461867D01*
X71101227Y-60461867D01*
X71196465Y-60414248D01*
X71244084Y-60366629D01*
X71291703Y-60271391D01*
%TO.C,R18*%
X69384942Y-63938680D02*
X69051609Y-63462490D01*
X68813514Y-63938680D02*
X68813514Y-62938680D01*
X69194466Y-62938680D01*
X69289704Y-62986300D01*
X69337323Y-63033919D01*
X69384942Y-63129157D01*
X69384942Y-63272014D01*
X69337323Y-63367252D01*
X69289704Y-63414871D01*
X69194466Y-63462490D01*
X68813514Y-63462490D01*
X70337323Y-63938680D02*
X69765895Y-63938680D01*
X70051609Y-63938680D02*
X70051609Y-62938680D01*
X69956371Y-63081538D01*
X69861133Y-63176776D01*
X69765895Y-63224395D01*
X70908752Y-63367252D02*
X70813514Y-63319633D01*
X70765895Y-63272014D01*
X70718276Y-63176776D01*
X70718276Y-63129157D01*
X70765895Y-63033919D01*
X70813514Y-62986300D01*
X70908752Y-62938680D01*
X71099228Y-62938680D01*
X71194466Y-62986300D01*
X71242085Y-63033919D01*
X71289704Y-63129157D01*
X71289704Y-63176776D01*
X71242085Y-63272014D01*
X71194466Y-63319633D01*
X71099228Y-63367252D01*
X70908752Y-63367252D01*
X70813514Y-63414871D01*
X70765895Y-63462490D01*
X70718276Y-63557728D01*
X70718276Y-63748204D01*
X70765895Y-63843442D01*
X70813514Y-63891061D01*
X70908752Y-63938680D01*
X71099228Y-63938680D01*
X71194466Y-63891061D01*
X71242085Y-63843442D01*
X71289704Y-63748204D01*
X71289704Y-63557728D01*
X71242085Y-63462490D01*
X71194466Y-63414871D01*
X71099228Y-63367252D01*
%TO.C,R17*%
X73842642Y-60839880D02*
X73509309Y-60363690D01*
X73271214Y-60839880D02*
X73271214Y-59839880D01*
X73652166Y-59839880D01*
X73747404Y-59887500D01*
X73795023Y-59935119D01*
X73842642Y-60030357D01*
X73842642Y-60173214D01*
X73795023Y-60268452D01*
X73747404Y-60316071D01*
X73652166Y-60363690D01*
X73271214Y-60363690D01*
X74795023Y-60839880D02*
X74223595Y-60839880D01*
X74509309Y-60839880D02*
X74509309Y-59839880D01*
X74414071Y-59982738D01*
X74318833Y-60077976D01*
X74223595Y-60125595D01*
X75128357Y-59839880D02*
X75795023Y-59839880D01*
X75366452Y-60839880D01*
%TO.C,R16*%
X73842642Y-63925980D02*
X73509309Y-63449790D01*
X73271214Y-63925980D02*
X73271214Y-62925980D01*
X73652166Y-62925980D01*
X73747404Y-62973600D01*
X73795023Y-63021219D01*
X73842642Y-63116457D01*
X73842642Y-63259314D01*
X73795023Y-63354552D01*
X73747404Y-63402171D01*
X73652166Y-63449790D01*
X73271214Y-63449790D01*
X74795023Y-63925980D02*
X74223595Y-63925980D01*
X74509309Y-63925980D02*
X74509309Y-62925980D01*
X74414071Y-63068838D01*
X74318833Y-63164076D01*
X74223595Y-63211695D01*
X75652166Y-62925980D02*
X75461690Y-62925980D01*
X75366452Y-62973600D01*
X75318833Y-63021219D01*
X75223595Y-63164076D01*
X75175976Y-63354552D01*
X75175976Y-63735504D01*
X75223595Y-63830742D01*
X75271214Y-63878361D01*
X75366452Y-63925980D01*
X75556928Y-63925980D01*
X75652166Y-63878361D01*
X75699785Y-63830742D01*
X75747404Y-63735504D01*
X75747404Y-63497409D01*
X75699785Y-63402171D01*
X75652166Y-63354552D01*
X75556928Y-63306933D01*
X75366452Y-63306933D01*
X75271214Y-63354552D01*
X75223595Y-63402171D01*
X75175976Y-63497409D01*
%TO.C,R15*%
X111117142Y-81478380D02*
X110783809Y-81002190D01*
X110545714Y-81478380D02*
X110545714Y-80478380D01*
X110926666Y-80478380D01*
X111021904Y-80526000D01*
X111069523Y-80573619D01*
X111117142Y-80668857D01*
X111117142Y-80811714D01*
X111069523Y-80906952D01*
X111021904Y-80954571D01*
X110926666Y-81002190D01*
X110545714Y-81002190D01*
X112069523Y-81478380D02*
X111498095Y-81478380D01*
X111783809Y-81478380D02*
X111783809Y-80478380D01*
X111688571Y-80621238D01*
X111593333Y-80716476D01*
X111498095Y-80764095D01*
X112974285Y-80478380D02*
X112498095Y-80478380D01*
X112450476Y-80954571D01*
X112498095Y-80906952D01*
X112593333Y-80859333D01*
X112831428Y-80859333D01*
X112926666Y-80906952D01*
X112974285Y-80954571D01*
X113021904Y-81049809D01*
X113021904Y-81287904D01*
X112974285Y-81383142D01*
X112926666Y-81430761D01*
X112831428Y-81478380D01*
X112593333Y-81478380D01*
X112498095Y-81430761D01*
X112450476Y-81383142D01*
%TO.C,R14*%
X121102380Y-80652857D02*
X120626190Y-80986190D01*
X121102380Y-81224285D02*
X120102380Y-81224285D01*
X120102380Y-80843333D01*
X120150000Y-80748095D01*
X120197619Y-80700476D01*
X120292857Y-80652857D01*
X120435714Y-80652857D01*
X120530952Y-80700476D01*
X120578571Y-80748095D01*
X120626190Y-80843333D01*
X120626190Y-81224285D01*
X121102380Y-79700476D02*
X121102380Y-80271904D01*
X121102380Y-79986190D02*
X120102380Y-79986190D01*
X120245238Y-80081428D01*
X120340476Y-80176666D01*
X120388095Y-80271904D01*
X120435714Y-78843333D02*
X121102380Y-78843333D01*
X120054761Y-79081428D02*
X120769047Y-79319523D01*
X120769047Y-78700476D01*
%TO.C,R13*%
X106672142Y-81478380D02*
X106338809Y-81002190D01*
X106100714Y-81478380D02*
X106100714Y-80478380D01*
X106481666Y-80478380D01*
X106576904Y-80526000D01*
X106624523Y-80573619D01*
X106672142Y-80668857D01*
X106672142Y-80811714D01*
X106624523Y-80906952D01*
X106576904Y-80954571D01*
X106481666Y-81002190D01*
X106100714Y-81002190D01*
X107624523Y-81478380D02*
X107053095Y-81478380D01*
X107338809Y-81478380D02*
X107338809Y-80478380D01*
X107243571Y-80621238D01*
X107148333Y-80716476D01*
X107053095Y-80764095D01*
X107957857Y-80478380D02*
X108576904Y-80478380D01*
X108243571Y-80859333D01*
X108386428Y-80859333D01*
X108481666Y-80906952D01*
X108529285Y-80954571D01*
X108576904Y-81049809D01*
X108576904Y-81287904D01*
X108529285Y-81383142D01*
X108481666Y-81430761D01*
X108386428Y-81478380D01*
X108100714Y-81478380D01*
X108005476Y-81430761D01*
X107957857Y-81383142D01*
%TO.C,R12*%
X117672380Y-80652857D02*
X117196190Y-80986190D01*
X117672380Y-81224285D02*
X116672380Y-81224285D01*
X116672380Y-80843333D01*
X116720000Y-80748095D01*
X116767619Y-80700476D01*
X116862857Y-80652857D01*
X117005714Y-80652857D01*
X117100952Y-80700476D01*
X117148571Y-80748095D01*
X117196190Y-80843333D01*
X117196190Y-81224285D01*
X117672380Y-79700476D02*
X117672380Y-80271904D01*
X117672380Y-79986190D02*
X116672380Y-79986190D01*
X116815238Y-80081428D01*
X116910476Y-80176666D01*
X116958095Y-80271904D01*
X116767619Y-79319523D02*
X116720000Y-79271904D01*
X116672380Y-79176666D01*
X116672380Y-78938571D01*
X116720000Y-78843333D01*
X116767619Y-78795714D01*
X116862857Y-78748095D01*
X116958095Y-78748095D01*
X117100952Y-78795714D01*
X117672380Y-79367142D01*
X117672380Y-78748095D01*
%TO.C,C7*%
X54443333Y-74272142D02*
X54395714Y-74319761D01*
X54252857Y-74367380D01*
X54157619Y-74367380D01*
X54014761Y-74319761D01*
X53919523Y-74224523D01*
X53871904Y-74129285D01*
X53824285Y-73938809D01*
X53824285Y-73795952D01*
X53871904Y-73605476D01*
X53919523Y-73510238D01*
X54014761Y-73415000D01*
X54157619Y-73367380D01*
X54252857Y-73367380D01*
X54395714Y-73415000D01*
X54443333Y-73462619D01*
X54776666Y-73367380D02*
X55443333Y-73367380D01*
X55014761Y-74367380D01*
%TO.C,C6*%
X55713333Y-52172142D02*
X55665714Y-52219761D01*
X55522857Y-52267380D01*
X55427619Y-52267380D01*
X55284761Y-52219761D01*
X55189523Y-52124523D01*
X55141904Y-52029285D01*
X55094285Y-51838809D01*
X55094285Y-51695952D01*
X55141904Y-51505476D01*
X55189523Y-51410238D01*
X55284761Y-51315000D01*
X55427619Y-51267380D01*
X55522857Y-51267380D01*
X55665714Y-51315000D01*
X55713333Y-51362619D01*
X56570476Y-51267380D02*
X56380000Y-51267380D01*
X56284761Y-51315000D01*
X56237142Y-51362619D01*
X56141904Y-51505476D01*
X56094285Y-51695952D01*
X56094285Y-52076904D01*
X56141904Y-52172142D01*
X56189523Y-52219761D01*
X56284761Y-52267380D01*
X56475238Y-52267380D01*
X56570476Y-52219761D01*
X56618095Y-52172142D01*
X56665714Y-52076904D01*
X56665714Y-51838809D01*
X56618095Y-51743571D01*
X56570476Y-51695952D01*
X56475238Y-51648333D01*
X56284761Y-51648333D01*
X56189523Y-51695952D01*
X56141904Y-51743571D01*
X56094285Y-51838809D01*
%TO.C,R4*%
X62063333Y-52267380D02*
X61730000Y-51791190D01*
X61491904Y-52267380D02*
X61491904Y-51267380D01*
X61872857Y-51267380D01*
X61968095Y-51315000D01*
X62015714Y-51362619D01*
X62063333Y-51457857D01*
X62063333Y-51600714D01*
X62015714Y-51695952D01*
X61968095Y-51743571D01*
X61872857Y-51791190D01*
X61491904Y-51791190D01*
X62920476Y-51600714D02*
X62920476Y-52267380D01*
X62682380Y-51219761D02*
X62444285Y-51934047D01*
X63063333Y-51934047D01*
%TO.C,R3*%
X62063333Y-55442380D02*
X61730000Y-54966190D01*
X61491904Y-55442380D02*
X61491904Y-54442380D01*
X61872857Y-54442380D01*
X61968095Y-54490000D01*
X62015714Y-54537619D01*
X62063333Y-54632857D01*
X62063333Y-54775714D01*
X62015714Y-54870952D01*
X61968095Y-54918571D01*
X61872857Y-54966190D01*
X61491904Y-54966190D01*
X62396666Y-54442380D02*
X63015714Y-54442380D01*
X62682380Y-54823333D01*
X62825238Y-54823333D01*
X62920476Y-54870952D01*
X62968095Y-54918571D01*
X63015714Y-55013809D01*
X63015714Y-55251904D01*
X62968095Y-55347142D01*
X62920476Y-55394761D01*
X62825238Y-55442380D01*
X62539523Y-55442380D01*
X62444285Y-55394761D01*
X62396666Y-55347142D01*
%TO.C,PS1*%
D14*
X125245714Y-47402380D02*
X125245714Y-46402380D01*
X125626666Y-46402380D01*
X125721904Y-46450000D01*
X125769523Y-46497619D01*
X125817142Y-46592857D01*
X125817142Y-46735714D01*
X125769523Y-46830952D01*
X125721904Y-46878571D01*
X125626666Y-46926190D01*
X125245714Y-46926190D01*
X126198095Y-47354761D02*
X126340952Y-47402380D01*
X126579047Y-47402380D01*
X126674285Y-47354761D01*
X126721904Y-47307142D01*
X126769523Y-47211904D01*
X126769523Y-47116666D01*
X126721904Y-47021428D01*
X126674285Y-46973809D01*
X126579047Y-46926190D01*
X126388571Y-46878571D01*
X126293333Y-46830952D01*
X126245714Y-46783333D01*
X126198095Y-46688095D01*
X126198095Y-46592857D01*
X126245714Y-46497619D01*
X126293333Y-46450000D01*
X126388571Y-46402380D01*
X126626666Y-46402380D01*
X126769523Y-46450000D01*
X127721904Y-47402380D02*
X127150476Y-47402380D01*
X127436190Y-47402380D02*
X127436190Y-46402380D01*
X127340952Y-46545238D01*
X127245714Y-46640476D01*
X127150476Y-46688095D01*
%TO.C,M2*%
D12*
X124285476Y-73477380D02*
X124285476Y-72477380D01*
X124618809Y-73191666D01*
X124952142Y-72477380D01*
X124952142Y-73477380D01*
X125380714Y-72572619D02*
X125428333Y-72525000D01*
X125523571Y-72477380D01*
X125761666Y-72477380D01*
X125856904Y-72525000D01*
X125904523Y-72572619D01*
X125952142Y-72667857D01*
X125952142Y-72763095D01*
X125904523Y-72905952D01*
X125333095Y-73477380D01*
X125952142Y-73477380D01*
%TO.C,M1*%
X108410476Y-73604380D02*
X108410476Y-72604380D01*
X108743809Y-73318666D01*
X109077142Y-72604380D01*
X109077142Y-73604380D01*
X110077142Y-73604380D02*
X109505714Y-73604380D01*
X109791428Y-73604380D02*
X109791428Y-72604380D01*
X109696190Y-72747238D01*
X109600952Y-72842476D01*
X109505714Y-72890095D01*
%TO.C,L2*%
X126672380Y-71286666D02*
X126672380Y-71762857D01*
X125672380Y-71762857D01*
X125767619Y-71000952D02*
X125720000Y-70953333D01*
X125672380Y-70858095D01*
X125672380Y-70620000D01*
X125720000Y-70524761D01*
X125767619Y-70477142D01*
X125862857Y-70429523D01*
X125958095Y-70429523D01*
X126100952Y-70477142D01*
X126672380Y-71048571D01*
X126672380Y-70429523D01*
%TO.C,L1*%
X110797380Y-71286666D02*
X110797380Y-71762857D01*
X109797380Y-71762857D01*
X110797380Y-70429523D02*
X110797380Y-71000952D01*
X110797380Y-70715238D02*
X109797380Y-70715238D01*
X109940238Y-70810476D01*
X110035476Y-70905714D01*
X110083095Y-71000952D01*
%TO.C,J3*%
X95127380Y-30813333D02*
X95841666Y-30813333D01*
X95984523Y-30860952D01*
X96079761Y-30956190D01*
X96127380Y-31099047D01*
X96127380Y-31194285D01*
X95127380Y-30432380D02*
X95127380Y-29813333D01*
X95508333Y-30146666D01*
X95508333Y-30003809D01*
X95555952Y-29908571D01*
X95603571Y-29860952D01*
X95698809Y-29813333D01*
X95936904Y-29813333D01*
X96032142Y-29860952D01*
X96079761Y-29908571D01*
X96127380Y-30003809D01*
X96127380Y-30289523D01*
X96079761Y-30384761D01*
X96032142Y-30432380D01*
%TO.C,J2*%
X141906666Y-35857380D02*
X141906666Y-36571666D01*
X141859047Y-36714523D01*
X141763809Y-36809761D01*
X141620952Y-36857380D01*
X141525714Y-36857380D01*
X142335238Y-35952619D02*
X142382857Y-35905000D01*
X142478095Y-35857380D01*
X142716190Y-35857380D01*
X142811428Y-35905000D01*
X142859047Y-35952619D01*
X142906666Y-36047857D01*
X142906666Y-36143095D01*
X142859047Y-36285952D01*
X142287619Y-36857380D01*
X142906666Y-36857380D01*
%TO.C,J1*%
X37766666Y-35857380D02*
X37766666Y-36571666D01*
X37719047Y-36714523D01*
X37623809Y-36809761D01*
X37480952Y-36857380D01*
X37385714Y-36857380D01*
X38766666Y-36857380D02*
X38195238Y-36857380D01*
X38480952Y-36857380D02*
X38480952Y-35857380D01*
X38385714Y-36000238D01*
X38290476Y-36095476D01*
X38195238Y-36143095D01*
%TO.C,D6*%
X132611904Y-70302380D02*
X132611904Y-69302380D01*
X132850000Y-69302380D01*
X132992857Y-69350000D01*
X133088095Y-69445238D01*
X133135714Y-69540476D01*
X133183333Y-69730952D01*
X133183333Y-69873809D01*
X133135714Y-70064285D01*
X133088095Y-70159523D01*
X132992857Y-70254761D01*
X132850000Y-70302380D01*
X132611904Y-70302380D01*
X134040476Y-69302380D02*
X133850000Y-69302380D01*
X133754761Y-69350000D01*
X133707142Y-69397619D01*
X133611904Y-69540476D01*
X133564285Y-69730952D01*
X133564285Y-70111904D01*
X133611904Y-70207142D01*
X133659523Y-70254761D01*
X133754761Y-70302380D01*
X133945238Y-70302380D01*
X134040476Y-70254761D01*
X134088095Y-70207142D01*
X134135714Y-70111904D01*
X134135714Y-69873809D01*
X134088095Y-69778571D01*
X134040476Y-69730952D01*
X133945238Y-69683333D01*
X133754761Y-69683333D01*
X133659523Y-69730952D01*
X133611904Y-69778571D01*
X133564285Y-69873809D01*
%TO.C,D5*%
X116736904Y-70302380D02*
X116736904Y-69302380D01*
X116975000Y-69302380D01*
X117117857Y-69350000D01*
X117213095Y-69445238D01*
X117260714Y-69540476D01*
X117308333Y-69730952D01*
X117308333Y-69873809D01*
X117260714Y-70064285D01*
X117213095Y-70159523D01*
X117117857Y-70254761D01*
X116975000Y-70302380D01*
X116736904Y-70302380D01*
X118213095Y-69302380D02*
X117736904Y-69302380D01*
X117689285Y-69778571D01*
X117736904Y-69730952D01*
X117832142Y-69683333D01*
X118070238Y-69683333D01*
X118165476Y-69730952D01*
X118213095Y-69778571D01*
X118260714Y-69873809D01*
X118260714Y-70111904D01*
X118213095Y-70207142D01*
X118165476Y-70254761D01*
X118070238Y-70302380D01*
X117832142Y-70302380D01*
X117736904Y-70254761D01*
X117689285Y-70207142D01*
%TO.C,D4*%
X71412380Y-31456190D02*
X70412380Y-31456190D01*
X70507619Y-31027619D02*
X70460000Y-30980000D01*
X70412380Y-30884761D01*
X70412380Y-30646666D01*
X70460000Y-30551428D01*
X70507619Y-30503809D01*
X70602857Y-30456190D01*
X70698095Y-30456190D01*
X70840952Y-30503809D01*
X71412380Y-31075238D01*
X71412380Y-30456190D01*
X71317142Y-29456190D02*
X71364761Y-29503809D01*
X71412380Y-29646666D01*
X71412380Y-29741904D01*
X71364761Y-29884761D01*
X71269523Y-29980000D01*
X71174285Y-30027619D01*
X70983809Y-30075238D01*
X70840952Y-30075238D01*
X70650476Y-30027619D01*
X70555238Y-29980000D01*
X70460000Y-29884761D01*
X70412380Y-29741904D01*
X70412380Y-29646666D01*
X70460000Y-29503809D01*
X70507619Y-29456190D01*
%TO.C,D3*%
X67237380Y-31741904D02*
X68046904Y-31741904D01*
X68142142Y-31694285D01*
X68189761Y-31646666D01*
X68237380Y-31551428D01*
X68237380Y-31360952D01*
X68189761Y-31265714D01*
X68142142Y-31218095D01*
X68046904Y-31170476D01*
X67237380Y-31170476D01*
X68189761Y-30741904D02*
X68237380Y-30599047D01*
X68237380Y-30360952D01*
X68189761Y-30265714D01*
X68142142Y-30218095D01*
X68046904Y-30170476D01*
X67951666Y-30170476D01*
X67856428Y-30218095D01*
X67808809Y-30265714D01*
X67761190Y-30360952D01*
X67713571Y-30551428D01*
X67665952Y-30646666D01*
X67618333Y-30694285D01*
X67523095Y-30741904D01*
X67427857Y-30741904D01*
X67332619Y-30694285D01*
X67285000Y-30646666D01*
X67237380Y-30551428D01*
X67237380Y-30313333D01*
X67285000Y-30170476D01*
X67713571Y-29408571D02*
X67761190Y-29265714D01*
X67808809Y-29218095D01*
X67904047Y-29170476D01*
X68046904Y-29170476D01*
X68142142Y-29218095D01*
X68189761Y-29265714D01*
X68237380Y-29360952D01*
X68237380Y-29741904D01*
X67237380Y-29741904D01*
X67237380Y-29408571D01*
X67285000Y-29313333D01*
X67332619Y-29265714D01*
X67427857Y-29218095D01*
X67523095Y-29218095D01*
X67618333Y-29265714D01*
X67665952Y-29313333D01*
X67713571Y-29408571D01*
X67713571Y-29741904D01*
%TO.C,D2*%
X64062380Y-31170476D02*
X64062380Y-30599047D01*
X65062380Y-30884761D02*
X64062380Y-30884761D01*
X65062380Y-30360952D02*
X64395714Y-29837142D01*
X64395714Y-30360952D02*
X65062380Y-29837142D01*
%TO.C,D1*%
X61887380Y-30575238D02*
X61411190Y-30908571D01*
X61887380Y-31146666D02*
X60887380Y-31146666D01*
X60887380Y-30765714D01*
X60935000Y-30670476D01*
X60982619Y-30622857D01*
X61077857Y-30575238D01*
X61220714Y-30575238D01*
X61315952Y-30622857D01*
X61363571Y-30670476D01*
X61411190Y-30765714D01*
X61411190Y-31146666D01*
X61887380Y-30241904D02*
X61220714Y-29718095D01*
X61220714Y-30241904D02*
X61887380Y-29718095D01*
%TO.C,C5*%
X133452142Y-75731666D02*
X133499761Y-75779285D01*
X133547380Y-75922142D01*
X133547380Y-76017380D01*
X133499761Y-76160238D01*
X133404523Y-76255476D01*
X133309285Y-76303095D01*
X133118809Y-76350714D01*
X132975952Y-76350714D01*
X132785476Y-76303095D01*
X132690238Y-76255476D01*
X132595000Y-76160238D01*
X132547380Y-76017380D01*
X132547380Y-75922142D01*
X132595000Y-75779285D01*
X132642619Y-75731666D01*
X132547380Y-74826904D02*
X132547380Y-75303095D01*
X133023571Y-75350714D01*
X132975952Y-75303095D01*
X132928333Y-75207857D01*
X132928333Y-74969761D01*
X132975952Y-74874523D01*
X133023571Y-74826904D01*
X133118809Y-74779285D01*
X133356904Y-74779285D01*
X133452142Y-74826904D01*
X133499761Y-74874523D01*
X133547380Y-74969761D01*
X133547380Y-75207857D01*
X133499761Y-75303095D01*
X133452142Y-75350714D01*
%TO.C,C4*%
X136627142Y-75731666D02*
X136674761Y-75779285D01*
X136722380Y-75922142D01*
X136722380Y-76017380D01*
X136674761Y-76160238D01*
X136579523Y-76255476D01*
X136484285Y-76303095D01*
X136293809Y-76350714D01*
X136150952Y-76350714D01*
X135960476Y-76303095D01*
X135865238Y-76255476D01*
X135770000Y-76160238D01*
X135722380Y-76017380D01*
X135722380Y-75922142D01*
X135770000Y-75779285D01*
X135817619Y-75731666D01*
X136055714Y-74874523D02*
X136722380Y-74874523D01*
X135674761Y-75112619D02*
X136389047Y-75350714D01*
X136389047Y-74731666D01*
%TO.C,C3*%
X117577142Y-75731666D02*
X117624761Y-75779285D01*
X117672380Y-75922142D01*
X117672380Y-76017380D01*
X117624761Y-76160238D01*
X117529523Y-76255476D01*
X117434285Y-76303095D01*
X117243809Y-76350714D01*
X117100952Y-76350714D01*
X116910476Y-76303095D01*
X116815238Y-76255476D01*
X116720000Y-76160238D01*
X116672380Y-76017380D01*
X116672380Y-75922142D01*
X116720000Y-75779285D01*
X116767619Y-75731666D01*
X116672380Y-75398333D02*
X116672380Y-74779285D01*
X117053333Y-75112619D01*
X117053333Y-74969761D01*
X117100952Y-74874523D01*
X117148571Y-74826904D01*
X117243809Y-74779285D01*
X117481904Y-74779285D01*
X117577142Y-74826904D01*
X117624761Y-74874523D01*
X117672380Y-74969761D01*
X117672380Y-75255476D01*
X117624761Y-75350714D01*
X117577142Y-75398333D01*
%TO.C,C2*%
X120752142Y-75731666D02*
X120799761Y-75779285D01*
X120847380Y-75922142D01*
X120847380Y-76017380D01*
X120799761Y-76160238D01*
X120704523Y-76255476D01*
X120609285Y-76303095D01*
X120418809Y-76350714D01*
X120275952Y-76350714D01*
X120085476Y-76303095D01*
X119990238Y-76255476D01*
X119895000Y-76160238D01*
X119847380Y-76017380D01*
X119847380Y-75922142D01*
X119895000Y-75779285D01*
X119942619Y-75731666D01*
X119942619Y-75350714D02*
X119895000Y-75303095D01*
X119847380Y-75207857D01*
X119847380Y-74969761D01*
X119895000Y-74874523D01*
X119942619Y-74826904D01*
X120037857Y-74779285D01*
X120133095Y-74779285D01*
X120275952Y-74826904D01*
X120847380Y-75398333D01*
X120847380Y-74779285D01*
%TO.C,C1*%
X55713333Y-55347142D02*
X55665714Y-55394761D01*
X55522857Y-55442380D01*
X55427619Y-55442380D01*
X55284761Y-55394761D01*
X55189523Y-55299523D01*
X55141904Y-55204285D01*
X55094285Y-55013809D01*
X55094285Y-54870952D01*
X55141904Y-54680476D01*
X55189523Y-54585238D01*
X55284761Y-54490000D01*
X55427619Y-54442380D01*
X55522857Y-54442380D01*
X55665714Y-54490000D01*
X55713333Y-54537619D01*
X56665714Y-55442380D02*
X56094285Y-55442380D01*
X56380000Y-55442380D02*
X56380000Y-54442380D01*
X56284761Y-54585238D01*
X56189523Y-54680476D01*
X56094285Y-54728095D01*
%TD*%
M02*
