M48
; DRILL file {KiCad (5.1.7-0-10_14)} date Wednesday, January 27, 2021 at 03:42:41 PM
; FORMAT={-:-/ absolute / inch / decimal}
; #@! TF.CreationDate,2021-01-27T15:42:41+08:00
; #@! TF.GenerationSoftware,Kicad,Pcbnew,(5.1.7-0-10_14)
FMAT,2
INCH
T1C0.0157
T2C0.0394
T3C0.0413
T4C0.0374
%
G90
G05
T1
X1.812Y-1.548
X2.05Y-2.92
X2.0657Y-2.6366
X2.075Y-2.58
X2.0834Y-2.7199
X2.0978Y-2.666
X2.1174Y-2.7001
X2.1689Y-2.7339
X2.175Y-3.055
X2.1793Y-2.8869
X2.18Y-1.485
X2.1892Y-2.5805
X2.2075Y-2.7417
X2.2186Y-2.528
X2.2237Y-2.6467
X2.225Y-2.605
X2.2447Y-2.4113
X2.2547Y-2.3199
X2.2867Y-2.7416
X2.2868Y-2.2247
X2.2916Y-2.2952
X2.292Y-2.588
X2.3065Y-2.2588
X2.315Y-1.885
X2.315Y-2.835
X2.3518Y-2.821
X2.4017Y-2.8015
X2.425Y-2.7
X2.4535Y-2.6374
X2.4558Y-2.8015
X2.4574Y-2.2222
X2.48Y-2.19
X2.4936Y-2.6371
X2.495Y-1.47
X2.4959Y-2.4142
X2.569Y-2.3949
X2.58Y-1.47
X2.59Y-1.6
X2.5976Y-2.3021
X2.615Y-1.6689
X2.655Y-2.63
X2.9315Y-2.615
X3.0Y-1.42
X3.0274Y-3.1402
X3.0337Y-3.0779
X3.04Y-2.295
X3.04Y-2.385
X3.0849Y-3.1291
X3.1341Y-2.9752
X3.14Y-2.425
X3.195Y-2.355
X3.195Y-3.07
X3.2694Y-3.0073
X3.3048Y-3.047
X3.385Y-2.95
X3.43Y-2.28
X3.47Y-2.33
X3.495Y-3.1265
X3.565Y-2.2585
X3.57Y-3.025
X3.58Y-2.85
X3.6Y-2.36
X3.605Y-2.42
X3.625Y-2.0985
X3.6536Y-2.8086
X3.6702Y-2.9552
X3.685Y-2.435
X3.7Y-3.06
X3.725Y-2.07
X3.765Y-2.23
X3.775Y-2.035
X3.795Y-2.165
X3.9485Y-2.8661
X3.99Y-3.17
X4.01Y-2.5385
X4.0252Y-2.4415
X4.255Y-3.305
X4.425Y-3.185
X4.495Y-3.02
X4.5Y-2.85
X4.52Y-3.305
X4.6318Y-3.0718
X4.7905Y-2.3798
X4.825Y-2.4
X4.85Y-2.815
X4.9048Y-2.3976
X4.905Y-2.4775
X4.9418Y-2.5384
X4.958Y-2.4261
X4.98Y-2.85
X5.04Y-3.235
X5.055Y-2.515
X5.06Y-2.3621
X5.07Y-2.615
X5.0707Y-2.5722
X5.0906Y-3.0094
X5.1266Y-2.3444
X5.1299Y-3.015
X5.16Y-3.27
X5.1692Y-2.3267
X5.22Y-2.309
X5.25Y-3.05
X5.2607Y-2.2913
X5.265Y-2.58
X5.3182Y-2.2735
X5.325Y-2.59
X5.385Y-2.28
X5.435Y-2.29
T2
X1.5Y-1.525
X1.5Y-1.625
X1.5Y-1.725
X1.5Y-1.825
X1.5Y-1.925
X1.5Y-2.025
X1.5Y-2.125
X1.5Y-2.225
X1.5Y-2.325
X1.5Y-2.425
X1.5Y-2.525
X1.5Y-2.625
X1.5Y-2.725
X1.5Y-2.825
X1.5Y-2.925
X1.5Y-3.025
X5.6Y-1.525
X5.6Y-1.625
X5.6Y-1.725
X5.6Y-1.825
X5.6Y-1.925
X5.6Y-2.025
X5.6Y-2.125
X5.6Y-2.225
X5.6Y-2.325
X5.6Y-2.425
X5.6Y-2.525
X5.6Y-2.625
X5.6Y-2.725
X5.6Y-2.825
X5.6Y-2.925
X5.6Y-3.025
X3.475Y-1.2
X3.575Y-1.2
X3.675Y-1.2
T3
X4.525Y-1.725
X4.625Y-1.725
X4.725Y-1.725
X4.925Y-1.725
X5.025Y-1.725
T4
X1.7884Y-1.3
X1.9616Y-1.3
T0
M30
