%TF.GenerationSoftware,KiCad,Pcbnew,(5.1.7-0-10_14)*%
%TF.CreationDate,2021-01-27T15:42:46+08:00*%
%TF.ProjectId,BreadControl,42726561-6443-46f6-9e74-726f6c2e6b69,rev?*%
%TF.SameCoordinates,Original*%
%TF.FileFunction,Soldermask,Top*%
%TF.FilePolarity,Negative*%
%FSLAX46Y46*%
G04 Gerber Fmt 4.6, Leading zero omitted, Abs format (unit mm)*
G04 Created by KiCad (PCBNEW (5.1.7-0-10_14)) date 2021-01-27 15:42:46*
%MOMM*%
%LPD*%
G01*
G04 APERTURE LIST*
%ADD10C,0.950000*%
%ADD11R,2.000000X2.500000*%
%ADD12R,0.500000X2.250000*%
%ADD13R,1.450000X0.450000*%
%ADD14R,0.250000X1.300000*%
%ADD15R,1.300000X0.250000*%
%ADD16C,1.575000*%
%ADD17R,1.575000X1.575000*%
%ADD18R,1.560000X0.650000*%
%ADD19O,1.700000X1.700000*%
%ADD20R,1.700000X1.700000*%
%ADD21R,1.000000X1.000000*%
G04 APERTURE END LIST*
D10*
%TO.C,J4*%
X49825000Y-33020000D03*
X45425000Y-33020000D03*
D11*
X43175000Y-35570000D03*
X52075000Y-35570000D03*
X52075000Y-30120000D03*
X43175000Y-30120000D03*
D12*
X46025000Y-35695000D03*
X46825000Y-35695000D03*
X47625000Y-35695000D03*
X48425000Y-35695000D03*
X49225000Y-35695000D03*
%TD*%
D13*
%TO.C,U4*%
X91850000Y-76155000D03*
X91850000Y-76805000D03*
X91850000Y-77455000D03*
X91850000Y-78105000D03*
X91850000Y-78755000D03*
X91850000Y-79405000D03*
X91850000Y-80055000D03*
X85950000Y-80055000D03*
X85950000Y-79405000D03*
X85950000Y-78755000D03*
X85950000Y-78105000D03*
X85950000Y-77455000D03*
X85950000Y-76805000D03*
X85950000Y-76155000D03*
%TD*%
D14*
%TO.C,U3*%
X52368000Y-62960000D03*
X52868000Y-62960000D03*
X53368000Y-62960000D03*
X53868000Y-62960000D03*
X54368000Y-62960000D03*
X54868000Y-62960000D03*
X55368000Y-62960000D03*
X55868000Y-62960000D03*
X56368000Y-62960000D03*
X56868000Y-62960000D03*
X57368000Y-62960000D03*
X57868000Y-62960000D03*
D15*
X59468000Y-64560000D03*
X59468000Y-65060000D03*
X59468000Y-65560000D03*
X59468000Y-66060000D03*
X59468000Y-66560000D03*
X59468000Y-67060000D03*
X59468000Y-67560000D03*
X59468000Y-68060000D03*
X59468000Y-68560000D03*
X59468000Y-69060000D03*
X59468000Y-69560000D03*
X59468000Y-70060000D03*
D14*
X57868000Y-71660000D03*
X57368000Y-71660000D03*
X56868000Y-71660000D03*
X56368000Y-71660000D03*
X55868000Y-71660000D03*
X55368000Y-71660000D03*
X54868000Y-71660000D03*
X54368000Y-71660000D03*
X53868000Y-71660000D03*
X53368000Y-71660000D03*
X52868000Y-71660000D03*
X52368000Y-71660000D03*
D15*
X50768000Y-70060000D03*
X50768000Y-69560000D03*
X50768000Y-69060000D03*
X50768000Y-68560000D03*
X50768000Y-68060000D03*
X50768000Y-67560000D03*
X50768000Y-67060000D03*
X50768000Y-66560000D03*
X50768000Y-66060000D03*
X50768000Y-65560000D03*
X50768000Y-65060000D03*
X50768000Y-64560000D03*
%TD*%
%TO.C,U2*%
G36*
G01*
X91105000Y-65085000D02*
X91105000Y-66485000D01*
G75*
G02*
X90955000Y-66635000I-150000J0D01*
G01*
X90655000Y-66635000D01*
G75*
G02*
X90505000Y-66485000I0J150000D01*
G01*
X90505000Y-65085000D01*
G75*
G02*
X90655000Y-64935000I150000J0D01*
G01*
X90955000Y-64935000D01*
G75*
G02*
X91105000Y-65085000I0J-150000D01*
G01*
G37*
G36*
G01*
X89835000Y-65085000D02*
X89835000Y-66485000D01*
G75*
G02*
X89685000Y-66635000I-150000J0D01*
G01*
X89385000Y-66635000D01*
G75*
G02*
X89235000Y-66485000I0J150000D01*
G01*
X89235000Y-65085000D01*
G75*
G02*
X89385000Y-64935000I150000J0D01*
G01*
X89685000Y-64935000D01*
G75*
G02*
X89835000Y-65085000I0J-150000D01*
G01*
G37*
G36*
G01*
X88565000Y-65085000D02*
X88565000Y-66485000D01*
G75*
G02*
X88415000Y-66635000I-150000J0D01*
G01*
X88115000Y-66635000D01*
G75*
G02*
X87965000Y-66485000I0J150000D01*
G01*
X87965000Y-65085000D01*
G75*
G02*
X88115000Y-64935000I150000J0D01*
G01*
X88415000Y-64935000D01*
G75*
G02*
X88565000Y-65085000I0J-150000D01*
G01*
G37*
G36*
G01*
X87295000Y-65085000D02*
X87295000Y-66485000D01*
G75*
G02*
X87145000Y-66635000I-150000J0D01*
G01*
X86845000Y-66635000D01*
G75*
G02*
X86695000Y-66485000I0J150000D01*
G01*
X86695000Y-65085000D01*
G75*
G02*
X86845000Y-64935000I150000J0D01*
G01*
X87145000Y-64935000D01*
G75*
G02*
X87295000Y-65085000I0J-150000D01*
G01*
G37*
G36*
G01*
X86025000Y-65085000D02*
X86025000Y-66485000D01*
G75*
G02*
X85875000Y-66635000I-150000J0D01*
G01*
X85575000Y-66635000D01*
G75*
G02*
X85425000Y-66485000I0J150000D01*
G01*
X85425000Y-65085000D01*
G75*
G02*
X85575000Y-64935000I150000J0D01*
G01*
X85875000Y-64935000D01*
G75*
G02*
X86025000Y-65085000I0J-150000D01*
G01*
G37*
G36*
G01*
X84925000Y-63985000D02*
X84925000Y-64285000D01*
G75*
G02*
X84775000Y-64435000I-150000J0D01*
G01*
X83375000Y-64435000D01*
G75*
G02*
X83225000Y-64285000I0J150000D01*
G01*
X83225000Y-63985000D01*
G75*
G02*
X83375000Y-63835000I150000J0D01*
G01*
X84775000Y-63835000D01*
G75*
G02*
X84925000Y-63985000I0J-150000D01*
G01*
G37*
G36*
G01*
X84925000Y-62715000D02*
X84925000Y-63015000D01*
G75*
G02*
X84775000Y-63165000I-150000J0D01*
G01*
X83375000Y-63165000D01*
G75*
G02*
X83225000Y-63015000I0J150000D01*
G01*
X83225000Y-62715000D01*
G75*
G02*
X83375000Y-62565000I150000J0D01*
G01*
X84775000Y-62565000D01*
G75*
G02*
X84925000Y-62715000I0J-150000D01*
G01*
G37*
G36*
G01*
X84925000Y-61445000D02*
X84925000Y-61745000D01*
G75*
G02*
X84775000Y-61895000I-150000J0D01*
G01*
X83375000Y-61895000D01*
G75*
G02*
X83225000Y-61745000I0J150000D01*
G01*
X83225000Y-61445000D01*
G75*
G02*
X83375000Y-61295000I150000J0D01*
G01*
X84775000Y-61295000D01*
G75*
G02*
X84925000Y-61445000I0J-150000D01*
G01*
G37*
G36*
G01*
X84925000Y-60175000D02*
X84925000Y-60475000D01*
G75*
G02*
X84775000Y-60625000I-150000J0D01*
G01*
X83375000Y-60625000D01*
G75*
G02*
X83225000Y-60475000I0J150000D01*
G01*
X83225000Y-60175000D01*
G75*
G02*
X83375000Y-60025000I150000J0D01*
G01*
X84775000Y-60025000D01*
G75*
G02*
X84925000Y-60175000I0J-150000D01*
G01*
G37*
G36*
G01*
X84925000Y-58905000D02*
X84925000Y-59205000D01*
G75*
G02*
X84775000Y-59355000I-150000J0D01*
G01*
X83375000Y-59355000D01*
G75*
G02*
X83225000Y-59205000I0J150000D01*
G01*
X83225000Y-58905000D01*
G75*
G02*
X83375000Y-58755000I150000J0D01*
G01*
X84775000Y-58755000D01*
G75*
G02*
X84925000Y-58905000I0J-150000D01*
G01*
G37*
G36*
G01*
X84925000Y-57635000D02*
X84925000Y-57935000D01*
G75*
G02*
X84775000Y-58085000I-150000J0D01*
G01*
X83375000Y-58085000D01*
G75*
G02*
X83225000Y-57935000I0J150000D01*
G01*
X83225000Y-57635000D01*
G75*
G02*
X83375000Y-57485000I150000J0D01*
G01*
X84775000Y-57485000D01*
G75*
G02*
X84925000Y-57635000I0J-150000D01*
G01*
G37*
G36*
G01*
X84925000Y-56365000D02*
X84925000Y-56665000D01*
G75*
G02*
X84775000Y-56815000I-150000J0D01*
G01*
X83375000Y-56815000D01*
G75*
G02*
X83225000Y-56665000I0J150000D01*
G01*
X83225000Y-56365000D01*
G75*
G02*
X83375000Y-56215000I150000J0D01*
G01*
X84775000Y-56215000D01*
G75*
G02*
X84925000Y-56365000I0J-150000D01*
G01*
G37*
G36*
G01*
X84925000Y-55095000D02*
X84925000Y-55395000D01*
G75*
G02*
X84775000Y-55545000I-150000J0D01*
G01*
X83375000Y-55545000D01*
G75*
G02*
X83225000Y-55395000I0J150000D01*
G01*
X83225000Y-55095000D01*
G75*
G02*
X83375000Y-54945000I150000J0D01*
G01*
X84775000Y-54945000D01*
G75*
G02*
X84925000Y-55095000I0J-150000D01*
G01*
G37*
G36*
G01*
X84925000Y-53825000D02*
X84925000Y-54125000D01*
G75*
G02*
X84775000Y-54275000I-150000J0D01*
G01*
X83375000Y-54275000D01*
G75*
G02*
X83225000Y-54125000I0J150000D01*
G01*
X83225000Y-53825000D01*
G75*
G02*
X83375000Y-53675000I150000J0D01*
G01*
X84775000Y-53675000D01*
G75*
G02*
X84925000Y-53825000I0J-150000D01*
G01*
G37*
G36*
G01*
X84925000Y-52555000D02*
X84925000Y-52855000D01*
G75*
G02*
X84775000Y-53005000I-150000J0D01*
G01*
X83375000Y-53005000D01*
G75*
G02*
X83225000Y-52855000I0J150000D01*
G01*
X83225000Y-52555000D01*
G75*
G02*
X83375000Y-52405000I150000J0D01*
G01*
X84775000Y-52405000D01*
G75*
G02*
X84925000Y-52555000I0J-150000D01*
G01*
G37*
G36*
G01*
X84925000Y-51285000D02*
X84925000Y-51585000D01*
G75*
G02*
X84775000Y-51735000I-150000J0D01*
G01*
X83375000Y-51735000D01*
G75*
G02*
X83225000Y-51585000I0J150000D01*
G01*
X83225000Y-51285000D01*
G75*
G02*
X83375000Y-51135000I150000J0D01*
G01*
X84775000Y-51135000D01*
G75*
G02*
X84925000Y-51285000I0J-150000D01*
G01*
G37*
G36*
G01*
X86025000Y-49085000D02*
X86025000Y-50485000D01*
G75*
G02*
X85875000Y-50635000I-150000J0D01*
G01*
X85575000Y-50635000D01*
G75*
G02*
X85425000Y-50485000I0J150000D01*
G01*
X85425000Y-49085000D01*
G75*
G02*
X85575000Y-48935000I150000J0D01*
G01*
X85875000Y-48935000D01*
G75*
G02*
X86025000Y-49085000I0J-150000D01*
G01*
G37*
G36*
G01*
X87295000Y-49085000D02*
X87295000Y-50485000D01*
G75*
G02*
X87145000Y-50635000I-150000J0D01*
G01*
X86845000Y-50635000D01*
G75*
G02*
X86695000Y-50485000I0J150000D01*
G01*
X86695000Y-49085000D01*
G75*
G02*
X86845000Y-48935000I150000J0D01*
G01*
X87145000Y-48935000D01*
G75*
G02*
X87295000Y-49085000I0J-150000D01*
G01*
G37*
G36*
G01*
X88565000Y-49085000D02*
X88565000Y-50485000D01*
G75*
G02*
X88415000Y-50635000I-150000J0D01*
G01*
X88115000Y-50635000D01*
G75*
G02*
X87965000Y-50485000I0J150000D01*
G01*
X87965000Y-49085000D01*
G75*
G02*
X88115000Y-48935000I150000J0D01*
G01*
X88415000Y-48935000D01*
G75*
G02*
X88565000Y-49085000I0J-150000D01*
G01*
G37*
G36*
G01*
X89835000Y-49085000D02*
X89835000Y-50485000D01*
G75*
G02*
X89685000Y-50635000I-150000J0D01*
G01*
X89385000Y-50635000D01*
G75*
G02*
X89235000Y-50485000I0J150000D01*
G01*
X89235000Y-49085000D01*
G75*
G02*
X89385000Y-48935000I150000J0D01*
G01*
X89685000Y-48935000D01*
G75*
G02*
X89835000Y-49085000I0J-150000D01*
G01*
G37*
G36*
G01*
X91105000Y-49085000D02*
X91105000Y-50485000D01*
G75*
G02*
X90955000Y-50635000I-150000J0D01*
G01*
X90655000Y-50635000D01*
G75*
G02*
X90505000Y-50485000I0J150000D01*
G01*
X90505000Y-49085000D01*
G75*
G02*
X90655000Y-48935000I150000J0D01*
G01*
X90955000Y-48935000D01*
G75*
G02*
X91105000Y-49085000I0J-150000D01*
G01*
G37*
G36*
G01*
X92375000Y-49085000D02*
X92375000Y-50485000D01*
G75*
G02*
X92225000Y-50635000I-150000J0D01*
G01*
X91925000Y-50635000D01*
G75*
G02*
X91775000Y-50485000I0J150000D01*
G01*
X91775000Y-49085000D01*
G75*
G02*
X91925000Y-48935000I150000J0D01*
G01*
X92225000Y-48935000D01*
G75*
G02*
X92375000Y-49085000I0J-150000D01*
G01*
G37*
G36*
G01*
X93645000Y-49085000D02*
X93645000Y-50485000D01*
G75*
G02*
X93495000Y-50635000I-150000J0D01*
G01*
X93195000Y-50635000D01*
G75*
G02*
X93045000Y-50485000I0J150000D01*
G01*
X93045000Y-49085000D01*
G75*
G02*
X93195000Y-48935000I150000J0D01*
G01*
X93495000Y-48935000D01*
G75*
G02*
X93645000Y-49085000I0J-150000D01*
G01*
G37*
G36*
G01*
X94915000Y-49085000D02*
X94915000Y-50485000D01*
G75*
G02*
X94765000Y-50635000I-150000J0D01*
G01*
X94465000Y-50635000D01*
G75*
G02*
X94315000Y-50485000I0J150000D01*
G01*
X94315000Y-49085000D01*
G75*
G02*
X94465000Y-48935000I150000J0D01*
G01*
X94765000Y-48935000D01*
G75*
G02*
X94915000Y-49085000I0J-150000D01*
G01*
G37*
G36*
G01*
X96185000Y-49085000D02*
X96185000Y-50485000D01*
G75*
G02*
X96035000Y-50635000I-150000J0D01*
G01*
X95735000Y-50635000D01*
G75*
G02*
X95585000Y-50485000I0J150000D01*
G01*
X95585000Y-49085000D01*
G75*
G02*
X95735000Y-48935000I150000J0D01*
G01*
X96035000Y-48935000D01*
G75*
G02*
X96185000Y-49085000I0J-150000D01*
G01*
G37*
G36*
G01*
X97455000Y-49085000D02*
X97455000Y-50485000D01*
G75*
G02*
X97305000Y-50635000I-150000J0D01*
G01*
X97005000Y-50635000D01*
G75*
G02*
X96855000Y-50485000I0J150000D01*
G01*
X96855000Y-49085000D01*
G75*
G02*
X97005000Y-48935000I150000J0D01*
G01*
X97305000Y-48935000D01*
G75*
G02*
X97455000Y-49085000I0J-150000D01*
G01*
G37*
G36*
G01*
X98725000Y-49085000D02*
X98725000Y-50485000D01*
G75*
G02*
X98575000Y-50635000I-150000J0D01*
G01*
X98275000Y-50635000D01*
G75*
G02*
X98125000Y-50485000I0J150000D01*
G01*
X98125000Y-49085000D01*
G75*
G02*
X98275000Y-48935000I150000J0D01*
G01*
X98575000Y-48935000D01*
G75*
G02*
X98725000Y-49085000I0J-150000D01*
G01*
G37*
G36*
G01*
X100925000Y-51285000D02*
X100925000Y-51585000D01*
G75*
G02*
X100775000Y-51735000I-150000J0D01*
G01*
X99375000Y-51735000D01*
G75*
G02*
X99225000Y-51585000I0J150000D01*
G01*
X99225000Y-51285000D01*
G75*
G02*
X99375000Y-51135000I150000J0D01*
G01*
X100775000Y-51135000D01*
G75*
G02*
X100925000Y-51285000I0J-150000D01*
G01*
G37*
G36*
G01*
X100925000Y-52555000D02*
X100925000Y-52855000D01*
G75*
G02*
X100775000Y-53005000I-150000J0D01*
G01*
X99375000Y-53005000D01*
G75*
G02*
X99225000Y-52855000I0J150000D01*
G01*
X99225000Y-52555000D01*
G75*
G02*
X99375000Y-52405000I150000J0D01*
G01*
X100775000Y-52405000D01*
G75*
G02*
X100925000Y-52555000I0J-150000D01*
G01*
G37*
G36*
G01*
X100925000Y-53825000D02*
X100925000Y-54125000D01*
G75*
G02*
X100775000Y-54275000I-150000J0D01*
G01*
X99375000Y-54275000D01*
G75*
G02*
X99225000Y-54125000I0J150000D01*
G01*
X99225000Y-53825000D01*
G75*
G02*
X99375000Y-53675000I150000J0D01*
G01*
X100775000Y-53675000D01*
G75*
G02*
X100925000Y-53825000I0J-150000D01*
G01*
G37*
G36*
G01*
X100925000Y-55095000D02*
X100925000Y-55395000D01*
G75*
G02*
X100775000Y-55545000I-150000J0D01*
G01*
X99375000Y-55545000D01*
G75*
G02*
X99225000Y-55395000I0J150000D01*
G01*
X99225000Y-55095000D01*
G75*
G02*
X99375000Y-54945000I150000J0D01*
G01*
X100775000Y-54945000D01*
G75*
G02*
X100925000Y-55095000I0J-150000D01*
G01*
G37*
G36*
G01*
X100925000Y-56365000D02*
X100925000Y-56665000D01*
G75*
G02*
X100775000Y-56815000I-150000J0D01*
G01*
X99375000Y-56815000D01*
G75*
G02*
X99225000Y-56665000I0J150000D01*
G01*
X99225000Y-56365000D01*
G75*
G02*
X99375000Y-56215000I150000J0D01*
G01*
X100775000Y-56215000D01*
G75*
G02*
X100925000Y-56365000I0J-150000D01*
G01*
G37*
G36*
G01*
X100925000Y-57635000D02*
X100925000Y-57935000D01*
G75*
G02*
X100775000Y-58085000I-150000J0D01*
G01*
X99375000Y-58085000D01*
G75*
G02*
X99225000Y-57935000I0J150000D01*
G01*
X99225000Y-57635000D01*
G75*
G02*
X99375000Y-57485000I150000J0D01*
G01*
X100775000Y-57485000D01*
G75*
G02*
X100925000Y-57635000I0J-150000D01*
G01*
G37*
G36*
G01*
X100925000Y-58905000D02*
X100925000Y-59205000D01*
G75*
G02*
X100775000Y-59355000I-150000J0D01*
G01*
X99375000Y-59355000D01*
G75*
G02*
X99225000Y-59205000I0J150000D01*
G01*
X99225000Y-58905000D01*
G75*
G02*
X99375000Y-58755000I150000J0D01*
G01*
X100775000Y-58755000D01*
G75*
G02*
X100925000Y-58905000I0J-150000D01*
G01*
G37*
G36*
G01*
X100925000Y-60175000D02*
X100925000Y-60475000D01*
G75*
G02*
X100775000Y-60625000I-150000J0D01*
G01*
X99375000Y-60625000D01*
G75*
G02*
X99225000Y-60475000I0J150000D01*
G01*
X99225000Y-60175000D01*
G75*
G02*
X99375000Y-60025000I150000J0D01*
G01*
X100775000Y-60025000D01*
G75*
G02*
X100925000Y-60175000I0J-150000D01*
G01*
G37*
G36*
G01*
X100925000Y-61445000D02*
X100925000Y-61745000D01*
G75*
G02*
X100775000Y-61895000I-150000J0D01*
G01*
X99375000Y-61895000D01*
G75*
G02*
X99225000Y-61745000I0J150000D01*
G01*
X99225000Y-61445000D01*
G75*
G02*
X99375000Y-61295000I150000J0D01*
G01*
X100775000Y-61295000D01*
G75*
G02*
X100925000Y-61445000I0J-150000D01*
G01*
G37*
G36*
G01*
X100925000Y-62715000D02*
X100925000Y-63015000D01*
G75*
G02*
X100775000Y-63165000I-150000J0D01*
G01*
X99375000Y-63165000D01*
G75*
G02*
X99225000Y-63015000I0J150000D01*
G01*
X99225000Y-62715000D01*
G75*
G02*
X99375000Y-62565000I150000J0D01*
G01*
X100775000Y-62565000D01*
G75*
G02*
X100925000Y-62715000I0J-150000D01*
G01*
G37*
G36*
G01*
X100925000Y-63985000D02*
X100925000Y-64285000D01*
G75*
G02*
X100775000Y-64435000I-150000J0D01*
G01*
X99375000Y-64435000D01*
G75*
G02*
X99225000Y-64285000I0J150000D01*
G01*
X99225000Y-63985000D01*
G75*
G02*
X99375000Y-63835000I150000J0D01*
G01*
X100775000Y-63835000D01*
G75*
G02*
X100925000Y-63985000I0J-150000D01*
G01*
G37*
G36*
G01*
X98725000Y-65085000D02*
X98725000Y-66485000D01*
G75*
G02*
X98575000Y-66635000I-150000J0D01*
G01*
X98275000Y-66635000D01*
G75*
G02*
X98125000Y-66485000I0J150000D01*
G01*
X98125000Y-65085000D01*
G75*
G02*
X98275000Y-64935000I150000J0D01*
G01*
X98575000Y-64935000D01*
G75*
G02*
X98725000Y-65085000I0J-150000D01*
G01*
G37*
G36*
G01*
X97455000Y-65085000D02*
X97455000Y-66485000D01*
G75*
G02*
X97305000Y-66635000I-150000J0D01*
G01*
X97005000Y-66635000D01*
G75*
G02*
X96855000Y-66485000I0J150000D01*
G01*
X96855000Y-65085000D01*
G75*
G02*
X97005000Y-64935000I150000J0D01*
G01*
X97305000Y-64935000D01*
G75*
G02*
X97455000Y-65085000I0J-150000D01*
G01*
G37*
G36*
G01*
X96185000Y-65085000D02*
X96185000Y-66485000D01*
G75*
G02*
X96035000Y-66635000I-150000J0D01*
G01*
X95735000Y-66635000D01*
G75*
G02*
X95585000Y-66485000I0J150000D01*
G01*
X95585000Y-65085000D01*
G75*
G02*
X95735000Y-64935000I150000J0D01*
G01*
X96035000Y-64935000D01*
G75*
G02*
X96185000Y-65085000I0J-150000D01*
G01*
G37*
G36*
G01*
X94915000Y-65085000D02*
X94915000Y-66485000D01*
G75*
G02*
X94765000Y-66635000I-150000J0D01*
G01*
X94465000Y-66635000D01*
G75*
G02*
X94315000Y-66485000I0J150000D01*
G01*
X94315000Y-65085000D01*
G75*
G02*
X94465000Y-64935000I150000J0D01*
G01*
X94765000Y-64935000D01*
G75*
G02*
X94915000Y-65085000I0J-150000D01*
G01*
G37*
G36*
G01*
X93645000Y-65085000D02*
X93645000Y-66485000D01*
G75*
G02*
X93495000Y-66635000I-150000J0D01*
G01*
X93195000Y-66635000D01*
G75*
G02*
X93045000Y-66485000I0J150000D01*
G01*
X93045000Y-65085000D01*
G75*
G02*
X93195000Y-64935000I150000J0D01*
G01*
X93495000Y-64935000D01*
G75*
G02*
X93645000Y-65085000I0J-150000D01*
G01*
G37*
G36*
G01*
X92375000Y-65085000D02*
X92375000Y-66485000D01*
G75*
G02*
X92225000Y-66635000I-150000J0D01*
G01*
X91925000Y-66635000D01*
G75*
G02*
X91775000Y-66485000I0J150000D01*
G01*
X91775000Y-65085000D01*
G75*
G02*
X91925000Y-64935000I150000J0D01*
G01*
X92225000Y-64935000D01*
G75*
G02*
X92375000Y-65085000I0J-150000D01*
G01*
G37*
%TD*%
%TO.C,U1*%
G36*
G01*
X59460000Y-46205000D02*
X59460000Y-46505000D01*
G75*
G02*
X59310000Y-46655000I-150000J0D01*
G01*
X57660000Y-46655000D01*
G75*
G02*
X57510000Y-46505000I0J150000D01*
G01*
X57510000Y-46205000D01*
G75*
G02*
X57660000Y-46055000I150000J0D01*
G01*
X59310000Y-46055000D01*
G75*
G02*
X59460000Y-46205000I0J-150000D01*
G01*
G37*
G36*
G01*
X59460000Y-44935000D02*
X59460000Y-45235000D01*
G75*
G02*
X59310000Y-45385000I-150000J0D01*
G01*
X57660000Y-45385000D01*
G75*
G02*
X57510000Y-45235000I0J150000D01*
G01*
X57510000Y-44935000D01*
G75*
G02*
X57660000Y-44785000I150000J0D01*
G01*
X59310000Y-44785000D01*
G75*
G02*
X59460000Y-44935000I0J-150000D01*
G01*
G37*
G36*
G01*
X59460000Y-43665000D02*
X59460000Y-43965000D01*
G75*
G02*
X59310000Y-44115000I-150000J0D01*
G01*
X57660000Y-44115000D01*
G75*
G02*
X57510000Y-43965000I0J150000D01*
G01*
X57510000Y-43665000D01*
G75*
G02*
X57660000Y-43515000I150000J0D01*
G01*
X59310000Y-43515000D01*
G75*
G02*
X59460000Y-43665000I0J-150000D01*
G01*
G37*
G36*
G01*
X59460000Y-42395000D02*
X59460000Y-42695000D01*
G75*
G02*
X59310000Y-42845000I-150000J0D01*
G01*
X57660000Y-42845000D01*
G75*
G02*
X57510000Y-42695000I0J150000D01*
G01*
X57510000Y-42395000D01*
G75*
G02*
X57660000Y-42245000I150000J0D01*
G01*
X59310000Y-42245000D01*
G75*
G02*
X59460000Y-42395000I0J-150000D01*
G01*
G37*
G36*
G01*
X59460000Y-41125000D02*
X59460000Y-41425000D01*
G75*
G02*
X59310000Y-41575000I-150000J0D01*
G01*
X57660000Y-41575000D01*
G75*
G02*
X57510000Y-41425000I0J150000D01*
G01*
X57510000Y-41125000D01*
G75*
G02*
X57660000Y-40975000I150000J0D01*
G01*
X59310000Y-40975000D01*
G75*
G02*
X59460000Y-41125000I0J-150000D01*
G01*
G37*
G36*
G01*
X59460000Y-39855000D02*
X59460000Y-40155000D01*
G75*
G02*
X59310000Y-40305000I-150000J0D01*
G01*
X57660000Y-40305000D01*
G75*
G02*
X57510000Y-40155000I0J150000D01*
G01*
X57510000Y-39855000D01*
G75*
G02*
X57660000Y-39705000I150000J0D01*
G01*
X59310000Y-39705000D01*
G75*
G02*
X59460000Y-39855000I0J-150000D01*
G01*
G37*
G36*
G01*
X59460000Y-38585000D02*
X59460000Y-38885000D01*
G75*
G02*
X59310000Y-39035000I-150000J0D01*
G01*
X57660000Y-39035000D01*
G75*
G02*
X57510000Y-38885000I0J150000D01*
G01*
X57510000Y-38585000D01*
G75*
G02*
X57660000Y-38435000I150000J0D01*
G01*
X59310000Y-38435000D01*
G75*
G02*
X59460000Y-38585000I0J-150000D01*
G01*
G37*
G36*
G01*
X64410000Y-38585000D02*
X64410000Y-38885000D01*
G75*
G02*
X64260000Y-39035000I-150000J0D01*
G01*
X62610000Y-39035000D01*
G75*
G02*
X62460000Y-38885000I0J150000D01*
G01*
X62460000Y-38585000D01*
G75*
G02*
X62610000Y-38435000I150000J0D01*
G01*
X64260000Y-38435000D01*
G75*
G02*
X64410000Y-38585000I0J-150000D01*
G01*
G37*
G36*
G01*
X64410000Y-39855000D02*
X64410000Y-40155000D01*
G75*
G02*
X64260000Y-40305000I-150000J0D01*
G01*
X62610000Y-40305000D01*
G75*
G02*
X62460000Y-40155000I0J150000D01*
G01*
X62460000Y-39855000D01*
G75*
G02*
X62610000Y-39705000I150000J0D01*
G01*
X64260000Y-39705000D01*
G75*
G02*
X64410000Y-39855000I0J-150000D01*
G01*
G37*
G36*
G01*
X64410000Y-41125000D02*
X64410000Y-41425000D01*
G75*
G02*
X64260000Y-41575000I-150000J0D01*
G01*
X62610000Y-41575000D01*
G75*
G02*
X62460000Y-41425000I0J150000D01*
G01*
X62460000Y-41125000D01*
G75*
G02*
X62610000Y-40975000I150000J0D01*
G01*
X64260000Y-40975000D01*
G75*
G02*
X64410000Y-41125000I0J-150000D01*
G01*
G37*
G36*
G01*
X64410000Y-42395000D02*
X64410000Y-42695000D01*
G75*
G02*
X64260000Y-42845000I-150000J0D01*
G01*
X62610000Y-42845000D01*
G75*
G02*
X62460000Y-42695000I0J150000D01*
G01*
X62460000Y-42395000D01*
G75*
G02*
X62610000Y-42245000I150000J0D01*
G01*
X64260000Y-42245000D01*
G75*
G02*
X64410000Y-42395000I0J-150000D01*
G01*
G37*
G36*
G01*
X64410000Y-43665000D02*
X64410000Y-43965000D01*
G75*
G02*
X64260000Y-44115000I-150000J0D01*
G01*
X62610000Y-44115000D01*
G75*
G02*
X62460000Y-43965000I0J150000D01*
G01*
X62460000Y-43665000D01*
G75*
G02*
X62610000Y-43515000I150000J0D01*
G01*
X64260000Y-43515000D01*
G75*
G02*
X64410000Y-43665000I0J-150000D01*
G01*
G37*
G36*
G01*
X64410000Y-44935000D02*
X64410000Y-45235000D01*
G75*
G02*
X64260000Y-45385000I-150000J0D01*
G01*
X62610000Y-45385000D01*
G75*
G02*
X62460000Y-45235000I0J150000D01*
G01*
X62460000Y-44935000D01*
G75*
G02*
X62610000Y-44785000I150000J0D01*
G01*
X64260000Y-44785000D01*
G75*
G02*
X64410000Y-44935000I0J-150000D01*
G01*
G37*
G36*
G01*
X64410000Y-46205000D02*
X64410000Y-46505000D01*
G75*
G02*
X64260000Y-46655000I-150000J0D01*
G01*
X62610000Y-46655000D01*
G75*
G02*
X62460000Y-46505000I0J150000D01*
G01*
X62460000Y-46205000D01*
G75*
G02*
X62610000Y-46055000I150000J0D01*
G01*
X64260000Y-46055000D01*
G75*
G02*
X64410000Y-46205000I0J-150000D01*
G01*
G37*
%TD*%
%TO.C,R23*%
G36*
G01*
X128330000Y-79825001D02*
X128330000Y-78924999D01*
G75*
G02*
X128579999Y-78675000I249999J0D01*
G01*
X129230001Y-78675000D01*
G75*
G02*
X129480000Y-78924999I0J-249999D01*
G01*
X129480000Y-79825001D01*
G75*
G02*
X129230001Y-80075000I-249999J0D01*
G01*
X128579999Y-80075000D01*
G75*
G02*
X128330000Y-79825001I0J249999D01*
G01*
G37*
G36*
G01*
X126280000Y-79825001D02*
X126280000Y-78924999D01*
G75*
G02*
X126529999Y-78675000I249999J0D01*
G01*
X127180001Y-78675000D01*
G75*
G02*
X127430000Y-78924999I0J-249999D01*
G01*
X127430000Y-79825001D01*
G75*
G02*
X127180001Y-80075000I-249999J0D01*
G01*
X126529999Y-80075000D01*
G75*
G02*
X126280000Y-79825001I0J249999D01*
G01*
G37*
%TD*%
%TO.C,R22*%
G36*
G01*
X135070001Y-79560000D02*
X134169999Y-79560000D01*
G75*
G02*
X133920000Y-79310001I0J249999D01*
G01*
X133920000Y-78659999D01*
G75*
G02*
X134169999Y-78410000I249999J0D01*
G01*
X135070001Y-78410000D01*
G75*
G02*
X135320000Y-78659999I0J-249999D01*
G01*
X135320000Y-79310001D01*
G75*
G02*
X135070001Y-79560000I-249999J0D01*
G01*
G37*
G36*
G01*
X135070001Y-81610000D02*
X134169999Y-81610000D01*
G75*
G02*
X133920000Y-81360001I0J249999D01*
G01*
X133920000Y-80709999D01*
G75*
G02*
X134169999Y-80460000I249999J0D01*
G01*
X135070001Y-80460000D01*
G75*
G02*
X135320000Y-80709999I0J-249999D01*
G01*
X135320000Y-81360001D01*
G75*
G02*
X135070001Y-81610000I-249999J0D01*
G01*
G37*
%TD*%
%TO.C,R21*%
G36*
G01*
X124275000Y-79825001D02*
X124275000Y-78924999D01*
G75*
G02*
X124524999Y-78675000I249999J0D01*
G01*
X125175001Y-78675000D01*
G75*
G02*
X125425000Y-78924999I0J-249999D01*
G01*
X125425000Y-79825001D01*
G75*
G02*
X125175001Y-80075000I-249999J0D01*
G01*
X124524999Y-80075000D01*
G75*
G02*
X124275000Y-79825001I0J249999D01*
G01*
G37*
G36*
G01*
X122225000Y-79825001D02*
X122225000Y-78924999D01*
G75*
G02*
X122474999Y-78675000I249999J0D01*
G01*
X123125001Y-78675000D01*
G75*
G02*
X123375000Y-78924999I0J-249999D01*
G01*
X123375000Y-79825001D01*
G75*
G02*
X123125001Y-80075000I-249999J0D01*
G01*
X122474999Y-80075000D01*
G75*
G02*
X122225000Y-79825001I0J249999D01*
G01*
G37*
%TD*%
%TO.C,R20*%
G36*
G01*
X130994999Y-80460000D02*
X131895001Y-80460000D01*
G75*
G02*
X132145000Y-80709999I0J-249999D01*
G01*
X132145000Y-81360001D01*
G75*
G02*
X131895001Y-81610000I-249999J0D01*
G01*
X130994999Y-81610000D01*
G75*
G02*
X130745000Y-81360001I0J249999D01*
G01*
X130745000Y-80709999D01*
G75*
G02*
X130994999Y-80460000I249999J0D01*
G01*
G37*
G36*
G01*
X130994999Y-78410000D02*
X131895001Y-78410000D01*
G75*
G02*
X132145000Y-78659999I0J-249999D01*
G01*
X132145000Y-79310001D01*
G75*
G02*
X131895001Y-79560000I-249999J0D01*
G01*
X130994999Y-79560000D01*
G75*
G02*
X130745000Y-79310001I0J249999D01*
G01*
X130745000Y-78659999D01*
G75*
G02*
X130994999Y-78410000I249999J0D01*
G01*
G37*
%TD*%
%TO.C,R19*%
G36*
G01*
X69579799Y-58290438D02*
X69579799Y-59190440D01*
G75*
G02*
X69329800Y-59440439I-249999J0D01*
G01*
X68679798Y-59440439D01*
G75*
G02*
X68429799Y-59190440I0J249999D01*
G01*
X68429799Y-58290438D01*
G75*
G02*
X68679798Y-58040439I249999J0D01*
G01*
X69329800Y-58040439D01*
G75*
G02*
X69579799Y-58290438I0J-249999D01*
G01*
G37*
G36*
G01*
X71629799Y-58290438D02*
X71629799Y-59190440D01*
G75*
G02*
X71379800Y-59440439I-249999J0D01*
G01*
X70729798Y-59440439D01*
G75*
G02*
X70479799Y-59190440I0J249999D01*
G01*
X70479799Y-58290438D01*
G75*
G02*
X70729798Y-58040439I249999J0D01*
G01*
X71379800Y-58040439D01*
G75*
G02*
X71629799Y-58290438I0J-249999D01*
G01*
G37*
%TD*%
%TO.C,R18*%
G36*
G01*
X69577800Y-61386299D02*
X69577800Y-62286301D01*
G75*
G02*
X69327801Y-62536300I-249999J0D01*
G01*
X68677799Y-62536300D01*
G75*
G02*
X68427800Y-62286301I0J249999D01*
G01*
X68427800Y-61386299D01*
G75*
G02*
X68677799Y-61136300I249999J0D01*
G01*
X69327801Y-61136300D01*
G75*
G02*
X69577800Y-61386299I0J-249999D01*
G01*
G37*
G36*
G01*
X71627800Y-61386299D02*
X71627800Y-62286301D01*
G75*
G02*
X71377801Y-62536300I-249999J0D01*
G01*
X70727799Y-62536300D01*
G75*
G02*
X70477800Y-62286301I0J249999D01*
G01*
X70477800Y-61386299D01*
G75*
G02*
X70727799Y-61136300I249999J0D01*
G01*
X71377801Y-61136300D01*
G75*
G02*
X71627800Y-61386299I0J-249999D01*
G01*
G37*
%TD*%
%TO.C,R17*%
G36*
G01*
X74035500Y-58287499D02*
X74035500Y-59187501D01*
G75*
G02*
X73785501Y-59437500I-249999J0D01*
G01*
X73135499Y-59437500D01*
G75*
G02*
X72885500Y-59187501I0J249999D01*
G01*
X72885500Y-58287499D01*
G75*
G02*
X73135499Y-58037500I249999J0D01*
G01*
X73785501Y-58037500D01*
G75*
G02*
X74035500Y-58287499I0J-249999D01*
G01*
G37*
G36*
G01*
X76085500Y-58287499D02*
X76085500Y-59187501D01*
G75*
G02*
X75835501Y-59437500I-249999J0D01*
G01*
X75185499Y-59437500D01*
G75*
G02*
X74935500Y-59187501I0J249999D01*
G01*
X74935500Y-58287499D01*
G75*
G02*
X75185499Y-58037500I249999J0D01*
G01*
X75835501Y-58037500D01*
G75*
G02*
X76085500Y-58287499I0J-249999D01*
G01*
G37*
%TD*%
%TO.C,R16*%
G36*
G01*
X74035500Y-61373599D02*
X74035500Y-62273601D01*
G75*
G02*
X73785501Y-62523600I-249999J0D01*
G01*
X73135499Y-62523600D01*
G75*
G02*
X72885500Y-62273601I0J249999D01*
G01*
X72885500Y-61373599D01*
G75*
G02*
X73135499Y-61123600I249999J0D01*
G01*
X73785501Y-61123600D01*
G75*
G02*
X74035500Y-61373599I0J-249999D01*
G01*
G37*
G36*
G01*
X76085500Y-61373599D02*
X76085500Y-62273601D01*
G75*
G02*
X75835501Y-62523600I-249999J0D01*
G01*
X75185499Y-62523600D01*
G75*
G02*
X74935500Y-62273601I0J249999D01*
G01*
X74935500Y-61373599D01*
G75*
G02*
X75185499Y-61123600I249999J0D01*
G01*
X75835501Y-61123600D01*
G75*
G02*
X76085500Y-61373599I0J-249999D01*
G01*
G37*
%TD*%
%TO.C,R15*%
G36*
G01*
X112210000Y-79825001D02*
X112210000Y-78924999D01*
G75*
G02*
X112459999Y-78675000I249999J0D01*
G01*
X113110001Y-78675000D01*
G75*
G02*
X113360000Y-78924999I0J-249999D01*
G01*
X113360000Y-79825001D01*
G75*
G02*
X113110001Y-80075000I-249999J0D01*
G01*
X112459999Y-80075000D01*
G75*
G02*
X112210000Y-79825001I0J249999D01*
G01*
G37*
G36*
G01*
X110160000Y-79825001D02*
X110160000Y-78924999D01*
G75*
G02*
X110409999Y-78675000I249999J0D01*
G01*
X111060001Y-78675000D01*
G75*
G02*
X111310000Y-78924999I0J-249999D01*
G01*
X111310000Y-79825001D01*
G75*
G02*
X111060001Y-80075000I-249999J0D01*
G01*
X110409999Y-80075000D01*
G75*
G02*
X110160000Y-79825001I0J249999D01*
G01*
G37*
%TD*%
%TO.C,R14*%
G36*
G01*
X119195001Y-79560000D02*
X118294999Y-79560000D01*
G75*
G02*
X118045000Y-79310001I0J249999D01*
G01*
X118045000Y-78659999D01*
G75*
G02*
X118294999Y-78410000I249999J0D01*
G01*
X119195001Y-78410000D01*
G75*
G02*
X119445000Y-78659999I0J-249999D01*
G01*
X119445000Y-79310001D01*
G75*
G02*
X119195001Y-79560000I-249999J0D01*
G01*
G37*
G36*
G01*
X119195001Y-81610000D02*
X118294999Y-81610000D01*
G75*
G02*
X118045000Y-81360001I0J249999D01*
G01*
X118045000Y-80709999D01*
G75*
G02*
X118294999Y-80460000I249999J0D01*
G01*
X119195001Y-80460000D01*
G75*
G02*
X119445000Y-80709999I0J-249999D01*
G01*
X119445000Y-81360001D01*
G75*
G02*
X119195001Y-81610000I-249999J0D01*
G01*
G37*
%TD*%
%TO.C,R13*%
G36*
G01*
X107765000Y-79825001D02*
X107765000Y-78924999D01*
G75*
G02*
X108014999Y-78675000I249999J0D01*
G01*
X108665001Y-78675000D01*
G75*
G02*
X108915000Y-78924999I0J-249999D01*
G01*
X108915000Y-79825001D01*
G75*
G02*
X108665001Y-80075000I-249999J0D01*
G01*
X108014999Y-80075000D01*
G75*
G02*
X107765000Y-79825001I0J249999D01*
G01*
G37*
G36*
G01*
X105715000Y-79825001D02*
X105715000Y-78924999D01*
G75*
G02*
X105964999Y-78675000I249999J0D01*
G01*
X106615001Y-78675000D01*
G75*
G02*
X106865000Y-78924999I0J-249999D01*
G01*
X106865000Y-79825001D01*
G75*
G02*
X106615001Y-80075000I-249999J0D01*
G01*
X105964999Y-80075000D01*
G75*
G02*
X105715000Y-79825001I0J249999D01*
G01*
G37*
%TD*%
%TO.C,R12*%
G36*
G01*
X115119999Y-80460000D02*
X116020001Y-80460000D01*
G75*
G02*
X116270000Y-80709999I0J-249999D01*
G01*
X116270000Y-81360001D01*
G75*
G02*
X116020001Y-81610000I-249999J0D01*
G01*
X115119999Y-81610000D01*
G75*
G02*
X114870000Y-81360001I0J249999D01*
G01*
X114870000Y-80709999D01*
G75*
G02*
X115119999Y-80460000I249999J0D01*
G01*
G37*
G36*
G01*
X115119999Y-78410000D02*
X116020001Y-78410000D01*
G75*
G02*
X116270000Y-78659999I0J-249999D01*
G01*
X116270000Y-79310001D01*
G75*
G02*
X116020001Y-79560000I-249999J0D01*
G01*
X115119999Y-79560000D01*
G75*
G02*
X114870000Y-79310001I0J249999D01*
G01*
X114870000Y-78659999D01*
G75*
G02*
X115119999Y-78410000I249999J0D01*
G01*
G37*
%TD*%
%TO.C,R11*%
G36*
G01*
X72840001Y-34475000D02*
X71939999Y-34475000D01*
G75*
G02*
X71690000Y-34225001I0J249999D01*
G01*
X71690000Y-33574999D01*
G75*
G02*
X71939999Y-33325000I249999J0D01*
G01*
X72840001Y-33325000D01*
G75*
G02*
X73090000Y-33574999I0J-249999D01*
G01*
X73090000Y-34225001D01*
G75*
G02*
X72840001Y-34475000I-249999J0D01*
G01*
G37*
G36*
G01*
X72840001Y-36525000D02*
X71939999Y-36525000D01*
G75*
G02*
X71690000Y-36275001I0J249999D01*
G01*
X71690000Y-35624999D01*
G75*
G02*
X71939999Y-35375000I249999J0D01*
G01*
X72840001Y-35375000D01*
G75*
G02*
X73090000Y-35624999I0J-249999D01*
G01*
X73090000Y-36275001D01*
G75*
G02*
X72840001Y-36525000I-249999J0D01*
G01*
G37*
%TD*%
%TO.C,C7*%
G36*
G01*
X55060000Y-76015001D02*
X55060000Y-75114999D01*
G75*
G02*
X55309999Y-74865000I249999J0D01*
G01*
X55960001Y-74865000D01*
G75*
G02*
X56210000Y-75114999I0J-249999D01*
G01*
X56210000Y-76015001D01*
G75*
G02*
X55960001Y-76265000I-249999J0D01*
G01*
X55309999Y-76265000D01*
G75*
G02*
X55060000Y-76015001I0J249999D01*
G01*
G37*
G36*
G01*
X53010000Y-76015001D02*
X53010000Y-75114999D01*
G75*
G02*
X53259999Y-74865000I249999J0D01*
G01*
X53910001Y-74865000D01*
G75*
G02*
X54160000Y-75114999I0J-249999D01*
G01*
X54160000Y-76015001D01*
G75*
G02*
X53910001Y-76265000I-249999J0D01*
G01*
X53259999Y-76265000D01*
G75*
G02*
X53010000Y-76015001I0J249999D01*
G01*
G37*
%TD*%
%TO.C,C6*%
G36*
G01*
X55430000Y-49714999D02*
X55430000Y-50615001D01*
G75*
G02*
X55180001Y-50865000I-249999J0D01*
G01*
X54529999Y-50865000D01*
G75*
G02*
X54280000Y-50615001I0J249999D01*
G01*
X54280000Y-49714999D01*
G75*
G02*
X54529999Y-49465000I249999J0D01*
G01*
X55180001Y-49465000D01*
G75*
G02*
X55430000Y-49714999I0J-249999D01*
G01*
G37*
G36*
G01*
X57480000Y-49714999D02*
X57480000Y-50615001D01*
G75*
G02*
X57230001Y-50865000I-249999J0D01*
G01*
X56579999Y-50865000D01*
G75*
G02*
X56330000Y-50615001I0J249999D01*
G01*
X56330000Y-49714999D01*
G75*
G02*
X56579999Y-49465000I249999J0D01*
G01*
X57230001Y-49465000D01*
G75*
G02*
X57480000Y-49714999I0J-249999D01*
G01*
G37*
%TD*%
%TO.C,R5*%
G36*
G01*
X69665001Y-34475000D02*
X68764999Y-34475000D01*
G75*
G02*
X68515000Y-34225001I0J249999D01*
G01*
X68515000Y-33574999D01*
G75*
G02*
X68764999Y-33325000I249999J0D01*
G01*
X69665001Y-33325000D01*
G75*
G02*
X69915000Y-33574999I0J-249999D01*
G01*
X69915000Y-34225001D01*
G75*
G02*
X69665001Y-34475000I-249999J0D01*
G01*
G37*
G36*
G01*
X69665001Y-36525000D02*
X68764999Y-36525000D01*
G75*
G02*
X68515000Y-36275001I0J249999D01*
G01*
X68515000Y-35624999D01*
G75*
G02*
X68764999Y-35375000I249999J0D01*
G01*
X69665001Y-35375000D01*
G75*
G02*
X69915000Y-35624999I0J-249999D01*
G01*
X69915000Y-36275001D01*
G75*
G02*
X69665001Y-36525000I-249999J0D01*
G01*
G37*
%TD*%
%TO.C,R4*%
G36*
G01*
X61780000Y-49714999D02*
X61780000Y-50615001D01*
G75*
G02*
X61530001Y-50865000I-249999J0D01*
G01*
X60879999Y-50865000D01*
G75*
G02*
X60630000Y-50615001I0J249999D01*
G01*
X60630000Y-49714999D01*
G75*
G02*
X60879999Y-49465000I249999J0D01*
G01*
X61530001Y-49465000D01*
G75*
G02*
X61780000Y-49714999I0J-249999D01*
G01*
G37*
G36*
G01*
X63830000Y-49714999D02*
X63830000Y-50615001D01*
G75*
G02*
X63580001Y-50865000I-249999J0D01*
G01*
X62929999Y-50865000D01*
G75*
G02*
X62680000Y-50615001I0J249999D01*
G01*
X62680000Y-49714999D01*
G75*
G02*
X62929999Y-49465000I249999J0D01*
G01*
X63580001Y-49465000D01*
G75*
G02*
X63830000Y-49714999I0J-249999D01*
G01*
G37*
%TD*%
%TO.C,R3*%
G36*
G01*
X61780000Y-52889999D02*
X61780000Y-53790001D01*
G75*
G02*
X61530001Y-54040000I-249999J0D01*
G01*
X60879999Y-54040000D01*
G75*
G02*
X60630000Y-53790001I0J249999D01*
G01*
X60630000Y-52889999D01*
G75*
G02*
X60879999Y-52640000I249999J0D01*
G01*
X61530001Y-52640000D01*
G75*
G02*
X61780000Y-52889999I0J-249999D01*
G01*
G37*
G36*
G01*
X63830000Y-52889999D02*
X63830000Y-53790001D01*
G75*
G02*
X63580001Y-54040000I-249999J0D01*
G01*
X62929999Y-54040000D01*
G75*
G02*
X62680000Y-53790001I0J249999D01*
G01*
X62680000Y-52889999D01*
G75*
G02*
X62929999Y-52640000I249999J0D01*
G01*
X63580001Y-52640000D01*
G75*
G02*
X63830000Y-52889999I0J-249999D01*
G01*
G37*
%TD*%
%TO.C,R2*%
G36*
G01*
X66490001Y-34475000D02*
X65589999Y-34475000D01*
G75*
G02*
X65340000Y-34225001I0J249999D01*
G01*
X65340000Y-33574999D01*
G75*
G02*
X65589999Y-33325000I249999J0D01*
G01*
X66490001Y-33325000D01*
G75*
G02*
X66740000Y-33574999I0J-249999D01*
G01*
X66740000Y-34225001D01*
G75*
G02*
X66490001Y-34475000I-249999J0D01*
G01*
G37*
G36*
G01*
X66490001Y-36525000D02*
X65589999Y-36525000D01*
G75*
G02*
X65340000Y-36275001I0J249999D01*
G01*
X65340000Y-35624999D01*
G75*
G02*
X65589999Y-35375000I249999J0D01*
G01*
X66490001Y-35375000D01*
G75*
G02*
X66740000Y-35624999I0J-249999D01*
G01*
X66740000Y-36275001D01*
G75*
G02*
X66490001Y-36525000I-249999J0D01*
G01*
G37*
%TD*%
%TO.C,R1*%
G36*
G01*
X63315001Y-34475000D02*
X62414999Y-34475000D01*
G75*
G02*
X62165000Y-34225001I0J249999D01*
G01*
X62165000Y-33574999D01*
G75*
G02*
X62414999Y-33325000I249999J0D01*
G01*
X63315001Y-33325000D01*
G75*
G02*
X63565000Y-33574999I0J-249999D01*
G01*
X63565000Y-34225001D01*
G75*
G02*
X63315001Y-34475000I-249999J0D01*
G01*
G37*
G36*
G01*
X63315001Y-36525000D02*
X62414999Y-36525000D01*
G75*
G02*
X62165000Y-36275001I0J249999D01*
G01*
X62165000Y-35624999D01*
G75*
G02*
X62414999Y-35375000I249999J0D01*
G01*
X63315001Y-35375000D01*
G75*
G02*
X63565000Y-35624999I0J-249999D01*
G01*
X63565000Y-36275001D01*
G75*
G02*
X63315001Y-36525000I-249999J0D01*
G01*
G37*
%TD*%
D16*
%TO.C,PS1*%
X114935000Y-43815000D03*
X117475000Y-43815000D03*
X120015000Y-43815000D03*
X125095000Y-43815000D03*
D17*
X127635000Y-43815000D03*
%TD*%
D18*
%TO.C,M2*%
X127715000Y-74615000D03*
X127715000Y-76515000D03*
X125015000Y-76515000D03*
X125015000Y-75565000D03*
X125015000Y-74615000D03*
%TD*%
%TO.C,M1*%
X111840000Y-74742000D03*
X111840000Y-76642000D03*
X109140000Y-76642000D03*
X109140000Y-75692000D03*
X109140000Y-74742000D03*
%TD*%
%TO.C,L2*%
G36*
G01*
X129120000Y-70670000D02*
X127420000Y-70670000D01*
G75*
G02*
X127170000Y-70420000I0J250000D01*
G01*
X127170000Y-69670000D01*
G75*
G02*
X127420000Y-69420000I250000J0D01*
G01*
X129120000Y-69420000D01*
G75*
G02*
X129370000Y-69670000I0J-250000D01*
G01*
X129370000Y-70420000D01*
G75*
G02*
X129120000Y-70670000I-250000J0D01*
G01*
G37*
G36*
G01*
X129120000Y-72820000D02*
X127420000Y-72820000D01*
G75*
G02*
X127170000Y-72570000I0J250000D01*
G01*
X127170000Y-71820000D01*
G75*
G02*
X127420000Y-71570000I250000J0D01*
G01*
X129120000Y-71570000D01*
G75*
G02*
X129370000Y-71820000I0J-250000D01*
G01*
X129370000Y-72570000D01*
G75*
G02*
X129120000Y-72820000I-250000J0D01*
G01*
G37*
%TD*%
%TO.C,L1*%
G36*
G01*
X113245000Y-70670000D02*
X111545000Y-70670000D01*
G75*
G02*
X111295000Y-70420000I0J250000D01*
G01*
X111295000Y-69670000D01*
G75*
G02*
X111545000Y-69420000I250000J0D01*
G01*
X113245000Y-69420000D01*
G75*
G02*
X113495000Y-69670000I0J-250000D01*
G01*
X113495000Y-70420000D01*
G75*
G02*
X113245000Y-70670000I-250000J0D01*
G01*
G37*
G36*
G01*
X113245000Y-72820000D02*
X111545000Y-72820000D01*
G75*
G02*
X111295000Y-72570000I0J250000D01*
G01*
X111295000Y-71820000D01*
G75*
G02*
X111545000Y-71570000I250000J0D01*
G01*
X113245000Y-71570000D01*
G75*
G02*
X113495000Y-71820000I0J-250000D01*
G01*
X113495000Y-72570000D01*
G75*
G02*
X113245000Y-72820000I-250000J0D01*
G01*
G37*
%TD*%
D19*
%TO.C,J3*%
X88265000Y-30480000D03*
X90805000Y-30480000D03*
D20*
X93345000Y-30480000D03*
%TD*%
D19*
%TO.C,J2*%
X142240000Y-76835000D03*
X142240000Y-74295000D03*
X142240000Y-71755000D03*
X142240000Y-69215000D03*
X142240000Y-66675000D03*
X142240000Y-64135000D03*
X142240000Y-61595000D03*
X142240000Y-59055000D03*
X142240000Y-56515000D03*
X142240000Y-53975000D03*
X142240000Y-51435000D03*
X142240000Y-48895000D03*
X142240000Y-46355000D03*
X142240000Y-43815000D03*
X142240000Y-41275000D03*
D20*
X142240000Y-38735000D03*
%TD*%
D19*
%TO.C,J1*%
X38100000Y-76835000D03*
X38100000Y-74295000D03*
X38100000Y-71755000D03*
X38100000Y-69215000D03*
X38100000Y-66675000D03*
X38100000Y-64135000D03*
X38100000Y-61595000D03*
X38100000Y-59055000D03*
X38100000Y-56515000D03*
X38100000Y-53975000D03*
X38100000Y-51435000D03*
X38100000Y-48895000D03*
X38100000Y-46355000D03*
X38100000Y-43815000D03*
X38100000Y-41275000D03*
D20*
X38100000Y-38735000D03*
%TD*%
D21*
%TO.C,D6*%
X132100000Y-71755000D03*
X134600000Y-71755000D03*
%TD*%
%TO.C,D5*%
X116225000Y-71755000D03*
X118725000Y-71755000D03*
%TD*%
%TO.C,D4*%
G36*
G01*
X72152500Y-30830000D02*
X72627500Y-30830000D01*
G75*
G02*
X72865000Y-31067500I0J-237500D01*
G01*
X72865000Y-31642500D01*
G75*
G02*
X72627500Y-31880000I-237500J0D01*
G01*
X72152500Y-31880000D01*
G75*
G02*
X71915000Y-31642500I0J237500D01*
G01*
X71915000Y-31067500D01*
G75*
G02*
X72152500Y-30830000I237500J0D01*
G01*
G37*
G36*
G01*
X72152500Y-29080000D02*
X72627500Y-29080000D01*
G75*
G02*
X72865000Y-29317500I0J-237500D01*
G01*
X72865000Y-29892500D01*
G75*
G02*
X72627500Y-30130000I-237500J0D01*
G01*
X72152500Y-30130000D01*
G75*
G02*
X71915000Y-29892500I0J237500D01*
G01*
X71915000Y-29317500D01*
G75*
G02*
X72152500Y-29080000I237500J0D01*
G01*
G37*
%TD*%
%TO.C,D3*%
G36*
G01*
X68977500Y-30830000D02*
X69452500Y-30830000D01*
G75*
G02*
X69690000Y-31067500I0J-237500D01*
G01*
X69690000Y-31642500D01*
G75*
G02*
X69452500Y-31880000I-237500J0D01*
G01*
X68977500Y-31880000D01*
G75*
G02*
X68740000Y-31642500I0J237500D01*
G01*
X68740000Y-31067500D01*
G75*
G02*
X68977500Y-30830000I237500J0D01*
G01*
G37*
G36*
G01*
X68977500Y-29080000D02*
X69452500Y-29080000D01*
G75*
G02*
X69690000Y-29317500I0J-237500D01*
G01*
X69690000Y-29892500D01*
G75*
G02*
X69452500Y-30130000I-237500J0D01*
G01*
X68977500Y-30130000D01*
G75*
G02*
X68740000Y-29892500I0J237500D01*
G01*
X68740000Y-29317500D01*
G75*
G02*
X68977500Y-29080000I237500J0D01*
G01*
G37*
%TD*%
%TO.C,D2*%
G36*
G01*
X65802500Y-30830000D02*
X66277500Y-30830000D01*
G75*
G02*
X66515000Y-31067500I0J-237500D01*
G01*
X66515000Y-31642500D01*
G75*
G02*
X66277500Y-31880000I-237500J0D01*
G01*
X65802500Y-31880000D01*
G75*
G02*
X65565000Y-31642500I0J237500D01*
G01*
X65565000Y-31067500D01*
G75*
G02*
X65802500Y-30830000I237500J0D01*
G01*
G37*
G36*
G01*
X65802500Y-29080000D02*
X66277500Y-29080000D01*
G75*
G02*
X66515000Y-29317500I0J-237500D01*
G01*
X66515000Y-29892500D01*
G75*
G02*
X66277500Y-30130000I-237500J0D01*
G01*
X65802500Y-30130000D01*
G75*
G02*
X65565000Y-29892500I0J237500D01*
G01*
X65565000Y-29317500D01*
G75*
G02*
X65802500Y-29080000I237500J0D01*
G01*
G37*
%TD*%
%TO.C,D1*%
G36*
G01*
X62627500Y-30830000D02*
X63102500Y-30830000D01*
G75*
G02*
X63340000Y-31067500I0J-237500D01*
G01*
X63340000Y-31642500D01*
G75*
G02*
X63102500Y-31880000I-237500J0D01*
G01*
X62627500Y-31880000D01*
G75*
G02*
X62390000Y-31642500I0J237500D01*
G01*
X62390000Y-31067500D01*
G75*
G02*
X62627500Y-30830000I237500J0D01*
G01*
G37*
G36*
G01*
X62627500Y-29080000D02*
X63102500Y-29080000D01*
G75*
G02*
X63340000Y-29317500I0J-237500D01*
G01*
X63340000Y-29892500D01*
G75*
G02*
X63102500Y-30130000I-237500J0D01*
G01*
X62627500Y-30130000D01*
G75*
G02*
X62390000Y-29892500I0J237500D01*
G01*
X62390000Y-29317500D01*
G75*
G02*
X62627500Y-29080000I237500J0D01*
G01*
G37*
%TD*%
%TO.C,C5*%
G36*
G01*
X130994999Y-76015000D02*
X131895001Y-76015000D01*
G75*
G02*
X132145000Y-76264999I0J-249999D01*
G01*
X132145000Y-76915001D01*
G75*
G02*
X131895001Y-77165000I-249999J0D01*
G01*
X130994999Y-77165000D01*
G75*
G02*
X130745000Y-76915001I0J249999D01*
G01*
X130745000Y-76264999D01*
G75*
G02*
X130994999Y-76015000I249999J0D01*
G01*
G37*
G36*
G01*
X130994999Y-73965000D02*
X131895001Y-73965000D01*
G75*
G02*
X132145000Y-74214999I0J-249999D01*
G01*
X132145000Y-74865001D01*
G75*
G02*
X131895001Y-75115000I-249999J0D01*
G01*
X130994999Y-75115000D01*
G75*
G02*
X130745000Y-74865001I0J249999D01*
G01*
X130745000Y-74214999D01*
G75*
G02*
X130994999Y-73965000I249999J0D01*
G01*
G37*
%TD*%
%TO.C,C4*%
G36*
G01*
X134169999Y-76015000D02*
X135070001Y-76015000D01*
G75*
G02*
X135320000Y-76264999I0J-249999D01*
G01*
X135320000Y-76915001D01*
G75*
G02*
X135070001Y-77165000I-249999J0D01*
G01*
X134169999Y-77165000D01*
G75*
G02*
X133920000Y-76915001I0J249999D01*
G01*
X133920000Y-76264999D01*
G75*
G02*
X134169999Y-76015000I249999J0D01*
G01*
G37*
G36*
G01*
X134169999Y-73965000D02*
X135070001Y-73965000D01*
G75*
G02*
X135320000Y-74214999I0J-249999D01*
G01*
X135320000Y-74865001D01*
G75*
G02*
X135070001Y-75115000I-249999J0D01*
G01*
X134169999Y-75115000D01*
G75*
G02*
X133920000Y-74865001I0J249999D01*
G01*
X133920000Y-74214999D01*
G75*
G02*
X134169999Y-73965000I249999J0D01*
G01*
G37*
%TD*%
%TO.C,C3*%
G36*
G01*
X115119999Y-76015000D02*
X116020001Y-76015000D01*
G75*
G02*
X116270000Y-76264999I0J-249999D01*
G01*
X116270000Y-76915001D01*
G75*
G02*
X116020001Y-77165000I-249999J0D01*
G01*
X115119999Y-77165000D01*
G75*
G02*
X114870000Y-76915001I0J249999D01*
G01*
X114870000Y-76264999D01*
G75*
G02*
X115119999Y-76015000I249999J0D01*
G01*
G37*
G36*
G01*
X115119999Y-73965000D02*
X116020001Y-73965000D01*
G75*
G02*
X116270000Y-74214999I0J-249999D01*
G01*
X116270000Y-74865001D01*
G75*
G02*
X116020001Y-75115000I-249999J0D01*
G01*
X115119999Y-75115000D01*
G75*
G02*
X114870000Y-74865001I0J249999D01*
G01*
X114870000Y-74214999D01*
G75*
G02*
X115119999Y-73965000I249999J0D01*
G01*
G37*
%TD*%
%TO.C,C2*%
G36*
G01*
X118294999Y-76015000D02*
X119195001Y-76015000D01*
G75*
G02*
X119445000Y-76264999I0J-249999D01*
G01*
X119445000Y-76915001D01*
G75*
G02*
X119195001Y-77165000I-249999J0D01*
G01*
X118294999Y-77165000D01*
G75*
G02*
X118045000Y-76915001I0J249999D01*
G01*
X118045000Y-76264999D01*
G75*
G02*
X118294999Y-76015000I249999J0D01*
G01*
G37*
G36*
G01*
X118294999Y-73965000D02*
X119195001Y-73965000D01*
G75*
G02*
X119445000Y-74214999I0J-249999D01*
G01*
X119445000Y-74865001D01*
G75*
G02*
X119195001Y-75115000I-249999J0D01*
G01*
X118294999Y-75115000D01*
G75*
G02*
X118045000Y-74865001I0J249999D01*
G01*
X118045000Y-74214999D01*
G75*
G02*
X118294999Y-73965000I249999J0D01*
G01*
G37*
%TD*%
%TO.C,C1*%
G36*
G01*
X55430000Y-52889999D02*
X55430000Y-53790001D01*
G75*
G02*
X55180001Y-54040000I-249999J0D01*
G01*
X54529999Y-54040000D01*
G75*
G02*
X54280000Y-53790001I0J249999D01*
G01*
X54280000Y-52889999D01*
G75*
G02*
X54529999Y-52640000I249999J0D01*
G01*
X55180001Y-52640000D01*
G75*
G02*
X55430000Y-52889999I0J-249999D01*
G01*
G37*
G36*
G01*
X57480000Y-52889999D02*
X57480000Y-53790001D01*
G75*
G02*
X57230001Y-54040000I-249999J0D01*
G01*
X56579999Y-54040000D01*
G75*
G02*
X56330000Y-53790001I0J249999D01*
G01*
X56330000Y-52889999D01*
G75*
G02*
X56579999Y-52640000I249999J0D01*
G01*
X57230001Y-52640000D01*
G75*
G02*
X57480000Y-52889999I0J-249999D01*
G01*
G37*
%TD*%
M02*
