%TF.GenerationSoftware,KiCad,Pcbnew,(5.1.9-0-10_14)*%
%TF.CreationDate,2021-04-17T19:26:37+08:00*%
%TF.ProjectId,BreadControlV2-rounded,42726561-6443-46f6-9e74-726f6c56322d,rev?*%
%TF.SameCoordinates,Original*%
%TF.FileFunction,Paste,Top*%
%TF.FilePolarity,Positive*%
%FSLAX46Y46*%
G04 Gerber Fmt 4.6, Leading zero omitted, Abs format (unit mm)*
G04 Created by KiCad (PCBNEW (5.1.9-0-10_14)) date 2021-04-17 19:26:37*
%MOMM*%
%LPD*%
G01*
G04 APERTURE LIST*
%ADD10R,2.500000X2.300000*%
%ADD11R,2.300000X2.500000*%
%ADD12R,1.400000X0.300000*%
%ADD13R,1.450000X0.450000*%
%ADD14R,0.250000X1.300000*%
%ADD15R,1.300000X0.250000*%
%ADD16R,1.550000X1.300000*%
%ADD17R,0.900000X0.800000*%
%ADD18R,0.800000X0.900000*%
%ADD19R,2.000000X2.500000*%
%ADD20R,0.500000X2.250000*%
%ADD21R,0.900000X1.200000*%
%ADD22R,1.200000X0.900000*%
G04 APERTURE END LIST*
D10*
%TO.C,D16*%
X112640000Y-78740000D03*
X108340000Y-78740000D03*
%TD*%
%TO.C,D15*%
X112640000Y-74295000D03*
X108340000Y-74295000D03*
%TD*%
%TO.C,D14*%
X112640000Y-69850000D03*
X108340000Y-69850000D03*
%TD*%
%TO.C,D13*%
X112640000Y-65405000D03*
X108340000Y-65405000D03*
%TD*%
D11*
%TO.C,D12*%
X129540000Y-77225000D03*
X129540000Y-81525000D03*
%TD*%
%TO.C,D11*%
X138430000Y-77225000D03*
X138430000Y-81525000D03*
%TD*%
%TO.C,D10*%
X133985000Y-77225000D03*
X133985000Y-81525000D03*
%TD*%
%TO.C,D9*%
X125095000Y-77225000D03*
X125095000Y-81525000D03*
%TD*%
D12*
%TO.C,U8*%
X140548000Y-72755000D03*
X140548000Y-72255000D03*
X140548000Y-71755000D03*
X140548000Y-71255000D03*
X140548000Y-70755000D03*
X144948000Y-70755000D03*
X144948000Y-71255000D03*
X144948000Y-71755000D03*
X144948000Y-72255000D03*
X144948000Y-72755000D03*
%TD*%
%TO.C,U7*%
G36*
G01*
X120420000Y-73129000D02*
X120420000Y-73429000D01*
G75*
G02*
X120270000Y-73579000I-150000J0D01*
G01*
X118620000Y-73579000D01*
G75*
G02*
X118470000Y-73429000I0J150000D01*
G01*
X118470000Y-73129000D01*
G75*
G02*
X118620000Y-72979000I150000J0D01*
G01*
X120270000Y-72979000D01*
G75*
G02*
X120420000Y-73129000I0J-150000D01*
G01*
G37*
G36*
G01*
X120420000Y-71859000D02*
X120420000Y-72159000D01*
G75*
G02*
X120270000Y-72309000I-150000J0D01*
G01*
X118620000Y-72309000D01*
G75*
G02*
X118470000Y-72159000I0J150000D01*
G01*
X118470000Y-71859000D01*
G75*
G02*
X118620000Y-71709000I150000J0D01*
G01*
X120270000Y-71709000D01*
G75*
G02*
X120420000Y-71859000I0J-150000D01*
G01*
G37*
G36*
G01*
X120420000Y-70589000D02*
X120420000Y-70889000D01*
G75*
G02*
X120270000Y-71039000I-150000J0D01*
G01*
X118620000Y-71039000D01*
G75*
G02*
X118470000Y-70889000I0J150000D01*
G01*
X118470000Y-70589000D01*
G75*
G02*
X118620000Y-70439000I150000J0D01*
G01*
X120270000Y-70439000D01*
G75*
G02*
X120420000Y-70589000I0J-150000D01*
G01*
G37*
G36*
G01*
X120420000Y-69319000D02*
X120420000Y-69619000D01*
G75*
G02*
X120270000Y-69769000I-150000J0D01*
G01*
X118620000Y-69769000D01*
G75*
G02*
X118470000Y-69619000I0J150000D01*
G01*
X118470000Y-69319000D01*
G75*
G02*
X118620000Y-69169000I150000J0D01*
G01*
X120270000Y-69169000D01*
G75*
G02*
X120420000Y-69319000I0J-150000D01*
G01*
G37*
G36*
G01*
X120420000Y-68049000D02*
X120420000Y-68349000D01*
G75*
G02*
X120270000Y-68499000I-150000J0D01*
G01*
X118620000Y-68499000D01*
G75*
G02*
X118470000Y-68349000I0J150000D01*
G01*
X118470000Y-68049000D01*
G75*
G02*
X118620000Y-67899000I150000J0D01*
G01*
X120270000Y-67899000D01*
G75*
G02*
X120420000Y-68049000I0J-150000D01*
G01*
G37*
G36*
G01*
X120420000Y-66779000D02*
X120420000Y-67079000D01*
G75*
G02*
X120270000Y-67229000I-150000J0D01*
G01*
X118620000Y-67229000D01*
G75*
G02*
X118470000Y-67079000I0J150000D01*
G01*
X118470000Y-66779000D01*
G75*
G02*
X118620000Y-66629000I150000J0D01*
G01*
X120270000Y-66629000D01*
G75*
G02*
X120420000Y-66779000I0J-150000D01*
G01*
G37*
G36*
G01*
X120420000Y-65509000D02*
X120420000Y-65809000D01*
G75*
G02*
X120270000Y-65959000I-150000J0D01*
G01*
X118620000Y-65959000D01*
G75*
G02*
X118470000Y-65809000I0J150000D01*
G01*
X118470000Y-65509000D01*
G75*
G02*
X118620000Y-65359000I150000J0D01*
G01*
X120270000Y-65359000D01*
G75*
G02*
X120420000Y-65509000I0J-150000D01*
G01*
G37*
G36*
G01*
X120420000Y-64239000D02*
X120420000Y-64539000D01*
G75*
G02*
X120270000Y-64689000I-150000J0D01*
G01*
X118620000Y-64689000D01*
G75*
G02*
X118470000Y-64539000I0J150000D01*
G01*
X118470000Y-64239000D01*
G75*
G02*
X118620000Y-64089000I150000J0D01*
G01*
X120270000Y-64089000D01*
G75*
G02*
X120420000Y-64239000I0J-150000D01*
G01*
G37*
G36*
G01*
X125370000Y-64239000D02*
X125370000Y-64539000D01*
G75*
G02*
X125220000Y-64689000I-150000J0D01*
G01*
X123570000Y-64689000D01*
G75*
G02*
X123420000Y-64539000I0J150000D01*
G01*
X123420000Y-64239000D01*
G75*
G02*
X123570000Y-64089000I150000J0D01*
G01*
X125220000Y-64089000D01*
G75*
G02*
X125370000Y-64239000I0J-150000D01*
G01*
G37*
G36*
G01*
X125370000Y-65509000D02*
X125370000Y-65809000D01*
G75*
G02*
X125220000Y-65959000I-150000J0D01*
G01*
X123570000Y-65959000D01*
G75*
G02*
X123420000Y-65809000I0J150000D01*
G01*
X123420000Y-65509000D01*
G75*
G02*
X123570000Y-65359000I150000J0D01*
G01*
X125220000Y-65359000D01*
G75*
G02*
X125370000Y-65509000I0J-150000D01*
G01*
G37*
G36*
G01*
X125370000Y-66779000D02*
X125370000Y-67079000D01*
G75*
G02*
X125220000Y-67229000I-150000J0D01*
G01*
X123570000Y-67229000D01*
G75*
G02*
X123420000Y-67079000I0J150000D01*
G01*
X123420000Y-66779000D01*
G75*
G02*
X123570000Y-66629000I150000J0D01*
G01*
X125220000Y-66629000D01*
G75*
G02*
X125370000Y-66779000I0J-150000D01*
G01*
G37*
G36*
G01*
X125370000Y-68049000D02*
X125370000Y-68349000D01*
G75*
G02*
X125220000Y-68499000I-150000J0D01*
G01*
X123570000Y-68499000D01*
G75*
G02*
X123420000Y-68349000I0J150000D01*
G01*
X123420000Y-68049000D01*
G75*
G02*
X123570000Y-67899000I150000J0D01*
G01*
X125220000Y-67899000D01*
G75*
G02*
X125370000Y-68049000I0J-150000D01*
G01*
G37*
G36*
G01*
X125370000Y-69319000D02*
X125370000Y-69619000D01*
G75*
G02*
X125220000Y-69769000I-150000J0D01*
G01*
X123570000Y-69769000D01*
G75*
G02*
X123420000Y-69619000I0J150000D01*
G01*
X123420000Y-69319000D01*
G75*
G02*
X123570000Y-69169000I150000J0D01*
G01*
X125220000Y-69169000D01*
G75*
G02*
X125370000Y-69319000I0J-150000D01*
G01*
G37*
G36*
G01*
X125370000Y-70589000D02*
X125370000Y-70889000D01*
G75*
G02*
X125220000Y-71039000I-150000J0D01*
G01*
X123570000Y-71039000D01*
G75*
G02*
X123420000Y-70889000I0J150000D01*
G01*
X123420000Y-70589000D01*
G75*
G02*
X123570000Y-70439000I150000J0D01*
G01*
X125220000Y-70439000D01*
G75*
G02*
X125370000Y-70589000I0J-150000D01*
G01*
G37*
G36*
G01*
X125370000Y-71859000D02*
X125370000Y-72159000D01*
G75*
G02*
X125220000Y-72309000I-150000J0D01*
G01*
X123570000Y-72309000D01*
G75*
G02*
X123420000Y-72159000I0J150000D01*
G01*
X123420000Y-71859000D01*
G75*
G02*
X123570000Y-71709000I150000J0D01*
G01*
X125220000Y-71709000D01*
G75*
G02*
X125370000Y-71859000I0J-150000D01*
G01*
G37*
G36*
G01*
X125370000Y-73129000D02*
X125370000Y-73429000D01*
G75*
G02*
X125220000Y-73579000I-150000J0D01*
G01*
X123570000Y-73579000D01*
G75*
G02*
X123420000Y-73429000I0J150000D01*
G01*
X123420000Y-73129000D01*
G75*
G02*
X123570000Y-72979000I150000J0D01*
G01*
X125220000Y-72979000D01*
G75*
G02*
X125370000Y-73129000I0J-150000D01*
G01*
G37*
%TD*%
%TO.C,U6*%
G36*
G01*
X132945000Y-64539000D02*
X132945000Y-64239000D01*
G75*
G02*
X133095000Y-64089000I150000J0D01*
G01*
X134745000Y-64089000D01*
G75*
G02*
X134895000Y-64239000I0J-150000D01*
G01*
X134895000Y-64539000D01*
G75*
G02*
X134745000Y-64689000I-150000J0D01*
G01*
X133095000Y-64689000D01*
G75*
G02*
X132945000Y-64539000I0J150000D01*
G01*
G37*
G36*
G01*
X132945000Y-65809000D02*
X132945000Y-65509000D01*
G75*
G02*
X133095000Y-65359000I150000J0D01*
G01*
X134745000Y-65359000D01*
G75*
G02*
X134895000Y-65509000I0J-150000D01*
G01*
X134895000Y-65809000D01*
G75*
G02*
X134745000Y-65959000I-150000J0D01*
G01*
X133095000Y-65959000D01*
G75*
G02*
X132945000Y-65809000I0J150000D01*
G01*
G37*
G36*
G01*
X132945000Y-67079000D02*
X132945000Y-66779000D01*
G75*
G02*
X133095000Y-66629000I150000J0D01*
G01*
X134745000Y-66629000D01*
G75*
G02*
X134895000Y-66779000I0J-150000D01*
G01*
X134895000Y-67079000D01*
G75*
G02*
X134745000Y-67229000I-150000J0D01*
G01*
X133095000Y-67229000D01*
G75*
G02*
X132945000Y-67079000I0J150000D01*
G01*
G37*
G36*
G01*
X132945000Y-68349000D02*
X132945000Y-68049000D01*
G75*
G02*
X133095000Y-67899000I150000J0D01*
G01*
X134745000Y-67899000D01*
G75*
G02*
X134895000Y-68049000I0J-150000D01*
G01*
X134895000Y-68349000D01*
G75*
G02*
X134745000Y-68499000I-150000J0D01*
G01*
X133095000Y-68499000D01*
G75*
G02*
X132945000Y-68349000I0J150000D01*
G01*
G37*
G36*
G01*
X132945000Y-69619000D02*
X132945000Y-69319000D01*
G75*
G02*
X133095000Y-69169000I150000J0D01*
G01*
X134745000Y-69169000D01*
G75*
G02*
X134895000Y-69319000I0J-150000D01*
G01*
X134895000Y-69619000D01*
G75*
G02*
X134745000Y-69769000I-150000J0D01*
G01*
X133095000Y-69769000D01*
G75*
G02*
X132945000Y-69619000I0J150000D01*
G01*
G37*
G36*
G01*
X132945000Y-70889000D02*
X132945000Y-70589000D01*
G75*
G02*
X133095000Y-70439000I150000J0D01*
G01*
X134745000Y-70439000D01*
G75*
G02*
X134895000Y-70589000I0J-150000D01*
G01*
X134895000Y-70889000D01*
G75*
G02*
X134745000Y-71039000I-150000J0D01*
G01*
X133095000Y-71039000D01*
G75*
G02*
X132945000Y-70889000I0J150000D01*
G01*
G37*
G36*
G01*
X132945000Y-72159000D02*
X132945000Y-71859000D01*
G75*
G02*
X133095000Y-71709000I150000J0D01*
G01*
X134745000Y-71709000D01*
G75*
G02*
X134895000Y-71859000I0J-150000D01*
G01*
X134895000Y-72159000D01*
G75*
G02*
X134745000Y-72309000I-150000J0D01*
G01*
X133095000Y-72309000D01*
G75*
G02*
X132945000Y-72159000I0J150000D01*
G01*
G37*
G36*
G01*
X132945000Y-73429000D02*
X132945000Y-73129000D01*
G75*
G02*
X133095000Y-72979000I150000J0D01*
G01*
X134745000Y-72979000D01*
G75*
G02*
X134895000Y-73129000I0J-150000D01*
G01*
X134895000Y-73429000D01*
G75*
G02*
X134745000Y-73579000I-150000J0D01*
G01*
X133095000Y-73579000D01*
G75*
G02*
X132945000Y-73429000I0J150000D01*
G01*
G37*
G36*
G01*
X127995000Y-73429000D02*
X127995000Y-73129000D01*
G75*
G02*
X128145000Y-72979000I150000J0D01*
G01*
X129795000Y-72979000D01*
G75*
G02*
X129945000Y-73129000I0J-150000D01*
G01*
X129945000Y-73429000D01*
G75*
G02*
X129795000Y-73579000I-150000J0D01*
G01*
X128145000Y-73579000D01*
G75*
G02*
X127995000Y-73429000I0J150000D01*
G01*
G37*
G36*
G01*
X127995000Y-72159000D02*
X127995000Y-71859000D01*
G75*
G02*
X128145000Y-71709000I150000J0D01*
G01*
X129795000Y-71709000D01*
G75*
G02*
X129945000Y-71859000I0J-150000D01*
G01*
X129945000Y-72159000D01*
G75*
G02*
X129795000Y-72309000I-150000J0D01*
G01*
X128145000Y-72309000D01*
G75*
G02*
X127995000Y-72159000I0J150000D01*
G01*
G37*
G36*
G01*
X127995000Y-70889000D02*
X127995000Y-70589000D01*
G75*
G02*
X128145000Y-70439000I150000J0D01*
G01*
X129795000Y-70439000D01*
G75*
G02*
X129945000Y-70589000I0J-150000D01*
G01*
X129945000Y-70889000D01*
G75*
G02*
X129795000Y-71039000I-150000J0D01*
G01*
X128145000Y-71039000D01*
G75*
G02*
X127995000Y-70889000I0J150000D01*
G01*
G37*
G36*
G01*
X127995000Y-69619000D02*
X127995000Y-69319000D01*
G75*
G02*
X128145000Y-69169000I150000J0D01*
G01*
X129795000Y-69169000D01*
G75*
G02*
X129945000Y-69319000I0J-150000D01*
G01*
X129945000Y-69619000D01*
G75*
G02*
X129795000Y-69769000I-150000J0D01*
G01*
X128145000Y-69769000D01*
G75*
G02*
X127995000Y-69619000I0J150000D01*
G01*
G37*
G36*
G01*
X127995000Y-68349000D02*
X127995000Y-68049000D01*
G75*
G02*
X128145000Y-67899000I150000J0D01*
G01*
X129795000Y-67899000D01*
G75*
G02*
X129945000Y-68049000I0J-150000D01*
G01*
X129945000Y-68349000D01*
G75*
G02*
X129795000Y-68499000I-150000J0D01*
G01*
X128145000Y-68499000D01*
G75*
G02*
X127995000Y-68349000I0J150000D01*
G01*
G37*
G36*
G01*
X127995000Y-67079000D02*
X127995000Y-66779000D01*
G75*
G02*
X128145000Y-66629000I150000J0D01*
G01*
X129795000Y-66629000D01*
G75*
G02*
X129945000Y-66779000I0J-150000D01*
G01*
X129945000Y-67079000D01*
G75*
G02*
X129795000Y-67229000I-150000J0D01*
G01*
X128145000Y-67229000D01*
G75*
G02*
X127995000Y-67079000I0J150000D01*
G01*
G37*
G36*
G01*
X127995000Y-65809000D02*
X127995000Y-65509000D01*
G75*
G02*
X128145000Y-65359000I150000J0D01*
G01*
X129795000Y-65359000D01*
G75*
G02*
X129945000Y-65509000I0J-150000D01*
G01*
X129945000Y-65809000D01*
G75*
G02*
X129795000Y-65959000I-150000J0D01*
G01*
X128145000Y-65959000D01*
G75*
G02*
X127995000Y-65809000I0J150000D01*
G01*
G37*
G36*
G01*
X127995000Y-64539000D02*
X127995000Y-64239000D01*
G75*
G02*
X128145000Y-64089000I150000J0D01*
G01*
X129795000Y-64089000D01*
G75*
G02*
X129945000Y-64239000I0J-150000D01*
G01*
X129945000Y-64539000D01*
G75*
G02*
X129795000Y-64689000I-150000J0D01*
G01*
X128145000Y-64689000D01*
G75*
G02*
X127995000Y-64539000I0J150000D01*
G01*
G37*
%TD*%
%TO.C,U5*%
G36*
G01*
X123675000Y-49345000D02*
X123975000Y-49345000D01*
G75*
G02*
X124125000Y-49495000I0J-150000D01*
G01*
X124125000Y-51245000D01*
G75*
G02*
X123975000Y-51395000I-150000J0D01*
G01*
X123675000Y-51395000D01*
G75*
G02*
X123525000Y-51245000I0J150000D01*
G01*
X123525000Y-49495000D01*
G75*
G02*
X123675000Y-49345000I150000J0D01*
G01*
G37*
G36*
G01*
X122405000Y-49345000D02*
X122705000Y-49345000D01*
G75*
G02*
X122855000Y-49495000I0J-150000D01*
G01*
X122855000Y-51245000D01*
G75*
G02*
X122705000Y-51395000I-150000J0D01*
G01*
X122405000Y-51395000D01*
G75*
G02*
X122255000Y-51245000I0J150000D01*
G01*
X122255000Y-49495000D01*
G75*
G02*
X122405000Y-49345000I150000J0D01*
G01*
G37*
G36*
G01*
X121135000Y-49345000D02*
X121435000Y-49345000D01*
G75*
G02*
X121585000Y-49495000I0J-150000D01*
G01*
X121585000Y-51245000D01*
G75*
G02*
X121435000Y-51395000I-150000J0D01*
G01*
X121135000Y-51395000D01*
G75*
G02*
X120985000Y-51245000I0J150000D01*
G01*
X120985000Y-49495000D01*
G75*
G02*
X121135000Y-49345000I150000J0D01*
G01*
G37*
G36*
G01*
X119865000Y-49345000D02*
X120165000Y-49345000D01*
G75*
G02*
X120315000Y-49495000I0J-150000D01*
G01*
X120315000Y-51245000D01*
G75*
G02*
X120165000Y-51395000I-150000J0D01*
G01*
X119865000Y-51395000D01*
G75*
G02*
X119715000Y-51245000I0J150000D01*
G01*
X119715000Y-49495000D01*
G75*
G02*
X119865000Y-49345000I150000J0D01*
G01*
G37*
G36*
G01*
X118595000Y-49345000D02*
X118895000Y-49345000D01*
G75*
G02*
X119045000Y-49495000I0J-150000D01*
G01*
X119045000Y-51245000D01*
G75*
G02*
X118895000Y-51395000I-150000J0D01*
G01*
X118595000Y-51395000D01*
G75*
G02*
X118445000Y-51245000I0J150000D01*
G01*
X118445000Y-49495000D01*
G75*
G02*
X118595000Y-49345000I150000J0D01*
G01*
G37*
G36*
G01*
X117325000Y-49345000D02*
X117625000Y-49345000D01*
G75*
G02*
X117775000Y-49495000I0J-150000D01*
G01*
X117775000Y-51245000D01*
G75*
G02*
X117625000Y-51395000I-150000J0D01*
G01*
X117325000Y-51395000D01*
G75*
G02*
X117175000Y-51245000I0J150000D01*
G01*
X117175000Y-49495000D01*
G75*
G02*
X117325000Y-49345000I150000J0D01*
G01*
G37*
G36*
G01*
X116055000Y-49345000D02*
X116355000Y-49345000D01*
G75*
G02*
X116505000Y-49495000I0J-150000D01*
G01*
X116505000Y-51245000D01*
G75*
G02*
X116355000Y-51395000I-150000J0D01*
G01*
X116055000Y-51395000D01*
G75*
G02*
X115905000Y-51245000I0J150000D01*
G01*
X115905000Y-49495000D01*
G75*
G02*
X116055000Y-49345000I150000J0D01*
G01*
G37*
G36*
G01*
X114785000Y-49345000D02*
X115085000Y-49345000D01*
G75*
G02*
X115235000Y-49495000I0J-150000D01*
G01*
X115235000Y-51245000D01*
G75*
G02*
X115085000Y-51395000I-150000J0D01*
G01*
X114785000Y-51395000D01*
G75*
G02*
X114635000Y-51245000I0J150000D01*
G01*
X114635000Y-49495000D01*
G75*
G02*
X114785000Y-49345000I150000J0D01*
G01*
G37*
G36*
G01*
X114785000Y-40045000D02*
X115085000Y-40045000D01*
G75*
G02*
X115235000Y-40195000I0J-150000D01*
G01*
X115235000Y-41945000D01*
G75*
G02*
X115085000Y-42095000I-150000J0D01*
G01*
X114785000Y-42095000D01*
G75*
G02*
X114635000Y-41945000I0J150000D01*
G01*
X114635000Y-40195000D01*
G75*
G02*
X114785000Y-40045000I150000J0D01*
G01*
G37*
G36*
G01*
X116055000Y-40045000D02*
X116355000Y-40045000D01*
G75*
G02*
X116505000Y-40195000I0J-150000D01*
G01*
X116505000Y-41945000D01*
G75*
G02*
X116355000Y-42095000I-150000J0D01*
G01*
X116055000Y-42095000D01*
G75*
G02*
X115905000Y-41945000I0J150000D01*
G01*
X115905000Y-40195000D01*
G75*
G02*
X116055000Y-40045000I150000J0D01*
G01*
G37*
G36*
G01*
X117325000Y-40045000D02*
X117625000Y-40045000D01*
G75*
G02*
X117775000Y-40195000I0J-150000D01*
G01*
X117775000Y-41945000D01*
G75*
G02*
X117625000Y-42095000I-150000J0D01*
G01*
X117325000Y-42095000D01*
G75*
G02*
X117175000Y-41945000I0J150000D01*
G01*
X117175000Y-40195000D01*
G75*
G02*
X117325000Y-40045000I150000J0D01*
G01*
G37*
G36*
G01*
X118595000Y-40045000D02*
X118895000Y-40045000D01*
G75*
G02*
X119045000Y-40195000I0J-150000D01*
G01*
X119045000Y-41945000D01*
G75*
G02*
X118895000Y-42095000I-150000J0D01*
G01*
X118595000Y-42095000D01*
G75*
G02*
X118445000Y-41945000I0J150000D01*
G01*
X118445000Y-40195000D01*
G75*
G02*
X118595000Y-40045000I150000J0D01*
G01*
G37*
G36*
G01*
X119865000Y-40045000D02*
X120165000Y-40045000D01*
G75*
G02*
X120315000Y-40195000I0J-150000D01*
G01*
X120315000Y-41945000D01*
G75*
G02*
X120165000Y-42095000I-150000J0D01*
G01*
X119865000Y-42095000D01*
G75*
G02*
X119715000Y-41945000I0J150000D01*
G01*
X119715000Y-40195000D01*
G75*
G02*
X119865000Y-40045000I150000J0D01*
G01*
G37*
G36*
G01*
X121135000Y-40045000D02*
X121435000Y-40045000D01*
G75*
G02*
X121585000Y-40195000I0J-150000D01*
G01*
X121585000Y-41945000D01*
G75*
G02*
X121435000Y-42095000I-150000J0D01*
G01*
X121135000Y-42095000D01*
G75*
G02*
X120985000Y-41945000I0J150000D01*
G01*
X120985000Y-40195000D01*
G75*
G02*
X121135000Y-40045000I150000J0D01*
G01*
G37*
G36*
G01*
X122405000Y-40045000D02*
X122705000Y-40045000D01*
G75*
G02*
X122855000Y-40195000I0J-150000D01*
G01*
X122855000Y-41945000D01*
G75*
G02*
X122705000Y-42095000I-150000J0D01*
G01*
X122405000Y-42095000D01*
G75*
G02*
X122255000Y-41945000I0J150000D01*
G01*
X122255000Y-40195000D01*
G75*
G02*
X122405000Y-40045000I150000J0D01*
G01*
G37*
G36*
G01*
X123675000Y-40045000D02*
X123975000Y-40045000D01*
G75*
G02*
X124125000Y-40195000I0J-150000D01*
G01*
X124125000Y-41945000D01*
G75*
G02*
X123975000Y-42095000I-150000J0D01*
G01*
X123675000Y-42095000D01*
G75*
G02*
X123525000Y-41945000I0J150000D01*
G01*
X123525000Y-40195000D01*
G75*
G02*
X123675000Y-40045000I150000J0D01*
G01*
G37*
%TD*%
D13*
%TO.C,U4*%
X151482000Y-73070000D03*
X151482000Y-72420000D03*
X151482000Y-71770000D03*
X151482000Y-71120000D03*
X151482000Y-70470000D03*
X151482000Y-69820000D03*
X151482000Y-69170000D03*
X157382000Y-69170000D03*
X157382000Y-69820000D03*
X157382000Y-70470000D03*
X157382000Y-71120000D03*
X157382000Y-71770000D03*
X157382000Y-72420000D03*
X157382000Y-73070000D03*
%TD*%
D14*
%TO.C,U3*%
X165398000Y-43910000D03*
X165898000Y-43910000D03*
X166398000Y-43910000D03*
X166898000Y-43910000D03*
X167398000Y-43910000D03*
X167898000Y-43910000D03*
X168398000Y-43910000D03*
X168898000Y-43910000D03*
X169398000Y-43910000D03*
X169898000Y-43910000D03*
X170398000Y-43910000D03*
X170898000Y-43910000D03*
D15*
X172498000Y-45510000D03*
X172498000Y-46010000D03*
X172498000Y-46510000D03*
X172498000Y-47010000D03*
X172498000Y-47510000D03*
X172498000Y-48010000D03*
X172498000Y-48510000D03*
X172498000Y-49010000D03*
X172498000Y-49510000D03*
X172498000Y-50010000D03*
X172498000Y-50510000D03*
X172498000Y-51010000D03*
D14*
X170898000Y-52610000D03*
X170398000Y-52610000D03*
X169898000Y-52610000D03*
X169398000Y-52610000D03*
X168898000Y-52610000D03*
X168398000Y-52610000D03*
X167898000Y-52610000D03*
X167398000Y-52610000D03*
X166898000Y-52610000D03*
X166398000Y-52610000D03*
X165898000Y-52610000D03*
X165398000Y-52610000D03*
D15*
X163798000Y-51010000D03*
X163798000Y-50510000D03*
X163798000Y-50010000D03*
X163798000Y-49510000D03*
X163798000Y-49010000D03*
X163798000Y-48510000D03*
X163798000Y-48010000D03*
X163798000Y-47510000D03*
X163798000Y-47010000D03*
X163798000Y-46510000D03*
X163798000Y-46010000D03*
X163798000Y-45510000D03*
%TD*%
%TO.C,U2*%
G36*
G01*
X146365000Y-53675000D02*
X147765000Y-53675000D01*
G75*
G02*
X147915000Y-53825000I0J-150000D01*
G01*
X147915000Y-54125000D01*
G75*
G02*
X147765000Y-54275000I-150000J0D01*
G01*
X146365000Y-54275000D01*
G75*
G02*
X146215000Y-54125000I0J150000D01*
G01*
X146215000Y-53825000D01*
G75*
G02*
X146365000Y-53675000I150000J0D01*
G01*
G37*
G36*
G01*
X146365000Y-54945000D02*
X147765000Y-54945000D01*
G75*
G02*
X147915000Y-55095000I0J-150000D01*
G01*
X147915000Y-55395000D01*
G75*
G02*
X147765000Y-55545000I-150000J0D01*
G01*
X146365000Y-55545000D01*
G75*
G02*
X146215000Y-55395000I0J150000D01*
G01*
X146215000Y-55095000D01*
G75*
G02*
X146365000Y-54945000I150000J0D01*
G01*
G37*
G36*
G01*
X146365000Y-56215000D02*
X147765000Y-56215000D01*
G75*
G02*
X147915000Y-56365000I0J-150000D01*
G01*
X147915000Y-56665000D01*
G75*
G02*
X147765000Y-56815000I-150000J0D01*
G01*
X146365000Y-56815000D01*
G75*
G02*
X146215000Y-56665000I0J150000D01*
G01*
X146215000Y-56365000D01*
G75*
G02*
X146365000Y-56215000I150000J0D01*
G01*
G37*
G36*
G01*
X146365000Y-57485000D02*
X147765000Y-57485000D01*
G75*
G02*
X147915000Y-57635000I0J-150000D01*
G01*
X147915000Y-57935000D01*
G75*
G02*
X147765000Y-58085000I-150000J0D01*
G01*
X146365000Y-58085000D01*
G75*
G02*
X146215000Y-57935000I0J150000D01*
G01*
X146215000Y-57635000D01*
G75*
G02*
X146365000Y-57485000I150000J0D01*
G01*
G37*
G36*
G01*
X146365000Y-58755000D02*
X147765000Y-58755000D01*
G75*
G02*
X147915000Y-58905000I0J-150000D01*
G01*
X147915000Y-59205000D01*
G75*
G02*
X147765000Y-59355000I-150000J0D01*
G01*
X146365000Y-59355000D01*
G75*
G02*
X146215000Y-59205000I0J150000D01*
G01*
X146215000Y-58905000D01*
G75*
G02*
X146365000Y-58755000I150000J0D01*
G01*
G37*
G36*
G01*
X145265000Y-59855000D02*
X145565000Y-59855000D01*
G75*
G02*
X145715000Y-60005000I0J-150000D01*
G01*
X145715000Y-61405000D01*
G75*
G02*
X145565000Y-61555000I-150000J0D01*
G01*
X145265000Y-61555000D01*
G75*
G02*
X145115000Y-61405000I0J150000D01*
G01*
X145115000Y-60005000D01*
G75*
G02*
X145265000Y-59855000I150000J0D01*
G01*
G37*
G36*
G01*
X143995000Y-59855000D02*
X144295000Y-59855000D01*
G75*
G02*
X144445000Y-60005000I0J-150000D01*
G01*
X144445000Y-61405000D01*
G75*
G02*
X144295000Y-61555000I-150000J0D01*
G01*
X143995000Y-61555000D01*
G75*
G02*
X143845000Y-61405000I0J150000D01*
G01*
X143845000Y-60005000D01*
G75*
G02*
X143995000Y-59855000I150000J0D01*
G01*
G37*
G36*
G01*
X142725000Y-59855000D02*
X143025000Y-59855000D01*
G75*
G02*
X143175000Y-60005000I0J-150000D01*
G01*
X143175000Y-61405000D01*
G75*
G02*
X143025000Y-61555000I-150000J0D01*
G01*
X142725000Y-61555000D01*
G75*
G02*
X142575000Y-61405000I0J150000D01*
G01*
X142575000Y-60005000D01*
G75*
G02*
X142725000Y-59855000I150000J0D01*
G01*
G37*
G36*
G01*
X141455000Y-59855000D02*
X141755000Y-59855000D01*
G75*
G02*
X141905000Y-60005000I0J-150000D01*
G01*
X141905000Y-61405000D01*
G75*
G02*
X141755000Y-61555000I-150000J0D01*
G01*
X141455000Y-61555000D01*
G75*
G02*
X141305000Y-61405000I0J150000D01*
G01*
X141305000Y-60005000D01*
G75*
G02*
X141455000Y-59855000I150000J0D01*
G01*
G37*
G36*
G01*
X140185000Y-59855000D02*
X140485000Y-59855000D01*
G75*
G02*
X140635000Y-60005000I0J-150000D01*
G01*
X140635000Y-61405000D01*
G75*
G02*
X140485000Y-61555000I-150000J0D01*
G01*
X140185000Y-61555000D01*
G75*
G02*
X140035000Y-61405000I0J150000D01*
G01*
X140035000Y-60005000D01*
G75*
G02*
X140185000Y-59855000I150000J0D01*
G01*
G37*
G36*
G01*
X138915000Y-59855000D02*
X139215000Y-59855000D01*
G75*
G02*
X139365000Y-60005000I0J-150000D01*
G01*
X139365000Y-61405000D01*
G75*
G02*
X139215000Y-61555000I-150000J0D01*
G01*
X138915000Y-61555000D01*
G75*
G02*
X138765000Y-61405000I0J150000D01*
G01*
X138765000Y-60005000D01*
G75*
G02*
X138915000Y-59855000I150000J0D01*
G01*
G37*
G36*
G01*
X137645000Y-59855000D02*
X137945000Y-59855000D01*
G75*
G02*
X138095000Y-60005000I0J-150000D01*
G01*
X138095000Y-61405000D01*
G75*
G02*
X137945000Y-61555000I-150000J0D01*
G01*
X137645000Y-61555000D01*
G75*
G02*
X137495000Y-61405000I0J150000D01*
G01*
X137495000Y-60005000D01*
G75*
G02*
X137645000Y-59855000I150000J0D01*
G01*
G37*
G36*
G01*
X136375000Y-59855000D02*
X136675000Y-59855000D01*
G75*
G02*
X136825000Y-60005000I0J-150000D01*
G01*
X136825000Y-61405000D01*
G75*
G02*
X136675000Y-61555000I-150000J0D01*
G01*
X136375000Y-61555000D01*
G75*
G02*
X136225000Y-61405000I0J150000D01*
G01*
X136225000Y-60005000D01*
G75*
G02*
X136375000Y-59855000I150000J0D01*
G01*
G37*
G36*
G01*
X135105000Y-59855000D02*
X135405000Y-59855000D01*
G75*
G02*
X135555000Y-60005000I0J-150000D01*
G01*
X135555000Y-61405000D01*
G75*
G02*
X135405000Y-61555000I-150000J0D01*
G01*
X135105000Y-61555000D01*
G75*
G02*
X134955000Y-61405000I0J150000D01*
G01*
X134955000Y-60005000D01*
G75*
G02*
X135105000Y-59855000I150000J0D01*
G01*
G37*
G36*
G01*
X133835000Y-59855000D02*
X134135000Y-59855000D01*
G75*
G02*
X134285000Y-60005000I0J-150000D01*
G01*
X134285000Y-61405000D01*
G75*
G02*
X134135000Y-61555000I-150000J0D01*
G01*
X133835000Y-61555000D01*
G75*
G02*
X133685000Y-61405000I0J150000D01*
G01*
X133685000Y-60005000D01*
G75*
G02*
X133835000Y-59855000I150000J0D01*
G01*
G37*
G36*
G01*
X132565000Y-59855000D02*
X132865000Y-59855000D01*
G75*
G02*
X133015000Y-60005000I0J-150000D01*
G01*
X133015000Y-61405000D01*
G75*
G02*
X132865000Y-61555000I-150000J0D01*
G01*
X132565000Y-61555000D01*
G75*
G02*
X132415000Y-61405000I0J150000D01*
G01*
X132415000Y-60005000D01*
G75*
G02*
X132565000Y-59855000I150000J0D01*
G01*
G37*
G36*
G01*
X130365000Y-58755000D02*
X131765000Y-58755000D01*
G75*
G02*
X131915000Y-58905000I0J-150000D01*
G01*
X131915000Y-59205000D01*
G75*
G02*
X131765000Y-59355000I-150000J0D01*
G01*
X130365000Y-59355000D01*
G75*
G02*
X130215000Y-59205000I0J150000D01*
G01*
X130215000Y-58905000D01*
G75*
G02*
X130365000Y-58755000I150000J0D01*
G01*
G37*
G36*
G01*
X130365000Y-57485000D02*
X131765000Y-57485000D01*
G75*
G02*
X131915000Y-57635000I0J-150000D01*
G01*
X131915000Y-57935000D01*
G75*
G02*
X131765000Y-58085000I-150000J0D01*
G01*
X130365000Y-58085000D01*
G75*
G02*
X130215000Y-57935000I0J150000D01*
G01*
X130215000Y-57635000D01*
G75*
G02*
X130365000Y-57485000I150000J0D01*
G01*
G37*
G36*
G01*
X130365000Y-56215000D02*
X131765000Y-56215000D01*
G75*
G02*
X131915000Y-56365000I0J-150000D01*
G01*
X131915000Y-56665000D01*
G75*
G02*
X131765000Y-56815000I-150000J0D01*
G01*
X130365000Y-56815000D01*
G75*
G02*
X130215000Y-56665000I0J150000D01*
G01*
X130215000Y-56365000D01*
G75*
G02*
X130365000Y-56215000I150000J0D01*
G01*
G37*
G36*
G01*
X130365000Y-54945000D02*
X131765000Y-54945000D01*
G75*
G02*
X131915000Y-55095000I0J-150000D01*
G01*
X131915000Y-55395000D01*
G75*
G02*
X131765000Y-55545000I-150000J0D01*
G01*
X130365000Y-55545000D01*
G75*
G02*
X130215000Y-55395000I0J150000D01*
G01*
X130215000Y-55095000D01*
G75*
G02*
X130365000Y-54945000I150000J0D01*
G01*
G37*
G36*
G01*
X130365000Y-53675000D02*
X131765000Y-53675000D01*
G75*
G02*
X131915000Y-53825000I0J-150000D01*
G01*
X131915000Y-54125000D01*
G75*
G02*
X131765000Y-54275000I-150000J0D01*
G01*
X130365000Y-54275000D01*
G75*
G02*
X130215000Y-54125000I0J150000D01*
G01*
X130215000Y-53825000D01*
G75*
G02*
X130365000Y-53675000I150000J0D01*
G01*
G37*
G36*
G01*
X130365000Y-52405000D02*
X131765000Y-52405000D01*
G75*
G02*
X131915000Y-52555000I0J-150000D01*
G01*
X131915000Y-52855000D01*
G75*
G02*
X131765000Y-53005000I-150000J0D01*
G01*
X130365000Y-53005000D01*
G75*
G02*
X130215000Y-52855000I0J150000D01*
G01*
X130215000Y-52555000D01*
G75*
G02*
X130365000Y-52405000I150000J0D01*
G01*
G37*
G36*
G01*
X130365000Y-51135000D02*
X131765000Y-51135000D01*
G75*
G02*
X131915000Y-51285000I0J-150000D01*
G01*
X131915000Y-51585000D01*
G75*
G02*
X131765000Y-51735000I-150000J0D01*
G01*
X130365000Y-51735000D01*
G75*
G02*
X130215000Y-51585000I0J150000D01*
G01*
X130215000Y-51285000D01*
G75*
G02*
X130365000Y-51135000I150000J0D01*
G01*
G37*
G36*
G01*
X130365000Y-49865000D02*
X131765000Y-49865000D01*
G75*
G02*
X131915000Y-50015000I0J-150000D01*
G01*
X131915000Y-50315000D01*
G75*
G02*
X131765000Y-50465000I-150000J0D01*
G01*
X130365000Y-50465000D01*
G75*
G02*
X130215000Y-50315000I0J150000D01*
G01*
X130215000Y-50015000D01*
G75*
G02*
X130365000Y-49865000I150000J0D01*
G01*
G37*
G36*
G01*
X130365000Y-48595000D02*
X131765000Y-48595000D01*
G75*
G02*
X131915000Y-48745000I0J-150000D01*
G01*
X131915000Y-49045000D01*
G75*
G02*
X131765000Y-49195000I-150000J0D01*
G01*
X130365000Y-49195000D01*
G75*
G02*
X130215000Y-49045000I0J150000D01*
G01*
X130215000Y-48745000D01*
G75*
G02*
X130365000Y-48595000I150000J0D01*
G01*
G37*
G36*
G01*
X130365000Y-47325000D02*
X131765000Y-47325000D01*
G75*
G02*
X131915000Y-47475000I0J-150000D01*
G01*
X131915000Y-47775000D01*
G75*
G02*
X131765000Y-47925000I-150000J0D01*
G01*
X130365000Y-47925000D01*
G75*
G02*
X130215000Y-47775000I0J150000D01*
G01*
X130215000Y-47475000D01*
G75*
G02*
X130365000Y-47325000I150000J0D01*
G01*
G37*
G36*
G01*
X130365000Y-46055000D02*
X131765000Y-46055000D01*
G75*
G02*
X131915000Y-46205000I0J-150000D01*
G01*
X131915000Y-46505000D01*
G75*
G02*
X131765000Y-46655000I-150000J0D01*
G01*
X130365000Y-46655000D01*
G75*
G02*
X130215000Y-46505000I0J150000D01*
G01*
X130215000Y-46205000D01*
G75*
G02*
X130365000Y-46055000I150000J0D01*
G01*
G37*
G36*
G01*
X132565000Y-43855000D02*
X132865000Y-43855000D01*
G75*
G02*
X133015000Y-44005000I0J-150000D01*
G01*
X133015000Y-45405000D01*
G75*
G02*
X132865000Y-45555000I-150000J0D01*
G01*
X132565000Y-45555000D01*
G75*
G02*
X132415000Y-45405000I0J150000D01*
G01*
X132415000Y-44005000D01*
G75*
G02*
X132565000Y-43855000I150000J0D01*
G01*
G37*
G36*
G01*
X133835000Y-43855000D02*
X134135000Y-43855000D01*
G75*
G02*
X134285000Y-44005000I0J-150000D01*
G01*
X134285000Y-45405000D01*
G75*
G02*
X134135000Y-45555000I-150000J0D01*
G01*
X133835000Y-45555000D01*
G75*
G02*
X133685000Y-45405000I0J150000D01*
G01*
X133685000Y-44005000D01*
G75*
G02*
X133835000Y-43855000I150000J0D01*
G01*
G37*
G36*
G01*
X135105000Y-43855000D02*
X135405000Y-43855000D01*
G75*
G02*
X135555000Y-44005000I0J-150000D01*
G01*
X135555000Y-45405000D01*
G75*
G02*
X135405000Y-45555000I-150000J0D01*
G01*
X135105000Y-45555000D01*
G75*
G02*
X134955000Y-45405000I0J150000D01*
G01*
X134955000Y-44005000D01*
G75*
G02*
X135105000Y-43855000I150000J0D01*
G01*
G37*
G36*
G01*
X136375000Y-43855000D02*
X136675000Y-43855000D01*
G75*
G02*
X136825000Y-44005000I0J-150000D01*
G01*
X136825000Y-45405000D01*
G75*
G02*
X136675000Y-45555000I-150000J0D01*
G01*
X136375000Y-45555000D01*
G75*
G02*
X136225000Y-45405000I0J150000D01*
G01*
X136225000Y-44005000D01*
G75*
G02*
X136375000Y-43855000I150000J0D01*
G01*
G37*
G36*
G01*
X137645000Y-43855000D02*
X137945000Y-43855000D01*
G75*
G02*
X138095000Y-44005000I0J-150000D01*
G01*
X138095000Y-45405000D01*
G75*
G02*
X137945000Y-45555000I-150000J0D01*
G01*
X137645000Y-45555000D01*
G75*
G02*
X137495000Y-45405000I0J150000D01*
G01*
X137495000Y-44005000D01*
G75*
G02*
X137645000Y-43855000I150000J0D01*
G01*
G37*
G36*
G01*
X138915000Y-43855000D02*
X139215000Y-43855000D01*
G75*
G02*
X139365000Y-44005000I0J-150000D01*
G01*
X139365000Y-45405000D01*
G75*
G02*
X139215000Y-45555000I-150000J0D01*
G01*
X138915000Y-45555000D01*
G75*
G02*
X138765000Y-45405000I0J150000D01*
G01*
X138765000Y-44005000D01*
G75*
G02*
X138915000Y-43855000I150000J0D01*
G01*
G37*
G36*
G01*
X140185000Y-43855000D02*
X140485000Y-43855000D01*
G75*
G02*
X140635000Y-44005000I0J-150000D01*
G01*
X140635000Y-45405000D01*
G75*
G02*
X140485000Y-45555000I-150000J0D01*
G01*
X140185000Y-45555000D01*
G75*
G02*
X140035000Y-45405000I0J150000D01*
G01*
X140035000Y-44005000D01*
G75*
G02*
X140185000Y-43855000I150000J0D01*
G01*
G37*
G36*
G01*
X141455000Y-43855000D02*
X141755000Y-43855000D01*
G75*
G02*
X141905000Y-44005000I0J-150000D01*
G01*
X141905000Y-45405000D01*
G75*
G02*
X141755000Y-45555000I-150000J0D01*
G01*
X141455000Y-45555000D01*
G75*
G02*
X141305000Y-45405000I0J150000D01*
G01*
X141305000Y-44005000D01*
G75*
G02*
X141455000Y-43855000I150000J0D01*
G01*
G37*
G36*
G01*
X142725000Y-43855000D02*
X143025000Y-43855000D01*
G75*
G02*
X143175000Y-44005000I0J-150000D01*
G01*
X143175000Y-45405000D01*
G75*
G02*
X143025000Y-45555000I-150000J0D01*
G01*
X142725000Y-45555000D01*
G75*
G02*
X142575000Y-45405000I0J150000D01*
G01*
X142575000Y-44005000D01*
G75*
G02*
X142725000Y-43855000I150000J0D01*
G01*
G37*
G36*
G01*
X143995000Y-43855000D02*
X144295000Y-43855000D01*
G75*
G02*
X144445000Y-44005000I0J-150000D01*
G01*
X144445000Y-45405000D01*
G75*
G02*
X144295000Y-45555000I-150000J0D01*
G01*
X143995000Y-45555000D01*
G75*
G02*
X143845000Y-45405000I0J150000D01*
G01*
X143845000Y-44005000D01*
G75*
G02*
X143995000Y-43855000I150000J0D01*
G01*
G37*
G36*
G01*
X145265000Y-43855000D02*
X145565000Y-43855000D01*
G75*
G02*
X145715000Y-44005000I0J-150000D01*
G01*
X145715000Y-45405000D01*
G75*
G02*
X145565000Y-45555000I-150000J0D01*
G01*
X145265000Y-45555000D01*
G75*
G02*
X145115000Y-45405000I0J150000D01*
G01*
X145115000Y-44005000D01*
G75*
G02*
X145265000Y-43855000I150000J0D01*
G01*
G37*
G36*
G01*
X146365000Y-46055000D02*
X147765000Y-46055000D01*
G75*
G02*
X147915000Y-46205000I0J-150000D01*
G01*
X147915000Y-46505000D01*
G75*
G02*
X147765000Y-46655000I-150000J0D01*
G01*
X146365000Y-46655000D01*
G75*
G02*
X146215000Y-46505000I0J150000D01*
G01*
X146215000Y-46205000D01*
G75*
G02*
X146365000Y-46055000I150000J0D01*
G01*
G37*
G36*
G01*
X146365000Y-47325000D02*
X147765000Y-47325000D01*
G75*
G02*
X147915000Y-47475000I0J-150000D01*
G01*
X147915000Y-47775000D01*
G75*
G02*
X147765000Y-47925000I-150000J0D01*
G01*
X146365000Y-47925000D01*
G75*
G02*
X146215000Y-47775000I0J150000D01*
G01*
X146215000Y-47475000D01*
G75*
G02*
X146365000Y-47325000I150000J0D01*
G01*
G37*
G36*
G01*
X146365000Y-48595000D02*
X147765000Y-48595000D01*
G75*
G02*
X147915000Y-48745000I0J-150000D01*
G01*
X147915000Y-49045000D01*
G75*
G02*
X147765000Y-49195000I-150000J0D01*
G01*
X146365000Y-49195000D01*
G75*
G02*
X146215000Y-49045000I0J150000D01*
G01*
X146215000Y-48745000D01*
G75*
G02*
X146365000Y-48595000I150000J0D01*
G01*
G37*
G36*
G01*
X146365000Y-49865000D02*
X147765000Y-49865000D01*
G75*
G02*
X147915000Y-50015000I0J-150000D01*
G01*
X147915000Y-50315000D01*
G75*
G02*
X147765000Y-50465000I-150000J0D01*
G01*
X146365000Y-50465000D01*
G75*
G02*
X146215000Y-50315000I0J150000D01*
G01*
X146215000Y-50015000D01*
G75*
G02*
X146365000Y-49865000I150000J0D01*
G01*
G37*
G36*
G01*
X146365000Y-51135000D02*
X147765000Y-51135000D01*
G75*
G02*
X147915000Y-51285000I0J-150000D01*
G01*
X147915000Y-51585000D01*
G75*
G02*
X147765000Y-51735000I-150000J0D01*
G01*
X146365000Y-51735000D01*
G75*
G02*
X146215000Y-51585000I0J150000D01*
G01*
X146215000Y-51285000D01*
G75*
G02*
X146365000Y-51135000I150000J0D01*
G01*
G37*
G36*
G01*
X146365000Y-52405000D02*
X147765000Y-52405000D01*
G75*
G02*
X147915000Y-52555000I0J-150000D01*
G01*
X147915000Y-52855000D01*
G75*
G02*
X147765000Y-53005000I-150000J0D01*
G01*
X146365000Y-53005000D01*
G75*
G02*
X146215000Y-52855000I0J150000D01*
G01*
X146215000Y-52555000D01*
G75*
G02*
X146365000Y-52405000I150000J0D01*
G01*
G37*
%TD*%
%TO.C,U1*%
G36*
G01*
X159235000Y-44680000D02*
X159535000Y-44680000D01*
G75*
G02*
X159685000Y-44830000I0J-150000D01*
G01*
X159685000Y-46480000D01*
G75*
G02*
X159535000Y-46630000I-150000J0D01*
G01*
X159235000Y-46630000D01*
G75*
G02*
X159085000Y-46480000I0J150000D01*
G01*
X159085000Y-44830000D01*
G75*
G02*
X159235000Y-44680000I150000J0D01*
G01*
G37*
G36*
G01*
X157965000Y-44680000D02*
X158265000Y-44680000D01*
G75*
G02*
X158415000Y-44830000I0J-150000D01*
G01*
X158415000Y-46480000D01*
G75*
G02*
X158265000Y-46630000I-150000J0D01*
G01*
X157965000Y-46630000D01*
G75*
G02*
X157815000Y-46480000I0J150000D01*
G01*
X157815000Y-44830000D01*
G75*
G02*
X157965000Y-44680000I150000J0D01*
G01*
G37*
G36*
G01*
X156695000Y-44680000D02*
X156995000Y-44680000D01*
G75*
G02*
X157145000Y-44830000I0J-150000D01*
G01*
X157145000Y-46480000D01*
G75*
G02*
X156995000Y-46630000I-150000J0D01*
G01*
X156695000Y-46630000D01*
G75*
G02*
X156545000Y-46480000I0J150000D01*
G01*
X156545000Y-44830000D01*
G75*
G02*
X156695000Y-44680000I150000J0D01*
G01*
G37*
G36*
G01*
X155425000Y-44680000D02*
X155725000Y-44680000D01*
G75*
G02*
X155875000Y-44830000I0J-150000D01*
G01*
X155875000Y-46480000D01*
G75*
G02*
X155725000Y-46630000I-150000J0D01*
G01*
X155425000Y-46630000D01*
G75*
G02*
X155275000Y-46480000I0J150000D01*
G01*
X155275000Y-44830000D01*
G75*
G02*
X155425000Y-44680000I150000J0D01*
G01*
G37*
G36*
G01*
X154155000Y-44680000D02*
X154455000Y-44680000D01*
G75*
G02*
X154605000Y-44830000I0J-150000D01*
G01*
X154605000Y-46480000D01*
G75*
G02*
X154455000Y-46630000I-150000J0D01*
G01*
X154155000Y-46630000D01*
G75*
G02*
X154005000Y-46480000I0J150000D01*
G01*
X154005000Y-44830000D01*
G75*
G02*
X154155000Y-44680000I150000J0D01*
G01*
G37*
G36*
G01*
X152885000Y-44680000D02*
X153185000Y-44680000D01*
G75*
G02*
X153335000Y-44830000I0J-150000D01*
G01*
X153335000Y-46480000D01*
G75*
G02*
X153185000Y-46630000I-150000J0D01*
G01*
X152885000Y-46630000D01*
G75*
G02*
X152735000Y-46480000I0J150000D01*
G01*
X152735000Y-44830000D01*
G75*
G02*
X152885000Y-44680000I150000J0D01*
G01*
G37*
G36*
G01*
X151615000Y-44680000D02*
X151915000Y-44680000D01*
G75*
G02*
X152065000Y-44830000I0J-150000D01*
G01*
X152065000Y-46480000D01*
G75*
G02*
X151915000Y-46630000I-150000J0D01*
G01*
X151615000Y-46630000D01*
G75*
G02*
X151465000Y-46480000I0J150000D01*
G01*
X151465000Y-44830000D01*
G75*
G02*
X151615000Y-44680000I150000J0D01*
G01*
G37*
G36*
G01*
X151615000Y-39730000D02*
X151915000Y-39730000D01*
G75*
G02*
X152065000Y-39880000I0J-150000D01*
G01*
X152065000Y-41530000D01*
G75*
G02*
X151915000Y-41680000I-150000J0D01*
G01*
X151615000Y-41680000D01*
G75*
G02*
X151465000Y-41530000I0J150000D01*
G01*
X151465000Y-39880000D01*
G75*
G02*
X151615000Y-39730000I150000J0D01*
G01*
G37*
G36*
G01*
X152885000Y-39730000D02*
X153185000Y-39730000D01*
G75*
G02*
X153335000Y-39880000I0J-150000D01*
G01*
X153335000Y-41530000D01*
G75*
G02*
X153185000Y-41680000I-150000J0D01*
G01*
X152885000Y-41680000D01*
G75*
G02*
X152735000Y-41530000I0J150000D01*
G01*
X152735000Y-39880000D01*
G75*
G02*
X152885000Y-39730000I150000J0D01*
G01*
G37*
G36*
G01*
X154155000Y-39730000D02*
X154455000Y-39730000D01*
G75*
G02*
X154605000Y-39880000I0J-150000D01*
G01*
X154605000Y-41530000D01*
G75*
G02*
X154455000Y-41680000I-150000J0D01*
G01*
X154155000Y-41680000D01*
G75*
G02*
X154005000Y-41530000I0J150000D01*
G01*
X154005000Y-39880000D01*
G75*
G02*
X154155000Y-39730000I150000J0D01*
G01*
G37*
G36*
G01*
X155425000Y-39730000D02*
X155725000Y-39730000D01*
G75*
G02*
X155875000Y-39880000I0J-150000D01*
G01*
X155875000Y-41530000D01*
G75*
G02*
X155725000Y-41680000I-150000J0D01*
G01*
X155425000Y-41680000D01*
G75*
G02*
X155275000Y-41530000I0J150000D01*
G01*
X155275000Y-39880000D01*
G75*
G02*
X155425000Y-39730000I150000J0D01*
G01*
G37*
G36*
G01*
X156695000Y-39730000D02*
X156995000Y-39730000D01*
G75*
G02*
X157145000Y-39880000I0J-150000D01*
G01*
X157145000Y-41530000D01*
G75*
G02*
X156995000Y-41680000I-150000J0D01*
G01*
X156695000Y-41680000D01*
G75*
G02*
X156545000Y-41530000I0J150000D01*
G01*
X156545000Y-39880000D01*
G75*
G02*
X156695000Y-39730000I150000J0D01*
G01*
G37*
G36*
G01*
X157965000Y-39730000D02*
X158265000Y-39730000D01*
G75*
G02*
X158415000Y-39880000I0J-150000D01*
G01*
X158415000Y-41530000D01*
G75*
G02*
X158265000Y-41680000I-150000J0D01*
G01*
X157965000Y-41680000D01*
G75*
G02*
X157815000Y-41530000I0J150000D01*
G01*
X157815000Y-39880000D01*
G75*
G02*
X157965000Y-39730000I150000J0D01*
G01*
G37*
G36*
G01*
X159235000Y-39730000D02*
X159535000Y-39730000D01*
G75*
G02*
X159685000Y-39880000I0J-150000D01*
G01*
X159685000Y-41530000D01*
G75*
G02*
X159535000Y-41680000I-150000J0D01*
G01*
X159235000Y-41680000D01*
G75*
G02*
X159085000Y-41530000I0J150000D01*
G01*
X159085000Y-39880000D01*
G75*
G02*
X159235000Y-39730000I150000J0D01*
G01*
G37*
%TD*%
D16*
%TO.C,Reset*%
X160104000Y-78014000D03*
X160104000Y-82514000D03*
X168064000Y-82514000D03*
X168064000Y-78014000D03*
%TD*%
%TO.C,R19*%
G36*
G01*
X170058500Y-65982001D02*
X170058500Y-65081999D01*
G75*
G02*
X170308499Y-64832000I249999J0D01*
G01*
X170958501Y-64832000D01*
G75*
G02*
X171208500Y-65081999I0J-249999D01*
G01*
X171208500Y-65982001D01*
G75*
G02*
X170958501Y-66232000I-249999J0D01*
G01*
X170308499Y-66232000D01*
G75*
G02*
X170058500Y-65982001I0J249999D01*
G01*
G37*
G36*
G01*
X168008500Y-65982001D02*
X168008500Y-65081999D01*
G75*
G02*
X168258499Y-64832000I249999J0D01*
G01*
X168908501Y-64832000D01*
G75*
G02*
X169158500Y-65081999I0J-249999D01*
G01*
X169158500Y-65982001D01*
G75*
G02*
X168908501Y-66232000I-249999J0D01*
G01*
X168258499Y-66232000D01*
G75*
G02*
X168008500Y-65982001I0J249999D01*
G01*
G37*
%TD*%
%TO.C,R18*%
G36*
G01*
X170058500Y-62997501D02*
X170058500Y-62097499D01*
G75*
G02*
X170308499Y-61847500I249999J0D01*
G01*
X170958501Y-61847500D01*
G75*
G02*
X171208500Y-62097499I0J-249999D01*
G01*
X171208500Y-62997501D01*
G75*
G02*
X170958501Y-63247500I-249999J0D01*
G01*
X170308499Y-63247500D01*
G75*
G02*
X170058500Y-62997501I0J249999D01*
G01*
G37*
G36*
G01*
X168008500Y-62997501D02*
X168008500Y-62097499D01*
G75*
G02*
X168258499Y-61847500I249999J0D01*
G01*
X168908501Y-61847500D01*
G75*
G02*
X169158500Y-62097499I0J-249999D01*
G01*
X169158500Y-62997501D01*
G75*
G02*
X168908501Y-63247500I-249999J0D01*
G01*
X168258499Y-63247500D01*
G75*
G02*
X168008500Y-62997501I0J249999D01*
G01*
G37*
%TD*%
%TO.C,R17*%
G36*
G01*
X166375500Y-65982001D02*
X166375500Y-65081999D01*
G75*
G02*
X166625499Y-64832000I249999J0D01*
G01*
X167275501Y-64832000D01*
G75*
G02*
X167525500Y-65081999I0J-249999D01*
G01*
X167525500Y-65982001D01*
G75*
G02*
X167275501Y-66232000I-249999J0D01*
G01*
X166625499Y-66232000D01*
G75*
G02*
X166375500Y-65982001I0J249999D01*
G01*
G37*
G36*
G01*
X164325500Y-65982001D02*
X164325500Y-65081999D01*
G75*
G02*
X164575499Y-64832000I249999J0D01*
G01*
X165225501Y-64832000D01*
G75*
G02*
X165475500Y-65081999I0J-249999D01*
G01*
X165475500Y-65982001D01*
G75*
G02*
X165225501Y-66232000I-249999J0D01*
G01*
X164575499Y-66232000D01*
G75*
G02*
X164325500Y-65982001I0J249999D01*
G01*
G37*
%TD*%
%TO.C,R16*%
G36*
G01*
X166366500Y-62997501D02*
X166366500Y-62097499D01*
G75*
G02*
X166616499Y-61847500I249999J0D01*
G01*
X167266501Y-61847500D01*
G75*
G02*
X167516500Y-62097499I0J-249999D01*
G01*
X167516500Y-62997501D01*
G75*
G02*
X167266501Y-63247500I-249999J0D01*
G01*
X166616499Y-63247500D01*
G75*
G02*
X166366500Y-62997501I0J249999D01*
G01*
G37*
G36*
G01*
X164316500Y-62997501D02*
X164316500Y-62097499D01*
G75*
G02*
X164566499Y-61847500I249999J0D01*
G01*
X165216501Y-61847500D01*
G75*
G02*
X165466500Y-62097499I0J-249999D01*
G01*
X165466500Y-62997501D01*
G75*
G02*
X165216501Y-63247500I-249999J0D01*
G01*
X164566499Y-63247500D01*
G75*
G02*
X164316500Y-62997501I0J249999D01*
G01*
G37*
%TD*%
%TO.C,R14*%
G36*
G01*
X120846001Y-80576000D02*
X119945999Y-80576000D01*
G75*
G02*
X119696000Y-80326001I0J249999D01*
G01*
X119696000Y-79675999D01*
G75*
G02*
X119945999Y-79426000I249999J0D01*
G01*
X120846001Y-79426000D01*
G75*
G02*
X121096000Y-79675999I0J-249999D01*
G01*
X121096000Y-80326001D01*
G75*
G02*
X120846001Y-80576000I-249999J0D01*
G01*
G37*
G36*
G01*
X120846001Y-82626000D02*
X119945999Y-82626000D01*
G75*
G02*
X119696000Y-82376001I0J249999D01*
G01*
X119696000Y-81725999D01*
G75*
G02*
X119945999Y-81476000I249999J0D01*
G01*
X120846001Y-81476000D01*
G75*
G02*
X121096000Y-81725999I0J-249999D01*
G01*
X121096000Y-82376001D01*
G75*
G02*
X120846001Y-82626000I-249999J0D01*
G01*
G37*
%TD*%
%TO.C,R13*%
G36*
G01*
X104959999Y-76904000D02*
X105860001Y-76904000D01*
G75*
G02*
X106110000Y-77153999I0J-249999D01*
G01*
X106110000Y-77804001D01*
G75*
G02*
X105860001Y-78054000I-249999J0D01*
G01*
X104959999Y-78054000D01*
G75*
G02*
X104710000Y-77804001I0J249999D01*
G01*
X104710000Y-77153999D01*
G75*
G02*
X104959999Y-76904000I249999J0D01*
G01*
G37*
G36*
G01*
X104959999Y-74854000D02*
X105860001Y-74854000D01*
G75*
G02*
X106110000Y-75103999I0J-249999D01*
G01*
X106110000Y-75754001D01*
G75*
G02*
X105860001Y-76004000I-249999J0D01*
G01*
X104959999Y-76004000D01*
G75*
G02*
X104710000Y-75754001I0J249999D01*
G01*
X104710000Y-75103999D01*
G75*
G02*
X104959999Y-74854000I249999J0D01*
G01*
G37*
%TD*%
%TO.C,R12*%
G36*
G01*
X116020001Y-76140000D02*
X115119999Y-76140000D01*
G75*
G02*
X114870000Y-75890001I0J249999D01*
G01*
X114870000Y-75239999D01*
G75*
G02*
X115119999Y-74990000I249999J0D01*
G01*
X116020001Y-74990000D01*
G75*
G02*
X116270000Y-75239999I0J-249999D01*
G01*
X116270000Y-75890001D01*
G75*
G02*
X116020001Y-76140000I-249999J0D01*
G01*
G37*
G36*
G01*
X116020001Y-78190000D02*
X115119999Y-78190000D01*
G75*
G02*
X114870000Y-77940001I0J249999D01*
G01*
X114870000Y-77289999D01*
G75*
G02*
X115119999Y-77040000I249999J0D01*
G01*
X116020001Y-77040000D01*
G75*
G02*
X116270000Y-77289999I0J-249999D01*
G01*
X116270000Y-77940001D01*
G75*
G02*
X116020001Y-78190000I-249999J0D01*
G01*
G37*
%TD*%
%TO.C,R11*%
G36*
G01*
X159835001Y-54795000D02*
X158934999Y-54795000D01*
G75*
G02*
X158685000Y-54545001I0J249999D01*
G01*
X158685000Y-53894999D01*
G75*
G02*
X158934999Y-53645000I249999J0D01*
G01*
X159835001Y-53645000D01*
G75*
G02*
X160085000Y-53894999I0J-249999D01*
G01*
X160085000Y-54545001D01*
G75*
G02*
X159835001Y-54795000I-249999J0D01*
G01*
G37*
G36*
G01*
X159835001Y-56845000D02*
X158934999Y-56845000D01*
G75*
G02*
X158685000Y-56595001I0J249999D01*
G01*
X158685000Y-55944999D01*
G75*
G02*
X158934999Y-55695000I249999J0D01*
G01*
X159835001Y-55695000D01*
G75*
G02*
X160085000Y-55944999I0J-249999D01*
G01*
X160085000Y-56595001D01*
G75*
G02*
X159835001Y-56845000I-249999J0D01*
G01*
G37*
%TD*%
%TO.C,R10*%
G36*
G01*
X154755001Y-54795000D02*
X153854999Y-54795000D01*
G75*
G02*
X153605000Y-54545001I0J249999D01*
G01*
X153605000Y-53894999D01*
G75*
G02*
X153854999Y-53645000I249999J0D01*
G01*
X154755001Y-53645000D01*
G75*
G02*
X155005000Y-53894999I0J-249999D01*
G01*
X155005000Y-54545001D01*
G75*
G02*
X154755001Y-54795000I-249999J0D01*
G01*
G37*
G36*
G01*
X154755001Y-56845000D02*
X153854999Y-56845000D01*
G75*
G02*
X153605000Y-56595001I0J249999D01*
G01*
X153605000Y-55944999D01*
G75*
G02*
X153854999Y-55695000I249999J0D01*
G01*
X154755001Y-55695000D01*
G75*
G02*
X155005000Y-55944999I0J-249999D01*
G01*
X155005000Y-56595001D01*
G75*
G02*
X154755001Y-56845000I-249999J0D01*
G01*
G37*
%TD*%
%TO.C,R9*%
G36*
G01*
X115119999Y-68005000D02*
X116020001Y-68005000D01*
G75*
G02*
X116270000Y-68254999I0J-249999D01*
G01*
X116270000Y-68905001D01*
G75*
G02*
X116020001Y-69155000I-249999J0D01*
G01*
X115119999Y-69155000D01*
G75*
G02*
X114870000Y-68905001I0J249999D01*
G01*
X114870000Y-68254999D01*
G75*
G02*
X115119999Y-68005000I249999J0D01*
G01*
G37*
G36*
G01*
X115119999Y-65955000D02*
X116020001Y-65955000D01*
G75*
G02*
X116270000Y-66204999I0J-249999D01*
G01*
X116270000Y-66855001D01*
G75*
G02*
X116020001Y-67105000I-249999J0D01*
G01*
X115119999Y-67105000D01*
G75*
G02*
X114870000Y-66855001I0J249999D01*
G01*
X114870000Y-66204999D01*
G75*
G02*
X115119999Y-65955000I249999J0D01*
G01*
G37*
%TD*%
%TO.C,R8*%
G36*
G01*
X104959999Y-65220000D02*
X105860001Y-65220000D01*
G75*
G02*
X106110000Y-65469999I0J-249999D01*
G01*
X106110000Y-66120001D01*
G75*
G02*
X105860001Y-66370000I-249999J0D01*
G01*
X104959999Y-66370000D01*
G75*
G02*
X104710000Y-66120001I0J249999D01*
G01*
X104710000Y-65469999D01*
G75*
G02*
X104959999Y-65220000I249999J0D01*
G01*
G37*
G36*
G01*
X104959999Y-63170000D02*
X105860001Y-63170000D01*
G75*
G02*
X106110000Y-63419999I0J-249999D01*
G01*
X106110000Y-64070001D01*
G75*
G02*
X105860001Y-64320000I-249999J0D01*
G01*
X104959999Y-64320000D01*
G75*
G02*
X104710000Y-64070001I0J249999D01*
G01*
X104710000Y-63419999D01*
G75*
G02*
X104959999Y-63170000I249999J0D01*
G01*
G37*
%TD*%
%TO.C,R7*%
G36*
G01*
X153473999Y-79825000D02*
X154374001Y-79825000D01*
G75*
G02*
X154624000Y-80074999I0J-249999D01*
G01*
X154624000Y-80725001D01*
G75*
G02*
X154374001Y-80975000I-249999J0D01*
G01*
X153473999Y-80975000D01*
G75*
G02*
X153224000Y-80725001I0J249999D01*
G01*
X153224000Y-80074999D01*
G75*
G02*
X153473999Y-79825000I249999J0D01*
G01*
G37*
G36*
G01*
X153473999Y-77775000D02*
X154374001Y-77775000D01*
G75*
G02*
X154624000Y-78024999I0J-249999D01*
G01*
X154624000Y-78675001D01*
G75*
G02*
X154374001Y-78925000I-249999J0D01*
G01*
X153473999Y-78925000D01*
G75*
G02*
X153224000Y-78675001I0J249999D01*
G01*
X153224000Y-78024999D01*
G75*
G02*
X153473999Y-77775000I249999J0D01*
G01*
G37*
%TD*%
%TO.C,R6*%
G36*
G01*
X171634999Y-36010000D02*
X172535001Y-36010000D01*
G75*
G02*
X172785000Y-36259999I0J-249999D01*
G01*
X172785000Y-36910001D01*
G75*
G02*
X172535001Y-37160000I-249999J0D01*
G01*
X171634999Y-37160000D01*
G75*
G02*
X171385000Y-36910001I0J249999D01*
G01*
X171385000Y-36259999D01*
G75*
G02*
X171634999Y-36010000I249999J0D01*
G01*
G37*
G36*
G01*
X171634999Y-33960000D02*
X172535001Y-33960000D01*
G75*
G02*
X172785000Y-34209999I0J-249999D01*
G01*
X172785000Y-34860001D01*
G75*
G02*
X172535001Y-35110000I-249999J0D01*
G01*
X171634999Y-35110000D01*
G75*
G02*
X171385000Y-34860001I0J249999D01*
G01*
X171385000Y-34209999D01*
G75*
G02*
X171634999Y-33960000I249999J0D01*
G01*
G37*
%TD*%
%TO.C,R5*%
G36*
G01*
X149548001Y-36380000D02*
X148647999Y-36380000D01*
G75*
G02*
X148398000Y-36130001I0J249999D01*
G01*
X148398000Y-35479999D01*
G75*
G02*
X148647999Y-35230000I249999J0D01*
G01*
X149548001Y-35230000D01*
G75*
G02*
X149798000Y-35479999I0J-249999D01*
G01*
X149798000Y-36130001D01*
G75*
G02*
X149548001Y-36380000I-249999J0D01*
G01*
G37*
G36*
G01*
X149548001Y-38430000D02*
X148647999Y-38430000D01*
G75*
G02*
X148398000Y-38180001I0J249999D01*
G01*
X148398000Y-37529999D01*
G75*
G02*
X148647999Y-37280000I249999J0D01*
G01*
X149548001Y-37280000D01*
G75*
G02*
X149798000Y-37529999I0J-249999D01*
G01*
X149798000Y-38180001D01*
G75*
G02*
X149548001Y-38430000I-249999J0D01*
G01*
G37*
%TD*%
%TO.C,R4*%
G36*
G01*
X169094999Y-36010000D02*
X169995001Y-36010000D01*
G75*
G02*
X170245000Y-36259999I0J-249999D01*
G01*
X170245000Y-36910001D01*
G75*
G02*
X169995001Y-37160000I-249999J0D01*
G01*
X169094999Y-37160000D01*
G75*
G02*
X168845000Y-36910001I0J249999D01*
G01*
X168845000Y-36259999D01*
G75*
G02*
X169094999Y-36010000I249999J0D01*
G01*
G37*
G36*
G01*
X169094999Y-33960000D02*
X169995001Y-33960000D01*
G75*
G02*
X170245000Y-34209999I0J-249999D01*
G01*
X170245000Y-34860001D01*
G75*
G02*
X169995001Y-35110000I-249999J0D01*
G01*
X169094999Y-35110000D01*
G75*
G02*
X168845000Y-34860001I0J249999D01*
G01*
X168845000Y-34209999D01*
G75*
G02*
X169094999Y-33960000I249999J0D01*
G01*
G37*
%TD*%
%TO.C,R3*%
G36*
G01*
X166554999Y-36010000D02*
X167455001Y-36010000D01*
G75*
G02*
X167705000Y-36259999I0J-249999D01*
G01*
X167705000Y-36910001D01*
G75*
G02*
X167455001Y-37160000I-249999J0D01*
G01*
X166554999Y-37160000D01*
G75*
G02*
X166305000Y-36910001I0J249999D01*
G01*
X166305000Y-36259999D01*
G75*
G02*
X166554999Y-36010000I249999J0D01*
G01*
G37*
G36*
G01*
X166554999Y-33960000D02*
X167455001Y-33960000D01*
G75*
G02*
X167705000Y-34209999I0J-249999D01*
G01*
X167705000Y-34860001D01*
G75*
G02*
X167455001Y-35110000I-249999J0D01*
G01*
X166554999Y-35110000D01*
G75*
G02*
X166305000Y-34860001I0J249999D01*
G01*
X166305000Y-34209999D01*
G75*
G02*
X166554999Y-33960000I249999J0D01*
G01*
G37*
%TD*%
%TO.C,R2*%
G36*
G01*
X151326001Y-36389000D02*
X150425999Y-36389000D01*
G75*
G02*
X150176000Y-36139001I0J249999D01*
G01*
X150176000Y-35488999D01*
G75*
G02*
X150425999Y-35239000I249999J0D01*
G01*
X151326001Y-35239000D01*
G75*
G02*
X151576000Y-35488999I0J-249999D01*
G01*
X151576000Y-36139001D01*
G75*
G02*
X151326001Y-36389000I-249999J0D01*
G01*
G37*
G36*
G01*
X151326001Y-38439000D02*
X150425999Y-38439000D01*
G75*
G02*
X150176000Y-38189001I0J249999D01*
G01*
X150176000Y-37538999D01*
G75*
G02*
X150425999Y-37289000I249999J0D01*
G01*
X151326001Y-37289000D01*
G75*
G02*
X151576000Y-37538999I0J-249999D01*
G01*
X151576000Y-38189001D01*
G75*
G02*
X151326001Y-38439000I-249999J0D01*
G01*
G37*
%TD*%
%TO.C,R1*%
G36*
G01*
X153104001Y-36389000D02*
X152203999Y-36389000D01*
G75*
G02*
X151954000Y-36139001I0J249999D01*
G01*
X151954000Y-35488999D01*
G75*
G02*
X152203999Y-35239000I249999J0D01*
G01*
X153104001Y-35239000D01*
G75*
G02*
X153354000Y-35488999I0J-249999D01*
G01*
X153354000Y-36139001D01*
G75*
G02*
X153104001Y-36389000I-249999J0D01*
G01*
G37*
G36*
G01*
X153104001Y-38439000D02*
X152203999Y-38439000D01*
G75*
G02*
X151954000Y-38189001I0J249999D01*
G01*
X151954000Y-37538999D01*
G75*
G02*
X152203999Y-37289000I249999J0D01*
G01*
X153104001Y-37289000D01*
G75*
G02*
X153354000Y-37538999I0J-249999D01*
G01*
X153354000Y-38189001D01*
G75*
G02*
X153104001Y-38439000I-249999J0D01*
G01*
G37*
%TD*%
D17*
%TO.C,Q4*%
X120380000Y-76835000D03*
X118380000Y-77785000D03*
X118380000Y-75885000D03*
%TD*%
D18*
%TO.C,Q3*%
X117160000Y-82010000D03*
X116210000Y-80010000D03*
X118110000Y-80010000D03*
%TD*%
%TO.C,Q2*%
X156845000Y-58150000D03*
X155895000Y-56150000D03*
X157795000Y-56150000D03*
%TD*%
%TO.C,Q1*%
X156845000Y-59325000D03*
X157795000Y-61325000D03*
X155895000Y-61325000D03*
%TD*%
D19*
%TO.C,J4*%
X134615000Y-38110000D03*
X143515000Y-38110000D03*
X143515000Y-32660000D03*
X134615000Y-32660000D03*
D20*
X137465000Y-38235000D03*
X138265000Y-38235000D03*
X139065000Y-38235000D03*
X139865000Y-38235000D03*
X140665000Y-38235000D03*
%TD*%
D21*
%TO.C,D8*%
X105919000Y-33655000D03*
X109219000Y-33655000D03*
%TD*%
%TO.C,D7*%
X109219000Y-36195000D03*
X105919000Y-36195000D03*
%TD*%
%TO.C,D6*%
X105919000Y-38735000D03*
X109219000Y-38735000D03*
%TD*%
%TO.C,D5*%
X110870000Y-56515000D03*
X107570000Y-56515000D03*
%TD*%
D22*
%TO.C,D4*%
X104775000Y-56135000D03*
X104775000Y-59435000D03*
%TD*%
%TO.C,USB*%
G36*
G01*
X146795500Y-31908000D02*
X146320500Y-31908000D01*
G75*
G02*
X146083000Y-31670500I0J237500D01*
G01*
X146083000Y-31095500D01*
G75*
G02*
X146320500Y-30858000I237500J0D01*
G01*
X146795500Y-30858000D01*
G75*
G02*
X147033000Y-31095500I0J-237500D01*
G01*
X147033000Y-31670500D01*
G75*
G02*
X146795500Y-31908000I-237500J0D01*
G01*
G37*
G36*
G01*
X146795500Y-33658000D02*
X146320500Y-33658000D01*
G75*
G02*
X146083000Y-33420500I0J237500D01*
G01*
X146083000Y-32845500D01*
G75*
G02*
X146320500Y-32608000I237500J0D01*
G01*
X146795500Y-32608000D01*
G75*
G02*
X147033000Y-32845500I0J-237500D01*
G01*
X147033000Y-33420500D01*
G75*
G02*
X146795500Y-33658000I-237500J0D01*
G01*
G37*
%TD*%
%TO.C,Rx*%
G36*
G01*
X155812500Y-32035000D02*
X155337500Y-32035000D01*
G75*
G02*
X155100000Y-31797500I0J237500D01*
G01*
X155100000Y-31222500D01*
G75*
G02*
X155337500Y-30985000I237500J0D01*
G01*
X155812500Y-30985000D01*
G75*
G02*
X156050000Y-31222500I0J-237500D01*
G01*
X156050000Y-31797500D01*
G75*
G02*
X155812500Y-32035000I-237500J0D01*
G01*
G37*
G36*
G01*
X155812500Y-33785000D02*
X155337500Y-33785000D01*
G75*
G02*
X155100000Y-33547500I0J237500D01*
G01*
X155100000Y-32972500D01*
G75*
G02*
X155337500Y-32735000I237500J0D01*
G01*
X155812500Y-32735000D01*
G75*
G02*
X156050000Y-32972500I0J-237500D01*
G01*
X156050000Y-33547500D01*
G75*
G02*
X155812500Y-33785000I-237500J0D01*
G01*
G37*
%TD*%
%TO.C,Tx*%
G36*
G01*
X157717500Y-32035000D02*
X157242500Y-32035000D01*
G75*
G02*
X157005000Y-31797500I0J237500D01*
G01*
X157005000Y-31222500D01*
G75*
G02*
X157242500Y-30985000I237500J0D01*
G01*
X157717500Y-30985000D01*
G75*
G02*
X157955000Y-31222500I0J-237500D01*
G01*
X157955000Y-31797500D01*
G75*
G02*
X157717500Y-32035000I-237500J0D01*
G01*
G37*
G36*
G01*
X157717500Y-33785000D02*
X157242500Y-33785000D01*
G75*
G02*
X157005000Y-33547500I0J237500D01*
G01*
X157005000Y-32972500D01*
G75*
G02*
X157242500Y-32735000I237500J0D01*
G01*
X157717500Y-32735000D01*
G75*
G02*
X157955000Y-32972500I0J-237500D01*
G01*
X157955000Y-33547500D01*
G75*
G02*
X157717500Y-33785000I-237500J0D01*
G01*
G37*
%TD*%
%TO.C,C9*%
G36*
G01*
X116850000Y-58560000D02*
X118100000Y-58560000D01*
G75*
G02*
X118350000Y-58810000I0J-250000D01*
G01*
X118350000Y-59735000D01*
G75*
G02*
X118100000Y-59985000I-250000J0D01*
G01*
X116850000Y-59985000D01*
G75*
G02*
X116600000Y-59735000I0J250000D01*
G01*
X116600000Y-58810000D01*
G75*
G02*
X116850000Y-58560000I250000J0D01*
G01*
G37*
G36*
G01*
X116850000Y-55585000D02*
X118100000Y-55585000D01*
G75*
G02*
X118350000Y-55835000I0J-250000D01*
G01*
X118350000Y-56760000D01*
G75*
G02*
X118100000Y-57010000I-250000J0D01*
G01*
X116850000Y-57010000D01*
G75*
G02*
X116600000Y-56760000I0J250000D01*
G01*
X116600000Y-55835000D01*
G75*
G02*
X116850000Y-55585000I250000J0D01*
G01*
G37*
%TD*%
%TO.C,C8*%
G36*
G01*
X103350000Y-42889999D02*
X103350000Y-44740001D01*
G75*
G02*
X103100001Y-44990000I-249999J0D01*
G01*
X101349999Y-44990000D01*
G75*
G02*
X101100000Y-44740001I0J249999D01*
G01*
X101100000Y-42889999D01*
G75*
G02*
X101349999Y-42640000I249999J0D01*
G01*
X103100001Y-42640000D01*
G75*
G02*
X103350000Y-42889999I0J-249999D01*
G01*
G37*
G36*
G01*
X108450000Y-42889999D02*
X108450000Y-44740001D01*
G75*
G02*
X108200001Y-44990000I-249999J0D01*
G01*
X106449999Y-44990000D01*
G75*
G02*
X106200000Y-44740001I0J249999D01*
G01*
X106200000Y-42889999D01*
G75*
G02*
X106449999Y-42640000I249999J0D01*
G01*
X108200001Y-42640000D01*
G75*
G02*
X108450000Y-42889999I0J-249999D01*
G01*
G37*
%TD*%
%TO.C,C7*%
G36*
G01*
X164014999Y-36010000D02*
X164915001Y-36010000D01*
G75*
G02*
X165165000Y-36259999I0J-249999D01*
G01*
X165165000Y-36910001D01*
G75*
G02*
X164915001Y-37160000I-249999J0D01*
G01*
X164014999Y-37160000D01*
G75*
G02*
X163765000Y-36910001I0J249999D01*
G01*
X163765000Y-36259999D01*
G75*
G02*
X164014999Y-36010000I249999J0D01*
G01*
G37*
G36*
G01*
X164014999Y-33960000D02*
X164915001Y-33960000D01*
G75*
G02*
X165165000Y-34209999I0J-249999D01*
G01*
X165165000Y-34860001D01*
G75*
G02*
X164915001Y-35110000I-249999J0D01*
G01*
X164014999Y-35110000D01*
G75*
G02*
X163765000Y-34860001I0J249999D01*
G01*
X163765000Y-34209999D01*
G75*
G02*
X164014999Y-33960000I249999J0D01*
G01*
G37*
%TD*%
%TO.C,C6*%
G36*
G01*
X150933999Y-79825000D02*
X151834001Y-79825000D01*
G75*
G02*
X152084000Y-80074999I0J-249999D01*
G01*
X152084000Y-80725001D01*
G75*
G02*
X151834001Y-80975000I-249999J0D01*
G01*
X150933999Y-80975000D01*
G75*
G02*
X150684000Y-80725001I0J249999D01*
G01*
X150684000Y-80074999D01*
G75*
G02*
X150933999Y-79825000I249999J0D01*
G01*
G37*
G36*
G01*
X150933999Y-77775000D02*
X151834001Y-77775000D01*
G75*
G02*
X152084000Y-78024999I0J-249999D01*
G01*
X152084000Y-78675001D01*
G75*
G02*
X151834001Y-78925000I-249999J0D01*
G01*
X150933999Y-78925000D01*
G75*
G02*
X150684000Y-78675001I0J249999D01*
G01*
X150684000Y-78024999D01*
G75*
G02*
X150933999Y-77775000I249999J0D01*
G01*
G37*
%TD*%
%TO.C,C5*%
G36*
G01*
X111643000Y-38113000D02*
X112893000Y-38113000D01*
G75*
G02*
X113143000Y-38363000I0J-250000D01*
G01*
X113143000Y-39288000D01*
G75*
G02*
X112893000Y-39538000I-250000J0D01*
G01*
X111643000Y-39538000D01*
G75*
G02*
X111393000Y-39288000I0J250000D01*
G01*
X111393000Y-38363000D01*
G75*
G02*
X111643000Y-38113000I250000J0D01*
G01*
G37*
G36*
G01*
X111643000Y-35138000D02*
X112893000Y-35138000D01*
G75*
G02*
X113143000Y-35388000I0J-250000D01*
G01*
X113143000Y-36313000D01*
G75*
G02*
X112893000Y-36563000I-250000J0D01*
G01*
X111643000Y-36563000D01*
G75*
G02*
X111393000Y-36313000I0J250000D01*
G01*
X111393000Y-35388000D01*
G75*
G02*
X111643000Y-35138000I250000J0D01*
G01*
G37*
%TD*%
%TO.C,C4*%
G36*
G01*
X106200000Y-49185001D02*
X106200000Y-47334999D01*
G75*
G02*
X106449999Y-47085000I249999J0D01*
G01*
X108200001Y-47085000D01*
G75*
G02*
X108450000Y-47334999I0J-249999D01*
G01*
X108450000Y-49185001D01*
G75*
G02*
X108200001Y-49435000I-249999J0D01*
G01*
X106449999Y-49435000D01*
G75*
G02*
X106200000Y-49185001I0J249999D01*
G01*
G37*
G36*
G01*
X101100000Y-49185001D02*
X101100000Y-47334999D01*
G75*
G02*
X101349999Y-47085000I249999J0D01*
G01*
X103100001Y-47085000D01*
G75*
G02*
X103350000Y-47334999I0J-249999D01*
G01*
X103350000Y-49185001D01*
G75*
G02*
X103100001Y-49435000I-249999J0D01*
G01*
X101349999Y-49435000D01*
G75*
G02*
X101100000Y-49185001I0J249999D01*
G01*
G37*
%TD*%
%TO.C,C3*%
G36*
G01*
X103350000Y-51779999D02*
X103350000Y-53630001D01*
G75*
G02*
X103100001Y-53880000I-249999J0D01*
G01*
X101349999Y-53880000D01*
G75*
G02*
X101100000Y-53630001I0J249999D01*
G01*
X101100000Y-51779999D01*
G75*
G02*
X101349999Y-51530000I249999J0D01*
G01*
X103100001Y-51530000D01*
G75*
G02*
X103350000Y-51779999I0J-249999D01*
G01*
G37*
G36*
G01*
X108450000Y-51779999D02*
X108450000Y-53630001D01*
G75*
G02*
X108200001Y-53880000I-249999J0D01*
G01*
X106449999Y-53880000D01*
G75*
G02*
X106200000Y-53630001I0J249999D01*
G01*
X106200000Y-51779999D01*
G75*
G02*
X106449999Y-51530000I249999J0D01*
G01*
X108200001Y-51530000D01*
G75*
G02*
X108450000Y-51779999I0J-249999D01*
G01*
G37*
%TD*%
%TO.C,C2*%
G36*
G01*
X120640000Y-57010000D02*
X119390000Y-57010000D01*
G75*
G02*
X119140000Y-56760000I0J250000D01*
G01*
X119140000Y-55835000D01*
G75*
G02*
X119390000Y-55585000I250000J0D01*
G01*
X120640000Y-55585000D01*
G75*
G02*
X120890000Y-55835000I0J-250000D01*
G01*
X120890000Y-56760000D01*
G75*
G02*
X120640000Y-57010000I-250000J0D01*
G01*
G37*
G36*
G01*
X120640000Y-59985000D02*
X119390000Y-59985000D01*
G75*
G02*
X119140000Y-59735000I0J250000D01*
G01*
X119140000Y-58810000D01*
G75*
G02*
X119390000Y-58560000I250000J0D01*
G01*
X120640000Y-58560000D01*
G75*
G02*
X120890000Y-58810000I0J-250000D01*
G01*
X120890000Y-59735000D01*
G75*
G02*
X120640000Y-59985000I-250000J0D01*
G01*
G37*
%TD*%
%TO.C,C1*%
G36*
G01*
X161474999Y-36010000D02*
X162375001Y-36010000D01*
G75*
G02*
X162625000Y-36259999I0J-249999D01*
G01*
X162625000Y-36910001D01*
G75*
G02*
X162375001Y-37160000I-249999J0D01*
G01*
X161474999Y-37160000D01*
G75*
G02*
X161225000Y-36910001I0J249999D01*
G01*
X161225000Y-36259999D01*
G75*
G02*
X161474999Y-36010000I249999J0D01*
G01*
G37*
G36*
G01*
X161474999Y-33960000D02*
X162375001Y-33960000D01*
G75*
G02*
X162625000Y-34209999I0J-249999D01*
G01*
X162625000Y-34860001D01*
G75*
G02*
X162375001Y-35110000I-249999J0D01*
G01*
X161474999Y-35110000D01*
G75*
G02*
X161225000Y-34860001I0J249999D01*
G01*
X161225000Y-34209999D01*
G75*
G02*
X161474999Y-33960000I249999J0D01*
G01*
G37*
%TD*%
M02*
