%TF.GenerationSoftware,KiCad,Pcbnew,(5.1.9-0-10_14)*%
%TF.CreationDate,2021-04-17T19:26:37+08:00*%
%TF.ProjectId,BreadControlV2-rounded,42726561-6443-46f6-9e74-726f6c56322d,rev?*%
%TF.SameCoordinates,Original*%
%TF.FileFunction,Soldermask,Bot*%
%TF.FilePolarity,Negative*%
%FSLAX46Y46*%
G04 Gerber Fmt 4.6, Leading zero omitted, Abs format (unit mm)*
G04 Created by KiCad (PCBNEW (5.1.9-0-10_14)) date 2021-04-17 19:26:37*
%MOMM*%
%LPD*%
G01*
G04 APERTURE LIST*
%ADD10O,1.500000X1.500000*%
%ADD11O,1.700000X1.700000*%
%ADD12R,1.700000X1.700000*%
%ADD13C,0.100000*%
%ADD14R,1.500000X1.000000*%
%ADD15C,0.950000*%
G04 APERTURE END LIST*
D10*
%TO.C,J2*%
X179070000Y-78740000D03*
X179070000Y-76200000D03*
X179070000Y-73660000D03*
X179070000Y-71120000D03*
X179070000Y-68580000D03*
X179070000Y-66040000D03*
X179070000Y-63500000D03*
X179070000Y-60960000D03*
X179070000Y-58420000D03*
X179070000Y-55880000D03*
X179070000Y-53340000D03*
X179070000Y-50800000D03*
X179070000Y-48260000D03*
X179070000Y-45720000D03*
X179070000Y-43180000D03*
X179070000Y-40640000D03*
X179070000Y-38100000D03*
G36*
G01*
X178320000Y-35935000D02*
X178320000Y-35185000D01*
G75*
G02*
X178695000Y-34810000I375000J0D01*
G01*
X179445000Y-34810000D01*
G75*
G02*
X179820000Y-35185000I0J-375000D01*
G01*
X179820000Y-35935000D01*
G75*
G02*
X179445000Y-36310000I-375000J0D01*
G01*
X178695000Y-36310000D01*
G75*
G02*
X178320000Y-35935000I0J375000D01*
G01*
G37*
%TD*%
%TO.C,J1*%
X97790000Y-78740000D03*
X97790000Y-76200000D03*
X97790000Y-73660000D03*
X97790000Y-71120000D03*
X97790000Y-68580000D03*
X97790000Y-66040000D03*
X97790000Y-63500000D03*
X97790000Y-60960000D03*
X97790000Y-58420000D03*
X97790000Y-55880000D03*
X97790000Y-53340000D03*
X97790000Y-50800000D03*
X97790000Y-48260000D03*
X97790000Y-45720000D03*
X97790000Y-43180000D03*
X97790000Y-40640000D03*
X97790000Y-38100000D03*
G36*
G01*
X97040000Y-35935000D02*
X97040000Y-35185000D01*
G75*
G02*
X97415000Y-34810000I375000J0D01*
G01*
X98165000Y-34810000D01*
G75*
G02*
X98540000Y-35185000I0J-375000D01*
G01*
X98540000Y-35935000D01*
G75*
G02*
X98165000Y-36310000I-375000J0D01*
G01*
X97415000Y-36310000D01*
G75*
G02*
X97040000Y-35935000I0J375000D01*
G01*
G37*
%TD*%
D11*
%TO.C,J8*%
X177165000Y-82550000D03*
X174625000Y-82550000D03*
X177165000Y-80010000D03*
D12*
X174625000Y-80010000D03*
%TD*%
D11*
%TO.C,Rx Tx Out*%
X177165000Y-34290000D03*
X174625000Y-34290000D03*
X177165000Y-31750000D03*
D12*
X174625000Y-31750000D03*
%TD*%
D11*
%TO.C,J7*%
X99695000Y-82550000D03*
X102235000Y-82550000D03*
X99695000Y-80010000D03*
D12*
X102235000Y-80010000D03*
%TD*%
D11*
%TO.C,Rx Tx in*%
X99695000Y-34290000D03*
X102235000Y-34290000D03*
X99695000Y-31750000D03*
D12*
X102235000Y-31750000D03*
%TD*%
D13*
%TO.C,Neg Bottom to Gnd*%
G36*
X102374000Y-71620000D02*
G01*
X102374000Y-71120000D01*
X102374602Y-71120000D01*
X102374602Y-71095466D01*
X102379412Y-71046635D01*
X102388984Y-70998510D01*
X102403228Y-70951555D01*
X102422005Y-70906222D01*
X102445136Y-70862949D01*
X102472396Y-70822150D01*
X102503524Y-70784221D01*
X102538221Y-70749524D01*
X102576150Y-70718396D01*
X102616949Y-70691136D01*
X102660222Y-70668005D01*
X102705555Y-70649228D01*
X102752510Y-70634984D01*
X102800635Y-70625412D01*
X102849466Y-70620602D01*
X102874000Y-70620602D01*
X102874000Y-70620000D01*
X103374000Y-70620000D01*
X103374000Y-70620602D01*
X103398534Y-70620602D01*
X103447365Y-70625412D01*
X103495490Y-70634984D01*
X103542445Y-70649228D01*
X103587778Y-70668005D01*
X103631051Y-70691136D01*
X103671850Y-70718396D01*
X103709779Y-70749524D01*
X103744476Y-70784221D01*
X103775604Y-70822150D01*
X103802864Y-70862949D01*
X103825995Y-70906222D01*
X103844772Y-70951555D01*
X103859016Y-70998510D01*
X103868588Y-71046635D01*
X103873398Y-71095466D01*
X103873398Y-71120000D01*
X103874000Y-71120000D01*
X103874000Y-71620000D01*
X102374000Y-71620000D01*
G37*
G36*
X103873398Y-72420000D02*
G01*
X103873398Y-72444534D01*
X103868588Y-72493365D01*
X103859016Y-72541490D01*
X103844772Y-72588445D01*
X103825995Y-72633778D01*
X103802864Y-72677051D01*
X103775604Y-72717850D01*
X103744476Y-72755779D01*
X103709779Y-72790476D01*
X103671850Y-72821604D01*
X103631051Y-72848864D01*
X103587778Y-72871995D01*
X103542445Y-72890772D01*
X103495490Y-72905016D01*
X103447365Y-72914588D01*
X103398534Y-72919398D01*
X103374000Y-72919398D01*
X103374000Y-72920000D01*
X102874000Y-72920000D01*
X102874000Y-72919398D01*
X102849466Y-72919398D01*
X102800635Y-72914588D01*
X102752510Y-72905016D01*
X102705555Y-72890772D01*
X102660222Y-72871995D01*
X102616949Y-72848864D01*
X102576150Y-72821604D01*
X102538221Y-72790476D01*
X102503524Y-72755779D01*
X102472396Y-72717850D01*
X102445136Y-72677051D01*
X102422005Y-72633778D01*
X102403228Y-72588445D01*
X102388984Y-72541490D01*
X102379412Y-72493365D01*
X102374602Y-72444534D01*
X102374602Y-72420000D01*
X102374000Y-72420000D01*
X102374000Y-71920000D01*
X103874000Y-71920000D01*
X103874000Y-72420000D01*
X103873398Y-72420000D01*
G37*
%TD*%
%TO.C,Neg to Rails*%
G36*
X100088000Y-70370000D02*
G01*
X100088000Y-69820000D01*
X100088602Y-69820000D01*
X100088602Y-69795466D01*
X100093412Y-69746635D01*
X100102984Y-69698510D01*
X100117228Y-69651555D01*
X100136005Y-69606222D01*
X100159136Y-69562949D01*
X100186396Y-69522150D01*
X100217524Y-69484221D01*
X100252221Y-69449524D01*
X100290150Y-69418396D01*
X100330949Y-69391136D01*
X100374222Y-69368005D01*
X100419555Y-69349228D01*
X100466510Y-69334984D01*
X100514635Y-69325412D01*
X100563466Y-69320602D01*
X100588000Y-69320602D01*
X100588000Y-69320000D01*
X101088000Y-69320000D01*
X101088000Y-69320602D01*
X101112534Y-69320602D01*
X101161365Y-69325412D01*
X101209490Y-69334984D01*
X101256445Y-69349228D01*
X101301778Y-69368005D01*
X101345051Y-69391136D01*
X101385850Y-69418396D01*
X101423779Y-69449524D01*
X101458476Y-69484221D01*
X101489604Y-69522150D01*
X101516864Y-69562949D01*
X101539995Y-69606222D01*
X101558772Y-69651555D01*
X101573016Y-69698510D01*
X101582588Y-69746635D01*
X101587398Y-69795466D01*
X101587398Y-69820000D01*
X101588000Y-69820000D01*
X101588000Y-70370000D01*
X100088000Y-70370000D01*
G37*
D14*
X100838000Y-71120000D03*
D13*
G36*
X101587398Y-72420000D02*
G01*
X101587398Y-72444534D01*
X101582588Y-72493365D01*
X101573016Y-72541490D01*
X101558772Y-72588445D01*
X101539995Y-72633778D01*
X101516864Y-72677051D01*
X101489604Y-72717850D01*
X101458476Y-72755779D01*
X101423779Y-72790476D01*
X101385850Y-72821604D01*
X101345051Y-72848864D01*
X101301778Y-72871995D01*
X101256445Y-72890772D01*
X101209490Y-72905016D01*
X101161365Y-72914588D01*
X101112534Y-72919398D01*
X101088000Y-72919398D01*
X101088000Y-72920000D01*
X100588000Y-72920000D01*
X100588000Y-72919398D01*
X100563466Y-72919398D01*
X100514635Y-72914588D01*
X100466510Y-72905016D01*
X100419555Y-72890772D01*
X100374222Y-72871995D01*
X100330949Y-72848864D01*
X100290150Y-72821604D01*
X100252221Y-72790476D01*
X100217524Y-72755779D01*
X100186396Y-72717850D01*
X100159136Y-72677051D01*
X100136005Y-72633778D01*
X100117228Y-72588445D01*
X100102984Y-72541490D01*
X100093412Y-72493365D01*
X100088602Y-72444534D01*
X100088602Y-72420000D01*
X100088000Y-72420000D01*
X100088000Y-71870000D01*
X101588000Y-71870000D01*
X101588000Y-72420000D01*
X101587398Y-72420000D01*
G37*
%TD*%
%TO.C,Bypass Neg Enable*%
G36*
X114696000Y-80530602D02*
G01*
X114720534Y-80530602D01*
X114769365Y-80535412D01*
X114817490Y-80544984D01*
X114864445Y-80559228D01*
X114909778Y-80578005D01*
X114953051Y-80601136D01*
X114993850Y-80628396D01*
X115031779Y-80659524D01*
X115066476Y-80694221D01*
X115097604Y-80732150D01*
X115124864Y-80772949D01*
X115147995Y-80816222D01*
X115166772Y-80861555D01*
X115181016Y-80908510D01*
X115190588Y-80956635D01*
X115195398Y-81005466D01*
X115195398Y-81030000D01*
X115196000Y-81030000D01*
X115196000Y-81530000D01*
X115195398Y-81530000D01*
X115195398Y-81554534D01*
X115190588Y-81603365D01*
X115181016Y-81651490D01*
X115166772Y-81698445D01*
X115147995Y-81743778D01*
X115124864Y-81787051D01*
X115097604Y-81827850D01*
X115066476Y-81865779D01*
X115031779Y-81900476D01*
X114993850Y-81931604D01*
X114953051Y-81958864D01*
X114909778Y-81981995D01*
X114864445Y-82000772D01*
X114817490Y-82015016D01*
X114769365Y-82024588D01*
X114720534Y-82029398D01*
X114696000Y-82029398D01*
X114696000Y-82030000D01*
X114196000Y-82030000D01*
X114196000Y-80530000D01*
X114696000Y-80530000D01*
X114696000Y-80530602D01*
G37*
G36*
X113896000Y-82030000D02*
G01*
X113396000Y-82030000D01*
X113396000Y-82029398D01*
X113371466Y-82029398D01*
X113322635Y-82024588D01*
X113274510Y-82015016D01*
X113227555Y-82000772D01*
X113182222Y-81981995D01*
X113138949Y-81958864D01*
X113098150Y-81931604D01*
X113060221Y-81900476D01*
X113025524Y-81865779D01*
X112994396Y-81827850D01*
X112967136Y-81787051D01*
X112944005Y-81743778D01*
X112925228Y-81698445D01*
X112910984Y-81651490D01*
X112901412Y-81603365D01*
X112896602Y-81554534D01*
X112896602Y-81530000D01*
X112896000Y-81530000D01*
X112896000Y-81030000D01*
X112896602Y-81030000D01*
X112896602Y-81005466D01*
X112901412Y-80956635D01*
X112910984Y-80908510D01*
X112925228Y-80861555D01*
X112944005Y-80816222D01*
X112967136Y-80772949D01*
X112994396Y-80732150D01*
X113025524Y-80694221D01*
X113060221Y-80659524D01*
X113098150Y-80628396D01*
X113138949Y-80601136D01*
X113182222Y-80578005D01*
X113227555Y-80559228D01*
X113274510Y-80544984D01*
X113322635Y-80535412D01*
X113371466Y-80530602D01*
X113396000Y-80530602D01*
X113396000Y-80530000D01*
X113896000Y-80530000D01*
X113896000Y-82030000D01*
G37*
%TD*%
%TO.C,USB Reset*%
G36*
X165900000Y-31000000D02*
G01*
X166400000Y-31000000D01*
X166400000Y-31000602D01*
X166424534Y-31000602D01*
X166473365Y-31005412D01*
X166521490Y-31014984D01*
X166568445Y-31029228D01*
X166613778Y-31048005D01*
X166657051Y-31071136D01*
X166697850Y-31098396D01*
X166735779Y-31129524D01*
X166770476Y-31164221D01*
X166801604Y-31202150D01*
X166828864Y-31242949D01*
X166851995Y-31286222D01*
X166870772Y-31331555D01*
X166885016Y-31378510D01*
X166894588Y-31426635D01*
X166899398Y-31475466D01*
X166899398Y-31500000D01*
X166900000Y-31500000D01*
X166900000Y-32000000D01*
X166899398Y-32000000D01*
X166899398Y-32024534D01*
X166894588Y-32073365D01*
X166885016Y-32121490D01*
X166870772Y-32168445D01*
X166851995Y-32213778D01*
X166828864Y-32257051D01*
X166801604Y-32297850D01*
X166770476Y-32335779D01*
X166735779Y-32370476D01*
X166697850Y-32401604D01*
X166657051Y-32428864D01*
X166613778Y-32451995D01*
X166568445Y-32470772D01*
X166521490Y-32485016D01*
X166473365Y-32494588D01*
X166424534Y-32499398D01*
X166400000Y-32499398D01*
X166400000Y-32500000D01*
X165900000Y-32500000D01*
X165900000Y-31000000D01*
G37*
G36*
X165100000Y-32499398D02*
G01*
X165075466Y-32499398D01*
X165026635Y-32494588D01*
X164978510Y-32485016D01*
X164931555Y-32470772D01*
X164886222Y-32451995D01*
X164842949Y-32428864D01*
X164802150Y-32401604D01*
X164764221Y-32370476D01*
X164729524Y-32335779D01*
X164698396Y-32297850D01*
X164671136Y-32257051D01*
X164648005Y-32213778D01*
X164629228Y-32168445D01*
X164614984Y-32121490D01*
X164605412Y-32073365D01*
X164600602Y-32024534D01*
X164600602Y-32000000D01*
X164600000Y-32000000D01*
X164600000Y-31500000D01*
X164600602Y-31500000D01*
X164600602Y-31475466D01*
X164605412Y-31426635D01*
X164614984Y-31378510D01*
X164629228Y-31331555D01*
X164648005Y-31286222D01*
X164671136Y-31242949D01*
X164698396Y-31202150D01*
X164729524Y-31164221D01*
X164764221Y-31129524D01*
X164802150Y-31098396D01*
X164842949Y-31071136D01*
X164886222Y-31048005D01*
X164931555Y-31029228D01*
X164978510Y-31014984D01*
X165026635Y-31005412D01*
X165075466Y-31000602D01*
X165100000Y-31000602D01*
X165100000Y-31000000D01*
X165600000Y-31000000D01*
X165600000Y-32500000D01*
X165100000Y-32500000D01*
X165100000Y-32499398D01*
G37*
%TD*%
D15*
%TO.C,J4*%
X141265000Y-35560000D03*
X136865000Y-35560000D03*
%TD*%
D11*
%TO.C,J3*%
X116205000Y-31115000D03*
X118745000Y-31115000D03*
D12*
X121285000Y-31115000D03*
%TD*%
M02*
