M48
; DRILL file {KiCad (5.1.9-0-10_14)} date Saturday, April 17, 2021 at 07:26:41 PM
; FORMAT={-:-/ absolute / inch / decimal}
; #@! TF.CreationDate,2021-04-17T19:26:41+08:00
; #@! TF.GenerationSoftware,Kicad,Pcbnew,(5.1.9-0-10_14)
FMAT,2
INCH
T1C0.0118
T2C0.0157
T3C0.0394
T4C0.0374
%
G90
G05
T1
X3.91Y-2.8225
X4.0225Y-1.905
X4.0246Y-1.725
X4.0246Y-2.075
X4.075Y-2.445
X4.15Y-2.5904
X4.17Y-1.325
X4.17Y-1.425
X4.17Y-1.525
X4.1746Y-2.8069
X4.2254Y-1.7321
X4.2254Y-1.9
X4.2275Y-2.0725
X4.235Y-2.225
X4.2654Y-3.1
X4.2825Y-3.1725
X4.3075Y-1.6
X4.3125Y-1.7525
X4.3525Y-2.6725
X4.4375Y-3.1025
X4.445Y-1.255
X4.47Y-1.3475
X4.4875Y-1.24
X4.5149Y-1.7225
X4.515Y-3.2075
X4.52Y-1.3825
X4.52Y-1.5
X4.55Y-2.975
X4.5752Y-3.15
X4.6Y-2.6562
X4.6Y-1.3175
X4.7026Y-2.735
X4.7375Y-3.23
X4.7759Y-2.85
X4.815Y-1.8625
X4.825Y-1.6169
X4.915Y-1.89
X4.9325Y-3.2075
X4.94Y-3.0325
X4.9439Y-1.875
X4.95Y-2.245
X4.9932Y-1.86
X4.9934Y-1.8268
X4.995Y-2.3225
X5.0052Y-2.2068
X5.03Y-2.16
X5.0362Y-2.12
X5.0775Y-1.9225
X5.0776Y-2.735
X5.0776Y-2.635
X5.115Y-3.02
X5.1477Y-2.5877
X5.1725Y-2.6375
X5.1769Y-2.5759
X5.2175Y-1.86
X5.2411Y-1.9775
X5.2724Y-2.785
X5.3172Y-1.9189
X5.375Y-1.76
X5.375Y-2.4575
X5.3775Y-1.9875
X5.3775Y-2.6547
X5.4Y-2.1775
X5.405Y-2.515
X5.4125Y-2.75
X5.4236Y-1.975
X5.425Y-1.76
X5.425Y-2.39
X5.425Y-2.7175
X5.445Y-3.21
X5.4625Y-1.8614
X5.475Y-1.76
X5.475Y-2.39
X5.475Y-2.7
X5.4775Y-2.85
X5.4925Y-2.265
X5.505Y-1.9185
X5.525Y-1.76
X5.525Y-2.005
X5.525Y-2.39
X5.525Y-2.695
X5.5275Y-3.005
X5.575Y-1.76
X5.5775Y-2.6811
X5.625Y-1.76
X5.6275Y-2.6831
X5.77Y-1.3044
X5.7944Y-2.8014
X5.8456Y-2.3575
X5.8456Y-2.915
X5.8675Y-2.5325
X5.915Y-2.185
X5.9325Y-2.595
X5.935Y-2.3325
X5.94Y-1.614
X5.9725Y-1.795
X5.98Y-2.5125
X6.0775Y-2.22
X6.125Y-1.31
X6.125Y-1.6075
X6.125Y-1.795
X6.1251Y-1.9006
X6.1294Y-2.4144
X6.1375Y-1.9819
X6.1705Y-1.968
X6.1743Y-1.9091
X6.175Y-1.6026
X6.2Y-1.3125
X6.2025Y-1.3725
X6.225Y-1.6026
X6.2525Y-2.86
X6.2525Y-2.9429
X6.285Y-2.8375
X6.3015Y-1.8589
X6.3421Y-2.0784
X6.3533Y-1.8433
X6.37Y-1.8975
X6.37Y-2.5225
X6.4045Y-1.7681
X6.4106Y-1.7051
X6.5Y-1.255
X6.502Y-2.287
X6.5151Y-1.8207
X6.525Y-2.1531
X6.5299Y-1.8485
X6.5374Y-2.285
X6.5531Y-2.4625
X6.561Y-1.853
X6.5689Y-2.58
X6.5712Y-2.1403
X6.5733Y-1.8911
X6.575Y-1.44
X6.5758Y-1.9689
X6.6132Y-1.849
X6.622Y-3.072
X6.6328Y-2.1165
X6.6436Y-1.9482
X6.6442Y-1.912
X6.6589Y-1.5983
X6.6672Y-2.1169
X6.6726Y-1.7779
X6.675Y-1.44
X6.6826Y-2.1688
X6.6837Y-1.6603
X6.6917Y-1.5552
X6.6926Y-1.6024
X6.6975Y-3.03
X6.704Y-1.6323
X6.7125Y-2.8925
X6.7132Y-1.8015
X6.7139Y-1.5328
X6.7166Y-2.142
X6.7175Y-2.46
X6.7189Y-2.2262
X6.7368Y-1.7287
X6.7465Y-1.971
X6.7625Y-2.9475
X6.7711Y-2.2336
X6.7725Y-1.4425
X6.7725Y-1.4875
X6.7775Y-1.2875
X6.7875Y-2.6
X6.7987Y-1.7292
X6.8137Y-1.7762
X6.8375Y-1.4825
X6.8614Y-2.7261
X6.8656Y-1.8275
X6.8656Y-1.8822
X6.8811Y-1.503
X6.8836Y-2.2425
X6.8866Y-1.804
X6.8892Y-1.9125
X6.8898Y-1.7145
X6.89Y-1.85
X6.9086Y-1.984
X6.9478Y-2.709
X6.9806Y-2.032
T2
X4.0229Y-2.9154
X4.0628Y-2.9703
X4.1125Y-1.635
X4.1425Y-2.8375
X4.15Y-2.5096
X4.31Y-2.12
X4.345Y-1.44
X4.365Y-2.2275
X4.4225Y-2.39
X4.4263Y-2.3104
X4.4475Y-1.605
X4.4799Y-2.6692
X4.58Y-2.44
X4.5833Y-1.5183
X4.6086Y-1.4114
X4.625Y-2.2164
X4.63Y-2.507
X4.63Y-2.675
X4.6575Y-2.9845
X4.725Y-2.2164
X4.725Y-2.3336
X4.775Y-1.6169
X4.82Y-2.62
X4.82Y-2.7025
X4.86Y-2.3375
X4.9975Y-2.7025
X5.025Y-2.3725
X5.0776Y-2.785
X5.105Y-2.03
X5.1525Y-1.645
X5.16Y-1.8225
X5.2Y-2.6775
X5.26Y-1.8375
X5.2625Y-2.14
X5.27Y-3.2075
X5.2789Y-2.3932
X5.41Y-1.5053
X5.4386Y-2.8855
X5.505Y-1.275
X5.55Y-1.6125
X5.602Y-2.868
X5.6565Y-2.0526
X5.675Y-1.76
X5.705Y-2.5659
X5.73Y-3.195
X5.7425Y-2.43
X5.76Y-3.0545
X5.8Y-2.92
X5.8291Y-3.024
X5.8621Y-2.0969
X5.87Y-1.4904
X5.8968Y-3.0912
X5.8975Y-2.8375
X5.96Y-3.0846
X6.045Y-2.87
X6.0475Y-1.875
X6.0825Y-2.3275
X6.0987Y-3.0451
X6.15Y-2.2075
X6.2124Y-2.4144
X6.2475Y-3.1675
X6.2483Y-2.7775
X6.275Y-1.495
X6.275Y-1.6026
X6.3275Y-1.7425
X6.3275Y-1.7425
X6.4175Y-2.6475
X6.42Y-2.155
X6.4475Y-1.6225
X6.4525Y-2.315
X6.465Y-2.19
X6.475Y-1.3596
X6.475Y-1.4404
X6.485Y-2.1275
X6.6057Y-1.79
X6.61Y-1.978
X6.7975Y-3.03
X6.8195Y-1.6702
X6.8375Y-2.155
X6.84Y-1.9591
X6.86Y-2.7925
X6.955Y-1.94
T3
X3.85Y-1.4
X3.85Y-1.5
X3.85Y-1.6
X3.85Y-1.7
X3.85Y-1.8
X3.85Y-1.9
X3.85Y-2.0
X3.85Y-2.1
X3.85Y-2.2
X3.85Y-2.3
X3.85Y-2.4
X3.85Y-2.5
X3.85Y-2.6
X3.85Y-2.7
X3.85Y-2.8
X3.85Y-2.9
X3.85Y-3.0
X3.85Y-3.1
X3.925Y-1.25
X3.925Y-1.35
X3.925Y-3.15
X3.925Y-3.25
X4.025Y-1.25
X4.025Y-1.35
X4.025Y-3.15
X4.025Y-3.25
X4.575Y-1.225
X4.675Y-1.225
X4.775Y-1.225
X6.875Y-1.25
X6.875Y-1.35
X6.875Y-3.15
X6.875Y-3.25
X6.975Y-1.25
X6.975Y-1.35
X6.975Y-3.15
X6.975Y-3.25
X7.05Y-1.4
X7.05Y-1.5
X7.05Y-1.6
X7.05Y-1.7
X7.05Y-1.8
X7.05Y-1.9
X7.05Y-2.0
X7.05Y-2.1
X7.05Y-2.2
X7.05Y-2.3
X7.05Y-2.4
X7.05Y-2.5
X7.05Y-2.6
X7.05Y-2.7
X7.05Y-2.8
X7.05Y-2.9
X7.05Y-3.0
X7.05Y-3.1
T4
X5.3884Y-1.4
X5.5616Y-1.4
T0
M30
