%TF.GenerationSoftware,KiCad,Pcbnew,(6.0.6-0)*%
%TF.CreationDate,2022-07-26T08:46:40-07:00*%
%TF.ProjectId,BreadControlV3,42726561-6443-46f6-9e74-726f6c56332e,rev?*%
%TF.SameCoordinates,Original*%
%TF.FileFunction,Soldermask,Top*%
%TF.FilePolarity,Negative*%
%FSLAX46Y46*%
G04 Gerber Fmt 4.6, Leading zero omitted, Abs format (unit mm)*
G04 Created by KiCad (PCBNEW (6.0.6-0)) date 2022-07-26 08:46:40*
%MOMM*%
%LPD*%
G01*
G04 APERTURE LIST*
G04 Aperture macros list*
%AMRoundRect*
0 Rectangle with rounded corners*
0 $1 Rounding radius*
0 $2 $3 $4 $5 $6 $7 $8 $9 X,Y pos of 4 corners*
0 Add a 4 corners polygon primitive as box body*
4,1,4,$2,$3,$4,$5,$6,$7,$8,$9,$2,$3,0*
0 Add four circle primitives for the rounded corners*
1,1,$1+$1,$2,$3*
1,1,$1+$1,$4,$5*
1,1,$1+$1,$6,$7*
1,1,$1+$1,$8,$9*
0 Add four rect primitives between the rounded corners*
20,1,$1+$1,$2,$3,$4,$5,0*
20,1,$1+$1,$4,$5,$6,$7,0*
20,1,$1+$1,$6,$7,$8,$9,0*
20,1,$1+$1,$8,$9,$2,$3,0*%
G04 Aperture macros list end*
%ADD10C,0.250000*%
%ADD11C,2.000000*%
%ADD12RoundRect,0.250000X0.450000X-0.325000X0.450000X0.325000X-0.450000X0.325000X-0.450000X-0.325000X0*%
%ADD13RoundRect,0.250000X-0.925000X0.875000X-0.925000X-0.875000X0.925000X-0.875000X0.925000X0.875000X0*%
%ADD14RoundRect,0.250000X-0.450000X0.350000X-0.450000X-0.350000X0.450000X-0.350000X0.450000X0.350000X0*%
%ADD15R,0.400000X1.200000*%
%ADD16RoundRect,0.250000X0.450000X-0.350000X0.450000X0.350000X-0.450000X0.350000X-0.450000X-0.350000X0*%
%ADD17RoundRect,0.250000X-0.412500X-0.650000X0.412500X-0.650000X0.412500X0.650000X-0.412500X0.650000X0*%
%ADD18RoundRect,0.150000X-0.875000X-0.150000X0.875000X-0.150000X0.875000X0.150000X-0.875000X0.150000X0*%
%ADD19RoundRect,0.250000X-0.350000X-0.450000X0.350000X-0.450000X0.350000X0.450000X-0.350000X0.450000X0*%
%ADD20RoundRect,0.150000X-0.150000X0.825000X-0.150000X-0.825000X0.150000X-0.825000X0.150000X0.825000X0*%
%ADD21RoundRect,0.700000X0.000000X-0.150000X0.000000X-0.150000X0.000000X0.150000X0.000000X0.150000X0*%
%ADD22R,1.700000X1.700000*%
%ADD23O,1.700000X1.700000*%
%ADD24RoundRect,0.062500X0.350000X0.062500X-0.350000X0.062500X-0.350000X-0.062500X0.350000X-0.062500X0*%
%ADD25RoundRect,0.062500X0.062500X0.350000X-0.062500X0.350000X-0.062500X-0.350000X0.062500X-0.350000X0*%
%ADD26R,7.150000X7.150000*%
%ADD27RoundRect,0.250000X0.412500X0.650000X-0.412500X0.650000X-0.412500X-0.650000X0.412500X-0.650000X0*%
%ADD28RoundRect,0.250000X0.350000X0.450000X-0.350000X0.450000X-0.350000X-0.450000X0.350000X-0.450000X0*%
%ADD29C,0.900000*%
%ADD30R,0.500000X2.500000*%
%ADD31R,2.000000X2.500000*%
%ADD32C,1.600200*%
%ADD33R,0.558800X2.108200*%
%ADD34RoundRect,0.250000X0.475000X-0.337500X0.475000X0.337500X-0.475000X0.337500X-0.475000X-0.337500X0*%
%ADD35RoundRect,0.250000X-0.475000X0.337500X-0.475000X-0.337500X0.475000X-0.337500X0.475000X0.337500X0*%
%ADD36R,0.900000X1.200000*%
%ADD37RoundRect,0.150000X0.150000X-0.587500X0.150000X0.587500X-0.150000X0.587500X-0.150000X-0.587500X0*%
%ADD38R,1.400000X0.300000*%
%ADD39RoundRect,0.150000X-0.150000X-0.700000X0.150000X-0.700000X0.150000X0.700000X-0.150000X0.700000X0*%
%ADD40RoundRect,0.150000X-0.700000X-0.150000X0.700000X-0.150000X0.700000X0.150000X-0.700000X0.150000X0*%
%ADD41R,1.550000X1.300000*%
%ADD42RoundRect,0.100000X0.637500X0.100000X-0.637500X0.100000X-0.637500X-0.100000X0.637500X-0.100000X0*%
%ADD43RoundRect,0.250000X0.337500X0.475000X-0.337500X0.475000X-0.337500X-0.475000X0.337500X-0.475000X0*%
%ADD44RoundRect,0.150000X-0.825000X-0.150000X0.825000X-0.150000X0.825000X0.150000X-0.825000X0.150000X0*%
G04 APERTURE END LIST*
D10*
X58067657Y-27317114D02*
X58067657Y-28031400D01*
X58639085Y-28102828D01*
X58581942Y-28031400D01*
X58524800Y-27888542D01*
X58524800Y-27531400D01*
X58581942Y-27388542D01*
X58639085Y-27317114D01*
X58753371Y-27245685D01*
X59039085Y-27245685D01*
X59153371Y-27317114D01*
X59210514Y-27388542D01*
X59267657Y-27531400D01*
X59267657Y-27888542D01*
X59210514Y-28031400D01*
X59153371Y-28102828D01*
X58067657Y-26817114D02*
X59267657Y-26317114D01*
X58067657Y-25817114D01*
D11*
X106000000Y-29250000D03*
X61750000Y-63500000D03*
X35000000Y-29250000D03*
D12*
X82550000Y-28076000D03*
X82550000Y-26026000D03*
D13*
X35560000Y-71110000D03*
X35560000Y-76210000D03*
D14*
X93980000Y-75200000D03*
X93980000Y-77200000D03*
D15*
X78803500Y-38548000D03*
X78168500Y-38548000D03*
X77533500Y-38548000D03*
X76898500Y-38548000D03*
X76263500Y-38548000D03*
X75628500Y-38548000D03*
X74993500Y-38548000D03*
X74358500Y-38548000D03*
X73723500Y-38548000D03*
X73088500Y-38548000D03*
X73088500Y-43748000D03*
X73723500Y-43748000D03*
X74358500Y-43748000D03*
X74993500Y-43748000D03*
X75628500Y-43748000D03*
X76263500Y-43748000D03*
X76898500Y-43748000D03*
X77533500Y-43748000D03*
X78168500Y-43748000D03*
X78803500Y-43748000D03*
D16*
X91440000Y-72120000D03*
X91440000Y-70120000D03*
X87630000Y-29337000D03*
X87630000Y-27337000D03*
X89535000Y-29337000D03*
X89535000Y-27337000D03*
D17*
X55587500Y-71120000D03*
X58712500Y-71120000D03*
D18*
X62533000Y-66675000D03*
X62533000Y-67945000D03*
X62533000Y-69215000D03*
X62533000Y-70485000D03*
X62533000Y-71755000D03*
X62533000Y-73025000D03*
X62533000Y-74295000D03*
X62533000Y-75565000D03*
X71833000Y-75565000D03*
X71833000Y-74295000D03*
X71833000Y-73025000D03*
X71833000Y-71755000D03*
X71833000Y-70485000D03*
X71833000Y-69215000D03*
X71833000Y-67945000D03*
X71833000Y-66675000D03*
D13*
X45720000Y-71110000D03*
X45720000Y-76210000D03*
D19*
X94123000Y-39370000D03*
X96123000Y-39370000D03*
D20*
X90424000Y-35244000D03*
X89154000Y-35244000D03*
X87884000Y-35244000D03*
X86614000Y-35244000D03*
X85344000Y-35244000D03*
X84074000Y-35244000D03*
X82804000Y-35244000D03*
X82804000Y-40194000D03*
X84074000Y-40194000D03*
X85344000Y-40194000D03*
X86614000Y-40194000D03*
X87884000Y-40194000D03*
X89154000Y-40194000D03*
X90424000Y-40194000D03*
D21*
X109855000Y-26692000D03*
X109855000Y-29232000D03*
X109855000Y-31772000D03*
X109855000Y-34312000D03*
X109855000Y-36852000D03*
X109855000Y-39392000D03*
X109855000Y-41932000D03*
X109855000Y-44472000D03*
X109855000Y-47012000D03*
X109855000Y-49552000D03*
X109855000Y-52092000D03*
X109855000Y-54632000D03*
X109855000Y-57172000D03*
X109855000Y-59712000D03*
X109855000Y-62252000D03*
X109855000Y-64792000D03*
X109855000Y-67332000D03*
X109855000Y-69872000D03*
X109855000Y-72412000D03*
X109855000Y-74952000D03*
X109855000Y-77492000D03*
D22*
X96540000Y-27280000D03*
D23*
X99080000Y-27280000D03*
D24*
X73652500Y-55820000D03*
X73652500Y-55320000D03*
X73652500Y-54820000D03*
X73652500Y-54320000D03*
X73652500Y-53820000D03*
X73652500Y-53320000D03*
X73652500Y-52820000D03*
X73652500Y-52320000D03*
X73652500Y-51820000D03*
X73652500Y-51320000D03*
X73652500Y-50820000D03*
X73652500Y-50320000D03*
X73652500Y-49820000D03*
X73652500Y-49320000D03*
X73652500Y-48820000D03*
X73652500Y-48320000D03*
D25*
X72965000Y-47632500D03*
X72465000Y-47632500D03*
X71965000Y-47632500D03*
X71465000Y-47632500D03*
X70965000Y-47632500D03*
X70465000Y-47632500D03*
X69965000Y-47632500D03*
X69465000Y-47632500D03*
X68965000Y-47632500D03*
X68465000Y-47632500D03*
X67965000Y-47632500D03*
X67465000Y-47632500D03*
X66965000Y-47632500D03*
X66465000Y-47632500D03*
X65965000Y-47632500D03*
X65465000Y-47632500D03*
D24*
X64777500Y-48320000D03*
X64777500Y-48820000D03*
X64777500Y-49320000D03*
X64777500Y-49820000D03*
X64777500Y-50320000D03*
X64777500Y-50820000D03*
X64777500Y-51320000D03*
X64777500Y-51820000D03*
X64777500Y-52320000D03*
X64777500Y-52820000D03*
X64777500Y-53320000D03*
X64777500Y-53820000D03*
X64777500Y-54320000D03*
X64777500Y-54820000D03*
X64777500Y-55320000D03*
X64777500Y-55820000D03*
D25*
X65465000Y-56507500D03*
X65965000Y-56507500D03*
X66465000Y-56507500D03*
X66965000Y-56507500D03*
X67465000Y-56507500D03*
X67965000Y-56507500D03*
X68465000Y-56507500D03*
X68965000Y-56507500D03*
X69465000Y-56507500D03*
X69965000Y-56507500D03*
X70465000Y-56507500D03*
X70965000Y-56507500D03*
X71465000Y-56507500D03*
X71965000Y-56507500D03*
X72465000Y-56507500D03*
X72965000Y-56507500D03*
D26*
X69215000Y-52070000D03*
D27*
X58712500Y-67310000D03*
X55587500Y-67310000D03*
D28*
X41005000Y-38354000D03*
X39005000Y-38354000D03*
D29*
X67015000Y-30480000D03*
X71415000Y-30480000D03*
D30*
X70815000Y-33080000D03*
X70015000Y-33080000D03*
X69215000Y-33080000D03*
X68415000Y-33080000D03*
X67615000Y-33080000D03*
D31*
X73615000Y-33080000D03*
X64815000Y-33080000D03*
X64815000Y-27580000D03*
X73615000Y-27580000D03*
D14*
X68045000Y-39856672D03*
X68045000Y-41856672D03*
D32*
X61315000Y-52074699D03*
X51715000Y-52074699D03*
D33*
X52715003Y-47974700D03*
X53515001Y-47974700D03*
X54315002Y-47974700D03*
X55115003Y-47974700D03*
X55915001Y-47974700D03*
X56715002Y-47974700D03*
X57515001Y-47974700D03*
X58315001Y-47974700D03*
X59115000Y-47974700D03*
X59915001Y-47974700D03*
X53114956Y-56174701D03*
X53914957Y-56174701D03*
X54714955Y-56174701D03*
X55514956Y-56174701D03*
X56314955Y-56174701D03*
X57114956Y-56174701D03*
X57914957Y-56174701D03*
X58714955Y-56174701D03*
X59514956Y-56174701D03*
X60314954Y-56174701D03*
D16*
X81661000Y-61960000D03*
X81661000Y-59960000D03*
D34*
X69977000Y-62378500D03*
X69977000Y-60303500D03*
D14*
X88900000Y-75200000D03*
X88900000Y-77200000D03*
D19*
X97933000Y-39370000D03*
X99933000Y-39370000D03*
D22*
X58674000Y-35515000D03*
D23*
X56134000Y-35515000D03*
X53594000Y-35515000D03*
D22*
X34925000Y-35560000D03*
D23*
X32385000Y-35560000D03*
D35*
X63373000Y-41253500D03*
X63373000Y-43328500D03*
D21*
X28597000Y-26692000D03*
X28597000Y-29232000D03*
X28597000Y-31772000D03*
X28597000Y-34312000D03*
X28597000Y-36852000D03*
X28597000Y-39392000D03*
X28597000Y-41932000D03*
X28597000Y-44472000D03*
X28597000Y-47012000D03*
X28597000Y-49552000D03*
X28597000Y-52092000D03*
X28597000Y-54632000D03*
X28597000Y-57172000D03*
X28597000Y-59712000D03*
X28597000Y-62252000D03*
X28597000Y-64792000D03*
X28597000Y-67332000D03*
X28597000Y-69872000D03*
X28597000Y-72412000D03*
X28597000Y-74952000D03*
X28597000Y-77492000D03*
D12*
X78740000Y-28076000D03*
X78740000Y-26026000D03*
D36*
X49150000Y-74930000D03*
X52450000Y-74930000D03*
X42800000Y-67310000D03*
X46100000Y-67310000D03*
D37*
X97983000Y-36497500D03*
X99883000Y-36497500D03*
X98933000Y-34622500D03*
D38*
X89240000Y-65040000D03*
X89240000Y-65540000D03*
X89240000Y-66040000D03*
X89240000Y-66540000D03*
X89240000Y-67040000D03*
X93640000Y-67040000D03*
X93640000Y-66540000D03*
X93640000Y-66040000D03*
X93640000Y-65540000D03*
X93640000Y-65040000D03*
D39*
X98552000Y-44070000D03*
X97282000Y-44070000D03*
X96012000Y-44070000D03*
X94742000Y-44070000D03*
X93472000Y-44070000D03*
X92202000Y-44070000D03*
D40*
X90552000Y-45720000D03*
X90552000Y-46990000D03*
X90552000Y-48260000D03*
X90552000Y-49530000D03*
X90552000Y-50800000D03*
X90552000Y-52070000D03*
X90552000Y-53340000D03*
X90552000Y-54610000D03*
X90552000Y-55880000D03*
X90552000Y-57150000D03*
X90552000Y-58420000D03*
D39*
X92202000Y-60070000D03*
X93472000Y-60070000D03*
X94742000Y-60070000D03*
X96012000Y-60070000D03*
X97282000Y-60070000D03*
X98552000Y-60070000D03*
X99822000Y-60070000D03*
X101092000Y-60070000D03*
X102362000Y-60070000D03*
X103632000Y-60070000D03*
X104902000Y-60070000D03*
D40*
X106552000Y-58420000D03*
X106552000Y-57150000D03*
X106552000Y-55880000D03*
X106552000Y-54610000D03*
X106552000Y-53340000D03*
X106552000Y-52070000D03*
X106552000Y-50800000D03*
X106552000Y-49530000D03*
X106552000Y-48260000D03*
X106552000Y-46990000D03*
X106552000Y-45720000D03*
D39*
X104902000Y-44070000D03*
X103632000Y-44070000D03*
X102362000Y-44070000D03*
X101092000Y-44070000D03*
X99822000Y-44070000D03*
D13*
X40640000Y-71110000D03*
X40640000Y-76210000D03*
D41*
X47795000Y-26096400D03*
X39835000Y-26096400D03*
X47795000Y-30596400D03*
X39835000Y-30596400D03*
D36*
X36450000Y-67310000D03*
X39750000Y-67310000D03*
D28*
X41005000Y-36245800D03*
X39005000Y-36245800D03*
D36*
X49150000Y-71120000D03*
X52450000Y-71120000D03*
D14*
X69823000Y-39878404D03*
X69823000Y-41878404D03*
X91440000Y-75200000D03*
X91440000Y-77200000D03*
D34*
X72517000Y-62378500D03*
X72517000Y-60303500D03*
D42*
X50360500Y-40431000D03*
X50360500Y-39781000D03*
X50360500Y-39131000D03*
X50360500Y-38481000D03*
X50360500Y-37831000D03*
X50360500Y-37181000D03*
X50360500Y-36531000D03*
X44635500Y-36531000D03*
X44635500Y-37181000D03*
X44635500Y-37831000D03*
X44635500Y-38481000D03*
X44635500Y-39131000D03*
X44635500Y-39781000D03*
X44635500Y-40431000D03*
D27*
X52362500Y-67310000D03*
X49237500Y-67310000D03*
D16*
X91440000Y-29337000D03*
X91440000Y-27337000D03*
D34*
X75057000Y-62378500D03*
X75057000Y-60303500D03*
D22*
X106045000Y-35560000D03*
D23*
X103505000Y-35560000D03*
D34*
X54737000Y-43328500D03*
X54737000Y-41253500D03*
X78740000Y-32787500D03*
X78740000Y-30712500D03*
D43*
X35835500Y-40386000D03*
X33760500Y-40386000D03*
D37*
X94173000Y-36497500D03*
X96073000Y-36497500D03*
X95123000Y-34622500D03*
D16*
X93980000Y-72120000D03*
X93980000Y-70120000D03*
D44*
X97855000Y-66675000D03*
X97855000Y-67945000D03*
X97855000Y-69215000D03*
X97855000Y-70485000D03*
X97855000Y-71755000D03*
X97855000Y-73025000D03*
X97855000Y-74295000D03*
X97855000Y-75565000D03*
X102805000Y-75565000D03*
X102805000Y-74295000D03*
X102805000Y-73025000D03*
X102805000Y-71755000D03*
X102805000Y-70485000D03*
X102805000Y-69215000D03*
X102805000Y-67945000D03*
X102805000Y-66675000D03*
D14*
X88900000Y-70120000D03*
X88900000Y-72120000D03*
D36*
X55500000Y-74930000D03*
X58800000Y-74930000D03*
D39*
X39878000Y-44070000D03*
X38608000Y-44070000D03*
X37338000Y-44070000D03*
X36068000Y-44070000D03*
X34798000Y-44070000D03*
X33528000Y-44070000D03*
D40*
X31878000Y-45720000D03*
X31878000Y-46990000D03*
X31878000Y-48260000D03*
X31878000Y-49530000D03*
X31878000Y-50800000D03*
X31878000Y-52070000D03*
X31878000Y-53340000D03*
X31878000Y-54610000D03*
X31878000Y-55880000D03*
X31878000Y-57150000D03*
X31878000Y-58420000D03*
D39*
X33528000Y-60070000D03*
X34798000Y-60070000D03*
X36068000Y-60070000D03*
X37338000Y-60070000D03*
X38608000Y-60070000D03*
X39878000Y-60070000D03*
X41148000Y-60070000D03*
X42418000Y-60070000D03*
X43688000Y-60070000D03*
X44958000Y-60070000D03*
X46228000Y-60070000D03*
D40*
X47878000Y-58420000D03*
X47878000Y-57150000D03*
X47878000Y-55880000D03*
X47878000Y-54610000D03*
X47878000Y-53340000D03*
X47878000Y-52070000D03*
X47878000Y-50800000D03*
X47878000Y-49530000D03*
X47878000Y-48260000D03*
X47878000Y-46990000D03*
X47878000Y-45720000D03*
D39*
X46228000Y-44070000D03*
X44958000Y-44070000D03*
X43688000Y-44070000D03*
X42418000Y-44070000D03*
X41148000Y-44070000D03*
D12*
X84455000Y-28076000D03*
X84455000Y-26026000D03*
D32*
X77115000Y-52065301D03*
X86715000Y-52065301D03*
D33*
X78514999Y-56165300D03*
X79315000Y-56165300D03*
X80114999Y-56165300D03*
X80914999Y-56165300D03*
X81714998Y-56165300D03*
X82514999Y-56165300D03*
X83314997Y-56165300D03*
X84114998Y-56165300D03*
X84914999Y-56165300D03*
X85714997Y-56165300D03*
X85315044Y-47965299D03*
X84515043Y-47965299D03*
X83715045Y-47965299D03*
X82915044Y-47965299D03*
X82115045Y-47965299D03*
X81315044Y-47965299D03*
X80515043Y-47965299D03*
X79715045Y-47965299D03*
X78915044Y-47965299D03*
X78115046Y-47965299D03*
D44*
X80075000Y-66675000D03*
X80075000Y-67945000D03*
X80075000Y-69215000D03*
X80075000Y-70485000D03*
X80075000Y-71755000D03*
X80075000Y-73025000D03*
X80075000Y-74295000D03*
X80075000Y-75565000D03*
X85025000Y-75565000D03*
X85025000Y-74295000D03*
X85025000Y-73025000D03*
X85025000Y-71755000D03*
X85025000Y-70485000D03*
X85025000Y-69215000D03*
X85025000Y-67945000D03*
X85025000Y-66675000D03*
D16*
X79121000Y-61960000D03*
X79121000Y-59960000D03*
M02*
