%TF.GenerationSoftware,KiCad,Pcbnew,(5.1.9-0-10_14)*%
%TF.CreationDate,2021-04-15T22:22:18+08:00*%
%TF.ProjectId,MTMatrixRoundedAgain,4d544d61-7472-4697-9852-6f756e646564,rev?*%
%TF.SameCoordinates,Original*%
%TF.FileFunction,Soldermask,Top*%
%TF.FilePolarity,Negative*%
%FSLAX46Y46*%
G04 Gerber Fmt 4.6, Leading zero omitted, Abs format (unit mm)*
G04 Created by KiCad (PCBNEW (5.1.9-0-10_14)) date 2021-04-15 22:22:18*
%MOMM*%
%LPD*%
G01*
G04 APERTURE LIST*
%ADD10O,1.500000X1.500000*%
%ADD11O,1.800000X2.400000*%
G04 APERTURE END LIST*
D10*
%TO.C,J2*%
X149778059Y-93513959D03*
X149778059Y-90973959D03*
X149778059Y-88433959D03*
X149778059Y-85893959D03*
X149778059Y-83353959D03*
X149778059Y-80813959D03*
X149778059Y-78273959D03*
X149778059Y-75733959D03*
X149778059Y-73193959D03*
X149778059Y-70653959D03*
X149778059Y-68113959D03*
X149778059Y-65573959D03*
X149778059Y-63033959D03*
X149778059Y-60493959D03*
X149778059Y-57953959D03*
X149778059Y-55413959D03*
X149778059Y-52873959D03*
G36*
G01*
X149028059Y-50708959D02*
X149028059Y-49958959D01*
G75*
G02*
X149403059Y-49583959I375000J0D01*
G01*
X150153059Y-49583959D01*
G75*
G02*
X150528059Y-49958959I0J-375000D01*
G01*
X150528059Y-50708959D01*
G75*
G02*
X150153059Y-51083959I-375000J0D01*
G01*
X149403059Y-51083959D01*
G75*
G02*
X149028059Y-50708959I0J375000D01*
G01*
G37*
%TD*%
%TO.C,J1*%
G36*
G01*
X67748059Y-50708959D02*
X67748059Y-49958959D01*
G75*
G02*
X68123059Y-49583959I375000J0D01*
G01*
X68873059Y-49583959D01*
G75*
G02*
X69248059Y-49958959I0J-375000D01*
G01*
X69248059Y-50708959D01*
G75*
G02*
X68873059Y-51083959I-375000J0D01*
G01*
X68123059Y-51083959D01*
G75*
G02*
X67748059Y-50708959I0J375000D01*
G01*
G37*
X68498059Y-52873959D03*
X68498059Y-55413959D03*
X68498059Y-57953959D03*
X68498059Y-60493959D03*
X68498059Y-63033959D03*
X68498059Y-65573959D03*
X68498059Y-68113959D03*
X68498059Y-70653959D03*
X68498059Y-73193959D03*
X68498059Y-75733959D03*
X68498059Y-78273959D03*
X68498059Y-80813959D03*
X68498059Y-83353959D03*
X68498059Y-85893959D03*
X68498059Y-88433959D03*
X68498059Y-90973959D03*
X68498059Y-93513959D03*
%TD*%
%TO.C,J3*%
G36*
G01*
X145468059Y-69456959D02*
X145468059Y-69056959D01*
G75*
G02*
X145768059Y-68756959I300000J0D01*
G01*
X146168059Y-68756959D01*
G75*
G02*
X146468059Y-69056959I0J-300000D01*
G01*
X146468059Y-69456959D01*
G75*
G02*
X146168059Y-69756959I-300000J0D01*
G01*
X145768059Y-69756959D01*
G75*
G02*
X145468059Y-69456959I0J300000D01*
G01*
G37*
G36*
G01*
X142928059Y-69456959D02*
X142928059Y-69056959D01*
G75*
G02*
X143228059Y-68756959I300000J0D01*
G01*
X143628059Y-68756959D01*
G75*
G02*
X143928059Y-69056959I0J-300000D01*
G01*
X143928059Y-69456959D01*
G75*
G02*
X143628059Y-69756959I-300000J0D01*
G01*
X143228059Y-69756959D01*
G75*
G02*
X142928059Y-69456959I0J300000D01*
G01*
G37*
G36*
G01*
X140388059Y-69456959D02*
X140388059Y-69056959D01*
G75*
G02*
X140688059Y-68756959I300000J0D01*
G01*
X141088059Y-68756959D01*
G75*
G02*
X141388059Y-69056959I0J-300000D01*
G01*
X141388059Y-69456959D01*
G75*
G02*
X141088059Y-69756959I-300000J0D01*
G01*
X140688059Y-69756959D01*
G75*
G02*
X140388059Y-69456959I0J300000D01*
G01*
G37*
G36*
G01*
X137848059Y-69456959D02*
X137848059Y-69056959D01*
G75*
G02*
X138148059Y-68756959I300000J0D01*
G01*
X138548059Y-68756959D01*
G75*
G02*
X138848059Y-69056959I0J-300000D01*
G01*
X138848059Y-69456959D01*
G75*
G02*
X138548059Y-69756959I-300000J0D01*
G01*
X138148059Y-69756959D01*
G75*
G02*
X137848059Y-69456959I0J300000D01*
G01*
G37*
G36*
G01*
X135308059Y-69456959D02*
X135308059Y-69056959D01*
G75*
G02*
X135608059Y-68756959I300000J0D01*
G01*
X136008059Y-68756959D01*
G75*
G02*
X136308059Y-69056959I0J-300000D01*
G01*
X136308059Y-69456959D01*
G75*
G02*
X136008059Y-69756959I-300000J0D01*
G01*
X135608059Y-69756959D01*
G75*
G02*
X135308059Y-69456959I0J300000D01*
G01*
G37*
G36*
G01*
X132768059Y-69456959D02*
X132768059Y-69056959D01*
G75*
G02*
X133068059Y-68756959I300000J0D01*
G01*
X133468059Y-68756959D01*
G75*
G02*
X133768059Y-69056959I0J-300000D01*
G01*
X133768059Y-69456959D01*
G75*
G02*
X133468059Y-69756959I-300000J0D01*
G01*
X133068059Y-69756959D01*
G75*
G02*
X132768059Y-69456959I0J300000D01*
G01*
G37*
G36*
G01*
X130228059Y-69456959D02*
X130228059Y-69056959D01*
G75*
G02*
X130528059Y-68756959I300000J0D01*
G01*
X130928059Y-68756959D01*
G75*
G02*
X131228059Y-69056959I0J-300000D01*
G01*
X131228059Y-69456959D01*
G75*
G02*
X130928059Y-69756959I-300000J0D01*
G01*
X130528059Y-69756959D01*
G75*
G02*
X130228059Y-69456959I0J300000D01*
G01*
G37*
G36*
G01*
X127688059Y-69456959D02*
X127688059Y-69056959D01*
G75*
G02*
X127988059Y-68756959I300000J0D01*
G01*
X128388059Y-68756959D01*
G75*
G02*
X128688059Y-69056959I0J-300000D01*
G01*
X128688059Y-69456959D01*
G75*
G02*
X128388059Y-69756959I-300000J0D01*
G01*
X127988059Y-69756959D01*
G75*
G02*
X127688059Y-69456959I0J300000D01*
G01*
G37*
G36*
G01*
X125148059Y-69456959D02*
X125148059Y-69056959D01*
G75*
G02*
X125448059Y-68756959I300000J0D01*
G01*
X125848059Y-68756959D01*
G75*
G02*
X126148059Y-69056959I0J-300000D01*
G01*
X126148059Y-69456959D01*
G75*
G02*
X125848059Y-69756959I-300000J0D01*
G01*
X125448059Y-69756959D01*
G75*
G02*
X125148059Y-69456959I0J300000D01*
G01*
G37*
G36*
G01*
X122608059Y-69456959D02*
X122608059Y-69056959D01*
G75*
G02*
X122908059Y-68756959I300000J0D01*
G01*
X123308059Y-68756959D01*
G75*
G02*
X123608059Y-69056959I0J-300000D01*
G01*
X123608059Y-69456959D01*
G75*
G02*
X123308059Y-69756959I-300000J0D01*
G01*
X122908059Y-69756959D01*
G75*
G02*
X122608059Y-69456959I0J300000D01*
G01*
G37*
G36*
G01*
X120068059Y-69456959D02*
X120068059Y-69056959D01*
G75*
G02*
X120368059Y-68756959I300000J0D01*
G01*
X120768059Y-68756959D01*
G75*
G02*
X121068059Y-69056959I0J-300000D01*
G01*
X121068059Y-69456959D01*
G75*
G02*
X120768059Y-69756959I-300000J0D01*
G01*
X120368059Y-69756959D01*
G75*
G02*
X120068059Y-69456959I0J300000D01*
G01*
G37*
G36*
G01*
X117528059Y-69456959D02*
X117528059Y-69056959D01*
G75*
G02*
X117828059Y-68756959I300000J0D01*
G01*
X118228059Y-68756959D01*
G75*
G02*
X118528059Y-69056959I0J-300000D01*
G01*
X118528059Y-69456959D01*
G75*
G02*
X118228059Y-69756959I-300000J0D01*
G01*
X117828059Y-69756959D01*
G75*
G02*
X117528059Y-69456959I0J300000D01*
G01*
G37*
G36*
G01*
X114988059Y-69456959D02*
X114988059Y-69056959D01*
G75*
G02*
X115288059Y-68756959I300000J0D01*
G01*
X115688059Y-68756959D01*
G75*
G02*
X115988059Y-69056959I0J-300000D01*
G01*
X115988059Y-69456959D01*
G75*
G02*
X115688059Y-69756959I-300000J0D01*
G01*
X115288059Y-69756959D01*
G75*
G02*
X114988059Y-69456959I0J300000D01*
G01*
G37*
G36*
G01*
X112448059Y-69456959D02*
X112448059Y-69056959D01*
G75*
G02*
X112748059Y-68756959I300000J0D01*
G01*
X113148059Y-68756959D01*
G75*
G02*
X113448059Y-69056959I0J-300000D01*
G01*
X113448059Y-69456959D01*
G75*
G02*
X113148059Y-69756959I-300000J0D01*
G01*
X112748059Y-69756959D01*
G75*
G02*
X112448059Y-69456959I0J300000D01*
G01*
G37*
G36*
G01*
X109908059Y-69456959D02*
X109908059Y-69056959D01*
G75*
G02*
X110208059Y-68756959I300000J0D01*
G01*
X110608059Y-68756959D01*
G75*
G02*
X110908059Y-69056959I0J-300000D01*
G01*
X110908059Y-69456959D01*
G75*
G02*
X110608059Y-69756959I-300000J0D01*
G01*
X110208059Y-69756959D01*
G75*
G02*
X109908059Y-69456959I0J300000D01*
G01*
G37*
G36*
G01*
X107368059Y-69456959D02*
X107368059Y-69056959D01*
G75*
G02*
X107668059Y-68756959I300000J0D01*
G01*
X108068059Y-68756959D01*
G75*
G02*
X108368059Y-69056959I0J-300000D01*
G01*
X108368059Y-69456959D01*
G75*
G02*
X108068059Y-69756959I-300000J0D01*
G01*
X107668059Y-69756959D01*
G75*
G02*
X107368059Y-69456959I0J300000D01*
G01*
G37*
G36*
G01*
X104828059Y-69456959D02*
X104828059Y-69056959D01*
G75*
G02*
X105128059Y-68756959I300000J0D01*
G01*
X105528059Y-68756959D01*
G75*
G02*
X105828059Y-69056959I0J-300000D01*
G01*
X105828059Y-69456959D01*
G75*
G02*
X105528059Y-69756959I-300000J0D01*
G01*
X105128059Y-69756959D01*
G75*
G02*
X104828059Y-69456959I0J300000D01*
G01*
G37*
G36*
G01*
X102288059Y-69456959D02*
X102288059Y-69056959D01*
G75*
G02*
X102588059Y-68756959I300000J0D01*
G01*
X102988059Y-68756959D01*
G75*
G02*
X103288059Y-69056959I0J-300000D01*
G01*
X103288059Y-69456959D01*
G75*
G02*
X102988059Y-69756959I-300000J0D01*
G01*
X102588059Y-69756959D01*
G75*
G02*
X102288059Y-69456959I0J300000D01*
G01*
G37*
G36*
G01*
X99748059Y-69456959D02*
X99748059Y-69056959D01*
G75*
G02*
X100048059Y-68756959I300000J0D01*
G01*
X100448059Y-68756959D01*
G75*
G02*
X100748059Y-69056959I0J-300000D01*
G01*
X100748059Y-69456959D01*
G75*
G02*
X100448059Y-69756959I-300000J0D01*
G01*
X100048059Y-69756959D01*
G75*
G02*
X99748059Y-69456959I0J300000D01*
G01*
G37*
G36*
G01*
X97208059Y-69456959D02*
X97208059Y-69056959D01*
G75*
G02*
X97508059Y-68756959I300000J0D01*
G01*
X97908059Y-68756959D01*
G75*
G02*
X98208059Y-69056959I0J-300000D01*
G01*
X98208059Y-69456959D01*
G75*
G02*
X97908059Y-69756959I-300000J0D01*
G01*
X97508059Y-69756959D01*
G75*
G02*
X97208059Y-69456959I0J300000D01*
G01*
G37*
G36*
G01*
X94668059Y-69456959D02*
X94668059Y-69056959D01*
G75*
G02*
X94968059Y-68756959I300000J0D01*
G01*
X95368059Y-68756959D01*
G75*
G02*
X95668059Y-69056959I0J-300000D01*
G01*
X95668059Y-69456959D01*
G75*
G02*
X95368059Y-69756959I-300000J0D01*
G01*
X94968059Y-69756959D01*
G75*
G02*
X94668059Y-69456959I0J300000D01*
G01*
G37*
G36*
G01*
X92128059Y-69456959D02*
X92128059Y-69056959D01*
G75*
G02*
X92428059Y-68756959I300000J0D01*
G01*
X92828059Y-68756959D01*
G75*
G02*
X93128059Y-69056959I0J-300000D01*
G01*
X93128059Y-69456959D01*
G75*
G02*
X92828059Y-69756959I-300000J0D01*
G01*
X92428059Y-69756959D01*
G75*
G02*
X92128059Y-69456959I0J300000D01*
G01*
G37*
G36*
G01*
X89588059Y-69456959D02*
X89588059Y-69056959D01*
G75*
G02*
X89888059Y-68756959I300000J0D01*
G01*
X90288059Y-68756959D01*
G75*
G02*
X90588059Y-69056959I0J-300000D01*
G01*
X90588059Y-69456959D01*
G75*
G02*
X90288059Y-69756959I-300000J0D01*
G01*
X89888059Y-69756959D01*
G75*
G02*
X89588059Y-69456959I0J300000D01*
G01*
G37*
G36*
G01*
X87048059Y-69456959D02*
X87048059Y-69056959D01*
G75*
G02*
X87348059Y-68756959I300000J0D01*
G01*
X87748059Y-68756959D01*
G75*
G02*
X88048059Y-69056959I0J-300000D01*
G01*
X88048059Y-69456959D01*
G75*
G02*
X87748059Y-69756959I-300000J0D01*
G01*
X87348059Y-69756959D01*
G75*
G02*
X87048059Y-69456959I0J300000D01*
G01*
G37*
G36*
G01*
X84508059Y-69456959D02*
X84508059Y-69056959D01*
G75*
G02*
X84808059Y-68756959I300000J0D01*
G01*
X85208059Y-68756959D01*
G75*
G02*
X85508059Y-69056959I0J-300000D01*
G01*
X85508059Y-69456959D01*
G75*
G02*
X85208059Y-69756959I-300000J0D01*
G01*
X84808059Y-69756959D01*
G75*
G02*
X84508059Y-69456959I0J300000D01*
G01*
G37*
G36*
G01*
X81968059Y-69456959D02*
X81968059Y-69056959D01*
G75*
G02*
X82268059Y-68756959I300000J0D01*
G01*
X82668059Y-68756959D01*
G75*
G02*
X82968059Y-69056959I0J-300000D01*
G01*
X82968059Y-69456959D01*
G75*
G02*
X82668059Y-69756959I-300000J0D01*
G01*
X82268059Y-69756959D01*
G75*
G02*
X81968059Y-69456959I0J300000D01*
G01*
G37*
G36*
G01*
X79428059Y-69456959D02*
X79428059Y-69056959D01*
G75*
G02*
X79728059Y-68756959I300000J0D01*
G01*
X80128059Y-68756959D01*
G75*
G02*
X80428059Y-69056959I0J-300000D01*
G01*
X80428059Y-69456959D01*
G75*
G02*
X80128059Y-69756959I-300000J0D01*
G01*
X79728059Y-69756959D01*
G75*
G02*
X79428059Y-69456959I0J300000D01*
G01*
G37*
G36*
G01*
X76888059Y-69456959D02*
X76888059Y-69056959D01*
G75*
G02*
X77188059Y-68756959I300000J0D01*
G01*
X77588059Y-68756959D01*
G75*
G02*
X77888059Y-69056959I0J-300000D01*
G01*
X77888059Y-69456959D01*
G75*
G02*
X77588059Y-69756959I-300000J0D01*
G01*
X77188059Y-69756959D01*
G75*
G02*
X76888059Y-69456959I0J300000D01*
G01*
G37*
G36*
G01*
X74348059Y-69456959D02*
X74348059Y-69056959D01*
G75*
G02*
X74648059Y-68756959I300000J0D01*
G01*
X75048059Y-68756959D01*
G75*
G02*
X75348059Y-69056959I0J-300000D01*
G01*
X75348059Y-69456959D01*
G75*
G02*
X75048059Y-69756959I-300000J0D01*
G01*
X74648059Y-69756959D01*
G75*
G02*
X74348059Y-69456959I0J300000D01*
G01*
G37*
G36*
G01*
X71808059Y-69456959D02*
X71808059Y-69056959D01*
G75*
G02*
X72108059Y-68756959I300000J0D01*
G01*
X72508059Y-68756959D01*
G75*
G02*
X72808059Y-69056959I0J-300000D01*
G01*
X72808059Y-69456959D01*
G75*
G02*
X72508059Y-69756959I-300000J0D01*
G01*
X72108059Y-69756959D01*
G75*
G02*
X71808059Y-69456959I0J300000D01*
G01*
G37*
G36*
G01*
X108638059Y-92697959D02*
X108638059Y-92297959D01*
G75*
G02*
X108938059Y-91997959I300000J0D01*
G01*
X109338059Y-91997959D01*
G75*
G02*
X109638059Y-92297959I0J-300000D01*
G01*
X109638059Y-92697959D01*
G75*
G02*
X109338059Y-92997959I-300000J0D01*
G01*
X108938059Y-92997959D01*
G75*
G02*
X108638059Y-92697959I0J300000D01*
G01*
G37*
G36*
G01*
X71808059Y-74790959D02*
X71808059Y-74390959D01*
G75*
G02*
X72108059Y-74090959I300000J0D01*
G01*
X72508059Y-74090959D01*
G75*
G02*
X72808059Y-74390959I0J-300000D01*
G01*
X72808059Y-74790959D01*
G75*
G02*
X72508059Y-75090959I-300000J0D01*
G01*
X72108059Y-75090959D01*
G75*
G02*
X71808059Y-74790959I0J300000D01*
G01*
G37*
G36*
G01*
X74348059Y-74790959D02*
X74348059Y-74390959D01*
G75*
G02*
X74648059Y-74090959I300000J0D01*
G01*
X75048059Y-74090959D01*
G75*
G02*
X75348059Y-74390959I0J-300000D01*
G01*
X75348059Y-74790959D01*
G75*
G02*
X75048059Y-75090959I-300000J0D01*
G01*
X74648059Y-75090959D01*
G75*
G02*
X74348059Y-74790959I0J300000D01*
G01*
G37*
G36*
G01*
X76888059Y-74790959D02*
X76888059Y-74390959D01*
G75*
G02*
X77188059Y-74090959I300000J0D01*
G01*
X77588059Y-74090959D01*
G75*
G02*
X77888059Y-74390959I0J-300000D01*
G01*
X77888059Y-74790959D01*
G75*
G02*
X77588059Y-75090959I-300000J0D01*
G01*
X77188059Y-75090959D01*
G75*
G02*
X76888059Y-74790959I0J300000D01*
G01*
G37*
G36*
G01*
X79428059Y-74790959D02*
X79428059Y-74390959D01*
G75*
G02*
X79728059Y-74090959I300000J0D01*
G01*
X80128059Y-74090959D01*
G75*
G02*
X80428059Y-74390959I0J-300000D01*
G01*
X80428059Y-74790959D01*
G75*
G02*
X80128059Y-75090959I-300000J0D01*
G01*
X79728059Y-75090959D01*
G75*
G02*
X79428059Y-74790959I0J300000D01*
G01*
G37*
G36*
G01*
X81968059Y-74790959D02*
X81968059Y-74390959D01*
G75*
G02*
X82268059Y-74090959I300000J0D01*
G01*
X82668059Y-74090959D01*
G75*
G02*
X82968059Y-74390959I0J-300000D01*
G01*
X82968059Y-74790959D01*
G75*
G02*
X82668059Y-75090959I-300000J0D01*
G01*
X82268059Y-75090959D01*
G75*
G02*
X81968059Y-74790959I0J300000D01*
G01*
G37*
G36*
G01*
X84508059Y-74790959D02*
X84508059Y-74390959D01*
G75*
G02*
X84808059Y-74090959I300000J0D01*
G01*
X85208059Y-74090959D01*
G75*
G02*
X85508059Y-74390959I0J-300000D01*
G01*
X85508059Y-74790959D01*
G75*
G02*
X85208059Y-75090959I-300000J0D01*
G01*
X84808059Y-75090959D01*
G75*
G02*
X84508059Y-74790959I0J300000D01*
G01*
G37*
G36*
G01*
X87048059Y-74790959D02*
X87048059Y-74390959D01*
G75*
G02*
X87348059Y-74090959I300000J0D01*
G01*
X87748059Y-74090959D01*
G75*
G02*
X88048059Y-74390959I0J-300000D01*
G01*
X88048059Y-74790959D01*
G75*
G02*
X87748059Y-75090959I-300000J0D01*
G01*
X87348059Y-75090959D01*
G75*
G02*
X87048059Y-74790959I0J300000D01*
G01*
G37*
G36*
G01*
X89588059Y-74790959D02*
X89588059Y-74390959D01*
G75*
G02*
X89888059Y-74090959I300000J0D01*
G01*
X90288059Y-74090959D01*
G75*
G02*
X90588059Y-74390959I0J-300000D01*
G01*
X90588059Y-74790959D01*
G75*
G02*
X90288059Y-75090959I-300000J0D01*
G01*
X89888059Y-75090959D01*
G75*
G02*
X89588059Y-74790959I0J300000D01*
G01*
G37*
G36*
G01*
X92128059Y-74790959D02*
X92128059Y-74390959D01*
G75*
G02*
X92428059Y-74090959I300000J0D01*
G01*
X92828059Y-74090959D01*
G75*
G02*
X93128059Y-74390959I0J-300000D01*
G01*
X93128059Y-74790959D01*
G75*
G02*
X92828059Y-75090959I-300000J0D01*
G01*
X92428059Y-75090959D01*
G75*
G02*
X92128059Y-74790959I0J300000D01*
G01*
G37*
G36*
G01*
X94668059Y-74790959D02*
X94668059Y-74390959D01*
G75*
G02*
X94968059Y-74090959I300000J0D01*
G01*
X95368059Y-74090959D01*
G75*
G02*
X95668059Y-74390959I0J-300000D01*
G01*
X95668059Y-74790959D01*
G75*
G02*
X95368059Y-75090959I-300000J0D01*
G01*
X94968059Y-75090959D01*
G75*
G02*
X94668059Y-74790959I0J300000D01*
G01*
G37*
G36*
G01*
X97208059Y-74790959D02*
X97208059Y-74390959D01*
G75*
G02*
X97508059Y-74090959I300000J0D01*
G01*
X97908059Y-74090959D01*
G75*
G02*
X98208059Y-74390959I0J-300000D01*
G01*
X98208059Y-74790959D01*
G75*
G02*
X97908059Y-75090959I-300000J0D01*
G01*
X97508059Y-75090959D01*
G75*
G02*
X97208059Y-74790959I0J300000D01*
G01*
G37*
G36*
G01*
X99748059Y-74790959D02*
X99748059Y-74390959D01*
G75*
G02*
X100048059Y-74090959I300000J0D01*
G01*
X100448059Y-74090959D01*
G75*
G02*
X100748059Y-74390959I0J-300000D01*
G01*
X100748059Y-74790959D01*
G75*
G02*
X100448059Y-75090959I-300000J0D01*
G01*
X100048059Y-75090959D01*
G75*
G02*
X99748059Y-74790959I0J300000D01*
G01*
G37*
G36*
G01*
X102288059Y-74790959D02*
X102288059Y-74390959D01*
G75*
G02*
X102588059Y-74090959I300000J0D01*
G01*
X102988059Y-74090959D01*
G75*
G02*
X103288059Y-74390959I0J-300000D01*
G01*
X103288059Y-74790959D01*
G75*
G02*
X102988059Y-75090959I-300000J0D01*
G01*
X102588059Y-75090959D01*
G75*
G02*
X102288059Y-74790959I0J300000D01*
G01*
G37*
G36*
G01*
X104828059Y-74790959D02*
X104828059Y-74390959D01*
G75*
G02*
X105128059Y-74090959I300000J0D01*
G01*
X105528059Y-74090959D01*
G75*
G02*
X105828059Y-74390959I0J-300000D01*
G01*
X105828059Y-74790959D01*
G75*
G02*
X105528059Y-75090959I-300000J0D01*
G01*
X105128059Y-75090959D01*
G75*
G02*
X104828059Y-74790959I0J300000D01*
G01*
G37*
G36*
G01*
X107368059Y-74790959D02*
X107368059Y-74390959D01*
G75*
G02*
X107668059Y-74090959I300000J0D01*
G01*
X108068059Y-74090959D01*
G75*
G02*
X108368059Y-74390959I0J-300000D01*
G01*
X108368059Y-74790959D01*
G75*
G02*
X108068059Y-75090959I-300000J0D01*
G01*
X107668059Y-75090959D01*
G75*
G02*
X107368059Y-74790959I0J300000D01*
G01*
G37*
G36*
G01*
X109908059Y-74790959D02*
X109908059Y-74390959D01*
G75*
G02*
X110208059Y-74090959I300000J0D01*
G01*
X110608059Y-74090959D01*
G75*
G02*
X110908059Y-74390959I0J-300000D01*
G01*
X110908059Y-74790959D01*
G75*
G02*
X110608059Y-75090959I-300000J0D01*
G01*
X110208059Y-75090959D01*
G75*
G02*
X109908059Y-74790959I0J300000D01*
G01*
G37*
G36*
G01*
X112448059Y-74790959D02*
X112448059Y-74390959D01*
G75*
G02*
X112748059Y-74090959I300000J0D01*
G01*
X113148059Y-74090959D01*
G75*
G02*
X113448059Y-74390959I0J-300000D01*
G01*
X113448059Y-74790959D01*
G75*
G02*
X113148059Y-75090959I-300000J0D01*
G01*
X112748059Y-75090959D01*
G75*
G02*
X112448059Y-74790959I0J300000D01*
G01*
G37*
G36*
G01*
X114988059Y-74790959D02*
X114988059Y-74390959D01*
G75*
G02*
X115288059Y-74090959I300000J0D01*
G01*
X115688059Y-74090959D01*
G75*
G02*
X115988059Y-74390959I0J-300000D01*
G01*
X115988059Y-74790959D01*
G75*
G02*
X115688059Y-75090959I-300000J0D01*
G01*
X115288059Y-75090959D01*
G75*
G02*
X114988059Y-74790959I0J300000D01*
G01*
G37*
G36*
G01*
X117528059Y-74790959D02*
X117528059Y-74390959D01*
G75*
G02*
X117828059Y-74090959I300000J0D01*
G01*
X118228059Y-74090959D01*
G75*
G02*
X118528059Y-74390959I0J-300000D01*
G01*
X118528059Y-74790959D01*
G75*
G02*
X118228059Y-75090959I-300000J0D01*
G01*
X117828059Y-75090959D01*
G75*
G02*
X117528059Y-74790959I0J300000D01*
G01*
G37*
G36*
G01*
X120068059Y-74790959D02*
X120068059Y-74390959D01*
G75*
G02*
X120368059Y-74090959I300000J0D01*
G01*
X120768059Y-74090959D01*
G75*
G02*
X121068059Y-74390959I0J-300000D01*
G01*
X121068059Y-74790959D01*
G75*
G02*
X120768059Y-75090959I-300000J0D01*
G01*
X120368059Y-75090959D01*
G75*
G02*
X120068059Y-74790959I0J300000D01*
G01*
G37*
G36*
G01*
X122608059Y-74790959D02*
X122608059Y-74390959D01*
G75*
G02*
X122908059Y-74090959I300000J0D01*
G01*
X123308059Y-74090959D01*
G75*
G02*
X123608059Y-74390959I0J-300000D01*
G01*
X123608059Y-74790959D01*
G75*
G02*
X123308059Y-75090959I-300000J0D01*
G01*
X122908059Y-75090959D01*
G75*
G02*
X122608059Y-74790959I0J300000D01*
G01*
G37*
G36*
G01*
X125148059Y-74790959D02*
X125148059Y-74390959D01*
G75*
G02*
X125448059Y-74090959I300000J0D01*
G01*
X125848059Y-74090959D01*
G75*
G02*
X126148059Y-74390959I0J-300000D01*
G01*
X126148059Y-74790959D01*
G75*
G02*
X125848059Y-75090959I-300000J0D01*
G01*
X125448059Y-75090959D01*
G75*
G02*
X125148059Y-74790959I0J300000D01*
G01*
G37*
G36*
G01*
X127688059Y-74790959D02*
X127688059Y-74390959D01*
G75*
G02*
X127988059Y-74090959I300000J0D01*
G01*
X128388059Y-74090959D01*
G75*
G02*
X128688059Y-74390959I0J-300000D01*
G01*
X128688059Y-74790959D01*
G75*
G02*
X128388059Y-75090959I-300000J0D01*
G01*
X127988059Y-75090959D01*
G75*
G02*
X127688059Y-74790959I0J300000D01*
G01*
G37*
G36*
G01*
X130228059Y-74790959D02*
X130228059Y-74390959D01*
G75*
G02*
X130528059Y-74090959I300000J0D01*
G01*
X130928059Y-74090959D01*
G75*
G02*
X131228059Y-74390959I0J-300000D01*
G01*
X131228059Y-74790959D01*
G75*
G02*
X130928059Y-75090959I-300000J0D01*
G01*
X130528059Y-75090959D01*
G75*
G02*
X130228059Y-74790959I0J300000D01*
G01*
G37*
G36*
G01*
X132768059Y-74790959D02*
X132768059Y-74390959D01*
G75*
G02*
X133068059Y-74090959I300000J0D01*
G01*
X133468059Y-74090959D01*
G75*
G02*
X133768059Y-74390959I0J-300000D01*
G01*
X133768059Y-74790959D01*
G75*
G02*
X133468059Y-75090959I-300000J0D01*
G01*
X133068059Y-75090959D01*
G75*
G02*
X132768059Y-74790959I0J300000D01*
G01*
G37*
G36*
G01*
X135308059Y-74790959D02*
X135308059Y-74390959D01*
G75*
G02*
X135608059Y-74090959I300000J0D01*
G01*
X136008059Y-74090959D01*
G75*
G02*
X136308059Y-74390959I0J-300000D01*
G01*
X136308059Y-74790959D01*
G75*
G02*
X136008059Y-75090959I-300000J0D01*
G01*
X135608059Y-75090959D01*
G75*
G02*
X135308059Y-74790959I0J300000D01*
G01*
G37*
G36*
G01*
X137848059Y-74790959D02*
X137848059Y-74390959D01*
G75*
G02*
X138148059Y-74090959I300000J0D01*
G01*
X138548059Y-74090959D01*
G75*
G02*
X138848059Y-74390959I0J-300000D01*
G01*
X138848059Y-74790959D01*
G75*
G02*
X138548059Y-75090959I-300000J0D01*
G01*
X138148059Y-75090959D01*
G75*
G02*
X137848059Y-74790959I0J300000D01*
G01*
G37*
G36*
G01*
X140388059Y-74790959D02*
X140388059Y-74390959D01*
G75*
G02*
X140688059Y-74090959I300000J0D01*
G01*
X141088059Y-74090959D01*
G75*
G02*
X141388059Y-74390959I0J-300000D01*
G01*
X141388059Y-74790959D01*
G75*
G02*
X141088059Y-75090959I-300000J0D01*
G01*
X140688059Y-75090959D01*
G75*
G02*
X140388059Y-74790959I0J300000D01*
G01*
G37*
G36*
G01*
X142928059Y-74790959D02*
X142928059Y-74390959D01*
G75*
G02*
X143228059Y-74090959I300000J0D01*
G01*
X143628059Y-74090959D01*
G75*
G02*
X143928059Y-74390959I0J-300000D01*
G01*
X143928059Y-74790959D01*
G75*
G02*
X143628059Y-75090959I-300000J0D01*
G01*
X143228059Y-75090959D01*
G75*
G02*
X142928059Y-74790959I0J300000D01*
G01*
G37*
G36*
G01*
X145468059Y-74790959D02*
X145468059Y-74390959D01*
G75*
G02*
X145768059Y-74090959I300000J0D01*
G01*
X146168059Y-74090959D01*
G75*
G02*
X146468059Y-74390959I0J-300000D01*
G01*
X146468059Y-74790959D01*
G75*
G02*
X146168059Y-75090959I-300000J0D01*
G01*
X145768059Y-75090959D01*
G75*
G02*
X145468059Y-74790959I0J300000D01*
G01*
G37*
G36*
G01*
X88572059Y-96253959D02*
X88572059Y-95853959D01*
G75*
G02*
X88872059Y-95553959I300000J0D01*
G01*
X89272059Y-95553959D01*
G75*
G02*
X89572059Y-95853959I0J-300000D01*
G01*
X89572059Y-96253959D01*
G75*
G02*
X89272059Y-96553959I-300000J0D01*
G01*
X88872059Y-96553959D01*
G75*
G02*
X88572059Y-96253959I0J300000D01*
G01*
G37*
G36*
G01*
X78158059Y-92316959D02*
X78158059Y-91916959D01*
G75*
G02*
X78458059Y-91616959I300000J0D01*
G01*
X78858059Y-91616959D01*
G75*
G02*
X79158059Y-91916959I0J-300000D01*
G01*
X79158059Y-92316959D01*
G75*
G02*
X78858059Y-92616959I-300000J0D01*
G01*
X78458059Y-92616959D01*
G75*
G02*
X78158059Y-92316959I0J300000D01*
G01*
G37*
G36*
G01*
X108638059Y-95745959D02*
X108638059Y-95345959D01*
G75*
G02*
X108938059Y-95045959I300000J0D01*
G01*
X109338059Y-95045959D01*
G75*
G02*
X109638059Y-95345959I0J-300000D01*
G01*
X109638059Y-95745959D01*
G75*
G02*
X109338059Y-96045959I-300000J0D01*
G01*
X108938059Y-96045959D01*
G75*
G02*
X108638059Y-95745959I0J300000D01*
G01*
G37*
G36*
G01*
X108638059Y-48374959D02*
X108638059Y-47974959D01*
G75*
G02*
X108938059Y-47674959I300000J0D01*
G01*
X109338059Y-47674959D01*
G75*
G02*
X109638059Y-47974959I0J-300000D01*
G01*
X109638059Y-48374959D01*
G75*
G02*
X109338059Y-48674959I-300000J0D01*
G01*
X108938059Y-48674959D01*
G75*
G02*
X108638059Y-48374959I0J300000D01*
G01*
G37*
G36*
G01*
X108638059Y-51422959D02*
X108638059Y-51022959D01*
G75*
G02*
X108938059Y-50722959I300000J0D01*
G01*
X109338059Y-50722959D01*
G75*
G02*
X109638059Y-51022959I0J-300000D01*
G01*
X109638059Y-51422959D01*
G75*
G02*
X109338059Y-51722959I-300000J0D01*
G01*
X108938059Y-51722959D01*
G75*
G02*
X108638059Y-51422959I0J300000D01*
G01*
G37*
G36*
G01*
X88699059Y-48120959D02*
X88699059Y-47720959D01*
G75*
G02*
X88999059Y-47420959I300000J0D01*
G01*
X89399059Y-47420959D01*
G75*
G02*
X89699059Y-47720959I0J-300000D01*
G01*
X89699059Y-48120959D01*
G75*
G02*
X89399059Y-48420959I-300000J0D01*
G01*
X88999059Y-48420959D01*
G75*
G02*
X88699059Y-48120959I0J300000D01*
G01*
G37*
G36*
G01*
X78158059Y-51676959D02*
X78158059Y-51276959D01*
G75*
G02*
X78458059Y-50976959I300000J0D01*
G01*
X78858059Y-50976959D01*
G75*
G02*
X79158059Y-51276959I0J-300000D01*
G01*
X79158059Y-51676959D01*
G75*
G02*
X78858059Y-51976959I-300000J0D01*
G01*
X78458059Y-51976959D01*
G75*
G02*
X78158059Y-51676959I0J300000D01*
G01*
G37*
%TD*%
D11*
%TO.C,D8*%
X138983059Y-97323959D03*
%TD*%
%TO.C,D7*%
X79293059Y-97323959D03*
%TD*%
%TO.C,D6*%
X98978059Y-97323959D03*
%TD*%
%TO.C,D5*%
X119298059Y-97323959D03*
%TD*%
%TO.C,D4*%
X98978059Y-46523959D03*
%TD*%
%TO.C,D3*%
X138983059Y-46523959D03*
%TD*%
%TO.C,D2*%
X119298059Y-46523959D03*
%TD*%
%TO.C,D1*%
X79293059Y-46523959D03*
%TD*%
M02*
