%TF.GenerationSoftware,KiCad,Pcbnew,(5.1.9-0-10_14)*%
%TF.CreationDate,2021-04-15T22:22:18+08:00*%
%TF.ProjectId,MTMatrixRoundedAgain,4d544d61-7472-4697-9852-6f756e646564,rev?*%
%TF.SameCoordinates,Original*%
%TF.FileFunction,Paste,Bot*%
%TF.FilePolarity,Positive*%
%FSLAX46Y46*%
G04 Gerber Fmt 4.6, Leading zero omitted, Abs format (unit mm)*
G04 Created by KiCad (PCBNEW (5.1.9-0-10_14)) date 2021-04-15 22:22:18*
%MOMM*%
%LPD*%
G01*
G04 APERTURE LIST*
G04 APERTURE END LIST*
%TO.C,R2*%
G36*
G01*
X71488059Y-97138960D02*
X71488059Y-96238958D01*
G75*
G02*
X71738058Y-95988959I249999J0D01*
G01*
X72388060Y-95988959D01*
G75*
G02*
X72638059Y-96238958I0J-249999D01*
G01*
X72638059Y-97138960D01*
G75*
G02*
X72388060Y-97388959I-249999J0D01*
G01*
X71738058Y-97388959D01*
G75*
G02*
X71488059Y-97138960I0J249999D01*
G01*
G37*
G36*
G01*
X69438059Y-97138960D02*
X69438059Y-96238958D01*
G75*
G02*
X69688058Y-95988959I249999J0D01*
G01*
X70338060Y-95988959D01*
G75*
G02*
X70588059Y-96238958I0J-249999D01*
G01*
X70588059Y-97138960D01*
G75*
G02*
X70338060Y-97388959I-249999J0D01*
G01*
X69688058Y-97388959D01*
G75*
G02*
X69438059Y-97138960I0J249999D01*
G01*
G37*
%TD*%
%TO.C,R1*%
G36*
G01*
X146788059Y-46581958D02*
X146788059Y-47481960D01*
G75*
G02*
X146538060Y-47731959I-249999J0D01*
G01*
X145888058Y-47731959D01*
G75*
G02*
X145638059Y-47481960I0J249999D01*
G01*
X145638059Y-46581958D01*
G75*
G02*
X145888058Y-46331959I249999J0D01*
G01*
X146538060Y-46331959D01*
G75*
G02*
X146788059Y-46581958I0J-249999D01*
G01*
G37*
G36*
G01*
X148838059Y-46581958D02*
X148838059Y-47481960D01*
G75*
G02*
X148588060Y-47731959I-249999J0D01*
G01*
X147938058Y-47731959D01*
G75*
G02*
X147688059Y-47481960I0J249999D01*
G01*
X147688059Y-46581958D01*
G75*
G02*
X147938058Y-46331959I249999J0D01*
G01*
X148588060Y-46331959D01*
G75*
G02*
X148838059Y-46581958I0J-249999D01*
G01*
G37*
%TD*%
%TO.C,H*%
G36*
G01*
X78323059Y-77828959D02*
X78323059Y-79228959D01*
G75*
G02*
X78173059Y-79378959I-150000J0D01*
G01*
X77873059Y-79378959D01*
G75*
G02*
X77723059Y-79228959I0J150000D01*
G01*
X77723059Y-77828959D01*
G75*
G02*
X77873059Y-77678959I150000J0D01*
G01*
X78173059Y-77678959D01*
G75*
G02*
X78323059Y-77828959I0J-150000D01*
G01*
G37*
G36*
G01*
X77053059Y-77828959D02*
X77053059Y-79228959D01*
G75*
G02*
X76903059Y-79378959I-150000J0D01*
G01*
X76603059Y-79378959D01*
G75*
G02*
X76453059Y-79228959I0J150000D01*
G01*
X76453059Y-77828959D01*
G75*
G02*
X76603059Y-77678959I150000J0D01*
G01*
X76903059Y-77678959D01*
G75*
G02*
X77053059Y-77828959I0J-150000D01*
G01*
G37*
G36*
G01*
X75783059Y-77828959D02*
X75783059Y-79228959D01*
G75*
G02*
X75633059Y-79378959I-150000J0D01*
G01*
X75333059Y-79378959D01*
G75*
G02*
X75183059Y-79228959I0J150000D01*
G01*
X75183059Y-77828959D01*
G75*
G02*
X75333059Y-77678959I150000J0D01*
G01*
X75633059Y-77678959D01*
G75*
G02*
X75783059Y-77828959I0J-150000D01*
G01*
G37*
G36*
G01*
X74513059Y-77828959D02*
X74513059Y-79228959D01*
G75*
G02*
X74363059Y-79378959I-150000J0D01*
G01*
X74063059Y-79378959D01*
G75*
G02*
X73913059Y-79228959I0J150000D01*
G01*
X73913059Y-77828959D01*
G75*
G02*
X74063059Y-77678959I150000J0D01*
G01*
X74363059Y-77678959D01*
G75*
G02*
X74513059Y-77828959I0J-150000D01*
G01*
G37*
G36*
G01*
X73243059Y-77828959D02*
X73243059Y-79228959D01*
G75*
G02*
X73093059Y-79378959I-150000J0D01*
G01*
X72793059Y-79378959D01*
G75*
G02*
X72643059Y-79228959I0J150000D01*
G01*
X72643059Y-77828959D01*
G75*
G02*
X72793059Y-77678959I150000J0D01*
G01*
X73093059Y-77678959D01*
G75*
G02*
X73243059Y-77828959I0J-150000D01*
G01*
G37*
G36*
G01*
X72143059Y-80028959D02*
X72143059Y-80328959D01*
G75*
G02*
X71993059Y-80478959I-150000J0D01*
G01*
X70593059Y-80478959D01*
G75*
G02*
X70443059Y-80328959I0J150000D01*
G01*
X70443059Y-80028959D01*
G75*
G02*
X70593059Y-79878959I150000J0D01*
G01*
X71993059Y-79878959D01*
G75*
G02*
X72143059Y-80028959I0J-150000D01*
G01*
G37*
G36*
G01*
X72143059Y-81298959D02*
X72143059Y-81598959D01*
G75*
G02*
X71993059Y-81748959I-150000J0D01*
G01*
X70593059Y-81748959D01*
G75*
G02*
X70443059Y-81598959I0J150000D01*
G01*
X70443059Y-81298959D01*
G75*
G02*
X70593059Y-81148959I150000J0D01*
G01*
X71993059Y-81148959D01*
G75*
G02*
X72143059Y-81298959I0J-150000D01*
G01*
G37*
G36*
G01*
X72143059Y-82568959D02*
X72143059Y-82868959D01*
G75*
G02*
X71993059Y-83018959I-150000J0D01*
G01*
X70593059Y-83018959D01*
G75*
G02*
X70443059Y-82868959I0J150000D01*
G01*
X70443059Y-82568959D01*
G75*
G02*
X70593059Y-82418959I150000J0D01*
G01*
X71993059Y-82418959D01*
G75*
G02*
X72143059Y-82568959I0J-150000D01*
G01*
G37*
G36*
G01*
X72143059Y-83838959D02*
X72143059Y-84138959D01*
G75*
G02*
X71993059Y-84288959I-150000J0D01*
G01*
X70593059Y-84288959D01*
G75*
G02*
X70443059Y-84138959I0J150000D01*
G01*
X70443059Y-83838959D01*
G75*
G02*
X70593059Y-83688959I150000J0D01*
G01*
X71993059Y-83688959D01*
G75*
G02*
X72143059Y-83838959I0J-150000D01*
G01*
G37*
G36*
G01*
X72143059Y-85108959D02*
X72143059Y-85408959D01*
G75*
G02*
X71993059Y-85558959I-150000J0D01*
G01*
X70593059Y-85558959D01*
G75*
G02*
X70443059Y-85408959I0J150000D01*
G01*
X70443059Y-85108959D01*
G75*
G02*
X70593059Y-84958959I150000J0D01*
G01*
X71993059Y-84958959D01*
G75*
G02*
X72143059Y-85108959I0J-150000D01*
G01*
G37*
G36*
G01*
X72143059Y-86378959D02*
X72143059Y-86678959D01*
G75*
G02*
X71993059Y-86828959I-150000J0D01*
G01*
X70593059Y-86828959D01*
G75*
G02*
X70443059Y-86678959I0J150000D01*
G01*
X70443059Y-86378959D01*
G75*
G02*
X70593059Y-86228959I150000J0D01*
G01*
X71993059Y-86228959D01*
G75*
G02*
X72143059Y-86378959I0J-150000D01*
G01*
G37*
G36*
G01*
X72143059Y-87648959D02*
X72143059Y-87948959D01*
G75*
G02*
X71993059Y-88098959I-150000J0D01*
G01*
X70593059Y-88098959D01*
G75*
G02*
X70443059Y-87948959I0J150000D01*
G01*
X70443059Y-87648959D01*
G75*
G02*
X70593059Y-87498959I150000J0D01*
G01*
X71993059Y-87498959D01*
G75*
G02*
X72143059Y-87648959I0J-150000D01*
G01*
G37*
G36*
G01*
X72143059Y-88918959D02*
X72143059Y-89218959D01*
G75*
G02*
X71993059Y-89368959I-150000J0D01*
G01*
X70593059Y-89368959D01*
G75*
G02*
X70443059Y-89218959I0J150000D01*
G01*
X70443059Y-88918959D01*
G75*
G02*
X70593059Y-88768959I150000J0D01*
G01*
X71993059Y-88768959D01*
G75*
G02*
X72143059Y-88918959I0J-150000D01*
G01*
G37*
G36*
G01*
X72143059Y-90188959D02*
X72143059Y-90488959D01*
G75*
G02*
X71993059Y-90638959I-150000J0D01*
G01*
X70593059Y-90638959D01*
G75*
G02*
X70443059Y-90488959I0J150000D01*
G01*
X70443059Y-90188959D01*
G75*
G02*
X70593059Y-90038959I150000J0D01*
G01*
X71993059Y-90038959D01*
G75*
G02*
X72143059Y-90188959I0J-150000D01*
G01*
G37*
G36*
G01*
X72143059Y-91458959D02*
X72143059Y-91758959D01*
G75*
G02*
X71993059Y-91908959I-150000J0D01*
G01*
X70593059Y-91908959D01*
G75*
G02*
X70443059Y-91758959I0J150000D01*
G01*
X70443059Y-91458959D01*
G75*
G02*
X70593059Y-91308959I150000J0D01*
G01*
X71993059Y-91308959D01*
G75*
G02*
X72143059Y-91458959I0J-150000D01*
G01*
G37*
G36*
G01*
X72143059Y-92728959D02*
X72143059Y-93028959D01*
G75*
G02*
X71993059Y-93178959I-150000J0D01*
G01*
X70593059Y-93178959D01*
G75*
G02*
X70443059Y-93028959I0J150000D01*
G01*
X70443059Y-92728959D01*
G75*
G02*
X70593059Y-92578959I150000J0D01*
G01*
X71993059Y-92578959D01*
G75*
G02*
X72143059Y-92728959I0J-150000D01*
G01*
G37*
G36*
G01*
X73243059Y-93828959D02*
X73243059Y-95228959D01*
G75*
G02*
X73093059Y-95378959I-150000J0D01*
G01*
X72793059Y-95378959D01*
G75*
G02*
X72643059Y-95228959I0J150000D01*
G01*
X72643059Y-93828959D01*
G75*
G02*
X72793059Y-93678959I150000J0D01*
G01*
X73093059Y-93678959D01*
G75*
G02*
X73243059Y-93828959I0J-150000D01*
G01*
G37*
G36*
G01*
X74513059Y-93828959D02*
X74513059Y-95228959D01*
G75*
G02*
X74363059Y-95378959I-150000J0D01*
G01*
X74063059Y-95378959D01*
G75*
G02*
X73913059Y-95228959I0J150000D01*
G01*
X73913059Y-93828959D01*
G75*
G02*
X74063059Y-93678959I150000J0D01*
G01*
X74363059Y-93678959D01*
G75*
G02*
X74513059Y-93828959I0J-150000D01*
G01*
G37*
G36*
G01*
X75783059Y-93828959D02*
X75783059Y-95228959D01*
G75*
G02*
X75633059Y-95378959I-150000J0D01*
G01*
X75333059Y-95378959D01*
G75*
G02*
X75183059Y-95228959I0J150000D01*
G01*
X75183059Y-93828959D01*
G75*
G02*
X75333059Y-93678959I150000J0D01*
G01*
X75633059Y-93678959D01*
G75*
G02*
X75783059Y-93828959I0J-150000D01*
G01*
G37*
G36*
G01*
X77053059Y-93828959D02*
X77053059Y-95228959D01*
G75*
G02*
X76903059Y-95378959I-150000J0D01*
G01*
X76603059Y-95378959D01*
G75*
G02*
X76453059Y-95228959I0J150000D01*
G01*
X76453059Y-93828959D01*
G75*
G02*
X76603059Y-93678959I150000J0D01*
G01*
X76903059Y-93678959D01*
G75*
G02*
X77053059Y-93828959I0J-150000D01*
G01*
G37*
G36*
G01*
X78323059Y-93828959D02*
X78323059Y-95228959D01*
G75*
G02*
X78173059Y-95378959I-150000J0D01*
G01*
X77873059Y-95378959D01*
G75*
G02*
X77723059Y-95228959I0J150000D01*
G01*
X77723059Y-93828959D01*
G75*
G02*
X77873059Y-93678959I150000J0D01*
G01*
X78173059Y-93678959D01*
G75*
G02*
X78323059Y-93828959I0J-150000D01*
G01*
G37*
G36*
G01*
X79593059Y-93828959D02*
X79593059Y-95228959D01*
G75*
G02*
X79443059Y-95378959I-150000J0D01*
G01*
X79143059Y-95378959D01*
G75*
G02*
X78993059Y-95228959I0J150000D01*
G01*
X78993059Y-93828959D01*
G75*
G02*
X79143059Y-93678959I150000J0D01*
G01*
X79443059Y-93678959D01*
G75*
G02*
X79593059Y-93828959I0J-150000D01*
G01*
G37*
G36*
G01*
X80863059Y-93828959D02*
X80863059Y-95228959D01*
G75*
G02*
X80713059Y-95378959I-150000J0D01*
G01*
X80413059Y-95378959D01*
G75*
G02*
X80263059Y-95228959I0J150000D01*
G01*
X80263059Y-93828959D01*
G75*
G02*
X80413059Y-93678959I150000J0D01*
G01*
X80713059Y-93678959D01*
G75*
G02*
X80863059Y-93828959I0J-150000D01*
G01*
G37*
G36*
G01*
X82133059Y-93828959D02*
X82133059Y-95228959D01*
G75*
G02*
X81983059Y-95378959I-150000J0D01*
G01*
X81683059Y-95378959D01*
G75*
G02*
X81533059Y-95228959I0J150000D01*
G01*
X81533059Y-93828959D01*
G75*
G02*
X81683059Y-93678959I150000J0D01*
G01*
X81983059Y-93678959D01*
G75*
G02*
X82133059Y-93828959I0J-150000D01*
G01*
G37*
G36*
G01*
X83403059Y-93828959D02*
X83403059Y-95228959D01*
G75*
G02*
X83253059Y-95378959I-150000J0D01*
G01*
X82953059Y-95378959D01*
G75*
G02*
X82803059Y-95228959I0J150000D01*
G01*
X82803059Y-93828959D01*
G75*
G02*
X82953059Y-93678959I150000J0D01*
G01*
X83253059Y-93678959D01*
G75*
G02*
X83403059Y-93828959I0J-150000D01*
G01*
G37*
G36*
G01*
X84673059Y-93828959D02*
X84673059Y-95228959D01*
G75*
G02*
X84523059Y-95378959I-150000J0D01*
G01*
X84223059Y-95378959D01*
G75*
G02*
X84073059Y-95228959I0J150000D01*
G01*
X84073059Y-93828959D01*
G75*
G02*
X84223059Y-93678959I150000J0D01*
G01*
X84523059Y-93678959D01*
G75*
G02*
X84673059Y-93828959I0J-150000D01*
G01*
G37*
G36*
G01*
X85943059Y-93828959D02*
X85943059Y-95228959D01*
G75*
G02*
X85793059Y-95378959I-150000J0D01*
G01*
X85493059Y-95378959D01*
G75*
G02*
X85343059Y-95228959I0J150000D01*
G01*
X85343059Y-93828959D01*
G75*
G02*
X85493059Y-93678959I150000J0D01*
G01*
X85793059Y-93678959D01*
G75*
G02*
X85943059Y-93828959I0J-150000D01*
G01*
G37*
G36*
G01*
X88143059Y-92728959D02*
X88143059Y-93028959D01*
G75*
G02*
X87993059Y-93178959I-150000J0D01*
G01*
X86593059Y-93178959D01*
G75*
G02*
X86443059Y-93028959I0J150000D01*
G01*
X86443059Y-92728959D01*
G75*
G02*
X86593059Y-92578959I150000J0D01*
G01*
X87993059Y-92578959D01*
G75*
G02*
X88143059Y-92728959I0J-150000D01*
G01*
G37*
G36*
G01*
X88143059Y-91458959D02*
X88143059Y-91758959D01*
G75*
G02*
X87993059Y-91908959I-150000J0D01*
G01*
X86593059Y-91908959D01*
G75*
G02*
X86443059Y-91758959I0J150000D01*
G01*
X86443059Y-91458959D01*
G75*
G02*
X86593059Y-91308959I150000J0D01*
G01*
X87993059Y-91308959D01*
G75*
G02*
X88143059Y-91458959I0J-150000D01*
G01*
G37*
G36*
G01*
X88143059Y-90188959D02*
X88143059Y-90488959D01*
G75*
G02*
X87993059Y-90638959I-150000J0D01*
G01*
X86593059Y-90638959D01*
G75*
G02*
X86443059Y-90488959I0J150000D01*
G01*
X86443059Y-90188959D01*
G75*
G02*
X86593059Y-90038959I150000J0D01*
G01*
X87993059Y-90038959D01*
G75*
G02*
X88143059Y-90188959I0J-150000D01*
G01*
G37*
G36*
G01*
X88143059Y-88918959D02*
X88143059Y-89218959D01*
G75*
G02*
X87993059Y-89368959I-150000J0D01*
G01*
X86593059Y-89368959D01*
G75*
G02*
X86443059Y-89218959I0J150000D01*
G01*
X86443059Y-88918959D01*
G75*
G02*
X86593059Y-88768959I150000J0D01*
G01*
X87993059Y-88768959D01*
G75*
G02*
X88143059Y-88918959I0J-150000D01*
G01*
G37*
G36*
G01*
X88143059Y-87648959D02*
X88143059Y-87948959D01*
G75*
G02*
X87993059Y-88098959I-150000J0D01*
G01*
X86593059Y-88098959D01*
G75*
G02*
X86443059Y-87948959I0J150000D01*
G01*
X86443059Y-87648959D01*
G75*
G02*
X86593059Y-87498959I150000J0D01*
G01*
X87993059Y-87498959D01*
G75*
G02*
X88143059Y-87648959I0J-150000D01*
G01*
G37*
G36*
G01*
X88143059Y-86378959D02*
X88143059Y-86678959D01*
G75*
G02*
X87993059Y-86828959I-150000J0D01*
G01*
X86593059Y-86828959D01*
G75*
G02*
X86443059Y-86678959I0J150000D01*
G01*
X86443059Y-86378959D01*
G75*
G02*
X86593059Y-86228959I150000J0D01*
G01*
X87993059Y-86228959D01*
G75*
G02*
X88143059Y-86378959I0J-150000D01*
G01*
G37*
G36*
G01*
X88143059Y-85108959D02*
X88143059Y-85408959D01*
G75*
G02*
X87993059Y-85558959I-150000J0D01*
G01*
X86593059Y-85558959D01*
G75*
G02*
X86443059Y-85408959I0J150000D01*
G01*
X86443059Y-85108959D01*
G75*
G02*
X86593059Y-84958959I150000J0D01*
G01*
X87993059Y-84958959D01*
G75*
G02*
X88143059Y-85108959I0J-150000D01*
G01*
G37*
G36*
G01*
X88143059Y-83838959D02*
X88143059Y-84138959D01*
G75*
G02*
X87993059Y-84288959I-150000J0D01*
G01*
X86593059Y-84288959D01*
G75*
G02*
X86443059Y-84138959I0J150000D01*
G01*
X86443059Y-83838959D01*
G75*
G02*
X86593059Y-83688959I150000J0D01*
G01*
X87993059Y-83688959D01*
G75*
G02*
X88143059Y-83838959I0J-150000D01*
G01*
G37*
G36*
G01*
X88143059Y-82568959D02*
X88143059Y-82868959D01*
G75*
G02*
X87993059Y-83018959I-150000J0D01*
G01*
X86593059Y-83018959D01*
G75*
G02*
X86443059Y-82868959I0J150000D01*
G01*
X86443059Y-82568959D01*
G75*
G02*
X86593059Y-82418959I150000J0D01*
G01*
X87993059Y-82418959D01*
G75*
G02*
X88143059Y-82568959I0J-150000D01*
G01*
G37*
G36*
G01*
X88143059Y-81298959D02*
X88143059Y-81598959D01*
G75*
G02*
X87993059Y-81748959I-150000J0D01*
G01*
X86593059Y-81748959D01*
G75*
G02*
X86443059Y-81598959I0J150000D01*
G01*
X86443059Y-81298959D01*
G75*
G02*
X86593059Y-81148959I150000J0D01*
G01*
X87993059Y-81148959D01*
G75*
G02*
X88143059Y-81298959I0J-150000D01*
G01*
G37*
G36*
G01*
X88143059Y-80028959D02*
X88143059Y-80328959D01*
G75*
G02*
X87993059Y-80478959I-150000J0D01*
G01*
X86593059Y-80478959D01*
G75*
G02*
X86443059Y-80328959I0J150000D01*
G01*
X86443059Y-80028959D01*
G75*
G02*
X86593059Y-79878959I150000J0D01*
G01*
X87993059Y-79878959D01*
G75*
G02*
X88143059Y-80028959I0J-150000D01*
G01*
G37*
G36*
G01*
X85943059Y-77828959D02*
X85943059Y-79228959D01*
G75*
G02*
X85793059Y-79378959I-150000J0D01*
G01*
X85493059Y-79378959D01*
G75*
G02*
X85343059Y-79228959I0J150000D01*
G01*
X85343059Y-77828959D01*
G75*
G02*
X85493059Y-77678959I150000J0D01*
G01*
X85793059Y-77678959D01*
G75*
G02*
X85943059Y-77828959I0J-150000D01*
G01*
G37*
G36*
G01*
X84673059Y-77828959D02*
X84673059Y-79228959D01*
G75*
G02*
X84523059Y-79378959I-150000J0D01*
G01*
X84223059Y-79378959D01*
G75*
G02*
X84073059Y-79228959I0J150000D01*
G01*
X84073059Y-77828959D01*
G75*
G02*
X84223059Y-77678959I150000J0D01*
G01*
X84523059Y-77678959D01*
G75*
G02*
X84673059Y-77828959I0J-150000D01*
G01*
G37*
G36*
G01*
X83403059Y-77828959D02*
X83403059Y-79228959D01*
G75*
G02*
X83253059Y-79378959I-150000J0D01*
G01*
X82953059Y-79378959D01*
G75*
G02*
X82803059Y-79228959I0J150000D01*
G01*
X82803059Y-77828959D01*
G75*
G02*
X82953059Y-77678959I150000J0D01*
G01*
X83253059Y-77678959D01*
G75*
G02*
X83403059Y-77828959I0J-150000D01*
G01*
G37*
G36*
G01*
X82133059Y-77828959D02*
X82133059Y-79228959D01*
G75*
G02*
X81983059Y-79378959I-150000J0D01*
G01*
X81683059Y-79378959D01*
G75*
G02*
X81533059Y-79228959I0J150000D01*
G01*
X81533059Y-77828959D01*
G75*
G02*
X81683059Y-77678959I150000J0D01*
G01*
X81983059Y-77678959D01*
G75*
G02*
X82133059Y-77828959I0J-150000D01*
G01*
G37*
G36*
G01*
X80863059Y-77828959D02*
X80863059Y-79228959D01*
G75*
G02*
X80713059Y-79378959I-150000J0D01*
G01*
X80413059Y-79378959D01*
G75*
G02*
X80263059Y-79228959I0J150000D01*
G01*
X80263059Y-77828959D01*
G75*
G02*
X80413059Y-77678959I150000J0D01*
G01*
X80713059Y-77678959D01*
G75*
G02*
X80863059Y-77828959I0J-150000D01*
G01*
G37*
G36*
G01*
X79593059Y-77828959D02*
X79593059Y-79228959D01*
G75*
G02*
X79443059Y-79378959I-150000J0D01*
G01*
X79143059Y-79378959D01*
G75*
G02*
X78993059Y-79228959I0J150000D01*
G01*
X78993059Y-77828959D01*
G75*
G02*
X79143059Y-77678959I150000J0D01*
G01*
X79443059Y-77678959D01*
G75*
G02*
X79593059Y-77828959I0J-150000D01*
G01*
G37*
%TD*%
%TO.C,G*%
G36*
G01*
X98008059Y-77828959D02*
X98008059Y-79228959D01*
G75*
G02*
X97858059Y-79378959I-150000J0D01*
G01*
X97558059Y-79378959D01*
G75*
G02*
X97408059Y-79228959I0J150000D01*
G01*
X97408059Y-77828959D01*
G75*
G02*
X97558059Y-77678959I150000J0D01*
G01*
X97858059Y-77678959D01*
G75*
G02*
X98008059Y-77828959I0J-150000D01*
G01*
G37*
G36*
G01*
X96738059Y-77828959D02*
X96738059Y-79228959D01*
G75*
G02*
X96588059Y-79378959I-150000J0D01*
G01*
X96288059Y-79378959D01*
G75*
G02*
X96138059Y-79228959I0J150000D01*
G01*
X96138059Y-77828959D01*
G75*
G02*
X96288059Y-77678959I150000J0D01*
G01*
X96588059Y-77678959D01*
G75*
G02*
X96738059Y-77828959I0J-150000D01*
G01*
G37*
G36*
G01*
X95468059Y-77828959D02*
X95468059Y-79228959D01*
G75*
G02*
X95318059Y-79378959I-150000J0D01*
G01*
X95018059Y-79378959D01*
G75*
G02*
X94868059Y-79228959I0J150000D01*
G01*
X94868059Y-77828959D01*
G75*
G02*
X95018059Y-77678959I150000J0D01*
G01*
X95318059Y-77678959D01*
G75*
G02*
X95468059Y-77828959I0J-150000D01*
G01*
G37*
G36*
G01*
X94198059Y-77828959D02*
X94198059Y-79228959D01*
G75*
G02*
X94048059Y-79378959I-150000J0D01*
G01*
X93748059Y-79378959D01*
G75*
G02*
X93598059Y-79228959I0J150000D01*
G01*
X93598059Y-77828959D01*
G75*
G02*
X93748059Y-77678959I150000J0D01*
G01*
X94048059Y-77678959D01*
G75*
G02*
X94198059Y-77828959I0J-150000D01*
G01*
G37*
G36*
G01*
X92928059Y-77828959D02*
X92928059Y-79228959D01*
G75*
G02*
X92778059Y-79378959I-150000J0D01*
G01*
X92478059Y-79378959D01*
G75*
G02*
X92328059Y-79228959I0J150000D01*
G01*
X92328059Y-77828959D01*
G75*
G02*
X92478059Y-77678959I150000J0D01*
G01*
X92778059Y-77678959D01*
G75*
G02*
X92928059Y-77828959I0J-150000D01*
G01*
G37*
G36*
G01*
X91828059Y-80028959D02*
X91828059Y-80328959D01*
G75*
G02*
X91678059Y-80478959I-150000J0D01*
G01*
X90278059Y-80478959D01*
G75*
G02*
X90128059Y-80328959I0J150000D01*
G01*
X90128059Y-80028959D01*
G75*
G02*
X90278059Y-79878959I150000J0D01*
G01*
X91678059Y-79878959D01*
G75*
G02*
X91828059Y-80028959I0J-150000D01*
G01*
G37*
G36*
G01*
X91828059Y-81298959D02*
X91828059Y-81598959D01*
G75*
G02*
X91678059Y-81748959I-150000J0D01*
G01*
X90278059Y-81748959D01*
G75*
G02*
X90128059Y-81598959I0J150000D01*
G01*
X90128059Y-81298959D01*
G75*
G02*
X90278059Y-81148959I150000J0D01*
G01*
X91678059Y-81148959D01*
G75*
G02*
X91828059Y-81298959I0J-150000D01*
G01*
G37*
G36*
G01*
X91828059Y-82568959D02*
X91828059Y-82868959D01*
G75*
G02*
X91678059Y-83018959I-150000J0D01*
G01*
X90278059Y-83018959D01*
G75*
G02*
X90128059Y-82868959I0J150000D01*
G01*
X90128059Y-82568959D01*
G75*
G02*
X90278059Y-82418959I150000J0D01*
G01*
X91678059Y-82418959D01*
G75*
G02*
X91828059Y-82568959I0J-150000D01*
G01*
G37*
G36*
G01*
X91828059Y-83838959D02*
X91828059Y-84138959D01*
G75*
G02*
X91678059Y-84288959I-150000J0D01*
G01*
X90278059Y-84288959D01*
G75*
G02*
X90128059Y-84138959I0J150000D01*
G01*
X90128059Y-83838959D01*
G75*
G02*
X90278059Y-83688959I150000J0D01*
G01*
X91678059Y-83688959D01*
G75*
G02*
X91828059Y-83838959I0J-150000D01*
G01*
G37*
G36*
G01*
X91828059Y-85108959D02*
X91828059Y-85408959D01*
G75*
G02*
X91678059Y-85558959I-150000J0D01*
G01*
X90278059Y-85558959D01*
G75*
G02*
X90128059Y-85408959I0J150000D01*
G01*
X90128059Y-85108959D01*
G75*
G02*
X90278059Y-84958959I150000J0D01*
G01*
X91678059Y-84958959D01*
G75*
G02*
X91828059Y-85108959I0J-150000D01*
G01*
G37*
G36*
G01*
X91828059Y-86378959D02*
X91828059Y-86678959D01*
G75*
G02*
X91678059Y-86828959I-150000J0D01*
G01*
X90278059Y-86828959D01*
G75*
G02*
X90128059Y-86678959I0J150000D01*
G01*
X90128059Y-86378959D01*
G75*
G02*
X90278059Y-86228959I150000J0D01*
G01*
X91678059Y-86228959D01*
G75*
G02*
X91828059Y-86378959I0J-150000D01*
G01*
G37*
G36*
G01*
X91828059Y-87648959D02*
X91828059Y-87948959D01*
G75*
G02*
X91678059Y-88098959I-150000J0D01*
G01*
X90278059Y-88098959D01*
G75*
G02*
X90128059Y-87948959I0J150000D01*
G01*
X90128059Y-87648959D01*
G75*
G02*
X90278059Y-87498959I150000J0D01*
G01*
X91678059Y-87498959D01*
G75*
G02*
X91828059Y-87648959I0J-150000D01*
G01*
G37*
G36*
G01*
X91828059Y-88918959D02*
X91828059Y-89218959D01*
G75*
G02*
X91678059Y-89368959I-150000J0D01*
G01*
X90278059Y-89368959D01*
G75*
G02*
X90128059Y-89218959I0J150000D01*
G01*
X90128059Y-88918959D01*
G75*
G02*
X90278059Y-88768959I150000J0D01*
G01*
X91678059Y-88768959D01*
G75*
G02*
X91828059Y-88918959I0J-150000D01*
G01*
G37*
G36*
G01*
X91828059Y-90188959D02*
X91828059Y-90488959D01*
G75*
G02*
X91678059Y-90638959I-150000J0D01*
G01*
X90278059Y-90638959D01*
G75*
G02*
X90128059Y-90488959I0J150000D01*
G01*
X90128059Y-90188959D01*
G75*
G02*
X90278059Y-90038959I150000J0D01*
G01*
X91678059Y-90038959D01*
G75*
G02*
X91828059Y-90188959I0J-150000D01*
G01*
G37*
G36*
G01*
X91828059Y-91458959D02*
X91828059Y-91758959D01*
G75*
G02*
X91678059Y-91908959I-150000J0D01*
G01*
X90278059Y-91908959D01*
G75*
G02*
X90128059Y-91758959I0J150000D01*
G01*
X90128059Y-91458959D01*
G75*
G02*
X90278059Y-91308959I150000J0D01*
G01*
X91678059Y-91308959D01*
G75*
G02*
X91828059Y-91458959I0J-150000D01*
G01*
G37*
G36*
G01*
X91828059Y-92728959D02*
X91828059Y-93028959D01*
G75*
G02*
X91678059Y-93178959I-150000J0D01*
G01*
X90278059Y-93178959D01*
G75*
G02*
X90128059Y-93028959I0J150000D01*
G01*
X90128059Y-92728959D01*
G75*
G02*
X90278059Y-92578959I150000J0D01*
G01*
X91678059Y-92578959D01*
G75*
G02*
X91828059Y-92728959I0J-150000D01*
G01*
G37*
G36*
G01*
X92928059Y-93828959D02*
X92928059Y-95228959D01*
G75*
G02*
X92778059Y-95378959I-150000J0D01*
G01*
X92478059Y-95378959D01*
G75*
G02*
X92328059Y-95228959I0J150000D01*
G01*
X92328059Y-93828959D01*
G75*
G02*
X92478059Y-93678959I150000J0D01*
G01*
X92778059Y-93678959D01*
G75*
G02*
X92928059Y-93828959I0J-150000D01*
G01*
G37*
G36*
G01*
X94198059Y-93828959D02*
X94198059Y-95228959D01*
G75*
G02*
X94048059Y-95378959I-150000J0D01*
G01*
X93748059Y-95378959D01*
G75*
G02*
X93598059Y-95228959I0J150000D01*
G01*
X93598059Y-93828959D01*
G75*
G02*
X93748059Y-93678959I150000J0D01*
G01*
X94048059Y-93678959D01*
G75*
G02*
X94198059Y-93828959I0J-150000D01*
G01*
G37*
G36*
G01*
X95468059Y-93828959D02*
X95468059Y-95228959D01*
G75*
G02*
X95318059Y-95378959I-150000J0D01*
G01*
X95018059Y-95378959D01*
G75*
G02*
X94868059Y-95228959I0J150000D01*
G01*
X94868059Y-93828959D01*
G75*
G02*
X95018059Y-93678959I150000J0D01*
G01*
X95318059Y-93678959D01*
G75*
G02*
X95468059Y-93828959I0J-150000D01*
G01*
G37*
G36*
G01*
X96738059Y-93828959D02*
X96738059Y-95228959D01*
G75*
G02*
X96588059Y-95378959I-150000J0D01*
G01*
X96288059Y-95378959D01*
G75*
G02*
X96138059Y-95228959I0J150000D01*
G01*
X96138059Y-93828959D01*
G75*
G02*
X96288059Y-93678959I150000J0D01*
G01*
X96588059Y-93678959D01*
G75*
G02*
X96738059Y-93828959I0J-150000D01*
G01*
G37*
G36*
G01*
X98008059Y-93828959D02*
X98008059Y-95228959D01*
G75*
G02*
X97858059Y-95378959I-150000J0D01*
G01*
X97558059Y-95378959D01*
G75*
G02*
X97408059Y-95228959I0J150000D01*
G01*
X97408059Y-93828959D01*
G75*
G02*
X97558059Y-93678959I150000J0D01*
G01*
X97858059Y-93678959D01*
G75*
G02*
X98008059Y-93828959I0J-150000D01*
G01*
G37*
G36*
G01*
X99278059Y-93828959D02*
X99278059Y-95228959D01*
G75*
G02*
X99128059Y-95378959I-150000J0D01*
G01*
X98828059Y-95378959D01*
G75*
G02*
X98678059Y-95228959I0J150000D01*
G01*
X98678059Y-93828959D01*
G75*
G02*
X98828059Y-93678959I150000J0D01*
G01*
X99128059Y-93678959D01*
G75*
G02*
X99278059Y-93828959I0J-150000D01*
G01*
G37*
G36*
G01*
X100548059Y-93828959D02*
X100548059Y-95228959D01*
G75*
G02*
X100398059Y-95378959I-150000J0D01*
G01*
X100098059Y-95378959D01*
G75*
G02*
X99948059Y-95228959I0J150000D01*
G01*
X99948059Y-93828959D01*
G75*
G02*
X100098059Y-93678959I150000J0D01*
G01*
X100398059Y-93678959D01*
G75*
G02*
X100548059Y-93828959I0J-150000D01*
G01*
G37*
G36*
G01*
X101818059Y-93828959D02*
X101818059Y-95228959D01*
G75*
G02*
X101668059Y-95378959I-150000J0D01*
G01*
X101368059Y-95378959D01*
G75*
G02*
X101218059Y-95228959I0J150000D01*
G01*
X101218059Y-93828959D01*
G75*
G02*
X101368059Y-93678959I150000J0D01*
G01*
X101668059Y-93678959D01*
G75*
G02*
X101818059Y-93828959I0J-150000D01*
G01*
G37*
G36*
G01*
X103088059Y-93828959D02*
X103088059Y-95228959D01*
G75*
G02*
X102938059Y-95378959I-150000J0D01*
G01*
X102638059Y-95378959D01*
G75*
G02*
X102488059Y-95228959I0J150000D01*
G01*
X102488059Y-93828959D01*
G75*
G02*
X102638059Y-93678959I150000J0D01*
G01*
X102938059Y-93678959D01*
G75*
G02*
X103088059Y-93828959I0J-150000D01*
G01*
G37*
G36*
G01*
X104358059Y-93828959D02*
X104358059Y-95228959D01*
G75*
G02*
X104208059Y-95378959I-150000J0D01*
G01*
X103908059Y-95378959D01*
G75*
G02*
X103758059Y-95228959I0J150000D01*
G01*
X103758059Y-93828959D01*
G75*
G02*
X103908059Y-93678959I150000J0D01*
G01*
X104208059Y-93678959D01*
G75*
G02*
X104358059Y-93828959I0J-150000D01*
G01*
G37*
G36*
G01*
X105628059Y-93828959D02*
X105628059Y-95228959D01*
G75*
G02*
X105478059Y-95378959I-150000J0D01*
G01*
X105178059Y-95378959D01*
G75*
G02*
X105028059Y-95228959I0J150000D01*
G01*
X105028059Y-93828959D01*
G75*
G02*
X105178059Y-93678959I150000J0D01*
G01*
X105478059Y-93678959D01*
G75*
G02*
X105628059Y-93828959I0J-150000D01*
G01*
G37*
G36*
G01*
X107828059Y-92728959D02*
X107828059Y-93028959D01*
G75*
G02*
X107678059Y-93178959I-150000J0D01*
G01*
X106278059Y-93178959D01*
G75*
G02*
X106128059Y-93028959I0J150000D01*
G01*
X106128059Y-92728959D01*
G75*
G02*
X106278059Y-92578959I150000J0D01*
G01*
X107678059Y-92578959D01*
G75*
G02*
X107828059Y-92728959I0J-150000D01*
G01*
G37*
G36*
G01*
X107828059Y-91458959D02*
X107828059Y-91758959D01*
G75*
G02*
X107678059Y-91908959I-150000J0D01*
G01*
X106278059Y-91908959D01*
G75*
G02*
X106128059Y-91758959I0J150000D01*
G01*
X106128059Y-91458959D01*
G75*
G02*
X106278059Y-91308959I150000J0D01*
G01*
X107678059Y-91308959D01*
G75*
G02*
X107828059Y-91458959I0J-150000D01*
G01*
G37*
G36*
G01*
X107828059Y-90188959D02*
X107828059Y-90488959D01*
G75*
G02*
X107678059Y-90638959I-150000J0D01*
G01*
X106278059Y-90638959D01*
G75*
G02*
X106128059Y-90488959I0J150000D01*
G01*
X106128059Y-90188959D01*
G75*
G02*
X106278059Y-90038959I150000J0D01*
G01*
X107678059Y-90038959D01*
G75*
G02*
X107828059Y-90188959I0J-150000D01*
G01*
G37*
G36*
G01*
X107828059Y-88918959D02*
X107828059Y-89218959D01*
G75*
G02*
X107678059Y-89368959I-150000J0D01*
G01*
X106278059Y-89368959D01*
G75*
G02*
X106128059Y-89218959I0J150000D01*
G01*
X106128059Y-88918959D01*
G75*
G02*
X106278059Y-88768959I150000J0D01*
G01*
X107678059Y-88768959D01*
G75*
G02*
X107828059Y-88918959I0J-150000D01*
G01*
G37*
G36*
G01*
X107828059Y-87648959D02*
X107828059Y-87948959D01*
G75*
G02*
X107678059Y-88098959I-150000J0D01*
G01*
X106278059Y-88098959D01*
G75*
G02*
X106128059Y-87948959I0J150000D01*
G01*
X106128059Y-87648959D01*
G75*
G02*
X106278059Y-87498959I150000J0D01*
G01*
X107678059Y-87498959D01*
G75*
G02*
X107828059Y-87648959I0J-150000D01*
G01*
G37*
G36*
G01*
X107828059Y-86378959D02*
X107828059Y-86678959D01*
G75*
G02*
X107678059Y-86828959I-150000J0D01*
G01*
X106278059Y-86828959D01*
G75*
G02*
X106128059Y-86678959I0J150000D01*
G01*
X106128059Y-86378959D01*
G75*
G02*
X106278059Y-86228959I150000J0D01*
G01*
X107678059Y-86228959D01*
G75*
G02*
X107828059Y-86378959I0J-150000D01*
G01*
G37*
G36*
G01*
X107828059Y-85108959D02*
X107828059Y-85408959D01*
G75*
G02*
X107678059Y-85558959I-150000J0D01*
G01*
X106278059Y-85558959D01*
G75*
G02*
X106128059Y-85408959I0J150000D01*
G01*
X106128059Y-85108959D01*
G75*
G02*
X106278059Y-84958959I150000J0D01*
G01*
X107678059Y-84958959D01*
G75*
G02*
X107828059Y-85108959I0J-150000D01*
G01*
G37*
G36*
G01*
X107828059Y-83838959D02*
X107828059Y-84138959D01*
G75*
G02*
X107678059Y-84288959I-150000J0D01*
G01*
X106278059Y-84288959D01*
G75*
G02*
X106128059Y-84138959I0J150000D01*
G01*
X106128059Y-83838959D01*
G75*
G02*
X106278059Y-83688959I150000J0D01*
G01*
X107678059Y-83688959D01*
G75*
G02*
X107828059Y-83838959I0J-150000D01*
G01*
G37*
G36*
G01*
X107828059Y-82568959D02*
X107828059Y-82868959D01*
G75*
G02*
X107678059Y-83018959I-150000J0D01*
G01*
X106278059Y-83018959D01*
G75*
G02*
X106128059Y-82868959I0J150000D01*
G01*
X106128059Y-82568959D01*
G75*
G02*
X106278059Y-82418959I150000J0D01*
G01*
X107678059Y-82418959D01*
G75*
G02*
X107828059Y-82568959I0J-150000D01*
G01*
G37*
G36*
G01*
X107828059Y-81298959D02*
X107828059Y-81598959D01*
G75*
G02*
X107678059Y-81748959I-150000J0D01*
G01*
X106278059Y-81748959D01*
G75*
G02*
X106128059Y-81598959I0J150000D01*
G01*
X106128059Y-81298959D01*
G75*
G02*
X106278059Y-81148959I150000J0D01*
G01*
X107678059Y-81148959D01*
G75*
G02*
X107828059Y-81298959I0J-150000D01*
G01*
G37*
G36*
G01*
X107828059Y-80028959D02*
X107828059Y-80328959D01*
G75*
G02*
X107678059Y-80478959I-150000J0D01*
G01*
X106278059Y-80478959D01*
G75*
G02*
X106128059Y-80328959I0J150000D01*
G01*
X106128059Y-80028959D01*
G75*
G02*
X106278059Y-79878959I150000J0D01*
G01*
X107678059Y-79878959D01*
G75*
G02*
X107828059Y-80028959I0J-150000D01*
G01*
G37*
G36*
G01*
X105628059Y-77828959D02*
X105628059Y-79228959D01*
G75*
G02*
X105478059Y-79378959I-150000J0D01*
G01*
X105178059Y-79378959D01*
G75*
G02*
X105028059Y-79228959I0J150000D01*
G01*
X105028059Y-77828959D01*
G75*
G02*
X105178059Y-77678959I150000J0D01*
G01*
X105478059Y-77678959D01*
G75*
G02*
X105628059Y-77828959I0J-150000D01*
G01*
G37*
G36*
G01*
X104358059Y-77828959D02*
X104358059Y-79228959D01*
G75*
G02*
X104208059Y-79378959I-150000J0D01*
G01*
X103908059Y-79378959D01*
G75*
G02*
X103758059Y-79228959I0J150000D01*
G01*
X103758059Y-77828959D01*
G75*
G02*
X103908059Y-77678959I150000J0D01*
G01*
X104208059Y-77678959D01*
G75*
G02*
X104358059Y-77828959I0J-150000D01*
G01*
G37*
G36*
G01*
X103088059Y-77828959D02*
X103088059Y-79228959D01*
G75*
G02*
X102938059Y-79378959I-150000J0D01*
G01*
X102638059Y-79378959D01*
G75*
G02*
X102488059Y-79228959I0J150000D01*
G01*
X102488059Y-77828959D01*
G75*
G02*
X102638059Y-77678959I150000J0D01*
G01*
X102938059Y-77678959D01*
G75*
G02*
X103088059Y-77828959I0J-150000D01*
G01*
G37*
G36*
G01*
X101818059Y-77828959D02*
X101818059Y-79228959D01*
G75*
G02*
X101668059Y-79378959I-150000J0D01*
G01*
X101368059Y-79378959D01*
G75*
G02*
X101218059Y-79228959I0J150000D01*
G01*
X101218059Y-77828959D01*
G75*
G02*
X101368059Y-77678959I150000J0D01*
G01*
X101668059Y-77678959D01*
G75*
G02*
X101818059Y-77828959I0J-150000D01*
G01*
G37*
G36*
G01*
X100548059Y-77828959D02*
X100548059Y-79228959D01*
G75*
G02*
X100398059Y-79378959I-150000J0D01*
G01*
X100098059Y-79378959D01*
G75*
G02*
X99948059Y-79228959I0J150000D01*
G01*
X99948059Y-77828959D01*
G75*
G02*
X100098059Y-77678959I150000J0D01*
G01*
X100398059Y-77678959D01*
G75*
G02*
X100548059Y-77828959I0J-150000D01*
G01*
G37*
G36*
G01*
X99278059Y-77828959D02*
X99278059Y-79228959D01*
G75*
G02*
X99128059Y-79378959I-150000J0D01*
G01*
X98828059Y-79378959D01*
G75*
G02*
X98678059Y-79228959I0J150000D01*
G01*
X98678059Y-77828959D01*
G75*
G02*
X98828059Y-77678959I150000J0D01*
G01*
X99128059Y-77678959D01*
G75*
G02*
X99278059Y-77828959I0J-150000D01*
G01*
G37*
%TD*%
%TO.C,F*%
G36*
G01*
X118328059Y-77828959D02*
X118328059Y-79228959D01*
G75*
G02*
X118178059Y-79378959I-150000J0D01*
G01*
X117878059Y-79378959D01*
G75*
G02*
X117728059Y-79228959I0J150000D01*
G01*
X117728059Y-77828959D01*
G75*
G02*
X117878059Y-77678959I150000J0D01*
G01*
X118178059Y-77678959D01*
G75*
G02*
X118328059Y-77828959I0J-150000D01*
G01*
G37*
G36*
G01*
X117058059Y-77828959D02*
X117058059Y-79228959D01*
G75*
G02*
X116908059Y-79378959I-150000J0D01*
G01*
X116608059Y-79378959D01*
G75*
G02*
X116458059Y-79228959I0J150000D01*
G01*
X116458059Y-77828959D01*
G75*
G02*
X116608059Y-77678959I150000J0D01*
G01*
X116908059Y-77678959D01*
G75*
G02*
X117058059Y-77828959I0J-150000D01*
G01*
G37*
G36*
G01*
X115788059Y-77828959D02*
X115788059Y-79228959D01*
G75*
G02*
X115638059Y-79378959I-150000J0D01*
G01*
X115338059Y-79378959D01*
G75*
G02*
X115188059Y-79228959I0J150000D01*
G01*
X115188059Y-77828959D01*
G75*
G02*
X115338059Y-77678959I150000J0D01*
G01*
X115638059Y-77678959D01*
G75*
G02*
X115788059Y-77828959I0J-150000D01*
G01*
G37*
G36*
G01*
X114518059Y-77828959D02*
X114518059Y-79228959D01*
G75*
G02*
X114368059Y-79378959I-150000J0D01*
G01*
X114068059Y-79378959D01*
G75*
G02*
X113918059Y-79228959I0J150000D01*
G01*
X113918059Y-77828959D01*
G75*
G02*
X114068059Y-77678959I150000J0D01*
G01*
X114368059Y-77678959D01*
G75*
G02*
X114518059Y-77828959I0J-150000D01*
G01*
G37*
G36*
G01*
X113248059Y-77828959D02*
X113248059Y-79228959D01*
G75*
G02*
X113098059Y-79378959I-150000J0D01*
G01*
X112798059Y-79378959D01*
G75*
G02*
X112648059Y-79228959I0J150000D01*
G01*
X112648059Y-77828959D01*
G75*
G02*
X112798059Y-77678959I150000J0D01*
G01*
X113098059Y-77678959D01*
G75*
G02*
X113248059Y-77828959I0J-150000D01*
G01*
G37*
G36*
G01*
X112148059Y-80028959D02*
X112148059Y-80328959D01*
G75*
G02*
X111998059Y-80478959I-150000J0D01*
G01*
X110598059Y-80478959D01*
G75*
G02*
X110448059Y-80328959I0J150000D01*
G01*
X110448059Y-80028959D01*
G75*
G02*
X110598059Y-79878959I150000J0D01*
G01*
X111998059Y-79878959D01*
G75*
G02*
X112148059Y-80028959I0J-150000D01*
G01*
G37*
G36*
G01*
X112148059Y-81298959D02*
X112148059Y-81598959D01*
G75*
G02*
X111998059Y-81748959I-150000J0D01*
G01*
X110598059Y-81748959D01*
G75*
G02*
X110448059Y-81598959I0J150000D01*
G01*
X110448059Y-81298959D01*
G75*
G02*
X110598059Y-81148959I150000J0D01*
G01*
X111998059Y-81148959D01*
G75*
G02*
X112148059Y-81298959I0J-150000D01*
G01*
G37*
G36*
G01*
X112148059Y-82568959D02*
X112148059Y-82868959D01*
G75*
G02*
X111998059Y-83018959I-150000J0D01*
G01*
X110598059Y-83018959D01*
G75*
G02*
X110448059Y-82868959I0J150000D01*
G01*
X110448059Y-82568959D01*
G75*
G02*
X110598059Y-82418959I150000J0D01*
G01*
X111998059Y-82418959D01*
G75*
G02*
X112148059Y-82568959I0J-150000D01*
G01*
G37*
G36*
G01*
X112148059Y-83838959D02*
X112148059Y-84138959D01*
G75*
G02*
X111998059Y-84288959I-150000J0D01*
G01*
X110598059Y-84288959D01*
G75*
G02*
X110448059Y-84138959I0J150000D01*
G01*
X110448059Y-83838959D01*
G75*
G02*
X110598059Y-83688959I150000J0D01*
G01*
X111998059Y-83688959D01*
G75*
G02*
X112148059Y-83838959I0J-150000D01*
G01*
G37*
G36*
G01*
X112148059Y-85108959D02*
X112148059Y-85408959D01*
G75*
G02*
X111998059Y-85558959I-150000J0D01*
G01*
X110598059Y-85558959D01*
G75*
G02*
X110448059Y-85408959I0J150000D01*
G01*
X110448059Y-85108959D01*
G75*
G02*
X110598059Y-84958959I150000J0D01*
G01*
X111998059Y-84958959D01*
G75*
G02*
X112148059Y-85108959I0J-150000D01*
G01*
G37*
G36*
G01*
X112148059Y-86378959D02*
X112148059Y-86678959D01*
G75*
G02*
X111998059Y-86828959I-150000J0D01*
G01*
X110598059Y-86828959D01*
G75*
G02*
X110448059Y-86678959I0J150000D01*
G01*
X110448059Y-86378959D01*
G75*
G02*
X110598059Y-86228959I150000J0D01*
G01*
X111998059Y-86228959D01*
G75*
G02*
X112148059Y-86378959I0J-150000D01*
G01*
G37*
G36*
G01*
X112148059Y-87648959D02*
X112148059Y-87948959D01*
G75*
G02*
X111998059Y-88098959I-150000J0D01*
G01*
X110598059Y-88098959D01*
G75*
G02*
X110448059Y-87948959I0J150000D01*
G01*
X110448059Y-87648959D01*
G75*
G02*
X110598059Y-87498959I150000J0D01*
G01*
X111998059Y-87498959D01*
G75*
G02*
X112148059Y-87648959I0J-150000D01*
G01*
G37*
G36*
G01*
X112148059Y-88918959D02*
X112148059Y-89218959D01*
G75*
G02*
X111998059Y-89368959I-150000J0D01*
G01*
X110598059Y-89368959D01*
G75*
G02*
X110448059Y-89218959I0J150000D01*
G01*
X110448059Y-88918959D01*
G75*
G02*
X110598059Y-88768959I150000J0D01*
G01*
X111998059Y-88768959D01*
G75*
G02*
X112148059Y-88918959I0J-150000D01*
G01*
G37*
G36*
G01*
X112148059Y-90188959D02*
X112148059Y-90488959D01*
G75*
G02*
X111998059Y-90638959I-150000J0D01*
G01*
X110598059Y-90638959D01*
G75*
G02*
X110448059Y-90488959I0J150000D01*
G01*
X110448059Y-90188959D01*
G75*
G02*
X110598059Y-90038959I150000J0D01*
G01*
X111998059Y-90038959D01*
G75*
G02*
X112148059Y-90188959I0J-150000D01*
G01*
G37*
G36*
G01*
X112148059Y-91458959D02*
X112148059Y-91758959D01*
G75*
G02*
X111998059Y-91908959I-150000J0D01*
G01*
X110598059Y-91908959D01*
G75*
G02*
X110448059Y-91758959I0J150000D01*
G01*
X110448059Y-91458959D01*
G75*
G02*
X110598059Y-91308959I150000J0D01*
G01*
X111998059Y-91308959D01*
G75*
G02*
X112148059Y-91458959I0J-150000D01*
G01*
G37*
G36*
G01*
X112148059Y-92728959D02*
X112148059Y-93028959D01*
G75*
G02*
X111998059Y-93178959I-150000J0D01*
G01*
X110598059Y-93178959D01*
G75*
G02*
X110448059Y-93028959I0J150000D01*
G01*
X110448059Y-92728959D01*
G75*
G02*
X110598059Y-92578959I150000J0D01*
G01*
X111998059Y-92578959D01*
G75*
G02*
X112148059Y-92728959I0J-150000D01*
G01*
G37*
G36*
G01*
X113248059Y-93828959D02*
X113248059Y-95228959D01*
G75*
G02*
X113098059Y-95378959I-150000J0D01*
G01*
X112798059Y-95378959D01*
G75*
G02*
X112648059Y-95228959I0J150000D01*
G01*
X112648059Y-93828959D01*
G75*
G02*
X112798059Y-93678959I150000J0D01*
G01*
X113098059Y-93678959D01*
G75*
G02*
X113248059Y-93828959I0J-150000D01*
G01*
G37*
G36*
G01*
X114518059Y-93828959D02*
X114518059Y-95228959D01*
G75*
G02*
X114368059Y-95378959I-150000J0D01*
G01*
X114068059Y-95378959D01*
G75*
G02*
X113918059Y-95228959I0J150000D01*
G01*
X113918059Y-93828959D01*
G75*
G02*
X114068059Y-93678959I150000J0D01*
G01*
X114368059Y-93678959D01*
G75*
G02*
X114518059Y-93828959I0J-150000D01*
G01*
G37*
G36*
G01*
X115788059Y-93828959D02*
X115788059Y-95228959D01*
G75*
G02*
X115638059Y-95378959I-150000J0D01*
G01*
X115338059Y-95378959D01*
G75*
G02*
X115188059Y-95228959I0J150000D01*
G01*
X115188059Y-93828959D01*
G75*
G02*
X115338059Y-93678959I150000J0D01*
G01*
X115638059Y-93678959D01*
G75*
G02*
X115788059Y-93828959I0J-150000D01*
G01*
G37*
G36*
G01*
X117058059Y-93828959D02*
X117058059Y-95228959D01*
G75*
G02*
X116908059Y-95378959I-150000J0D01*
G01*
X116608059Y-95378959D01*
G75*
G02*
X116458059Y-95228959I0J150000D01*
G01*
X116458059Y-93828959D01*
G75*
G02*
X116608059Y-93678959I150000J0D01*
G01*
X116908059Y-93678959D01*
G75*
G02*
X117058059Y-93828959I0J-150000D01*
G01*
G37*
G36*
G01*
X118328059Y-93828959D02*
X118328059Y-95228959D01*
G75*
G02*
X118178059Y-95378959I-150000J0D01*
G01*
X117878059Y-95378959D01*
G75*
G02*
X117728059Y-95228959I0J150000D01*
G01*
X117728059Y-93828959D01*
G75*
G02*
X117878059Y-93678959I150000J0D01*
G01*
X118178059Y-93678959D01*
G75*
G02*
X118328059Y-93828959I0J-150000D01*
G01*
G37*
G36*
G01*
X119598059Y-93828959D02*
X119598059Y-95228959D01*
G75*
G02*
X119448059Y-95378959I-150000J0D01*
G01*
X119148059Y-95378959D01*
G75*
G02*
X118998059Y-95228959I0J150000D01*
G01*
X118998059Y-93828959D01*
G75*
G02*
X119148059Y-93678959I150000J0D01*
G01*
X119448059Y-93678959D01*
G75*
G02*
X119598059Y-93828959I0J-150000D01*
G01*
G37*
G36*
G01*
X120868059Y-93828959D02*
X120868059Y-95228959D01*
G75*
G02*
X120718059Y-95378959I-150000J0D01*
G01*
X120418059Y-95378959D01*
G75*
G02*
X120268059Y-95228959I0J150000D01*
G01*
X120268059Y-93828959D01*
G75*
G02*
X120418059Y-93678959I150000J0D01*
G01*
X120718059Y-93678959D01*
G75*
G02*
X120868059Y-93828959I0J-150000D01*
G01*
G37*
G36*
G01*
X122138059Y-93828959D02*
X122138059Y-95228959D01*
G75*
G02*
X121988059Y-95378959I-150000J0D01*
G01*
X121688059Y-95378959D01*
G75*
G02*
X121538059Y-95228959I0J150000D01*
G01*
X121538059Y-93828959D01*
G75*
G02*
X121688059Y-93678959I150000J0D01*
G01*
X121988059Y-93678959D01*
G75*
G02*
X122138059Y-93828959I0J-150000D01*
G01*
G37*
G36*
G01*
X123408059Y-93828959D02*
X123408059Y-95228959D01*
G75*
G02*
X123258059Y-95378959I-150000J0D01*
G01*
X122958059Y-95378959D01*
G75*
G02*
X122808059Y-95228959I0J150000D01*
G01*
X122808059Y-93828959D01*
G75*
G02*
X122958059Y-93678959I150000J0D01*
G01*
X123258059Y-93678959D01*
G75*
G02*
X123408059Y-93828959I0J-150000D01*
G01*
G37*
G36*
G01*
X124678059Y-93828959D02*
X124678059Y-95228959D01*
G75*
G02*
X124528059Y-95378959I-150000J0D01*
G01*
X124228059Y-95378959D01*
G75*
G02*
X124078059Y-95228959I0J150000D01*
G01*
X124078059Y-93828959D01*
G75*
G02*
X124228059Y-93678959I150000J0D01*
G01*
X124528059Y-93678959D01*
G75*
G02*
X124678059Y-93828959I0J-150000D01*
G01*
G37*
G36*
G01*
X125948059Y-93828959D02*
X125948059Y-95228959D01*
G75*
G02*
X125798059Y-95378959I-150000J0D01*
G01*
X125498059Y-95378959D01*
G75*
G02*
X125348059Y-95228959I0J150000D01*
G01*
X125348059Y-93828959D01*
G75*
G02*
X125498059Y-93678959I150000J0D01*
G01*
X125798059Y-93678959D01*
G75*
G02*
X125948059Y-93828959I0J-150000D01*
G01*
G37*
G36*
G01*
X128148059Y-92728959D02*
X128148059Y-93028959D01*
G75*
G02*
X127998059Y-93178959I-150000J0D01*
G01*
X126598059Y-93178959D01*
G75*
G02*
X126448059Y-93028959I0J150000D01*
G01*
X126448059Y-92728959D01*
G75*
G02*
X126598059Y-92578959I150000J0D01*
G01*
X127998059Y-92578959D01*
G75*
G02*
X128148059Y-92728959I0J-150000D01*
G01*
G37*
G36*
G01*
X128148059Y-91458959D02*
X128148059Y-91758959D01*
G75*
G02*
X127998059Y-91908959I-150000J0D01*
G01*
X126598059Y-91908959D01*
G75*
G02*
X126448059Y-91758959I0J150000D01*
G01*
X126448059Y-91458959D01*
G75*
G02*
X126598059Y-91308959I150000J0D01*
G01*
X127998059Y-91308959D01*
G75*
G02*
X128148059Y-91458959I0J-150000D01*
G01*
G37*
G36*
G01*
X128148059Y-90188959D02*
X128148059Y-90488959D01*
G75*
G02*
X127998059Y-90638959I-150000J0D01*
G01*
X126598059Y-90638959D01*
G75*
G02*
X126448059Y-90488959I0J150000D01*
G01*
X126448059Y-90188959D01*
G75*
G02*
X126598059Y-90038959I150000J0D01*
G01*
X127998059Y-90038959D01*
G75*
G02*
X128148059Y-90188959I0J-150000D01*
G01*
G37*
G36*
G01*
X128148059Y-88918959D02*
X128148059Y-89218959D01*
G75*
G02*
X127998059Y-89368959I-150000J0D01*
G01*
X126598059Y-89368959D01*
G75*
G02*
X126448059Y-89218959I0J150000D01*
G01*
X126448059Y-88918959D01*
G75*
G02*
X126598059Y-88768959I150000J0D01*
G01*
X127998059Y-88768959D01*
G75*
G02*
X128148059Y-88918959I0J-150000D01*
G01*
G37*
G36*
G01*
X128148059Y-87648959D02*
X128148059Y-87948959D01*
G75*
G02*
X127998059Y-88098959I-150000J0D01*
G01*
X126598059Y-88098959D01*
G75*
G02*
X126448059Y-87948959I0J150000D01*
G01*
X126448059Y-87648959D01*
G75*
G02*
X126598059Y-87498959I150000J0D01*
G01*
X127998059Y-87498959D01*
G75*
G02*
X128148059Y-87648959I0J-150000D01*
G01*
G37*
G36*
G01*
X128148059Y-86378959D02*
X128148059Y-86678959D01*
G75*
G02*
X127998059Y-86828959I-150000J0D01*
G01*
X126598059Y-86828959D01*
G75*
G02*
X126448059Y-86678959I0J150000D01*
G01*
X126448059Y-86378959D01*
G75*
G02*
X126598059Y-86228959I150000J0D01*
G01*
X127998059Y-86228959D01*
G75*
G02*
X128148059Y-86378959I0J-150000D01*
G01*
G37*
G36*
G01*
X128148059Y-85108959D02*
X128148059Y-85408959D01*
G75*
G02*
X127998059Y-85558959I-150000J0D01*
G01*
X126598059Y-85558959D01*
G75*
G02*
X126448059Y-85408959I0J150000D01*
G01*
X126448059Y-85108959D01*
G75*
G02*
X126598059Y-84958959I150000J0D01*
G01*
X127998059Y-84958959D01*
G75*
G02*
X128148059Y-85108959I0J-150000D01*
G01*
G37*
G36*
G01*
X128148059Y-83838959D02*
X128148059Y-84138959D01*
G75*
G02*
X127998059Y-84288959I-150000J0D01*
G01*
X126598059Y-84288959D01*
G75*
G02*
X126448059Y-84138959I0J150000D01*
G01*
X126448059Y-83838959D01*
G75*
G02*
X126598059Y-83688959I150000J0D01*
G01*
X127998059Y-83688959D01*
G75*
G02*
X128148059Y-83838959I0J-150000D01*
G01*
G37*
G36*
G01*
X128148059Y-82568959D02*
X128148059Y-82868959D01*
G75*
G02*
X127998059Y-83018959I-150000J0D01*
G01*
X126598059Y-83018959D01*
G75*
G02*
X126448059Y-82868959I0J150000D01*
G01*
X126448059Y-82568959D01*
G75*
G02*
X126598059Y-82418959I150000J0D01*
G01*
X127998059Y-82418959D01*
G75*
G02*
X128148059Y-82568959I0J-150000D01*
G01*
G37*
G36*
G01*
X128148059Y-81298959D02*
X128148059Y-81598959D01*
G75*
G02*
X127998059Y-81748959I-150000J0D01*
G01*
X126598059Y-81748959D01*
G75*
G02*
X126448059Y-81598959I0J150000D01*
G01*
X126448059Y-81298959D01*
G75*
G02*
X126598059Y-81148959I150000J0D01*
G01*
X127998059Y-81148959D01*
G75*
G02*
X128148059Y-81298959I0J-150000D01*
G01*
G37*
G36*
G01*
X128148059Y-80028959D02*
X128148059Y-80328959D01*
G75*
G02*
X127998059Y-80478959I-150000J0D01*
G01*
X126598059Y-80478959D01*
G75*
G02*
X126448059Y-80328959I0J150000D01*
G01*
X126448059Y-80028959D01*
G75*
G02*
X126598059Y-79878959I150000J0D01*
G01*
X127998059Y-79878959D01*
G75*
G02*
X128148059Y-80028959I0J-150000D01*
G01*
G37*
G36*
G01*
X125948059Y-77828959D02*
X125948059Y-79228959D01*
G75*
G02*
X125798059Y-79378959I-150000J0D01*
G01*
X125498059Y-79378959D01*
G75*
G02*
X125348059Y-79228959I0J150000D01*
G01*
X125348059Y-77828959D01*
G75*
G02*
X125498059Y-77678959I150000J0D01*
G01*
X125798059Y-77678959D01*
G75*
G02*
X125948059Y-77828959I0J-150000D01*
G01*
G37*
G36*
G01*
X124678059Y-77828959D02*
X124678059Y-79228959D01*
G75*
G02*
X124528059Y-79378959I-150000J0D01*
G01*
X124228059Y-79378959D01*
G75*
G02*
X124078059Y-79228959I0J150000D01*
G01*
X124078059Y-77828959D01*
G75*
G02*
X124228059Y-77678959I150000J0D01*
G01*
X124528059Y-77678959D01*
G75*
G02*
X124678059Y-77828959I0J-150000D01*
G01*
G37*
G36*
G01*
X123408059Y-77828959D02*
X123408059Y-79228959D01*
G75*
G02*
X123258059Y-79378959I-150000J0D01*
G01*
X122958059Y-79378959D01*
G75*
G02*
X122808059Y-79228959I0J150000D01*
G01*
X122808059Y-77828959D01*
G75*
G02*
X122958059Y-77678959I150000J0D01*
G01*
X123258059Y-77678959D01*
G75*
G02*
X123408059Y-77828959I0J-150000D01*
G01*
G37*
G36*
G01*
X122138059Y-77828959D02*
X122138059Y-79228959D01*
G75*
G02*
X121988059Y-79378959I-150000J0D01*
G01*
X121688059Y-79378959D01*
G75*
G02*
X121538059Y-79228959I0J150000D01*
G01*
X121538059Y-77828959D01*
G75*
G02*
X121688059Y-77678959I150000J0D01*
G01*
X121988059Y-77678959D01*
G75*
G02*
X122138059Y-77828959I0J-150000D01*
G01*
G37*
G36*
G01*
X120868059Y-77828959D02*
X120868059Y-79228959D01*
G75*
G02*
X120718059Y-79378959I-150000J0D01*
G01*
X120418059Y-79378959D01*
G75*
G02*
X120268059Y-79228959I0J150000D01*
G01*
X120268059Y-77828959D01*
G75*
G02*
X120418059Y-77678959I150000J0D01*
G01*
X120718059Y-77678959D01*
G75*
G02*
X120868059Y-77828959I0J-150000D01*
G01*
G37*
G36*
G01*
X119598059Y-77828959D02*
X119598059Y-79228959D01*
G75*
G02*
X119448059Y-79378959I-150000J0D01*
G01*
X119148059Y-79378959D01*
G75*
G02*
X118998059Y-79228959I0J150000D01*
G01*
X118998059Y-77828959D01*
G75*
G02*
X119148059Y-77678959I150000J0D01*
G01*
X119448059Y-77678959D01*
G75*
G02*
X119598059Y-77828959I0J-150000D01*
G01*
G37*
%TD*%
%TO.C,E*%
G36*
G01*
X138013059Y-77955959D02*
X138013059Y-79355959D01*
G75*
G02*
X137863059Y-79505959I-150000J0D01*
G01*
X137563059Y-79505959D01*
G75*
G02*
X137413059Y-79355959I0J150000D01*
G01*
X137413059Y-77955959D01*
G75*
G02*
X137563059Y-77805959I150000J0D01*
G01*
X137863059Y-77805959D01*
G75*
G02*
X138013059Y-77955959I0J-150000D01*
G01*
G37*
G36*
G01*
X136743059Y-77955959D02*
X136743059Y-79355959D01*
G75*
G02*
X136593059Y-79505959I-150000J0D01*
G01*
X136293059Y-79505959D01*
G75*
G02*
X136143059Y-79355959I0J150000D01*
G01*
X136143059Y-77955959D01*
G75*
G02*
X136293059Y-77805959I150000J0D01*
G01*
X136593059Y-77805959D01*
G75*
G02*
X136743059Y-77955959I0J-150000D01*
G01*
G37*
G36*
G01*
X135473059Y-77955959D02*
X135473059Y-79355959D01*
G75*
G02*
X135323059Y-79505959I-150000J0D01*
G01*
X135023059Y-79505959D01*
G75*
G02*
X134873059Y-79355959I0J150000D01*
G01*
X134873059Y-77955959D01*
G75*
G02*
X135023059Y-77805959I150000J0D01*
G01*
X135323059Y-77805959D01*
G75*
G02*
X135473059Y-77955959I0J-150000D01*
G01*
G37*
G36*
G01*
X134203059Y-77955959D02*
X134203059Y-79355959D01*
G75*
G02*
X134053059Y-79505959I-150000J0D01*
G01*
X133753059Y-79505959D01*
G75*
G02*
X133603059Y-79355959I0J150000D01*
G01*
X133603059Y-77955959D01*
G75*
G02*
X133753059Y-77805959I150000J0D01*
G01*
X134053059Y-77805959D01*
G75*
G02*
X134203059Y-77955959I0J-150000D01*
G01*
G37*
G36*
G01*
X132933059Y-77955959D02*
X132933059Y-79355959D01*
G75*
G02*
X132783059Y-79505959I-150000J0D01*
G01*
X132483059Y-79505959D01*
G75*
G02*
X132333059Y-79355959I0J150000D01*
G01*
X132333059Y-77955959D01*
G75*
G02*
X132483059Y-77805959I150000J0D01*
G01*
X132783059Y-77805959D01*
G75*
G02*
X132933059Y-77955959I0J-150000D01*
G01*
G37*
G36*
G01*
X131833059Y-80155959D02*
X131833059Y-80455959D01*
G75*
G02*
X131683059Y-80605959I-150000J0D01*
G01*
X130283059Y-80605959D01*
G75*
G02*
X130133059Y-80455959I0J150000D01*
G01*
X130133059Y-80155959D01*
G75*
G02*
X130283059Y-80005959I150000J0D01*
G01*
X131683059Y-80005959D01*
G75*
G02*
X131833059Y-80155959I0J-150000D01*
G01*
G37*
G36*
G01*
X131833059Y-81425959D02*
X131833059Y-81725959D01*
G75*
G02*
X131683059Y-81875959I-150000J0D01*
G01*
X130283059Y-81875959D01*
G75*
G02*
X130133059Y-81725959I0J150000D01*
G01*
X130133059Y-81425959D01*
G75*
G02*
X130283059Y-81275959I150000J0D01*
G01*
X131683059Y-81275959D01*
G75*
G02*
X131833059Y-81425959I0J-150000D01*
G01*
G37*
G36*
G01*
X131833059Y-82695959D02*
X131833059Y-82995959D01*
G75*
G02*
X131683059Y-83145959I-150000J0D01*
G01*
X130283059Y-83145959D01*
G75*
G02*
X130133059Y-82995959I0J150000D01*
G01*
X130133059Y-82695959D01*
G75*
G02*
X130283059Y-82545959I150000J0D01*
G01*
X131683059Y-82545959D01*
G75*
G02*
X131833059Y-82695959I0J-150000D01*
G01*
G37*
G36*
G01*
X131833059Y-83965959D02*
X131833059Y-84265959D01*
G75*
G02*
X131683059Y-84415959I-150000J0D01*
G01*
X130283059Y-84415959D01*
G75*
G02*
X130133059Y-84265959I0J150000D01*
G01*
X130133059Y-83965959D01*
G75*
G02*
X130283059Y-83815959I150000J0D01*
G01*
X131683059Y-83815959D01*
G75*
G02*
X131833059Y-83965959I0J-150000D01*
G01*
G37*
G36*
G01*
X131833059Y-85235959D02*
X131833059Y-85535959D01*
G75*
G02*
X131683059Y-85685959I-150000J0D01*
G01*
X130283059Y-85685959D01*
G75*
G02*
X130133059Y-85535959I0J150000D01*
G01*
X130133059Y-85235959D01*
G75*
G02*
X130283059Y-85085959I150000J0D01*
G01*
X131683059Y-85085959D01*
G75*
G02*
X131833059Y-85235959I0J-150000D01*
G01*
G37*
G36*
G01*
X131833059Y-86505959D02*
X131833059Y-86805959D01*
G75*
G02*
X131683059Y-86955959I-150000J0D01*
G01*
X130283059Y-86955959D01*
G75*
G02*
X130133059Y-86805959I0J150000D01*
G01*
X130133059Y-86505959D01*
G75*
G02*
X130283059Y-86355959I150000J0D01*
G01*
X131683059Y-86355959D01*
G75*
G02*
X131833059Y-86505959I0J-150000D01*
G01*
G37*
G36*
G01*
X131833059Y-87775959D02*
X131833059Y-88075959D01*
G75*
G02*
X131683059Y-88225959I-150000J0D01*
G01*
X130283059Y-88225959D01*
G75*
G02*
X130133059Y-88075959I0J150000D01*
G01*
X130133059Y-87775959D01*
G75*
G02*
X130283059Y-87625959I150000J0D01*
G01*
X131683059Y-87625959D01*
G75*
G02*
X131833059Y-87775959I0J-150000D01*
G01*
G37*
G36*
G01*
X131833059Y-89045959D02*
X131833059Y-89345959D01*
G75*
G02*
X131683059Y-89495959I-150000J0D01*
G01*
X130283059Y-89495959D01*
G75*
G02*
X130133059Y-89345959I0J150000D01*
G01*
X130133059Y-89045959D01*
G75*
G02*
X130283059Y-88895959I150000J0D01*
G01*
X131683059Y-88895959D01*
G75*
G02*
X131833059Y-89045959I0J-150000D01*
G01*
G37*
G36*
G01*
X131833059Y-90315959D02*
X131833059Y-90615959D01*
G75*
G02*
X131683059Y-90765959I-150000J0D01*
G01*
X130283059Y-90765959D01*
G75*
G02*
X130133059Y-90615959I0J150000D01*
G01*
X130133059Y-90315959D01*
G75*
G02*
X130283059Y-90165959I150000J0D01*
G01*
X131683059Y-90165959D01*
G75*
G02*
X131833059Y-90315959I0J-150000D01*
G01*
G37*
G36*
G01*
X131833059Y-91585959D02*
X131833059Y-91885959D01*
G75*
G02*
X131683059Y-92035959I-150000J0D01*
G01*
X130283059Y-92035959D01*
G75*
G02*
X130133059Y-91885959I0J150000D01*
G01*
X130133059Y-91585959D01*
G75*
G02*
X130283059Y-91435959I150000J0D01*
G01*
X131683059Y-91435959D01*
G75*
G02*
X131833059Y-91585959I0J-150000D01*
G01*
G37*
G36*
G01*
X131833059Y-92855959D02*
X131833059Y-93155959D01*
G75*
G02*
X131683059Y-93305959I-150000J0D01*
G01*
X130283059Y-93305959D01*
G75*
G02*
X130133059Y-93155959I0J150000D01*
G01*
X130133059Y-92855959D01*
G75*
G02*
X130283059Y-92705959I150000J0D01*
G01*
X131683059Y-92705959D01*
G75*
G02*
X131833059Y-92855959I0J-150000D01*
G01*
G37*
G36*
G01*
X132933059Y-93955959D02*
X132933059Y-95355959D01*
G75*
G02*
X132783059Y-95505959I-150000J0D01*
G01*
X132483059Y-95505959D01*
G75*
G02*
X132333059Y-95355959I0J150000D01*
G01*
X132333059Y-93955959D01*
G75*
G02*
X132483059Y-93805959I150000J0D01*
G01*
X132783059Y-93805959D01*
G75*
G02*
X132933059Y-93955959I0J-150000D01*
G01*
G37*
G36*
G01*
X134203059Y-93955959D02*
X134203059Y-95355959D01*
G75*
G02*
X134053059Y-95505959I-150000J0D01*
G01*
X133753059Y-95505959D01*
G75*
G02*
X133603059Y-95355959I0J150000D01*
G01*
X133603059Y-93955959D01*
G75*
G02*
X133753059Y-93805959I150000J0D01*
G01*
X134053059Y-93805959D01*
G75*
G02*
X134203059Y-93955959I0J-150000D01*
G01*
G37*
G36*
G01*
X135473059Y-93955959D02*
X135473059Y-95355959D01*
G75*
G02*
X135323059Y-95505959I-150000J0D01*
G01*
X135023059Y-95505959D01*
G75*
G02*
X134873059Y-95355959I0J150000D01*
G01*
X134873059Y-93955959D01*
G75*
G02*
X135023059Y-93805959I150000J0D01*
G01*
X135323059Y-93805959D01*
G75*
G02*
X135473059Y-93955959I0J-150000D01*
G01*
G37*
G36*
G01*
X136743059Y-93955959D02*
X136743059Y-95355959D01*
G75*
G02*
X136593059Y-95505959I-150000J0D01*
G01*
X136293059Y-95505959D01*
G75*
G02*
X136143059Y-95355959I0J150000D01*
G01*
X136143059Y-93955959D01*
G75*
G02*
X136293059Y-93805959I150000J0D01*
G01*
X136593059Y-93805959D01*
G75*
G02*
X136743059Y-93955959I0J-150000D01*
G01*
G37*
G36*
G01*
X138013059Y-93955959D02*
X138013059Y-95355959D01*
G75*
G02*
X137863059Y-95505959I-150000J0D01*
G01*
X137563059Y-95505959D01*
G75*
G02*
X137413059Y-95355959I0J150000D01*
G01*
X137413059Y-93955959D01*
G75*
G02*
X137563059Y-93805959I150000J0D01*
G01*
X137863059Y-93805959D01*
G75*
G02*
X138013059Y-93955959I0J-150000D01*
G01*
G37*
G36*
G01*
X139283059Y-93955959D02*
X139283059Y-95355959D01*
G75*
G02*
X139133059Y-95505959I-150000J0D01*
G01*
X138833059Y-95505959D01*
G75*
G02*
X138683059Y-95355959I0J150000D01*
G01*
X138683059Y-93955959D01*
G75*
G02*
X138833059Y-93805959I150000J0D01*
G01*
X139133059Y-93805959D01*
G75*
G02*
X139283059Y-93955959I0J-150000D01*
G01*
G37*
G36*
G01*
X140553059Y-93955959D02*
X140553059Y-95355959D01*
G75*
G02*
X140403059Y-95505959I-150000J0D01*
G01*
X140103059Y-95505959D01*
G75*
G02*
X139953059Y-95355959I0J150000D01*
G01*
X139953059Y-93955959D01*
G75*
G02*
X140103059Y-93805959I150000J0D01*
G01*
X140403059Y-93805959D01*
G75*
G02*
X140553059Y-93955959I0J-150000D01*
G01*
G37*
G36*
G01*
X141823059Y-93955959D02*
X141823059Y-95355959D01*
G75*
G02*
X141673059Y-95505959I-150000J0D01*
G01*
X141373059Y-95505959D01*
G75*
G02*
X141223059Y-95355959I0J150000D01*
G01*
X141223059Y-93955959D01*
G75*
G02*
X141373059Y-93805959I150000J0D01*
G01*
X141673059Y-93805959D01*
G75*
G02*
X141823059Y-93955959I0J-150000D01*
G01*
G37*
G36*
G01*
X143093059Y-93955959D02*
X143093059Y-95355959D01*
G75*
G02*
X142943059Y-95505959I-150000J0D01*
G01*
X142643059Y-95505959D01*
G75*
G02*
X142493059Y-95355959I0J150000D01*
G01*
X142493059Y-93955959D01*
G75*
G02*
X142643059Y-93805959I150000J0D01*
G01*
X142943059Y-93805959D01*
G75*
G02*
X143093059Y-93955959I0J-150000D01*
G01*
G37*
G36*
G01*
X144363059Y-93955959D02*
X144363059Y-95355959D01*
G75*
G02*
X144213059Y-95505959I-150000J0D01*
G01*
X143913059Y-95505959D01*
G75*
G02*
X143763059Y-95355959I0J150000D01*
G01*
X143763059Y-93955959D01*
G75*
G02*
X143913059Y-93805959I150000J0D01*
G01*
X144213059Y-93805959D01*
G75*
G02*
X144363059Y-93955959I0J-150000D01*
G01*
G37*
G36*
G01*
X145633059Y-93955959D02*
X145633059Y-95355959D01*
G75*
G02*
X145483059Y-95505959I-150000J0D01*
G01*
X145183059Y-95505959D01*
G75*
G02*
X145033059Y-95355959I0J150000D01*
G01*
X145033059Y-93955959D01*
G75*
G02*
X145183059Y-93805959I150000J0D01*
G01*
X145483059Y-93805959D01*
G75*
G02*
X145633059Y-93955959I0J-150000D01*
G01*
G37*
G36*
G01*
X147833059Y-92855959D02*
X147833059Y-93155959D01*
G75*
G02*
X147683059Y-93305959I-150000J0D01*
G01*
X146283059Y-93305959D01*
G75*
G02*
X146133059Y-93155959I0J150000D01*
G01*
X146133059Y-92855959D01*
G75*
G02*
X146283059Y-92705959I150000J0D01*
G01*
X147683059Y-92705959D01*
G75*
G02*
X147833059Y-92855959I0J-150000D01*
G01*
G37*
G36*
G01*
X147833059Y-91585959D02*
X147833059Y-91885959D01*
G75*
G02*
X147683059Y-92035959I-150000J0D01*
G01*
X146283059Y-92035959D01*
G75*
G02*
X146133059Y-91885959I0J150000D01*
G01*
X146133059Y-91585959D01*
G75*
G02*
X146283059Y-91435959I150000J0D01*
G01*
X147683059Y-91435959D01*
G75*
G02*
X147833059Y-91585959I0J-150000D01*
G01*
G37*
G36*
G01*
X147833059Y-90315959D02*
X147833059Y-90615959D01*
G75*
G02*
X147683059Y-90765959I-150000J0D01*
G01*
X146283059Y-90765959D01*
G75*
G02*
X146133059Y-90615959I0J150000D01*
G01*
X146133059Y-90315959D01*
G75*
G02*
X146283059Y-90165959I150000J0D01*
G01*
X147683059Y-90165959D01*
G75*
G02*
X147833059Y-90315959I0J-150000D01*
G01*
G37*
G36*
G01*
X147833059Y-89045959D02*
X147833059Y-89345959D01*
G75*
G02*
X147683059Y-89495959I-150000J0D01*
G01*
X146283059Y-89495959D01*
G75*
G02*
X146133059Y-89345959I0J150000D01*
G01*
X146133059Y-89045959D01*
G75*
G02*
X146283059Y-88895959I150000J0D01*
G01*
X147683059Y-88895959D01*
G75*
G02*
X147833059Y-89045959I0J-150000D01*
G01*
G37*
G36*
G01*
X147833059Y-87775959D02*
X147833059Y-88075959D01*
G75*
G02*
X147683059Y-88225959I-150000J0D01*
G01*
X146283059Y-88225959D01*
G75*
G02*
X146133059Y-88075959I0J150000D01*
G01*
X146133059Y-87775959D01*
G75*
G02*
X146283059Y-87625959I150000J0D01*
G01*
X147683059Y-87625959D01*
G75*
G02*
X147833059Y-87775959I0J-150000D01*
G01*
G37*
G36*
G01*
X147833059Y-86505959D02*
X147833059Y-86805959D01*
G75*
G02*
X147683059Y-86955959I-150000J0D01*
G01*
X146283059Y-86955959D01*
G75*
G02*
X146133059Y-86805959I0J150000D01*
G01*
X146133059Y-86505959D01*
G75*
G02*
X146283059Y-86355959I150000J0D01*
G01*
X147683059Y-86355959D01*
G75*
G02*
X147833059Y-86505959I0J-150000D01*
G01*
G37*
G36*
G01*
X147833059Y-85235959D02*
X147833059Y-85535959D01*
G75*
G02*
X147683059Y-85685959I-150000J0D01*
G01*
X146283059Y-85685959D01*
G75*
G02*
X146133059Y-85535959I0J150000D01*
G01*
X146133059Y-85235959D01*
G75*
G02*
X146283059Y-85085959I150000J0D01*
G01*
X147683059Y-85085959D01*
G75*
G02*
X147833059Y-85235959I0J-150000D01*
G01*
G37*
G36*
G01*
X147833059Y-83965959D02*
X147833059Y-84265959D01*
G75*
G02*
X147683059Y-84415959I-150000J0D01*
G01*
X146283059Y-84415959D01*
G75*
G02*
X146133059Y-84265959I0J150000D01*
G01*
X146133059Y-83965959D01*
G75*
G02*
X146283059Y-83815959I150000J0D01*
G01*
X147683059Y-83815959D01*
G75*
G02*
X147833059Y-83965959I0J-150000D01*
G01*
G37*
G36*
G01*
X147833059Y-82695959D02*
X147833059Y-82995959D01*
G75*
G02*
X147683059Y-83145959I-150000J0D01*
G01*
X146283059Y-83145959D01*
G75*
G02*
X146133059Y-82995959I0J150000D01*
G01*
X146133059Y-82695959D01*
G75*
G02*
X146283059Y-82545959I150000J0D01*
G01*
X147683059Y-82545959D01*
G75*
G02*
X147833059Y-82695959I0J-150000D01*
G01*
G37*
G36*
G01*
X147833059Y-81425959D02*
X147833059Y-81725959D01*
G75*
G02*
X147683059Y-81875959I-150000J0D01*
G01*
X146283059Y-81875959D01*
G75*
G02*
X146133059Y-81725959I0J150000D01*
G01*
X146133059Y-81425959D01*
G75*
G02*
X146283059Y-81275959I150000J0D01*
G01*
X147683059Y-81275959D01*
G75*
G02*
X147833059Y-81425959I0J-150000D01*
G01*
G37*
G36*
G01*
X147833059Y-80155959D02*
X147833059Y-80455959D01*
G75*
G02*
X147683059Y-80605959I-150000J0D01*
G01*
X146283059Y-80605959D01*
G75*
G02*
X146133059Y-80455959I0J150000D01*
G01*
X146133059Y-80155959D01*
G75*
G02*
X146283059Y-80005959I150000J0D01*
G01*
X147683059Y-80005959D01*
G75*
G02*
X147833059Y-80155959I0J-150000D01*
G01*
G37*
G36*
G01*
X145633059Y-77955959D02*
X145633059Y-79355959D01*
G75*
G02*
X145483059Y-79505959I-150000J0D01*
G01*
X145183059Y-79505959D01*
G75*
G02*
X145033059Y-79355959I0J150000D01*
G01*
X145033059Y-77955959D01*
G75*
G02*
X145183059Y-77805959I150000J0D01*
G01*
X145483059Y-77805959D01*
G75*
G02*
X145633059Y-77955959I0J-150000D01*
G01*
G37*
G36*
G01*
X144363059Y-77955959D02*
X144363059Y-79355959D01*
G75*
G02*
X144213059Y-79505959I-150000J0D01*
G01*
X143913059Y-79505959D01*
G75*
G02*
X143763059Y-79355959I0J150000D01*
G01*
X143763059Y-77955959D01*
G75*
G02*
X143913059Y-77805959I150000J0D01*
G01*
X144213059Y-77805959D01*
G75*
G02*
X144363059Y-77955959I0J-150000D01*
G01*
G37*
G36*
G01*
X143093059Y-77955959D02*
X143093059Y-79355959D01*
G75*
G02*
X142943059Y-79505959I-150000J0D01*
G01*
X142643059Y-79505959D01*
G75*
G02*
X142493059Y-79355959I0J150000D01*
G01*
X142493059Y-77955959D01*
G75*
G02*
X142643059Y-77805959I150000J0D01*
G01*
X142943059Y-77805959D01*
G75*
G02*
X143093059Y-77955959I0J-150000D01*
G01*
G37*
G36*
G01*
X141823059Y-77955959D02*
X141823059Y-79355959D01*
G75*
G02*
X141673059Y-79505959I-150000J0D01*
G01*
X141373059Y-79505959D01*
G75*
G02*
X141223059Y-79355959I0J150000D01*
G01*
X141223059Y-77955959D01*
G75*
G02*
X141373059Y-77805959I150000J0D01*
G01*
X141673059Y-77805959D01*
G75*
G02*
X141823059Y-77955959I0J-150000D01*
G01*
G37*
G36*
G01*
X140553059Y-77955959D02*
X140553059Y-79355959D01*
G75*
G02*
X140403059Y-79505959I-150000J0D01*
G01*
X140103059Y-79505959D01*
G75*
G02*
X139953059Y-79355959I0J150000D01*
G01*
X139953059Y-77955959D01*
G75*
G02*
X140103059Y-77805959I150000J0D01*
G01*
X140403059Y-77805959D01*
G75*
G02*
X140553059Y-77955959I0J-150000D01*
G01*
G37*
G36*
G01*
X139283059Y-77955959D02*
X139283059Y-79355959D01*
G75*
G02*
X139133059Y-79505959I-150000J0D01*
G01*
X138833059Y-79505959D01*
G75*
G02*
X138683059Y-79355959I0J150000D01*
G01*
X138683059Y-77955959D01*
G75*
G02*
X138833059Y-77805959I150000J0D01*
G01*
X139133059Y-77805959D01*
G75*
G02*
X139283059Y-77955959I0J-150000D01*
G01*
G37*
%TD*%
%TO.C,D8*%
G36*
G01*
X137908059Y-96638959D02*
X137908059Y-98008959D01*
G75*
G02*
X137718059Y-98198959I-190000J0D01*
G01*
X137148059Y-98198959D01*
G75*
G02*
X136958059Y-98008959I0J190000D01*
G01*
X136958059Y-96638959D01*
G75*
G02*
X137148059Y-96448959I190000J0D01*
G01*
X137718059Y-96448959D01*
G75*
G02*
X137908059Y-96638959I0J-190000D01*
G01*
G37*
G36*
G01*
X141008059Y-96638959D02*
X141008059Y-98008959D01*
G75*
G02*
X140818059Y-98198959I-190000J0D01*
G01*
X140248059Y-98198959D01*
G75*
G02*
X140058059Y-98008959I0J190000D01*
G01*
X140058059Y-96638959D01*
G75*
G02*
X140248059Y-96448959I190000J0D01*
G01*
X140818059Y-96448959D01*
G75*
G02*
X141008059Y-96638959I0J-190000D01*
G01*
G37*
%TD*%
%TO.C,D7*%
G36*
G01*
X78218059Y-96638959D02*
X78218059Y-98008959D01*
G75*
G02*
X78028059Y-98198959I-190000J0D01*
G01*
X77458059Y-98198959D01*
G75*
G02*
X77268059Y-98008959I0J190000D01*
G01*
X77268059Y-96638959D01*
G75*
G02*
X77458059Y-96448959I190000J0D01*
G01*
X78028059Y-96448959D01*
G75*
G02*
X78218059Y-96638959I0J-190000D01*
G01*
G37*
G36*
G01*
X81318059Y-96638959D02*
X81318059Y-98008959D01*
G75*
G02*
X81128059Y-98198959I-190000J0D01*
G01*
X80558059Y-98198959D01*
G75*
G02*
X80368059Y-98008959I0J190000D01*
G01*
X80368059Y-96638959D01*
G75*
G02*
X80558059Y-96448959I190000J0D01*
G01*
X81128059Y-96448959D01*
G75*
G02*
X81318059Y-96638959I0J-190000D01*
G01*
G37*
%TD*%
%TO.C,D6*%
G36*
G01*
X97903059Y-96638959D02*
X97903059Y-98008959D01*
G75*
G02*
X97713059Y-98198959I-190000J0D01*
G01*
X97143059Y-98198959D01*
G75*
G02*
X96953059Y-98008959I0J190000D01*
G01*
X96953059Y-96638959D01*
G75*
G02*
X97143059Y-96448959I190000J0D01*
G01*
X97713059Y-96448959D01*
G75*
G02*
X97903059Y-96638959I0J-190000D01*
G01*
G37*
G36*
G01*
X101003059Y-96638959D02*
X101003059Y-98008959D01*
G75*
G02*
X100813059Y-98198959I-190000J0D01*
G01*
X100243059Y-98198959D01*
G75*
G02*
X100053059Y-98008959I0J190000D01*
G01*
X100053059Y-96638959D01*
G75*
G02*
X100243059Y-96448959I190000J0D01*
G01*
X100813059Y-96448959D01*
G75*
G02*
X101003059Y-96638959I0J-190000D01*
G01*
G37*
%TD*%
%TO.C,D5*%
G36*
G01*
X118223059Y-96638959D02*
X118223059Y-98008959D01*
G75*
G02*
X118033059Y-98198959I-190000J0D01*
G01*
X117463059Y-98198959D01*
G75*
G02*
X117273059Y-98008959I0J190000D01*
G01*
X117273059Y-96638959D01*
G75*
G02*
X117463059Y-96448959I190000J0D01*
G01*
X118033059Y-96448959D01*
G75*
G02*
X118223059Y-96638959I0J-190000D01*
G01*
G37*
G36*
G01*
X121323059Y-96638959D02*
X121323059Y-98008959D01*
G75*
G02*
X121133059Y-98198959I-190000J0D01*
G01*
X120563059Y-98198959D01*
G75*
G02*
X120373059Y-98008959I0J190000D01*
G01*
X120373059Y-96638959D01*
G75*
G02*
X120563059Y-96448959I190000J0D01*
G01*
X121133059Y-96448959D01*
G75*
G02*
X121323059Y-96638959I0J-190000D01*
G01*
G37*
%TD*%
%TO.C,D4*%
G36*
G01*
X100053059Y-47208959D02*
X100053059Y-45838959D01*
G75*
G02*
X100243059Y-45648959I190000J0D01*
G01*
X100813059Y-45648959D01*
G75*
G02*
X101003059Y-45838959I0J-190000D01*
G01*
X101003059Y-47208959D01*
G75*
G02*
X100813059Y-47398959I-190000J0D01*
G01*
X100243059Y-47398959D01*
G75*
G02*
X100053059Y-47208959I0J190000D01*
G01*
G37*
G36*
G01*
X96953059Y-47208959D02*
X96953059Y-45838959D01*
G75*
G02*
X97143059Y-45648959I190000J0D01*
G01*
X97713059Y-45648959D01*
G75*
G02*
X97903059Y-45838959I0J-190000D01*
G01*
X97903059Y-47208959D01*
G75*
G02*
X97713059Y-47398959I-190000J0D01*
G01*
X97143059Y-47398959D01*
G75*
G02*
X96953059Y-47208959I0J190000D01*
G01*
G37*
%TD*%
%TO.C,D3*%
G36*
G01*
X140058059Y-47208959D02*
X140058059Y-45838959D01*
G75*
G02*
X140248059Y-45648959I190000J0D01*
G01*
X140818059Y-45648959D01*
G75*
G02*
X141008059Y-45838959I0J-190000D01*
G01*
X141008059Y-47208959D01*
G75*
G02*
X140818059Y-47398959I-190000J0D01*
G01*
X140248059Y-47398959D01*
G75*
G02*
X140058059Y-47208959I0J190000D01*
G01*
G37*
G36*
G01*
X136958059Y-47208959D02*
X136958059Y-45838959D01*
G75*
G02*
X137148059Y-45648959I190000J0D01*
G01*
X137718059Y-45648959D01*
G75*
G02*
X137908059Y-45838959I0J-190000D01*
G01*
X137908059Y-47208959D01*
G75*
G02*
X137718059Y-47398959I-190000J0D01*
G01*
X137148059Y-47398959D01*
G75*
G02*
X136958059Y-47208959I0J190000D01*
G01*
G37*
%TD*%
%TO.C,D2*%
G36*
G01*
X120373059Y-47208959D02*
X120373059Y-45838959D01*
G75*
G02*
X120563059Y-45648959I190000J0D01*
G01*
X121133059Y-45648959D01*
G75*
G02*
X121323059Y-45838959I0J-190000D01*
G01*
X121323059Y-47208959D01*
G75*
G02*
X121133059Y-47398959I-190000J0D01*
G01*
X120563059Y-47398959D01*
G75*
G02*
X120373059Y-47208959I0J190000D01*
G01*
G37*
G36*
G01*
X117273059Y-47208959D02*
X117273059Y-45838959D01*
G75*
G02*
X117463059Y-45648959I190000J0D01*
G01*
X118033059Y-45648959D01*
G75*
G02*
X118223059Y-45838959I0J-190000D01*
G01*
X118223059Y-47208959D01*
G75*
G02*
X118033059Y-47398959I-190000J0D01*
G01*
X117463059Y-47398959D01*
G75*
G02*
X117273059Y-47208959I0J190000D01*
G01*
G37*
%TD*%
%TO.C,D1*%
G36*
G01*
X80368059Y-47208959D02*
X80368059Y-45838959D01*
G75*
G02*
X80558059Y-45648959I190000J0D01*
G01*
X81128059Y-45648959D01*
G75*
G02*
X81318059Y-45838959I0J-190000D01*
G01*
X81318059Y-47208959D01*
G75*
G02*
X81128059Y-47398959I-190000J0D01*
G01*
X80558059Y-47398959D01*
G75*
G02*
X80368059Y-47208959I0J190000D01*
G01*
G37*
G36*
G01*
X77268059Y-47208959D02*
X77268059Y-45838959D01*
G75*
G02*
X77458059Y-45648959I190000J0D01*
G01*
X78028059Y-45648959D01*
G75*
G02*
X78218059Y-45838959I0J-190000D01*
G01*
X78218059Y-47208959D01*
G75*
G02*
X78028059Y-47398959I-190000J0D01*
G01*
X77458059Y-47398959D01*
G75*
G02*
X77268059Y-47208959I0J190000D01*
G01*
G37*
%TD*%
%TO.C,D*%
G36*
G01*
X138013059Y-48450000D02*
X138013059Y-49850000D01*
G75*
G02*
X137863059Y-50000000I-150000J0D01*
G01*
X137563059Y-50000000D01*
G75*
G02*
X137413059Y-49850000I0J150000D01*
G01*
X137413059Y-48450000D01*
G75*
G02*
X137563059Y-48300000I150000J0D01*
G01*
X137863059Y-48300000D01*
G75*
G02*
X138013059Y-48450000I0J-150000D01*
G01*
G37*
G36*
G01*
X136743059Y-48450000D02*
X136743059Y-49850000D01*
G75*
G02*
X136593059Y-50000000I-150000J0D01*
G01*
X136293059Y-50000000D01*
G75*
G02*
X136143059Y-49850000I0J150000D01*
G01*
X136143059Y-48450000D01*
G75*
G02*
X136293059Y-48300000I150000J0D01*
G01*
X136593059Y-48300000D01*
G75*
G02*
X136743059Y-48450000I0J-150000D01*
G01*
G37*
G36*
G01*
X135473059Y-48450000D02*
X135473059Y-49850000D01*
G75*
G02*
X135323059Y-50000000I-150000J0D01*
G01*
X135023059Y-50000000D01*
G75*
G02*
X134873059Y-49850000I0J150000D01*
G01*
X134873059Y-48450000D01*
G75*
G02*
X135023059Y-48300000I150000J0D01*
G01*
X135323059Y-48300000D01*
G75*
G02*
X135473059Y-48450000I0J-150000D01*
G01*
G37*
G36*
G01*
X134203059Y-48450000D02*
X134203059Y-49850000D01*
G75*
G02*
X134053059Y-50000000I-150000J0D01*
G01*
X133753059Y-50000000D01*
G75*
G02*
X133603059Y-49850000I0J150000D01*
G01*
X133603059Y-48450000D01*
G75*
G02*
X133753059Y-48300000I150000J0D01*
G01*
X134053059Y-48300000D01*
G75*
G02*
X134203059Y-48450000I0J-150000D01*
G01*
G37*
G36*
G01*
X132933059Y-48450000D02*
X132933059Y-49850000D01*
G75*
G02*
X132783059Y-50000000I-150000J0D01*
G01*
X132483059Y-50000000D01*
G75*
G02*
X132333059Y-49850000I0J150000D01*
G01*
X132333059Y-48450000D01*
G75*
G02*
X132483059Y-48300000I150000J0D01*
G01*
X132783059Y-48300000D01*
G75*
G02*
X132933059Y-48450000I0J-150000D01*
G01*
G37*
G36*
G01*
X131833059Y-50650000D02*
X131833059Y-50950000D01*
G75*
G02*
X131683059Y-51100000I-150000J0D01*
G01*
X130283059Y-51100000D01*
G75*
G02*
X130133059Y-50950000I0J150000D01*
G01*
X130133059Y-50650000D01*
G75*
G02*
X130283059Y-50500000I150000J0D01*
G01*
X131683059Y-50500000D01*
G75*
G02*
X131833059Y-50650000I0J-150000D01*
G01*
G37*
G36*
G01*
X131833059Y-51920000D02*
X131833059Y-52220000D01*
G75*
G02*
X131683059Y-52370000I-150000J0D01*
G01*
X130283059Y-52370000D01*
G75*
G02*
X130133059Y-52220000I0J150000D01*
G01*
X130133059Y-51920000D01*
G75*
G02*
X130283059Y-51770000I150000J0D01*
G01*
X131683059Y-51770000D01*
G75*
G02*
X131833059Y-51920000I0J-150000D01*
G01*
G37*
G36*
G01*
X131833059Y-53190000D02*
X131833059Y-53490000D01*
G75*
G02*
X131683059Y-53640000I-150000J0D01*
G01*
X130283059Y-53640000D01*
G75*
G02*
X130133059Y-53490000I0J150000D01*
G01*
X130133059Y-53190000D01*
G75*
G02*
X130283059Y-53040000I150000J0D01*
G01*
X131683059Y-53040000D01*
G75*
G02*
X131833059Y-53190000I0J-150000D01*
G01*
G37*
G36*
G01*
X131833059Y-54460000D02*
X131833059Y-54760000D01*
G75*
G02*
X131683059Y-54910000I-150000J0D01*
G01*
X130283059Y-54910000D01*
G75*
G02*
X130133059Y-54760000I0J150000D01*
G01*
X130133059Y-54460000D01*
G75*
G02*
X130283059Y-54310000I150000J0D01*
G01*
X131683059Y-54310000D01*
G75*
G02*
X131833059Y-54460000I0J-150000D01*
G01*
G37*
G36*
G01*
X131833059Y-55730000D02*
X131833059Y-56030000D01*
G75*
G02*
X131683059Y-56180000I-150000J0D01*
G01*
X130283059Y-56180000D01*
G75*
G02*
X130133059Y-56030000I0J150000D01*
G01*
X130133059Y-55730000D01*
G75*
G02*
X130283059Y-55580000I150000J0D01*
G01*
X131683059Y-55580000D01*
G75*
G02*
X131833059Y-55730000I0J-150000D01*
G01*
G37*
G36*
G01*
X131833059Y-57000000D02*
X131833059Y-57300000D01*
G75*
G02*
X131683059Y-57450000I-150000J0D01*
G01*
X130283059Y-57450000D01*
G75*
G02*
X130133059Y-57300000I0J150000D01*
G01*
X130133059Y-57000000D01*
G75*
G02*
X130283059Y-56850000I150000J0D01*
G01*
X131683059Y-56850000D01*
G75*
G02*
X131833059Y-57000000I0J-150000D01*
G01*
G37*
G36*
G01*
X131833059Y-58270000D02*
X131833059Y-58570000D01*
G75*
G02*
X131683059Y-58720000I-150000J0D01*
G01*
X130283059Y-58720000D01*
G75*
G02*
X130133059Y-58570000I0J150000D01*
G01*
X130133059Y-58270000D01*
G75*
G02*
X130283059Y-58120000I150000J0D01*
G01*
X131683059Y-58120000D01*
G75*
G02*
X131833059Y-58270000I0J-150000D01*
G01*
G37*
G36*
G01*
X131833059Y-59540000D02*
X131833059Y-59840000D01*
G75*
G02*
X131683059Y-59990000I-150000J0D01*
G01*
X130283059Y-59990000D01*
G75*
G02*
X130133059Y-59840000I0J150000D01*
G01*
X130133059Y-59540000D01*
G75*
G02*
X130283059Y-59390000I150000J0D01*
G01*
X131683059Y-59390000D01*
G75*
G02*
X131833059Y-59540000I0J-150000D01*
G01*
G37*
G36*
G01*
X131833059Y-60810000D02*
X131833059Y-61110000D01*
G75*
G02*
X131683059Y-61260000I-150000J0D01*
G01*
X130283059Y-61260000D01*
G75*
G02*
X130133059Y-61110000I0J150000D01*
G01*
X130133059Y-60810000D01*
G75*
G02*
X130283059Y-60660000I150000J0D01*
G01*
X131683059Y-60660000D01*
G75*
G02*
X131833059Y-60810000I0J-150000D01*
G01*
G37*
G36*
G01*
X131833059Y-62080000D02*
X131833059Y-62380000D01*
G75*
G02*
X131683059Y-62530000I-150000J0D01*
G01*
X130283059Y-62530000D01*
G75*
G02*
X130133059Y-62380000I0J150000D01*
G01*
X130133059Y-62080000D01*
G75*
G02*
X130283059Y-61930000I150000J0D01*
G01*
X131683059Y-61930000D01*
G75*
G02*
X131833059Y-62080000I0J-150000D01*
G01*
G37*
G36*
G01*
X131833059Y-63350000D02*
X131833059Y-63650000D01*
G75*
G02*
X131683059Y-63800000I-150000J0D01*
G01*
X130283059Y-63800000D01*
G75*
G02*
X130133059Y-63650000I0J150000D01*
G01*
X130133059Y-63350000D01*
G75*
G02*
X130283059Y-63200000I150000J0D01*
G01*
X131683059Y-63200000D01*
G75*
G02*
X131833059Y-63350000I0J-150000D01*
G01*
G37*
G36*
G01*
X132933059Y-64450000D02*
X132933059Y-65850000D01*
G75*
G02*
X132783059Y-66000000I-150000J0D01*
G01*
X132483059Y-66000000D01*
G75*
G02*
X132333059Y-65850000I0J150000D01*
G01*
X132333059Y-64450000D01*
G75*
G02*
X132483059Y-64300000I150000J0D01*
G01*
X132783059Y-64300000D01*
G75*
G02*
X132933059Y-64450000I0J-150000D01*
G01*
G37*
G36*
G01*
X134203059Y-64450000D02*
X134203059Y-65850000D01*
G75*
G02*
X134053059Y-66000000I-150000J0D01*
G01*
X133753059Y-66000000D01*
G75*
G02*
X133603059Y-65850000I0J150000D01*
G01*
X133603059Y-64450000D01*
G75*
G02*
X133753059Y-64300000I150000J0D01*
G01*
X134053059Y-64300000D01*
G75*
G02*
X134203059Y-64450000I0J-150000D01*
G01*
G37*
G36*
G01*
X135473059Y-64450000D02*
X135473059Y-65850000D01*
G75*
G02*
X135323059Y-66000000I-150000J0D01*
G01*
X135023059Y-66000000D01*
G75*
G02*
X134873059Y-65850000I0J150000D01*
G01*
X134873059Y-64450000D01*
G75*
G02*
X135023059Y-64300000I150000J0D01*
G01*
X135323059Y-64300000D01*
G75*
G02*
X135473059Y-64450000I0J-150000D01*
G01*
G37*
G36*
G01*
X136743059Y-64450000D02*
X136743059Y-65850000D01*
G75*
G02*
X136593059Y-66000000I-150000J0D01*
G01*
X136293059Y-66000000D01*
G75*
G02*
X136143059Y-65850000I0J150000D01*
G01*
X136143059Y-64450000D01*
G75*
G02*
X136293059Y-64300000I150000J0D01*
G01*
X136593059Y-64300000D01*
G75*
G02*
X136743059Y-64450000I0J-150000D01*
G01*
G37*
G36*
G01*
X138013059Y-64450000D02*
X138013059Y-65850000D01*
G75*
G02*
X137863059Y-66000000I-150000J0D01*
G01*
X137563059Y-66000000D01*
G75*
G02*
X137413059Y-65850000I0J150000D01*
G01*
X137413059Y-64450000D01*
G75*
G02*
X137563059Y-64300000I150000J0D01*
G01*
X137863059Y-64300000D01*
G75*
G02*
X138013059Y-64450000I0J-150000D01*
G01*
G37*
G36*
G01*
X139283059Y-64450000D02*
X139283059Y-65850000D01*
G75*
G02*
X139133059Y-66000000I-150000J0D01*
G01*
X138833059Y-66000000D01*
G75*
G02*
X138683059Y-65850000I0J150000D01*
G01*
X138683059Y-64450000D01*
G75*
G02*
X138833059Y-64300000I150000J0D01*
G01*
X139133059Y-64300000D01*
G75*
G02*
X139283059Y-64450000I0J-150000D01*
G01*
G37*
G36*
G01*
X140553059Y-64450000D02*
X140553059Y-65850000D01*
G75*
G02*
X140403059Y-66000000I-150000J0D01*
G01*
X140103059Y-66000000D01*
G75*
G02*
X139953059Y-65850000I0J150000D01*
G01*
X139953059Y-64450000D01*
G75*
G02*
X140103059Y-64300000I150000J0D01*
G01*
X140403059Y-64300000D01*
G75*
G02*
X140553059Y-64450000I0J-150000D01*
G01*
G37*
G36*
G01*
X141823059Y-64450000D02*
X141823059Y-65850000D01*
G75*
G02*
X141673059Y-66000000I-150000J0D01*
G01*
X141373059Y-66000000D01*
G75*
G02*
X141223059Y-65850000I0J150000D01*
G01*
X141223059Y-64450000D01*
G75*
G02*
X141373059Y-64300000I150000J0D01*
G01*
X141673059Y-64300000D01*
G75*
G02*
X141823059Y-64450000I0J-150000D01*
G01*
G37*
G36*
G01*
X143093059Y-64450000D02*
X143093059Y-65850000D01*
G75*
G02*
X142943059Y-66000000I-150000J0D01*
G01*
X142643059Y-66000000D01*
G75*
G02*
X142493059Y-65850000I0J150000D01*
G01*
X142493059Y-64450000D01*
G75*
G02*
X142643059Y-64300000I150000J0D01*
G01*
X142943059Y-64300000D01*
G75*
G02*
X143093059Y-64450000I0J-150000D01*
G01*
G37*
G36*
G01*
X144363059Y-64450000D02*
X144363059Y-65850000D01*
G75*
G02*
X144213059Y-66000000I-150000J0D01*
G01*
X143913059Y-66000000D01*
G75*
G02*
X143763059Y-65850000I0J150000D01*
G01*
X143763059Y-64450000D01*
G75*
G02*
X143913059Y-64300000I150000J0D01*
G01*
X144213059Y-64300000D01*
G75*
G02*
X144363059Y-64450000I0J-150000D01*
G01*
G37*
G36*
G01*
X145633059Y-64450000D02*
X145633059Y-65850000D01*
G75*
G02*
X145483059Y-66000000I-150000J0D01*
G01*
X145183059Y-66000000D01*
G75*
G02*
X145033059Y-65850000I0J150000D01*
G01*
X145033059Y-64450000D01*
G75*
G02*
X145183059Y-64300000I150000J0D01*
G01*
X145483059Y-64300000D01*
G75*
G02*
X145633059Y-64450000I0J-150000D01*
G01*
G37*
G36*
G01*
X147833059Y-63350000D02*
X147833059Y-63650000D01*
G75*
G02*
X147683059Y-63800000I-150000J0D01*
G01*
X146283059Y-63800000D01*
G75*
G02*
X146133059Y-63650000I0J150000D01*
G01*
X146133059Y-63350000D01*
G75*
G02*
X146283059Y-63200000I150000J0D01*
G01*
X147683059Y-63200000D01*
G75*
G02*
X147833059Y-63350000I0J-150000D01*
G01*
G37*
G36*
G01*
X147833059Y-62080000D02*
X147833059Y-62380000D01*
G75*
G02*
X147683059Y-62530000I-150000J0D01*
G01*
X146283059Y-62530000D01*
G75*
G02*
X146133059Y-62380000I0J150000D01*
G01*
X146133059Y-62080000D01*
G75*
G02*
X146283059Y-61930000I150000J0D01*
G01*
X147683059Y-61930000D01*
G75*
G02*
X147833059Y-62080000I0J-150000D01*
G01*
G37*
G36*
G01*
X147833059Y-60810000D02*
X147833059Y-61110000D01*
G75*
G02*
X147683059Y-61260000I-150000J0D01*
G01*
X146283059Y-61260000D01*
G75*
G02*
X146133059Y-61110000I0J150000D01*
G01*
X146133059Y-60810000D01*
G75*
G02*
X146283059Y-60660000I150000J0D01*
G01*
X147683059Y-60660000D01*
G75*
G02*
X147833059Y-60810000I0J-150000D01*
G01*
G37*
G36*
G01*
X147833059Y-59540000D02*
X147833059Y-59840000D01*
G75*
G02*
X147683059Y-59990000I-150000J0D01*
G01*
X146283059Y-59990000D01*
G75*
G02*
X146133059Y-59840000I0J150000D01*
G01*
X146133059Y-59540000D01*
G75*
G02*
X146283059Y-59390000I150000J0D01*
G01*
X147683059Y-59390000D01*
G75*
G02*
X147833059Y-59540000I0J-150000D01*
G01*
G37*
G36*
G01*
X147833059Y-58270000D02*
X147833059Y-58570000D01*
G75*
G02*
X147683059Y-58720000I-150000J0D01*
G01*
X146283059Y-58720000D01*
G75*
G02*
X146133059Y-58570000I0J150000D01*
G01*
X146133059Y-58270000D01*
G75*
G02*
X146283059Y-58120000I150000J0D01*
G01*
X147683059Y-58120000D01*
G75*
G02*
X147833059Y-58270000I0J-150000D01*
G01*
G37*
G36*
G01*
X147833059Y-57000000D02*
X147833059Y-57300000D01*
G75*
G02*
X147683059Y-57450000I-150000J0D01*
G01*
X146283059Y-57450000D01*
G75*
G02*
X146133059Y-57300000I0J150000D01*
G01*
X146133059Y-57000000D01*
G75*
G02*
X146283059Y-56850000I150000J0D01*
G01*
X147683059Y-56850000D01*
G75*
G02*
X147833059Y-57000000I0J-150000D01*
G01*
G37*
G36*
G01*
X147833059Y-55730000D02*
X147833059Y-56030000D01*
G75*
G02*
X147683059Y-56180000I-150000J0D01*
G01*
X146283059Y-56180000D01*
G75*
G02*
X146133059Y-56030000I0J150000D01*
G01*
X146133059Y-55730000D01*
G75*
G02*
X146283059Y-55580000I150000J0D01*
G01*
X147683059Y-55580000D01*
G75*
G02*
X147833059Y-55730000I0J-150000D01*
G01*
G37*
G36*
G01*
X147833059Y-54460000D02*
X147833059Y-54760000D01*
G75*
G02*
X147683059Y-54910000I-150000J0D01*
G01*
X146283059Y-54910000D01*
G75*
G02*
X146133059Y-54760000I0J150000D01*
G01*
X146133059Y-54460000D01*
G75*
G02*
X146283059Y-54310000I150000J0D01*
G01*
X147683059Y-54310000D01*
G75*
G02*
X147833059Y-54460000I0J-150000D01*
G01*
G37*
G36*
G01*
X147833059Y-53190000D02*
X147833059Y-53490000D01*
G75*
G02*
X147683059Y-53640000I-150000J0D01*
G01*
X146283059Y-53640000D01*
G75*
G02*
X146133059Y-53490000I0J150000D01*
G01*
X146133059Y-53190000D01*
G75*
G02*
X146283059Y-53040000I150000J0D01*
G01*
X147683059Y-53040000D01*
G75*
G02*
X147833059Y-53190000I0J-150000D01*
G01*
G37*
G36*
G01*
X147833059Y-51920000D02*
X147833059Y-52220000D01*
G75*
G02*
X147683059Y-52370000I-150000J0D01*
G01*
X146283059Y-52370000D01*
G75*
G02*
X146133059Y-52220000I0J150000D01*
G01*
X146133059Y-51920000D01*
G75*
G02*
X146283059Y-51770000I150000J0D01*
G01*
X147683059Y-51770000D01*
G75*
G02*
X147833059Y-51920000I0J-150000D01*
G01*
G37*
G36*
G01*
X147833059Y-50650000D02*
X147833059Y-50950000D01*
G75*
G02*
X147683059Y-51100000I-150000J0D01*
G01*
X146283059Y-51100000D01*
G75*
G02*
X146133059Y-50950000I0J150000D01*
G01*
X146133059Y-50650000D01*
G75*
G02*
X146283059Y-50500000I150000J0D01*
G01*
X147683059Y-50500000D01*
G75*
G02*
X147833059Y-50650000I0J-150000D01*
G01*
G37*
G36*
G01*
X145633059Y-48450000D02*
X145633059Y-49850000D01*
G75*
G02*
X145483059Y-50000000I-150000J0D01*
G01*
X145183059Y-50000000D01*
G75*
G02*
X145033059Y-49850000I0J150000D01*
G01*
X145033059Y-48450000D01*
G75*
G02*
X145183059Y-48300000I150000J0D01*
G01*
X145483059Y-48300000D01*
G75*
G02*
X145633059Y-48450000I0J-150000D01*
G01*
G37*
G36*
G01*
X144363059Y-48450000D02*
X144363059Y-49850000D01*
G75*
G02*
X144213059Y-50000000I-150000J0D01*
G01*
X143913059Y-50000000D01*
G75*
G02*
X143763059Y-49850000I0J150000D01*
G01*
X143763059Y-48450000D01*
G75*
G02*
X143913059Y-48300000I150000J0D01*
G01*
X144213059Y-48300000D01*
G75*
G02*
X144363059Y-48450000I0J-150000D01*
G01*
G37*
G36*
G01*
X143093059Y-48450000D02*
X143093059Y-49850000D01*
G75*
G02*
X142943059Y-50000000I-150000J0D01*
G01*
X142643059Y-50000000D01*
G75*
G02*
X142493059Y-49850000I0J150000D01*
G01*
X142493059Y-48450000D01*
G75*
G02*
X142643059Y-48300000I150000J0D01*
G01*
X142943059Y-48300000D01*
G75*
G02*
X143093059Y-48450000I0J-150000D01*
G01*
G37*
G36*
G01*
X141823059Y-48450000D02*
X141823059Y-49850000D01*
G75*
G02*
X141673059Y-50000000I-150000J0D01*
G01*
X141373059Y-50000000D01*
G75*
G02*
X141223059Y-49850000I0J150000D01*
G01*
X141223059Y-48450000D01*
G75*
G02*
X141373059Y-48300000I150000J0D01*
G01*
X141673059Y-48300000D01*
G75*
G02*
X141823059Y-48450000I0J-150000D01*
G01*
G37*
G36*
G01*
X140553059Y-48450000D02*
X140553059Y-49850000D01*
G75*
G02*
X140403059Y-50000000I-150000J0D01*
G01*
X140103059Y-50000000D01*
G75*
G02*
X139953059Y-49850000I0J150000D01*
G01*
X139953059Y-48450000D01*
G75*
G02*
X140103059Y-48300000I150000J0D01*
G01*
X140403059Y-48300000D01*
G75*
G02*
X140553059Y-48450000I0J-150000D01*
G01*
G37*
G36*
G01*
X139283059Y-48450000D02*
X139283059Y-49850000D01*
G75*
G02*
X139133059Y-50000000I-150000J0D01*
G01*
X138833059Y-50000000D01*
G75*
G02*
X138683059Y-49850000I0J150000D01*
G01*
X138683059Y-48450000D01*
G75*
G02*
X138833059Y-48300000I150000J0D01*
G01*
X139133059Y-48300000D01*
G75*
G02*
X139283059Y-48450000I0J-150000D01*
G01*
G37*
%TD*%
%TO.C,C6*%
G36*
G01*
X74155059Y-72246960D02*
X74155059Y-71346958D01*
G75*
G02*
X74405058Y-71096959I249999J0D01*
G01*
X75055060Y-71096959D01*
G75*
G02*
X75305059Y-71346958I0J-249999D01*
G01*
X75305059Y-72246960D01*
G75*
G02*
X75055060Y-72496959I-249999J0D01*
G01*
X74405058Y-72496959D01*
G75*
G02*
X74155059Y-72246960I0J249999D01*
G01*
G37*
G36*
G01*
X72105059Y-72246960D02*
X72105059Y-71346958D01*
G75*
G02*
X72355058Y-71096959I249999J0D01*
G01*
X73005060Y-71096959D01*
G75*
G02*
X73255059Y-71346958I0J-249999D01*
G01*
X73255059Y-72246960D01*
G75*
G02*
X73005060Y-72496959I-249999J0D01*
G01*
X72355058Y-72496959D01*
G75*
G02*
X72105059Y-72246960I0J249999D01*
G01*
G37*
%TD*%
%TO.C,C5*%
G36*
G01*
X144257059Y-71473958D02*
X144257059Y-72373960D01*
G75*
G02*
X144007060Y-72623959I-249999J0D01*
G01*
X143357058Y-72623959D01*
G75*
G02*
X143107059Y-72373960I0J249999D01*
G01*
X143107059Y-71473958D01*
G75*
G02*
X143357058Y-71223959I249999J0D01*
G01*
X144007060Y-71223959D01*
G75*
G02*
X144257059Y-71473958I0J-249999D01*
G01*
G37*
G36*
G01*
X146307059Y-71473958D02*
X146307059Y-72373960D01*
G75*
G02*
X146057060Y-72623959I-249999J0D01*
G01*
X145407058Y-72623959D01*
G75*
G02*
X145157059Y-72373960I0J249999D01*
G01*
X145157059Y-71473958D01*
G75*
G02*
X145407058Y-71223959I249999J0D01*
G01*
X146057060Y-71223959D01*
G75*
G02*
X146307059Y-71473958I0J-249999D01*
G01*
G37*
%TD*%
%TO.C,C4*%
G36*
G01*
X139560059Y-72373960D02*
X139560059Y-71473958D01*
G75*
G02*
X139810058Y-71223959I249999J0D01*
G01*
X140460060Y-71223959D01*
G75*
G02*
X140710059Y-71473958I0J-249999D01*
G01*
X140710059Y-72373960D01*
G75*
G02*
X140460060Y-72623959I-249999J0D01*
G01*
X139810058Y-72623959D01*
G75*
G02*
X139560059Y-72373960I0J249999D01*
G01*
G37*
G36*
G01*
X137510059Y-72373960D02*
X137510059Y-71473958D01*
G75*
G02*
X137760058Y-71223959I249999J0D01*
G01*
X138410060Y-71223959D01*
G75*
G02*
X138660059Y-71473958I0J-249999D01*
G01*
X138660059Y-72373960D01*
G75*
G02*
X138410060Y-72623959I-249999J0D01*
G01*
X137760058Y-72623959D01*
G75*
G02*
X137510059Y-72373960I0J249999D01*
G01*
G37*
%TD*%
%TO.C,C3*%
G36*
G01*
X81639059Y-72246960D02*
X81639059Y-71346958D01*
G75*
G02*
X81889058Y-71096959I249999J0D01*
G01*
X82539060Y-71096959D01*
G75*
G02*
X82789059Y-71346958I0J-249999D01*
G01*
X82789059Y-72246960D01*
G75*
G02*
X82539060Y-72496959I-249999J0D01*
G01*
X81889058Y-72496959D01*
G75*
G02*
X81639059Y-72246960I0J249999D01*
G01*
G37*
G36*
G01*
X79589059Y-72246960D02*
X79589059Y-71346958D01*
G75*
G02*
X79839058Y-71096959I249999J0D01*
G01*
X80489060Y-71096959D01*
G75*
G02*
X80739059Y-71346958I0J-249999D01*
G01*
X80739059Y-72246960D01*
G75*
G02*
X80489060Y-72496959I-249999J0D01*
G01*
X79839058Y-72496959D01*
G75*
G02*
X79589059Y-72246960I0J249999D01*
G01*
G37*
%TD*%
%TO.C,C2*%
G36*
G01*
X112108059Y-96873958D02*
X112108059Y-97773960D01*
G75*
G02*
X111858060Y-98023959I-249999J0D01*
G01*
X111208058Y-98023959D01*
G75*
G02*
X110958059Y-97773960I0J249999D01*
G01*
X110958059Y-96873958D01*
G75*
G02*
X111208058Y-96623959I249999J0D01*
G01*
X111858060Y-96623959D01*
G75*
G02*
X112108059Y-96873958I0J-249999D01*
G01*
G37*
G36*
G01*
X114158059Y-96873958D02*
X114158059Y-97773960D01*
G75*
G02*
X113908060Y-98023959I-249999J0D01*
G01*
X113258058Y-98023959D01*
G75*
G02*
X113008059Y-97773960I0J249999D01*
G01*
X113008059Y-96873958D01*
G75*
G02*
X113258058Y-96623959I249999J0D01*
G01*
X113908060Y-96623959D01*
G75*
G02*
X114158059Y-96873958I0J-249999D01*
G01*
G37*
%TD*%
%TO.C,C1*%
G36*
G01*
X111863059Y-46073958D02*
X111863059Y-46973960D01*
G75*
G02*
X111613060Y-47223959I-249999J0D01*
G01*
X110963058Y-47223959D01*
G75*
G02*
X110713059Y-46973960I0J249999D01*
G01*
X110713059Y-46073958D01*
G75*
G02*
X110963058Y-45823959I249999J0D01*
G01*
X111613060Y-45823959D01*
G75*
G02*
X111863059Y-46073958I0J-249999D01*
G01*
G37*
G36*
G01*
X113913059Y-46073958D02*
X113913059Y-46973960D01*
G75*
G02*
X113663060Y-47223959I-249999J0D01*
G01*
X113013058Y-47223959D01*
G75*
G02*
X112763059Y-46973960I0J249999D01*
G01*
X112763059Y-46073958D01*
G75*
G02*
X113013058Y-45823959I249999J0D01*
G01*
X113663060Y-45823959D01*
G75*
G02*
X113913059Y-46073958I0J-249999D01*
G01*
G37*
%TD*%
%TO.C,C*%
G36*
G01*
X118328059Y-48450000D02*
X118328059Y-49850000D01*
G75*
G02*
X118178059Y-50000000I-150000J0D01*
G01*
X117878059Y-50000000D01*
G75*
G02*
X117728059Y-49850000I0J150000D01*
G01*
X117728059Y-48450000D01*
G75*
G02*
X117878059Y-48300000I150000J0D01*
G01*
X118178059Y-48300000D01*
G75*
G02*
X118328059Y-48450000I0J-150000D01*
G01*
G37*
G36*
G01*
X117058059Y-48450000D02*
X117058059Y-49850000D01*
G75*
G02*
X116908059Y-50000000I-150000J0D01*
G01*
X116608059Y-50000000D01*
G75*
G02*
X116458059Y-49850000I0J150000D01*
G01*
X116458059Y-48450000D01*
G75*
G02*
X116608059Y-48300000I150000J0D01*
G01*
X116908059Y-48300000D01*
G75*
G02*
X117058059Y-48450000I0J-150000D01*
G01*
G37*
G36*
G01*
X115788059Y-48450000D02*
X115788059Y-49850000D01*
G75*
G02*
X115638059Y-50000000I-150000J0D01*
G01*
X115338059Y-50000000D01*
G75*
G02*
X115188059Y-49850000I0J150000D01*
G01*
X115188059Y-48450000D01*
G75*
G02*
X115338059Y-48300000I150000J0D01*
G01*
X115638059Y-48300000D01*
G75*
G02*
X115788059Y-48450000I0J-150000D01*
G01*
G37*
G36*
G01*
X114518059Y-48450000D02*
X114518059Y-49850000D01*
G75*
G02*
X114368059Y-50000000I-150000J0D01*
G01*
X114068059Y-50000000D01*
G75*
G02*
X113918059Y-49850000I0J150000D01*
G01*
X113918059Y-48450000D01*
G75*
G02*
X114068059Y-48300000I150000J0D01*
G01*
X114368059Y-48300000D01*
G75*
G02*
X114518059Y-48450000I0J-150000D01*
G01*
G37*
G36*
G01*
X113248059Y-48450000D02*
X113248059Y-49850000D01*
G75*
G02*
X113098059Y-50000000I-150000J0D01*
G01*
X112798059Y-50000000D01*
G75*
G02*
X112648059Y-49850000I0J150000D01*
G01*
X112648059Y-48450000D01*
G75*
G02*
X112798059Y-48300000I150000J0D01*
G01*
X113098059Y-48300000D01*
G75*
G02*
X113248059Y-48450000I0J-150000D01*
G01*
G37*
G36*
G01*
X112148059Y-50650000D02*
X112148059Y-50950000D01*
G75*
G02*
X111998059Y-51100000I-150000J0D01*
G01*
X110598059Y-51100000D01*
G75*
G02*
X110448059Y-50950000I0J150000D01*
G01*
X110448059Y-50650000D01*
G75*
G02*
X110598059Y-50500000I150000J0D01*
G01*
X111998059Y-50500000D01*
G75*
G02*
X112148059Y-50650000I0J-150000D01*
G01*
G37*
G36*
G01*
X112148059Y-51920000D02*
X112148059Y-52220000D01*
G75*
G02*
X111998059Y-52370000I-150000J0D01*
G01*
X110598059Y-52370000D01*
G75*
G02*
X110448059Y-52220000I0J150000D01*
G01*
X110448059Y-51920000D01*
G75*
G02*
X110598059Y-51770000I150000J0D01*
G01*
X111998059Y-51770000D01*
G75*
G02*
X112148059Y-51920000I0J-150000D01*
G01*
G37*
G36*
G01*
X112148059Y-53190000D02*
X112148059Y-53490000D01*
G75*
G02*
X111998059Y-53640000I-150000J0D01*
G01*
X110598059Y-53640000D01*
G75*
G02*
X110448059Y-53490000I0J150000D01*
G01*
X110448059Y-53190000D01*
G75*
G02*
X110598059Y-53040000I150000J0D01*
G01*
X111998059Y-53040000D01*
G75*
G02*
X112148059Y-53190000I0J-150000D01*
G01*
G37*
G36*
G01*
X112148059Y-54460000D02*
X112148059Y-54760000D01*
G75*
G02*
X111998059Y-54910000I-150000J0D01*
G01*
X110598059Y-54910000D01*
G75*
G02*
X110448059Y-54760000I0J150000D01*
G01*
X110448059Y-54460000D01*
G75*
G02*
X110598059Y-54310000I150000J0D01*
G01*
X111998059Y-54310000D01*
G75*
G02*
X112148059Y-54460000I0J-150000D01*
G01*
G37*
G36*
G01*
X112148059Y-55730000D02*
X112148059Y-56030000D01*
G75*
G02*
X111998059Y-56180000I-150000J0D01*
G01*
X110598059Y-56180000D01*
G75*
G02*
X110448059Y-56030000I0J150000D01*
G01*
X110448059Y-55730000D01*
G75*
G02*
X110598059Y-55580000I150000J0D01*
G01*
X111998059Y-55580000D01*
G75*
G02*
X112148059Y-55730000I0J-150000D01*
G01*
G37*
G36*
G01*
X112148059Y-57000000D02*
X112148059Y-57300000D01*
G75*
G02*
X111998059Y-57450000I-150000J0D01*
G01*
X110598059Y-57450000D01*
G75*
G02*
X110448059Y-57300000I0J150000D01*
G01*
X110448059Y-57000000D01*
G75*
G02*
X110598059Y-56850000I150000J0D01*
G01*
X111998059Y-56850000D01*
G75*
G02*
X112148059Y-57000000I0J-150000D01*
G01*
G37*
G36*
G01*
X112148059Y-58270000D02*
X112148059Y-58570000D01*
G75*
G02*
X111998059Y-58720000I-150000J0D01*
G01*
X110598059Y-58720000D01*
G75*
G02*
X110448059Y-58570000I0J150000D01*
G01*
X110448059Y-58270000D01*
G75*
G02*
X110598059Y-58120000I150000J0D01*
G01*
X111998059Y-58120000D01*
G75*
G02*
X112148059Y-58270000I0J-150000D01*
G01*
G37*
G36*
G01*
X112148059Y-59540000D02*
X112148059Y-59840000D01*
G75*
G02*
X111998059Y-59990000I-150000J0D01*
G01*
X110598059Y-59990000D01*
G75*
G02*
X110448059Y-59840000I0J150000D01*
G01*
X110448059Y-59540000D01*
G75*
G02*
X110598059Y-59390000I150000J0D01*
G01*
X111998059Y-59390000D01*
G75*
G02*
X112148059Y-59540000I0J-150000D01*
G01*
G37*
G36*
G01*
X112148059Y-60810000D02*
X112148059Y-61110000D01*
G75*
G02*
X111998059Y-61260000I-150000J0D01*
G01*
X110598059Y-61260000D01*
G75*
G02*
X110448059Y-61110000I0J150000D01*
G01*
X110448059Y-60810000D01*
G75*
G02*
X110598059Y-60660000I150000J0D01*
G01*
X111998059Y-60660000D01*
G75*
G02*
X112148059Y-60810000I0J-150000D01*
G01*
G37*
G36*
G01*
X112148059Y-62080000D02*
X112148059Y-62380000D01*
G75*
G02*
X111998059Y-62530000I-150000J0D01*
G01*
X110598059Y-62530000D01*
G75*
G02*
X110448059Y-62380000I0J150000D01*
G01*
X110448059Y-62080000D01*
G75*
G02*
X110598059Y-61930000I150000J0D01*
G01*
X111998059Y-61930000D01*
G75*
G02*
X112148059Y-62080000I0J-150000D01*
G01*
G37*
G36*
G01*
X112148059Y-63350000D02*
X112148059Y-63650000D01*
G75*
G02*
X111998059Y-63800000I-150000J0D01*
G01*
X110598059Y-63800000D01*
G75*
G02*
X110448059Y-63650000I0J150000D01*
G01*
X110448059Y-63350000D01*
G75*
G02*
X110598059Y-63200000I150000J0D01*
G01*
X111998059Y-63200000D01*
G75*
G02*
X112148059Y-63350000I0J-150000D01*
G01*
G37*
G36*
G01*
X113248059Y-64450000D02*
X113248059Y-65850000D01*
G75*
G02*
X113098059Y-66000000I-150000J0D01*
G01*
X112798059Y-66000000D01*
G75*
G02*
X112648059Y-65850000I0J150000D01*
G01*
X112648059Y-64450000D01*
G75*
G02*
X112798059Y-64300000I150000J0D01*
G01*
X113098059Y-64300000D01*
G75*
G02*
X113248059Y-64450000I0J-150000D01*
G01*
G37*
G36*
G01*
X114518059Y-64450000D02*
X114518059Y-65850000D01*
G75*
G02*
X114368059Y-66000000I-150000J0D01*
G01*
X114068059Y-66000000D01*
G75*
G02*
X113918059Y-65850000I0J150000D01*
G01*
X113918059Y-64450000D01*
G75*
G02*
X114068059Y-64300000I150000J0D01*
G01*
X114368059Y-64300000D01*
G75*
G02*
X114518059Y-64450000I0J-150000D01*
G01*
G37*
G36*
G01*
X115788059Y-64450000D02*
X115788059Y-65850000D01*
G75*
G02*
X115638059Y-66000000I-150000J0D01*
G01*
X115338059Y-66000000D01*
G75*
G02*
X115188059Y-65850000I0J150000D01*
G01*
X115188059Y-64450000D01*
G75*
G02*
X115338059Y-64300000I150000J0D01*
G01*
X115638059Y-64300000D01*
G75*
G02*
X115788059Y-64450000I0J-150000D01*
G01*
G37*
G36*
G01*
X117058059Y-64450000D02*
X117058059Y-65850000D01*
G75*
G02*
X116908059Y-66000000I-150000J0D01*
G01*
X116608059Y-66000000D01*
G75*
G02*
X116458059Y-65850000I0J150000D01*
G01*
X116458059Y-64450000D01*
G75*
G02*
X116608059Y-64300000I150000J0D01*
G01*
X116908059Y-64300000D01*
G75*
G02*
X117058059Y-64450000I0J-150000D01*
G01*
G37*
G36*
G01*
X118328059Y-64450000D02*
X118328059Y-65850000D01*
G75*
G02*
X118178059Y-66000000I-150000J0D01*
G01*
X117878059Y-66000000D01*
G75*
G02*
X117728059Y-65850000I0J150000D01*
G01*
X117728059Y-64450000D01*
G75*
G02*
X117878059Y-64300000I150000J0D01*
G01*
X118178059Y-64300000D01*
G75*
G02*
X118328059Y-64450000I0J-150000D01*
G01*
G37*
G36*
G01*
X119598059Y-64450000D02*
X119598059Y-65850000D01*
G75*
G02*
X119448059Y-66000000I-150000J0D01*
G01*
X119148059Y-66000000D01*
G75*
G02*
X118998059Y-65850000I0J150000D01*
G01*
X118998059Y-64450000D01*
G75*
G02*
X119148059Y-64300000I150000J0D01*
G01*
X119448059Y-64300000D01*
G75*
G02*
X119598059Y-64450000I0J-150000D01*
G01*
G37*
G36*
G01*
X120868059Y-64450000D02*
X120868059Y-65850000D01*
G75*
G02*
X120718059Y-66000000I-150000J0D01*
G01*
X120418059Y-66000000D01*
G75*
G02*
X120268059Y-65850000I0J150000D01*
G01*
X120268059Y-64450000D01*
G75*
G02*
X120418059Y-64300000I150000J0D01*
G01*
X120718059Y-64300000D01*
G75*
G02*
X120868059Y-64450000I0J-150000D01*
G01*
G37*
G36*
G01*
X122138059Y-64450000D02*
X122138059Y-65850000D01*
G75*
G02*
X121988059Y-66000000I-150000J0D01*
G01*
X121688059Y-66000000D01*
G75*
G02*
X121538059Y-65850000I0J150000D01*
G01*
X121538059Y-64450000D01*
G75*
G02*
X121688059Y-64300000I150000J0D01*
G01*
X121988059Y-64300000D01*
G75*
G02*
X122138059Y-64450000I0J-150000D01*
G01*
G37*
G36*
G01*
X123408059Y-64450000D02*
X123408059Y-65850000D01*
G75*
G02*
X123258059Y-66000000I-150000J0D01*
G01*
X122958059Y-66000000D01*
G75*
G02*
X122808059Y-65850000I0J150000D01*
G01*
X122808059Y-64450000D01*
G75*
G02*
X122958059Y-64300000I150000J0D01*
G01*
X123258059Y-64300000D01*
G75*
G02*
X123408059Y-64450000I0J-150000D01*
G01*
G37*
G36*
G01*
X124678059Y-64450000D02*
X124678059Y-65850000D01*
G75*
G02*
X124528059Y-66000000I-150000J0D01*
G01*
X124228059Y-66000000D01*
G75*
G02*
X124078059Y-65850000I0J150000D01*
G01*
X124078059Y-64450000D01*
G75*
G02*
X124228059Y-64300000I150000J0D01*
G01*
X124528059Y-64300000D01*
G75*
G02*
X124678059Y-64450000I0J-150000D01*
G01*
G37*
G36*
G01*
X125948059Y-64450000D02*
X125948059Y-65850000D01*
G75*
G02*
X125798059Y-66000000I-150000J0D01*
G01*
X125498059Y-66000000D01*
G75*
G02*
X125348059Y-65850000I0J150000D01*
G01*
X125348059Y-64450000D01*
G75*
G02*
X125498059Y-64300000I150000J0D01*
G01*
X125798059Y-64300000D01*
G75*
G02*
X125948059Y-64450000I0J-150000D01*
G01*
G37*
G36*
G01*
X128148059Y-63350000D02*
X128148059Y-63650000D01*
G75*
G02*
X127998059Y-63800000I-150000J0D01*
G01*
X126598059Y-63800000D01*
G75*
G02*
X126448059Y-63650000I0J150000D01*
G01*
X126448059Y-63350000D01*
G75*
G02*
X126598059Y-63200000I150000J0D01*
G01*
X127998059Y-63200000D01*
G75*
G02*
X128148059Y-63350000I0J-150000D01*
G01*
G37*
G36*
G01*
X128148059Y-62080000D02*
X128148059Y-62380000D01*
G75*
G02*
X127998059Y-62530000I-150000J0D01*
G01*
X126598059Y-62530000D01*
G75*
G02*
X126448059Y-62380000I0J150000D01*
G01*
X126448059Y-62080000D01*
G75*
G02*
X126598059Y-61930000I150000J0D01*
G01*
X127998059Y-61930000D01*
G75*
G02*
X128148059Y-62080000I0J-150000D01*
G01*
G37*
G36*
G01*
X128148059Y-60810000D02*
X128148059Y-61110000D01*
G75*
G02*
X127998059Y-61260000I-150000J0D01*
G01*
X126598059Y-61260000D01*
G75*
G02*
X126448059Y-61110000I0J150000D01*
G01*
X126448059Y-60810000D01*
G75*
G02*
X126598059Y-60660000I150000J0D01*
G01*
X127998059Y-60660000D01*
G75*
G02*
X128148059Y-60810000I0J-150000D01*
G01*
G37*
G36*
G01*
X128148059Y-59540000D02*
X128148059Y-59840000D01*
G75*
G02*
X127998059Y-59990000I-150000J0D01*
G01*
X126598059Y-59990000D01*
G75*
G02*
X126448059Y-59840000I0J150000D01*
G01*
X126448059Y-59540000D01*
G75*
G02*
X126598059Y-59390000I150000J0D01*
G01*
X127998059Y-59390000D01*
G75*
G02*
X128148059Y-59540000I0J-150000D01*
G01*
G37*
G36*
G01*
X128148059Y-58270000D02*
X128148059Y-58570000D01*
G75*
G02*
X127998059Y-58720000I-150000J0D01*
G01*
X126598059Y-58720000D01*
G75*
G02*
X126448059Y-58570000I0J150000D01*
G01*
X126448059Y-58270000D01*
G75*
G02*
X126598059Y-58120000I150000J0D01*
G01*
X127998059Y-58120000D01*
G75*
G02*
X128148059Y-58270000I0J-150000D01*
G01*
G37*
G36*
G01*
X128148059Y-57000000D02*
X128148059Y-57300000D01*
G75*
G02*
X127998059Y-57450000I-150000J0D01*
G01*
X126598059Y-57450000D01*
G75*
G02*
X126448059Y-57300000I0J150000D01*
G01*
X126448059Y-57000000D01*
G75*
G02*
X126598059Y-56850000I150000J0D01*
G01*
X127998059Y-56850000D01*
G75*
G02*
X128148059Y-57000000I0J-150000D01*
G01*
G37*
G36*
G01*
X128148059Y-55730000D02*
X128148059Y-56030000D01*
G75*
G02*
X127998059Y-56180000I-150000J0D01*
G01*
X126598059Y-56180000D01*
G75*
G02*
X126448059Y-56030000I0J150000D01*
G01*
X126448059Y-55730000D01*
G75*
G02*
X126598059Y-55580000I150000J0D01*
G01*
X127998059Y-55580000D01*
G75*
G02*
X128148059Y-55730000I0J-150000D01*
G01*
G37*
G36*
G01*
X128148059Y-54460000D02*
X128148059Y-54760000D01*
G75*
G02*
X127998059Y-54910000I-150000J0D01*
G01*
X126598059Y-54910000D01*
G75*
G02*
X126448059Y-54760000I0J150000D01*
G01*
X126448059Y-54460000D01*
G75*
G02*
X126598059Y-54310000I150000J0D01*
G01*
X127998059Y-54310000D01*
G75*
G02*
X128148059Y-54460000I0J-150000D01*
G01*
G37*
G36*
G01*
X128148059Y-53190000D02*
X128148059Y-53490000D01*
G75*
G02*
X127998059Y-53640000I-150000J0D01*
G01*
X126598059Y-53640000D01*
G75*
G02*
X126448059Y-53490000I0J150000D01*
G01*
X126448059Y-53190000D01*
G75*
G02*
X126598059Y-53040000I150000J0D01*
G01*
X127998059Y-53040000D01*
G75*
G02*
X128148059Y-53190000I0J-150000D01*
G01*
G37*
G36*
G01*
X128148059Y-51920000D02*
X128148059Y-52220000D01*
G75*
G02*
X127998059Y-52370000I-150000J0D01*
G01*
X126598059Y-52370000D01*
G75*
G02*
X126448059Y-52220000I0J150000D01*
G01*
X126448059Y-51920000D01*
G75*
G02*
X126598059Y-51770000I150000J0D01*
G01*
X127998059Y-51770000D01*
G75*
G02*
X128148059Y-51920000I0J-150000D01*
G01*
G37*
G36*
G01*
X128148059Y-50650000D02*
X128148059Y-50950000D01*
G75*
G02*
X127998059Y-51100000I-150000J0D01*
G01*
X126598059Y-51100000D01*
G75*
G02*
X126448059Y-50950000I0J150000D01*
G01*
X126448059Y-50650000D01*
G75*
G02*
X126598059Y-50500000I150000J0D01*
G01*
X127998059Y-50500000D01*
G75*
G02*
X128148059Y-50650000I0J-150000D01*
G01*
G37*
G36*
G01*
X125948059Y-48450000D02*
X125948059Y-49850000D01*
G75*
G02*
X125798059Y-50000000I-150000J0D01*
G01*
X125498059Y-50000000D01*
G75*
G02*
X125348059Y-49850000I0J150000D01*
G01*
X125348059Y-48450000D01*
G75*
G02*
X125498059Y-48300000I150000J0D01*
G01*
X125798059Y-48300000D01*
G75*
G02*
X125948059Y-48450000I0J-150000D01*
G01*
G37*
G36*
G01*
X124678059Y-48450000D02*
X124678059Y-49850000D01*
G75*
G02*
X124528059Y-50000000I-150000J0D01*
G01*
X124228059Y-50000000D01*
G75*
G02*
X124078059Y-49850000I0J150000D01*
G01*
X124078059Y-48450000D01*
G75*
G02*
X124228059Y-48300000I150000J0D01*
G01*
X124528059Y-48300000D01*
G75*
G02*
X124678059Y-48450000I0J-150000D01*
G01*
G37*
G36*
G01*
X123408059Y-48450000D02*
X123408059Y-49850000D01*
G75*
G02*
X123258059Y-50000000I-150000J0D01*
G01*
X122958059Y-50000000D01*
G75*
G02*
X122808059Y-49850000I0J150000D01*
G01*
X122808059Y-48450000D01*
G75*
G02*
X122958059Y-48300000I150000J0D01*
G01*
X123258059Y-48300000D01*
G75*
G02*
X123408059Y-48450000I0J-150000D01*
G01*
G37*
G36*
G01*
X122138059Y-48450000D02*
X122138059Y-49850000D01*
G75*
G02*
X121988059Y-50000000I-150000J0D01*
G01*
X121688059Y-50000000D01*
G75*
G02*
X121538059Y-49850000I0J150000D01*
G01*
X121538059Y-48450000D01*
G75*
G02*
X121688059Y-48300000I150000J0D01*
G01*
X121988059Y-48300000D01*
G75*
G02*
X122138059Y-48450000I0J-150000D01*
G01*
G37*
G36*
G01*
X120868059Y-48450000D02*
X120868059Y-49850000D01*
G75*
G02*
X120718059Y-50000000I-150000J0D01*
G01*
X120418059Y-50000000D01*
G75*
G02*
X120268059Y-49850000I0J150000D01*
G01*
X120268059Y-48450000D01*
G75*
G02*
X120418059Y-48300000I150000J0D01*
G01*
X120718059Y-48300000D01*
G75*
G02*
X120868059Y-48450000I0J-150000D01*
G01*
G37*
G36*
G01*
X119598059Y-48450000D02*
X119598059Y-49850000D01*
G75*
G02*
X119448059Y-50000000I-150000J0D01*
G01*
X119148059Y-50000000D01*
G75*
G02*
X118998059Y-49850000I0J150000D01*
G01*
X118998059Y-48450000D01*
G75*
G02*
X119148059Y-48300000I150000J0D01*
G01*
X119448059Y-48300000D01*
G75*
G02*
X119598059Y-48450000I0J-150000D01*
G01*
G37*
%TD*%
%TO.C,B*%
G36*
G01*
X98090000Y-48450000D02*
X98090000Y-49850000D01*
G75*
G02*
X97940000Y-50000000I-150000J0D01*
G01*
X97640000Y-50000000D01*
G75*
G02*
X97490000Y-49850000I0J150000D01*
G01*
X97490000Y-48450000D01*
G75*
G02*
X97640000Y-48300000I150000J0D01*
G01*
X97940000Y-48300000D01*
G75*
G02*
X98090000Y-48450000I0J-150000D01*
G01*
G37*
G36*
G01*
X96820000Y-48450000D02*
X96820000Y-49850000D01*
G75*
G02*
X96670000Y-50000000I-150000J0D01*
G01*
X96370000Y-50000000D01*
G75*
G02*
X96220000Y-49850000I0J150000D01*
G01*
X96220000Y-48450000D01*
G75*
G02*
X96370000Y-48300000I150000J0D01*
G01*
X96670000Y-48300000D01*
G75*
G02*
X96820000Y-48450000I0J-150000D01*
G01*
G37*
G36*
G01*
X95550000Y-48450000D02*
X95550000Y-49850000D01*
G75*
G02*
X95400000Y-50000000I-150000J0D01*
G01*
X95100000Y-50000000D01*
G75*
G02*
X94950000Y-49850000I0J150000D01*
G01*
X94950000Y-48450000D01*
G75*
G02*
X95100000Y-48300000I150000J0D01*
G01*
X95400000Y-48300000D01*
G75*
G02*
X95550000Y-48450000I0J-150000D01*
G01*
G37*
G36*
G01*
X94280000Y-48450000D02*
X94280000Y-49850000D01*
G75*
G02*
X94130000Y-50000000I-150000J0D01*
G01*
X93830000Y-50000000D01*
G75*
G02*
X93680000Y-49850000I0J150000D01*
G01*
X93680000Y-48450000D01*
G75*
G02*
X93830000Y-48300000I150000J0D01*
G01*
X94130000Y-48300000D01*
G75*
G02*
X94280000Y-48450000I0J-150000D01*
G01*
G37*
G36*
G01*
X93010000Y-48450000D02*
X93010000Y-49850000D01*
G75*
G02*
X92860000Y-50000000I-150000J0D01*
G01*
X92560000Y-50000000D01*
G75*
G02*
X92410000Y-49850000I0J150000D01*
G01*
X92410000Y-48450000D01*
G75*
G02*
X92560000Y-48300000I150000J0D01*
G01*
X92860000Y-48300000D01*
G75*
G02*
X93010000Y-48450000I0J-150000D01*
G01*
G37*
G36*
G01*
X91910000Y-50650000D02*
X91910000Y-50950000D01*
G75*
G02*
X91760000Y-51100000I-150000J0D01*
G01*
X90360000Y-51100000D01*
G75*
G02*
X90210000Y-50950000I0J150000D01*
G01*
X90210000Y-50650000D01*
G75*
G02*
X90360000Y-50500000I150000J0D01*
G01*
X91760000Y-50500000D01*
G75*
G02*
X91910000Y-50650000I0J-150000D01*
G01*
G37*
G36*
G01*
X91910000Y-51920000D02*
X91910000Y-52220000D01*
G75*
G02*
X91760000Y-52370000I-150000J0D01*
G01*
X90360000Y-52370000D01*
G75*
G02*
X90210000Y-52220000I0J150000D01*
G01*
X90210000Y-51920000D01*
G75*
G02*
X90360000Y-51770000I150000J0D01*
G01*
X91760000Y-51770000D01*
G75*
G02*
X91910000Y-51920000I0J-150000D01*
G01*
G37*
G36*
G01*
X91910000Y-53190000D02*
X91910000Y-53490000D01*
G75*
G02*
X91760000Y-53640000I-150000J0D01*
G01*
X90360000Y-53640000D01*
G75*
G02*
X90210000Y-53490000I0J150000D01*
G01*
X90210000Y-53190000D01*
G75*
G02*
X90360000Y-53040000I150000J0D01*
G01*
X91760000Y-53040000D01*
G75*
G02*
X91910000Y-53190000I0J-150000D01*
G01*
G37*
G36*
G01*
X91910000Y-54460000D02*
X91910000Y-54760000D01*
G75*
G02*
X91760000Y-54910000I-150000J0D01*
G01*
X90360000Y-54910000D01*
G75*
G02*
X90210000Y-54760000I0J150000D01*
G01*
X90210000Y-54460000D01*
G75*
G02*
X90360000Y-54310000I150000J0D01*
G01*
X91760000Y-54310000D01*
G75*
G02*
X91910000Y-54460000I0J-150000D01*
G01*
G37*
G36*
G01*
X91910000Y-55730000D02*
X91910000Y-56030000D01*
G75*
G02*
X91760000Y-56180000I-150000J0D01*
G01*
X90360000Y-56180000D01*
G75*
G02*
X90210000Y-56030000I0J150000D01*
G01*
X90210000Y-55730000D01*
G75*
G02*
X90360000Y-55580000I150000J0D01*
G01*
X91760000Y-55580000D01*
G75*
G02*
X91910000Y-55730000I0J-150000D01*
G01*
G37*
G36*
G01*
X91910000Y-57000000D02*
X91910000Y-57300000D01*
G75*
G02*
X91760000Y-57450000I-150000J0D01*
G01*
X90360000Y-57450000D01*
G75*
G02*
X90210000Y-57300000I0J150000D01*
G01*
X90210000Y-57000000D01*
G75*
G02*
X90360000Y-56850000I150000J0D01*
G01*
X91760000Y-56850000D01*
G75*
G02*
X91910000Y-57000000I0J-150000D01*
G01*
G37*
G36*
G01*
X91910000Y-58270000D02*
X91910000Y-58570000D01*
G75*
G02*
X91760000Y-58720000I-150000J0D01*
G01*
X90360000Y-58720000D01*
G75*
G02*
X90210000Y-58570000I0J150000D01*
G01*
X90210000Y-58270000D01*
G75*
G02*
X90360000Y-58120000I150000J0D01*
G01*
X91760000Y-58120000D01*
G75*
G02*
X91910000Y-58270000I0J-150000D01*
G01*
G37*
G36*
G01*
X91910000Y-59540000D02*
X91910000Y-59840000D01*
G75*
G02*
X91760000Y-59990000I-150000J0D01*
G01*
X90360000Y-59990000D01*
G75*
G02*
X90210000Y-59840000I0J150000D01*
G01*
X90210000Y-59540000D01*
G75*
G02*
X90360000Y-59390000I150000J0D01*
G01*
X91760000Y-59390000D01*
G75*
G02*
X91910000Y-59540000I0J-150000D01*
G01*
G37*
G36*
G01*
X91910000Y-60810000D02*
X91910000Y-61110000D01*
G75*
G02*
X91760000Y-61260000I-150000J0D01*
G01*
X90360000Y-61260000D01*
G75*
G02*
X90210000Y-61110000I0J150000D01*
G01*
X90210000Y-60810000D01*
G75*
G02*
X90360000Y-60660000I150000J0D01*
G01*
X91760000Y-60660000D01*
G75*
G02*
X91910000Y-60810000I0J-150000D01*
G01*
G37*
G36*
G01*
X91910000Y-62080000D02*
X91910000Y-62380000D01*
G75*
G02*
X91760000Y-62530000I-150000J0D01*
G01*
X90360000Y-62530000D01*
G75*
G02*
X90210000Y-62380000I0J150000D01*
G01*
X90210000Y-62080000D01*
G75*
G02*
X90360000Y-61930000I150000J0D01*
G01*
X91760000Y-61930000D01*
G75*
G02*
X91910000Y-62080000I0J-150000D01*
G01*
G37*
G36*
G01*
X91910000Y-63350000D02*
X91910000Y-63650000D01*
G75*
G02*
X91760000Y-63800000I-150000J0D01*
G01*
X90360000Y-63800000D01*
G75*
G02*
X90210000Y-63650000I0J150000D01*
G01*
X90210000Y-63350000D01*
G75*
G02*
X90360000Y-63200000I150000J0D01*
G01*
X91760000Y-63200000D01*
G75*
G02*
X91910000Y-63350000I0J-150000D01*
G01*
G37*
G36*
G01*
X93010000Y-64450000D02*
X93010000Y-65850000D01*
G75*
G02*
X92860000Y-66000000I-150000J0D01*
G01*
X92560000Y-66000000D01*
G75*
G02*
X92410000Y-65850000I0J150000D01*
G01*
X92410000Y-64450000D01*
G75*
G02*
X92560000Y-64300000I150000J0D01*
G01*
X92860000Y-64300000D01*
G75*
G02*
X93010000Y-64450000I0J-150000D01*
G01*
G37*
G36*
G01*
X94280000Y-64450000D02*
X94280000Y-65850000D01*
G75*
G02*
X94130000Y-66000000I-150000J0D01*
G01*
X93830000Y-66000000D01*
G75*
G02*
X93680000Y-65850000I0J150000D01*
G01*
X93680000Y-64450000D01*
G75*
G02*
X93830000Y-64300000I150000J0D01*
G01*
X94130000Y-64300000D01*
G75*
G02*
X94280000Y-64450000I0J-150000D01*
G01*
G37*
G36*
G01*
X95550000Y-64450000D02*
X95550000Y-65850000D01*
G75*
G02*
X95400000Y-66000000I-150000J0D01*
G01*
X95100000Y-66000000D01*
G75*
G02*
X94950000Y-65850000I0J150000D01*
G01*
X94950000Y-64450000D01*
G75*
G02*
X95100000Y-64300000I150000J0D01*
G01*
X95400000Y-64300000D01*
G75*
G02*
X95550000Y-64450000I0J-150000D01*
G01*
G37*
G36*
G01*
X96820000Y-64450000D02*
X96820000Y-65850000D01*
G75*
G02*
X96670000Y-66000000I-150000J0D01*
G01*
X96370000Y-66000000D01*
G75*
G02*
X96220000Y-65850000I0J150000D01*
G01*
X96220000Y-64450000D01*
G75*
G02*
X96370000Y-64300000I150000J0D01*
G01*
X96670000Y-64300000D01*
G75*
G02*
X96820000Y-64450000I0J-150000D01*
G01*
G37*
G36*
G01*
X98090000Y-64450000D02*
X98090000Y-65850000D01*
G75*
G02*
X97940000Y-66000000I-150000J0D01*
G01*
X97640000Y-66000000D01*
G75*
G02*
X97490000Y-65850000I0J150000D01*
G01*
X97490000Y-64450000D01*
G75*
G02*
X97640000Y-64300000I150000J0D01*
G01*
X97940000Y-64300000D01*
G75*
G02*
X98090000Y-64450000I0J-150000D01*
G01*
G37*
G36*
G01*
X99360000Y-64450000D02*
X99360000Y-65850000D01*
G75*
G02*
X99210000Y-66000000I-150000J0D01*
G01*
X98910000Y-66000000D01*
G75*
G02*
X98760000Y-65850000I0J150000D01*
G01*
X98760000Y-64450000D01*
G75*
G02*
X98910000Y-64300000I150000J0D01*
G01*
X99210000Y-64300000D01*
G75*
G02*
X99360000Y-64450000I0J-150000D01*
G01*
G37*
G36*
G01*
X100630000Y-64450000D02*
X100630000Y-65850000D01*
G75*
G02*
X100480000Y-66000000I-150000J0D01*
G01*
X100180000Y-66000000D01*
G75*
G02*
X100030000Y-65850000I0J150000D01*
G01*
X100030000Y-64450000D01*
G75*
G02*
X100180000Y-64300000I150000J0D01*
G01*
X100480000Y-64300000D01*
G75*
G02*
X100630000Y-64450000I0J-150000D01*
G01*
G37*
G36*
G01*
X101900000Y-64450000D02*
X101900000Y-65850000D01*
G75*
G02*
X101750000Y-66000000I-150000J0D01*
G01*
X101450000Y-66000000D01*
G75*
G02*
X101300000Y-65850000I0J150000D01*
G01*
X101300000Y-64450000D01*
G75*
G02*
X101450000Y-64300000I150000J0D01*
G01*
X101750000Y-64300000D01*
G75*
G02*
X101900000Y-64450000I0J-150000D01*
G01*
G37*
G36*
G01*
X103170000Y-64450000D02*
X103170000Y-65850000D01*
G75*
G02*
X103020000Y-66000000I-150000J0D01*
G01*
X102720000Y-66000000D01*
G75*
G02*
X102570000Y-65850000I0J150000D01*
G01*
X102570000Y-64450000D01*
G75*
G02*
X102720000Y-64300000I150000J0D01*
G01*
X103020000Y-64300000D01*
G75*
G02*
X103170000Y-64450000I0J-150000D01*
G01*
G37*
G36*
G01*
X104440000Y-64450000D02*
X104440000Y-65850000D01*
G75*
G02*
X104290000Y-66000000I-150000J0D01*
G01*
X103990000Y-66000000D01*
G75*
G02*
X103840000Y-65850000I0J150000D01*
G01*
X103840000Y-64450000D01*
G75*
G02*
X103990000Y-64300000I150000J0D01*
G01*
X104290000Y-64300000D01*
G75*
G02*
X104440000Y-64450000I0J-150000D01*
G01*
G37*
G36*
G01*
X105710000Y-64450000D02*
X105710000Y-65850000D01*
G75*
G02*
X105560000Y-66000000I-150000J0D01*
G01*
X105260000Y-66000000D01*
G75*
G02*
X105110000Y-65850000I0J150000D01*
G01*
X105110000Y-64450000D01*
G75*
G02*
X105260000Y-64300000I150000J0D01*
G01*
X105560000Y-64300000D01*
G75*
G02*
X105710000Y-64450000I0J-150000D01*
G01*
G37*
G36*
G01*
X107910000Y-63350000D02*
X107910000Y-63650000D01*
G75*
G02*
X107760000Y-63800000I-150000J0D01*
G01*
X106360000Y-63800000D01*
G75*
G02*
X106210000Y-63650000I0J150000D01*
G01*
X106210000Y-63350000D01*
G75*
G02*
X106360000Y-63200000I150000J0D01*
G01*
X107760000Y-63200000D01*
G75*
G02*
X107910000Y-63350000I0J-150000D01*
G01*
G37*
G36*
G01*
X107910000Y-62080000D02*
X107910000Y-62380000D01*
G75*
G02*
X107760000Y-62530000I-150000J0D01*
G01*
X106360000Y-62530000D01*
G75*
G02*
X106210000Y-62380000I0J150000D01*
G01*
X106210000Y-62080000D01*
G75*
G02*
X106360000Y-61930000I150000J0D01*
G01*
X107760000Y-61930000D01*
G75*
G02*
X107910000Y-62080000I0J-150000D01*
G01*
G37*
G36*
G01*
X107910000Y-60810000D02*
X107910000Y-61110000D01*
G75*
G02*
X107760000Y-61260000I-150000J0D01*
G01*
X106360000Y-61260000D01*
G75*
G02*
X106210000Y-61110000I0J150000D01*
G01*
X106210000Y-60810000D01*
G75*
G02*
X106360000Y-60660000I150000J0D01*
G01*
X107760000Y-60660000D01*
G75*
G02*
X107910000Y-60810000I0J-150000D01*
G01*
G37*
G36*
G01*
X107910000Y-59540000D02*
X107910000Y-59840000D01*
G75*
G02*
X107760000Y-59990000I-150000J0D01*
G01*
X106360000Y-59990000D01*
G75*
G02*
X106210000Y-59840000I0J150000D01*
G01*
X106210000Y-59540000D01*
G75*
G02*
X106360000Y-59390000I150000J0D01*
G01*
X107760000Y-59390000D01*
G75*
G02*
X107910000Y-59540000I0J-150000D01*
G01*
G37*
G36*
G01*
X107910000Y-58270000D02*
X107910000Y-58570000D01*
G75*
G02*
X107760000Y-58720000I-150000J0D01*
G01*
X106360000Y-58720000D01*
G75*
G02*
X106210000Y-58570000I0J150000D01*
G01*
X106210000Y-58270000D01*
G75*
G02*
X106360000Y-58120000I150000J0D01*
G01*
X107760000Y-58120000D01*
G75*
G02*
X107910000Y-58270000I0J-150000D01*
G01*
G37*
G36*
G01*
X107910000Y-57000000D02*
X107910000Y-57300000D01*
G75*
G02*
X107760000Y-57450000I-150000J0D01*
G01*
X106360000Y-57450000D01*
G75*
G02*
X106210000Y-57300000I0J150000D01*
G01*
X106210000Y-57000000D01*
G75*
G02*
X106360000Y-56850000I150000J0D01*
G01*
X107760000Y-56850000D01*
G75*
G02*
X107910000Y-57000000I0J-150000D01*
G01*
G37*
G36*
G01*
X107910000Y-55730000D02*
X107910000Y-56030000D01*
G75*
G02*
X107760000Y-56180000I-150000J0D01*
G01*
X106360000Y-56180000D01*
G75*
G02*
X106210000Y-56030000I0J150000D01*
G01*
X106210000Y-55730000D01*
G75*
G02*
X106360000Y-55580000I150000J0D01*
G01*
X107760000Y-55580000D01*
G75*
G02*
X107910000Y-55730000I0J-150000D01*
G01*
G37*
G36*
G01*
X107910000Y-54460000D02*
X107910000Y-54760000D01*
G75*
G02*
X107760000Y-54910000I-150000J0D01*
G01*
X106360000Y-54910000D01*
G75*
G02*
X106210000Y-54760000I0J150000D01*
G01*
X106210000Y-54460000D01*
G75*
G02*
X106360000Y-54310000I150000J0D01*
G01*
X107760000Y-54310000D01*
G75*
G02*
X107910000Y-54460000I0J-150000D01*
G01*
G37*
G36*
G01*
X107910000Y-53190000D02*
X107910000Y-53490000D01*
G75*
G02*
X107760000Y-53640000I-150000J0D01*
G01*
X106360000Y-53640000D01*
G75*
G02*
X106210000Y-53490000I0J150000D01*
G01*
X106210000Y-53190000D01*
G75*
G02*
X106360000Y-53040000I150000J0D01*
G01*
X107760000Y-53040000D01*
G75*
G02*
X107910000Y-53190000I0J-150000D01*
G01*
G37*
G36*
G01*
X107910000Y-51920000D02*
X107910000Y-52220000D01*
G75*
G02*
X107760000Y-52370000I-150000J0D01*
G01*
X106360000Y-52370000D01*
G75*
G02*
X106210000Y-52220000I0J150000D01*
G01*
X106210000Y-51920000D01*
G75*
G02*
X106360000Y-51770000I150000J0D01*
G01*
X107760000Y-51770000D01*
G75*
G02*
X107910000Y-51920000I0J-150000D01*
G01*
G37*
G36*
G01*
X107910000Y-50650000D02*
X107910000Y-50950000D01*
G75*
G02*
X107760000Y-51100000I-150000J0D01*
G01*
X106360000Y-51100000D01*
G75*
G02*
X106210000Y-50950000I0J150000D01*
G01*
X106210000Y-50650000D01*
G75*
G02*
X106360000Y-50500000I150000J0D01*
G01*
X107760000Y-50500000D01*
G75*
G02*
X107910000Y-50650000I0J-150000D01*
G01*
G37*
G36*
G01*
X105710000Y-48450000D02*
X105710000Y-49850000D01*
G75*
G02*
X105560000Y-50000000I-150000J0D01*
G01*
X105260000Y-50000000D01*
G75*
G02*
X105110000Y-49850000I0J150000D01*
G01*
X105110000Y-48450000D01*
G75*
G02*
X105260000Y-48300000I150000J0D01*
G01*
X105560000Y-48300000D01*
G75*
G02*
X105710000Y-48450000I0J-150000D01*
G01*
G37*
G36*
G01*
X104440000Y-48450000D02*
X104440000Y-49850000D01*
G75*
G02*
X104290000Y-50000000I-150000J0D01*
G01*
X103990000Y-50000000D01*
G75*
G02*
X103840000Y-49850000I0J150000D01*
G01*
X103840000Y-48450000D01*
G75*
G02*
X103990000Y-48300000I150000J0D01*
G01*
X104290000Y-48300000D01*
G75*
G02*
X104440000Y-48450000I0J-150000D01*
G01*
G37*
G36*
G01*
X103170000Y-48450000D02*
X103170000Y-49850000D01*
G75*
G02*
X103020000Y-50000000I-150000J0D01*
G01*
X102720000Y-50000000D01*
G75*
G02*
X102570000Y-49850000I0J150000D01*
G01*
X102570000Y-48450000D01*
G75*
G02*
X102720000Y-48300000I150000J0D01*
G01*
X103020000Y-48300000D01*
G75*
G02*
X103170000Y-48450000I0J-150000D01*
G01*
G37*
G36*
G01*
X101900000Y-48450000D02*
X101900000Y-49850000D01*
G75*
G02*
X101750000Y-50000000I-150000J0D01*
G01*
X101450000Y-50000000D01*
G75*
G02*
X101300000Y-49850000I0J150000D01*
G01*
X101300000Y-48450000D01*
G75*
G02*
X101450000Y-48300000I150000J0D01*
G01*
X101750000Y-48300000D01*
G75*
G02*
X101900000Y-48450000I0J-150000D01*
G01*
G37*
G36*
G01*
X100630000Y-48450000D02*
X100630000Y-49850000D01*
G75*
G02*
X100480000Y-50000000I-150000J0D01*
G01*
X100180000Y-50000000D01*
G75*
G02*
X100030000Y-49850000I0J150000D01*
G01*
X100030000Y-48450000D01*
G75*
G02*
X100180000Y-48300000I150000J0D01*
G01*
X100480000Y-48300000D01*
G75*
G02*
X100630000Y-48450000I0J-150000D01*
G01*
G37*
G36*
G01*
X99360000Y-48450000D02*
X99360000Y-49850000D01*
G75*
G02*
X99210000Y-50000000I-150000J0D01*
G01*
X98910000Y-50000000D01*
G75*
G02*
X98760000Y-49850000I0J150000D01*
G01*
X98760000Y-48450000D01*
G75*
G02*
X98910000Y-48300000I150000J0D01*
G01*
X99210000Y-48300000D01*
G75*
G02*
X99360000Y-48450000I0J-150000D01*
G01*
G37*
%TD*%
%TO.C,A*%
G36*
G01*
X78405000Y-48450000D02*
X78405000Y-49850000D01*
G75*
G02*
X78255000Y-50000000I-150000J0D01*
G01*
X77955000Y-50000000D01*
G75*
G02*
X77805000Y-49850000I0J150000D01*
G01*
X77805000Y-48450000D01*
G75*
G02*
X77955000Y-48300000I150000J0D01*
G01*
X78255000Y-48300000D01*
G75*
G02*
X78405000Y-48450000I0J-150000D01*
G01*
G37*
G36*
G01*
X77135000Y-48450000D02*
X77135000Y-49850000D01*
G75*
G02*
X76985000Y-50000000I-150000J0D01*
G01*
X76685000Y-50000000D01*
G75*
G02*
X76535000Y-49850000I0J150000D01*
G01*
X76535000Y-48450000D01*
G75*
G02*
X76685000Y-48300000I150000J0D01*
G01*
X76985000Y-48300000D01*
G75*
G02*
X77135000Y-48450000I0J-150000D01*
G01*
G37*
G36*
G01*
X75865000Y-48450000D02*
X75865000Y-49850000D01*
G75*
G02*
X75715000Y-50000000I-150000J0D01*
G01*
X75415000Y-50000000D01*
G75*
G02*
X75265000Y-49850000I0J150000D01*
G01*
X75265000Y-48450000D01*
G75*
G02*
X75415000Y-48300000I150000J0D01*
G01*
X75715000Y-48300000D01*
G75*
G02*
X75865000Y-48450000I0J-150000D01*
G01*
G37*
G36*
G01*
X74595000Y-48450000D02*
X74595000Y-49850000D01*
G75*
G02*
X74445000Y-50000000I-150000J0D01*
G01*
X74145000Y-50000000D01*
G75*
G02*
X73995000Y-49850000I0J150000D01*
G01*
X73995000Y-48450000D01*
G75*
G02*
X74145000Y-48300000I150000J0D01*
G01*
X74445000Y-48300000D01*
G75*
G02*
X74595000Y-48450000I0J-150000D01*
G01*
G37*
G36*
G01*
X73325000Y-48450000D02*
X73325000Y-49850000D01*
G75*
G02*
X73175000Y-50000000I-150000J0D01*
G01*
X72875000Y-50000000D01*
G75*
G02*
X72725000Y-49850000I0J150000D01*
G01*
X72725000Y-48450000D01*
G75*
G02*
X72875000Y-48300000I150000J0D01*
G01*
X73175000Y-48300000D01*
G75*
G02*
X73325000Y-48450000I0J-150000D01*
G01*
G37*
G36*
G01*
X72225000Y-50650000D02*
X72225000Y-50950000D01*
G75*
G02*
X72075000Y-51100000I-150000J0D01*
G01*
X70675000Y-51100000D01*
G75*
G02*
X70525000Y-50950000I0J150000D01*
G01*
X70525000Y-50650000D01*
G75*
G02*
X70675000Y-50500000I150000J0D01*
G01*
X72075000Y-50500000D01*
G75*
G02*
X72225000Y-50650000I0J-150000D01*
G01*
G37*
G36*
G01*
X72225000Y-51920000D02*
X72225000Y-52220000D01*
G75*
G02*
X72075000Y-52370000I-150000J0D01*
G01*
X70675000Y-52370000D01*
G75*
G02*
X70525000Y-52220000I0J150000D01*
G01*
X70525000Y-51920000D01*
G75*
G02*
X70675000Y-51770000I150000J0D01*
G01*
X72075000Y-51770000D01*
G75*
G02*
X72225000Y-51920000I0J-150000D01*
G01*
G37*
G36*
G01*
X72225000Y-53190000D02*
X72225000Y-53490000D01*
G75*
G02*
X72075000Y-53640000I-150000J0D01*
G01*
X70675000Y-53640000D01*
G75*
G02*
X70525000Y-53490000I0J150000D01*
G01*
X70525000Y-53190000D01*
G75*
G02*
X70675000Y-53040000I150000J0D01*
G01*
X72075000Y-53040000D01*
G75*
G02*
X72225000Y-53190000I0J-150000D01*
G01*
G37*
G36*
G01*
X72225000Y-54460000D02*
X72225000Y-54760000D01*
G75*
G02*
X72075000Y-54910000I-150000J0D01*
G01*
X70675000Y-54910000D01*
G75*
G02*
X70525000Y-54760000I0J150000D01*
G01*
X70525000Y-54460000D01*
G75*
G02*
X70675000Y-54310000I150000J0D01*
G01*
X72075000Y-54310000D01*
G75*
G02*
X72225000Y-54460000I0J-150000D01*
G01*
G37*
G36*
G01*
X72225000Y-55730000D02*
X72225000Y-56030000D01*
G75*
G02*
X72075000Y-56180000I-150000J0D01*
G01*
X70675000Y-56180000D01*
G75*
G02*
X70525000Y-56030000I0J150000D01*
G01*
X70525000Y-55730000D01*
G75*
G02*
X70675000Y-55580000I150000J0D01*
G01*
X72075000Y-55580000D01*
G75*
G02*
X72225000Y-55730000I0J-150000D01*
G01*
G37*
G36*
G01*
X72225000Y-57000000D02*
X72225000Y-57300000D01*
G75*
G02*
X72075000Y-57450000I-150000J0D01*
G01*
X70675000Y-57450000D01*
G75*
G02*
X70525000Y-57300000I0J150000D01*
G01*
X70525000Y-57000000D01*
G75*
G02*
X70675000Y-56850000I150000J0D01*
G01*
X72075000Y-56850000D01*
G75*
G02*
X72225000Y-57000000I0J-150000D01*
G01*
G37*
G36*
G01*
X72225000Y-58270000D02*
X72225000Y-58570000D01*
G75*
G02*
X72075000Y-58720000I-150000J0D01*
G01*
X70675000Y-58720000D01*
G75*
G02*
X70525000Y-58570000I0J150000D01*
G01*
X70525000Y-58270000D01*
G75*
G02*
X70675000Y-58120000I150000J0D01*
G01*
X72075000Y-58120000D01*
G75*
G02*
X72225000Y-58270000I0J-150000D01*
G01*
G37*
G36*
G01*
X72225000Y-59540000D02*
X72225000Y-59840000D01*
G75*
G02*
X72075000Y-59990000I-150000J0D01*
G01*
X70675000Y-59990000D01*
G75*
G02*
X70525000Y-59840000I0J150000D01*
G01*
X70525000Y-59540000D01*
G75*
G02*
X70675000Y-59390000I150000J0D01*
G01*
X72075000Y-59390000D01*
G75*
G02*
X72225000Y-59540000I0J-150000D01*
G01*
G37*
G36*
G01*
X72225000Y-60810000D02*
X72225000Y-61110000D01*
G75*
G02*
X72075000Y-61260000I-150000J0D01*
G01*
X70675000Y-61260000D01*
G75*
G02*
X70525000Y-61110000I0J150000D01*
G01*
X70525000Y-60810000D01*
G75*
G02*
X70675000Y-60660000I150000J0D01*
G01*
X72075000Y-60660000D01*
G75*
G02*
X72225000Y-60810000I0J-150000D01*
G01*
G37*
G36*
G01*
X72225000Y-62080000D02*
X72225000Y-62380000D01*
G75*
G02*
X72075000Y-62530000I-150000J0D01*
G01*
X70675000Y-62530000D01*
G75*
G02*
X70525000Y-62380000I0J150000D01*
G01*
X70525000Y-62080000D01*
G75*
G02*
X70675000Y-61930000I150000J0D01*
G01*
X72075000Y-61930000D01*
G75*
G02*
X72225000Y-62080000I0J-150000D01*
G01*
G37*
G36*
G01*
X72225000Y-63350000D02*
X72225000Y-63650000D01*
G75*
G02*
X72075000Y-63800000I-150000J0D01*
G01*
X70675000Y-63800000D01*
G75*
G02*
X70525000Y-63650000I0J150000D01*
G01*
X70525000Y-63350000D01*
G75*
G02*
X70675000Y-63200000I150000J0D01*
G01*
X72075000Y-63200000D01*
G75*
G02*
X72225000Y-63350000I0J-150000D01*
G01*
G37*
G36*
G01*
X73325000Y-64450000D02*
X73325000Y-65850000D01*
G75*
G02*
X73175000Y-66000000I-150000J0D01*
G01*
X72875000Y-66000000D01*
G75*
G02*
X72725000Y-65850000I0J150000D01*
G01*
X72725000Y-64450000D01*
G75*
G02*
X72875000Y-64300000I150000J0D01*
G01*
X73175000Y-64300000D01*
G75*
G02*
X73325000Y-64450000I0J-150000D01*
G01*
G37*
G36*
G01*
X74595000Y-64450000D02*
X74595000Y-65850000D01*
G75*
G02*
X74445000Y-66000000I-150000J0D01*
G01*
X74145000Y-66000000D01*
G75*
G02*
X73995000Y-65850000I0J150000D01*
G01*
X73995000Y-64450000D01*
G75*
G02*
X74145000Y-64300000I150000J0D01*
G01*
X74445000Y-64300000D01*
G75*
G02*
X74595000Y-64450000I0J-150000D01*
G01*
G37*
G36*
G01*
X75865000Y-64450000D02*
X75865000Y-65850000D01*
G75*
G02*
X75715000Y-66000000I-150000J0D01*
G01*
X75415000Y-66000000D01*
G75*
G02*
X75265000Y-65850000I0J150000D01*
G01*
X75265000Y-64450000D01*
G75*
G02*
X75415000Y-64300000I150000J0D01*
G01*
X75715000Y-64300000D01*
G75*
G02*
X75865000Y-64450000I0J-150000D01*
G01*
G37*
G36*
G01*
X77135000Y-64450000D02*
X77135000Y-65850000D01*
G75*
G02*
X76985000Y-66000000I-150000J0D01*
G01*
X76685000Y-66000000D01*
G75*
G02*
X76535000Y-65850000I0J150000D01*
G01*
X76535000Y-64450000D01*
G75*
G02*
X76685000Y-64300000I150000J0D01*
G01*
X76985000Y-64300000D01*
G75*
G02*
X77135000Y-64450000I0J-150000D01*
G01*
G37*
G36*
G01*
X78405000Y-64450000D02*
X78405000Y-65850000D01*
G75*
G02*
X78255000Y-66000000I-150000J0D01*
G01*
X77955000Y-66000000D01*
G75*
G02*
X77805000Y-65850000I0J150000D01*
G01*
X77805000Y-64450000D01*
G75*
G02*
X77955000Y-64300000I150000J0D01*
G01*
X78255000Y-64300000D01*
G75*
G02*
X78405000Y-64450000I0J-150000D01*
G01*
G37*
G36*
G01*
X79675000Y-64450000D02*
X79675000Y-65850000D01*
G75*
G02*
X79525000Y-66000000I-150000J0D01*
G01*
X79225000Y-66000000D01*
G75*
G02*
X79075000Y-65850000I0J150000D01*
G01*
X79075000Y-64450000D01*
G75*
G02*
X79225000Y-64300000I150000J0D01*
G01*
X79525000Y-64300000D01*
G75*
G02*
X79675000Y-64450000I0J-150000D01*
G01*
G37*
G36*
G01*
X80945000Y-64450000D02*
X80945000Y-65850000D01*
G75*
G02*
X80795000Y-66000000I-150000J0D01*
G01*
X80495000Y-66000000D01*
G75*
G02*
X80345000Y-65850000I0J150000D01*
G01*
X80345000Y-64450000D01*
G75*
G02*
X80495000Y-64300000I150000J0D01*
G01*
X80795000Y-64300000D01*
G75*
G02*
X80945000Y-64450000I0J-150000D01*
G01*
G37*
G36*
G01*
X82215000Y-64450000D02*
X82215000Y-65850000D01*
G75*
G02*
X82065000Y-66000000I-150000J0D01*
G01*
X81765000Y-66000000D01*
G75*
G02*
X81615000Y-65850000I0J150000D01*
G01*
X81615000Y-64450000D01*
G75*
G02*
X81765000Y-64300000I150000J0D01*
G01*
X82065000Y-64300000D01*
G75*
G02*
X82215000Y-64450000I0J-150000D01*
G01*
G37*
G36*
G01*
X83485000Y-64450000D02*
X83485000Y-65850000D01*
G75*
G02*
X83335000Y-66000000I-150000J0D01*
G01*
X83035000Y-66000000D01*
G75*
G02*
X82885000Y-65850000I0J150000D01*
G01*
X82885000Y-64450000D01*
G75*
G02*
X83035000Y-64300000I150000J0D01*
G01*
X83335000Y-64300000D01*
G75*
G02*
X83485000Y-64450000I0J-150000D01*
G01*
G37*
G36*
G01*
X84755000Y-64450000D02*
X84755000Y-65850000D01*
G75*
G02*
X84605000Y-66000000I-150000J0D01*
G01*
X84305000Y-66000000D01*
G75*
G02*
X84155000Y-65850000I0J150000D01*
G01*
X84155000Y-64450000D01*
G75*
G02*
X84305000Y-64300000I150000J0D01*
G01*
X84605000Y-64300000D01*
G75*
G02*
X84755000Y-64450000I0J-150000D01*
G01*
G37*
G36*
G01*
X86025000Y-64450000D02*
X86025000Y-65850000D01*
G75*
G02*
X85875000Y-66000000I-150000J0D01*
G01*
X85575000Y-66000000D01*
G75*
G02*
X85425000Y-65850000I0J150000D01*
G01*
X85425000Y-64450000D01*
G75*
G02*
X85575000Y-64300000I150000J0D01*
G01*
X85875000Y-64300000D01*
G75*
G02*
X86025000Y-64450000I0J-150000D01*
G01*
G37*
G36*
G01*
X88225000Y-63350000D02*
X88225000Y-63650000D01*
G75*
G02*
X88075000Y-63800000I-150000J0D01*
G01*
X86675000Y-63800000D01*
G75*
G02*
X86525000Y-63650000I0J150000D01*
G01*
X86525000Y-63350000D01*
G75*
G02*
X86675000Y-63200000I150000J0D01*
G01*
X88075000Y-63200000D01*
G75*
G02*
X88225000Y-63350000I0J-150000D01*
G01*
G37*
G36*
G01*
X88225000Y-62080000D02*
X88225000Y-62380000D01*
G75*
G02*
X88075000Y-62530000I-150000J0D01*
G01*
X86675000Y-62530000D01*
G75*
G02*
X86525000Y-62380000I0J150000D01*
G01*
X86525000Y-62080000D01*
G75*
G02*
X86675000Y-61930000I150000J0D01*
G01*
X88075000Y-61930000D01*
G75*
G02*
X88225000Y-62080000I0J-150000D01*
G01*
G37*
G36*
G01*
X88225000Y-60810000D02*
X88225000Y-61110000D01*
G75*
G02*
X88075000Y-61260000I-150000J0D01*
G01*
X86675000Y-61260000D01*
G75*
G02*
X86525000Y-61110000I0J150000D01*
G01*
X86525000Y-60810000D01*
G75*
G02*
X86675000Y-60660000I150000J0D01*
G01*
X88075000Y-60660000D01*
G75*
G02*
X88225000Y-60810000I0J-150000D01*
G01*
G37*
G36*
G01*
X88225000Y-59540000D02*
X88225000Y-59840000D01*
G75*
G02*
X88075000Y-59990000I-150000J0D01*
G01*
X86675000Y-59990000D01*
G75*
G02*
X86525000Y-59840000I0J150000D01*
G01*
X86525000Y-59540000D01*
G75*
G02*
X86675000Y-59390000I150000J0D01*
G01*
X88075000Y-59390000D01*
G75*
G02*
X88225000Y-59540000I0J-150000D01*
G01*
G37*
G36*
G01*
X88225000Y-58270000D02*
X88225000Y-58570000D01*
G75*
G02*
X88075000Y-58720000I-150000J0D01*
G01*
X86675000Y-58720000D01*
G75*
G02*
X86525000Y-58570000I0J150000D01*
G01*
X86525000Y-58270000D01*
G75*
G02*
X86675000Y-58120000I150000J0D01*
G01*
X88075000Y-58120000D01*
G75*
G02*
X88225000Y-58270000I0J-150000D01*
G01*
G37*
G36*
G01*
X88225000Y-57000000D02*
X88225000Y-57300000D01*
G75*
G02*
X88075000Y-57450000I-150000J0D01*
G01*
X86675000Y-57450000D01*
G75*
G02*
X86525000Y-57300000I0J150000D01*
G01*
X86525000Y-57000000D01*
G75*
G02*
X86675000Y-56850000I150000J0D01*
G01*
X88075000Y-56850000D01*
G75*
G02*
X88225000Y-57000000I0J-150000D01*
G01*
G37*
G36*
G01*
X88225000Y-55730000D02*
X88225000Y-56030000D01*
G75*
G02*
X88075000Y-56180000I-150000J0D01*
G01*
X86675000Y-56180000D01*
G75*
G02*
X86525000Y-56030000I0J150000D01*
G01*
X86525000Y-55730000D01*
G75*
G02*
X86675000Y-55580000I150000J0D01*
G01*
X88075000Y-55580000D01*
G75*
G02*
X88225000Y-55730000I0J-150000D01*
G01*
G37*
G36*
G01*
X88225000Y-54460000D02*
X88225000Y-54760000D01*
G75*
G02*
X88075000Y-54910000I-150000J0D01*
G01*
X86675000Y-54910000D01*
G75*
G02*
X86525000Y-54760000I0J150000D01*
G01*
X86525000Y-54460000D01*
G75*
G02*
X86675000Y-54310000I150000J0D01*
G01*
X88075000Y-54310000D01*
G75*
G02*
X88225000Y-54460000I0J-150000D01*
G01*
G37*
G36*
G01*
X88225000Y-53190000D02*
X88225000Y-53490000D01*
G75*
G02*
X88075000Y-53640000I-150000J0D01*
G01*
X86675000Y-53640000D01*
G75*
G02*
X86525000Y-53490000I0J150000D01*
G01*
X86525000Y-53190000D01*
G75*
G02*
X86675000Y-53040000I150000J0D01*
G01*
X88075000Y-53040000D01*
G75*
G02*
X88225000Y-53190000I0J-150000D01*
G01*
G37*
G36*
G01*
X88225000Y-51920000D02*
X88225000Y-52220000D01*
G75*
G02*
X88075000Y-52370000I-150000J0D01*
G01*
X86675000Y-52370000D01*
G75*
G02*
X86525000Y-52220000I0J150000D01*
G01*
X86525000Y-51920000D01*
G75*
G02*
X86675000Y-51770000I150000J0D01*
G01*
X88075000Y-51770000D01*
G75*
G02*
X88225000Y-51920000I0J-150000D01*
G01*
G37*
G36*
G01*
X88225000Y-50650000D02*
X88225000Y-50950000D01*
G75*
G02*
X88075000Y-51100000I-150000J0D01*
G01*
X86675000Y-51100000D01*
G75*
G02*
X86525000Y-50950000I0J150000D01*
G01*
X86525000Y-50650000D01*
G75*
G02*
X86675000Y-50500000I150000J0D01*
G01*
X88075000Y-50500000D01*
G75*
G02*
X88225000Y-50650000I0J-150000D01*
G01*
G37*
G36*
G01*
X86025000Y-48450000D02*
X86025000Y-49850000D01*
G75*
G02*
X85875000Y-50000000I-150000J0D01*
G01*
X85575000Y-50000000D01*
G75*
G02*
X85425000Y-49850000I0J150000D01*
G01*
X85425000Y-48450000D01*
G75*
G02*
X85575000Y-48300000I150000J0D01*
G01*
X85875000Y-48300000D01*
G75*
G02*
X86025000Y-48450000I0J-150000D01*
G01*
G37*
G36*
G01*
X84755000Y-48450000D02*
X84755000Y-49850000D01*
G75*
G02*
X84605000Y-50000000I-150000J0D01*
G01*
X84305000Y-50000000D01*
G75*
G02*
X84155000Y-49850000I0J150000D01*
G01*
X84155000Y-48450000D01*
G75*
G02*
X84305000Y-48300000I150000J0D01*
G01*
X84605000Y-48300000D01*
G75*
G02*
X84755000Y-48450000I0J-150000D01*
G01*
G37*
G36*
G01*
X83485000Y-48450000D02*
X83485000Y-49850000D01*
G75*
G02*
X83335000Y-50000000I-150000J0D01*
G01*
X83035000Y-50000000D01*
G75*
G02*
X82885000Y-49850000I0J150000D01*
G01*
X82885000Y-48450000D01*
G75*
G02*
X83035000Y-48300000I150000J0D01*
G01*
X83335000Y-48300000D01*
G75*
G02*
X83485000Y-48450000I0J-150000D01*
G01*
G37*
G36*
G01*
X82215000Y-48450000D02*
X82215000Y-49850000D01*
G75*
G02*
X82065000Y-50000000I-150000J0D01*
G01*
X81765000Y-50000000D01*
G75*
G02*
X81615000Y-49850000I0J150000D01*
G01*
X81615000Y-48450000D01*
G75*
G02*
X81765000Y-48300000I150000J0D01*
G01*
X82065000Y-48300000D01*
G75*
G02*
X82215000Y-48450000I0J-150000D01*
G01*
G37*
G36*
G01*
X80945000Y-48450000D02*
X80945000Y-49850000D01*
G75*
G02*
X80795000Y-50000000I-150000J0D01*
G01*
X80495000Y-50000000D01*
G75*
G02*
X80345000Y-49850000I0J150000D01*
G01*
X80345000Y-48450000D01*
G75*
G02*
X80495000Y-48300000I150000J0D01*
G01*
X80795000Y-48300000D01*
G75*
G02*
X80945000Y-48450000I0J-150000D01*
G01*
G37*
G36*
G01*
X79675000Y-48450000D02*
X79675000Y-49850000D01*
G75*
G02*
X79525000Y-50000000I-150000J0D01*
G01*
X79225000Y-50000000D01*
G75*
G02*
X79075000Y-49850000I0J150000D01*
G01*
X79075000Y-48450000D01*
G75*
G02*
X79225000Y-48300000I150000J0D01*
G01*
X79525000Y-48300000D01*
G75*
G02*
X79675000Y-48450000I0J-150000D01*
G01*
G37*
%TD*%
M02*
