%TF.GenerationSoftware,KiCad,Pcbnew,(5.1.9-0-10_14)*%
%TF.CreationDate,2021-04-15T22:22:18+08:00*%
%TF.ProjectId,MTMatrixRoundedAgain,4d544d61-7472-4697-9852-6f756e646564,rev?*%
%TF.SameCoordinates,Original*%
%TF.FileFunction,Legend,Bot*%
%TF.FilePolarity,Positive*%
%FSLAX46Y46*%
G04 Gerber Fmt 4.6, Leading zero omitted, Abs format (unit mm)*
G04 Created by KiCad (PCBNEW (5.1.9-0-10_14)) date 2021-04-15 22:22:18*
%MOMM*%
%LPD*%
G01*
G04 APERTURE LIST*
%ADD10C,0.125000*%
%ADD11C,0.150000*%
%ADD12C,0.254000*%
%ADD13C,0.120000*%
G04 APERTURE END LIST*
D10*
X148400916Y-92674244D02*
X148543773Y-92217101D01*
X148686630Y-92674244D01*
X148734249Y-93245673D02*
X148734249Y-92959959D01*
X148234249Y-92959959D01*
X148472344Y-93445673D02*
X148472344Y-93645673D01*
X148734249Y-93731387D02*
X148734249Y-93445673D01*
X148234249Y-93445673D01*
X148234249Y-93731387D01*
X148734249Y-93988530D02*
X148234249Y-93988530D01*
X148234249Y-94131387D01*
X148258059Y-94217101D01*
X148305678Y-94274244D01*
X148353297Y-94302816D01*
X148448535Y-94331387D01*
X148519963Y-94331387D01*
X148615201Y-94302816D01*
X148662820Y-94274244D01*
X148710439Y-94217101D01*
X148734249Y-94131387D01*
X148734249Y-93988530D01*
D11*
X148393773Y-91378720D02*
X148450916Y-91426339D01*
X148565201Y-91426339D01*
X148622344Y-91378720D01*
X148650916Y-91283482D01*
X148650916Y-90902530D01*
X148622344Y-90807292D01*
X148565201Y-90759673D01*
X148450916Y-90759673D01*
X148393773Y-90807292D01*
X148365201Y-90902530D01*
X148365201Y-90997768D01*
X148650916Y-91093006D01*
X148679487Y-88219673D02*
X148679487Y-88886339D01*
X148822344Y-87838720D02*
X148965201Y-88553006D01*
X148593773Y-88553006D01*
X148279487Y-88314911D02*
X148336630Y-88267292D01*
X148365201Y-88219673D01*
X148393773Y-88124435D01*
X148393773Y-88076816D01*
X148365201Y-87981578D01*
X148336630Y-87933959D01*
X148279487Y-87886339D01*
X148165201Y-87886339D01*
X148108059Y-87933959D01*
X148079487Y-87981578D01*
X148050916Y-88076816D01*
X148050916Y-88124435D01*
X148079487Y-88219673D01*
X148108059Y-88267292D01*
X148165201Y-88314911D01*
X148279487Y-88314911D01*
X148336630Y-88362530D01*
X148365201Y-88410149D01*
X148393773Y-88505387D01*
X148393773Y-88695863D01*
X148365201Y-88791101D01*
X148336630Y-88838720D01*
X148279487Y-88886339D01*
X148165201Y-88886339D01*
X148108059Y-88838720D01*
X148079487Y-88791101D01*
X148050916Y-88695863D01*
X148050916Y-88505387D01*
X148079487Y-88410149D01*
X148108059Y-88362530D01*
X148165201Y-88314911D01*
X148679487Y-85679673D02*
X148679487Y-86346339D01*
X148822344Y-85298720D02*
X148965201Y-86013006D01*
X148593773Y-86013006D01*
X148250916Y-85346339D02*
X148193773Y-85346339D01*
X148136630Y-85393959D01*
X148108059Y-85441578D01*
X148079487Y-85536816D01*
X148050916Y-85727292D01*
X148050916Y-85965387D01*
X148079487Y-86155863D01*
X148108059Y-86251101D01*
X148136630Y-86298720D01*
X148193773Y-86346339D01*
X148250916Y-86346339D01*
X148308059Y-86298720D01*
X148336630Y-86251101D01*
X148365201Y-86155863D01*
X148393773Y-85965387D01*
X148393773Y-85727292D01*
X148365201Y-85536816D01*
X148336630Y-85441578D01*
X148308059Y-85393959D01*
X148250916Y-85346339D01*
X148636630Y-83933339D02*
X148636630Y-82933339D01*
X148379487Y-83933339D02*
X148379487Y-83409530D01*
X148408059Y-83314292D01*
X148465201Y-83266673D01*
X148550916Y-83266673D01*
X148608059Y-83314292D01*
X148636630Y-83361911D01*
X148379487Y-81266339D02*
X148379487Y-80266339D01*
X148379487Y-81218720D02*
X148436630Y-81266339D01*
X148550916Y-81266339D01*
X148608059Y-81218720D01*
X148636630Y-81171101D01*
X148665201Y-81075863D01*
X148665201Y-80790149D01*
X148636630Y-80694911D01*
X148608059Y-80647292D01*
X148550916Y-80599673D01*
X148436630Y-80599673D01*
X148379487Y-80647292D01*
X148622344Y-78726339D02*
X148965201Y-78726339D01*
X148793773Y-78726339D02*
X148793773Y-77726339D01*
X148850916Y-77869197D01*
X148908059Y-77964435D01*
X148965201Y-78012054D01*
X148108059Y-77726339D02*
X148222344Y-77726339D01*
X148279487Y-77773959D01*
X148308059Y-77821578D01*
X148365201Y-77964435D01*
X148393773Y-78154911D01*
X148393773Y-78535863D01*
X148365201Y-78631101D01*
X148336630Y-78678720D01*
X148279487Y-78726339D01*
X148165201Y-78726339D01*
X148108059Y-78678720D01*
X148079487Y-78631101D01*
X148050916Y-78535863D01*
X148050916Y-78297768D01*
X148079487Y-78202530D01*
X148108059Y-78154911D01*
X148165201Y-78107292D01*
X148279487Y-78107292D01*
X148336630Y-78154911D01*
X148365201Y-78202530D01*
X148393773Y-78297768D01*
X148565201Y-75614911D02*
X148622344Y-75567292D01*
X148650916Y-75519673D01*
X148679487Y-75424435D01*
X148679487Y-75376816D01*
X148650916Y-75281578D01*
X148622344Y-75233959D01*
X148565201Y-75186339D01*
X148450916Y-75186339D01*
X148393773Y-75233959D01*
X148365201Y-75281578D01*
X148336630Y-75376816D01*
X148336630Y-75424435D01*
X148365201Y-75519673D01*
X148393773Y-75567292D01*
X148450916Y-75614911D01*
X148565201Y-75614911D01*
X148622344Y-75662530D01*
X148650916Y-75710149D01*
X148679487Y-75805387D01*
X148679487Y-75995863D01*
X148650916Y-76091101D01*
X148622344Y-76138720D01*
X148565201Y-76186339D01*
X148450916Y-76186339D01*
X148393773Y-76138720D01*
X148365201Y-76091101D01*
X148336630Y-75995863D01*
X148336630Y-75805387D01*
X148365201Y-75710149D01*
X148393773Y-75662530D01*
X148450916Y-75614911D01*
X148379487Y-73646339D02*
X148379487Y-73122530D01*
X148408059Y-73027292D01*
X148465201Y-72979673D01*
X148579487Y-72979673D01*
X148636630Y-73027292D01*
X148379487Y-73598720D02*
X148436630Y-73646339D01*
X148579487Y-73646339D01*
X148636630Y-73598720D01*
X148665201Y-73503482D01*
X148665201Y-73408244D01*
X148636630Y-73313006D01*
X148579487Y-73265387D01*
X148436630Y-73265387D01*
X148379487Y-73217768D01*
X148385773Y-70153959D02*
X148442916Y-70106339D01*
X148528630Y-70106339D01*
X148614344Y-70153959D01*
X148671487Y-70249197D01*
X148700059Y-70344435D01*
X148728630Y-70534911D01*
X148728630Y-70677768D01*
X148700059Y-70868244D01*
X148671487Y-70963482D01*
X148614344Y-71058720D01*
X148528630Y-71106339D01*
X148471487Y-71106339D01*
X148385773Y-71058720D01*
X148357201Y-71011101D01*
X148357201Y-70677768D01*
X148471487Y-70677768D01*
X148100059Y-70439673D02*
X148100059Y-71106339D01*
X148100059Y-70534911D02*
X148071487Y-70487292D01*
X148014344Y-70439673D01*
X147928630Y-70439673D01*
X147871487Y-70487292D01*
X147842916Y-70582530D01*
X147842916Y-71106339D01*
X147300059Y-71106339D02*
X147300059Y-70106339D01*
X147300059Y-71058720D02*
X147357201Y-71106339D01*
X147471487Y-71106339D01*
X147528630Y-71058720D01*
X147557201Y-71011101D01*
X147585773Y-70915863D01*
X147585773Y-70630149D01*
X147557201Y-70534911D01*
X147528630Y-70487292D01*
X147471487Y-70439673D01*
X147357201Y-70439673D01*
X147300059Y-70487292D01*
X148679487Y-68566339D02*
X148679487Y-67566339D01*
X148679487Y-68042530D02*
X148336630Y-68042530D01*
X148336630Y-68566339D02*
X148336630Y-67566339D01*
X148350916Y-65200959D02*
X148408059Y-65153339D01*
X148493773Y-65153339D01*
X148579487Y-65200959D01*
X148636630Y-65296197D01*
X148665201Y-65391435D01*
X148693773Y-65581911D01*
X148693773Y-65724768D01*
X148665201Y-65915244D01*
X148636630Y-66010482D01*
X148579487Y-66105720D01*
X148493773Y-66153339D01*
X148436630Y-66153339D01*
X148350916Y-66105720D01*
X148322344Y-66058101D01*
X148322344Y-65724768D01*
X148436630Y-65724768D01*
X148422344Y-62962530D02*
X148622344Y-62962530D01*
X148622344Y-63486339D02*
X148622344Y-62486339D01*
X148336630Y-62486339D01*
X148636630Y-60422530D02*
X148436630Y-60422530D01*
X148350916Y-60946339D02*
X148636630Y-60946339D01*
X148636630Y-59946339D01*
X148350916Y-59946339D01*
X148665201Y-58406339D02*
X148665201Y-57406339D01*
X148522344Y-57406339D01*
X148436630Y-57453959D01*
X148379487Y-57549197D01*
X148350916Y-57644435D01*
X148322344Y-57834911D01*
X148322344Y-57977768D01*
X148350916Y-58168244D01*
X148379487Y-58263482D01*
X148436630Y-58358720D01*
X148522344Y-58406339D01*
X148665201Y-58406339D01*
X148322344Y-55898101D02*
X148350916Y-55945720D01*
X148436630Y-55993339D01*
X148493773Y-55993339D01*
X148579487Y-55945720D01*
X148636630Y-55850482D01*
X148665201Y-55755244D01*
X148693773Y-55564768D01*
X148693773Y-55421911D01*
X148665201Y-55231435D01*
X148636630Y-55136197D01*
X148579487Y-55040959D01*
X148493773Y-54993339D01*
X148436630Y-54993339D01*
X148350916Y-55040959D01*
X148322344Y-55088578D01*
X148465201Y-52802530D02*
X148379487Y-52850149D01*
X148350916Y-52897768D01*
X148322344Y-52993006D01*
X148322344Y-53135863D01*
X148350916Y-53231101D01*
X148379487Y-53278720D01*
X148436630Y-53326339D01*
X148665201Y-53326339D01*
X148665201Y-52326339D01*
X148465201Y-52326339D01*
X148408059Y-52373959D01*
X148379487Y-52421578D01*
X148350916Y-52516816D01*
X148350916Y-52612054D01*
X148379487Y-52707292D01*
X148408059Y-52754911D01*
X148465201Y-52802530D01*
X148665201Y-52802530D01*
X148650916Y-50500625D02*
X148365201Y-50500625D01*
X148708059Y-50786339D02*
X148508059Y-49786339D01*
X148308059Y-50786339D01*
D10*
X69875201Y-94607673D02*
X69732344Y-95064816D01*
X69589487Y-94607673D01*
X69541868Y-94036244D02*
X69541868Y-94321959D01*
X70041868Y-94321959D01*
X69803773Y-93836244D02*
X69803773Y-93636244D01*
X69541868Y-93550530D02*
X69541868Y-93836244D01*
X70041868Y-93836244D01*
X70041868Y-93550530D01*
X69541868Y-93293387D02*
X70041868Y-93293387D01*
X70041868Y-93150530D01*
X70018059Y-93064816D01*
X69970439Y-93007673D01*
X69922820Y-92979101D01*
X69827582Y-92950530D01*
X69756154Y-92950530D01*
X69660916Y-92979101D01*
X69613297Y-93007673D01*
X69565678Y-93064816D01*
X69541868Y-93150530D01*
X69541868Y-93293387D01*
X69803773Y-90754959D02*
X69803773Y-91212101D01*
X69994249Y-90983530D02*
X69613297Y-90983530D01*
X69660916Y-91497816D02*
X69803773Y-91954959D01*
X69946630Y-91497816D01*
X70160916Y-88443530D02*
X69446630Y-88443530D01*
X69660916Y-88872101D02*
X69803773Y-89329244D01*
X69946630Y-88872101D01*
X69859344Y-86112959D02*
X69859344Y-85655816D01*
X69668868Y-85884387D02*
X70049820Y-85884387D01*
X70002201Y-85370101D02*
X69859344Y-84912959D01*
X69716487Y-85370101D01*
X69502201Y-83471387D02*
X70216487Y-83471387D01*
X70002201Y-83042816D02*
X69859344Y-82585673D01*
X69716487Y-83042816D01*
D11*
X70920487Y-81012387D02*
X70463344Y-81012387D01*
X70149059Y-81393339D02*
X70034773Y-81393339D01*
X69977630Y-81345720D01*
X69949059Y-81298101D01*
X69891916Y-81155244D01*
X69863344Y-80964768D01*
X69863344Y-80583816D01*
X69891916Y-80488578D01*
X69920487Y-80440959D01*
X69977630Y-80393339D01*
X70091916Y-80393339D01*
X70149059Y-80440959D01*
X70177630Y-80488578D01*
X70206201Y-80583816D01*
X70206201Y-80821911D01*
X70177630Y-80917149D01*
X70149059Y-80964768D01*
X70091916Y-81012387D01*
X69977630Y-81012387D01*
X69920487Y-80964768D01*
X69891916Y-80917149D01*
X69863344Y-80821911D01*
X69691916Y-80393339D02*
X69491916Y-81393339D01*
X69291916Y-80393339D01*
X70534773Y-77900959D02*
X70591916Y-77853339D01*
X70677630Y-77853339D01*
X70763344Y-77900959D01*
X70820487Y-77996197D01*
X70849059Y-78091435D01*
X70877630Y-78281911D01*
X70877630Y-78424768D01*
X70849059Y-78615244D01*
X70820487Y-78710482D01*
X70763344Y-78805720D01*
X70677630Y-78853339D01*
X70620487Y-78853339D01*
X70534773Y-78805720D01*
X70506201Y-78758101D01*
X70506201Y-78424768D01*
X70620487Y-78424768D01*
X70249059Y-78186673D02*
X70249059Y-78853339D01*
X70249059Y-78281911D02*
X70220487Y-78234292D01*
X70163344Y-78186673D01*
X70077630Y-78186673D01*
X70020487Y-78234292D01*
X69991916Y-78329530D01*
X69991916Y-78853339D01*
X69449059Y-78853339D02*
X69449059Y-77853339D01*
X69449059Y-78805720D02*
X69506201Y-78853339D01*
X69620487Y-78853339D01*
X69677630Y-78805720D01*
X69706201Y-78758101D01*
X69734773Y-78662863D01*
X69734773Y-78377149D01*
X69706201Y-78281911D01*
X69677630Y-78234292D01*
X69620487Y-78186673D01*
X69506201Y-78186673D01*
X69449059Y-78234292D01*
X71047487Y-75932387D02*
X70590344Y-75932387D01*
X70818916Y-76313339D02*
X70818916Y-75551435D01*
X70276059Y-76313339D02*
X70161773Y-76313339D01*
X70104630Y-76265720D01*
X70076059Y-76218101D01*
X70018916Y-76075244D01*
X69990344Y-75884768D01*
X69990344Y-75503816D01*
X70018916Y-75408578D01*
X70047487Y-75360959D01*
X70104630Y-75313339D01*
X70218916Y-75313339D01*
X70276059Y-75360959D01*
X70304630Y-75408578D01*
X70333201Y-75503816D01*
X70333201Y-75741911D01*
X70304630Y-75837149D01*
X70276059Y-75884768D01*
X70218916Y-75932387D01*
X70104630Y-75932387D01*
X70047487Y-75884768D01*
X70018916Y-75837149D01*
X69990344Y-75741911D01*
X69818916Y-75313339D02*
X69618916Y-76313339D01*
X69418916Y-75313339D01*
X72112630Y-73598720D02*
X72026916Y-73646339D01*
X71884059Y-73646339D01*
X71826916Y-73598720D01*
X71798344Y-73551101D01*
X71769773Y-73455863D01*
X71769773Y-73360625D01*
X71798344Y-73265387D01*
X71826916Y-73217768D01*
X71884059Y-73170149D01*
X71998344Y-73122530D01*
X72055487Y-73074911D01*
X72084059Y-73027292D01*
X72112630Y-72932054D01*
X72112630Y-72836816D01*
X72084059Y-72741578D01*
X72055487Y-72693959D01*
X71998344Y-72646339D01*
X71855487Y-72646339D01*
X71769773Y-72693959D01*
X71598344Y-72979673D02*
X71369773Y-72979673D01*
X71512630Y-72646339D02*
X71512630Y-73503482D01*
X71484059Y-73598720D01*
X71426916Y-73646339D01*
X71369773Y-73646339D01*
X71169773Y-73646339D02*
X71169773Y-72979673D01*
X71169773Y-73170149D02*
X71141201Y-73074911D01*
X71112630Y-73027292D01*
X71055487Y-72979673D01*
X70998344Y-72979673D01*
X70712630Y-73646339D02*
X70769773Y-73598720D01*
X70798344Y-73551101D01*
X70826916Y-73455863D01*
X70826916Y-73170149D01*
X70798344Y-73074911D01*
X70769773Y-73027292D01*
X70712630Y-72979673D01*
X70626916Y-72979673D01*
X70569773Y-73027292D01*
X70541201Y-73074911D01*
X70512630Y-73170149D01*
X70512630Y-73455863D01*
X70541201Y-73551101D01*
X70569773Y-73598720D01*
X70626916Y-73646339D01*
X70712630Y-73646339D01*
X70255487Y-73646339D02*
X70255487Y-72646339D01*
X70255487Y-73027292D02*
X70198344Y-72979673D01*
X70084059Y-72979673D01*
X70026916Y-73027292D01*
X69998344Y-73074911D01*
X69969773Y-73170149D01*
X69969773Y-73455863D01*
X69998344Y-73551101D01*
X70026916Y-73598720D01*
X70084059Y-73646339D01*
X70198344Y-73646339D01*
X70255487Y-73598720D01*
X69484059Y-73598720D02*
X69541201Y-73646339D01*
X69655487Y-73646339D01*
X69712630Y-73598720D01*
X69741201Y-73503482D01*
X69741201Y-73122530D01*
X69712630Y-73027292D01*
X69655487Y-72979673D01*
X69541201Y-72979673D01*
X69484059Y-73027292D01*
X69455487Y-73122530D01*
X69455487Y-73217768D01*
X69741201Y-73313006D01*
X71272916Y-71106339D02*
X71472916Y-70630149D01*
X71615773Y-71106339D02*
X71615773Y-70106339D01*
X71387201Y-70106339D01*
X71330059Y-70153959D01*
X71301487Y-70201578D01*
X71272916Y-70296816D01*
X71272916Y-70439673D01*
X71301487Y-70534911D01*
X71330059Y-70582530D01*
X71387201Y-70630149D01*
X71615773Y-70630149D01*
X70787201Y-71058720D02*
X70844344Y-71106339D01*
X70958630Y-71106339D01*
X71015773Y-71058720D01*
X71044344Y-70963482D01*
X71044344Y-70582530D01*
X71015773Y-70487292D01*
X70958630Y-70439673D01*
X70844344Y-70439673D01*
X70787201Y-70487292D01*
X70758630Y-70582530D01*
X70758630Y-70677768D01*
X71044344Y-70773006D01*
X70530059Y-71058720D02*
X70472916Y-71106339D01*
X70358630Y-71106339D01*
X70301487Y-71058720D01*
X70272916Y-70963482D01*
X70272916Y-70915863D01*
X70301487Y-70820625D01*
X70358630Y-70773006D01*
X70444344Y-70773006D01*
X70501487Y-70725387D01*
X70530059Y-70630149D01*
X70530059Y-70582530D01*
X70501487Y-70487292D01*
X70444344Y-70439673D01*
X70358630Y-70439673D01*
X70301487Y-70487292D01*
X69787201Y-71058720D02*
X69844344Y-71106339D01*
X69958630Y-71106339D01*
X70015773Y-71058720D01*
X70044344Y-70963482D01*
X70044344Y-70582530D01*
X70015773Y-70487292D01*
X69958630Y-70439673D01*
X69844344Y-70439673D01*
X69787201Y-70487292D01*
X69758630Y-70582530D01*
X69758630Y-70677768D01*
X70044344Y-70773006D01*
X69587201Y-70439673D02*
X69358630Y-70439673D01*
X69501487Y-70106339D02*
X69501487Y-70963482D01*
X69472916Y-71058720D01*
X69415773Y-71106339D01*
X69358630Y-71106339D01*
X71274487Y-68566339D02*
X71274487Y-67566339D01*
X71131630Y-67566339D01*
X71045916Y-67613959D01*
X70988773Y-67709197D01*
X70960201Y-67804435D01*
X70931630Y-67994911D01*
X70931630Y-68137768D01*
X70960201Y-68328244D01*
X70988773Y-68423482D01*
X71045916Y-68518720D01*
X71131630Y-68566339D01*
X71274487Y-68566339D01*
X70417344Y-68566339D02*
X70417344Y-68042530D01*
X70445916Y-67947292D01*
X70503059Y-67899673D01*
X70617344Y-67899673D01*
X70674487Y-67947292D01*
X70417344Y-68518720D02*
X70474487Y-68566339D01*
X70617344Y-68566339D01*
X70674487Y-68518720D01*
X70703059Y-68423482D01*
X70703059Y-68328244D01*
X70674487Y-68233006D01*
X70617344Y-68185387D01*
X70474487Y-68185387D01*
X70417344Y-68137768D01*
X70217344Y-67899673D02*
X69988773Y-67899673D01*
X70131630Y-67566339D02*
X70131630Y-68423482D01*
X70103059Y-68518720D01*
X70045916Y-68566339D01*
X69988773Y-68566339D01*
X69531630Y-68566339D02*
X69531630Y-68042530D01*
X69560201Y-67947292D01*
X69617344Y-67899673D01*
X69731630Y-67899673D01*
X69788773Y-67947292D01*
X69531630Y-68518720D02*
X69588773Y-68566339D01*
X69731630Y-68566339D01*
X69788773Y-68518720D01*
X69817344Y-68423482D01*
X69817344Y-68328244D01*
X69788773Y-68233006D01*
X69731630Y-68185387D01*
X69588773Y-68185387D01*
X69531630Y-68137768D01*
X70307773Y-65550149D02*
X70307773Y-66026339D01*
X70507773Y-65026339D02*
X70307773Y-65550149D01*
X70107773Y-65026339D01*
X69936344Y-65121578D02*
X69907773Y-65073959D01*
X69850630Y-65026339D01*
X69707773Y-65026339D01*
X69650630Y-65073959D01*
X69622059Y-65121578D01*
X69593487Y-65216816D01*
X69593487Y-65312054D01*
X69622059Y-65454911D01*
X69964916Y-66026339D01*
X69593487Y-66026339D01*
X70180773Y-63137149D02*
X70180773Y-63613339D01*
X70380773Y-62613339D02*
X70180773Y-63137149D01*
X69980773Y-62613339D01*
X69466487Y-63613339D02*
X69809344Y-63613339D01*
X69637916Y-63613339D02*
X69637916Y-62613339D01*
X69695059Y-62756197D01*
X69752201Y-62851435D01*
X69809344Y-62899054D01*
X70180773Y-60470149D02*
X70180773Y-60946339D01*
X70380773Y-59946339D02*
X70180773Y-60470149D01*
X69980773Y-59946339D01*
X69666487Y-59946339D02*
X69609344Y-59946339D01*
X69552201Y-59993959D01*
X69523630Y-60041578D01*
X69495059Y-60136816D01*
X69466487Y-60327292D01*
X69466487Y-60565387D01*
X69495059Y-60755863D01*
X69523630Y-60851101D01*
X69552201Y-60898720D01*
X69609344Y-60946339D01*
X69666487Y-60946339D01*
X69723630Y-60898720D01*
X69752201Y-60851101D01*
X69780773Y-60755863D01*
X69809344Y-60565387D01*
X69809344Y-60327292D01*
X69780773Y-60136816D01*
X69752201Y-60041578D01*
X69723630Y-59993959D01*
X69666487Y-59946339D01*
X70380773Y-57533339D02*
X69980773Y-58533339D01*
X69980773Y-57533339D02*
X70380773Y-58533339D01*
X69809344Y-57533339D02*
X69437916Y-57533339D01*
X69637916Y-57914292D01*
X69552201Y-57914292D01*
X69495059Y-57961911D01*
X69466487Y-58009530D01*
X69437916Y-58104768D01*
X69437916Y-58342863D01*
X69466487Y-58438101D01*
X69495059Y-58485720D01*
X69552201Y-58533339D01*
X69723630Y-58533339D01*
X69780773Y-58485720D01*
X69809344Y-58438101D01*
X70380773Y-54993339D02*
X69980773Y-55993339D01*
X69980773Y-54993339D02*
X70380773Y-55993339D01*
X69780773Y-55088578D02*
X69752201Y-55040959D01*
X69695059Y-54993339D01*
X69552201Y-54993339D01*
X69495059Y-55040959D01*
X69466487Y-55088578D01*
X69437916Y-55183816D01*
X69437916Y-55279054D01*
X69466487Y-55421911D01*
X69809344Y-55993339D01*
X69437916Y-55993339D01*
X70380773Y-52453339D02*
X69980773Y-53453339D01*
X69980773Y-52453339D02*
X70380773Y-53453339D01*
X69437916Y-53453339D02*
X69780773Y-53453339D01*
X69609344Y-53453339D02*
X69609344Y-52453339D01*
X69666487Y-52596197D01*
X69723630Y-52691435D01*
X69780773Y-52739054D01*
X70380773Y-49786339D02*
X69980773Y-50786339D01*
X69980773Y-49786339D02*
X70380773Y-50786339D01*
X69637916Y-49786339D02*
X69580773Y-49786339D01*
X69523630Y-49833959D01*
X69495059Y-49881578D01*
X69466487Y-49976816D01*
X69437916Y-50167292D01*
X69437916Y-50405387D01*
X69466487Y-50595863D01*
X69495059Y-50691101D01*
X69523630Y-50738720D01*
X69580773Y-50786339D01*
X69637916Y-50786339D01*
X69695059Y-50738720D01*
X69723630Y-50691101D01*
X69752201Y-50595863D01*
X69780773Y-50405387D01*
X69780773Y-50167292D01*
X69752201Y-49976816D01*
X69723630Y-49881578D01*
X69695059Y-49833959D01*
X69637916Y-49786339D01*
D12*
%TO.C,J3*%
X129458059Y-63033959D02*
X131998059Y-63033959D01*
X129458059Y-80813959D02*
X131998059Y-80813959D01*
X129458059Y-65573959D02*
X131998059Y-65573959D01*
X129458059Y-60493959D02*
X131998059Y-60493959D01*
X129458059Y-57953959D02*
X131998059Y-57953959D01*
X129458059Y-78273959D02*
X131998059Y-78273959D01*
X129458059Y-83353959D02*
X131998059Y-83353959D01*
X129458059Y-85893959D02*
X131998059Y-85893959D01*
X88818059Y-63033959D02*
X91358059Y-63033959D01*
X88818059Y-80813959D02*
X91358059Y-80813959D01*
X88818059Y-65573959D02*
X91358059Y-65573959D01*
X88818059Y-60493959D02*
X91358059Y-60493959D01*
X88818059Y-57953959D02*
X91358059Y-57953959D01*
X88818059Y-78273959D02*
X91358059Y-78273959D01*
X88818059Y-83353959D02*
X91358059Y-83353959D01*
X88818059Y-85893959D02*
X91358059Y-85893959D01*
X110408059Y-63033959D02*
X111678059Y-63033959D01*
X110408059Y-80813959D02*
X111678059Y-80813959D01*
X110408059Y-65573959D02*
X111678059Y-65573959D01*
X110408059Y-60493959D02*
X111678059Y-60493959D01*
X110408059Y-57953959D02*
X111678059Y-57953959D01*
X110408059Y-78273959D02*
X111678059Y-78273959D01*
X110408059Y-83353959D02*
X111678059Y-83353959D01*
X110408059Y-85893959D02*
X111678059Y-85893959D01*
D13*
%TO.C,R2*%
X70776807Y-97398959D02*
X71299311Y-97398959D01*
X70776807Y-95978959D02*
X71299311Y-95978959D01*
%TO.C,R1*%
X147499311Y-46321959D02*
X146976807Y-46321959D01*
X147499311Y-47741959D02*
X146976807Y-47741959D01*
%TO.C,bypass         caps*%
X107363059Y-97623959D02*
X107363059Y-97023959D01*
X105263059Y-98323959D02*
X106663059Y-98323959D01*
X104563059Y-97023959D02*
X104563059Y-97623959D01*
X106663059Y-96323959D02*
X105263059Y-96323959D01*
X107363059Y-97023959D02*
G75*
G03*
X106663059Y-96323959I-700000J0D01*
G01*
X106663059Y-98323959D02*
G75*
G03*
X107363059Y-97623959I0J700000D01*
G01*
X104563059Y-97623959D02*
G75*
G03*
X105263059Y-98323959I700000J0D01*
G01*
X105263059Y-96323959D02*
G75*
G03*
X104563059Y-97023959I0J-700000D01*
G01*
%TO.C,bypass        caps*%
X107363059Y-46823959D02*
X107363059Y-46223959D01*
X105263059Y-47523959D02*
X106663059Y-47523959D01*
X104563059Y-46223959D02*
X104563059Y-46823959D01*
X106663059Y-45523959D02*
X105263059Y-45523959D01*
X107363059Y-46223959D02*
G75*
G03*
X106663059Y-45523959I-700000J0D01*
G01*
X106663059Y-47523959D02*
G75*
G03*
X107363059Y-46823959I0J700000D01*
G01*
X104563059Y-46823959D02*
G75*
G03*
X105263059Y-47523959I700000J0D01*
G01*
X105263059Y-45523959D02*
G75*
G03*
X104563059Y-46223959I0J-700000D01*
G01*
%TO.C,H*%
X72383059Y-78125859D02*
X70889959Y-78125859D01*
X70889959Y-78125859D02*
X70889959Y-79618959D01*
X86203059Y-94932059D02*
X87696159Y-94932059D01*
X87696159Y-94932059D02*
X87696159Y-93438959D01*
X72383059Y-94932059D02*
X70889959Y-94932059D01*
X70889959Y-94932059D02*
X70889959Y-93438959D01*
X86203059Y-78125859D02*
X86520941Y-78125859D01*
X86520941Y-78125859D02*
X87696159Y-79301077D01*
X87696159Y-79301077D02*
X87696159Y-79618959D01*
%TO.C,G*%
X92068059Y-78125859D02*
X90574959Y-78125859D01*
X90574959Y-78125859D02*
X90574959Y-79618959D01*
X105888059Y-94932059D02*
X107381159Y-94932059D01*
X107381159Y-94932059D02*
X107381159Y-93438959D01*
X92068059Y-94932059D02*
X90574959Y-94932059D01*
X90574959Y-94932059D02*
X90574959Y-93438959D01*
X105888059Y-78125859D02*
X106205941Y-78125859D01*
X106205941Y-78125859D02*
X107381159Y-79301077D01*
X107381159Y-79301077D02*
X107381159Y-79618959D01*
%TO.C,F*%
X112388059Y-78125859D02*
X110894959Y-78125859D01*
X110894959Y-78125859D02*
X110894959Y-79618959D01*
X126208059Y-94932059D02*
X127701159Y-94932059D01*
X127701159Y-94932059D02*
X127701159Y-93438959D01*
X112388059Y-94932059D02*
X110894959Y-94932059D01*
X110894959Y-94932059D02*
X110894959Y-93438959D01*
X126208059Y-78125859D02*
X126525941Y-78125859D01*
X126525941Y-78125859D02*
X127701159Y-79301077D01*
X127701159Y-79301077D02*
X127701159Y-79618959D01*
%TO.C,E*%
X132073059Y-78252859D02*
X130579959Y-78252859D01*
X130579959Y-78252859D02*
X130579959Y-79745959D01*
X145893059Y-95059059D02*
X147386159Y-95059059D01*
X147386159Y-95059059D02*
X147386159Y-93565959D01*
X132073059Y-95059059D02*
X130579959Y-95059059D01*
X130579959Y-95059059D02*
X130579959Y-93565959D01*
X145893059Y-78252859D02*
X146210941Y-78252859D01*
X146210941Y-78252859D02*
X147386159Y-79428077D01*
X147386159Y-79428077D02*
X147386159Y-79745959D01*
%TO.C,D8*%
X137383059Y-95863959D02*
X141268059Y-95863959D01*
X141268059Y-95863959D02*
X141268059Y-98783959D01*
X141268059Y-98783959D02*
X137383059Y-98783959D01*
%TO.C,D7*%
X77693059Y-95863959D02*
X81578059Y-95863959D01*
X81578059Y-95863959D02*
X81578059Y-98783959D01*
X81578059Y-98783959D02*
X77693059Y-98783959D01*
%TO.C,D6*%
X97378059Y-95863959D02*
X101263059Y-95863959D01*
X101263059Y-95863959D02*
X101263059Y-98783959D01*
X101263059Y-98783959D02*
X97378059Y-98783959D01*
%TO.C,D5*%
X117698059Y-95863959D02*
X121583059Y-95863959D01*
X121583059Y-95863959D02*
X121583059Y-98783959D01*
X121583059Y-98783959D02*
X117698059Y-98783959D01*
%TO.C,D4*%
X100578059Y-47983959D02*
X96693059Y-47983959D01*
X96693059Y-47983959D02*
X96693059Y-45063959D01*
X96693059Y-45063959D02*
X100578059Y-45063959D01*
%TO.C,D3*%
X140583059Y-47983959D02*
X136698059Y-47983959D01*
X136698059Y-47983959D02*
X136698059Y-45063959D01*
X136698059Y-45063959D02*
X140583059Y-45063959D01*
%TO.C,D2*%
X120898059Y-47983959D02*
X117013059Y-47983959D01*
X117013059Y-47983959D02*
X117013059Y-45063959D01*
X117013059Y-45063959D02*
X120898059Y-45063959D01*
%TO.C,D1*%
X80893059Y-47983959D02*
X77008059Y-47983959D01*
X77008059Y-47983959D02*
X77008059Y-45063959D01*
X77008059Y-45063959D02*
X80893059Y-45063959D01*
%TO.C,D*%
X132073059Y-48746900D02*
X130579959Y-48746900D01*
X130579959Y-48746900D02*
X130579959Y-50240000D01*
X145893059Y-65553100D02*
X147386159Y-65553100D01*
X147386159Y-65553100D02*
X147386159Y-64060000D01*
X132073059Y-65553100D02*
X130579959Y-65553100D01*
X130579959Y-65553100D02*
X130579959Y-64060000D01*
X145893059Y-48746900D02*
X146210941Y-48746900D01*
X146210941Y-48746900D02*
X147386159Y-49922118D01*
X147386159Y-49922118D02*
X147386159Y-50240000D01*
%TO.C,C6*%
X73443807Y-72506959D02*
X73966311Y-72506959D01*
X73443807Y-71086959D02*
X73966311Y-71086959D01*
%TO.C,C5*%
X144968311Y-71213959D02*
X144445807Y-71213959D01*
X144968311Y-72633959D02*
X144445807Y-72633959D01*
%TO.C,C4*%
X138848807Y-72633959D02*
X139371311Y-72633959D01*
X138848807Y-71213959D02*
X139371311Y-71213959D01*
%TO.C,C3*%
X80927807Y-72506959D02*
X81450311Y-72506959D01*
X80927807Y-71086959D02*
X81450311Y-71086959D01*
%TO.C,C2*%
X112819311Y-96613959D02*
X112296807Y-96613959D01*
X112819311Y-98033959D02*
X112296807Y-98033959D01*
%TO.C,C1*%
X112574311Y-45813959D02*
X112051807Y-45813959D01*
X112574311Y-47233959D02*
X112051807Y-47233959D01*
%TO.C,C*%
X112388059Y-48746900D02*
X110894959Y-48746900D01*
X110894959Y-48746900D02*
X110894959Y-50240000D01*
X126208059Y-65553100D02*
X127701159Y-65553100D01*
X127701159Y-65553100D02*
X127701159Y-64060000D01*
X112388059Y-65553100D02*
X110894959Y-65553100D01*
X110894959Y-65553100D02*
X110894959Y-64060000D01*
X126208059Y-48746900D02*
X126525941Y-48746900D01*
X126525941Y-48746900D02*
X127701159Y-49922118D01*
X127701159Y-49922118D02*
X127701159Y-50240000D01*
%TO.C,B*%
X92150000Y-48746900D02*
X90656900Y-48746900D01*
X90656900Y-48746900D02*
X90656900Y-50240000D01*
X105970000Y-65553100D02*
X107463100Y-65553100D01*
X107463100Y-65553100D02*
X107463100Y-64060000D01*
X92150000Y-65553100D02*
X90656900Y-65553100D01*
X90656900Y-65553100D02*
X90656900Y-64060000D01*
X105970000Y-48746900D02*
X106287882Y-48746900D01*
X106287882Y-48746900D02*
X107463100Y-49922118D01*
X107463100Y-49922118D02*
X107463100Y-50240000D01*
%TO.C,A*%
X72465000Y-48746900D02*
X70971900Y-48746900D01*
X70971900Y-48746900D02*
X70971900Y-50240000D01*
X86285000Y-65553100D02*
X87778100Y-65553100D01*
X87778100Y-65553100D02*
X87778100Y-64060000D01*
X72465000Y-65553100D02*
X70971900Y-65553100D01*
X70971900Y-65553100D02*
X70971900Y-64060000D01*
X86285000Y-48746900D02*
X86602882Y-48746900D01*
X86602882Y-48746900D02*
X87778100Y-49922118D01*
X87778100Y-49922118D02*
X87778100Y-50240000D01*
%TO.C,bypass         caps*%
D10*
X110082154Y-97423149D02*
X110082154Y-96923149D01*
X110082154Y-97113625D02*
X110034535Y-97089816D01*
X109939297Y-97089816D01*
X109891678Y-97113625D01*
X109867868Y-97137435D01*
X109844059Y-97185054D01*
X109844059Y-97327911D01*
X109867868Y-97375530D01*
X109891678Y-97399339D01*
X109939297Y-97423149D01*
X110034535Y-97423149D01*
X110082154Y-97399339D01*
X109677392Y-97089816D02*
X109558344Y-97423149D01*
X109439297Y-97089816D02*
X109558344Y-97423149D01*
X109605963Y-97542197D01*
X109629773Y-97566006D01*
X109677392Y-97589816D01*
X109248820Y-97089816D02*
X109248820Y-97589816D01*
X109248820Y-97113625D02*
X109201201Y-97089816D01*
X109105963Y-97089816D01*
X109058344Y-97113625D01*
X109034535Y-97137435D01*
X109010725Y-97185054D01*
X109010725Y-97327911D01*
X109034535Y-97375530D01*
X109058344Y-97399339D01*
X109105963Y-97423149D01*
X109201201Y-97423149D01*
X109248820Y-97399339D01*
X108582154Y-97423149D02*
X108582154Y-97161244D01*
X108605963Y-97113625D01*
X108653582Y-97089816D01*
X108748820Y-97089816D01*
X108796439Y-97113625D01*
X108582154Y-97399339D02*
X108629773Y-97423149D01*
X108748820Y-97423149D01*
X108796439Y-97399339D01*
X108820249Y-97351720D01*
X108820249Y-97304101D01*
X108796439Y-97256482D01*
X108748820Y-97232673D01*
X108629773Y-97232673D01*
X108582154Y-97208863D01*
X108367868Y-97399339D02*
X108320249Y-97423149D01*
X108225011Y-97423149D01*
X108177392Y-97399339D01*
X108153582Y-97351720D01*
X108153582Y-97327911D01*
X108177392Y-97280292D01*
X108225011Y-97256482D01*
X108296439Y-97256482D01*
X108344059Y-97232673D01*
X108367868Y-97185054D01*
X108367868Y-97161244D01*
X108344059Y-97113625D01*
X108296439Y-97089816D01*
X108225011Y-97089816D01*
X108177392Y-97113625D01*
X107963106Y-97399339D02*
X107915487Y-97423149D01*
X107820249Y-97423149D01*
X107772630Y-97399339D01*
X107748820Y-97351720D01*
X107748820Y-97327911D01*
X107772630Y-97280292D01*
X107820249Y-97256482D01*
X107891678Y-97256482D01*
X107939297Y-97232673D01*
X107963106Y-97185054D01*
X107963106Y-97161244D01*
X107939297Y-97113625D01*
X107891678Y-97089816D01*
X107820249Y-97089816D01*
X107772630Y-97113625D01*
X103891678Y-97399339D02*
X103939297Y-97423149D01*
X104034535Y-97423149D01*
X104082154Y-97399339D01*
X104105963Y-97375530D01*
X104129773Y-97327911D01*
X104129773Y-97185054D01*
X104105963Y-97137435D01*
X104082154Y-97113625D01*
X104034535Y-97089816D01*
X103939297Y-97089816D01*
X103891678Y-97113625D01*
X103463106Y-97423149D02*
X103463106Y-97161244D01*
X103486916Y-97113625D01*
X103534535Y-97089816D01*
X103629773Y-97089816D01*
X103677392Y-97113625D01*
X103463106Y-97399339D02*
X103510725Y-97423149D01*
X103629773Y-97423149D01*
X103677392Y-97399339D01*
X103701201Y-97351720D01*
X103701201Y-97304101D01*
X103677392Y-97256482D01*
X103629773Y-97232673D01*
X103510725Y-97232673D01*
X103463106Y-97208863D01*
X103225011Y-97089816D02*
X103225011Y-97589816D01*
X103225011Y-97113625D02*
X103177392Y-97089816D01*
X103082154Y-97089816D01*
X103034535Y-97113625D01*
X103010725Y-97137435D01*
X102986916Y-97185054D01*
X102986916Y-97327911D01*
X103010725Y-97375530D01*
X103034535Y-97399339D01*
X103082154Y-97423149D01*
X103177392Y-97423149D01*
X103225011Y-97399339D01*
X102796439Y-97399339D02*
X102748820Y-97423149D01*
X102653582Y-97423149D01*
X102605963Y-97399339D01*
X102582154Y-97351720D01*
X102582154Y-97327911D01*
X102605963Y-97280292D01*
X102653582Y-97256482D01*
X102725011Y-97256482D01*
X102772630Y-97232673D01*
X102796439Y-97185054D01*
X102796439Y-97161244D01*
X102772630Y-97113625D01*
X102725011Y-97089816D01*
X102653582Y-97089816D01*
X102605963Y-97113625D01*
%TO.C,bypass        caps*%
X109891678Y-46750149D02*
X109891678Y-46250149D01*
X109891678Y-46440625D02*
X109844059Y-46416816D01*
X109748820Y-46416816D01*
X109701201Y-46440625D01*
X109677392Y-46464435D01*
X109653582Y-46512054D01*
X109653582Y-46654911D01*
X109677392Y-46702530D01*
X109701201Y-46726339D01*
X109748820Y-46750149D01*
X109844059Y-46750149D01*
X109891678Y-46726339D01*
X109486916Y-46416816D02*
X109367868Y-46750149D01*
X109248820Y-46416816D02*
X109367868Y-46750149D01*
X109415487Y-46869197D01*
X109439297Y-46893006D01*
X109486916Y-46916816D01*
X109058344Y-46416816D02*
X109058344Y-46916816D01*
X109058344Y-46440625D02*
X109010725Y-46416816D01*
X108915487Y-46416816D01*
X108867868Y-46440625D01*
X108844059Y-46464435D01*
X108820249Y-46512054D01*
X108820249Y-46654911D01*
X108844059Y-46702530D01*
X108867868Y-46726339D01*
X108915487Y-46750149D01*
X109010725Y-46750149D01*
X109058344Y-46726339D01*
X108391678Y-46750149D02*
X108391678Y-46488244D01*
X108415487Y-46440625D01*
X108463106Y-46416816D01*
X108558344Y-46416816D01*
X108605963Y-46440625D01*
X108391678Y-46726339D02*
X108439297Y-46750149D01*
X108558344Y-46750149D01*
X108605963Y-46726339D01*
X108629773Y-46678720D01*
X108629773Y-46631101D01*
X108605963Y-46583482D01*
X108558344Y-46559673D01*
X108439297Y-46559673D01*
X108391678Y-46535863D01*
X108177392Y-46726339D02*
X108129773Y-46750149D01*
X108034535Y-46750149D01*
X107986916Y-46726339D01*
X107963106Y-46678720D01*
X107963106Y-46654911D01*
X107986916Y-46607292D01*
X108034535Y-46583482D01*
X108105963Y-46583482D01*
X108153582Y-46559673D01*
X108177392Y-46512054D01*
X108177392Y-46488244D01*
X108153582Y-46440625D01*
X108105963Y-46416816D01*
X108034535Y-46416816D01*
X107986916Y-46440625D01*
X107772630Y-46726339D02*
X107725011Y-46750149D01*
X107629773Y-46750149D01*
X107582154Y-46726339D01*
X107558344Y-46678720D01*
X107558344Y-46654911D01*
X107582154Y-46607292D01*
X107629773Y-46583482D01*
X107701201Y-46583482D01*
X107748820Y-46559673D01*
X107772630Y-46512054D01*
X107772630Y-46488244D01*
X107748820Y-46440625D01*
X107701201Y-46416816D01*
X107629773Y-46416816D01*
X107582154Y-46440625D01*
X104082154Y-46726339D02*
X104129773Y-46750149D01*
X104225011Y-46750149D01*
X104272630Y-46726339D01*
X104296439Y-46702530D01*
X104320249Y-46654911D01*
X104320249Y-46512054D01*
X104296439Y-46464435D01*
X104272630Y-46440625D01*
X104225011Y-46416816D01*
X104129773Y-46416816D01*
X104082154Y-46440625D01*
X103653582Y-46750149D02*
X103653582Y-46488244D01*
X103677392Y-46440625D01*
X103725011Y-46416816D01*
X103820249Y-46416816D01*
X103867868Y-46440625D01*
X103653582Y-46726339D02*
X103701201Y-46750149D01*
X103820249Y-46750149D01*
X103867868Y-46726339D01*
X103891678Y-46678720D01*
X103891678Y-46631101D01*
X103867868Y-46583482D01*
X103820249Y-46559673D01*
X103701201Y-46559673D01*
X103653582Y-46535863D01*
X103415487Y-46416816D02*
X103415487Y-46916816D01*
X103415487Y-46440625D02*
X103367868Y-46416816D01*
X103272630Y-46416816D01*
X103225011Y-46440625D01*
X103201201Y-46464435D01*
X103177392Y-46512054D01*
X103177392Y-46654911D01*
X103201201Y-46702530D01*
X103225011Y-46726339D01*
X103272630Y-46750149D01*
X103367868Y-46750149D01*
X103415487Y-46726339D01*
X102986916Y-46726339D02*
X102939297Y-46750149D01*
X102844059Y-46750149D01*
X102796439Y-46726339D01*
X102772630Y-46678720D01*
X102772630Y-46654911D01*
X102796439Y-46607292D01*
X102844059Y-46583482D01*
X102915487Y-46583482D01*
X102963106Y-46559673D01*
X102986916Y-46512054D01*
X102986916Y-46488244D01*
X102963106Y-46440625D01*
X102915487Y-46416816D01*
X102844059Y-46416816D01*
X102796439Y-46440625D01*
%TO.C,H*%
D11*
X75387773Y-97395339D02*
X75387773Y-96395339D01*
X75387773Y-96871530D02*
X74816344Y-96871530D01*
X74816344Y-97395339D02*
X74816344Y-96395339D01*
%TO.C,G*%
X94017154Y-96442959D02*
X94112392Y-96395339D01*
X94255249Y-96395339D01*
X94398106Y-96442959D01*
X94493344Y-96538197D01*
X94540963Y-96633435D01*
X94588582Y-96823911D01*
X94588582Y-96966768D01*
X94540963Y-97157244D01*
X94493344Y-97252482D01*
X94398106Y-97347720D01*
X94255249Y-97395339D01*
X94160011Y-97395339D01*
X94017154Y-97347720D01*
X93969535Y-97300101D01*
X93969535Y-96966768D01*
X94160011Y-96966768D01*
%TO.C,F*%
X123219201Y-96871530D02*
X123552535Y-96871530D01*
X123552535Y-97395339D02*
X123552535Y-96395339D01*
X123076344Y-96395339D01*
%TO.C,E*%
X143642344Y-97125530D02*
X143309011Y-97125530D01*
X143166154Y-97649339D02*
X143642344Y-97649339D01*
X143642344Y-96649339D01*
X143166154Y-96649339D01*
%TO.C,D*%
X143562963Y-47103339D02*
X143562963Y-46103339D01*
X143324868Y-46103339D01*
X143182011Y-46150959D01*
X143086773Y-46246197D01*
X143039154Y-46341435D01*
X142991535Y-46531911D01*
X142991535Y-46674768D01*
X143039154Y-46865244D01*
X143086773Y-46960482D01*
X143182011Y-47055720D01*
X143324868Y-47103339D01*
X143562963Y-47103339D01*
%TO.C,C6*%
D10*
X73788392Y-72154101D02*
X73812201Y-72201720D01*
X73883630Y-72249339D01*
X73931249Y-72249339D01*
X74002678Y-72201720D01*
X74050297Y-72106482D01*
X74074106Y-72011244D01*
X74097916Y-71820768D01*
X74097916Y-71677911D01*
X74074106Y-71487435D01*
X74050297Y-71392197D01*
X74002678Y-71296959D01*
X73931249Y-71249339D01*
X73883630Y-71249339D01*
X73812201Y-71296959D01*
X73788392Y-71344578D01*
X73359820Y-71249339D02*
X73455059Y-71249339D01*
X73502678Y-71296959D01*
X73526487Y-71344578D01*
X73574106Y-71487435D01*
X73597916Y-71677911D01*
X73597916Y-72058863D01*
X73574106Y-72154101D01*
X73550297Y-72201720D01*
X73502678Y-72249339D01*
X73407439Y-72249339D01*
X73359820Y-72201720D01*
X73336011Y-72154101D01*
X73312201Y-72058863D01*
X73312201Y-71820768D01*
X73336011Y-71725530D01*
X73359820Y-71677911D01*
X73407439Y-71630292D01*
X73502678Y-71630292D01*
X73550297Y-71677911D01*
X73574106Y-71725530D01*
X73597916Y-71820768D01*
%TO.C,C5*%
X144781392Y-72281101D02*
X144805201Y-72328720D01*
X144876630Y-72376339D01*
X144924249Y-72376339D01*
X144995678Y-72328720D01*
X145043297Y-72233482D01*
X145067106Y-72138244D01*
X145090916Y-71947768D01*
X145090916Y-71804911D01*
X145067106Y-71614435D01*
X145043297Y-71519197D01*
X144995678Y-71423959D01*
X144924249Y-71376339D01*
X144876630Y-71376339D01*
X144805201Y-71423959D01*
X144781392Y-71471578D01*
X144329011Y-71376339D02*
X144567106Y-71376339D01*
X144590916Y-71852530D01*
X144567106Y-71804911D01*
X144519487Y-71757292D01*
X144400439Y-71757292D01*
X144352820Y-71804911D01*
X144329011Y-71852530D01*
X144305201Y-71947768D01*
X144305201Y-72185863D01*
X144329011Y-72281101D01*
X144352820Y-72328720D01*
X144400439Y-72376339D01*
X144519487Y-72376339D01*
X144567106Y-72328720D01*
X144590916Y-72281101D01*
%TO.C,C4*%
X139193392Y-72281101D02*
X139217201Y-72328720D01*
X139288630Y-72376339D01*
X139336249Y-72376339D01*
X139407678Y-72328720D01*
X139455297Y-72233482D01*
X139479106Y-72138244D01*
X139502916Y-71947768D01*
X139502916Y-71804911D01*
X139479106Y-71614435D01*
X139455297Y-71519197D01*
X139407678Y-71423959D01*
X139336249Y-71376339D01*
X139288630Y-71376339D01*
X139217201Y-71423959D01*
X139193392Y-71471578D01*
X138764820Y-71709673D02*
X138764820Y-72376339D01*
X138883868Y-71328720D02*
X139002916Y-72043006D01*
X138693392Y-72043006D01*
%TO.C,C3*%
X81272392Y-72154101D02*
X81296201Y-72201720D01*
X81367630Y-72249339D01*
X81415249Y-72249339D01*
X81486678Y-72201720D01*
X81534297Y-72106482D01*
X81558106Y-72011244D01*
X81581916Y-71820768D01*
X81581916Y-71677911D01*
X81558106Y-71487435D01*
X81534297Y-71392197D01*
X81486678Y-71296959D01*
X81415249Y-71249339D01*
X81367630Y-71249339D01*
X81296201Y-71296959D01*
X81272392Y-71344578D01*
X81105725Y-71249339D02*
X80796201Y-71249339D01*
X80962868Y-71630292D01*
X80891439Y-71630292D01*
X80843820Y-71677911D01*
X80820011Y-71725530D01*
X80796201Y-71820768D01*
X80796201Y-72058863D01*
X80820011Y-72154101D01*
X80843820Y-72201720D01*
X80891439Y-72249339D01*
X81034297Y-72249339D01*
X81081916Y-72201720D01*
X81105725Y-72154101D01*
%TO.C,C*%
D11*
X123306535Y-47135101D02*
X123354154Y-47182720D01*
X123497011Y-47230339D01*
X123592249Y-47230339D01*
X123735106Y-47182720D01*
X123830344Y-47087482D01*
X123877963Y-46992244D01*
X123925582Y-46801768D01*
X123925582Y-46658911D01*
X123877963Y-46468435D01*
X123830344Y-46373197D01*
X123735106Y-46277959D01*
X123592249Y-46230339D01*
X123497011Y-46230339D01*
X123354154Y-46277959D01*
X123306535Y-46325578D01*
%TO.C,B*%
X94207630Y-46833530D02*
X94064773Y-46881149D01*
X94017154Y-46928768D01*
X93969535Y-47024006D01*
X93969535Y-47166863D01*
X94017154Y-47262101D01*
X94064773Y-47309720D01*
X94160011Y-47357339D01*
X94540963Y-47357339D01*
X94540963Y-46357339D01*
X94207630Y-46357339D01*
X94112392Y-46404959D01*
X94064773Y-46452578D01*
X94017154Y-46547816D01*
X94017154Y-46643054D01*
X94064773Y-46738292D01*
X94112392Y-46785911D01*
X94207630Y-46833530D01*
X94540963Y-46833530D01*
%TO.C,A*%
X75086154Y-47071625D02*
X74609963Y-47071625D01*
X75181392Y-47357339D02*
X74848059Y-46357339D01*
X74514725Y-47357339D01*
%TD*%
M02*
