M48
; DRILL file {KiCad (5.1.9-0-10_14)} date Thursday, April 15, 2021 at 10:23:09 PM
; FORMAT={-:-/ absolute / inch / decimal}
; #@! TF.CreationDate,2021-04-15T22:23:09+08:00
; #@! TF.GenerationSoftware,Kicad,Pcbnew,(5.1.9-0-10_14)
FMAT,2
INCH
T1C0.0120
T2C0.0300
T3C0.0394
T4C0.0709
%
G90
G05
T1
X2.7368Y-2.0367
X2.7581Y-2.791
X2.7753Y-2.6315
X2.7768Y-2.6717
X2.7968Y-1.9367
X2.8018Y-3.7317
X2.8068Y-3.6067
X2.8068Y-3.2567
X2.8068Y-3.3067
X2.8068Y-3.3567
X2.8118Y-2.2517
X2.8118Y-2.4034
X2.8118Y-2.4467
X2.8118Y-3.4067
X2.812Y-2.1504
X2.812Y-2.2034
X2.8121Y-2.1034
X2.8168Y-3.5567
X2.8568Y-2.8267
X2.8718Y-3.0917
X2.8768Y-1.9267
X2.8768Y-2.6917
X2.9268Y-2.4817
X2.9768Y-2.3817
X2.9982Y-2.7717
X3.0218Y-2.1817
X3.0461Y-2.7667
X3.0608Y-1.8317
X3.0608Y-3.8317
X3.0668Y-2.8617
X3.0718Y-2.9817
X3.0768Y-1.9117
X3.0868Y-2.0817
X3.0918Y-3.4817
X3.0968Y-3.3599
X3.1568Y-2.8267
X3.1718Y-3.7567
X3.175Y-2.5031
X3.1818Y-3.2723
X3.1839Y-2.6568
X3.2268Y-2.8834
X3.2754Y-2.0553
X3.2798Y-2.8617
X3.2918Y-3.1667
X3.3018Y-1.8867
X3.3118Y-2.0567
X3.3218Y-1.9817
X3.3228Y-3.0917
X3.3568Y-3.2117
X3.3718Y-2.8834
X3.3718Y-3.7216
X3.375Y-2.565
X3.3768Y-3.2817
X3.3918Y-2.9117
X3.4268Y-2.8567
X3.4367Y-3.2067
X3.4367Y-3.4567
X3.4367Y-3.5067
X3.4368Y-2.0517
X3.4368Y-2.2467
X3.4368Y-2.3017
X3.4368Y-2.3517
X3.4368Y-3.1567
X3.4369Y-3.4081
X3.4381Y-3.3526
X3.4418Y-1.9967
X3.4428Y-2.1945
X3.4518Y-2.5867
X3.4663Y-3.0867
X3.5035Y-2.4467
X3.5068Y-2.4034
X3.5468Y-2.6331
X3.5618Y-3.0317
X3.5682Y-2.8615
X3.5768Y-3.2517
X3.5818Y-3.3067
X3.5818Y-3.3567
X3.5818Y-3.4067
X3.5818Y-3.4511
X3.5818Y-3.5067
X3.585Y-2.1461
X3.586Y-2.2017
X3.5868Y-2.3461
X3.5868Y-2.4517
X3.5868Y-2.2517
X3.5918Y-2.4017
X3.5928Y-2.1034
X3.5941Y-2.3069
X3.6268Y-2.6331
X3.6368Y-3.3867
X3.6368Y-3.4852
X3.6445Y-3.0097
X3.6518Y-1.955
X3.7001Y-2.7678
X3.7018Y-2.4817
X3.7368Y-1.8667
X3.7425Y-2.7829
X3.7518Y-2.3785
X3.8018Y-2.1785
X3.8358Y-1.8317
X3.8358Y-3.8317
X3.8418Y-2.9934
X3.8718Y-2.0817
X3.8968Y-2.3017
X3.8977Y-3.4781
X3.9468Y-2.5031
X3.9468Y-3.7567
X3.9518Y-2.6567
X3.9578Y-1.8317
X4.0032Y-2.8834
X4.0504Y-2.0553
X4.0504Y-2.0553
X4.0768Y-2.3517
X4.0968Y-1.9817
X4.0982Y-2.9017
X4.1207Y-2.8586
X4.1468Y-2.0067
X4.1468Y-3.7194
X4.15Y-2.565
X4.1648Y-2.0633
X4.2068Y-3.3567
X4.2117Y-3.5067
X4.2118Y-3.4567
X4.2168Y-2.0017
X4.2168Y-2.2961
X4.2168Y-2.3517
X4.2168Y-3.2567
X4.2168Y-3.3067
X4.2168Y-2.0511
X4.2218Y-2.1517
X4.2268Y-2.1067
X4.2668Y-3.4067
X4.2968Y-3.4231
X4.3273Y-3.3587
X4.3768Y-3.4017
X4.3804Y-3.3587
X4.3818Y-3.2517
X4.3818Y-3.5005
X4.3818Y-2.3
X4.3818Y-2.3385
X4.3818Y-3.4567
X4.3818Y-3.5567
X4.3818Y-3.6067
X4.3868Y-2.0961
X4.3868Y-2.1517
X4.3868Y-2.1961
X4.3868Y-2.2517
X4.3868Y-2.4067
X4.3868Y-2.4467
X4.4018Y-3.1067
X4.4318Y-3.0067
X4.4418Y-3.1817
X4.4468Y-1.9367
X4.4468Y-3.3117
X4.4868Y-2.7867
X4.4933Y-2.4817
X4.5432Y-2.3785
X4.5446Y-1.8531
X4.5718Y-3.8067
X4.5793Y-1.8692
X4.58Y-2.7799
X4.5968Y-2.1802
X4.6418Y-2.0752
X4.6518Y-2.9817
X4.7369Y-2.6334
X4.7418Y-2.6717
X4.7468Y-2.5031
X4.7468Y-3.7517
X4.7578Y-1.8317
X4.7718Y-3.4352
X4.8268Y-2.8817
X4.8454Y-2.0626
X4.8853Y-2.0626
X4.8968Y-1.9785
X4.8968Y-2.8917
X4.9318Y-2.4417
X4.9414Y-2.4129
X4.9468Y-2.1467
X4.9468Y-2.565
X4.9468Y-3.7216
X4.9519Y-2.2148
X4.9573Y-2.8272
X4.979Y-2.8485
X5.0117Y-2.25
X5.0117Y-2.3
X5.0117Y-2.35
X5.0117Y-3.3067
X5.0118Y-3.1567
X5.0118Y-3.2567
X5.0118Y-3.4567
X5.0118Y-3.5067
X5.0118Y-3.2067
X5.012Y-2.1017
X5.0318Y-2.8117
X5.0418Y-2.7767
X5.1069Y-2.7785
X5.1418Y-2.7967
X5.1468Y-2.5367
X5.1568Y-2.1517
X5.1568Y-3.2617
X5.1568Y-3.3117
X5.1568Y-3.4117
X5.1568Y-2.1
X5.1568Y-2.2
X5.1568Y-2.25
X5.1568Y-2.4
X5.1568Y-2.45
X5.1568Y-3.3617
X5.178Y-2.7654
X5.1868Y-3.0617
X5.1869Y-2.6514
X5.2205Y-2.2997
X5.2208Y-2.9947
X5.222Y-2.6861
X5.2228Y-1.9617
X5.2518Y-3.2017
X5.2547Y-3.1656
X5.2585Y-1.8534
X5.2877Y-2.4794
X5.2968Y-3.1917
X5.3032Y-2.7679
X5.3218Y-2.3767
X5.3368Y-1.8674
X5.3582Y-2.8117
X5.3918Y-2.1817
X5.3968Y-2.2517
X5.3968Y-3.8317
X5.4035Y-2.972
X5.4161Y-2.9067
X5.4168Y-2.0841
X5.5218Y-3.7567
X5.5218Y-2.5017
X5.5252Y-2.6492
X5.5318Y-2.8117
X5.5328Y-1.8317
X5.57Y-3.2467
X5.57Y-3.5517
X5.5843Y-2.7927
X5.6074Y-2.901
X5.6112Y-2.0622
X5.6518Y-2.8317
X5.6718Y-1.9476
X5.6804Y-2.8952
X5.7184Y-2.6304
X5.7218Y-2.565
X5.7218Y-3.7266
X5.7255Y-2.6679
X5.7368Y-2.8267
X5.7613Y-2.6361
X5.7618Y-1.9667
X5.7818Y-2.3517
X5.785Y-3.5099
X5.7867Y-3.2117
X5.7867Y-2.0
X5.7867Y-2.05
X5.7867Y-2.25
X5.7867Y-2.5
X5.7867Y-3.1602
X5.7867Y-3.6617
X5.7868Y-2.3017
X5.7868Y-3.3617
X5.7875Y-3.0202
X5.788Y-2.9894
X5.7918Y-3.4117
X5.7918Y-3.4617
X5.792Y-3.0839
X5.7972Y-1.9189
X5.7999Y-1.9526
X5.8092Y-2.9178
X5.8304Y-3.4852
X5.8371Y-1.8517
X5.8418Y-3.0867
X5.8444Y-2.9909
T2
X2.8468Y-2.7267
X2.8468Y-2.9367
X2.9468Y-2.7267
X2.9468Y-2.9367
X3.0468Y-2.7267
X3.0468Y-2.9367
X3.0968Y-2.0267
X3.0968Y-3.6267
X3.1468Y-2.7267
X3.1468Y-2.9367
X3.2468Y-2.7267
X3.2468Y-2.9367
X3.3468Y-2.7267
X3.3468Y-2.9367
X3.4468Y-2.7267
X3.4468Y-2.9367
X3.5068Y-3.7817
X3.5118Y-1.8867
X3.5468Y-2.7267
X3.5468Y-2.9367
X3.6468Y-2.7267
X3.6468Y-2.9367
X3.7468Y-2.7267
X3.7468Y-2.9367
X3.8468Y-2.7267
X3.8468Y-2.9367
X3.9468Y-2.7267
X3.9468Y-2.9367
X4.0468Y-2.7267
X4.0468Y-2.9367
X4.1468Y-2.7267
X4.1468Y-2.9367
X4.2468Y-2.7267
X4.2468Y-2.9367
X4.2968Y-1.8967
X4.2968Y-2.0167
X4.2968Y-3.6417
X4.2968Y-3.7617
X4.3468Y-2.7267
X4.3468Y-2.9367
X4.4468Y-2.7267
X4.4468Y-2.9367
X4.5468Y-2.7267
X4.5468Y-2.9367
X4.6468Y-2.7267
X4.6468Y-2.9367
X4.7468Y-2.7267
X4.7468Y-2.9367
X4.8468Y-2.7267
X4.8468Y-2.9367
X4.9468Y-2.7267
X4.9468Y-2.9367
X5.0468Y-2.7267
X5.0468Y-2.9367
X5.1468Y-2.7267
X5.1468Y-2.9367
X5.2468Y-2.7267
X5.2468Y-2.9367
X5.3468Y-2.7267
X5.3468Y-2.9367
X5.4468Y-2.7267
X5.4468Y-2.9367
X5.5468Y-2.7267
X5.5468Y-2.9367
X5.6468Y-2.7267
X5.6468Y-2.9367
X5.7468Y-2.7267
X5.7468Y-2.9367
T3
X2.6968Y-1.9817
X2.6968Y-2.0817
X2.6968Y-2.1817
X2.6968Y-2.2817
X2.6968Y-2.3817
X2.6968Y-2.4817
X2.6968Y-2.5817
X2.6968Y-2.6817
X2.6968Y-2.7817
X2.6968Y-2.8817
X2.6968Y-2.9817
X2.6968Y-3.0817
X2.6968Y-3.1817
X2.6968Y-3.2817
X2.6968Y-3.3817
X2.6968Y-3.4817
X2.6968Y-3.5817
X2.6968Y-3.6817
X5.8968Y-1.9817
X5.8968Y-2.0817
X5.8968Y-2.1817
X5.8968Y-2.2817
X5.8968Y-2.3817
X5.8968Y-2.4817
X5.8968Y-2.5817
X5.8968Y-2.6817
X5.8968Y-2.7817
X5.8968Y-2.8817
X5.8968Y-2.9817
X5.8968Y-3.0817
X5.8968Y-3.1817
X5.8968Y-3.2817
X5.8968Y-3.3817
X5.8968Y-3.4817
X5.8968Y-3.5817
X5.8968Y-3.6817
T4
G00X3.1218Y-1.8198
M15
G01X3.1218Y-1.8435
M16
G05
G00X3.1218Y-3.8435
M15
G01X3.1218Y-3.8198
M16
G05
G00X3.8968Y-1.8198
M15
G01X3.8968Y-1.8435
M16
G05
G00X3.8968Y-3.8435
M15
G01X3.8968Y-3.8198
M16
G05
G00X4.6968Y-1.8198
M15
G01X4.6968Y-1.8435
M16
G05
G00X4.6968Y-3.8435
M15
G01X4.6968Y-3.8198
M16
G05
G00X5.4718Y-1.8198
M15
G01X5.4718Y-1.8435
M16
G05
G00X5.4718Y-3.8435
M15
G01X5.4718Y-3.8198
M16
G05
T0
M30
