M48
INCH,TZ
T1C0.0079
T2C0.0394
%
G90
G05
T1
X49520Y-18740
X49528Y-24472
X49549Y-30084
X49640Y-20400
X49661Y-29315
X49681Y-25665
X49701Y-11933
X49714Y-18540
X49866Y-21416
X49874Y-14102
X49940Y-15760
X49945Y-17528
X50126Y-27000
X50264Y-13800
X50326Y-31801
X50332Y-12022
X50472Y-13535
X50512Y-30130
X50940Y-28040
X50965Y-19067
X51000Y-26500
X51048Y-24858
X51058Y-29423
X51060Y-14400
X51060Y-28520
X51323Y-30890
X51356Y-14823
X51540Y-18740
X51580Y-14440
X51580Y-15435
X51614Y-29304
X51627Y-22537
X51874Y-20640
X51900Y-24296
X51900Y-29360
X51904Y-20914
X51980Y-26020
X52016Y-17709
X52020Y-16512
X52055Y-19600
X52100Y-14380
X52117Y-24926
X52126Y-25235
X52374Y-29174
X52500Y-17640
X52520Y-29580
X52540Y-14540
X52596Y-15760
X52886Y-18000
X52941Y-14618
X53000Y-17240
X53040Y-29560
X53044Y-17623
X53080Y-19280
X53126Y-19000
X53128Y-22636
X53138Y-28711
X53232Y-14634
X53500Y-16740
X54000Y-20760
X54020Y-19480
X54035Y-26988
X54100Y-18880
X54124Y-24341
X54496Y-18516
X54500Y-24680
X54575Y-31890
X54744Y-30941
X54745Y-29219
X54776Y-29601
X54840Y-28260
X54880Y-19400
X54880Y-24440
X54980Y-21680
X55004Y-16167
X55036Y-29509
X55080Y-17000
X55080Y-18890
X55120Y-24620
X55123Y-24297
X55180Y-28260
X55264Y-14475
X55267Y-14750
X55331Y-15536
X55380Y-12100
X55500Y-16580
X55500Y-25400
X55657Y-21463
X55874Y-27940
X55881Y-19246
X56008Y-20662
X56024Y-30858
X56060Y-16500
X56080Y-14882
X56097Y-28158
X56101Y-17753
X56110Y-26444
X56120Y-14560
X56126Y-18226
X56126Y-18634
X56126Y-19520
X56126Y-26000
X56236Y-21480
X56422Y-22696
X56520Y-24000
X56877Y-20916
X56880Y-22985
X56880Y-23360
X57118Y-18252
X57126Y-25760
X57126Y-26240
X57177Y-31850
X57200Y-30440
X57280Y-12016
X57300Y-14320
X57620Y-12213
X57874Y-18996
X57920Y-17000
X57940Y-16500
X58070Y-23373
X58340Y-28980
X58500Y-25400
X58522Y-16098
X58620Y-29062
X58640Y-14440
X58874Y-17120
X58874Y-17440
X58874Y-17760
X58877Y-18584
X58880Y-28160
X58891Y-25946
X58898Y-27088
X58907Y-26556
X58940Y-27540
X58984Y-26826
X59031Y-29535
X59071Y-16647
X59100Y-17920
X59100Y-32000
X59126Y-20636
X59126Y-24717
X59200Y-14640
X59260Y-12080
X59443Y-29535
X59480Y-16160
X59520Y-25860
X59680Y-22000
X59917Y-19571
X59960Y-19026
X60040Y-16000
X60043Y-19289
X60240Y-29535
X60500Y-26480
X60520Y-14780
X60520Y-17800
X60720Y-21420
X60780Y-28788
X60782Y-29535
X60874Y-24717
X60880Y-18940
X61004Y-19610
X61369Y-22748
X61460Y-14577
X61500Y-18580
X61520Y-26500
X61532Y-29535
X61560Y-21340
X61713Y-12197
X61880Y-18040
X61880Y-24600
X62020Y-15760
X62080Y-24380
X62210Y-30564
X62396Y-31800
X62414Y-18315
X62421Y-12606
X62467Y-15536
X62480Y-26480
X62660Y-31880
X62724Y-29535
X62858Y-13110
X62860Y-28124
X62874Y-24700
X62880Y-16540
X62904Y-24421
X62960Y-14577
X62992Y-25801
X62992Y-26548
X63080Y-25140
X63100Y-28645
X63119Y-16375
X63126Y-16100
X63126Y-16680
X63324Y-29586
X63334Y-31492
X63360Y-14882
X63377Y-27203
X63398Y-18016
X63494Y-21248
X63520Y-14420
X63720Y-22360
X63836Y-30026
X63890Y-11909
X63956Y-24052
X63996Y-13598
X63996Y-17496
X64020Y-18000
X64146Y-31917
X64240Y-22024
X64300Y-21580
X64476Y-22480
X64496Y-19945
X64524Y-27750
X64642Y-31917
X64657Y-28232
X64879Y-16521
X64881Y-26661
X64940Y-17560
X64940Y-31021
X64947Y-17207
X64992Y-11870
X65000Y-25340
X65000Y-27260
X65040Y-26900
X65055Y-26245
X65086Y-25793
X65088Y-20804
X65122Y-25052
X65123Y-16393
X65126Y-20080
X65320Y-31021
X65421Y-28390
X65480Y-24000
X65880Y-19020
X65886Y-27500
X65886Y-29024
X65900Y-18000
X65900Y-18520
X65900Y-27989
X65940Y-17480
X65953Y-13594
X66193Y-13094
X66311Y-14204
X66500Y-18080
X66500Y-25360
X66531Y-22694
X66660Y-14880
X66874Y-18460
X66874Y-18800
X66884Y-26293
X66900Y-31400
X66914Y-26726
X66937Y-18192
X66988Y-26991
X67058Y-29376
X67060Y-17000
X67060Y-19020
X67126Y-20780
X67126Y-24540
X67134Y-12610
X67500Y-23140
X67500Y-31820
X67567Y-17488
X67636Y-14682
X67640Y-29400
X67697Y-28484
X67860Y-31774
X67874Y-20720
X67885Y-19020
X68068Y-29395
X68096Y-19270
X68096Y-19583
X68116Y-16041
X68264Y-11866
X68386Y-31843
X68445Y-13122
X68448Y-21433
X68480Y-18780
X68500Y-26171
X68560Y-14676
X68615Y-29421
X68874Y-24889
X68900Y-19260
X68920Y-21500
X69126Y-18000
X69126Y-24500
X69276Y-14679
X69470Y-21876
X69520Y-18680
X69536Y-26960
X69553Y-29464
X69580Y-22604
X69920Y-19480
X69944Y-24540
X70079Y-15793
X70200Y-22500
X70220Y-22200
X70344Y-15613
X70409Y-31362
X70426Y-28440
X70475Y-21240
X70480Y-27520
X70500Y-18860
X70600Y-12020
X70635Y-22765
X70874Y-16700
X70880Y-26300
X70905Y-24713
X70920Y-28100
X70937Y-13130
X70973Y-26921
X71032Y-14636
X71100Y-28760
X71125Y-25616
X71126Y-17320
X71126Y-17720
X71140Y-29176
X71197Y-31902
X71283Y-12094
X71340Y-29660
X71500Y-18740
X71500Y-29360
X71884Y-23192
X71903Y-22905
X71917Y-13146
X72020Y-25500
X72020Y-25980
X72020Y-26500
X72126Y-18020
X72126Y-19940
X72606Y-13146
X72874Y-20000
X72992Y-32087
X73060Y-30780
X73110Y-13161
X73116Y-23993
X73127Y-22967
X73900Y-16380
X73900Y-19260
X73900Y-26414
X73937Y-15134
X73940Y-16680
X74012Y-32087
X74120Y-28520
X74126Y-20680
X74126Y-27540
X74140Y-21120
X74240Y-29482
X74264Y-15045
X74264Y-15320
X74380Y-22620
X74471Y-14773
X74500Y-18000
X74726Y-29266
X74740Y-14832
X74874Y-17080
X74874Y-18600
X74874Y-25774
X74909Y-25476
X74913Y-32087
X74931Y-24669
X74940Y-15986
X74940Y-19000
X75080Y-29040
X75126Y-19520
X75145Y-14679
X75158Y-15000
X75457Y-22485
X75500Y-26080
X75559Y-14358
X75560Y-20880
X75577Y-22744
X75818Y-22354
X75874Y-25340
X75880Y-25700
X75961Y-24709
X76036Y-26370
X76060Y-17660
X76080Y-17320
X76100Y-19320
X76126Y-18980
X76394Y-30798
X76395Y-22580
X76457Y-26297
X76460Y-18760
X76480Y-14402
X76640Y-21420
X76894Y-30798
X76927Y-27526
X76960Y-18096
X77019Y-14649
X77100Y-12000
X77100Y-24560
X77320Y-28980
X77406Y-28246
X77483Y-25803
X77492Y-32189
X77520Y-18780
X77580Y-28460
X77602Y-29146
X77647Y-15768
X77811Y-15516
X77874Y-16335
X77874Y-17160
X77875Y-23905
X77900Y-29020
X77917Y-15157
X77960Y-20180
X78023Y-28324
X78052Y-30949
X78087Y-22926
X78174Y-29369
X78280Y-15264
X78296Y-28938
X78349Y-14405
X78520Y-29580
X78626Y-30945
X78819Y-12985
X78874Y-17622
X78880Y-14840
X78884Y-16020
X78884Y-16784
X78884Y-26414
X78884Y-27778
X78949Y-27445
X78965Y-18913
X79020Y-25130
X79027Y-14586
X79031Y-24516
X79095Y-29206
X79149Y-12730
X79575Y-14051
X79584Y-12216
X79705Y-31882
X79740Y-21460
X79800Y-22680
X79881Y-20343
X80007Y-23498
X80060Y-25500
X80100Y-30226
X80152Y-24500
X80440Y-24000
T2
X49000Y-12000
X49000Y-13000
X49000Y-14000
X49000Y-15000
X49000Y-16000
X49000Y-17000
X49000Y-18000
X49000Y-19000
X49000Y-20000
X49000Y-21000
X49000Y-22000
X49000Y-23000
X49000Y-24000
X49000Y-25000
X49000Y-26000
X49000Y-27000
X49000Y-28000
X49000Y-29000
X49000Y-30000
X49000Y-31000
X49000Y-32000
X81000Y-12000
X81000Y-13000
X81000Y-14000
X81000Y-15000
X81000Y-16000
X81000Y-17000
X81000Y-18000
X81000Y-19000
X81000Y-20000
X81000Y-21000
X81000Y-22000
X81000Y-23000
X81000Y-24000
X81000Y-25000
X81000Y-26000
X81000Y-27000
X81000Y-28000
X81000Y-29000
X81000Y-30000
X81000Y-31000
X81000Y-32000
T0
M30
